<svg width="34" height="34" viewBox="0 0 34 34" fill="none" xmlns="http://www.w3.org/2000/svg">
<g id="06">
<g id="Icon">
<g id="Lines">
<path id="Vector" d="M3.24597 14.4921V19.0041" stroke="#0598CE" stroke-width="0.9" stroke-miterlimit="10"/>
<path id="Vector_2" d="M3.24597 12.2451L7.75397 3.2511" stroke="#0598CE" stroke-width="0.9" stroke-miterlimit="10"/>
<path id="Vector_3" d="M25.754 3.2511L30.246 12.2511" stroke="#0598CE" stroke-width="0.9" stroke-miterlimit="10"/>
<path id="Vector_4" d="M3.25403 21.2511L7.74603 30.2511" stroke="#0598CE" stroke-width="0.9" stroke-miterlimit="10"/>
<path id="Vector_5" d="M7.74597 30.251L16.746 25.745" stroke="#0598CE" stroke-width="0.9" stroke-miterlimit="10"/>
<path id="Vector_6" d="M16.746 25.745L25.754 30.245" stroke="#0598CE" stroke-width="0.9" stroke-miterlimit="10"/>
<path id="Vector_7" d="M25.754 30.2451L30.254 21.2511" stroke="#0598CE" stroke-width="0.9" stroke-miterlimit="10"/>
<path id="Vector_8" d="M7.75403 3.2511H25.754" stroke="#0598CE" stroke-width="0.9" stroke-miterlimit="10"/>
<path id="Vector_9" d="M30.246 14.498V19.004" stroke="#0598CE" stroke-width="0.9" stroke-miterlimit="10"/>
<path id="Vector_10" d="M16.746 23.498V14.498" stroke="#0598CE" stroke-width="0.9" stroke-miterlimit="10"/>
</g>
<g id="Circles">
<path id="Vector_11" d="M7.75406 5.4981C8.99449 5.4981 10.0001 4.49253 10.0001 3.2521C10.0001 2.01167 8.99449 1.0061 7.75406 1.0061C6.51362 1.0061 5.50806 2.01167 5.50806 3.2521C5.50806 4.49253 6.51362 5.4981 7.75406 5.4981Z" fill="#113768"/>
<path id="Vector_12" d="M3.246 14.492C4.48643 14.492 5.492 13.4864 5.492 12.246C5.492 11.0056 4.48643 10 3.246 10C2.00557 10 1 11.0056 1 12.246C1 13.4864 2.00557 14.492 3.246 14.492Z" fill="#113768"/>
<path id="Vector_13" d="M3.25406 23.4981C4.49449 23.4981 5.50006 22.4925 5.50006 21.2521C5.50006 20.0117 4.49449 19.0061 3.25406 19.0061C2.01362 19.0061 1.00806 20.0117 1.00806 21.2521C1.00806 22.4925 2.01362 23.4981 3.25406 23.4981Z" fill="#113768"/>
<path id="Vector_14" d="M7.746 32.4981C8.98643 32.4981 9.992 31.4925 9.992 30.2521C9.992 29.0117 8.98643 28.0061 7.746 28.0061C6.50557 28.0061 5.5 29.0117 5.5 30.2521C5.5 31.4925 6.50557 32.4981 7.746 32.4981Z" fill="#113768"/>
<path id="Vector_15" d="M16.746 27.992C17.9864 27.992 18.992 26.9864 18.992 25.746C18.992 24.5056 17.9864 23.5 16.746 23.5C15.5056 23.5 14.5 24.5056 14.5 25.746C14.5 26.9864 15.5056 27.992 16.746 27.992Z" fill="#113768"/>
<path id="Vector_16" d="M25.7541 32.492C26.9945 32.492 28.0001 31.4864 28.0001 30.246C28.0001 29.0056 26.9945 28 25.7541 28C24.5136 28 23.5081 29.0056 23.5081 30.246C23.5081 31.4864 24.5136 32.492 25.7541 32.492Z" fill="#113768"/>
<path id="Vector_17" d="M30.2541 23.4981C31.4945 23.4981 32.5001 22.4925 32.5001 21.2521C32.5001 20.0117 31.4945 19.0061 30.2541 19.0061C29.0136 19.0061 28.0081 20.0117 28.0081 21.2521C28.0081 22.4925 29.0136 23.4981 30.2541 23.4981Z" fill="#113768"/>
<path id="Vector_18" d="M30.246 14.4981C31.4864 14.4981 32.492 13.4925 32.492 12.2521C32.492 11.0117 31.4864 10.0061 30.246 10.0061C29.0056 10.0061 28 11.0117 28 12.2521C28 13.4925 29.0056 14.4981 30.246 14.4981Z" fill="#113768"/>
<path id="Vector_19" d="M25.7541 5.492C26.9945 5.492 28.0001 4.48643 28.0001 3.246C28.0001 2.00557 26.9945 1 25.7541 1C24.5136 1 23.5081 2.00557 23.5081 3.246C23.5081 4.48643 24.5136 5.492 25.7541 5.492Z" fill="#113768"/>
<path id="Vector_20" d="M16.7541 14.4981C17.9945 14.4981 19.0001 13.4925 19.0001 12.2521C19.0001 11.0117 17.9945 10.0061 16.7541 10.0061C15.5136 10.0061 14.5081 11.0117 14.5081 12.2521C14.5081 13.4925 15.5136 14.4981 16.7541 14.4981Z" fill="#113768"/>
</g>
</g>
</g>
</svg>
