<svg width="34" height="34" viewBox="0 0 34 34" fill="none" xmlns="http://www.w3.org/2000/svg">
<g id="10" clip-path="url(#clip0_3733_8916)">
<g id="Icon">
<g id="Lines">
<path id="Vector" d="M1.88635 5.50223L24.553 31.1977" stroke="#0598CE" stroke-width="0.9" stroke-miterlimit="10"/>
<path id="Vector_2" d="M9.44702 1.83246L32.1137 27.5279" stroke="#0598CE" stroke-width="0.9" stroke-miterlimit="10"/>
<path id="Vector_3" d="M5.64307 9.89227L12.3608 5.26826" stroke="#0598CE" stroke-width="0.9" stroke-miterlimit="10"/>
<path id="Vector_4" d="M8.36902 13.0557L15.0868 8.4317" stroke="#0598CE" stroke-width="0.9" stroke-miterlimit="10"/>
<path id="Vector_5" d="M11.4089 16.5101L18.1267 11.8861" stroke="#0598CE" stroke-width="0.9" stroke-miterlimit="10"/>
<path id="Vector_6" d="M14.6133 19.9207L21.331 15.2967" stroke="#0598CE" stroke-width="0.9" stroke-miterlimit="10"/>
<path id="Vector_7" d="M17.3391 23.0841L24.0568 18.4601" stroke="#0598CE" stroke-width="0.9" stroke-miterlimit="10"/>
<path id="Vector_8" d="M20.379 26.5387L27.0968 21.9147" stroke="#0598CE" stroke-width="0.9" stroke-miterlimit="10"/>
</g>
<g id="Circles">
<path id="Vector_9" d="M1.88637 7.33484C2.92819 7.33484 3.77274 6.51442 3.77274 5.50237C3.77274 4.49032 2.92819 3.66989 1.88637 3.66989C0.844557 3.66989 0 4.49032 0 5.50237C0 6.51442 0.844557 7.33484 1.88637 7.33484Z" fill="#113768"/>
<path id="Vector_10" d="M9.44692 3.66495C10.4887 3.66495 11.3333 2.84452 11.3333 1.83248C11.3333 0.820427 10.4887 0 9.44692 0C8.4051 0 7.56055 0.820427 7.56055 1.83248C7.56055 2.84452 8.4051 3.66495 9.44692 3.66495Z" fill="#113768"/>
<path id="Vector_11" d="M32.1137 29.3604C33.1555 29.3604 34 28.5399 34 27.5279C34 26.5158 33.1555 25.6954 32.1137 25.6954C31.0719 25.6954 30.2273 26.5158 30.2273 27.5279C30.2273 28.5399 31.0719 29.3604 32.1137 29.3604Z" fill="#113768"/>
<path id="Vector_12" d="M24.5531 33.0302C25.5949 33.0302 26.4395 32.2097 26.4395 31.1977C26.4395 30.1856 25.5949 29.3652 24.5531 29.3652C23.5113 29.3652 22.6667 30.1856 22.6667 31.1977C22.6667 32.2097 23.5113 33.0302 24.5531 33.0302Z" fill="#113768"/>
</g>
</g>
</g>
<defs>
<clipPath id="clip0_3733_8916">
<rect width="34" height="34" fill="white"/>
</clipPath>
</defs>
</svg>
