<svg width="34" height="34" viewBox="0 0 34 34" fill="none" xmlns="http://www.w3.org/2000/svg">
<g id="14">
<g id="Icon">
<g id="Lines">
<path id="Vector" d="M3.44702 28.2469L16.953 5.74695" stroke="#0598CE" stroke-width="0.9" stroke-miterlimit="10"/>
<path id="Vector_2" d="M16.9529 5.74695L30.4469 28.2469" stroke="#0598CE" stroke-width="0.9" stroke-miterlimit="10"/>
<path id="Vector_3" d="M5.69397 28.2469H28.2" stroke="#0598CE" stroke-width="0.9" stroke-miterlimit="10"/>
</g>
<g id="Circles">
<path id="Vector_4" d="M16.9529 7.994C18.1939 7.994 19.1999 6.98798 19.1999 5.747C19.1999 4.50602 18.1939 3.5 16.9529 3.5C15.7119 3.5 14.7059 4.50602 14.7059 5.747C14.7059 6.98798 15.7119 7.994 16.9529 7.994Z" fill="#113768"/>
<path id="Vector_5" d="M3.44695 30.494C4.68793 30.494 5.69395 29.488 5.69395 28.247C5.69395 27.006 4.68793 26 3.44695 26C2.20597 26 1.19995 27.006 1.19995 28.247C1.19995 29.488 2.20597 30.494 3.44695 30.494Z" fill="#113768"/>
<path id="Vector_6" d="M30.447 30.494C31.6879 30.494 32.694 29.488 32.694 28.247C32.694 27.006 31.6879 26 30.447 26C29.206 26 28.2 27.006 28.2 28.247C28.2 29.488 29.206 30.494 30.447 30.494Z" fill="#113768"/>
</g>
</g>
</g>
</svg>
