<svg width="34" height="34" viewBox="0 0 34 34" fill="none" xmlns="http://www.w3.org/2000/svg">
<g id="15">
<g id="Icon">
<g id="Lines">
<path id="Vector" d="M16.9971 5.74292V28.2929" stroke="#0598CE" stroke-width="0.9" stroke-miterlimit="10"/>
<path id="Vector_2" d="M7.99707 25.997L25.9971 8.005" stroke="#0598CE" stroke-width="0.9" stroke-miterlimit="10"/>
<path id="Vector_3" d="M5.74402 17.005H28.38" stroke="#0598CE" stroke-width="0.9" stroke-miterlimit="10"/>
<path id="Vector_4" d="M7.99707 7.99695L25.9971 26.0049" stroke="#0598CE" stroke-width="0.9" stroke-miterlimit="10"/>
</g>
<g id="Circles">
<path id="Vector_5" d="M7.997 10.244C9.23798 10.244 10.244 9.23798 10.244 7.997C10.244 6.75602 9.23798 5.75 7.997 5.75C6.75602 5.75 5.75 6.75602 5.75 7.997C5.75 9.23798 6.75602 10.244 7.997 10.244Z" fill="#113768"/>
<path id="Vector_6" d="M3.497 19.2519C4.73798 19.2519 5.744 18.2459 5.744 17.0049C5.744 15.764 4.73798 14.7579 3.497 14.7579C2.25602 14.7579 1.25 15.764 1.25 17.0049C1.25 18.2459 2.25602 19.2519 3.497 19.2519Z" fill="#113768"/>
<path id="Vector_7" d="M7.997 28.244C9.23798 28.244 10.244 27.238 10.244 25.997C10.244 24.756 9.23798 23.75 7.997 23.75C6.75602 23.75 5.75 24.756 5.75 25.997C5.75 27.238 6.75602 28.244 7.997 28.244Z" fill="#113768"/>
<path id="Vector_8" d="M16.997 32.744C18.238 32.744 19.244 31.738 19.244 30.497C19.244 29.256 18.238 28.25 16.997 28.25C15.756 28.25 14.75 29.256 14.75 30.497C14.75 31.738 15.756 32.744 16.997 32.744Z" fill="#113768"/>
<path id="Vector_9" d="M16.997 5.744C18.238 5.744 19.244 4.73798 19.244 3.497C19.244 2.25602 18.238 1.25 16.997 1.25C15.756 1.25 14.75 2.25602 14.75 3.497C14.75 4.73798 15.756 5.744 16.997 5.744Z" fill="#113768"/>
<path id="Vector_10" d="M25.997 10.2519C27.238 10.2519 28.244 9.24592 28.244 8.00493C28.244 6.76395 27.238 5.75793 25.997 5.75793C24.756 5.75793 23.75 6.76395 23.75 8.00493C23.75 9.24592 24.756 10.2519 25.997 10.2519Z" fill="#113768"/>
<path id="Vector_11" d="M30.497 19.2519C31.738 19.2519 32.744 18.2459 32.744 17.0049C32.744 15.764 31.738 14.7579 30.497 14.7579C29.256 14.7579 28.25 15.764 28.25 17.0049C28.25 18.2459 29.256 19.2519 30.497 19.2519Z" fill="#113768"/>
<path id="Vector_12" d="M25.997 28.2519C27.238 28.2519 28.244 27.2459 28.244 26.0049C28.244 24.764 27.238 23.7579 25.997 23.7579C24.756 23.7579 23.75 24.764 23.75 26.0049C23.75 27.2459 24.756 28.2519 25.997 28.2519Z" fill="#113768"/>
</g>
</g>
</g>
</svg>
