<svg width="34" height="34" viewBox="0 0 34 34" fill="none" xmlns="http://www.w3.org/2000/svg">
<g id="24">
<g id="Icon">
<g id="Lines">
<path id="Vector" d="M3.24695 17.2549H30.2469" stroke="#0598CE" stroke-width="0.9" stroke-miterlimit="10"/>
<path id="Vector_2" d="M3.24695 17.2549L25.7469 8.25488" stroke="#0598CE" stroke-width="0.9" stroke-miterlimit="10"/>
<path id="Vector_3" d="M3.24695 17.2549L25.7469 26.2549" stroke="#0598CE" stroke-width="0.9" stroke-miterlimit="10"/>
<path id="Vector_4" d="M30.2469 17.2551L7.74695 8.24707" stroke="#0598CE" stroke-width="0.9" stroke-miterlimit="10"/>
<path id="Vector_5" d="M7.74695 26.2469L30.2469 17.2549" stroke="#0598CE" stroke-width="0.9" stroke-miterlimit="10"/>
<path id="Vector_6" d="M7.74695 8.24707L3.24695 17.2551" stroke="#0598CE" stroke-width="0.9" stroke-miterlimit="10"/>
<path id="Vector_7" d="M3.24695 17.2549L7.74695 26.2469" stroke="#0598CE" stroke-width="0.9" stroke-miterlimit="10"/>
<path id="Vector_8" d="M25.7469 8.25488L30.2469 17.2549" stroke="#0598CE" stroke-width="0.9" stroke-miterlimit="10"/>
<path id="Vector_9" d="M30.2469 17.2549L25.7469 26.2549" stroke="#0598CE" stroke-width="0.9" stroke-miterlimit="10"/>
</g>
<g id="Circles">
<path id="Vector_10" d="M7.747 10.494C8.98798 10.494 9.994 9.48798 9.994 8.247C9.994 7.00602 8.98798 6 7.747 6C6.50602 6 5.5 7.00602 5.5 8.247C5.5 9.48798 6.50602 10.494 7.747 10.494Z" fill="#113768"/>
<path id="Vector_11" d="M3.247 19.5018C4.48798 19.5018 5.494 18.4958 5.494 17.2548C5.494 16.0138 4.48798 15.0078 3.247 15.0078C2.00602 15.0078 1 16.0138 1 17.2548C1 18.4958 2.00602 19.5018 3.247 19.5018Z" fill="#113768"/>
<path id="Vector_12" d="M7.747 28.494C8.98798 28.494 9.994 27.488 9.994 26.247C9.994 25.006 8.98798 24 7.747 24C6.50602 24 5.5 25.006 5.5 26.247C5.5 27.488 6.50602 28.494 7.747 28.494Z" fill="#113768"/>
<path id="Vector_13" d="M25.747 10.5018C26.988 10.5018 27.994 9.4958 27.994 8.25481C27.994 7.01383 26.988 6.00781 25.747 6.00781C24.506 6.00781 23.5 7.01383 23.5 8.25481C23.5 9.4958 24.506 10.5018 25.747 10.5018Z" fill="#113768"/>
<path id="Vector_14" d="M30.247 19.5018C31.488 19.5018 32.494 18.4958 32.494 17.2548C32.494 16.0138 31.488 15.0078 30.247 15.0078C29.006 15.0078 28 16.0138 28 17.2548C28 18.4958 29.006 19.5018 30.247 19.5018Z" fill="#113768"/>
<path id="Vector_15" d="M25.747 28.5018C26.988 28.5018 27.994 27.4958 27.994 26.2548C27.994 25.0138 26.988 24.0078 25.747 24.0078C24.506 24.0078 23.5 25.0138 23.5 26.2548C23.5 27.4958 24.506 28.5018 25.747 28.5018Z" fill="#113768"/>
</g>
</g>
</g>
</svg>
