<svg width="200" height="24" viewBox="0 0 200 24" fill="none" xmlns="http://www.w3.org/2000/svg">
<g id="af" clip-path="url(#clip0_33_5393)">
<path id="Vector" d="M131.648 4.03255V6.33367H135.057V7.86675H131.648V10.1576H135.175V11.6937H129.974V2.45654H135.175V3.98478H131.648V4.03255Z" fill="#091D54"/>
<path id="Vector_2" d="M185.466 4.03255V6.33367H188.877V7.86675H185.466V10.1576H188.992V11.6937H183.795V2.45654H188.992V3.98478H185.466V4.03255Z" fill="#091D54"/>
<path id="Vector_3" d="M35.4915 9.43735H32.1492L31.0794 11.6834H29.3148L33.7931 2.18262H33.8415L38.3197 11.6834H36.5098L35.4915 9.43735ZM34.842 7.97261L33.8206 5.47615L32.7754 7.97261H34.842Z" fill="#091D54"/>
<path id="Vector_4" d="M45.3498 11.6834L42.2857 7.78816V11.6834H40.6149V2.44629H43.9572C45.5612 2.44629 46.8369 3.59171 46.8369 5.14897C46.8369 6.70624 45.6764 7.57709 44.2592 7.73796L47.468 11.678L45.3498 11.6834ZM42.2857 3.98541V6.36031H43.9112C44.5876 6.36817 45.1464 5.8378 45.1654 5.17014C45.1709 4.51579 44.636 3.98239 43.9731 3.97755H43.9572L42.2857 3.98541Z" fill="#091D54"/>
<path id="Vector_5" d="M111.579 11.6834L108.517 7.78816V11.6834H106.846V2.44629H110.189C111.793 2.44629 113.066 3.59171 113.066 5.14897C113.066 6.70624 111.905 7.57709 110.488 7.73796L113.697 11.678L111.579 11.6834H111.579ZM108.517 3.98541V6.36031H110.14C110.817 6.36817 111.375 5.8378 111.394 5.17014C111.4 4.51579 110.865 3.98239 110.202 3.97755H110.189L108.517 3.98541Z" fill="#091D54"/>
<path id="Vector_6" d="M56.3927 8.97287C56.3927 10.5059 55.1385 11.6756 53.377 11.6756H50.3557V2.43842H53.377C54.981 2.43842 56.2058 3.58384 56.2058 5.1411C56.2407 5.87226 55.9117 6.57136 55.326 7.0201C55.9999 7.44524 56.4006 8.18366 56.3927 8.97287ZM51.9592 3.9854V6.25507H53.3763C53.978 6.29982 54.4994 5.85412 54.5448 5.26266C54.5472 5.22032 54.5472 5.17557 54.5448 5.13082C54.5662 4.5188 54.0797 4.00657 53.4591 3.9854H51.9567H51.9592ZM54.652 8.97287C54.625 8.29977 54.0583 7.77182 53.3763 7.78028H51.9592V10.1183H53.3763C54.0424 10.1576 54.6115 9.65626 54.652 8.99949V8.97287Z" fill="#091D54"/>
<path id="Vector_7" d="M61.4083 4.03255V6.33367H64.8174V7.86675H61.4083V10.1576H64.935V11.6937H59.7344V2.45654H64.935V3.98478H61.4083V4.03255Z" fill="#091D54"/>
<path id="Vector_8" d="M70.1706 3.9854H67.7804V2.45233H74.2322V3.9854H71.842V11.6834H70.1712L70.1706 3.9854Z" fill="#091D54"/>
<path id="Vector_9" d="M87.4346 4.00894V6.29978H90.9105V7.83588H87.4346V11.684H85.7638V2.44684H91.0073V3.98536L87.4352 4.00894H87.4346Z" fill="#091D54"/>
<path id="Vector_10" d="M93.8516 7.05455C93.9159 4.32284 96.2123 2.159 98.9799 2.2225C101.659 2.28298 103.814 4.41295 103.875 7.05455C103.811 9.78626 101.515 11.9501 98.7471 11.8866C96.0677 11.8261 93.9128 9.69615 93.8516 7.05455ZM95.058 1.00814C95.0874 0.477761 95.5445 0.0683367 96.0849 0.0973653C96.5848 0.123975 96.9831 0.517071 97.0076 1.00814C96.9782 1.53851 96.5211 1.94794 95.9807 1.91891C95.4807 1.8923 95.0825 1.49921 95.058 1.00814ZM102.181 7.05455C102.181 5.24692 100.694 3.77916 98.8623 3.77916C97.0303 3.77916 95.5438 5.24631 95.5438 7.05455C95.5438 8.86279 97.0303 10.3299 98.8623 10.3299C100.694 10.3299 102.181 8.86279 102.181 7.05455ZM100.742 0.984551C100.771 0.454175 101.229 0.0447512 101.769 0.0737798C102.269 0.100389 102.667 0.493484 102.692 0.984551C102.681 1.50707 102.248 1.92435 101.719 1.92435C101.189 1.93463 100.751 1.52037 100.737 0.997857V0.984551H100.742Z" fill="#091D54"/>
<path id="Vector_11" d="M126.287 2.24609V11.6834H124.617V5.68235L121.459 8.40862L118.279 5.65877V11.684H116.609V2.2467H116.632L121.445 6.30042L126.218 2.2467L126.287 2.24609Z" fill="#091D54"/>
<path id="Vector_12" d="M146.257 7.07817C146.257 9.78085 144.145 11.6834 141.268 11.6834H138.771V2.44629H141.276C144.14 2.45173 146.257 4.3519 146.257 7.07817ZM144.565 7.07817C144.565 5.24634 143.242 4.009 141.268 4.009H140.429V10.1262H141.263C143.237 10.1262 144.56 8.88822 144.56 7.07817H144.566H144.565Z" fill="#091D54"/>
<path id="Vector_13" d="M154.26 10.1473V11.6834H149.084V2.44629H150.755V10.1473H154.26Z" fill="#091D54"/>
<path id="Vector_14" d="M157.22 2.45172H158.891V11.6889H157.22V2.45172Z" fill="#091D54"/>
<path id="Vector_15" d="M170.204 2.45172V11.8757H170.18L164.238 6.06941V11.6828H162.568V2.26666H162.591L168.533 8.07299V2.45172H170.204Z" fill="#091D54"/>
<path id="Vector_16" d="M200 2.45172V11.8757H199.976L194.035 6.06941V11.6828H192.364V2.26666H192.388L198.353 8.07299V2.45172H200Z" fill="#091D54"/>
<path id="Vector_17" d="M180.324 11.6834H178.024C175.123 11.6834 173.035 9.75967 173.035 7.07815C173.035 4.39664 175.147 2.45172 178.024 2.45172H179.628V3.98479H178.024C176.054 3.98479 174.73 5.22274 174.73 7.05396C174.73 8.88518 176.067 10.1262 178.024 10.1262H178.652V7.83531H177.272V6.29922H180.336L180.323 11.6828L180.324 11.6834Z" fill="#091D54"/>
<path id="Vector_18" d="M76.868 10.1213H79.809C80.483 10.1158 81.0228 9.57216 81.0172 8.90753V8.90511C81.0228 8.25076 80.4903 7.71494 79.8274 7.70949H79.8114L79.3942 7.68833C77.6988 7.68833 76.5868 6.81505 76.5868 5.0939C76.5868 3.37274 77.8863 2.45471 79.464 2.45471H82.1563V3.99323H79.4665C78.7925 3.99323 78.2607 4.40749 78.2607 5.09631C78.2607 5.78514 78.7956 6.10445 79.4665 6.10445L79.8837 6.12804C81.6483 6.12804 82.6912 7.07026 82.6912 8.90692C82.6912 10.6275 81.3916 11.6858 79.8139 11.6858H76.8729L76.8674 10.1207L76.868 10.1213Z" fill="#091D54"/>
<path id="Vector_19" d="M42.0504 17.5291L39.3073 23.3644H39.2859L38.0691 20.7857L36.8553 23.3644L34.0988 17.5291H35.0295L36.8394 21.4189L37.5961 19.8144L36.5263 17.5291H37.4674L38.0611 18.8196L38.6573 17.5291H39.5745L38.5047 19.7933L39.2614 21.4219L41.0713 17.5321H42.0498V17.5297L42.0504 17.5291Z" fill="#091D54"/>
<path id="Vector_20" d="M44.1196 18.2971V19.9493H46.3412V20.7645H44.1196V22.4137H46.3872V23.2241H43.2483V17.5291H46.3872V18.3419H44.1196V18.2971Z" fill="#091D54"/>
<path id="Vector_21" d="M52.9112 20.3793C52.9112 22.0527 51.6062 23.2295 49.8177 23.2295H48.3741V17.5291H49.8177C51.6062 17.5291 52.9112 18.7059 52.9112 20.3793ZM52.0424 20.3793C52.0424 19.1577 51.1466 18.3207 49.8422 18.3207H49.246V22.4137H49.8422C51.1472 22.4325 52.0424 21.6015 52.0424 20.3793Z" fill="#091D54"/>
<path id="Vector_22" d="M54.5073 17.5291H55.3792V23.2241H54.5073V17.5291Z" fill="#091D54"/>
<path id="Vector_23" d="M66.9617 17.5291V23.2241H66.0899V20.7857H63.2714V23.2241H62.3995V17.5291H63.2714V19.9729H66.0899V17.5291H66.9617Z" fill="#091D54"/>
<path id="Vector_24" d="M75.9539 19.157C75.9483 20.0757 75.1892 20.8147 74.2585 20.8092H73.2641V23.2241H72.3922V17.529H74.2021C75.1328 17.4921 75.9159 18.2076 75.9532 19.1232V19.1576L75.9539 19.157ZM75.1059 19.157C75.1059 18.6926 74.7236 18.3176 74.253 18.3206H73.2635V19.994H74.226C74.6886 20.0176 75.0814 19.6668 75.1059 19.2103V19.157Z" fill="#091D54"/>
<path id="Vector_25" d="M77.4592 21.4636V17.5284H78.344V21.4636C78.344 22.0654 78.8384 22.5534 79.4481 22.5534H79.5124C80.13 22.5824 80.6514 22.1101 80.6808 21.5005V17.5315H81.5527V21.4667C81.5527 22.554 80.7721 23.3668 79.5338 23.3668C78.2956 23.3668 77.4592 22.5304 77.4592 21.4667V21.4642V21.4636Z" fill="#091D54"/>
<path id="Vector_26" d="M87.0763 21.5773C87.0763 22.5958 86.3196 23.2296 85.2663 23.2296H83.424V17.5291H85.2584C86.1646 17.4867 86.9323 18.1786 86.9752 19.0706V19.1341C86.9807 19.6119 86.7613 20.063 86.379 20.3557C86.7963 20.6303 87.0554 21.0839 87.0744 21.5773H87.0763ZM84.3038 18.3207V19.9251H85.2663C85.7155 19.9251 86.0794 19.5665 86.0794 19.1226C86.0794 18.6787 85.7161 18.3201 85.2663 18.3201L84.3038 18.3207ZM86.205 21.5773C86.1781 21.0917 85.7583 20.7168 85.2663 20.741H84.3038V22.4143H85.2663C85.7559 22.4301 86.1701 22.0599 86.205 21.5773Z" fill="#091D54"/>
<path id="Vector_27" d="M91.9509 22.4137V23.2241H88.8788V17.5291H89.7507V22.4325H91.9509V22.4137Z" fill="#091D54"/>
<path id="Vector_28" d="M93.4802 17.5291H94.349V23.2241H93.4802V17.5291Z" fill="#091D54"/>
<path id="Vector_29" d="M95.9402 20.3684C95.9402 18.7005 97.2452 17.5284 99.0337 17.5284H99.9025V18.3388H99.0337C97.6968 18.3388 96.8335 19.1516 96.8335 20.3896C96.8335 21.6275 97.7268 22.4161 99.0337 22.4161H99.9025V23.2235H99.0337C97.2452 23.2047 95.9402 22.0339 95.9402 20.3684Z" fill="#091D54"/>
<path id="Vector_30" d="M105.884 18.2971V19.9493H108.109V20.7645H105.884V22.4137H108.154V23.2241H105.023V17.5291H108.165V18.3419H105.884L105.884 18.2971Z" fill="#091D54"/>
<path id="Vector_31" d="M115.993 17.4184V23.2247H115.125V19.1607L113.084 20.8341L111.065 19.1607V23.2247H110.197V17.3948H110.218L113.106 19.7697L115.993 17.4184Z" fill="#091D54"/>
<path id="Vector_32" d="M121.702 19.1335C121.696 20.0521 120.937 20.7911 120.007 20.7857H118.985V23.2241H118.116V17.5291H119.926C120.921 17.5291 121.702 18.21 121.702 19.1335ZM120.83 19.1335C120.83 18.669 120.448 18.2941 119.977 18.2971H118.985V19.9729H119.948C120.402 20.0043 120.798 19.6639 120.828 19.2157V19.1341L120.83 19.1335Z" fill="#091D54"/>
<path id="Vector_33" d="M126.204 22.4137V23.2241H123.146V17.5291H124.014V22.4325H126.204V22.4137Z" fill="#091D54"/>
<path id="Vector_34" d="M127.124 20.3793C127.086 18.6926 128.439 17.2944 130.151 17.2545C131.859 17.2176 133.276 18.5529 133.316 20.242C133.357 21.9311 132.001 23.3269 130.29 23.3668H130.215C128.528 23.388 127.145 22.0551 127.124 20.3902V20.3793ZM132.442 20.3793C132.456 19.1679 131.472 18.1731 130.242 18.1598C129.015 18.1465 128.007 19.1177 127.993 20.3315C127.98 21.5428 128.964 22.5377 130.193 22.551H130.215C131.41 22.5855 132.407 21.6565 132.442 20.4742V20.3793Z" fill="#091D54"/>
<path id="Vector_35" d="M136.632 20.4688V23.2241H135.76V20.4688L133.995 17.5291H134.958L136.195 19.5877L137.433 17.5291H138.396L136.631 20.4688H136.632Z" fill="#091D54"/>
<path id="Vector_36" d="M145.49 17.4184V23.2247H144.618V19.1607L142.581 20.8341L140.541 19.1607V23.2247H139.669V17.3948H139.693L142.581 19.7697L145.49 17.4184Z" fill="#091D54"/>
<path id="Vector_37" d="M148.522 18.2971V19.9493H150.747V20.7645H148.522V22.4137H150.802V23.2241H147.652V17.5291H150.802V18.3419H148.532L148.522 18.2971Z" fill="#091D54"/>
<path id="Vector_38" d="M157.394 17.529V23.3354H157.37L153.704 19.4292V23.2241H152.832V17.3942H152.856L156.522 21.284V17.5284H157.394V17.529Z" fill="#091D54"/>
<path id="Vector_39" d="M160.319 18.3419H158.805V17.5291H162.68V18.3419H161.19V23.2241H160.318V18.3419H160.319Z" fill="#091D54"/>
<path id="Vector_40" d="M29.7565 22.4137H31.4997C31.9807 22.4403 32.393 22.0757 32.4194 21.6033C32.4463 21.1286 32.0768 20.7216 31.5983 20.6956H31.2883C30.0984 20.6956 29.5476 20.0382 29.5476 19.1123C29.5476 18.1864 30.1652 17.5291 31.2883 17.5291H32.9169V18.3419H31.2669C30.8361 18.2995 30.4513 18.6086 30.4085 19.0331C30.3656 19.4582 30.6787 19.838 31.1088 19.8804C31.1621 19.8858 31.216 19.8858 31.2662 19.8804H31.4721C32.6859 19.8804 33.2367 20.6061 33.2367 21.5562C33.2367 22.5062 32.5952 23.2295 31.4721 23.2295H29.7529L29.7584 22.4143H29.7559L29.7565 22.4137Z" fill="#091D54"/>
<path id="Vector_41" d="M57.2963 22.4137H59.0395C59.5205 22.4403 59.9328 22.0757 59.9592 21.6033C59.9861 21.1286 59.6167 20.7216 59.1381 20.6956H58.8281C57.6358 20.6956 57.085 20.0382 57.085 19.1123C57.085 18.1864 57.705 17.5291 58.8281 17.5291H60.4781V18.3419H58.8281C58.3974 18.2995 58.0126 18.6086 57.9697 19.0331C57.9268 19.4576 58.2399 19.838 58.67 19.8804C58.7233 19.8858 58.7772 19.8858 58.8275 19.8804H59.0334C60.2471 19.8804 60.7979 20.6061 60.7979 21.5562C60.7979 22.5062 60.1644 23.2241 59.0413 23.2241H57.3221V22.4137H57.2951H57.2963Z" fill="#091D54"/>
<path id="Vector_42" d="M167.228 22.4137H168.968C169.449 22.4403 169.862 22.0757 169.888 21.6033C169.915 21.1286 169.546 20.7216 169.067 20.6956H168.765C167.573 20.6956 167.024 20.0382 167.024 19.1123C167.024 18.1864 167.642 17.5291 168.765 17.5291H170.415V18.3419H168.765C168.334 18.2995 167.949 18.6086 167.907 19.0331C167.864 19.4582 168.177 19.838 168.607 19.8804C168.66 19.8858 168.714 19.8858 168.764 19.8804H168.97C170.184 19.8804 170.735 20.6061 170.735 21.5562C170.735 22.5062 170.093 23.2295 168.97 23.2295H167.251L167.23 22.4143H167.227L167.228 22.4137Z" fill="#091D54"/>
<path id="Vector_43" d="M173.369 18.2971V19.9493H175.591V20.7645H173.369V22.4137H175.637V23.2241H172.498V17.5291H175.637V18.3419H173.369V18.2971Z" fill="#091D54"/>
<path id="Vector_44" d="M180.466 23.2059L178.45 20.7065V23.2241H177.578V17.529H179.479C180.407 17.4946 181.185 18.2076 181.222 19.1202V19.1516C181.222 20.0751 180.466 20.7058 179.503 20.7512L181.519 23.2241H180.466V23.2059ZM178.449 18.3394V19.9862H179.479C179.939 19.9862 180.313 19.6191 180.313 19.1625C180.313 18.7083 179.941 18.3388 179.479 18.3388H178.449V18.3394Z" fill="#091D54"/>
<path id="Vector_45" d="M187.516 17.5291L184.76 23.319H184.736L181.993 17.5291H182.934L184.744 21.3899L186.554 17.5291H187.516Z" fill="#091D54"/>
<path id="Vector_46" d="M188.746 17.5291H189.618V23.2241H188.746V17.5291Z" fill="#091D54"/>
<path id="Vector_47" d="M191.214 20.3684C191.214 18.7005 192.521 17.5284 194.307 17.5284H195.187V18.3388H194.315C192.978 18.3388 192.115 19.1516 192.115 20.3896C192.115 21.6275 193.011 22.4161 194.315 22.4161H195.187V23.2235H194.315C192.513 23.2047 191.214 22.0339 191.214 20.3684Z" fill="#091D54"/>
<path id="Vector_48" d="M197.693 18.2971V19.9493H199.917V20.7645H197.693V22.4137H199.963V23.2241H196.821V17.5291H199.963V18.3419H197.693V18.2971Z" fill="#091D54"/>
<path id="Vector_49" d="M8.24332 7.57947C3.6897 7.57947 0 11.2213 0 15.7159C0 20.2105 3.6897 23.8524 8.24332 23.8524C12.7969 23.8524 16.4866 20.2105 16.4866 15.7159C16.4866 11.2213 12.7969 7.57947 8.24332 7.57947ZM8.24332 20.0624C5.81027 20.0624 3.83981 18.1175 3.83981 15.7159C3.83981 13.3144 5.81027 11.3695 8.24332 11.3695C10.6764 11.3695 12.6468 13.3144 12.6468 15.7159C12.6444 18.115 10.6733 20.0575 8.24332 20.0575V20.0624Z" fill="#02A704"/>
<path id="Vector_50" d="M8.24329 0V3.80275C14.9113 3.80033 20.3178 9.13131 20.3209 15.7129C20.3209 17.8955 19.7137 20.0382 18.5667 21.9045L21.7755 24C26.4118 16.6237 24.1099 6.93542 16.6367 2.35918C14.1179 0.817638 11.2082 0 8.24329 0Z" fill="#02A704"/>
</g>
<defs>
<clipPath id="clip0_33_5393">
<rect width="200" height="24" fill="white"/>
</clipPath>
</defs>
</svg>
