<svg xmlns="http://www.w3.org/2000/svg" id="Layer_1" data-name="Layer 1" viewBox="0 0 490.64 256.07"><defs><style>.cls-1,.cls-2{stroke-width:0}.cls-2{fill:#ed1c24}</style></defs><path d="M105.25 134.67v-.73l-6.18-5.36h-.72c-1.7 1.89-4.32 3.31-7.26 3.31-4.58 0-8.19-3.52-8.19-8.35s3.6-8.35 8.19-8.35c2.94 0 5.56 1.42 7.26 3.31h.72l6.18-5.36v-.74c-3.24-3.99-8.34-6.56-14.11-6.56-10.61 0-18.64 7.56-18.64 17.7 0 .4.09.75.11 1.14 4.34 2.97 8.17 5.35 11.48 7.53 4.75 3.03 8.59 5.82 11.76 8.42 3.94-1.01 7.14-3.18 9.41-5.95M128.37 118.44c0 2.26-1.65 3.36-3.55 3.36h-4.74v-6.93h4.74c1.91 0 3.55 1.26 3.55 3.57m12.67 20.54-1.54-6.72-.57-.37c-.31.16-.57.37-1.34.37-1.19 0-1.91-1.26-2.52-2.26-1.03-1.58-1.85-2.42-2.57-2.79 3.76-1.68 6.28-4.83 6.28-9.35 0-6.99-4.74-11.4-13.54-11.4H109.9v34.14h10.2v-11.98h.93c2.27 0 5.15 4.94 6.49 7.14 2.78 4.47 5 5.46 8.96 5.46 1.85 0 3.4-.68 4.33-1.52l.26-.73ZM170.03 123.53c0 4.88-3.71 8.35-8.29 8.35s-8.29-3.47-8.29-8.35 3.71-8.35 8.29-8.35 8.29 3.47 8.29 8.35m10.4 0c0-10.14-8.03-17.7-18.69-17.7s-18.69 7.56-18.69 17.7 8.03 17.7 18.69 17.7 18.69-7.62 18.69-17.7M231.46 106.46h-9.73l-6.02 18.91-6.39-18.91h-6.18l-6.33 18.81-6.03-18.81h-9.73l-.46.79 12.46 33.36h6.18l7-18.6 7.06 18.6h6.18l12.46-33.36zM258.86 123.53c0 5.57-3.25 8.67-7.73 8.67h-4.99v-17.33h4.99c4.48 0 7.73 3.1 7.73 8.67m10.4-.05c0-10.19-6.75-17.02-17.72-17.02h-15.6v34.14h15.6c10.97 0 17.72-6.83 17.72-17.12M323.28 114.87h10.19v-8.41h-30.59v8.41h10.2v25.74h10.2zM355.67 118.44c0 2.26-1.65 3.36-3.55 3.36h-4.74v-6.93h4.74c1.91 0 3.55 1.26 3.55 3.57m10.4-.58c0-6.99-4.74-11.4-13.54-11.4h-15.35v34.14h10.2v-11.97h2.42l6.33 11.97h10.14l.46-.79-6.8-12.66c3.66-1.73 6.13-4.83 6.13-9.3M372.25 106.46h10.2v34.14h-10.2zM408.29 121.75l11.54-14.5-.47-.79H408.5l-9.42 12.14v-12.14h-10.2v34.14h10.2v-10.5l1.85-2.21 8.65 12.71h10.66l.47-.78zM448.98 114.87v-8.41h-25.5v34.15h25.65v-8.41h-15.45v-4.73h11.64v-7.88h-11.64v-4.72zM286.51 141.01c7.47 0 13.95-3.67 13.95-10.76 0-7.72-6.54-9.72-12.3-11.4-2.27-.68-4.59-1.47-4.59-3.15 0-1.21 1.29-1.94 3.25-1.94 3.35 0 6.18 2.1 7.62 3.47h.72l4.79-5.78v-.73c-2.52-2.89-7.67-5.09-13.33-5.09-7.93 0-13.44 4.31-13.44 10.55 0 6.73 6.07 9.67 11.22 11.14 3.35.95 5.62 1.11 5.62 2.94 0 1.31-1.6 2.1-4.07 2.1-3.14 0-6.95-2.05-8.8-3.89h-.72l-4.74 5.99v.73c3.04 3.41 8.49 5.83 14.83 5.83" class="cls-1"/><path d="M110.72 172.39c-2.47-5.69-7.43-13-26.87-23.43-8.96-5.02-24.28-12.75-38.05-27.43 1.25 5.3 7.64 16.95 35.15 31.5 7.62 4.2 20.5 8.13 29.77 19.36M109.48 162.64c-2.34-6.73-6.57-15.34-26.64-28.14-9.77-6.45-24.12-14.55-43.01-35.2 1.35 5.57 7.32 20.04 37.39 38.84 9.88 6.74 22.63 10.9 32.25 24.5" class="cls-2"/></svg>