<svg width="200" height="69" viewBox="0 0 200 69" fill="none" xmlns="http://www.w3.org/2000/svg">
<g id="elastic " clip-path="url(#clip0_33_5384)">
<path id="Vector" d="M68.8291 36.1688C68.8353 33.358 67.9775 30.6141 66.3734 28.313C64.7693 26.012 62.4974 24.2666 59.8691 23.316C60.408 20.4838 60.3197 17.5669 59.6108 14.773C58.9018 11.9791 57.5895 9.37684 55.7672 7.15154C53.945 4.92625 51.6577 3.13265 49.0682 1.89845C46.4787 0.664246 43.6507 0.0198017 40.7855 0.0110003C37.7066 0.00729659 34.671 0.740806 31.9294 2.15095C29.1878 3.56109 26.8188 5.60741 25.0182 8.1209C23.4904 6.93331 21.6625 6.20047 19.7418 6.00551C17.8211 5.81056 15.8845 6.1613 14.1519 7.01794C12.4193 7.87458 10.9599 9.20282 9.93932 10.852C8.91878 12.5011 8.37795 14.4051 8.37819 16.3479C8.38249 17.5861 8.599 18.8142 9.01819 19.9783C6.38077 20.9279 4.09902 22.674 2.48476 24.9779C0.870492 27.2817 0.00245945 30.0311 -0.000723636 32.8502C-0.00390672 35.6693 0.857915 38.4206 2.46697 40.7282C4.07603 43.0357 6.35383 44.787 8.9891 45.7426C8.14245 50.1138 8.80671 54.645 10.8716 58.5838C12.9365 62.5227 16.2778 65.6323 20.3409 67.3965C24.4039 69.1607 28.9443 69.4734 33.2082 68.2825C37.4721 67.0917 41.2031 64.469 43.7818 60.8499C45.5771 62.2859 47.8014 63.0699 50.0946 63.075C52.8333 63.0742 55.4596 61.9789 57.3962 60.0299C59.3328 58.0809 60.4211 55.4377 60.4218 52.6814C60.4175 51.4432 60.201 50.2151 59.7818 49.051C62.4185 48.0935 64.6997 46.3449 66.3176 44.0413C67.9355 41.7376 68.8121 38.9898 68.8291 36.1688Z" fill="white"/>
<path id="Vector_2" d="M27.0545 29.7278L42.1236 36.6373L57.3091 23.2281C57.5335 22.1204 57.6408 20.9918 57.6291 19.8612C57.6316 16.2116 56.4727 12.657 54.3222 9.71833C52.1716 6.77966 49.1425 4.61138 45.6786 3.53117C42.2147 2.45095 38.498 2.51559 35.0733 3.7156C31.6485 4.91562 28.6956 7.18793 26.6472 10.1996L24.1163 23.4038L27.0545 29.7278Z" fill="#FED10A"/>
<path id="Vector_3" d="M11.4619 45.7719C11.2374 46.8995 11.1302 48.0475 11.1419 49.1974C11.1463 52.8622 12.317 56.4292 14.4825 59.3756C16.648 62.322 19.6942 64.4928 23.1749 65.5699C26.6555 66.6469 30.3874 66.5736 33.8236 65.3607C37.2598 64.1477 40.2196 61.8589 42.2691 58.8297L44.7709 45.6841L41.4255 39.243L26.2982 32.3042L11.4619 45.7719Z" fill="#24BBB1"/>
<path id="Vector_4" d="M11.3745 19.5391L21.7018 21.9985L23.9709 10.1996C22.57 9.12007 20.8587 8.52753 19.0944 8.51109C17.3301 8.49466 15.6081 9.05522 14.1876 10.1085C12.7671 11.1617 11.7248 12.6507 11.2175 14.3514C10.7102 16.0521 10.7653 17.8727 11.3745 19.5391Z" fill="#EF5098"/>
<path id="Vector_5" d="M10.4728 22.0277C8.23841 22.7656 6.28622 24.1824 4.88491 26.083C3.48359 27.9836 2.70203 30.2745 2.6478 32.6406C2.59357 35.0067 3.26934 37.3315 4.58209 39.2951C5.89485 41.2586 7.78005 42.7645 9.97823 43.6053L24.4655 30.4304L21.8182 24.7213L10.4728 22.0277Z" fill="#17A8E0"/>
<path id="Vector_6" d="M44.8873 58.8297C46.2892 59.8961 47.9961 60.4777 49.7534 60.4876C51.5106 60.4975 53.2239 59.9352 54.6375 58.8846C56.0512 57.8341 57.0893 56.3516 57.597 54.6585C58.1047 52.9653 58.0548 51.1524 57.4546 49.4902L47.1564 47.0601L44.8873 58.8297Z" fill="#93C83E"/>
<path id="Vector_7" d="M46.9818 44.3373L58.3273 47.0015C60.5617 46.2636 62.5138 44.8469 63.9152 42.9463C65.3165 41.0457 66.098 38.7547 66.1523 36.3887C66.2065 34.0226 65.5307 31.6978 64.218 29.7342C62.9052 27.7706 61.02 26.2648 58.8218 25.424L43.9855 38.511L46.9818 44.3373Z" fill="#0779A1"/>
<path id="Vector_8" d="M96.2327 48.4655L97.6 48.3191L97.6873 51.1297C94.6238 51.5892 91.5333 51.8435 88.4364 51.8909C85.0327 51.8909 82.6182 50.8955 81.1927 48.9046C79.7673 46.9137 79.0691 43.8103 79.0691 39.6236C79.0691 31.2502 82.3758 27.0635 88.9891 27.0635C92.1891 27.0635 94.5746 27.9711 96.1455 29.7571C97.7164 31.543 98.5018 34.3829 98.5018 38.2183L98.2982 40.9411H82.6473C82.6473 43.5761 83.1127 45.5377 84.0727 46.7966C85.0327 48.0556 86.6618 48.6997 89.0182 48.6997C91.4255 48.7523 93.8338 48.6741 96.2327 48.4655ZM94.9527 38.1305C94.9527 35.2027 94.4873 33.124 93.5564 31.9236C92.6255 30.7232 91.1127 30.1084 89.0182 30.1084C86.9236 30.1084 85.3236 30.7525 84.2764 32.0114C83.2291 33.2704 82.6764 35.3198 82.6473 38.1305H94.9527ZM103.447 51.4518V17.197H106.996V51.4518H103.447ZM129.425 34.7928V46.5331C129.425 47.7335 132.364 47.9677 132.364 47.9677L132.189 51.1297C129.687 51.1297 127.622 51.3347 126.371 50.1343C123.686 51.3265 120.782 51.9351 117.847 51.9202C115.665 51.9202 114.007 51.3054 112.873 50.0464C111.738 48.7875 111.156 47.0308 111.156 44.6886C111.156 42.3464 111.738 40.6483 112.902 39.5651C114.065 38.4818 115.898 37.7791 118.4 37.5449L125.847 36.8422V34.7928C125.847 33.1825 125.498 32.0114 124.8 31.3088C124.102 30.6061 123.142 30.2548 121.949 30.2548H112.611V27.0928H121.716C124.393 27.0928 126.342 27.7076 127.564 28.9666C128.785 30.2255 129.425 32.1578 129.425 34.7928ZM114.822 44.513C114.822 47.4407 116.015 48.9046 118.429 48.9046C120.589 48.9091 122.734 48.5428 124.771 47.8213L125.847 47.4407V39.5651L118.836 40.2384C117.411 40.3555 116.393 40.7654 115.753 41.4681C115.113 42.1708 114.822 43.1955 114.822 44.513ZM143.302 30.2841C139.869 30.2841 138.124 31.4844 138.124 33.9145C138.124 35.027 138.531 35.8175 139.316 36.286C140.102 36.7544 141.905 37.2228 144.727 37.7206C147.549 38.2183 149.527 38.8917 150.691 39.7993C151.855 40.7069 152.436 42.3464 152.436 44.8057C152.436 47.2651 151.651 49.051 150.08 50.1928C148.509 51.3347 146.24 51.9202 143.215 51.9202C141.265 51.9202 134.72 51.1883 134.72 51.1883L134.924 48.0848C138.676 48.4362 141.411 48.7289 143.244 48.7289C145.076 48.7289 146.473 48.4362 147.433 47.8506C148.393 47.2651 148.887 46.2696 148.887 44.8936C148.887 43.5175 148.48 42.5806 147.665 42.0829C146.851 41.5852 145.047 41.1168 142.255 40.6776C139.462 40.2384 137.484 39.5943 136.32 38.716C135.156 37.8377 134.575 36.2567 134.575 33.9438C134.575 31.6308 135.389 29.9034 137.018 28.7909C138.647 27.6783 140.684 27.1221 143.098 27.1221C145.018 27.1221 151.709 27.6198 151.709 27.6198V30.7525C148.189 30.5476 145.309 30.2841 143.302 30.2841ZM169.6 30.6939H162.065V42.1122C162.065 44.835 162.269 46.6502 162.647 47.4993C163.025 48.3483 163.985 48.7875 165.469 48.7875L169.687 48.4947L169.92 51.4518C168.326 51.7491 166.711 51.9253 165.091 51.9788C162.618 51.9788 160.931 51.3639 159.971 50.1636C159.011 48.9632 158.545 46.6502 158.545 43.254V30.6939H155.171V27.5905H158.545V20.2711H162.065V27.5612H169.6V30.6939ZM174.545 22.1742V18.046H178.095V22.2034L174.545 22.1742ZM174.545 51.4518V27.5905H178.095V51.4518H174.545ZM193.513 27.0928C194.56 27.0928 196.335 27.2977 198.836 27.6783L199.971 27.8247L199.825 30.7232C197.972 30.4805 196.108 30.334 194.24 30.2841C191.564 30.2841 189.731 30.9282 188.771 32.2164C187.811 33.5046 187.316 35.9054 187.316 39.3894C187.316 42.8734 187.753 45.3035 188.655 46.6795C189.556 48.0556 191.418 48.7289 194.269 48.7289L199.855 48.2898L200 51.2468C197.062 51.686 194.851 51.9202 193.396 51.9202C189.702 51.9202 187.142 50.954 185.745 49.051C184.349 47.148 183.622 43.9274 183.622 39.3894C183.622 34.8514 184.378 31.6601 185.891 29.8449C187.404 28.0297 189.964 27.0928 193.513 27.0928Z" fill="black"/>
</g>
<defs>
<clipPath id="clip0_33_5384">
<rect width="200" height="69" fill="white"/>
</clipPath>
</defs>
</svg>
