<svg width="290" height="63" viewBox="0 0 290 63" fill="none" xmlns="http://www.w3.org/2000/svg">
<g id="observata-blue" clip-path="url(#clip0_33_5510)">
<g id="Group">
<path id="Vector" d="M28.0824 60.0362C27.4725 59.8962 26.8556 60.281 26.7154 60.8897C26.5752 61.4984 26.9608 62.1141 27.5707 62.254C28.1806 62.394 28.7974 62.0091 28.9376 61.4005C29.0778 60.7918 28.6923 60.1761 28.0824 60.0362Z" fill="#113768"/>
<path id="Vector_2" d="M33.1017 58.392C32.2675 58.2031 31.4333 58.7208 31.244 59.5534C31.0547 60.386 31.5735 61.2186 32.4147 61.4075C33.2489 61.5964 34.0831 61.0786 34.2724 60.2391C34.4616 59.3995 33.9429 58.5739 33.1087 58.385L33.1017 58.392Z" fill="#113768"/>
<path id="Vector_3" d="M37.6372 56.2931C36.803 56.1042 35.9688 56.6219 35.7795 57.4615C35.5903 58.294 36.109 59.1266 36.9432 59.3155C37.7774 59.5044 38.6116 58.9867 38.8009 58.1541C38.9902 57.3216 38.4714 56.489 37.6302 56.3001L37.6372 56.2931Z" fill="#113768"/>
<path id="Vector_4" d="M2.70596 36.3603C2.84616 35.7516 2.46061 35.136 1.85073 34.996C1.24085 34.8561 0.623957 35.2409 0.483755 35.8496C0.343554 36.4583 0.729109 37.0739 1.33899 37.2139C1.94886 37.3538 2.56576 36.969 2.70596 36.3603Z" fill="#113768"/>
<path id="Vector_5" d="M1.28289 11.9709C2.06801 12.1528 2.85314 11.656 3.03541 10.8724C3.21767 10.0888 2.71995 9.30522 1.93482 9.12331C1.14969 8.9414 0.36456 9.43815 0.182298 10.2218C3.57777e-05 11.0053 0.497757 11.7889 1.28289 11.9709Z" fill="#113768"/>
<path id="Vector_6" d="M5.0823 9.06036C5.92351 9.25626 6.77175 8.72453 6.96102 7.88497C7.15029 7.0454 6.62452 6.19884 5.78331 6.00993C4.9421 5.82103 4.09389 6.34576 3.90462 7.18532C3.70833 8.02489 4.2411 8.87145 5.0823 9.06036Z" fill="#113768"/>
<path id="Vector_7" d="M3.53315 39.4317C2.70596 39.2428 1.87177 39.7606 1.6825 40.5932C1.49323 41.4187 2.01195 42.2513 2.84615 42.4402C3.67334 42.6291 4.50755 42.1114 4.69682 41.2788C4.8861 40.4532 4.36735 39.6207 3.53315 39.4317Z" fill="#113768"/>
<path id="Vector_8" d="M36.5646 15.1822C36.7048 14.5735 36.3192 13.9578 35.7094 13.8179C35.0995 13.678 34.4826 14.0628 34.3424 14.6715C34.2022 15.2802 34.5878 15.8958 35.1976 16.0358C35.8075 16.1757 36.4244 15.7909 36.5646 15.1822Z" fill="#113768"/>
<path id="Vector_9" d="M39.2985 17.2391C38.5064 17.0572 37.7143 17.554 37.532 18.3446C37.3497 19.1352 37.8475 19.9258 38.6396 20.1077C39.4318 20.2896 40.2239 19.7928 40.4061 19.0022C40.5884 18.2116 40.0907 17.4211 39.2985 17.2391Z" fill="#113768"/>
<path id="Vector_10" d="M34.4475 47.5686C33.7746 47.4007 33.0806 47.5056 32.4847 47.8624C31.8959 48.2192 31.4823 48.7789 31.328 49.4366C31.1738 50.0943 31.286 50.7729 31.6505 51.3536C32.0221 51.9483 32.6039 52.3541 33.2839 52.501C34.6438 52.7949 35.9617 51.9623 36.2912 50.584C36.5996 49.2267 35.7935 47.9044 34.4546 47.5616L34.4475 47.5686Z" fill="#113768"/>
<path id="Vector_11" d="M43.8691 13.4611C43.8691 13.4611 43.8691 13.4821 43.8621 13.4961C43.7078 14.1607 43.813 14.8254 44.1565 15.3921C44.514 15.9728 45.0888 16.3856 45.7688 16.5395C46.3787 16.6794 46.9745 16.6025 47.4793 16.3506C47.0587 16.6725 46.7362 17.1412 46.589 17.7079C46.4067 18.3796 46.4979 19.0792 46.8554 19.6739C47.1989 20.2546 47.7527 20.6604 48.4186 20.8213C49.0776 20.9822 49.7856 20.8633 50.3744 20.5065C50.9563 20.1427 51.3629 19.5899 51.5171 18.9183C51.8115 17.589 50.9703 16.2387 49.6314 15.9168C49.0075 15.7629 48.3976 15.8399 47.8788 16.0987C48.3135 15.7629 48.6359 15.2802 48.7831 14.6925V14.6505C48.9444 13.9858 48.8322 13.3072 48.4817 12.7335C48.1242 12.1528 47.5634 11.754 46.9044 11.6001C45.5655 11.2922 44.2056 12.1318 43.8691 13.4611Z" fill="#113768"/>
<path id="Vector_12" d="M38.3872 44.3572C37.0273 44.0354 35.7024 44.847 35.3659 46.2043V46.2462C35.0504 47.5895 35.8426 48.9049 37.1675 49.2477C37.8264 49.4156 38.5415 49.3037 39.1303 48.9469C39.7192 48.59 40.1187 48.0303 40.273 47.3657C40.5674 46.0503 39.6981 44.6721 38.3802 44.3572H38.3872Z" fill="#113768"/>
<path id="Vector_13" d="M40.5253 9.71802C40.3711 10.3967 40.4692 11.0683 40.8057 11.621C41.1492 12.1808 41.703 12.5796 42.362 12.7335C43.7359 13.0623 45.0679 12.2577 45.3973 10.9004V10.8654C45.7058 9.53613 44.8786 8.18581 43.5537 7.85698C42.9087 7.69606 42.2428 7.80101 41.668 8.14383C41.0861 8.49365 40.6795 9.05336 40.5253 9.71102V9.71802Z" fill="#113768"/>
<path id="Vector_14" d="M31.6014 52.7459C31.7486 52.0813 31.6295 51.4026 31.2649 50.8359C30.9074 50.2762 30.3466 49.8914 29.7017 49.7515C28.3768 49.4716 26.9958 50.3391 26.6944 51.6685C26.3999 53.0118 27.2622 54.3481 28.6221 54.6489C30.0031 54.9568 31.286 54.1452 31.6014 52.7669V52.7529V52.7459Z" fill="#113768"/>
<path id="Vector_15" d="M49.6314 20.8983C49.0706 21.2481 48.6781 21.8078 48.5238 22.4655C48.2084 23.8578 49.0145 25.1381 50.3955 25.4599C51.7485 25.7678 53.1014 24.9352 53.4099 23.5919C53.5571 22.9482 53.4449 22.2836 53.0874 21.7169C52.7299 21.1431 52.1691 20.7443 51.5241 20.5974C50.8652 20.4435 50.1922 20.5555 49.6314 20.9123V20.8983Z" fill="#113768"/>
<path id="Vector_16" d="M36.5857 6.6326C36.4385 7.28327 36.5507 7.94794 36.9082 8.50065C37.2727 9.06037 37.8405 9.44516 38.5205 9.58509C39.8384 9.85095 41.0651 9.04638 41.3736 7.71706V7.67506C41.668 6.34574 40.8408 5.0794 39.5089 4.79255C38.198 4.50569 36.8871 5.33128 36.5927 6.63961L36.5857 6.6326Z" fill="#113768"/>
<path id="Vector_17" d="M49.6805 27.3769V27.4119C49.3721 28.7063 50.1852 30.0216 51.4751 30.3364C52.113 30.4903 52.772 30.3924 53.3328 30.0496C53.8936 29.7067 54.2861 29.168 54.4403 28.5313V28.5034C54.5946 27.8667 54.4894 27.216 54.1599 26.6703C53.8235 26.1246 53.2837 25.7328 52.6388 25.5789C51.2788 25.257 50.01 26.0266 49.6805 27.3699V27.3769Z" fill="#113768"/>
<path id="Vector_18" d="M40.3291 45.0848C40.967 45.2387 41.626 45.1338 42.1868 44.791C42.7476 44.4482 43.1401 43.9094 43.2873 43.2798V43.2588C43.4345 42.6431 43.3224 41.9924 42.9789 41.4467C42.6284 40.88 42.0746 40.4952 41.4367 40.3483C40.1468 40.0614 38.885 40.838 38.5555 42.1184C38.3943 42.776 38.4924 43.4267 38.8219 43.9864C39.1584 44.5391 39.6912 44.9309 40.3291 45.0848Z" fill="#113768"/>
<path id="Vector_19" d="M24.6125 50.8289C23.3998 50.584 22.0048 51.4096 21.7454 52.529V52.543C21.4229 53.9213 22.2291 55.2506 23.568 55.5654C24.2129 55.7194 24.8719 55.6144 25.4187 55.2716C25.9584 54.9288 26.337 54.3901 26.4912 53.7394C26.6314 53.0957 26.5122 52.438 26.1547 51.8853C25.7972 51.3326 25.2504 50.9618 24.6125 50.8359V50.8289Z" fill="#113768"/>
<path id="Vector_20" d="M33.9499 7.0594C34.5808 7.22031 35.2187 7.12935 35.7585 6.80751C36.2982 6.48568 36.6838 5.96094 36.838 5.33826V5.29629C36.9922 4.6806 36.8941 4.05093 36.5716 3.5262C36.2492 2.99447 35.7234 2.61668 35.0995 2.46976C33.8096 2.16191 32.5478 2.86155 32.2324 4.06494C32.0712 4.72959 32.1623 5.39425 32.4918 5.96095C32.8212 6.51367 33.333 6.90547 33.9499 7.0594Z" fill="#113768"/>
<path id="Vector_21" d="M52.8911 30.7212C52.2532 30.5603 51.6013 30.6582 51.0545 30.9941C50.5217 31.3229 50.1432 31.8476 50.003 32.4773C49.7155 33.7437 50.4726 34.982 51.7274 35.2969C52.3513 35.4578 52.9963 35.3598 53.543 35.031C54.0898 34.6952 54.4684 34.1704 54.6156 33.5338C54.903 32.2674 54.1459 31.036 52.8911 30.7212Z" fill="#113768"/>
<path id="Vector_22" d="M19.5302 50.7099C18.9273 50.57 18.2754 50.682 17.7356 51.0178C17.2028 51.3536 16.8383 51.8574 16.6981 52.4451C16.4247 53.6764 17.2449 54.9918 18.4646 55.2646C19.6213 55.5235 20.9041 54.7189 21.2126 53.5365L21.2266 53.4735C21.3668 52.8649 21.2687 52.2422 20.9532 51.7244C20.6378 51.1997 20.133 50.8359 19.5302 50.696V50.7099Z" fill="#113768"/>
<path id="Vector_23" d="M45.166 38.6062L45.187 38.5292C45.3272 37.9345 45.2151 37.3118 44.8856 36.7871C44.5561 36.2554 44.0374 35.8916 43.4345 35.7656C42.2218 35.5068 41.002 36.2694 40.7006 37.4728C40.5674 38.0814 40.6725 38.7251 40.995 39.2358C41.3245 39.7676 41.8572 40.1454 42.4531 40.2713C43.6448 40.5232 44.8506 39.7816 45.166 38.6062Z" fill="#113768"/>
<path id="Vector_24" d="M29.3302 5.39424C29.8419 5.52018 30.4238 5.42223 30.9285 5.11439C31.4472 4.79955 31.8188 4.30979 31.9449 3.77107C32.2464 2.44175 31.5664 1.25237 30.3256 0.937536C29.7228 0.783615 29.0498 0.895553 28.496 1.23838C28.0053 1.53922 27.6548 2.01497 27.5286 2.5397C27.2552 3.82004 28.0473 5.07239 29.3372 5.40122L29.3302 5.39424Z" fill="#113768"/>
<path id="Vector_25" d="M52.2812 35.8426C51.6924 35.6887 51.0755 35.7796 50.5427 36.0945C50.017 36.4023 49.6454 36.892 49.4982 37.4727C49.351 38.0465 49.4562 38.6621 49.7716 39.1799C50.0941 39.7116 50.6058 40.0894 51.1877 40.2293C52.3724 40.5092 53.5641 39.8095 53.8865 38.6271C53.8936 38.5922 53.9076 38.5572 53.9146 38.5292C54.0408 37.9695 53.9566 37.3888 53.6762 36.899C53.3748 36.3813 52.8841 36.0035 52.2883 35.8496L52.2812 35.8426Z" fill="#113768"/>
<path id="Vector_26" d="M22.951 3.43525C23.2595 3.93199 23.7572 4.28882 24.3039 4.40776C24.8507 4.5267 25.4466 4.41475 25.9233 4.09991C26.3859 3.79207 26.7224 3.31632 26.8416 2.79159L26.8556 2.72162C27.0729 1.5882 26.3299 0.475782 25.2083 0.237905C24.0796 2.68519e-05 22.937 0.706664 22.6636 1.8121C22.5374 2.36481 22.6426 2.9595 22.937 3.44225L22.951 3.43525Z" fill="#113768"/>
<path id="Vector_27" d="M50.8651 40.824C49.7645 40.5022 48.5799 41.1389 48.2293 42.2373C47.8929 43.3147 48.5238 44.5321 49.6103 44.8889C50.6829 45.2457 51.9096 44.6301 52.2812 43.5386C52.3022 43.4687 52.3232 43.4057 52.3372 43.3357C52.4494 42.853 52.3793 42.3352 52.148 41.8875C51.8816 41.3697 51.4119 40.9849 50.8581 40.824H50.8651Z" fill="#113768"/>
<path id="Vector_28" d="M44.2546 30.8891C43.7219 30.7702 43.1611 30.8682 42.6774 31.169C42.2007 31.4698 41.8642 31.9456 41.738 32.4913C41.4927 33.6107 42.2217 34.7652 43.3293 35.017C44.4509 35.2689 45.5725 34.5482 45.8389 33.4078C46.0983 32.2744 45.3833 31.141 44.2546 30.8891Z" fill="#113768"/>
<path id="Vector_29" d="M14.539 49.5066C13.4384 49.2547 12.3518 49.9054 12.0574 50.9898C11.9102 51.5495 11.9943 52.1582 12.3028 52.662C12.5902 53.1377 13.0318 53.4595 13.5506 53.5715C14.7072 53.8234 15.8288 53.1517 16.1022 52.0393V52.0043C16.2354 51.4726 16.1373 50.9269 15.8499 50.4511C15.5484 49.9683 15.0858 49.6325 14.539 49.5066Z" fill="#113768"/>
<path id="Vector_30" d="M19.2778 4.26781C20.3293 4.49869 21.3317 3.89001 21.6051 2.84754L21.6191 2.78458C21.7313 2.28084 21.6542 1.76311 21.3948 1.32233C21.1284 0.867565 20.7008 0.552721 20.1891 0.419789C19.6844 0.293854 19.1516 0.377823 18.6889 0.650683C18.2333 0.930539 17.8968 1.37829 17.7706 1.90302C17.6584 2.40676 17.7426 2.9245 18.023 3.37227C18.3104 3.82704 18.759 4.14189 19.2778 4.26083V4.26781Z" fill="#113768"/>
<path id="Vector_31" d="M48.5238 45.5046C47.9911 45.3717 47.4583 45.4487 47.0097 45.7145C46.568 45.9804 46.2526 46.4142 46.1334 46.9319C46.1334 46.9319 46.1334 46.9319 46.1334 46.9389C46.0142 47.4496 46.1054 47.9883 46.3858 48.4291C46.6662 48.8839 47.1008 49.1917 47.6125 49.3107C48.622 49.5415 49.6665 48.9119 49.9539 47.9114C49.9609 47.8834 49.9679 47.8484 49.9749 47.8134C50.0801 47.3447 50.01 46.8479 49.7646 46.4281C49.4983 45.9594 49.0566 45.6306 48.5309 45.4976L48.5238 45.5046Z" fill="#113768"/>
<g id="Group_2">
<path id="Vector_32" d="M32.1623 39.1099C31.3 38.914 30.4308 39.4527 30.2345 40.3133C30.0382 41.1738 30.578 42.0414 31.4402 42.2373C32.3025 42.4332 33.1717 41.8945 33.368 41.0339C33.5643 40.1734 33.0245 39.3058 32.1623 39.1099Z" fill="#113768"/>
<path id="Vector_33" d="M12.6883 24.8582C13.5505 25.0541 14.4198 24.5154 14.6161 23.6548C14.8123 22.7943 14.2726 21.9267 13.4103 21.7308C12.5481 21.5349 11.6788 22.0737 11.4826 22.9342C11.2863 23.7948 11.8261 24.6623 12.6883 24.8582Z" fill="#113768"/>
<path id="Vector_34" d="M34.0621 37.5217C34.672 37.6617 35.2889 37.2768 35.4291 36.6682C35.5693 36.0595 35.1837 35.4438 34.5739 35.3039C33.964 35.1639 33.3471 35.5487 33.2069 36.1574C33.0667 36.7661 33.4523 37.3818 34.0621 37.5217Z" fill="#113768"/>
<path id="Vector_35" d="M15.4713 20.6254C15.3311 21.2341 15.7167 21.8498 16.3265 21.9897C16.9364 22.1296 17.5533 21.7448 17.6935 21.1362C17.8337 20.5275 17.4482 19.9118 16.8383 19.7718C16.2284 19.6319 15.6115 20.0167 15.4713 20.6254Z" fill="#113768"/>
<path id="Vector_36" d="M20.4134 44.6581C20.4275 44.6091 20.4415 44.5671 20.4485 44.5181C20.7569 43.1818 20.0139 41.9015 18.724 41.5377C18.1071 41.3628 17.4412 41.4467 16.8593 41.7825C16.5509 41.9574 16.2775 42.2023 16.0672 42.4822C16.1513 42.3143 16.2144 42.1394 16.2635 41.9505V41.9225C16.4247 41.2578 16.3055 40.5722 15.948 39.9985C15.5835 39.4178 15.0157 39.019 14.3427 38.8651C13.6908 38.7181 13.0388 38.8441 12.4991 39.1659C12.8846 38.8371 13.165 38.3963 13.2842 37.8786C13.5856 36.5632 12.7654 35.2409 11.4616 34.9191C10.1507 34.5972 8.80474 35.3948 8.46826 36.6892C8.30001 37.3118 8.40517 37.9975 8.75567 38.5782C9.10618 39.1589 9.68801 39.5787 10.3329 39.7256C10.9568 39.8655 11.5948 39.7396 12.1275 39.4318C11.742 39.7676 11.4475 40.2154 11.3143 40.7401C11.1461 41.3838 11.2513 42.0694 11.6228 42.6641C11.9873 43.2518 12.5692 43.6646 13.2491 43.8115C14.2586 44.0354 15.247 43.6436 15.8218 42.881C15.7517 43.0279 15.6956 43.1748 15.6536 43.3288C15.4853 43.9514 15.5835 44.6301 15.927 45.2108C16.2564 45.7775 16.7962 46.1903 17.4061 46.3442C18.7941 46.701 20.0349 46.0014 20.4204 44.6511L20.4134 44.6581Z" fill="#113768"/>
<path id="Vector_37" d="M24.0727 46.715C24.6195 46.3932 25.012 45.8754 25.1592 45.2947V45.2528C25.2994 44.6931 25.1943 44.0844 24.8858 43.5736C24.5704 43.0559 24.0656 42.6781 23.5048 42.5382C22.895 42.3912 22.2851 42.4822 21.7874 42.79C21.2897 43.0979 20.9392 43.6086 20.7849 44.2173C20.7849 44.2173 20.7849 44.2313 20.7849 44.2383C20.5045 45.4696 21.2126 46.673 22.4043 46.9809C22.944 47.1208 23.5539 47.0229 24.0727 46.715Z" fill="#113768"/>
<path id="Vector_38" d="M9.20431 34.6462C9.80718 34.7861 10.4171 34.6952 10.9288 34.3733C11.4335 34.0585 11.784 33.5617 11.9172 32.974V32.9601C12.1766 31.7917 11.4475 30.5883 10.2979 30.2804C9.72305 30.1265 9.12018 30.2175 8.58742 30.5253C8.05465 30.8331 7.66911 31.3439 7.52189 31.9176C7.38169 32.4913 7.46582 33.1 7.77427 33.6107C8.08972 34.1354 8.60146 34.5063 9.19731 34.6462H9.20431Z" fill="#113768"/>
<path id="Vector_39" d="M12.3869 27.9786C12.492 27.5169 12.4079 27.0131 12.1555 26.5863C11.8892 26.1386 11.4545 25.8167 10.9638 25.6908C9.98241 25.4529 8.95193 26.0406 8.66452 26.9992C8.51731 27.4819 8.58039 27.9996 8.83275 28.4474C9.08512 28.9022 9.51274 29.238 10.0034 29.3709C10.5082 29.5109 11.0339 29.4409 11.4826 29.182C11.9242 28.9302 12.2397 28.5174 12.3658 28.0276L12.3799 27.9716L12.3869 27.9786Z" fill="#113768"/>
<path id="Vector_40" d="M27.3394 45.4556C27.8231 45.5816 28.3349 45.5116 28.7765 45.2458C29.2252 44.9799 29.5476 44.5321 29.6668 44.0214C29.8981 43.0139 29.2953 42.0274 28.2998 41.7755C27.8021 41.6496 27.2623 41.7336 26.8207 41.9994C26.3861 42.2653 26.0846 42.6851 25.9725 43.1748C25.7552 44.1473 26.3861 45.1898 27.3465 45.4417L27.3394 45.4556Z" fill="#113768"/>
</g>
<path id="Vector_41" d="M41.5768 27.4259V27.4539C41.3595 28.4544 41.9904 29.4549 42.9858 29.6787C43.9672 29.9026 45.0047 29.2729 45.243 28.2935V28.2655C45.3622 27.7827 45.2711 27.279 45.0047 26.8522C44.7243 26.4114 44.2897 26.1106 43.7709 26.0056C42.7685 25.8027 41.8081 26.4254 41.5768 27.4259Z" fill="#113768"/>
<path id="Vector_42" d="M10.1786 47.1768C9.70897 47.0298 9.20425 47.0788 8.7556 47.3097C8.30696 47.5406 7.97748 47.9324 7.83026 48.4011C7.68305 48.8769 7.73213 49.3806 7.96346 49.8144C8.19479 50.2552 8.59436 50.584 9.07104 50.7239C10.0735 51.0248 11.097 50.4931 11.4124 49.5066C11.4264 49.4576 11.4405 49.4086 11.4545 49.3596C11.6718 48.4221 11.111 47.4566 10.1856 47.1628L10.1786 47.1768Z" fill="#113768"/>
<path id="Vector_43" d="M14.2866 4.99544C15.2751 5.23331 16.2354 4.65961 16.4808 3.68711V3.65212C16.7051 2.70061 16.1093 1.73511 15.1629 1.49723C14.6932 1.37829 14.2095 1.44826 13.8029 1.70014C13.3893 1.95201 13.0949 2.35081 12.9828 2.81956C12.8636 3.29532 12.9337 3.78506 13.186 4.19085C13.4314 4.59665 13.824 4.88349 14.2937 4.99544H14.2866Z" fill="#113768"/>
<path id="Vector_44" d="M45.4884 49.7374C45.0187 49.6255 44.535 49.7094 44.1214 49.9683C43.7149 50.2272 43.4275 50.619 43.3223 51.0877V51.1017C43.119 52.0323 43.6798 52.9628 44.6122 53.2147C45.0888 53.3406 45.5796 53.2776 46.0002 53.0327C46.4138 52.7879 46.7082 52.3961 46.8273 51.9273V51.8923C46.9395 51.4306 46.8624 50.9548 46.617 50.556C46.3647 50.1432 45.9721 49.8564 45.4954 49.7444L45.4884 49.7374Z" fill="#113768"/>
<path id="Vector_45" d="M42.1797 21.395C41.7661 21.2971 41.3384 21.367 40.9669 21.5979C40.6024 21.8218 40.343 22.1926 40.2309 22.6334C40.1327 23.0741 40.2168 23.5149 40.4622 23.8787C40.7005 24.2355 41.0721 24.4734 41.5067 24.5434C42.411 24.6973 43.091 24.2775 43.3644 23.389C43.3714 23.354 43.3854 23.319 43.3924 23.2841C43.4765 22.9132 43.4134 22.5214 43.2172 22.1786C42.9928 21.7868 42.6143 21.5 42.1867 21.395H42.1797Z" fill="#113768"/>
<path id="Vector_46" d="M9.63192 6.54865C10.5222 6.71657 11.2162 6.31078 11.5246 5.43623C11.5457 5.38725 11.5597 5.33828 11.5667 5.2823C11.6438 4.93948 11.5947 4.57567 11.4125 4.23985C11.1881 3.82006 10.8096 3.51921 10.375 3.40027C9.95438 3.28833 9.51976 3.35129 9.14822 3.57518C8.76968 3.79906 8.50329 4.16287 8.39814 4.59665C8.39814 4.59665 8.39814 4.59666 8.39814 4.60365C8.3 5.03743 8.3771 5.4922 8.60843 5.85601C8.83977 6.21983 9.2113 6.46469 9.63892 6.54865H9.63192Z" fill="#113768"/>
<path id="Vector_47" d="M41.7731 53.4316C40.8477 53.2916 40.1678 53.7114 39.8944 54.579C39.7682 54.9848 39.8243 55.4465 40.0486 55.8243C40.2799 56.2091 40.6655 56.482 41.1071 56.5659C41.9764 56.7339 42.6493 56.37 42.9648 55.5655C42.9648 55.5515 42.9788 55.5375 42.9788 55.5235C42.9788 55.5025 42.9858 55.4815 42.9928 55.4605C43.105 54.9778 43.0209 54.474 42.7545 54.0752C42.5161 53.7184 42.1726 53.4875 41.7731 53.4316Z" fill="#113768"/>
<path id="Vector_48" d="M6.33015 43.8395C5.93758 43.7205 5.51699 43.7765 5.15947 43.9934C4.76691 44.2313 4.47949 44.6371 4.36733 45.1198C4.36733 45.1478 4.35332 45.1688 4.35332 45.1968C4.26219 46.0713 4.70382 46.701 5.55905 46.9319C5.99368 47.0438 6.44933 46.9739 6.82086 46.736C7.15734 46.5191 7.3957 46.1763 7.48683 45.7845C7.49384 45.7495 7.50085 45.7215 7.50786 45.6865C7.65507 44.777 7.22744 44.1053 6.33716 43.8395H6.33015Z" fill="#113768"/>
<path id="Vector_49" d="M26.4281 36.983C23.3997 38.991 19.3198 38.1654 17.315 35.15C15.3031 32.1275 16.1303 28.0556 19.1586 26.0546C20.9742 24.8513 23.1614 24.6693 25.0681 25.376C24.998 25.411 24.9279 25.4529 24.8648 25.5019C23.4067 26.4674 23.0071 28.4404 23.9745 29.8887C24.9489 31.3509 26.9188 31.7497 28.3769 30.7842C28.6993 30.5673 28.9657 30.3085 29.183 30.0146C29.7999 32.6033 28.7834 35.4228 26.4281 36.983Z" fill="#113768"/>
</g>
<g id="Group_3">
<path id="Vector_50" d="M71.4257 45.3297C69.1474 44.0354 67.3388 42.2303 66.0139 39.9075C64.689 37.5917 64.0231 34.982 64.0231 32.0785C64.0231 29.175 64.689 26.5653 66.0139 24.2495C67.3388 21.9337 69.1404 20.1217 71.4257 18.8273C73.704 17.533 76.2276 16.8823 78.9966 16.8823C81.7656 16.8823 84.3242 17.533 86.6095 18.8273C88.8878 20.1217 90.6824 21.9197 92.0003 24.2286C93.3112 26.5304 93.9701 29.154 93.9701 32.0785C93.9701 35.003 93.3112 37.6267 92.0003 39.9285C90.6894 42.2303 88.8948 44.0354 86.6095 45.3297C84.3313 46.624 81.7936 47.2747 78.9966 47.2747C76.1996 47.2747 73.711 46.631 71.4257 45.3297ZM84.6187 42.4472C86.2871 41.4817 87.598 40.1034 88.5513 38.3053C89.5047 36.5142 89.9814 34.4363 89.9814 32.0715C89.9814 29.7068 89.5047 27.6008 88.5513 25.8167C87.598 24.0397 86.2941 22.6684 84.6397 21.6959C82.9853 20.7304 81.1066 20.2476 78.9966 20.2476C76.8866 20.2476 75.0079 20.7304 73.3535 21.6959C71.6991 22.6614 70.3952 24.0327 69.4418 25.8167C68.4885 27.5938 68.0118 29.6788 68.0118 32.0715C68.0118 34.4643 68.4885 36.5072 69.4418 38.3053C70.3952 40.0964 71.7061 41.4817 73.3745 42.4472C75.0429 43.4127 76.9146 43.8955 78.9966 43.8955C81.0786 43.8955 82.9503 43.4127 84.6187 42.4472Z" fill="#113768"/>
<path id="Vector_51" d="M116.984 32.9741C117.882 33.6877 118.597 34.5692 119.122 35.6187C119.648 36.6682 119.914 37.7946 119.914 38.991C119.914 40.5022 119.529 41.8595 118.758 43.0699C117.987 44.2803 116.872 45.2318 115.4 45.9314C113.935 46.6311 112.196 46.9739 110.206 46.9739H99.0875V17.2252H109.778C111.804 17.2252 113.528 17.561 114.951 18.2256C116.374 18.8973 117.447 19.7998 118.155 20.9333C118.87 22.0737 119.227 23.354 119.227 24.7743C119.227 26.5374 118.751 27.9996 117.797 29.147C116.844 30.3014 115.582 31.134 114.012 31.6447C115.099 31.8127 116.087 32.2604 116.984 32.9671V32.9741ZM102.978 30.0706H109.519C111.341 30.0706 112.75 29.6438 113.753 28.7902C114.748 27.9367 115.246 26.7543 115.246 25.25C115.246 23.7458 114.748 22.5634 113.753 21.7099C112.757 20.8563 111.313 20.4295 109.434 20.4295H102.978V30.0776V30.0706ZM114.398 42.4052C115.477 41.4957 116.024 40.2293 116.024 38.6062C116.024 36.983 115.456 35.6537 114.313 34.7022C113.171 33.7507 111.65 33.2749 109.736 33.2749H102.978V43.7765H109.862C111.804 43.7765 113.311 43.3218 114.398 42.4122V42.4052Z" fill="#113768"/>
<path id="Vector_52" d="M130.17 46.2252C128.614 45.5256 127.394 44.5601 126.511 43.3217C125.628 42.0834 125.172 40.6561 125.144 39.0329H129.294C129.434 40.4252 130.016 41.6006 131.025 42.5521C132.035 43.5036 133.514 43.9794 135.449 43.9794C137.384 43.9794 138.765 43.5176 139.83 42.5941C140.896 41.6706 141.435 40.4812 141.435 39.0329C141.435 37.8925 141.12 36.969 140.496 36.2624C139.865 35.5487 139.087 35.01 138.148 34.6392C137.208 34.2684 135.939 33.8696 134.341 33.4428C132.371 32.9321 130.801 32.4213 129.616 31.9036C128.432 31.3929 127.422 30.5883 126.581 29.4899C125.74 28.3984 125.319 26.9222 125.319 25.0751C125.319 23.452 125.733 22.0177 126.56 20.7653C127.387 19.513 128.551 18.5475 130.044 17.8618C131.544 17.1762 133.255 16.8403 135.196 16.8403C137.986 16.8403 140.279 17.54 142.059 18.9323C143.84 20.3246 144.842 22.1786 145.074 24.4804H140.797C140.657 23.34 140.054 22.3395 139.003 21.472C137.944 20.6044 136.549 20.1706 134.811 20.1706C133.184 20.1706 131.86 20.5904 130.836 21.43C129.813 22.2696 129.294 23.445 129.294 24.9492C129.294 26.0336 129.602 26.9152 130.212 27.5938C130.822 28.2795 131.579 28.7972 132.476 29.154C133.374 29.5108 134.636 29.9166 136.262 30.3714C138.232 30.9101 139.809 31.4488 141.008 31.9736C142.206 32.4983 143.23 33.3099 144.085 34.4083C144.94 35.5068 145.368 36.99 145.368 38.865C145.368 40.3133 144.982 41.6846 144.211 42.9649C143.44 44.2453 142.298 45.2807 140.79 46.0783C139.276 46.8759 137.496 47.2747 135.449 47.2747C133.402 47.2747 131.719 46.9249 130.17 46.2323V46.2252Z" fill="#113768"/>
<path id="Vector_53" d="M155 20.3875V30.3294H165.859V33.5338H155V43.7765H167.141V46.9809H151.102V17.1902H167.141V20.3945H155V20.3875Z" fill="#113768"/>
<path id="Vector_54" d="M189.44 46.9739L182.339 34.8141H177.635V46.9739H173.745V17.2252H183.363C185.613 17.2252 187.52 17.61 189.069 18.3796C190.625 19.1492 191.782 20.1846 192.553 21.493C193.324 22.8013 193.71 24.2985 193.71 25.9777C193.71 28.0276 193.121 29.8327 191.936 31.3999C190.751 32.9671 188.978 34.0025 186.615 34.5133L194.102 46.9739H189.44ZM177.635 31.6937H183.363C185.473 31.6937 187.057 31.176 188.109 30.1335C189.16 29.0981 189.693 27.7058 189.693 25.9707C189.693 24.2356 189.174 22.8433 188.13 21.8708C187.085 20.9053 185.501 20.4225 183.363 20.4225H177.635V31.6867V31.6937Z" fill="#113768"/>
<path id="Vector_55" d="M225.073 17.2252L213.828 46.9739H209.335L198.091 17.2252H202.241L211.606 42.874L220.972 17.2252H225.08H225.073Z" fill="#113768"/>
<path id="Vector_56" d="M241.357 40.3553H228.36L225.963 46.9739H221.855L232.63 17.4001H237.123L247.855 46.9739H243.748L241.35 40.3553H241.357ZM240.243 37.1999L234.852 22.1786L229.461 37.1999H240.236H240.243Z" fill="#113768"/>
<path id="Vector_57" d="M265.304 17.2252V20.3805H257.179V46.9669H253.288V20.3805H245.121V17.2252H265.304Z" fill="#113768"/>
<path id="Vector_58" d="M283.502 40.3553H270.505L268.108 46.9739H264L274.774 17.4001H279.268L290 46.9739H285.892L283.495 40.3553H283.502ZM282.387 37.1999L276.996 22.1786L271.606 37.1999H282.38H282.387Z" fill="#113768"/>
</g>
</g>
<defs>
<clipPath id="clip0_33_5510">
<rect width="290" height="62.3939" fill="white"/>
</clipPath>
</defs>
</svg>
