<svg width="290" height="63" viewBox="0 0 290 63" fill="none" xmlns="http://www.w3.org/2000/svg">
<g id="observata-white" clip-path="url(#clip0_33_5448)">
<g id="Group">
<path id="Vector" d="M28.0824 59.8548C27.4725 59.7153 26.8556 60.0989 26.7154 60.7058C26.5752 61.3126 26.9608 61.9265 27.5707 62.066C28.1806 62.2055 28.7974 61.8218 28.9376 61.215C29.0778 60.6081 28.6923 59.9943 28.0824 59.8548Z" fill="white"/>
<path id="Vector_2" d="M33.1017 58.2156C32.2675 58.0273 31.4333 58.5435 31.244 59.3735C31.0547 60.2036 31.5735 61.0336 32.4147 61.222C33.2489 61.4103 34.0831 60.8941 34.2724 60.0571C34.4616 59.22 33.9429 58.397 33.1087 58.2086L33.1017 58.2156Z" fill="white"/>
<path id="Vector_3" d="M37.6372 56.123C36.803 55.9347 35.9688 56.4509 35.7795 57.2879C35.5903 58.1179 36.109 58.948 36.9432 59.1364C37.7774 59.3247 38.6116 58.8085 38.8009 57.9785C38.9902 57.1484 38.4714 56.3183 37.6302 56.13L37.6372 56.123Z" fill="white"/>
<path id="Vector_4" d="M2.70596 36.2505C2.84616 35.6436 2.46061 35.0298 1.85073 34.8903C1.24085 34.7508 0.623957 35.1344 0.483755 35.7413C0.343554 36.3481 0.729109 36.9619 1.33899 37.1015C1.94886 37.241 2.56576 36.8573 2.70596 36.2505Z" fill="white"/>
<path id="Vector_5" d="M1.28289 11.9347C2.06801 12.116 2.85314 11.6208 3.03541 10.8396C3.21767 10.0583 2.71995 9.2771 1.93482 9.09575C1.14969 8.91439 0.36456 9.40964 0.182298 10.1909C3.57926e-05 10.9721 0.497757 11.7533 1.28289 11.9347Z" fill="white"/>
<path id="Vector_6" d="M5.0823 9.03299C5.92351 9.2283 6.77175 8.69818 6.96102 7.86115C7.15029 7.02412 6.62452 6.18011 5.78331 5.99178C4.9421 5.80345 4.09389 6.32659 3.90462 7.16362C3.70833 8.00065 4.2411 8.84466 5.0823 9.03299Z" fill="white"/>
<path id="Vector_7" d="M3.53315 39.3126C2.70596 39.1243 1.87177 39.6405 1.6825 40.4705C1.49323 41.2936 2.01195 42.1237 2.84615 42.312C3.67334 42.5003 4.50755 41.9841 4.69682 41.1541C4.8861 40.331 4.36735 39.501 3.53315 39.3126Z" fill="white"/>
<path id="Vector_8" d="M36.5646 15.1363C36.7048 14.5295 36.3192 13.9157 35.7094 13.7762C35.0995 13.6366 34.4826 14.0203 34.3424 14.6271C34.2022 15.234 34.5878 15.8478 35.1976 15.9873C35.8075 16.1268 36.4244 15.7432 36.5646 15.1363Z" fill="white"/>
<path id="Vector_9" d="M39.2985 17.1871C38.5064 17.0057 37.7143 17.5009 37.532 18.2891C37.3497 19.0774 37.8475 19.8656 38.6396 20.0469C39.4318 20.2283 40.2239 19.733 40.4061 18.9448C40.5884 18.1566 40.0907 17.3684 39.2985 17.1871Z" fill="white"/>
<path id="Vector_10" d="M34.4475 47.4249C33.7746 47.2575 33.0806 47.3621 32.4847 47.7178C31.8959 48.0735 31.4823 48.6316 31.328 49.2872C31.1738 49.9429 31.286 50.6195 31.6505 51.1985C32.0221 51.7914 32.6039 52.1959 33.2839 52.3424C34.6438 52.6354 35.9617 51.8053 36.2912 50.4312C36.5996 49.078 35.7935 47.7597 34.4546 47.4179L34.4475 47.4249Z" fill="white"/>
<path id="Vector_11" d="M43.8691 13.4204C43.8691 13.4204 43.8691 13.4414 43.8621 13.4553C43.7078 14.118 43.813 14.7806 44.1565 15.3456C44.514 15.9245 45.0888 16.3361 45.7688 16.4895C46.3787 16.6291 46.9745 16.5523 47.4793 16.3012C47.0587 16.6221 46.7362 17.0894 46.589 17.6544C46.4067 18.3241 46.4979 19.0216 46.8554 19.6145C47.1989 20.1934 47.7527 20.598 48.4186 20.7584C49.0776 20.9188 49.7856 20.8003 50.3744 20.4445C50.9563 20.0818 51.3629 19.5308 51.5171 18.8611C51.8115 17.5358 50.9703 16.1896 49.6314 15.8687C49.0075 15.7153 48.3976 15.792 47.8788 16.0501C48.3135 15.7153 48.6359 15.234 48.7831 14.6481V14.6062C48.9444 13.9436 48.8322 13.267 48.4817 12.695C48.1242 12.1161 47.5634 11.7185 46.9044 11.565C45.5655 11.2581 44.2056 12.0951 43.8691 13.4204Z" fill="white"/>
<path id="Vector_12" d="M38.3872 44.2232C37.0273 43.9023 35.7024 44.7115 35.3659 46.0647V46.1065C35.0504 47.4458 35.8426 48.7571 37.1675 49.0989C37.8264 49.2663 38.5415 49.1547 39.1303 48.799C39.7192 48.4432 40.1187 47.8852 40.273 47.2226C40.5674 45.9112 39.6981 44.5371 38.3802 44.2232H38.3872Z" fill="white"/>
<path id="Vector_13" d="M40.5253 9.68866C40.3711 10.3653 40.4692 11.0349 40.8057 11.5859C41.1492 12.144 41.703 12.5415 42.362 12.695C43.7359 13.0228 45.0679 12.2207 45.3973 10.8675V10.8326C45.7058 9.50731 44.8786 8.16107 43.5537 7.83323C42.9087 7.6728 42.2428 7.77743 41.668 8.11922C41.0861 8.46798 40.6795 9.026 40.5253 9.68167V9.68866Z" fill="white"/>
<path id="Vector_14" d="M31.6014 52.5866C31.7486 51.9239 31.6295 51.2473 31.2649 50.6823C30.9074 50.1243 30.3466 49.7407 29.7017 49.6012C28.3768 49.3222 26.9958 50.1871 26.6944 51.5124C26.3999 52.8516 27.2622 54.1839 28.6221 54.4839C30.0031 54.7908 31.286 53.9816 31.6014 52.6075V52.5936V52.5866Z" fill="white"/>
<path id="Vector_15" d="M49.6314 20.8351C49.0706 21.1839 48.6781 21.7419 48.5238 22.3976C48.2084 23.7857 49.0145 25.0622 50.3955 25.383C51.7485 25.6899 53.1014 24.8599 53.4099 23.5206C53.5571 22.8789 53.4449 22.2162 53.0874 21.6512C52.7299 21.0793 52.1691 20.6817 51.5241 20.5352C50.8652 20.3817 50.1922 20.4934 49.6314 20.8491V20.8351Z" fill="white"/>
<path id="Vector_16" d="M36.5857 6.61256C36.4385 7.26126 36.5507 7.92392 36.9082 8.47497C37.2727 9.03299 37.8405 9.41662 38.5205 9.55612C39.8384 9.82119 41.0651 9.01904 41.3736 7.69374V7.65187C41.668 6.32657 40.8408 5.06405 39.5089 4.77806C38.198 4.49208 36.8871 5.31517 36.5927 6.61954L36.5857 6.61256Z" fill="white"/>
<path id="Vector_17" d="M49.6805 27.2942V27.3291C49.3721 28.6195 50.1852 29.9309 51.4751 30.2448C52.113 30.3982 52.772 30.3006 53.3328 29.9588C53.8936 29.617 54.2861 29.0799 54.4403 28.4452V28.4172C54.5946 27.7825 54.4894 27.1338 54.1599 26.5897C53.8235 26.0457 53.2837 25.655 52.6388 25.5016C51.2788 25.1807 50.01 25.948 49.6805 27.2873V27.2942Z" fill="white"/>
<path id="Vector_18" d="M40.3291 44.9486C40.967 45.1021 41.626 44.9975 42.1868 44.6557C42.7476 44.3139 43.1401 43.7768 43.2873 43.149V43.1281C43.4345 42.5143 43.3224 41.8656 42.9789 41.3215C42.6284 40.7565 42.0746 40.3729 41.4367 40.2264C40.1468 39.9404 38.885 40.7146 38.5555 41.9911C38.3943 42.6468 38.4924 43.2955 38.8219 43.8535C39.1584 44.4046 39.6912 44.7952 40.3291 44.9486Z" fill="white"/>
<path id="Vector_19" d="M24.6125 50.6753C23.3998 50.4312 22.0048 51.2543 21.7454 52.3703V52.3843C21.4229 53.7584 22.2291 55.0837 23.568 55.3976C24.2129 55.551 24.8719 55.4464 25.4187 55.1046C25.9584 54.7628 26.337 54.2258 26.4912 53.5771C26.6314 52.9353 26.5122 52.2796 26.1547 51.7286C25.7972 51.1775 25.2504 50.8079 24.6125 50.6823V50.6753Z" fill="white"/>
<path id="Vector_20" d="M33.9499 7.03807C34.5808 7.1985 35.2187 7.10781 35.7585 6.78695C36.2982 6.46609 36.6838 5.94294 36.838 5.32214V5.28029C36.9922 4.66647 36.8941 4.03869 36.5716 3.51555C36.2492 2.98543 35.7234 2.60878 35.0995 2.4623C33.8096 2.15538 32.5478 2.85291 32.2324 4.05266C32.0712 4.71531 32.1623 5.37795 32.4918 5.94295C32.8212 6.49399 33.333 6.88461 33.9499 7.03807Z" fill="white"/>
<path id="Vector_21" d="M52.8911 30.6284C52.2532 30.468 51.6013 30.5656 51.0545 30.9004C50.5217 31.2283 50.1432 31.7514 50.003 32.3792C49.7155 33.6417 50.4726 34.8763 51.7274 35.1902C52.3513 35.3507 52.9963 35.253 53.543 34.9252C54.0898 34.5904 54.4684 34.0672 54.6156 33.4325C54.903 32.1699 54.1459 30.9423 52.8911 30.6284Z" fill="white"/>
<path id="Vector_22" d="M19.5302 50.5567C18.9273 50.4172 18.2754 50.5288 17.7356 50.8637C17.2028 51.1985 16.8383 51.7007 16.6981 52.2866C16.4247 53.5143 17.2449 54.8256 18.4646 55.0976C19.6213 55.3557 20.9041 54.5536 21.2126 53.3748L21.2266 53.312C21.3668 52.7051 21.2687 52.0843 20.9532 51.5682C20.6378 51.045 20.133 50.6823 19.5302 50.5428V50.5567Z" fill="white"/>
<path id="Vector_23" d="M45.166 38.4895L45.187 38.4128C45.3272 37.8199 45.2151 37.1991 44.8856 36.676C44.5561 36.1458 44.0374 35.7831 43.4345 35.6576C42.2218 35.3995 41.002 36.1598 40.7006 37.3596C40.5674 37.9664 40.6725 38.6081 40.995 39.1173C41.3245 39.6474 41.8572 40.0241 42.4531 40.1497C43.6448 40.4008 44.8506 39.6614 45.166 38.4895Z" fill="white"/>
<path id="Vector_24" d="M29.3302 5.37795C29.8419 5.5035 30.4238 5.40585 30.9285 5.09894C31.4472 4.78506 31.8188 4.29678 31.9449 3.75968C32.2464 2.43438 31.5664 1.24859 30.3256 0.934707C29.7228 0.781251 29.0498 0.89285 28.496 1.23464C28.0053 1.53458 27.6548 2.00888 27.5286 2.53203C27.2552 3.8085 28.0473 5.05707 29.3372 5.38491L29.3302 5.37795Z" fill="white"/>
<path id="Vector_25" d="M52.2812 35.7343C51.6924 35.5808 51.0755 35.6715 50.5427 35.9854C50.017 36.2923 49.6454 36.7806 49.4982 37.3596C49.351 37.9315 49.4562 38.5453 49.7716 39.0615C50.0941 39.5916 50.6058 39.9683 51.1877 40.1078C52.3724 40.3868 53.5641 39.6893 53.8865 38.5105C53.8936 38.4756 53.9076 38.4407 53.9146 38.4128C54.0408 37.8548 53.9566 37.2758 53.6762 36.7876C53.3748 36.2714 52.8841 35.8947 52.2883 35.7413L52.2812 35.7343Z" fill="white"/>
<path id="Vector_26" d="M22.951 3.42487C23.2595 3.92011 23.7572 4.27586 24.3039 4.39444C24.8507 4.51302 25.4466 4.40141 25.9233 4.08753C26.3859 3.78061 26.7224 3.3063 26.8416 2.78315L26.8556 2.7134C27.0729 1.5834 26.3299 0.474345 25.2083 0.237186C24.0796 2.64496e-05 22.937 0.704528 22.6636 1.80662C22.5374 2.35767 22.6426 2.95056 22.937 3.43185L22.951 3.42487Z" fill="white"/>
<path id="Vector_27" d="M50.8651 40.7007C49.7645 40.3798 48.5799 41.0146 48.2293 42.1097C47.8929 43.1839 48.5238 44.3976 49.6103 44.7533C50.6829 45.109 51.9096 44.4952 52.2812 43.4071C52.3022 43.3373 52.3232 43.2745 52.3372 43.2048C52.4494 42.7235 52.3793 42.2073 52.148 41.7609C51.8816 41.2448 51.4119 40.8611 50.8581 40.7007H50.8651Z" fill="white"/>
<path id="Vector_28" d="M44.2546 30.7958C43.7219 30.6772 43.1611 30.7749 42.6774 31.0748C42.2007 31.3748 41.8642 31.8491 41.738 32.3931C41.4927 33.5092 42.2217 34.6601 43.3293 34.9112C44.4509 35.1623 45.5725 34.4439 45.8389 33.3069C46.0983 32.1769 45.3833 31.0469 44.2546 30.7958Z" fill="white"/>
<path id="Vector_29" d="M14.539 49.357C13.4384 49.1059 12.3518 49.7546 12.0574 50.8357C11.9102 51.3938 11.9943 52.0006 12.3028 52.5028C12.5902 52.9772 13.0318 53.298 13.5506 53.4096C14.7072 53.6607 15.8288 52.9911 16.1022 51.882V51.8472C16.2354 51.317 16.1373 50.773 15.8499 50.2987C15.5484 49.8174 15.0858 49.4825 14.539 49.357Z" fill="white"/>
<path id="Vector_30" d="M19.2778 4.25492C20.3293 4.48511 21.3317 3.87826 21.6051 2.83894L21.6191 2.77617C21.7313 2.27395 21.6542 1.75778 21.3948 1.31834C21.1284 0.864948 20.7008 0.551055 20.1891 0.418525C19.6844 0.292971 19.1516 0.376686 18.6889 0.648721C18.2333 0.927732 17.8968 1.37413 17.7706 1.89728C17.6584 2.3995 17.7426 2.91567 18.023 3.36209C18.3104 3.81548 18.759 4.12938 19.2778 4.24796V4.25492Z" fill="white"/>
<path id="Vector_31" d="M48.5238 45.3671C47.9911 45.2346 47.4583 45.3114 47.0097 45.5764C46.568 45.8415 46.2526 46.2739 46.1334 46.7901C46.1334 46.7901 46.1334 46.7901 46.1334 46.7971C46.0142 47.3063 46.1054 47.8434 46.3858 48.2828C46.6662 48.7362 47.1008 49.0431 47.6125 49.1617C48.622 49.3919 49.6665 48.7641 49.9539 47.7666C49.9609 47.7387 49.9679 47.7039 49.9749 47.669C50.0801 47.2017 50.01 46.7064 49.7646 46.2879C49.4983 45.8205 49.0566 45.4927 48.5309 45.3602L48.5238 45.3671Z" fill="white"/>
<g id="Group_2">
<path id="Vector_32" d="M32.1623 38.9917C31.3 38.7964 30.4308 39.3335 30.2345 40.1915C30.0382 41.0494 30.578 41.9144 31.4402 42.1097C32.3025 42.305 33.1717 41.7679 33.368 40.9099C33.5643 40.052 33.0245 39.187 32.1623 38.9917Z" fill="white"/>
<path id="Vector_33" d="M12.6883 24.7831C13.5505 24.9784 14.4198 24.4413 14.6161 23.5834C14.8123 22.7254 14.2726 21.8605 13.4103 21.6652C12.5481 21.4699 11.6788 22.007 11.4826 22.8649C11.2863 23.7229 11.8261 24.5878 12.6883 24.7831Z" fill="white"/>
<path id="Vector_34" d="M34.0621 37.4084C34.672 37.5479 35.2889 37.1642 35.4291 36.5574C35.5693 35.9505 35.1837 35.3367 34.5739 35.1972C33.964 35.0577 33.3471 35.4414 33.2069 36.0482C33.0667 36.6551 33.4523 37.2689 34.0621 37.4084Z" fill="white"/>
<path id="Vector_35" d="M15.4713 20.5631C15.3311 21.1699 15.7167 21.7838 16.3265 21.9233C16.9364 22.0628 17.5533 21.6791 17.6935 21.0723C17.8337 20.4654 17.4482 19.8516 16.8383 19.7121C16.2284 19.5726 15.6115 19.9562 15.4713 20.5631Z" fill="white"/>
<path id="Vector_36" d="M20.4134 44.5231C20.4275 44.4743 20.4415 44.4325 20.4485 44.3836C20.7569 43.0514 20.0139 41.7749 18.724 41.4122C18.1071 41.2378 17.4412 41.3215 16.8593 41.6563C16.5509 41.8307 16.2775 42.0748 16.0672 42.3538C16.1513 42.1864 16.2144 42.0121 16.2635 41.8237V41.7958C16.4247 41.1332 16.3055 40.4496 15.948 39.8776C15.5835 39.2987 15.0157 38.9011 14.3427 38.7476C13.6908 38.6011 13.0388 38.7267 12.4991 39.0476C12.8846 38.7197 13.165 38.2803 13.2842 37.7641C13.5856 36.4528 12.7654 35.1344 11.4616 34.8136C10.1507 34.4927 8.80474 35.2879 8.46826 36.5783C8.30001 37.1991 8.40517 37.8827 8.75567 38.4616C9.10618 39.0406 9.68801 39.4591 10.3329 39.6056C10.9568 39.7451 11.5948 39.6195 12.1275 39.3126C11.742 39.6474 11.4475 40.0939 11.3143 40.617C11.1461 41.2587 11.2513 41.9423 11.6228 42.5352C11.9873 43.1211 12.5692 43.5327 13.2491 43.6791C14.2586 43.9024 15.247 43.5117 15.8218 42.7514C15.7517 42.8979 15.6956 43.0444 15.6536 43.1979C15.4853 43.8187 15.5835 44.4953 15.927 45.0742C16.2564 45.6392 16.7962 46.0507 17.4061 46.2042C18.7941 46.5599 20.0349 45.8624 20.4204 44.5162L20.4134 44.5231Z" fill="white"/>
<path id="Vector_37" d="M24.0727 46.5739C24.6195 46.253 25.012 45.7369 25.1592 45.1579V45.1161C25.2994 44.558 25.1943 43.9512 24.8858 43.442C24.5704 42.9258 24.0656 42.5492 23.5048 42.4097C22.895 42.2632 22.2851 42.3538 21.7874 42.6608C21.2897 42.9677 20.9392 43.4769 20.7849 44.0837C20.7849 44.0837 20.7849 44.0977 20.7849 44.1046C20.5045 45.3323 21.2126 46.532 22.4043 46.839C22.944 46.9785 23.5539 46.8808 24.0727 46.5739Z" fill="white"/>
<path id="Vector_38" d="M9.20431 34.5415C9.80718 34.681 10.4171 34.5904 10.9288 34.2695C11.4335 33.9556 11.784 33.4604 11.9172 32.8744V32.8605C12.1766 31.6956 11.4475 30.4959 10.2979 30.189C9.72305 30.0355 9.12018 30.1262 8.58742 30.4331C8.05465 30.74 7.66911 31.2492 7.52189 31.8212C7.38169 32.3932 7.46582 33 7.77427 33.5092C8.08972 34.0323 8.60146 34.402 9.19731 34.5415H9.20431Z" fill="white"/>
<path id="Vector_39" d="M12.3869 27.8941C12.492 27.4338 12.4079 26.9315 12.1555 26.506C11.8892 26.0596 11.4545 25.7387 10.9638 25.6132C9.98241 25.376 8.95193 25.962 8.66452 26.9176C8.51731 27.3989 8.58039 27.915 8.83275 28.3615C9.08512 28.8148 9.51274 29.1497 10.0034 29.2822C10.5082 29.4217 11.0339 29.352 11.4826 29.0939C11.9242 28.8428 12.2397 28.4312 12.3658 27.943L12.3799 27.8871L12.3869 27.8941Z" fill="white"/>
<path id="Vector_40" d="M27.3394 45.3183C27.8231 45.4439 28.3349 45.3741 28.7765 45.1091C29.2252 44.844 29.5476 44.3976 29.6668 43.8884C29.8981 42.8839 29.2953 41.9004 28.2998 41.6493C27.8021 41.5238 27.2623 41.6075 26.8207 41.8725C26.3861 42.1376 26.0846 42.5561 25.9725 43.0444C25.7552 44.0139 26.3861 45.0533 27.3465 45.3044L27.3394 45.3183Z" fill="white"/>
</g>
<path id="Vector_41" d="M41.5768 27.343V27.3709C41.3595 28.3684 41.9904 29.3659 42.9858 29.5891C43.9672 29.8123 45.0047 29.1845 45.243 28.208V28.1801C45.3622 27.6988 45.2711 27.1966 45.0047 26.7711C44.7243 26.3316 44.2897 26.0317 43.7709 25.9271C42.7685 25.7248 41.8081 26.3456 41.5768 27.343Z" fill="white"/>
<path id="Vector_42" d="M10.1786 47.0342C9.70897 46.8878 9.20425 46.9366 8.7556 47.1668C8.30696 47.397 7.97748 47.7876 7.83026 48.2549C7.68305 48.7292 7.73213 49.2314 7.96346 49.6639C8.19479 50.1034 8.59436 50.4312 9.07104 50.5707C10.0735 50.8706 11.097 50.3405 11.4124 49.357C11.4264 49.3082 11.4405 49.2593 11.4545 49.2105C11.6718 48.2758 11.111 47.3132 10.1856 47.0203L10.1786 47.0342Z" fill="white"/>
<path id="Vector_43" d="M14.2866 4.98034C15.2751 5.2175 16.2354 4.64553 16.4808 3.67597V3.64108C16.7051 2.69244 16.1093 1.72987 15.1629 1.49271C14.6932 1.37413 14.2095 1.44389 13.8029 1.695C13.3893 1.94611 13.0949 2.3437 12.9828 2.81104C12.8636 3.28536 12.9337 3.77362 13.186 4.17819C13.4314 4.58276 13.824 4.86874 14.2937 4.98034H14.2866Z" fill="white"/>
<path id="Vector_44" d="M45.4884 49.5872C45.0187 49.4756 44.535 49.5593 44.1214 49.8174C43.7149 50.0755 43.4275 50.4661 43.3223 50.9334V50.9474C43.119 51.8751 43.6798 52.8028 44.6122 53.0539C45.0888 53.1795 45.5796 53.1167 46.0002 52.8725C46.4138 52.6284 46.7082 52.2378 46.8273 51.7704V51.7356C46.9395 51.2752 46.8624 50.8009 46.617 50.4033C46.3647 49.9917 45.9721 49.7058 45.4954 49.5942L45.4884 49.5872Z" fill="white"/>
<path id="Vector_45" d="M42.1797 21.3304C41.7661 21.2327 41.3384 21.3025 40.9669 21.5327C40.6024 21.7559 40.343 22.1256 40.2309 22.565C40.1327 23.0044 40.2168 23.4439 40.4622 23.8066C40.7005 24.1623 41.0721 24.3995 41.5067 24.4693C42.411 24.6227 43.091 24.2042 43.3644 23.3183C43.3714 23.2835 43.3854 23.2486 43.3924 23.2137C43.4765 22.844 43.4134 22.4534 43.2172 22.1116C42.9928 21.721 42.6143 21.435 42.1867 21.3304H42.1797Z" fill="white"/>
<path id="Vector_46" d="M9.63192 6.52887C10.5222 6.69628 11.2162 6.29172 11.5246 5.41981C11.5457 5.37098 11.5597 5.32215 11.5667 5.26635C11.6438 4.92456 11.5947 4.56186 11.4125 4.22704C11.1881 3.80853 10.8096 3.50858 10.375 3.39C9.95438 3.2784 9.51976 3.34118 9.14822 3.56439C8.76968 3.78759 8.50329 4.1503 8.39814 4.58277C8.39814 4.58277 8.39814 4.58278 8.39814 4.58975C8.3 5.02222 8.3771 5.47562 8.60843 5.83833C8.83977 6.20104 9.2113 6.44517 9.63892 6.52887H9.63192Z" fill="white"/>
<path id="Vector_47" d="M41.7731 53.2701C40.8477 53.1306 40.1678 53.5491 39.8944 54.4141C39.7682 54.8186 39.8243 55.279 40.0486 55.6557C40.2799 56.0393 40.6655 56.3113 41.1071 56.395C41.9764 56.5625 42.6493 56.1997 42.9648 55.3976C42.9648 55.3836 42.9788 55.3697 42.9788 55.3557C42.9788 55.3348 42.9858 55.3139 42.9928 55.293C43.105 54.8117 43.0209 54.3094 42.7545 53.9119C42.5161 53.5561 42.1726 53.3259 41.7731 53.2701Z" fill="white"/>
<path id="Vector_48" d="M6.33015 43.707C5.93758 43.5885 5.51699 43.6443 5.15947 43.8605C4.76691 44.0977 4.47949 44.5022 4.36733 44.9835C4.36733 45.0114 4.35332 45.0323 4.35332 45.0603C4.26219 45.9322 4.70382 46.5599 5.55905 46.7901C5.99368 46.9017 6.44933 46.832 6.82086 46.5948C7.15734 46.3786 7.3957 46.0368 7.48683 45.6462C7.49384 45.6113 7.50085 45.5834 7.50786 45.5485C7.65507 44.6417 7.22744 43.9721 6.33716 43.707H6.33015Z" fill="white"/>
<path id="Vector_49" d="M26.4281 36.8713C23.3997 38.8732 19.3198 38.0501 17.315 35.0438C15.3031 32.0304 16.1303 27.9708 19.1586 25.9759C20.9742 24.7762 23.1614 24.5948 25.0681 25.2993C24.998 25.3342 24.9279 25.376 24.8648 25.4249C23.4067 26.3874 23.0071 28.3545 23.9745 29.7983C24.9489 31.2562 26.9188 31.6538 28.3769 30.6912C28.6993 30.4749 28.9657 30.2169 29.183 29.9239C29.7999 32.5048 28.7834 35.3158 26.4281 36.8713Z" fill="white"/>
</g>
<g id="Group_3">
<path id="Vector_50" d="M71.4257 45.1928C69.1474 43.9023 67.3388 42.1027 66.0139 39.7869C64.689 37.4781 64.0231 34.8763 64.0231 31.9816C64.0231 29.0869 64.689 26.4851 66.0139 24.1763C67.3388 21.8675 69.1404 20.0609 71.4257 18.7705C73.704 17.48 76.2276 16.8313 78.9966 16.8313C81.7656 16.8313 84.3242 17.48 86.6095 18.7705C88.8878 20.0609 90.6824 21.8535 92.0003 24.1554C93.3112 26.4502 93.9701 29.066 93.9701 31.9816C93.9701 34.8973 93.3112 37.513 92.0003 39.8079C90.6894 42.1027 88.8948 43.9023 86.6095 45.1928C84.3313 46.4832 81.7936 47.1319 78.9966 47.1319C76.1996 47.1319 73.711 46.4902 71.4257 45.1928ZM84.6187 42.319C86.2871 41.3564 87.598 39.9822 88.5513 38.1896C89.5047 36.4039 89.9814 34.3323 89.9814 31.9747C89.9814 29.617 89.5047 27.5175 88.5513 25.7388C87.598 23.967 86.2941 22.5999 84.6397 21.6303C82.9853 20.6677 81.1066 20.1864 78.9966 20.1864C76.8866 20.1864 75.0079 20.6677 73.3535 21.6303C71.6991 22.5929 70.3952 23.9601 69.4419 25.7388C68.4885 27.5105 68.0118 29.5891 68.0118 31.9747C68.0118 34.3602 68.4885 36.397 69.4419 38.1896C70.3952 39.9753 71.7061 41.3564 73.3745 42.319C75.0429 43.2816 76.9146 43.7628 78.9966 43.7628C81.0786 43.7628 82.9503 43.2816 84.6187 42.319Z" fill="white"/>
<path id="Vector_51" d="M116.984 32.8744C117.882 33.5859 118.597 34.4648 119.122 35.5111C119.648 36.5574 119.914 37.6804 119.914 38.8732C119.914 40.3798 119.529 41.733 118.758 42.9398C117.987 44.1465 116.872 45.0951 115.4 45.7926C113.935 46.4902 112.196 46.832 110.206 46.832H99.0875V17.1731H109.778C111.804 17.1731 113.528 17.5079 114.951 18.1706C116.374 18.8402 117.447 19.74 118.155 20.87C118.87 22.007 119.227 23.2834 119.227 24.6994C119.227 26.4572 118.751 27.915 117.797 29.059C116.844 30.2099 115.582 31.0399 114.012 31.5491C115.099 31.7165 116.087 32.163 116.984 32.8675V32.8744ZM102.978 29.9797H109.519C111.341 29.9797 112.75 29.5542 113.753 28.7032C114.748 27.8523 115.246 26.6734 115.246 25.1738C115.246 23.6741 114.748 22.4953 113.753 21.6443C112.757 20.7933 111.313 20.3678 109.434 20.3678H102.978V29.9867V29.9797ZM114.398 42.2771C115.477 41.3703 116.024 40.1078 116.024 38.4895C116.024 36.8713 115.456 35.546 114.313 34.5973C113.171 33.6487 111.65 33.1744 109.736 33.1744H102.978V43.6443H109.862C111.804 43.6443 113.311 43.1909 114.398 42.2841V42.2771Z" fill="white"/>
<path id="Vector_52" d="M130.17 46.0856C128.614 45.3881 127.394 44.4255 126.511 43.1909C125.628 41.9562 125.172 40.5333 125.144 38.915H129.294C129.434 40.3031 130.016 41.4749 131.025 42.4236C132.035 43.3722 133.514 43.8465 135.449 43.8465C137.384 43.8465 138.765 43.3862 139.83 42.4654C140.896 41.5447 141.435 40.3589 141.435 38.915C141.435 37.7781 141.12 36.8573 140.496 36.1528C139.865 35.4413 139.087 34.9042 138.148 34.5346C137.208 34.1649 135.939 33.7673 134.341 33.3418C132.371 32.8326 130.801 32.3234 129.616 31.8072C128.432 31.298 127.422 30.4959 126.581 29.4008C125.74 28.3126 125.319 26.8408 125.319 24.9994C125.319 23.3811 125.733 21.9512 126.56 20.7026C127.387 19.454 128.551 18.4915 130.044 17.8079C131.544 17.1243 133.255 16.7895 135.196 16.7895C137.986 16.7895 140.279 17.487 142.059 18.8751C143.84 20.2632 144.842 22.1116 145.074 24.4065H140.797C140.657 23.2695 140.054 22.272 139.003 21.4071C137.944 20.5422 136.549 20.1097 134.811 20.1097C133.184 20.1097 131.86 20.5282 130.836 21.3652C129.813 22.2023 129.294 23.3741 129.294 24.8738C129.294 25.955 129.602 26.8339 130.212 27.5105C130.822 28.194 131.579 28.7102 132.476 29.066C133.374 29.4217 134.636 29.8262 136.262 30.2796C138.232 30.8167 139.809 31.3538 141.008 31.877C142.206 32.4001 143.23 33.2093 144.085 34.3044C144.94 35.3995 145.368 36.8783 145.368 38.7476C145.368 40.1915 144.982 41.5586 144.211 42.8351C143.44 44.1116 142.298 45.1439 140.79 45.9391C139.276 46.7343 137.496 47.1319 135.449 47.1319C133.402 47.1319 131.719 46.7831 130.17 46.0926V46.0856Z" fill="white"/>
<path id="Vector_53" d="M155 20.3259V30.2378H165.859V33.4325H155V43.6443H167.141V46.8389H151.102V17.1382H167.141V20.3329H155V20.3259Z" fill="white"/>
<path id="Vector_54" d="M189.44 46.832L182.339 34.7089H177.635V46.832H173.745V17.1731H183.363C185.613 17.1731 187.52 17.5568 189.069 18.324C190.625 19.0913 191.782 20.1236 192.553 21.428C193.324 22.7324 193.71 24.2251 193.71 25.8992C193.71 27.9429 193.121 29.7425 191.936 31.305C190.751 32.8675 188.978 33.8998 186.615 34.409L194.102 46.832H189.44ZM177.635 31.598H183.363C185.473 31.598 187.057 31.0818 188.109 30.0425C189.16 29.0101 189.693 27.6221 189.693 25.8922C189.693 24.1623 189.174 22.7743 188.13 21.8047C187.085 20.8421 185.501 20.3608 183.363 20.3608H177.635V31.591V31.598Z" fill="white"/>
<path id="Vector_55" d="M225.073 17.1731L213.828 46.832H209.335L198.091 17.1731H202.241L211.606 42.7445L220.972 17.1731H225.08H225.073Z" fill="white"/>
<path id="Vector_56" d="M241.357 40.2334H228.36L225.963 46.832H221.855L232.629 17.3475H237.123L247.855 46.832H243.747L241.35 40.2334H241.357ZM240.242 37.0875L234.852 22.1116L229.461 37.0875H240.235H240.242Z" fill="white"/>
<path id="Vector_57" d="M265.304 17.1731V20.319H257.179V46.825H253.288V20.319H245.121V17.1731H265.304Z" fill="white"/>
<path id="Vector_58" d="M283.502 40.2334H270.505L268.108 46.832H264L274.774 17.3475H279.268L290 46.832H285.892L283.495 40.2334H283.502ZM282.387 37.0875L276.996 22.1116L271.606 37.0875H282.38H282.387Z" fill="white"/>
</g>
</g>
<defs>
<clipPath id="clip0_33_5448">
<rect width="290" height="62.2054" fill="white"/>
</clipPath>
</defs>
</svg>
