<svg width="200" height="75" viewBox="0 0 200 75" fill="none" xmlns="http://www.w3.org/2000/svg">
<g id="tele-dark" clip-path="url(#clip0_33_5444)">
<path id="Vector" d="M0 26.5897L28.6469 22.5905V33.0734L19.279 34.0432V74.995H9.3729V35.123L0.0049802 36.0978V26.5897H0ZM33.281 21.9456L62.3614 17.8414V28.3243L43.8349 30.5939V42.2615L59.6656 41.0718V51.1198L43.8349 52.0896V65.057L62.3614 64.6271V75H33.281V21.9506V21.9456ZM79.697 63.7572L101.019 63.3273V74.995H67.6334V17.0816L79.697 15.3519V63.7572ZM105.977 11.6777L144.535 6.16876V19.1362L119.869 21.9456V35.4529L140.977 33.8332V46.2607L119.869 47.4505V62.7924L144.535 61.9276V75H105.977V11.6827V11.6777ZM200 60.193V74.995H150.24V61.8126C160.042 52.5195 172.424 39.1222 176.949 33.8282C180.502 29.6141 182.116 26.0498 182.116 22.3755C182.116 18.2713 179.64 15.242 175.006 15.242C169.191 15.242 165.528 19.6711 165.528 27.1246C165.528 27.8794 165.528 28.7443 165.638 29.4991L150.774 30.7938C149.588 11.5627 160.142 0 178.02 0C190.512 0 199.128 7.77844 199.128 19.1262C199.128 31.4437 193.203 38.7922 179.525 53.2693L172.2 60.9428L199.985 60.188L200 60.193Z" fill="#1A1A1A"/>
</g>
<defs>
<clipPath id="clip0_33_5444">
<rect width="200" height="75" fill="white"/>
</clipPath>
</defs>
</svg>
