<svg width="314" height="114" viewBox="0 0 314 114" fill="none" xmlns="http://www.w3.org/2000/svg">
<g id="swooping-lines">
<path id="Vector" d="M0.850538 0.00770463C20.2756 5.05002 38.7649 13.3722 57.354 21.7392C88.7323 35.8628 120.399 50.1158 156.888 48.7062C195.599 47.2102 225.618 34.0722 254.845 21.2815C273.867 12.9564 292.556 4.7772 313.172 0L313.957 0.478776C293.543 5.20935 274.93 13.356 255.983 21.6478C226.564 34.5228 196.345 47.7477 157.04 49.2665C119.758 50.7068 87.8359 36.3388 56.2041 22.1012C37.6778 13.7623 19.2509 5.46828 6.10352e-05 0.471122L0.850538 0.00772164V0.00770463Z" fill="url(#paint0_linear_117_1398)"/>
<path id="Vector_2" d="M0.83015 4.90377C20.2633 9.58651 38.8975 17.3058 57.6174 25.0606C89.1866 38.1384 121.003 51.3182 156.889 49.9937C194.559 48.6031 224.697 36.5157 254.121 24.7148C273.447 16.9642 292.467 9.3362 313.194 4.89612L313.933 5.38602C293.405 9.78315 274.462 17.3809 255.212 25.1009C225.599 36.9778 195.267 49.1428 157.036 50.5543C120.398 51.9064 88.3281 38.6217 56.5084 25.4402C37.8546 17.7127 19.2858 10.0205 0.0203247 5.3783L0.83015 4.90377Z" fill="url(#paint1_linear_117_1398)"/>
<path id="Vector_3" d="M0.806666 9.81172C20.2487 14.1303 39.0194 21.2465 57.8626 28.3899C89.6092 40.4253 121.564 52.5395 156.895 51.2929C193.577 49.9982 223.81 38.9535 253.407 28.1404C273.029 20.9722 292.373 13.905 313.219 9.80505L313.91 10.3037C293.264 14.3644 273.995 21.404 254.451 28.5442C224.667 39.4254 194.244 50.5396 157.031 51.8528C120.998 53.1248 88.794 40.9161 56.8005 28.7871C38.0266 21.6699 19.3244 14.5799 0.0438232 10.297L0.806711 9.81172H0.806666Z" fill="url(#paint2_linear_117_1398)"/>
<path id="Vector_4" d="M0.780414 14.7193C20.2095 18.6733 39.0914 25.1763 58.0309 31.6995C89.9621 42.6969 122.064 53.7527 156.899 52.5806C192.639 51.3773 222.947 41.3676 252.699 31.5413C272.616 24.9633 292.286 18.4667 313.241 14.7126L313.887 15.2223C293.106 18.9453 273.518 25.4145 253.684 31.965C223.751 41.8507 193.26 51.9208 157.027 53.1404C121.541 54.3353 89.1955 43.1954 57.0217 32.1143C38.1553 25.6165 19.3472 19.1387 0.0702515 15.2157L0.780414 14.7193Z" fill="url(#paint3_linear_117_1398)"/>
<path id="Vector_5" d="M0.753891 19.6279C20.1811 23.2156 39.1555 29.1057 58.1761 35.0101C90.2745 44.974 122.509 54.98 156.903 53.8781C191.759 52.7612 222.116 43.7739 251.99 34.9285C272.194 28.9468 292.181 23.0293 313.268 19.6212L313.861 20.1398C292.951 23.5191 273.044 29.4135 252.917 35.372C222.868 44.2694 192.334 53.3097 157.025 54.4408C122.032 55.5619 89.5602 45.4821 57.2257 35.4448C38.2705 29.5606 19.3607 23.6907 0.0966797 20.1331L0.753846 19.6279L0.753891 19.6279Z" fill="url(#paint4_linear_117_1398)"/>
<path id="Vector_6" d="M0.727488 24.5242C20.1268 27.7412 39.1766 33.0158 58.2616 38.3004C90.5252 47.2339 122.894 56.1961 156.904 55.1657C190.932 54.1346 221.309 46.1581 251.284 38.288C271.777 32.9073 292.083 27.5755 313.298 24.5186L313.831 25.0459C292.774 28.0804 272.55 33.3903 252.141 38.7492C221.997 46.6637 191.448 54.6845 157.021 55.7283C122.459 56.7758 89.8643 47.7508 57.3756 38.7551C38.3577 33.4891 19.3752 28.2331 0.123047 25.0404L0.727488 24.5242Z" fill="url(#paint5_linear_117_1398)"/>
<path id="Vector_7" d="M0.698063 29.4329C20.039 32.2802 39.1207 36.9328 58.2282 41.5916C90.6722 49.5021 123.193 57.4313 156.908 56.464C190.154 55.5108 220.526 48.5363 250.564 41.6386C271.338 36.868 291.954 32.1336 313.326 29.4285L313.801 29.9625C292.597 32.6464 272.049 37.3651 251.344 42.1196C221.151 49.0529 190.625 56.0629 157.019 57.0267C122.807 58.0082 90.0715 50.0265 57.4131 42.0639C38.3739 37.4216 19.3601 32.7856 0.152588 29.958L0.698018 29.4329L0.698063 29.4329Z" fill="url(#paint6_linear_117_1398)"/>
<path id="Vector_8" d="M0.665867 34.3417C19.9474 36.8171 39.0333 40.8467 58.1357 44.8798C90.7575 51.767 123.432 58.6659 156.91 57.763C189.426 56.8871 219.751 50.9046 249.812 44.9741C270.882 40.8175 291.824 36.6861 313.356 34.3383L313.773 34.879C292.382 37.2116 271.508 41.3296 250.506 45.4727C220.303 51.4304 189.835 57.4413 157.016 58.3257C123.09 59.2406 90.2194 52.3007 57.4024 45.3719C38.3566 41.3508 19.3275 37.3332 0.184692 34.8756L0.665912 34.3417L0.665867 34.3417Z" fill="url(#paint7_linear_117_1398)"/>
<path id="Vector_9" d="M0.633297 39.2514C19.8076 41.3518 38.8461 44.7535 57.8946 48.1569C90.7163 54.0213 123.572 59.8919 156.914 59.0507C188.733 58.2485 218.969 53.251 249.002 48.287C270.381 44.7536 291.659 41.2368 313.388 39.248L313.741 39.7953C292.143 41.772 270.922 45.2795 249.601 48.8033C219.448 53.7867 189.091 58.8048 157.014 59.6134C123.284 60.4645 90.2526 54.5627 57.2553 48.6667C38.2543 45.2717 19.2631 41.8785 0.217102 39.7921L0.633297 39.2514Z" fill="url(#paint8_linear_117_1398)"/>
<path id="Vector_10" d="M0.601267 44.1611C19.5845 45.8872 38.493 48.6598 57.407 51.4332C90.4854 56.2833 123.583 61.1362 156.916 60.3496C188.047 59.6154 218.105 55.5938 248.015 51.5926C269.76 48.6839 291.429 45.7851 313.42 44.1578L313.709 44.7117C291.821 46.3312 270.206 49.2229 248.512 52.1248C218.508 56.1387 188.354 60.1725 157.01 60.9123C123.352 61.7067 90.1 56.8311 56.8673 51.9583C37.9996 49.1917 19.1367 46.4257 0.249329 44.7084L0.601267 44.1611Z" fill="url(#paint9_linear_117_1398)"/>
<path id="Vector_11" d="M0.566076 49.0597C19.2771 50.4085 37.9725 52.5558 56.6697 54.7023C90.0627 58.5369 123.466 62.3722 156.921 61.6373C187.307 60.9698 217.027 57.9197 246.647 54.8802C268.891 52.5976 291.08 50.3206 313.452 49.0575L313.675 49.6155C291.344 50.8769 269.219 53.1475 247.041 55.423C217.34 58.471 187.537 61.5289 157.004 62.2C123.291 62.9406 89.7582 59.0904 56.2354 55.2409C37.589 53.1 18.9447 50.9584 0.284363 49.6134L0.566031 49.0597L0.566076 49.0597Z" fill="url(#paint10_linear_117_1398)"/>
<path id="Vector_12" d="M0.531024 53.9702C18.7414 54.9446 36.9727 56.4611 55.205 57.9777C89.1263 60.7996 123.053 63.6215 156.925 62.9362C186.293 62.3417 215.335 60.2568 244.315 58.1761C267.35 56.5221 290.347 54.8709 313.488 53.9695L313.641 54.53C290.583 55.4279 267.608 57.0777 244.595 58.7296C215.57 60.8138 186.485 62.9022 157.001 63.4989C122.936 64.1885 88.906 61.3573 54.8822 58.5269C36.6985 57.0146 18.5157 55.5016 0.31958 54.5286L0.530978 53.9702L0.531024 53.9702Z" fill="url(#paint11_linear_117_1398)"/>
<path id="Vector_13" d="M0.492963 58.8827C17.7477 59.4801 34.9726 60.3701 52.1981 61.2609C87.139 63.0659 122.085 64.8723 156.929 64.2239C184.008 63.7193 210.99 62.6074 237.946 61.4969C263.131 60.4587 288.294 59.4219 313.522 58.8812L313.605 59.4439C288.42 59.9832 263.274 61.02 238.105 62.0568C211.137 63.168 184.139 64.2806 156.999 64.7865C122.018 65.4371 87.0056 63.6279 51.9986 61.8186C34.7678 60.9286 17.5373 60.0378 0.357849 59.4425L0.492963 58.8827Z" fill="url(#paint12_linear_117_1398)"/>
<path id="Vector_14" d="M0.454704 63.7946C14.3107 64.0135 28.1027 64.2984 41.8959 64.5833C80.2574 65.3763 118.631 66.1693 156.931 65.523C183.02 65.0822 209.123 64.7009 235.246 64.404C261.341 64.1078 287.442 63.8959 313.558 63.7946L313.571 64.3572C287.485 64.4586 261.39 64.6705 235.288 64.9667C209.213 65.2629 183.115 65.6442 156.995 66.085C118.614 66.7334 80.208 65.9397 41.8136 65.146C27.9826 64.8604 14.152 64.5748 0.395874 64.3572L0.454704 63.7946Z" fill="url(#paint13_linear_117_1398)"/>
<path id="Vector_15" d="M0.422241 68.6963C44.4445 68.5723 88.458 67.8813 132.558 67.189C140.68 67.0621 148.805 66.9338 156.935 66.8098C192.801 66.2627 228.71 67.0224 264.616 67.7828C280.963 68.1287 297.307 68.4745 313.59 68.6963L313.537 69.259C297.172 69.0358 280.853 68.6906 264.535 68.3448C228.657 67.5858 192.778 66.8268 156.993 67.3725C148.865 67.4965 140.739 67.6248 132.617 67.7516C88.5228 68.444 44.515 69.135 0.428301 69.259L0.422286 68.6963H0.422241Z" fill="url(#paint14_linear_117_1398)"/>
<path id="Vector_16" d="M0.384262 73.6095C24.3863 73.09 48.3617 72.032 72.3618 70.9732C100.459 69.7338 128.591 68.4922 156.937 68.1088C190.481 67.6552 224.002 69.3794 257.522 71.1036C276.213 72.0646 294.905 73.0262 313.626 73.6095L313.503 74.1721C294.8 73.5889 276.062 72.6251 257.324 71.6621C223.862 69.9407 190.4 68.22 156.989 68.6715C128.739 69.0542 100.617 70.2943 72.5319 71.5338C48.5235 72.5925 24.54 73.6506 0.466379 74.1722L0.384216 73.6095H0.384262Z" fill="url(#paint15_linear_117_1398)"/>
<path id="Vector_17" d="M0.345947 78.5235C22.5173 77.6306 44.5787 75.9638 66.6708 74.2942C96.5798 72.0342 126.548 69.77 156.94 69.4079C189.877 69.016 222.619 71.7026 255.352 74.3884C274.798 75.9843 294.244 77.5795 313.658 78.5249L313.469 79.0833C293.942 78.1323 274.489 76.5364 255.035 74.9397C222.383 72.261 189.724 69.5808 156.987 69.9705C126.713 70.3313 96.8092 72.5905 66.964 74.8462C44.8235 76.5193 22.7144 78.1897 0.50462 79.084L0.345992 78.5235L0.345947 78.5235Z" fill="url(#paint16_linear_117_1398)"/>
<path id="Vector_18" d="M0.310913 83.4388C21.7015 82.1745 42.9772 79.8884 64.293 77.5979C94.8663 74.3133 125.526 71.0187 156.946 70.6955C189.739 70.3582 222.078 74.0128 254.391 77.6638C274.146 79.8961 293.893 82.1284 313.694 83.4388L313.435 83.9951C293.552 82.6784 273.762 80.4418 253.961 78.2046C221.76 74.5656 189.528 70.9237 156.982 71.2582C125.772 71.5792 95.1949 74.8646 64.704 78.1408C43.3614 80.434 22.0593 82.723 0.539675 83.9951L0.310913 83.4388Z" fill="url(#paint17_linear_117_1398)"/>
<path id="Vector_19" d="M0.27568 88.3541C21.2448 86.7199 42.0321 83.8194 62.8712 80.911C93.7735 76.598 124.791 72.2695 156.948 71.9945C189.852 71.7132 221.942 76.3365 253.976 80.9521C273.876 83.8194 293.756 86.6831 313.725 88.3555L313.403 88.9048C293.296 87.221 273.379 84.3516 253.443 81.4794C221.541 76.8829 189.581 72.278 156.978 72.5572C125.094 72.8294 94.1859 77.143 63.3931 81.4404C42.5173 84.3537 21.6934 87.26 0.574848 88.9062L0.275635 88.3541L0.27568 88.3541Z" fill="url(#paint18_linear_117_1398)"/>
<path id="Vector_20" d="M0.240463 93.2595C20.9675 91.2582 41.4098 87.7425 61.9171 84.2155C92.9669 78.8749 124.168 73.5089 156.952 73.2821C190.127 73.0518 222.04 78.6531 253.859 84.2381C273.778 87.7347 293.661 91.2249 313.758 93.2595L313.369 93.8045C293.168 91.7585 273.213 88.2563 253.224 84.7477C221.564 79.191 189.809 73.6173 156.974 73.8448C124.508 74.0695 93.4484 79.4114 62.5388 84.7271C41.9742 88.2641 21.4748 91.7897 0.609901 93.8044L0.240463 93.2595Z" fill="url(#paint19_linear_117_1398)"/>
<path id="Vector_21" d="M0.205429 98.1755C20.7339 95.8072 40.8751 91.6827 61.0962 87.5427C92.223 81.1696 123.538 74.7576 156.955 74.5804C190.532 74.4026 222.295 80.9882 253.92 87.5455C273.81 91.67 293.648 95.7831 313.79 98.1755L313.337 98.7141C293.06 96.3054 273.157 92.1788 253.198 88.0402C221.743 81.5183 190.152 74.9674 156.972 75.1431C123.93 75.3189 92.777 81.6969 61.8116 88.0373C41.5221 92.1915 21.3118 96.3295 0.645137 98.7141L0.205429 98.1755Z" fill="url(#paint20_linear_117_1398)"/>
<path id="Vector_22" d="M0.176025 103.092C20.5507 100.362 40.4386 95.6284 60.4195 90.8726C91.5538 83.462 122.918 75.9976 156.957 75.8793C191.056 75.7616 222.698 83.3408 254.148 90.8747C273.944 95.6171 293.667 100.342 313.82 103.093L313.309 103.623C293.012 100.851 273.215 96.1096 253.343 91.3495C222.08 83.8603 190.627 76.3258 156.969 76.442C123.36 76.5589 92.1744 83.9808 61.2172 91.3488C41.1623 96.1224 21.2017 100.873 0.674564 103.624L0.176025 103.092Z" fill="url(#paint21_linear_117_1398)"/>
<path id="Vector_23" d="M0.143616 108.01C20.3872 104.916 40.0227 99.5794 59.7679 94.2127C90.8731 85.759 122.252 77.2309 156.961 77.1671C191.665 77.1033 223.173 85.6888 254.43 94.2063C274.118 99.5702 293.705 104.907 313.848 108.011L313.279 108.531C292.961 105.402 273.305 100.046 253.55 94.6627C222.489 86.1983 191.177 77.6667 156.967 77.7298C122.739 77.7928 91.5549 86.2678 60.642 94.6698C40.8178 100.057 21.1037 105.415 0.707179 108.533L0.143661 108.01H0.143616Z" fill="url(#paint22_linear_117_1398)"/>
<path id="Vector_24" d="M0.114441 112.916C20.2297 109.464 39.6259 103.529 59.1477 97.5567C90.194 88.0585 121.559 78.4624 156.963 78.4546C192.351 78.4468 223.731 88.0457 254.796 97.5489C274.332 103.525 293.746 109.463 313.874 112.916L313.253 113.429C292.949 109.945 273.462 103.984 253.852 97.9855C222.99 88.5453 191.817 79.0095 156.963 79.0173C122.093 79.0244 90.9341 88.5574 60.0922 97.9933C40.4968 103.989 21.0278 109.945 0.736201 113.429L0.114441 112.916Z" fill="url(#paint23_linear_117_1398)"/>
</g>
<defs>
<linearGradient id="paint0_linear_117_1398" x1="6.10352e-05" y1="24.6469" x2="313.957" y2="24.6469" gradientUnits="userSpaceOnUse">
<stop stop-color="#307BDC" stop-opacity="0.25"/>
<stop offset="0.480769" stop-color="#2058A0"/>
</linearGradient>
<linearGradient id="paint1_linear_117_1398" x1="0.0203247" y1="27.7391" x2="313.933" y2="27.7391" gradientUnits="userSpaceOnUse">
<stop stop-color="#307BDC" stop-opacity="0.25"/>
<stop offset="0.480769" stop-color="#2058A0"/>
</linearGradient>
<linearGradient id="paint2_linear_117_1398" x1="0.0438232" y1="30.8436" x2="313.91" y2="30.8436" gradientUnits="userSpaceOnUse">
<stop stop-color="#307BDC" stop-opacity="0.25"/>
<stop offset="0.480769" stop-color="#2058A0"/>
</linearGradient>
<linearGradient id="paint3_linear_117_1398" x1="0.0702515" y1="33.9423" x2="313.887" y2="33.9423" gradientUnits="userSpaceOnUse">
<stop stop-color="#307BDC" stop-opacity="0.25"/>
<stop offset="0.480769" stop-color="#2058A0"/>
</linearGradient>
<linearGradient id="paint4_linear_117_1398" x1="0.0966797" y1="37.0481" x2="313.861" y2="37.0481" gradientUnits="userSpaceOnUse">
<stop stop-color="#307BDC" stop-opacity="0.25"/>
<stop offset="0.480769" stop-color="#2058A0"/>
</linearGradient>
<linearGradient id="paint5_linear_117_1398" x1="0.123047" y1="40.142" x2="313.831" y2="40.142" gradientUnits="userSpaceOnUse">
<stop stop-color="#307BDC" stop-opacity="0.25"/>
<stop offset="0.480769" stop-color="#2058A0"/>
</linearGradient>
<linearGradient id="paint6_linear_117_1398" x1="0.152588" y1="43.2482" x2="313.801" y2="43.2482" gradientUnits="userSpaceOnUse">
<stop stop-color="#307BDC" stop-opacity="0.25"/>
<stop offset="0.480769" stop-color="#2058A0"/>
</linearGradient>
<linearGradient id="paint7_linear_117_1398" x1="0.184692" y1="46.355" x2="313.773" y2="46.355" gradientUnits="userSpaceOnUse">
<stop stop-color="#307BDC" stop-opacity="0.25"/>
<stop offset="0.480769" stop-color="#2058A0"/>
</linearGradient>
<linearGradient id="paint8_linear_117_1398" x1="0.217102" y1="49.4568" x2="313.741" y2="49.4568" gradientUnits="userSpaceOnUse">
<stop stop-color="#307BDC" stop-opacity="0.25"/>
<stop offset="0.480769" stop-color="#2058A0"/>
</linearGradient>
<linearGradient id="paint9_linear_117_1398" x1="0.249329" y1="52.5654" x2="313.709" y2="52.5654" gradientUnits="userSpaceOnUse">
<stop stop-color="#307BDC" stop-opacity="0.25"/>
<stop offset="0.480769" stop-color="#2058A0"/>
</linearGradient>
<linearGradient id="paint10_linear_117_1398" x1="0.284363" y1="55.6651" x2="313.675" y2="55.6651" gradientUnits="userSpaceOnUse">
<stop stop-color="#307BDC" stop-opacity="0.25"/>
<stop offset="0.480769" stop-color="#2058A0"/>
</linearGradient>
<linearGradient id="paint11_linear_117_1398" x1="0.31958" y1="58.7795" x2="313.641" y2="58.7795" gradientUnits="userSpaceOnUse">
<stop stop-color="#307BDC" stop-opacity="0.25"/>
<stop offset="0.480769" stop-color="#2058A0"/>
</linearGradient>
<linearGradient id="paint12_linear_117_1398" x1="0.357849" y1="61.8971" x2="313.605" y2="61.8971" gradientUnits="userSpaceOnUse">
<stop stop-color="#307BDC" stop-opacity="0.25"/>
<stop offset="0.480769" stop-color="#2058A0"/>
</linearGradient>
<linearGradient id="paint13_linear_117_1398" x1="0.395874" y1="65.0572" x2="313.571" y2="65.0572" gradientUnits="userSpaceOnUse">
<stop stop-color="#307BDC" stop-opacity="0.25"/>
<stop offset="0.480769" stop-color="#2058A0"/>
</linearGradient>
<linearGradient id="paint14_linear_117_1398" x1="0.422241" y1="67.9394" x2="313.59" y2="67.9394" gradientUnits="userSpaceOnUse">
<stop stop-color="#307BDC" stop-opacity="0.25"/>
<stop offset="0.480769" stop-color="#2058A0"/>
</linearGradient>
<linearGradient id="paint15_linear_117_1398" x1="0.384216" y1="71.0992" x2="313.626" y2="71.0992" gradientUnits="userSpaceOnUse">
<stop stop-color="#307BDC" stop-opacity="0.25"/>
<stop offset="0.480769" stop-color="#2058A0"/>
</linearGradient>
<linearGradient id="paint16_linear_117_1398" x1="0.345947" y1="74.2197" x2="313.658" y2="74.2197" gradientUnits="userSpaceOnUse">
<stop stop-color="#307BDC" stop-opacity="0.25"/>
<stop offset="0.480769" stop-color="#2058A0"/>
</linearGradient>
<linearGradient id="paint17_linear_117_1398" x1="0.310913" y1="77.3246" x2="313.694" y2="77.3246" gradientUnits="userSpaceOnUse">
<stop stop-color="#307BDC" stop-opacity="0.25"/>
<stop offset="0.480769" stop-color="#2058A0"/>
</linearGradient>
<linearGradient id="paint18_linear_117_1398" x1="0.275635" y1="80.4318" x2="313.725" y2="80.4318" gradientUnits="userSpaceOnUse">
<stop stop-color="#307BDC" stop-opacity="0.25"/>
<stop offset="0.480769" stop-color="#2058A0"/>
</linearGradient>
<linearGradient id="paint19_linear_117_1398" x1="0.240417" y1="83.5247" x2="313.758" y2="83.5247" gradientUnits="userSpaceOnUse">
<stop stop-color="#307BDC" stop-opacity="0.25"/>
<stop offset="0.480769" stop-color="#2058A0"/>
</linearGradient>
<linearGradient id="paint20_linear_117_1398" x1="0.205383" y1="86.6277" x2="313.79" y2="86.6277" gradientUnits="userSpaceOnUse">
<stop stop-color="#307BDC" stop-opacity="0.25"/>
<stop offset="0.480769" stop-color="#2058A0"/>
</linearGradient>
<linearGradient id="paint21_linear_117_1398" x1="0.176025" y1="89.7303" x2="313.82" y2="89.7303" gradientUnits="userSpaceOnUse">
<stop stop-color="#307BDC" stop-opacity="0.25"/>
<stop offset="0.480769" stop-color="#2058A0"/>
</linearGradient>
<linearGradient id="paint22_linear_117_1398" x1="0.143616" y1="92.8266" x2="313.848" y2="92.8266" gradientUnits="userSpaceOnUse">
<stop stop-color="#307BDC" stop-opacity="0.25"/>
<stop offset="0.480769" stop-color="#2058A0"/>
</linearGradient>
<linearGradient id="paint23_linear_117_1398" x1="0.114441" y1="95.9159" x2="313.874" y2="95.9159" gradientUnits="userSpaceOnUse">
<stop stop-color="#307BDC" stop-opacity="0.25"/>
<stop offset="0.480769" stop-color="#2058A0"/>
</linearGradient>
</defs>
</svg>
