<svg width="512" height="512" viewBox="0 0 512 512" fill="none" xmlns="http://www.w3.org/2000/svg">
<path d="M281.424 477.736C276.678 476.647 271.877 479.642 270.786 484.379C269.695 489.116 272.695 493.907 277.442 494.996C282.188 496.085 286.989 493.09 288.08 488.353C289.171 483.616 286.17 478.825 281.424 477.736Z" fill="#113768"/>
<path d="M320.487 464.941C313.995 463.471 307.502 467.5 306.029 473.98C304.556 480.459 308.594 486.939 315.14 488.409C321.632 489.879 328.125 485.85 329.598 479.316C331.071 472.782 327.033 466.357 320.541 464.887L320.487 464.941Z" fill="#113768"/>
<path d="M355.784 448.605C349.292 447.135 342.8 451.164 341.327 457.698C339.854 464.177 343.891 470.657 350.383 472.127C356.875 473.597 363.367 469.568 364.84 463.089C366.313 456.609 362.276 450.13 355.73 448.659L355.784 448.605Z" fill="#113768"/>
<path d="M83.9335 293.48C85.0246 288.743 82.024 283.952 77.2777 282.863C72.5314 281.774 67.7304 284.769 66.6393 289.506C65.5482 294.243 68.5487 299.034 73.2951 300.123C78.0414 301.212 82.8424 298.217 83.9335 293.48Z" fill="#113768"/>
<path d="M72.8582 103.67C78.9685 105.085 85.0787 101.219 86.4971 95.121C87.9156 89.0227 84.0421 82.9244 77.9319 81.5087C71.8216 80.093 65.7114 83.959 64.293 90.0573C62.8745 96.1556 66.748 102.254 72.8582 103.67Z" fill="#113768"/>
<path d="M102.427 81.0194C108.974 82.544 115.575 78.4059 117.048 71.872C118.521 65.338 114.43 58.7497 107.883 57.2796C101.336 55.8095 94.735 59.8931 93.262 66.427C91.7345 72.9609 95.8806 79.5493 102.427 81.0194Z" fill="#113768"/>
<path d="M90.3707 317.383C83.9331 315.913 77.4411 319.942 75.9681 326.422C74.4951 332.847 78.5321 339.326 85.0242 340.796C91.4618 342.267 97.954 338.237 99.427 331.758C100.9 325.333 96.8628 318.853 90.3707 317.383Z" fill="#113768"/>
<path d="M347.436 128.662C348.527 123.925 345.527 119.133 340.781 118.044C336.034 116.955 331.233 119.95 330.142 124.687C329.051 129.424 332.052 134.215 336.798 135.304C341.544 136.393 346.345 133.399 347.436 128.662Z" fill="#113768"/>
<path d="M368.714 144.67C362.549 143.254 356.384 147.12 354.966 153.273C353.547 159.426 357.421 165.578 363.586 166.994C369.75 168.41 375.915 164.544 377.333 158.391C378.752 152.238 374.878 146.086 368.714 144.67Z" fill="#113768"/>
<path d="M330.961 380.707C325.723 379.401 320.322 380.217 315.685 382.994C311.102 385.771 307.883 390.127 306.683 395.245C305.483 400.363 306.356 405.645 309.193 410.164C312.084 414.793 316.612 417.951 321.904 419.094C332.488 421.381 342.745 414.901 345.309 404.175C347.709 393.612 341.435 383.321 331.015 380.653L330.961 380.707Z" fill="#113768"/>
<path d="M404.283 115.268C404.283 115.268 404.283 115.431 404.229 115.54C403.029 120.713 403.847 125.885 406.52 130.296C409.303 134.815 413.776 138.027 419.068 139.225C423.814 140.314 428.452 139.715 432.38 137.755C429.106 140.26 426.597 143.908 425.451 148.318C424.033 153.546 424.742 158.99 427.524 163.619C430.197 168.138 434.507 171.296 439.69 172.548C444.818 173.801 450.328 172.875 454.911 170.098C459.439 167.267 462.603 162.965 463.804 157.738C466.095 147.393 459.548 136.884 449.128 134.379C444.273 133.181 439.526 133.78 435.489 135.795C438.872 133.181 441.381 129.424 442.527 124.851V124.524C443.782 119.351 442.909 114.07 440.181 109.605C437.399 105.086 433.034 101.982 427.906 100.784C417.486 98.3884 406.902 104.922 404.283 115.268Z" fill="#113768"/>
<path d="M361.621 355.715C351.037 353.211 340.726 359.527 338.108 370.09V370.417C335.653 380.871 341.818 391.107 352.129 393.775C357.257 395.082 362.821 394.211 367.404 391.434C371.987 388.657 375.097 384.301 376.297 379.129C378.588 368.892 371.823 358.166 361.567 355.715H361.621Z" fill="#113768"/>
<path d="M378.261 86.1373C377.06 91.4189 377.824 96.646 380.443 100.947C383.116 105.303 387.426 108.407 392.554 109.605C403.247 112.164 413.613 105.902 416.177 95.3392V95.0671C418.577 84.7217 412.14 74.2129 401.829 71.6538C396.809 70.4014 391.627 71.2182 387.153 73.8862C382.625 76.6087 379.461 80.9646 378.261 86.0828V86.1373Z" fill="#113768"/>
<path d="M308.811 421C309.956 415.827 309.029 410.545 306.192 406.135C303.409 401.779 299.045 398.785 294.026 397.696C283.715 395.518 272.967 402.269 270.622 412.615C268.33 423.069 275.041 433.469 285.624 435.81C296.372 438.206 306.356 431.89 308.811 421.163V421.054V421Z" fill="#113768"/>
<path d="M449.129 173.147C444.764 175.87 441.709 180.225 440.509 185.344C438.054 196.179 444.328 206.143 455.075 208.648C465.604 211.044 476.134 204.564 478.534 194.11C479.68 189.101 478.807 183.928 476.025 179.518C473.242 175.053 468.878 171.949 463.859 170.806C458.73 169.608 453.493 170.479 449.129 173.256V173.147Z" fill="#113768"/>
<path d="M347.601 62.1253C346.455 67.1891 347.328 72.3619 350.11 76.6634C352.947 81.0193 357.366 84.0139 362.658 85.1029C372.915 87.172 382.462 80.9104 384.862 70.5651V70.2382C387.154 59.8929 380.716 50.0376 370.351 47.8052C360.149 45.5727 349.947 51.9978 347.655 62.1798L347.601 62.1253Z" fill="#113768"/>
<path d="M449.51 223.567V223.839C447.11 233.912 453.438 244.149 463.477 246.599C468.441 247.797 473.569 247.034 477.934 244.366C482.298 241.698 485.353 237.506 486.554 232.551V232.333C487.754 227.378 486.936 222.315 484.371 218.067C481.753 213.82 477.552 210.771 472.533 209.573C461.949 207.069 452.075 213.058 449.51 223.512V223.567Z" fill="#113768"/>
<path d="M376.734 361.378C381.698 362.576 386.827 361.759 391.191 359.091C395.555 356.423 398.61 352.23 399.756 347.33V347.167C400.902 342.375 400.029 337.311 397.356 333.064C394.628 328.654 390.318 325.659 385.354 324.516C375.315 322.283 365.495 328.327 362.931 338.291C361.676 343.41 362.44 348.473 365.004 352.829C367.623 357.131 371.769 360.18 376.734 361.378Z" fill="#113768"/>
<path d="M254.42 406.082C244.982 404.176 234.125 410.601 232.107 419.313V419.422C229.597 430.149 235.871 440.494 246.291 442.944C251.31 444.142 256.439 443.325 260.694 440.657C264.895 437.989 267.841 433.797 269.041 428.733C270.132 423.724 269.204 418.605 266.422 414.304C263.64 410.002 259.385 407.117 254.42 406.136V406.082Z" fill="#113768"/>
<path d="M327.087 65.4465C331.997 66.6988 336.962 65.9909 341.162 63.4863C345.363 60.9816 348.364 56.8979 349.564 52.0519V51.7252C350.764 46.9337 350 42.0332 347.491 37.9495C344.981 33.8114 340.89 30.8713 336.034 29.7278C325.996 27.3321 316.176 32.777 313.721 42.1422C312.466 47.3149 313.175 52.4876 315.739 56.8979C318.304 61.1994 322.286 64.2486 327.087 65.4465Z" fill="#113768"/>
<path d="M474.497 249.594C469.532 248.342 464.459 249.104 460.203 251.718C456.057 254.277 453.111 258.361 452.02 263.261C449.783 273.116 455.675 282.754 465.441 285.204C470.296 286.456 475.315 285.694 479.57 283.135C483.826 280.521 486.772 276.438 487.917 271.483C490.154 261.628 484.262 252.044 474.497 249.594Z" fill="#113768"/>
<path d="M214.867 405.156C210.175 404.067 205.101 404.938 200.901 407.551C196.754 410.165 193.918 414.085 192.826 418.659C190.699 428.242 197.082 438.479 206.575 440.602C215.576 442.617 225.56 436.355 227.96 427.153L228.069 426.663C229.16 421.926 228.397 417.08 225.942 413.051C223.487 408.967 219.559 406.136 214.867 405.047V405.156Z" fill="#113768"/>
<path d="M414.377 310.957L414.54 310.358C415.631 305.73 414.758 300.884 412.194 296.801C409.63 292.662 405.593 289.831 400.901 288.851C391.463 286.836 381.97 292.771 379.625 302.137C378.588 306.874 379.406 311.883 381.916 315.858C384.48 319.996 388.626 322.936 393.263 323.916C402.538 325.877 411.922 320.105 414.377 310.957Z" fill="#113768"/>
<path d="M291.135 52.4872C295.118 53.4673 299.646 52.705 303.574 50.3093C307.611 47.859 310.502 44.0475 311.484 39.8549C313.83 29.5096 308.538 20.2533 298.882 17.8031C294.19 16.6052 288.953 17.4763 284.643 20.1443C280.824 22.4857 278.096 26.1881 277.114 30.2718C274.987 40.236 281.151 49.9824 291.19 52.5415L291.135 52.4872Z" fill="#113768"/>
<path d="M469.751 289.45C465.168 288.253 460.367 288.961 456.221 291.411C452.129 293.807 449.238 297.618 448.092 302.137C446.946 306.602 447.765 311.393 450.22 315.423C452.729 319.561 456.712 322.501 461.24 323.59C470.46 325.768 479.734 320.323 482.244 311.121C482.298 310.849 482.407 310.577 482.462 310.359C483.444 306.003 482.789 301.484 480.607 297.672C478.261 293.643 474.442 290.703 469.805 289.505L469.751 289.45Z" fill="#113768"/>
<path d="M241.489 37.2418C243.89 41.1077 247.763 43.8847 252.019 44.8104C256.274 45.736 260.911 44.8648 264.621 42.4146C268.222 40.0188 270.84 36.3163 271.768 32.2326L271.877 31.6881C273.568 22.8673 267.785 14.2099 259.056 12.3587C250.273 10.5074 241.38 16.0068 239.253 24.6097C238.271 28.9112 239.089 33.5394 241.38 37.2964L241.489 37.2418Z" fill="#113768"/>
<path d="M458.73 328.218C450.164 325.714 440.945 330.669 438.217 339.217C435.598 347.602 440.508 357.076 448.964 359.853C457.311 362.63 466.858 357.839 469.75 349.345C469.914 348.8 470.077 348.31 470.186 347.765C471.059 344.008 470.514 339.979 468.713 336.495C466.64 332.465 462.985 329.471 458.675 328.218H458.73Z" fill="#113768"/>
<path d="M407.284 250.901C403.138 249.975 398.773 250.737 395.009 253.079C391.299 255.42 388.68 259.122 387.698 263.369C385.789 272.081 391.463 281.065 400.082 283.026C408.811 284.986 417.54 279.377 419.613 270.502C421.632 261.681 416.067 252.861 407.284 250.901Z" fill="#113768"/>
<path d="M176.023 395.791C167.458 393.831 159.002 398.895 156.71 407.334C155.565 411.69 156.219 416.427 158.62 420.348C160.857 424.05 164.294 426.555 168.331 427.426C177.332 429.386 186.061 424.159 188.189 415.502V415.229C189.226 411.091 188.462 406.844 186.225 403.142C183.879 399.385 180.278 396.771 176.023 395.791Z" fill="#113768"/>
<path d="M212.903 43.7217C221.086 45.5185 228.888 40.7815 231.015 32.6685L231.125 32.1785C231.997 28.2582 231.397 24.2289 229.379 20.7986C227.306 17.2594 223.978 14.8092 219.995 13.7746C216.067 12.7945 211.921 13.448 208.32 15.5716C204.774 17.7495 202.155 21.2342 201.173 25.3178C200.301 29.2382 200.955 33.2675 203.137 36.7522C205.374 40.2914 208.866 42.7417 212.903 43.6674V43.7217Z" fill="#113768"/>
<path d="M440.509 364.645C436.363 363.611 432.216 364.21 428.725 366.279C425.288 368.348 422.833 371.724 421.905 375.753C421.905 375.753 421.905 375.753 421.905 375.807C420.978 379.782 421.687 383.975 423.869 387.405C426.052 390.944 429.434 393.34 433.417 394.266C441.273 396.062 449.401 391.162 451.638 383.376C451.693 383.158 451.747 382.886 451.802 382.613C452.62 378.965 452.075 375.099 450.165 371.832C448.092 368.184 444.655 365.625 440.563 364.591L440.509 364.645Z" fill="#113768"/>
<path d="M313.176 314.878C306.465 313.354 299.701 317.546 298.173 324.244C296.645 330.941 300.846 337.693 307.557 339.217C314.267 340.742 321.032 336.549 322.559 329.852C324.087 323.155 319.886 316.403 313.176 314.878Z" fill="#113768"/>
<path d="M161.62 203.966C168.331 205.49 175.096 201.298 176.623 194.6C178.151 187.903 173.95 181.151 167.239 179.627C160.529 178.102 153.764 182.295 152.237 188.992C150.709 195.689 154.91 202.441 161.62 203.966Z" fill="#113768"/>
<path d="M327.961 302.518C332.708 303.607 337.508 300.612 338.599 295.875C339.691 291.138 336.69 286.346 331.944 285.257C327.197 284.168 322.397 287.163 321.305 291.9C320.214 296.637 323.215 301.429 327.961 302.518Z" fill="#113768"/>
<path d="M183.279 171.024C182.188 175.761 185.188 180.552 189.935 181.641C194.681 182.73 199.482 179.736 200.573 174.999C201.664 170.262 198.664 165.47 193.917 164.381C189.171 163.292 184.37 166.287 183.279 171.024Z" fill="#113768"/>
<path d="M221.741 358.057C221.85 357.675 221.959 357.349 222.014 356.968C224.414 346.568 218.631 336.604 208.593 333.772C203.792 332.411 198.609 333.064 194.081 335.678C191.681 337.039 189.553 338.945 187.917 341.123C188.571 339.816 189.062 338.455 189.444 336.985V336.767C190.699 331.594 189.771 326.258 186.989 321.793C184.152 317.274 179.733 314.17 174.496 312.973C169.422 311.829 164.349 312.809 160.148 315.314C163.148 312.755 165.331 309.324 166.258 305.295C168.604 295.059 162.221 284.768 152.073 282.263C141.872 279.759 131.397 285.966 128.778 296.039C127.469 300.885 128.287 306.221 131.015 310.74C133.743 315.259 138.271 318.526 143.29 319.67C148.146 320.759 153.11 319.779 157.256 317.383C154.256 319.997 151.964 323.481 150.928 327.565C149.619 332.574 150.437 337.91 153.328 342.539C156.165 347.112 160.693 350.325 165.985 351.468C173.841 353.211 181.534 350.161 186.007 344.226C185.462 345.37 185.025 346.513 184.698 347.711C183.388 352.557 184.152 357.839 186.825 362.358C189.389 366.768 193.59 369.981 198.337 371.179C209.139 373.956 218.795 368.511 221.796 358.002L221.741 358.057Z" fill="#113768"/>
<path d="M250.219 374.064C254.474 371.56 257.529 367.531 258.675 363.011V362.685C259.766 358.329 258.947 353.592 256.547 349.617C254.092 345.588 250.164 342.647 245.799 341.558C241.053 340.415 236.307 341.123 232.433 343.518C228.56 345.914 225.832 349.889 224.632 354.626C224.632 354.626 224.632 354.735 224.632 354.789C222.45 364.372 227.96 373.738 237.234 376.134C241.435 377.223 246.181 376.46 250.219 374.064Z" fill="#113768"/>
<path d="M134.506 280.14C139.198 281.229 143.944 280.521 147.927 278.016C151.855 275.566 154.583 271.7 155.619 267.126V267.017C157.638 257.924 151.964 248.559 143.017 246.163C138.543 244.966 133.852 245.673 129.705 248.069C125.559 250.465 122.559 254.44 121.413 258.905C120.322 263.369 120.977 268.106 123.377 272.081C125.832 276.165 129.815 279.051 134.452 280.14H134.506Z" fill="#113768"/>
<path d="M159.275 228.251C160.093 224.657 159.439 220.737 157.475 217.415C155.401 213.931 152.019 211.426 148.2 210.446C140.562 208.595 132.543 213.168 130.306 220.628C129.16 224.385 129.651 228.414 131.615 231.899C133.579 235.438 136.907 238.052 140.726 239.086C144.654 240.175 148.746 239.631 152.237 237.616C155.674 235.656 158.129 232.444 159.111 228.632L159.22 228.196L159.275 228.251Z" fill="#113768"/>
<path d="M275.642 364.263C279.407 365.244 283.389 364.699 286.826 362.63C290.318 360.561 292.827 357.076 293.755 353.101C295.555 345.261 290.863 337.583 283.117 335.623C279.243 334.643 275.042 335.297 271.605 337.366C268.223 339.435 265.877 342.702 265.004 346.513C263.313 354.082 268.223 362.194 275.697 364.155L275.642 364.263Z" fill="#113768"/>
<path d="M386.444 223.947V224.165C384.752 231.951 389.663 239.738 397.409 241.48C405.047 243.222 413.121 238.322 414.976 230.699V230.481C415.904 226.724 415.195 222.804 413.121 219.482C410.939 216.052 407.557 213.711 403.52 212.894C395.718 211.315 388.244 216.161 386.444 223.947Z" fill="#113768"/>
<path d="M142.089 377.659C138.434 376.515 134.506 376.897 131.014 378.693C127.523 380.49 124.959 383.539 123.813 387.187C122.667 390.89 123.049 394.81 124.85 398.186C126.65 401.616 129.76 404.175 133.469 405.264C141.271 407.606 149.236 403.468 151.691 395.79C151.8 395.409 151.909 395.028 152.018 394.647C153.71 387.351 149.345 379.837 142.144 377.55L142.089 377.659Z" fill="#113768"/>
<path d="M174.059 49.3844C181.751 51.2357 189.226 46.7708 191.135 39.2024V38.9301C192.881 31.525 188.244 24.011 180.879 22.1598C177.223 21.2341 173.459 21.7787 170.295 23.7388C167.076 25.699 164.785 28.8026 163.912 32.4507C162.984 36.1533 163.53 39.9647 165.494 43.1227C167.403 46.2808 170.459 48.5132 174.114 49.3844H174.059Z" fill="#113768"/>
<path d="M416.886 397.587C413.23 396.716 409.466 397.369 406.247 399.384C403.083 401.398 400.846 404.447 400.028 408.095V408.204C398.446 415.446 402.81 422.688 410.066 424.648C413.776 425.628 417.595 425.138 420.868 423.232C424.087 421.327 426.378 418.277 427.306 414.629V414.357C428.179 410.763 427.578 407.061 425.669 403.957C423.705 400.745 420.65 398.512 416.94 397.641L416.886 397.587Z" fill="#113768"/>
<path d="M391.135 177.013C387.917 176.251 384.589 176.795 381.697 178.592C378.86 180.335 376.842 183.22 375.969 186.651C375.205 190.081 375.86 193.511 377.769 196.342C379.624 199.119 382.516 200.971 385.898 201.515C392.936 202.713 398.228 199.446 400.355 192.531C400.41 192.259 400.519 191.987 400.573 191.714C401.228 188.829 400.737 185.779 399.21 183.111C397.464 180.062 394.518 177.83 391.19 177.013H391.135Z" fill="#113768"/>
<path d="M137.834 61.4721C144.763 62.7788 150.164 59.6208 152.564 52.8147C152.728 52.4335 152.837 52.0524 152.891 51.6168C153.492 48.9487 153.11 46.1174 151.691 43.5039C149.945 40.2369 146.999 37.8955 143.617 36.9699C140.344 36.0987 136.961 36.5888 134.07 38.3311C131.124 40.0735 129.051 42.9048 128.232 46.2807C128.232 46.2807 128.232 46.2807 128.232 46.3352C127.469 49.711 128.069 53.2503 129.869 56.0816C131.669 58.913 134.561 60.8187 137.889 61.4721H137.834Z" fill="#113768"/>
<path d="M387.971 426.336C380.77 425.247 375.478 428.514 373.35 435.265C372.368 438.423 372.805 442.017 374.55 444.957C376.351 447.952 379.351 450.075 382.788 450.729C389.553 452.036 394.791 449.204 397.246 442.943C397.246 442.834 397.355 442.725 397.355 442.616C397.355 442.453 397.409 442.289 397.464 442.126C398.337 438.369 397.682 434.449 395.609 431.345C393.754 428.568 391.081 426.771 387.971 426.336Z" fill="#113768"/>
<path d="M112.138 351.686C109.083 350.76 105.81 351.196 103.027 352.884C99.9723 354.735 97.7355 357.893 96.8626 361.65C96.8626 361.868 96.7536 362.031 96.7536 362.249C96.0443 369.055 99.4813 373.956 106.137 375.753C109.52 376.624 113.066 376.079 115.957 374.228C118.576 372.54 120.431 369.872 121.14 366.823C121.194 366.551 121.249 366.333 121.304 366.061C122.449 358.982 119.121 353.755 112.193 351.686H112.138Z" fill="#113768"/>
<path d="M268.549 298.325C244.981 313.952 213.23 307.527 197.627 284.06C181.97 260.537 188.407 228.848 211.975 213.276C226.105 203.91 243.126 202.495 257.966 207.994C257.42 208.266 256.874 208.593 256.383 208.974C245.036 216.488 241.926 231.843 249.455 243.114C257.038 254.494 272.368 257.597 283.716 250.083C286.225 248.395 288.298 246.381 289.99 244.094C294.791 264.24 286.88 286.183 268.549 298.325Z" fill="#113768"/>
</svg>
