<svg xmlns="http://www.w3.org/2000/svg" viewBox="0 0 504 482">
    <style>
        .line {
            fill: none;
            stroke: #c6c6c6;
            stroke-width: 1px;
            stroke-linecap: round;
            stroke-linejoin: round
        }
    </style>
    <g id="mesh">
        <path d="m437 381.2-11 4.6 1.4-1.6 10.8-4.5-.5.8Z" class="line" />
        <path d="m423.2 386.7-15.2 2 1.9-2 16.5-2.4-1.5 2Z" class="line" />
        <path d="m402.3 389.6-22.8-.8 1.6-.4 22.6 1Z" class="line" />
        <path d="m323 447.1-.9-5.5 2.5-21.2 1.3 5.5Z" class="line" />
        <path d="m310.3 474.7-1.5-5 7.4-9.5 1.2 5.5Z" class="line" />
        <path
            d="m231.1 432.1.2-.2-1.1-.9-4.8-4.4.3-1.1 29.4 26.4-.2.4-23.6-20.4Z"
            class="line" />
        <path d="m203.7 422.6-16-1.2 5-7.2 21.9 8.9-10.4-.6v.3-.3Z"
            class="line" />
        <path
            d="m184.2 430.8-.3.2v.3l-.1-.3-1 .6-.5.4-.4.1v.2-.2l-.4.2.1.2-.1-.2-.4.2 1-3 8.9-2.4Z"
            class="line" />
        <path d="m117.9 453.5 8.2 2.6.6.7-8.3-3Z" class="line" />
        <path d="m103 431.4.3-3.4 4.5 11.7-.4 3.3-3.4-8Z" class="line" />
        <path d="m80.6 426.3-.3.2.1-.3-.6-.2 13.3-1 5.2 1.8-12.4.9v.3l-.2-.2z"
            class="line" />
        <path d="M79.4 426v.2Z" class="line" />
        <path d="m58.8 409.5 5 6 1.7 3.5-5-5.6Z" class="line" />
        <path d="m69.3 352.4 2.9-6.6-4.6 12.4.3.1-.3-.1-.4 1-3.3 7.4Z"
            class="line" />
        <path
            d="m73 315.8.1-.3-4.1-3.8-2-2.1 9.6 6 .5 2.8v.9l-.6-.5-.5-.7-.3.2.2-.2-.3-.2-2.5-2.4Z"
            class="line" />
        <path d="m22 311 6.8-.2 3.3 1h-3.2l-4.8-.3Z" class="line" />
        <path d="m16 308.8 8.2-.2 3.3 1.6-7.8.2-1.1-.2Z" class="line" />
        <path d="m8.5 304.3 2 1 .5.3 1 1.2-2.5-1.4Z" class="line" />
        <path d="m5.2 300 3 1.4.3.2 1.4 2.7-2.7-1.4-.7-.6Z" class="line" />
        <path d="m3.5 295.5 3.4 1.4 1 3.6-3.3-1.5Z" class="line" />
        <path d="m2.9 277.8.6.7-1 4.8-.4-1Z" class="line" />
        <path d="m4.7 272 1 .2-2 5.6-.7-.8Z" class="line" />
        <path d="m7.7 266.2 1.2-.4-2.9 5.8-1-.2Z" class="line" />
        <path d="m11.7 260 1.3-.6-3.6 5.5-1.2.4Z" class="line" />
        <path d="m16.8 253.7 1.5-.9-4 5-.5.5-1.2.6Z" class="line" />
        <path d="m22.6 247.3 1.6-1L20 251l-.5.4-1.2.7Z" class="line" />
        <path
            d="m21.3 206.2-5.6-12.4 12.1 18.5.3-.2-.3.2.3.4 6.1 13-11-16.1-.2.1.2-.2v-.1l-.4-.5-.2.1.2-.1Z"
            class="line" />
        <path d="m9 180.6 4.2 9.1.3-.1-.3.1 4.3 9.7-5.4-9.9Z" class="line" />
        <path d="m4.6 161.3 3.6-3.5 1.4 10.6-3.3 4Z" class="line" />
        <path d="m6.4 153.2 3.3-3.4-1.6 7.1-3.3 3.3Z" class="line" />
        <path d="M16 143.4h7.7l-4.6 5.1-8-.1Z" class="line" />
        <path d="m24.2 141.2 6.5-.1-6.3 1.7h-6Z" class="line" />
        <path
            d="m48 142.3.4.1.1-.3-.1.3 1 .3.3.2.2-.3-.2.3 9.6 3-9.6-.8-12.4-3.8 10 .8Z"
            class="line" />
        <path d="m58.2 125 .2-.1Z" class="line" />
        <path d="m55 109 1 3.6.1 1 .3-.1h-.3l2 9.6-.1-.2Z" class="line" />
        <path d="m58.5 58.5 5.5-5-1.6 3.1-.1.2-5.5 4.7Z" class="line" />
        <path d="m65.7 52 9.2-2-1.9 5.2-9.7 1.2 2-4.1Z" class="line" />
        <path d="m69.4 50.4 7.2-1.8-1.3.7-6.4 1.3Z" class="line" />
        <path
            d="m123.3 60.6-.2.5.6.3.4-.8-.3-.1h.3l6.7-19-1 4.6-7.3 23.9 1-7.3h-.4v-.2l.3.1.2-.4h-.3.3l.1-.7-.3-.1-.2-.2-.2.2-5.6-3 1.5.3.4.1Z"
            class="line" />
        <path d="m207 31.6 1.8 2.2-2 .4-13.1-17.4 1.4.6Z" class="line" />
        <path
            d="M208 31.2v-.3l-.2-.2.3.2 4.1-6.2-.2-.2.2.2.2-.3.5-.6-.3-.2.3.2.2-.3-.3-.2.3.2.1-.3.3-.4-.3-.2.3.2.2-.3-.3-.1.3.1.5-.8-.3-.2.3.2.4-.8.3-.4-.2-.2.3.2.3-.5.5-.7-.3-.2.3.2.1-.3.3-.3-1.7 8-4.9 7.1-1.8-2.4Z"
            class="line" />
        <path d="m257.1 4.7 8.9 3-2.2.5-10-3.7 1.3-.1Z" class="line" />
        <path d="m278 15.7-2.4 1.7-11.1-8.7 2.6-.6Z" class="line" />
        <path
            d="m279 16.5.7.7v.2l.4-.1-.3.2 10 11.5-1 1.2-1.8 1.2-11-13.5 2.5-1.8Z"
            class="line" />
        <path d="m316 12.3.5.1-26.7 18h0l.9-.7-.2-.3.2.3.6-.5Z" class="line" />
        <path d="m420.3 158-7.7-4-6-10.6 7.8 6.2Z" class="line" />
        <path d="M426.3 163.3v-.2Z" class="line" />
        <path d="m432 166.2.2-.3Z" class="line" />
        <path d="m433 166.6-1.5-.5-1.4-.6-.5-.2 2.2.8Z" class="line" />
        <path d="m487.2 188.8-9.4-4-.1.4v-.3l-.3-.2-1.8-1.4 9.9 4Z"
            class="line" />
        <path d="m490.2 191.3.2-.2Z" class="line" />
        <path d="m491 192.3-10-4.1-2-2.1 10 4.1.4.3Z" class="line" />
        <path d="m499.4 203-3.4-3.2-.6-1.7 3.4 3.4Z" class="line" />
        <path d="m488.1 240-6.3 2.4 3.3-3.7 5.8-1.7Z" class="line" />
        <path d="m484.2 244-7.4 3 3.7-3.5 6.5-2.4Z" class="line" />
        <path d="m479.2 248-8 3.7 3.8-3.3h.4l-.1-.4.1.3 7-3Z" class="line" />
        <path d="m473.8 252.1-8.4 4 3.5-2.8h.4l-.1-.4.1.3 7.5-3.4Z"
            class="line" />
        <path d="m467.4 256.4-8.3 4.1 3-2.2.8-.3-.1-.3.1.3 7.3-3.5Z"
            class="line" />
        <path d="m460.7 260.8-7.5 4 2-1.6 1-.5-.1-.3.1.3 6.3-3.1Z"
            class="line" />
        <path d="m444.9 271.1.1.2Z" class="line" />
        <path d="m423.7 288.8.3.1Z" class="line" />
        <path
            d="m423.4 289.6-.3.6-.2.3.3.2h0-.3l-3.4 7.3-.8-4.8v-.2l7-8.1-1 1.7.3.1-.3-.1Z"
            class="line" />
        <path d="M423.5 290.4h-.1Z" class="line" />
        <path d="m447.5 348.3-1.1-3.2.4.7Z" class="line" />
        <path d="m448 367.8 2.1-6.5v.6l-2.2 6.4Z" class="line" />
        <path d="m446 372.3-6.3 5.6.2-3 7.3-6.3-.3 2.6Z" class="line" />
        <path d="m427.8 379.9 11.5-4.6-.3 3.2v.2l-11.5 4.7Z" class="line" />
        <path d="M410 386v-4l17.1-2-.3 3.6Z" class="line" />
        <path d="m381 387.7-29.2-1.1-.2-4.2 31.7 3-1.8 2.3Z" class="line" />
        <path d="m349.3 390.5 4-.1-5.1.7Z" class="line" />
        <path d="M331.7 400v-.1l9.8-5.2-10 8.8Z" class="line" />
        <path d="m321.6 439.8-5.2-13.5 3-18.5 4.8 10.8Z" class="line" />
        <path d="m316.7 459 5-16 1 6.3-4.8 15.3-1.2-5.2Z" class="line" />
        <path d="m308.5 469-3.4-12.6 7.3-11.2 3.6 13.9v.2Z" class="line" />
        <path d="m300 478.5-1.7-4.7 9.9-3.7 1.6 5Z" class="line" />
        <path d="m255.6 452.4 9.6 10.3-9.7-10Z" class="line" />
        <path d="m194.8 406-3.5-4.7 27.9 14.5.4.2 4.8 7.6Z" class="line" />
        <path d="m192.4 413.5-24.6 4.5 2.9-12.9 23.4 1.5Z" class="line" />
        <path d="M186.8 421.5h-.2l.1.3-.1-.2-25 13 6-15.9 24.3-4.5Z"
            class="line" />
        <path d="m140.4 454.6 17.4-8.4.2 2.6-17 7.5Z" class="line" />
        <path d="m139.8 454.8.6 1.6-12.5.8-1-1.1Z" class="line" />
        <path d="m108.3 440.3 7.4 7.2-.2 4-7.5-7.3Z" class="line" />
        <path d="m103.5 426.5 6.7-1.7 1 3.1-3.1 10.7-4.6-12Z" class="line" />
        <path d="m102.9 426.7-.3 1.7-.1-1.6Z" class="line" />
        <path d="m119 420.5.6-.3 3.8-.8-13 4.7-6.5 1.7Z" class="line" />
        <path d="m138.7 403.3 5.1 3-24.4 13.3-.5.2-5.4-2.2Z" class="line" />
        <path d="m90 417.9 20-7.8 2.4 7.3-19.2 6.9Z" class="line" />
        <path d="m64.2 405 10.2 3 .1 10.5-10.2-3.4Z" class="line" />
        <path d="m58 397 5.6 7.7v9.7l-5.9-7.2v-.4Z" class="line" />
        <path d="m57.5 396-.3 5.9-.7-8 .1-2.3 1.2-6.5Z" class="line" />
        <path d="M64.5 378.2 69 387l-5.2 17-5.6-8Z" class="line" />
        <path d="m78.4 325-.2 1-.1.3.2.1H78v.2l-.4 1 .2-5.7Z" class="line" />
        <path d="m77.2 315.3-1.3-7.2h-.3.3l-1.3-6.3 6 9.9-2 11.4-.9-4.8Z"
            class="line" />
        <path d="m65.1 307.7-.5-.4-3-3.8 13.7 4.9 1.1 6.3Z" class="line" />
        <path d="m51.7 310.6-.9-.1-4.1-2 17.6-.7.4.4 3.3 3.3Z" class="line" />
        <path d="m45.3 308.6 4.2 2-14 1.1h-1.2l-3.4-1Z" class="line" />
        <path d="m17.8 301 2.2 3.7-8.7.3-.3-.2-1.7-3.1Z" class="line" />
        <path d="m16.4 296 1.2 4.4-8.8.7v-.2l-1.2-4Z" class="line" />
        <path d="M2.1 287.8V284l.2.5Z" class="line" />
        <path d="m4.1 278.7 4.7-.2-1.6 6.1-4.2-.5Z" class="line" />
        <path d="m6.4 272.3 5.4-1.4-2.8 7-4.7.1Z" class="line" />
        <path d="m9.8 265.5 5.9-2.2-3.6 6.8-5.3 1.4Z" class="line" />
        <path d="m19.9 251.9.4-.4 6.3-3.5-4.5 6-.5.3-6 2.9Z" class="line" />
        <path d="m26.3 245 1.3-1.1 5.7-3.9-4.6 5.7-1 1-6 3.3Z" class="line" />
        <path d="m29.7 239.7 2-1.4-4.6 5-1.2 1.1-1.6 1Z" class="line" />
        <path d="m34.9 234.7-.2.4-1 1-2.1 1.5 3.1-3.5Z" class="line" />
        <path
            d="m37.2 234.5-.1 4-.7-1.6-.7-2-.2.1h.2l-.1-.3-.4-1.4-.4.1.4-.1-2.3-6Z"
            class="line" />
        <path d="m36 229.5.5 1 2 5.2-.7-1.4-.3.2.3-.2-9.8-16.7Z" class="line" />
        <path d="M30 206.7 52.4 236l-3 3.3-21-27.3Z" class="line" />
        <path d="M17.1 158.3 19 170l-8.7-1.7-1.4-10.9Z" class="line" />
        <path d="m17.1 157.7-8.3-1 1.7-7.6 8.3.1Z" class="line" />
        <path d="m62.1 146.9 1.2.3 21 9.8-11.4-.8-.4-.1-21.1-10.2Z"
            class="line" />
        <path d="m62.9 146 1.2.5v-.3.3l4 1.1v-.3.3l.4.2-6.2-1.5-4-1.3Z"
            class="line" />
        <path d="m63.8 145.7-.5-.2-1-4.7Z" class="line" />
        <path d="m63 118.8-.3 11-6-16.4-1-14Z" class="line" />
        <path d="m54.9 71.8-3 8 .3-7 3-7.9Z" class="line" />
        <path d="m62.2 66.5-6.6 4.7.4-8.1 6.2-5.3Z" class="line" />
        <path d="m73 55.9 1 10.6-11.1-.1V57Z" class="line" />
        <path d="m89 60.3-15.3-5 2-5.3 13.9 3.5Z" class="line" />
        <path d="m109.5 63.1-19-9.9 2.8-2.6 17.5 8.4Z" class="line" />
        <path d="M121.8 73.5h-.3v.5l-7.5 26V89.8l8.4-24.2-1 7.8Z"
            class="line" />
        <path d="M128.1 66.1h.3Z" class="line" />
        <path d="m128 66.6-7 24 1.1-16.6h-.3.3v-.5l7.3-23.5Z" class="line" />
        <path d="M152.9 10.5h-.2v.4l-.1-.3-7.7 6.2.2-.2 8.5-7.1Z"
            class="line" />
        <path d="m164.4 7.7-10.5 2.5 2-2.5 10.6-3Z" class="line" />
        <path d="M176.7 10.3 165 7.7l2.3-3.3L179 6.7Z" class="line" />
        <path d="m192.9 15.9-.3-.2-8.2-6.1 8.9 6.4Z" class="line" />
        <path d="m204 40.9-13.8-19.8 2.4-4.6 13.6 18Z" class="line" />
        <path d="m209.3 34.4 3.5 3.7.2-.2-.2.2 14 15-3 3.4-16.6-21.7Z"
            class="line" />
        <path d="m212.8 37.2-2.7-2.9 4.1-6.1Z" class="line" />
        <path d="M225 16.1v.2l-9.7 9.5 1.8-8.2 10.6-8.4Z" class="line" />
        <path d="m236.5 11.4-10.6 4.3 2.8-7.2 11-3.7Z" class="line" />
        <path d="M260.7 16.2 249 11.6l3.2-7h.2l11 4.2Z" class="line" />
        <path d="m273.2 26.2-11.9-9.7 2.6-7.4 11.4 8.8Z" class="line" />
        <path d="m280.4 35.4-6.7-8.7 2-8.2 10.7 13.2Z" class="line" />
        <path d="m290.4 28.7-1.1-1.3z" class="line" />
        <path d="m314.9 18.9-27.3 17.8 2.5-5.7 26.6-18Z" class="line" />
        <path d="m337 3.6-19.7 8.3h-.4l19.5-8.7Z" class="line" />
        <path d="m352.4 2.4-14.6.9-.3-.2 14.5-1Z" class="line" />
        <path d="m372.5 21.8-8.1-9.2 1-4.7 8 9.2Z" class="line" />
        <path d="m376.9 37.4-3.9-15 .8-4 4 14.8Z" class="line" />
        <path d="m376.8 58.5.4-19.7.6-2.6-.1 19.2Z" class="line" />
        <path d="m374.7 81.5-.3 1 2.4-20.7h-.4.4V61l.4-1.5Z" class="line" />
        <path d="M374 87.6h-.4Z" class="line" />
        <path d="m374 86.8.4-1.8-.8 11Z" class="line" />
        <path
            d="m376.6 108.5.3-.2-.2.3.4.2 1.4 2.3-10.7-11.6-.5-.7-3.2-14.4 6.7 15.2.3-.2-.3.2.9 1.4.3-.2-.3.2.4.6.6 1 .3-.2-.3.2.3.4.2-.2-.2.2.4.6 2.6 3.9Z"
            class="line" />
        <path d="m405.7 142-.3-.4-4.7-5.8 4.4 4.5.3-.2-.3.2 2.4 2.3 3.2 3.3Z"
            class="line" />
        <path d="m398.9 149.7-7.1-14 13.1 6.4.3.3 6.4 11.3Z" class="line" />
        <path d="m421.3 159.5 3.4 9-8.4-3.4L413 155l8.2 4.3Z" class="line" />
        <path d="m422.7 161.4.2-.2Z" class="line" />
        <path d="m425 163.6-.3-.5h.1l.3.3.2-.2-.1.3 1.7.7.4.3Z" class="line" />
        <path d="m450.3 177-21-2.8-.3-.4-.8-2.4 18 3.3v-.3.3h.4Z"
            class="line" />
        <path d="m492 193.3.5.7 1 1.7-9.5-3.6-2-2.8Z" class="line" />
        <path d="m494.7 196.5-.2-.4-.3-.5 2 2v.2l.4-.2-.3.2.6.7.3.5Z"
            class="line" />
        <path d="m485.9 196-1.4-3 9.5 3.6.2.3 1 2.5Z" class="line" />
        <path d="m497 203.5-.7-2.6 3.7 3.5.5 2Z" class="line" />
        <path d="m497.3 207.4-.2-3 3.6 3 .2 2.4Z" class="line" />
        <path d="M497.3 211.6v-3.4l3.7 2.4v2.9Z" class="line" />
        <path d="m500.8 217-4-1.2.5-3.5 3.7 2v.8l-.2.6.3.1h-.3z" class="line" />
        <path d="m480.4 242.8-.2.1-14.5 3.9 4.7-4.7.2-.1 13.3-3Z"
            class="line" />
        <path d="m449.7 266.6-.3.1.2.3-.2-.3L434 275l3.5-3.8 15.1-6.8Z"
            class="line" />
        <path d="m444 271.6.2.2Z" class="line" />
        <path d="m427.9 282.3.4-.5 10-6.4-5.4 4.5.3.2-.3-.2-6.7 5.5Z"
            class="line" />
        <path d="m419.1 286.6 11-8.4-2.3 3.2-.4.5.2.2-.2-.2-8.6 10Z"
            class="line" />
        <path d="M418.1 292.8v.4l-1.8 10.7-4-7.1 6.1-9.2Z" class="line" />
        <path d="m421.3 304.5.5-2.9.4 4.7Z" class="line" />
        <path d="M422.4 306.8h.1Z" class="line" />
        <path d="M428.6 319.3v-.2l.3.5Z" class="line" />
        <path d="M429.8 321.3h.1Z" class="line" />
        <path d="M430.1 321.7h.1Z" class="line" />
        <path
            d="m444.5 346.4-.1-.4-.3.2.3-.2-4-9.6 2.4 2.8.3-.2-.3.2.2.1v.2l.4-.1-.3.2 1.4 2 3.2 9.2Z"
            class="line" />
        <path d="m446 361.7-3.7-6.3 2-8 4.1 5.5.1.4Z" class="line" />
        <path d="m439.8 374.2-1.3-4.8 7.4-6.3 1.3 4.6Z" class="line" />
        <path d="m427.6 379.2-1.8-5.4 12.1-4.1 1.3 4.9Z" class="line" />
        <path d="m409.8 381.3-3-6 18.3-1.3 1.9 5.4Z" class="line" />
        <path d="m384.2 384.8-1-4.4 26 1.6.2 4Z" class="line" />
        <path d="m351.5 381.8-2.5-5.6 33.6 4.2.9 4.3Z" class="line" />
        <path d="m329.8 392.1-3.6-8 24.8-1.7.1 4.3Z" class="line" />
        <path d="M315.9 425.4 304.3 406l6.8-12.9 7.8 13.7Z" class="line" />
        <path d="m304.8 455.6-9.4-23.7 5.3-10.4 11.5 23Z" class="line" />
        <path d="m294.6 460.8 9.9-4 3.5 12.6-9.9 3.7Z" class="line" />
        <path d="m287.5 477.5-1.8-5.2 12 1.6 1.7 4.6Z" class="line" />
        <path d="m240.3 426 24.3 19.3.2.2 5 15.6-18.8-19.6Z" class="line" />
        <path d="m220 415.5-.2.3zl-.4-.3-8.7-9 27.3 18 .4.4 10.5 15.3Z"
            class="line" />
        <path d="m207.6 404.1.8.5 9.3 9.7-26-13.5Z" class="line" />
        <path
            d="m170.5 404.5-3.3-3.2 2.6-.6 19.3-.2v-.3h.1v.3l.2.1.2-.3v.3h.4l3.9 5.3Z"
            class="line" />
        <path d="m167 418.2-19.2 11.5 4-18 18.2-6.4Z" class="line" />
        <path d="m160.8 435.1-18.4 11.2 5.2-15.7 19.1-11.4Z" class="line" />
        <path d="m127.4 450.5 14-3-1.7 6.7-13 1.2Z" class="line" />
        <path d="m119.9 436.1 11.1 1-4.1 12.7-10.4-2.7Z" class="line" />
        <path d="m111.7 428.5 7.6 7.4-3.4 10.8-7.4-7.2Z" class="line" />
        <path d="m111.5 426.7-.7-2 1.3-.5Z" class="line" />
        <path d="m119.4 435.1-7.5-7.3 1-3.9 10.1-3.6Z" class="line" />
        <path
            d="m144.6 406.7.3-.1 7.4-1-8 4.1.2.3.1.3 1.6-.6v-.2.2l2.4-1.1 2.4 2.7-14.6 5-.7-1.5 8.2-4.1-.2-.3.2.3.6-.4-.3-.6-.6.4-.6.2.1.3-.1-.3-11.3 5.7.1.3v.2l-.1-.3-4.6 1.9.2.6 4.6-2 4 .3-4.7 19.5-11.2-1 3.8-15.5 3.4-1.3-.2-.3v-.3l-5.4 1Z"
            class="line" />
        <path d="m168.1 384.7 5 4.8-28.5 16.5h0l-5.3-3.1Z" class="line" />
        <path d="m137.3 394.2 1 8.5-25.3 14.4-2.5-7.3Z" class="line" />
        <path d="m91 405.4 21.6-9.7-2.7 13.7-19.9 7.8Z" class="line" />
        <path d="m90.3 405.6-1 11.8-14.1 1.2L75 408Z" class="line" />
        <path d="m69.6 387.4 10.7 2.1-5.8 17.8-10.2-3Z" class="line" />
        <path d="m81.6 347 3.1 10.6-15.3 28.7-4.5-9Z" class="line" />
        <path d="M84 328.6 94.3 300l5.1 11-17.1 33.3Z" class="line" />
        <path d="M85.7 310.5h.3l1.6-20.8 6.2 9.5-9.4 26.6 1.6-15.2Z"
            class="line" />
        <path d="m74.2 299.8-2.2-8 9.7 6-1 12.8Z" class="line" />
        <path d="m57.7 297.8 16 2.5 1.5 7.3-14.4-5Z" class="line" />
        <path d="M36.6 301.6 40 305l-15.5 2.9-3-2.8Z" class="line" />
        <path d="m34 296.8 2.2 4.2-15.4 3.6-2.3-3.6Z" class="line" />
        <path d="m32.4 290.8 1.3 5.4-15.4 4.1-1.2-4.5Z" class="line" />
        <path d="m7.1 291.4 9-1.6.2 5.5-8.8 1Z" class="line" />
        <path d="m9.5 278.4 10-3.8-2.2 7.4-9.4 2.5Z" class="line" />
        <path d="m12.6 270.6 10.4-4.8-3.3 8-10 3.8Z" class="line" />
        <path d="m16.6 262.9.3-.2 10.4-5.7-4 7.9-10.2 4.8Z" class="line" />
        <path d="m22 254.8.5-.3L32 248l-4 7.5-.3.3-10.1 5.6Z" class="line" />
        <path d="m35 238.5.2.2-.4 1.6-3 2.6 3.4-4.2Z" class="line" />
        <path d="m37 243.6-6.1 8.2 2.4-4.5-.3-.2.3.1 2-6.7h-.2.3l.7-2.5 1 2Z"
            class="line" />
        <path d="m67.4 264.2-5.5 3.6-9.8-16.9-2-9.3Z" class="line" />
        <path d="m52.7 236.6 21.8 28.6-6.4-1.3-18.4-23.8v-.2Z" class="line" />
        <path d="m41.2 211 .4.2 22.6 30.2-11.3-5.6-22-29Z" class="line" />
        <path d="m26.3 187.3 14.3 22.6-10.4-4.2-13.4-21.1Z" class="line" />
        <path d="m19 170.7 7 15.8-9.7-2.7-5.9-14.8Z" class="line" />
        <path d="m32 163.9 2.9 13-15.3-6.8-1.8-11.6Z" class="line" />
        <path d="m32 163.2-14.2-5.4 1.7-8.5 14 4.7Z" class="line" />
        <path d="m55.3 176-22.7-12.5 1.5-9.2 22 11.3Z" class="line" />
        <path d="m93.9 177.6-5 7.6-32-19.9 5.6-6Z" class="line" />
        <path d="m86 157.7.5.2 26.6 13.1-9.6 2.2L74.3 157Z" class="line" />
        <path d="m76.1 150.2 4.6 1.3 17.9 7.3-12-1.6-.5-.1-19.6-9.2Z"
            class="line" />
        <path d="m63.3 131.8.4-11.4 7.5 19.9-2.7 6.8h-.1Z" class="line" />
        <path d="m58.8 88.4 9 23.2-4.3 6.5-7.9-21Z" class="line" />
        <path d="m62.3 67.2 4.5 16.5-7.8 3.4L55.6 72Z" class="line" />
        <path d="m74.2 67.1 5.5 18.5-12.3-2L63 67Z" class="line" />
        <path d="m89 61 2.4 12-16.7-6.4-1-10.6Z" class="line" />
        <path d="m109.3 63.8.7 6.5-20.4-9.8.6-6.7Z" class="line" />
        <path d="m120.8 65.6-10.7-2.3 1.3-4 10.1 4.8Z" class="line" />
        <path
            d="m113.8 88.2-.5-5.6 7-14.4-.3-.2.3.2.2-.4.8-1.6-.3-.2.3.2.8-1.7Z"
            class="line" />
        <path d="M120.5 93.5h-.3v.5l-6.8 22.6.6-13.8h-.3.3v-.5l7.3-25.3-1 16.5Z"
            class="line" />
        <path d="M127.6 95.3v.3l-7.6 20.8.8-22.3h-.3.3v-.5l7.3-24.5Z"
            class="line" />
        <path d="m148.1 36.3-10 9.3 1.8-16.3 10-8.6Z" class="line" />
        <path d="m174.2 21-11.8-4 2.4-8.8 11.6 2.6Z" class="line" />
        <path d="m187.5 33.4-12.7-12.2 2.2-10 12.5 10.1Z" class="line" />
        <path d="M201.9 55.8 188 34l2-12 13.7 19.7Z" class="line" />
        <path d="m227.3 53.4 26.7 1-5 8.6-24.6-6.2Z" class="line" />
        <path
            d="m220.8 45.5 4.3 3.4.2-.3-.2.3 4.7 3.6h.1l-1.7.3h-.6v.3-.3h-.3l-7.3-8Z"
            class="line" />
        <path d="m223.4 33.2-2.6 11.4-3-2.1-2.4-2.6Z" class="line" />
        <path d="m235.2 26.6-10.8 5 1-15h.1l10.9-4.4Z" class="line" />
        <path d="M246.9 26.5h-11L237 12l11.2.1Z" class="line" />
        <path d="m259 31.6-11.5-5 1.4-14.3 11.7 4.5Z" class="line" />
        <path d="m270.4 41-10.9-9 1.7-14.7 11.8 9.6Z" class="line" />
        <path d="m274.6 39.3-3.7 2.2 2.6-14 6.4 8.3Z" class="line" />
        <path d="m255.6 53.2 2.3-3.2 13.2-7.8-.2-.3.2.3 18-10.6-2.5 5.7Z"
            class="line" />
        <path d="M307.9 33.6 280.2 51l7-13 27.1-18Z" class="line" />
        <path d="m351.6 8.2-15 1.2 1.4-5.5 14.8-.8Z" class="line" />
        <path d="m368.6 32.5-8.2-9.4 3.8-9.8 8.1 9.3Z" class="line" />
        <path d="m373 48.2-4-15 3.6-9.6 4 15.1Z" class="line" />
        <path d="M376.1 61v.7l-3 8.2.1-20.6 3.3-8.7Z" class="line" />
        <path d="M372.1 96.4V96h-.3.3v-.3l1-4.3-.4 9.9Z" class="line" />
        <path
            d="M363.3 81.2v-.5l3.8-14.4 1.8 20h.3-.3l.1.8.4-.1h-.4l.2.6.6-.1-.1-.6-.1-.6-.1-1.4 2.8-9.7-.8 20.4h.3-.3v.8h.3-.3l-1.7-8.8-.6.1 1.3 9.5Z"
            class="line" />
        <path d="m353.4 87.1 2-19.3 7.2 13 3.9 17.2Z" class="line" />
        <path d="m380.1 113.9.3-.2Z" class="line" />
        <path
            d="m380.2 114 .2.2.2-.1-.2.2 2.2 2.3.3-.2-.3.2 1.5 1.4 7.6 8.4-12.2-8.6-.5-.6-9.2-14.6Z"
            class="line" />
        <path d="m385.2 116.4-6.2-5.6-.3-.6z" class="line" />
        <path d="m402.8 137-.6-.9z" class="line" />
        <path d="m399.8 134.7.1-.2Z" class="line" />
        <path d="m392.4 125.7-7.7-8 .4-.4 7.5 8Z" class="line" />
        <path d="M393.5 125.3h.1l4.4 5.3Z" class="line" />
        <path d="m396.2 130.2-3.4-4 .3-.4 6.8 8.2h0Z" class="line" />
        <path d="m381 113.9-.2-.3-.3.2.2-.2v-.2l-.5-.7 4.4 4.2-.3.3-1.2-1Z"
            class="line" />
        <path d="m391.3 134.7-10.7-15.3 13 9.1 2 2.1L404 141Z" class="line" />
        <path d="m380 146.5-7.5-16.6 18.3 5.3 7.3 14.3Z" class="line" />
        <path d="m402.6 162.7-3.5-12.3 13 4 3.5 10.6Z" class="line" />
        <path d="m425.6 180-8.4-3-.8-11.1 8.5 3.4Z" class="line" />
        <path d="m434.4 182.6-3-3.8 25.6 2.7 3.3 3.1Z" class="line" />
        <path d="m467.7 193.6-2.2-3.9 18 3 1.6 3.2Z" class="line" />
        <path d="m487.2 200.4-1-3.6 9.3 3.4.7 3Z" class="line" />
        <path d="m487.6 205-.3-4 9 3 .3 3.1Z" class="line" />
        <path d="m496.1 215.7-9.3-1 .7-4.3 9.2 1.7Z" class="line" />
        <path d="m495.8 220 .9-3.5 3.9 1.2v.4l-.6 2.8Z" class="line" />
        <path d="m498.6 224.5-4.4-.1 1.4-3.7 4.2.8Z" class="line" />
        <path d="m497 228.2-4.9.6 1.8-3.8 4.5.1Z" class="line" />
        <path d="m491.8 229.5 4.8-.6-1.8 3.2-5.4 1.2Z" class="line" />
        <path d="m475.4 236.5.2-.1 12-2-3 3.7-13.2 3Z" class="line" />
        <path d="m464.5 247.1-.2.1-22 5 5.5-5.6 21.4-4.3Z" class="line" />
        <path d="m437.5 270.4-16.2 8.5 3-5.9 18-7.2Z" class="line" />
        <path d="m409.5 288.8 10.5-8.2-1.5 5.7-6.5 9.7Z" class="line" />
        <path d="m416.2 305 3.2 10.8-9.1-8.7 1.8-9.4Z" class="line" />
        <path d="m422 312.7 7.2 11.9-8.6-7.5-.2-.4-3-9.8Z" class="line" />
        <path d="m436 337.8-4.2-10 6.8 6.4.5.7 4 10Z" class="line" />
        <path d="m441.8 354.8-7.4-8.2 1.6-8 7.8 7.7v.3Z" class="line" />
        <path d="m438.2 368.7-3.8-6.7 7.4-6 3.9 6.4Z" class="line" />
        <path d="m425.5 373.3-5-7.4 13.3-3.6 3.9 6.8Z" class="line" />
        <path d="m406.4 374.7-7.2-8.1 20.6-.5 5 7.3Z" class="line" />
        <path d="m383 379.8-4.8-6.7 27.9 2.3 3 5.9Z" class="line" />
        <path d="m348.6 375.5-5.1-7 33.8 4.6 4.8 6.6Z" class="line" />
        <path d="m325.9 383.4-5-8.6 27.3 1.3 2.6 5.7Z" class="line" />
        <path d="m304 405.2-12.3-19.5 10.8-7.1 8.2 13.7Z" class="line" />
        <path d="M295 431.2 275.3 402l8-6.8 17 25.7Z" class="line" />
        <path d="m294.4 460.2-9.1-24.3 9.5-3.6 9.5 23.8Z" class="line" />
        <path d="m281.9 458 12 3 3.6 12.2-12-1.6Z" class="line" />
        <path d="m281 457.4.1.2 3.6 13.6-13.7-8.8v-.2l-5.3-16Z" class="line" />
        <path d="m239 424.1-.4-.4-15.3-19.4 23.6 14.6.2.2 16.2 24.4Z"
            class="line" />
        <path d="m154.2 405.2 1.7-.6 2-.6-6.3 2.6Z" class="line" />
        <path d="m173.7 390 7.7 1.8-27.4 12.8-7.6 1.1Z" class="line" />
        <path d="m193.5 371.1 4.4 7.3-24.2 10.8-5-4.8Z" class="line" />
        <path d="m167.4 374.8.4 9.4-28.9 18.2-1-8.6Z" class="line" />
        <path d="m113.3 395.4 28.2-17-4.2 15-26.7 15.6Z" class="line" />
        <path d="m98.7 384.9 23.7-11.7-9.6 21.7-21.6 9.7Z" class="line" />
        <path d="m81 389.6 17-4.5-7.6 19.8-15.2 2.4Z" class="line" />
        <path d="m85.2 358 10.7 2.7-15.4 28.2-10.7-2.1Z" class="line" />
        <path d="m99.7 311.7 6.1 9.2-20.6 36L82 346Z" class="line" />
        <path d="m94.5 299-6.9-25.2 13.3 9-1.5 26.9Z" class="line" />
        <path d="m71.7 290.9-3.4-9.3 10 1.2h.1l3.1 14.1Z" class="line" />
        <path d="M54.9 291.4h16.3l2.2 8.2-16-2.5Z" class="line" />
        <path d="m54.2 291.5 2.4 5.6-19.7 3.8-2.3-4.2Z" class="line" />
        <path d="m52 284.2 2 6.6-19.6 5.3-1.3-5.5Z" class="line" />
        <path d="m16.8 289.6 15.3-6 .2 6.5-15.3 5Z" class="line" />
        <path d="m20.2 274.3 14.5-8.8-1.5 9-15.1 7.2Z" class="line" />
        <path d="m32.8 283.4 17.3-8 1.7 8.2L33 290Z" class="line" />
        <path d="m67.3 281-14.8 2.5-1.8-8.4 11-6.3Z" class="line" />
        <path d="m47.8 264.3 2.2 10.5-17.2 7.8 1-7.8Z" class="line" />
        <path d="m17.9 282.5 15.2-7.3-1 7.7-15.3 6Z" class="line" />
        <path d="m52.6 284 15-2.5 3.4 9.2H54.6Z" class="line" />
        <path d="m77.8 282-9.8-1-5.7-12.5 5.5-3.7Z" class="line" />
        <path d="m79 282.4-.3.2.2-.3h-.2l-10.1-17.6L75 266l11 21.3Z"
            class="line" />
        <path d="m65 242.5.3.3 20.3 28.8-10-6.1L53.7 237Z" class="line" />
        <path d="m62.3 224.1.4.4L84 253.8l-18.1-11.5-.3-.3-22.4-29.9Z"
            class="line" />
        <path d="m44.4 197 .2.2 16.8 25.6-19.8-12.4-14.2-22.5Z" class="line" />
        <path d="m35 177.8 8.8 18.1-17-9.1-6.9-15.8Z" class="line" />
        <path d="m55.3 176.7 4.8 15.2-24.5-14.6-2.9-13Z" class="line" />
        <path d="m88.7 185.8.2 12-33-21.5.8-10.4Z" class="line" />
        <path d="m94.5 178 32.3 18.6-3.5 9.6-33.8-20.7Z" class="line" />
        <path d="m103.4 174 29.4 14.3-5.7 7.8-32-18.5Z" class="line" />
        <path d="M114 171.5h.2l.1-.2v.3l24.3 8.7-5.5 7.4-28.7-14Z"
            class="line" />
        <path d="m101 159.7.8.2 22 8-9.4 3-25.9-12.8Z" class="line" />
        <path d="m86.9 152.7 10.7 2.4v-.3.3l14.9 3.1-10.5 1-.9-.1-17.8-7.3Z"
            class="line" />
        <path d="m76.3 149.6-2.2-.8-2.2-8.4 5.4-4.3 3.4 14.7Z" class="line" />
        <path d="m69.1 147.3 2.4-6 1.9 7.2Z" class="line" />
        <path d="m68.1 112.4 9 23-5.4 4.3-8-20.9Z" class="line" />
        <path d="m67 84.4 9.8 25.2-8.4 1.7-9.2-23.6Z" class="line" />
        <path d="m80 86.3 9 23.9-11.5-.6-9.8-25.3Z" class="line" />
        <path d="m91.6 73.7 5.1 16.4-16.3-4.4L75 67.4Z" class="line" />
        <path d="m110 71.1 1.4 5.9L92 73.2l-2.4-12Z" class="line" />
        <path d="m120 67.4-9.4 3-.6-6.4 10.5 2.2Z" class="line" />
        <path d="m113 81.6-.9-4.1 6.6-7.4Z" class="line" />
        <path d="m102.3 105.7-4.7-15 15.1-7.6.6 6.5Z" class="line" />
        <path d="M113.4 102.3v.4l-8.5 17.9-2.4-14 10.8-15.8Z" class="line" />
        <path d="M113 119.2h-.3v.3l-7.4 15-.3-12.8 8.3-17.3-.6 14.8Z"
            class="line" />
        <path d="m111.9 134.2 1.4-14.6h-.3.3v-.4l6.8-22.5-.9 21.7Z"
            class="line" />
        <path d="m127.3 127.4-9.4 11.7 2-20.6 7.7-21Z" class="line" />
        <path d="M147.2 64.4 137.4 75l.7-28.4 10-9.3Z" class="line" />
        <path d="m159.8 34.1-11 2 1.8-16 11-2.3Z" class="line" />
        <path d="m172.5 40-12-5.8 1.8-16.4 11.8 3.8Z" class="line" />
        <path d="m186.2 55-13-14.7 1.6-18.2 12.6 12Z" class="line" />
        <path d="m200.8 77.7-14-21.9 1.2-20.7 13.8 21.7Z" class="line" />
        <path d="M295.3 57.6v.1L269 72.5 279.6 52l27.7-17.2Z" class="line" />
        <path d="m347.3 19-16 2.7 5-11.7 15-1.2Z" class="line" />
        <path d="m359.9 22.8-12-3.7L352.2 9l11.5 4Z" class="line" />
        <path d="m362.5 47.6-8.8-8.7 6.4-15.1 8.2 9.4Z" class="line" />
        <path d="M372.5 49.7 367.3 63l-4.4-14.7 5.7-14 4 15Z" class="line" />
        <path d="m352.8 86.9-15.3-4.2 6.8-22.4 10.6 6.6Z" class="line" />
        <path d="m353 145.5-5.4-17.4 24.1 1.6 7.5 16.8Z" class="line" />
        <path d="m383.3 161-3.2-13.8 18.3 3 3.5 12.4Z" class="line" />
        <path d="m403.3 174.7-.6-11.3 13 2.3.9 11.2Z" class="line" />
        <path d="m422.7 191.8-8.2-2.3 2.6-11.8 8.4 3Z" class="line" />
        <path d="m428.5 174 .2.5v2.3h.2-.3l.1 1.4v5.6l-2.4-3.5-.7-10Z"
            class="line" />
        <path d="M429.4 177.9v-.3l.2.3Z" class="line" />
        <path d="M429.4 182v-3.4h1l3 3.9Z" class="line" />
        <path d="m440.2 192.7-2.1-4.5 26.6 1.4 2.2 4Z" class="line" />
        <path d="m469.4 198.5-1.4-4.2 17.4 2.3 1 3.6Z" class="line" />
        <path d="m470 203.6-.5-4.4 17 1.7.5 4Z" class="line" />
        <path d="m486.1 214.7-17.5.1 1-5 17.2.5Z" class="line" />
        <path d="m495.1 220-9.8-.2 1.4-4.4 9.3 1Z" class="line" />
        <path d="m493.5 224.4-10.4.5 2-4.5 9.8.2Z" class="line" />
        <path d="m491.4 228.8-11.3 1.5 2.7-4.7 10.4-.6Z" class="line" />
        <path d="m441 252.5-24 5.5 4-6.2 25.7-5Z" class="line" />
        <path d="m434.7 259-.2.2-21.1 6 3.2-6.4 23.6-5.4Z" class="line" />
        <path d="m428.9 265.8-18.6 6.8 2.4-6.6h.2l20.8-5.9Z" class="line" />
        <path d="m423.9 272.5-15.1 7.7 1.3-6.8 18-6.7Z" class="line" />
        <path d="m402.4 297.1 6.6-7.8 2.6 7.5-1.9 9.6Z" class="line" />
        <path d="m419.8 317 .3.4 2.5 9.3-13.6-10.9 1.1-8Z" class="line" />
        <path d="m433.8 346-12.7-10.5 2.3-7.4 12 9.9h0Z" class="line" />
        <path d="m434 361.5-8.2-8.9 8.2-5.5 7.5 8.3Z" class="line" />
        <path d="m420 365.4-10-9.8 15.2-2.7 8.2 8.9Z" class="line" />
        <path d="m398.6 366-12.5-10.7 23.1.4 10 9.7Z" class="line" />
        <path d="m377.6 372.4-9.1-8.8 29.9 3 7.1 8Z" class="line" />
        <path d="m343 367.7-7-8.3 31.4 4.1 9.1 8.8Z" class="line" />
        <path d="M320.5 374.1 316 366l26.7 2.4 5.2 7.1Z" class="line" />
        <path d="m291.4 385.1-7.6-15 12.6-3.3 5.8 11.2Z" class="line" />
        <path d="m275 401.4-14-23 10.8-3.5 11.1 19.6Z" class="line" />
        <path d="m285 435.3-21.4-31 11.1-2 19.8 29.4Z" class="line" />
        <path d="m281.6 457.2-11.5-25.4 14.5 4.2 9.1 24.2Z" class="line" />
        <path d="m222 402.8-13.3-14.4 19.8 4.4.2.1 17.2 24.6Z" class="line" />
        <path d="m212.5 365.3 4.8 10-18.8 3-4.4-7.4Z" class="line" />
        <path d="m168 374.4 23.8-13 1.4 9.1-24.7 13.3Z" class="line" />
        <path d="m142.4 377.9 27.8-17-2.7 13.2-29.4 18.8Z" class="line" />
        <path d="M123.4 372.7v-.2l27-15.4-8.6 20.4-28 16.9Z" class="line" />
        <path d="m115.4 355 21.7-9.8-14.3 27L99.3 384Z" class="line" />
        <path d="m96.6 360.8 17.9-5.5-16.2 29-17 4.5Z" class="line" />
        <path d="m106.4 321.3 9.8 4.5-20 34.3-10.6-2.7Z" class="line" />
        <path d="m101.5 283.3 12.4 9.4-7.8 27.4-6-9.2Z" class="line" />
        <path d="m90.5 243.3.2.3 14.7 24.2-19.6-12.6-.5-.4-21-29.2Z"
            class="line" />
        <path d="M72.8 215.7 89.5 242l-26.3-18-.4-.4L46 198.1Z" class="line" />
        <path d="m60.4 192.9.3.4L72 214.5l-27-17.8-.3-.2-8.7-18.2Z"
            class="line" />
        <path d="m89 198.6 5.9 17.4-33.7-23.2-.2-.3-4.8-15.2Z" class="line" />
        <path d="m123 219.7-33.4-21.5-.2-12 33.8 20.7Z" class="line" />
        <path d="m127.4 197 23.5 8.4-2.2 12.3-24.8-11.2Z" class="line" />
        <path d="M133.4 188.5 152 192l-1.1 12.7-23.3-8.4Z" class="line" />
        <path d="m139.3 180.4 13.1-2-.3 12.9-18.3-3.4Z" class="line" />
        <path d="M124.8 168.2 144 171l-5 8.7-23.7-8.4Z" class="line" />
        <path d="m114.6 158.7 17.8 1.5-7.7 7.3-21.3-7.7Z" class="line" />
        <path
            d="M108 153v-.7l-9.4.9 8.3-4.3-.2-.3.2.2 9.3-7.1-6 10.2-1.7.3v.3-.3l-.5.1.2.6h.4l1.9-.4-.1-.3v.3l12.8-3.2-8.1 8.7h-.5l-15.3-3.2Z"
            class="line" />
        <path d="m88 149-.4 3H87l-4-.9Z" class="line" />
        <path d="m85.3 133.7 2.8 14.6-6.2 2.6-.6-.1-3.4-15Z" class="line" />
        <path d="m77 110.3 8.2 22.8-7.5 2-9-23.2Z" class="line" />
        <path d="m94.7 130-8.9 2.9-8-22.7 11.3.7Z" class="line" />
        <path d="m95.3 129.7-5.5-19 12.1-3.8 2.4 14.6Z" class="line" />
        <path d="M111 136v.5l-8 9.6 2.1-9.7 7.4-15Z" class="line" />
        <path d="m102.3 148.1-.3-.2Z" class="line" />
        <path d="m102.7 147.6-.2-.3zl7.5-9.2-3.8 10-8.8 4.5Z" class="line" />
        <path d="M88.8 148.8 96 145l-1.7 7.8-6-.8Z" class="line" />
        <path d="m96.1 144.3-7.4 3.7-2.7-14.5 8.9-2.8Z" class="line" />
        <path d="m104.7 135.8-.1.3-7.8 7.7-1.3-13.4 8.9-8Z" class="line" />
        <path d="m101.8 147.6-6.8 5 1.8-7.9 7.5-7.4-2.1 9.9Z" class="line" />
        <path d="m95.4 153 3.9-2.7-3 3Z" class="line" />
        <path d="m117.2 140-.1.2-9.7 7.4 4.1-10.9h-.3.3l.2-.5 7.4-15.9Z"
            class="line" />
        <path d="m124 148.5-13 3.1 6.7-11.3 9.4-11.6Z" class="line" />
        <path d="m147.2 65.4.9 36.8-10.2 10-.5-36.2Z" class="line" />
        <path d="m159 62.2-11.2 2 1-27.5 11-2Z" class="line" />
        <path d="m172 69.2-12.4-7 .8-27.3 12 5.7Z" class="line" />
        <path d="m186.1 56 .4 28.2-13.9-14.6.5-28.3Z" class="line" />
        <path d="M200.8 78.9v.2l1.8 23-15.4-17.2-.4-27.9Z" class="line" />
        <path d="m279.8 86.8-22.4 9.5 11-22.7 26.3-14.8Z" class="line" />
        <path d="m295.9 58 23.4-14.2-14 27.2-.3.3-24 14.9Z" class="line" />
        <path d="m339 36.7-18.2 5.7 10.1-20 16-2.6Z" class="line" />
        <path d="m353.1 38.6-13.4-1.9 8-17 12 3.7Z" class="line" />
        <path d="m336.8 82.6-19.4 5 10.3-26 16-1.4Z" class="line" />
        <path d="m347.4 127.4-7.2-20.8 20.3 2.6 10.9 19.8Z" class="line" />
        <path d="M316.3 146.7 315 132l32-4 5.5 17.4Z" class="line" />
        <path d="m355.2 160-2-13.9 26.3 1 3.1 13.8Z" class="line" />
        <path d="m413.8 189.3-13.9-1.5 3.3-12.4 13.3 2.1Z" class="line" />
        <path d="m414.2 204-8-1.7 8-12.2 8.2 2.3Z" class="line" />
        <path d="m426.8 191.9 1.7-4.6 8.8.8 2.1 4.6Z" class="line" />
        <path d="m441.9 198.1-1.5-4.7 26.8.8 1.5 4.3Z" class="line" />
        <path d="m442.3 204-.3-5.2 26.9.3.5 4.5Z" class="line" />
        <path d="m467.9 214.8-27.4 1.8 1.3-5.9 27.2-1Z" class="line" />
        <path d="m484.6 219.8-18.1.9 1.9-5.2 17.6-.1Z" class="line" />
        <path d="m482.4 225-19 1.7 2.8-5.4 18.2-.8Z" class="line" />
        <path d="m479.3 230.4-20 2.6 3.6-5.6 19-1.8Z" class="line" />
        <path d="m416.2 258.2-19 4.4 1.9-6.8 21-3.9Z" class="line" />
        <path d="M412.5 265.4h-.1l-16.4 5 1-7 18.8-4.4Z" class="line" />
        <path d="m409.5 272.9-13.9 5.6.3-7.4 16-4.8Z" class="line" />
        <path d="m408 280.6-10.5 6.6-1.8-8 13.7-5.5Z" class="line" />
        <path d="m397.7 287.9 10.4-6.5.7 7.2-6.7 8Z" class="line" />
        <path d="m396.9 304.2 5.1-6.5 7.6 9.6-1.1 8Z" class="line" />
        <path d="m420.5 335-16.4-12.3 4.7-6.3 14 11.3Z" class="line" />
        <path d="m425.3 352.2-14-11.5 9.3-4.7 12.9 10.6Z" class="line" />
        <path d="m409.5 355-15.8-12 16.8-2 14 11.4Z" class="line" />
        <path d="m385.3 354.6-15.9-12.5 23.4 1 15.6 11.9Z" class="line" />
        <path d="m367.7 362.9-11.9-10.6 29.3 3 12.4 10.6Z" class="line" />
        <path d="m328.4 349.2 26 2.9h.3l11.9 10.6-31.3-4Z" class="line" />
        <path d="m311.5 356.9 23.5 2.4 7 8.3-26.5-2.4Z" class="line" />
        <path
            d="m283.1 368.6 2.2-1-.2-.4.2.3.3-.3 4.2-2-.2-.3.2.3 1.3-1 .9-.7-.2-.3.2.3 2-1.6-.2-.3.2.3.5-.4h.1l1.6 4.6-12.6 3.4Z"
            class="line" />
        <path d="m258.6 373 3 .7v-.3.3l9.2-1 .7 1.6-10.9 3.6Z" class="line" />
        <path d="m248.2 379.5 12-.9 14.1 23-11 2Z" class="line" />
        <path d="m227.2 364.2 5.6 13-14.8-1.9-4.9-10.2Z" class="line" />
        <path d="m192.3 350.1-.5 10.6-23.6 13 2.7-13.3Z" class="line" />
        <path d="m151.3 356.6 23.2-12-4.1 15.4-27.6 16.9Z" class="line" />
        <path d="m138 344.7 21.2-9.5-8.5 21-26.6 15.2Z" class="line" />
        <path d="m132 324.6 16.1-4.3-10.5 24-21.7 9.8Z" class="line" />
        <path d="m117 326 14.2-1.3-16.3 29.8-17.8 5.4Z" class="line" />
        <path d="m114.5 293.1 11.7 6.1-9.7 26-9.9-4.5Z" class="line" />
        <path d="m116.8 260 7.6 18.5-17.5-9.7-.2-.2L92 244.4Z" class="line" />
        <path d="m105.8 238.9 10.4 20-25-15.8-.3-.2L74.5 217Z" class="line" />
        <path d="m95.2 217 10 20.7-31.7-22-.2-.4-11.4-21.2Z" class="line" />
        <path d="m123 220.5 3.3 15.5-30.5-19.4-6-17.4Z" class="line" />
        <path d="m147.6 231.5-23.9-11.4.1-12.9 24.9 11.2Z" class="line" />
        <path d="m151.5 205.5 14.5.2 1 16-17.6-3.8Z" class="line" />
        <path d="m152.8 192 10-4 3.1 17-14.3-.2Z" class="line" />
        <path d="m153 178.2 9-5.5.7 14.7-9.9 3.8Z" class="line" />
        <path d="m144.7 171 8.9-5.8-1.2 12.6-12.6 1.9Z" class="line" />
        <path d="m133.3 160.2 14.8-2.1-3.9 12.3-18.7-2.7Z" class="line" />
        <path d="m124.4 149 12.6-5.3-4.1 15.9-17-1.5Z" class="line" />
        <path d="m148.1 103 1.9 33-12.2 6.6V113Z" class="line" />
        <path d="m159 62.8 1.3 36-11.6 3-.9-37Z" class="line" />
        <path d="m172 70 2.5 33.1L161 99l-1.4-36Z" class="line" />
        <path d="m186.5 85.1 2.1 26.3-13.5-8-2.4-32.8Z" class="line" />
        <path d="m200.2 118.8-10.9-7-2-25.9 15.3 17.2Z" class="line" />
        <path d="m217 100.7.5 15.6-14.2-13.5-1.7-22.7Z" class="line" />
        <path d="m268 111.2-18 5.2 7-19.2 22.4-9.5Z" class="line" />
        <path d="m292 99.6-.1.2-23 11 11.4-23.5 24.2-15Z" class="line" />
        <path d="M316.6 87.8 292.9 99l12.6-27.4.2-.2L327 62Z" class="line" />
        <path d="m315.1 131.2-1-18.5 25.4-6 7.2 20.7Z" class="line" />
        <path d="m281.5 149.3.9-11.5 32.1-5.8 1.1 14.8Z" class="line" />
        <path d="M316.2 159.4v-12l36.3-1.3 2 13.9Z" class="line" />
        <path d="m382.6 173.7-29-1 1.6-12 27.5.9Z" class="line" />
        <path d="m399.3 187.8-21-1.1 4.9-12.3 19.4.9Z" class="line" />
        <path d="m405.6 202.1-15.2-1.2 9.3-12.5 13.8 1.6Z" class="line" />
        <path d="m396.7 215-8-1.3 17.1-10.9 7.7 1.8Z" class="line" />
        <path d="m418.4 203.5 5.1-5.5 17.8.8.4 5.1Z" class="line" />
        <path d="m439.8 216.7-26.8.7 2-6.4 26.1-.2Z" class="line" />
        <path d="m465.7 220.7-27.8 2.6 2.4-6 27.4-1.8Z" class="line" />
        <path d="m462.5 226.8-27.8 3.2 3-6 27.7-2.6Z" class="line" />
        <path d="m458.4 233.1-27.8 4 3.8-6.4 27.7-3.2Z" class="line" />
        <path d="m396.5 262.8-13.8 3.1.5-7.4 15.2-2.5Z" class="line" />
        <path d="m395.3 270.6-12.3 3.8-.3-7.8 13.6-3.1Z" class="line" />
        <path d="m395 278.8-10.6 4.5-1.4-8.2 12.2-3.8Z" class="line" />
        <path d="m388.6 292.9-4-9 10.5-4.4 1.8 8Z" class="line" />
        <path d="m389 293.5 8.2-5.3 4.4 8.9-5.1 6.6Z" class="line" />
        <path d="m403.6 322.3-14.4-12.6 7.2-5 11.9 11.3Z" class="line" />
        <path d="m410.7 340.3-18-13.2 10.8-4 16.6 12.5Z" class="line" />
        <path d="m393 342.3-17.5-13.6 16.5-1.4 17.8 13.1Z" class="line" />
        <path d="M355.1 328.7h19.4l17.4 13.6-23.3-.9Z" class="line" />
        <path d="m355 351.6-.2-.1-11-11.4 24.5 2 15.8 12.4Z" class="line" />
        <path d="M327.8 348.5h-.1l-5.6-9.9 20.7 1.4 10.9 11.3Z" class="line" />
        <path d="m311.1 356.2-2.8-6.5 2-1.8 17 1 .2.2 7 9.5Z" class="line" />
        <path d="M282.7 368.4v-.1Z" class="line" />
        <path d="m258.1 372.2-10.3-2.8.6-.8 14.7 3.3-1.5 1.1Z" class="line" />
        <path d="m242.2 366.3 4.8 3.5.2-.2-.1.3 10.7 3 2.2 5-12.2 1Z"
            class="line" />
        <path d="m247.6 400.1-13.6-22 13.4 1.4 15 24Z" class="line" />
        <path d="m239.6 364.3 1.5 1.2 6 13.3-13.5-1.5-5.7-13.1Z" class="line" />
        <path d="m209.3 346 .6 8.6-17.5 5.8.5-10.5Z" class="line" />
        <path d="m193.8 338.5-1.5 10.9-21.1 10.2 4-15.3Z" class="line" />
        <path d="m178.5 329.2-3.8 14.6-23 11.9 8.3-20.8Z" class="line" />
        <path d="m164.8 316.8-5.3 17.6-21 9.4 10.4-23.7Z" class="line" />
        <path d="M139.8 301.8h13l-4.4 17.7-16 4.3Z" class="line" />
        <path d="m126.8 299.5 12.3 2.2-7.5 22.3-14.4 1.2Z" class="line" />
        <path d="m136.7 270 3.1 14.4-14.5-5.5-7.6-18.4Z" class="line" />
        <path d="m131.7 254.2 4.7 15-19.1-9.7-10.5-20Z" class="line" />
        <path d="m126.5 237 5 16.2-25.2-14.8-10-20.7Z" class="line" />
        <path d="m147.6 232.2 1.1 14.5-21.6-10.2-3.3-15.6Z" class="line" />
        <path d="m177 203.5 3.8 19.9-13.2-1.5-1-16.3Z" class="line" />
        <path d="m173.7 184.7 3.1 18.1-10.2 2.2-3.1-17.1Z" class="line" />
        <path d="M173.7 169.5V184l-10.3 3.2-.8-14.8Z" class="line" />
        <path d="m154.3 164.8 8.5-5.9-.9 13-8.8 5.5Z" class="line" />
        <path d="m148.8 157.9 7.6-7.3-2.7 13.8-8.6 5.6Z" class="line" />
        <path d="m160.4 99.5 1.2 30.9-11 5.2-1.9-33Z" class="line" />
        <path d="m171.3 127-9 3.1-1.3-30.5 13.5 4.2Z" class="line" />
        <path d="M181.1 127H172l3-22.9 13.6 8Z" class="line" />
        <path d="m193.3 129.7-11.5-2.6 7.3-14.6 11 7Z" class="line" />
        <path d="m231.6 126-13.4-9-.5-15.7 15.5 12Z" class="line" />
        <path d="m262.3 128.4-15.4 2.5 2.8-13.7 18-5.2Z" class="line" />
        <path d="m284.9 121.4-21.8 6.7 5.3-16.4 23.2-11Z" class="line" />
        <path d="m313.5 112.2-27.8 9 6.7-21v-.2l24-11.4Z" class="line" />
        <path d="m285.4 122 28-9.1 1 18.4-32 5.8Z" class="line" />
        <path d="m280.9 149.3-21.4.1 1.1-8.1 21-3.4Z" class="line" />
        <path d="M315.5 159.4h-34.3l.3-9.5 34.1-2.5Z" class="line" />
        <path d="m353 172.6-39.8-1.8L316 160l38.5.6Z" class="line" />
        <path d="m377.6 186.6-31.9-1.8 7.8-11.5 29 1Z" class="line" />
        <path d="m389.6 200.8-24.2-1.7 12.5-11.8 21 1.1Z" class="line" />
        <path d="m387.8 213.6-17.2-1.6 19.3-10.5 14.8 1.2Z" class="line" />
        <path d="m372.1 224-9.5-1.1 25.3-8.7 7.6 1.2Z" class="line" />
        <path
            d="m414.5 206.6-4.7 2.6.1.3-.1-.3-11 6.1-.6.3v.3-.3l-.8.3-.2-.5 17-10.5Z"
            class="line" />
        <path d="m415 207-.1-.2Z" class="line" />
        <path d="m414.5 210.2-3.7-.8 4.2-2.3Z" class="line" />
        <path d="m399.9 215.4 10-5.5 4.4 1-2 6.5Z" class="line" />
        <path d="m437.2 223.3-26.9 1.6 2.5-6.8 26.8-.8Z" class="line" />
        <path d="m434 230.1-26.5 2.5 2.6-7 26.8-1.6Z" class="line" />
        <path d="m429.8 237.1-25.3 3.2 2.7-7 26.4-2.5Z" class="line" />
        <path d="m382 266-10.4 2.2.3-8.3 10.6-1.3Z" class="line" />
        <path d="m374.4 286.7-1.8-8.8 9.8-2.6 1.4 8.2Z" class="line" />
        <path d="m379.3 297.3-4.7-10 9.4-3.2 4 9.1Z" class="line" />
        <path d="m379.7 297.9 8.6-4.1 7.7 10.4-7.3 5Z" class="line" />
        <path d="m377.3 313.4 11.3-3.4 14.4 12.7-10.9 3.9Z" class="line" />
        <path d="m362.4 315.2 14.2-1.6 14.7 13.1-16.5 1.4Z" class="line" />
        <path d="m345.9 316 15.7-.7 12.3 12.8h-19.5Z" class="line" />
        <path d="m335.2 328 19 .7 13.3 12.6-24.4-2Z" class="line" />
        <path d="m295.2 345.3 13.6-10.6-2.3 10.4v.2L294 355.9Z" class="line" />
        <path d="m281.3 351.3 13.2-5.7-1.1 10.8-12.8 5.9Z" class="line" />
        <path d="m250 361.8 15 3-1.4 6.6-15-3.4Z" class="line" />
        <path d="m209.7 338.6-.4 6.7-16.3 3.9 1.5-10.8Z" class="line" />
        <path d="m195.2 328.8-1.3 9-18.5 5.8 3.8-14.5Z" class="line" />
        <path d="m180.5 316.5-1.8 12-18.4 5.6 5.2-17.4Z" class="line" />
        <path d="m153.5 301.8 13 .8-1.6 13.5-15.8 3.3Z" class="line" />
        <path d="m140.6 285.3 12.6 2.5-.3 13.3h-13Z" class="line" />
        <path d="m152.4 275.4.8 11.8-12.7-2.5-3.1-14.4Z" class="line" />
        <path d="m150.8 262.2 1.6 12.5-15.2-5.1-4.7-15Z" class="line" />
        <path d="m148.8 247.4 1.9 14-18.4-7.7-5-16.4Z" class="line" />
        <path d="m165.6 252.5-16.2-5.5-1.1-14.5 17.5 5.3Z" class="line" />
        <path d="m190.1 204.4 5 23-13.6-4-4-20Z" class="line" />
        <path d="m186.8 184 3.2 19.7-12.5-1-3.1-18.1Z" class="line" />
        <path d="m174.7 156-1 12.9-11.1 2.8.9-13.1Z" class="line" />
        <path d="m157.2 149.8.1-.3 7.6-5.3-2 13.9-8.5 5.8Z" class="line" />
        <path d="m165 143.3-7.4 5.2 4.6-17.7 8.9-3Z" class="line" />
        <path d="m176.8 141.6-11 1.5 6-15.5h9.1Z" class="line" />
        <path d="m190 142-12.5-.4 4-13.9 11.5 2.6Z" class="line" />
        <path d="m260 140.6-15.9-1.8 2.6-7.2 15.5-2.6Z" class="line" />
        <path d="m240.6 144.4 3.2-5 16.2 1.9-1.2 8Z" class="line" />
        <path d="M280.5 159.5 258 158l1.4-8 21.4-.1Z" class="line" />
        <path d="m312.5 170.7-33.3-.1-.3-.2 2.2-10.3h34.3Z" class="line" />
        <path d="m345 184.7-39.7-2 7.6-11.3 39.8 1.8Z" class="line" />
        <path d="m364.4 199-.2.1-34.3-3 15.3-10.7 31.8 1.9Z" class="line" />
        <path d="m369.4 211.9-26.2-2.5 21.5-9.7 24 1.7Z" class="line" />
        <path d="m361 222.7-.4.2-16-1.2 24.5-9.2 17.2 1.6Z" class="line" />
        <path d="M353.3 235.1h-10.8l18.3-11.6.3-.1 9.6 1Z" class="line" />
        <path d="m372.1 224.6 3.6 1.1-13.6 10.6-7.8-1 17.5-10.7Z"
            class="line" />
        <path d="m396.8 216.2-7.7 3.5v.3-.3l-12.7 5.6-3.2-1 23.4-8.6Z"
            class="line" />
        <path d="m390.5 232.1 3.8-7.9 15 1.3-2.5 7.1Z" class="line" />
        <path d="m387.3 241 3-8.3 16.2.6-2.7 7.1Z" class="line" />
        <path d="m363.6 289.4-1.7-9.2 10-2.1 1.9 8.8Z" class="line" />
        <path d="m367.9 300.4-4.2-10.4 10.3-2.5 4.7 10Z" class="line" />
        <path d="m368.2 301 10.8-2.9 9.1 11.4-11.3 3.4Z" class="line" />
        <path d="m355 303.1 12.5-2 8.6 11.9-14.2 1.6Z" class="line" />
        <path d="m341.5 305 12.8-1.8 6.9 11.4-15.7.8Z" class="line" />
        <path d="m330.9 318.2 14.2-2 8.5 11.8-18.9-.6Z" class="line" />
        <path d="m324.8 321.6 5.5-3.2 3.7 9-11.5 1.7Z" class="line" />
        <path d="m297.7 327.9 15.9-13.1-4.5 18.9-13.8 10.7Z" class="line" />
        <path d="m282 334.8 15-6.6-2.5 16.7-13.2 5.7Z" class="line" />
        <path d="m266.3 352.7 14.3-1.2-.6 11-14.2 1.7Z" class="line" />
        <path d="m250.7 349.6 15 3-.6 11.5-15-3Z" class="line" />
        <path d="m235.4 359.4.4-6.2 13.6 8.4-1.3 6Z" class="line" />
        <path
            d="m225 346.3-.4-.4-.2.2.2-.2-.3-.3-2.3-3-.3.1.3-.2-.4-.4-.5-.7 2 .4 8.2 12.7Z"
            class="line" />
        <path d="m220.6 342.1.5.4.4.4 2.1 2.8-13.6-.4.3-6.5Z" class="line" />
        <path d="m211.2 335.4-1.4 2.6-15.2-.2 1.2-8.9Z" class="line" />
        <path d="m196.6 322.5-1.3 5.7-16 .2 1.9-11.8Z" class="line" />
        <path d="m181.2 306.5-.6 9.3-15 .2 1.6-13.2Z" class="line" />
        <path d="m153.9 288 12.8 3-.1 11-13-.8Z" class="line" />
        <path d="m166.4 279.6.3 10.8-12.8-3-.8-11.8Z" class="line" />
        <path d="m166 267.3.4 11.6-13.3-4-1.7-12.4Z" class="line" />
        <path d="m165.6 253.2.3 13.4-14.5-4.8-1.9-14.1Z" class="line" />
        <path d="m196 248.6-14.9-7.3.4-17.1 13.7 3.9Z" class="line" />
        <path d="m206 209.8 4.6 25.9-14.8-8.1-5-23Z" class="line" />
        <path d="m201 186.3 5 22.7-15.2-5.3-3.2-19.7Z" class="line" />
        <path d="m187 168.4-.2 15-12.5.5v-14.5Z" class="line" />
        <path d="m188.2 155-1.2 12.7-12.6 1 1-12.9Z" class="line" />
        <path d="m174.8 155.2-11.3 2.7 2-14.1 11.2-1.5Z" class="line" />
        <path d="m188.2 154.4-12.7.8 1.8-13 12.6.5Z" class="line" />
        <path d="m204 143.2-13.3-1.1 3-11.6 12.9 3.6Z" class="line" />
        <path d="m222.7 138 4.5-4.6 16 5.8-3.2 5Z" class="line" />
        <path d="m237 151.3 3.3-6.3 18.4 5-1.3 8Z" class="line" />
        <path d="m278.3 170.3-22.7-2.1 2.3-9.5 22.6 1.4Z" class="line" />
        <path d="m328.8 196-33.4-.1 9.5-12.6 39.3 2Z" class="line" />
        <path d="m341.8 209.3-.4.1-29-.3 16.6-12.4 34 3Z" class="line" />
        <path d="M343.1 221.6h-.4v.3-.3l-20.3 1.3 19.2-12.9h.3l25.7 2.4Z"
            class="line" />
        <path d="m341.2 235-.2.2-12.8 2.6 14.6-15.6 16.8 1.2Z" class="line" />
        <path d="m343.9 249.2-9.7 3.1 7-16.6h.2l11.4.1Z" class="line" />
        <path d="m354.4 248.7-9.7.4 8.8-13.3 8.1 1Z" class="line" />
        <path d="m376.5 226 1.5 1.6-9 10.5-6.1-1.6Z" class="line" />
        <path d="m378.5 227-1.3-1.4 9-4Z" class="line" />
        <path d="m389.2 220.8-.3-.2-7.4 9.1-2.5-2.2 10-7-.1.1Z" class="line" />
        <path d="m382.1 230 7.1-8.8 4.5 2.8-3.9 8Z" class="line" />
        <path d="m376.7 239.8 5-9.2 7.9 2-3 8.3Z" class="line" />
        <path d="m371.3 259.3-9 .7 2.1-10 8.3.6Z" class="line" />
        <path d="m371 268.3-9.7 1.6.8-9.2 9.2-.7Z" class="line" />
        <path d="m361.2 270.6 9.8-1.7.9 8.5-10.1 2.2Z" class="line" />
        <path d="m351.6 291.6-1.2-9.3 10.8-2 1.7 9.2Z" class="line" />
        <path d="m351.8 292.3 11.3-2.1 4.1 10.4-12.5 1.9Z" class="line" />
        <path d="m340 295.6 11.1-3.2 3 10.2-12.8 1.8Z" class="line" />
        <path d="m330.1 310.6 10.8-5.4 4 10.3-14.2 2Z" class="line" />
        <path d="M326.9 315.1h-.3Z" class="line" />
        <path d="m327 314.5.2-.2 2.3-3 .6 6.4-5 3Z" class="line" />
        <path d="m326.7 311.6-.3 2.7-2.8 9.1Z" class="line" />
        <path
            d="M323.5 316h.3v-.5l3-22.7.6 13.8v.2l.2.1h-.3v.3l-4.7 17.2 1.2-8.3Z"
            class="line" />
        <path d="m314.4 314 6.2-25 2.6 26.5v.4L310 332.5Z" class="line" />
        <path d="m302.3 300.4 6.5-25.3 5 38.7-16 13Z" class="line" />
        <path d="m286.8 313 14.7-11.9-4.4 26.4-15 6.6Z" class="line" />
        <path d="m252.8 332.8 13.4 3.4-.5 15.8-14.9-3.1Z" class="line" />
        <path d="m237.9 341.4 12.2 8-.7 11.4-13.5-8.3Z" class="line" />
        <path d="m225 336.6 10.2 16.1-.4 5.8-11.1-17Z" class="line" />
        <path d="m220.6 340.6-1-.8-20.4-21.8 1.6-4.3 21.7 27.3Z" class="line" />
        <path d="m211.8 335.6.7.3 4.8 3.2.1-.2-.1.2.4.3 1.7 1.7-9-3Z"
            class="line" />
        <path d="m213.2 335.5-.4-.1-1-.5-.2.3.2-.3-15.8-6.6 1.2-5.4Z"
            class="line" />
        <path d="m198.4 318.2-1.6 3.7-15.5-6 .5-9Z" class="line" />
        <path d="m167.3 291.3 14.2 5.8-.3 8.7-14-3.7Z" class="line" />
        <path d="M181.5 286.4v10.1l-14.2-6-.2-10.7Z" class="line" />
        <path d="m181 273.8.4 11.8-14.3-6.5-.5-11.5Z" class="line" />
        <path d="m180.4 258.4.7 14.7-14.5-6.3-.3-13.3Z" class="line" />
        <path d="m210.8 236.5 4.3 29.1-18.4-16.6-.8-20.6Z" class="line" />
        <path d="m223.1 218.5 5.7 32-17.4-14.4-4.6-26Z" class="line" />
        <path d="m217 191.6 6 26-16.4-8.3-4.8-22.8Z" class="line" />
        <path d="m187.6 168.4 13.4.8v16.4l-13.6-2.1Z" class="line" />
        <path d="m202 155.5-1 13-13.3-.8 1.1-12.6Z" class="line" />
        <path d="m236.4 151-17.2-5 3-7.4 17.5 6.2Z" class="line" />
        <path d="m234 161.6 2.8-9.7 20.4 6.7-2.3 9.5Z" class="line" />
        <path d="m253.7 182 1.7-13.2 22.7 2.1-3.9 12Z" class="line" />
        <path d="M294.5 196h-.2l-22.9 3.7 3.3-16 29.4-.4Z" class="line" />
        <path d="m311.2 209.1-22.8 5.7 6.3-18.2h0l33.3.1Z" class="line" />
        <path d="m321 223-17.4 7.9 8-21.1 28.8.3Z" class="line" />
        <path d="m327 238.1-11 10.3 5.6-24.8 20.4-1.3Z" class="line" />
        <path d="m333.3 252.7-7.8 9.9 2-24 13-2.7Z" class="line" />
        <path d="m340.7 263.5-8 7.3 1.2-17.7 9.7-3.1Z" class="line" />
        <path d="m351 261-9.5 2.3 2.9-13.5 9.8-.4Z" class="line" />
        <path d="m364 249.3-8.8-.6 7.1-11.7 6.3 1.6Z" class="line" />
        <path d="m361.6 260.1-9.9.8 3.1-11.5 9 .5Z" class="line" />
        <path d="m360.6 270-10.3 1.6 1.3-10 9.9-.8Z" class="line" />
        <path d="m350.2 272.3 10.4-1.6.6 9-10.9 2Z" class="line" />
        <path d="m339.6 286.3 10.1-3.8 1.3 9.3-11 3.1Z" class="line" />
        <path d="m330.6 304 8.9-8 1.2 8.6-10.6 5.3Z" class="line" />
        <path d="m328.3 309.5 1.5-3.6-.4 4.4-1.9 2.4Z" class="line" />
        <path d="m327.3 288.8 4.5-14.8-.4 12-.1.7.3.1h-.3v.3l-3.3 16.2Z"
            class="line" />
        <path d="m302 298.9-10.2-48.7 10.8-17.5 6 40v.7Z" class="line" />
        <path d="m286.7 312.1-4.9-42.4 9.5-18.6 10.3 49Z" class="line" />
        <path d="m257.6 310.7 12.9 4.9-4.2 20-13.4-3.4Z" class="line" />
        <path d="m200.3 290.5.9 13.3-19-17.6-.1-.1-.3-11.7Z" class="line" />
        <path d="m198.2 271.3 2 18.3-18.5-16.1-.6-14.7Z" class="line" />
        <path d="m215.3 266.7 5.6 29.4-22-25-2.1-21.1Z" class="line" />
        <path d="m229 251.5 9 39.4-22.1-24.6-4.4-29.2Z" class="line" />
        <path d="m239.7 227.6 9 39.8-19-16.2-5.9-32.3Z" class="line" />
        <path d="m235.3 199.2 4.3 27.5-16-8.7-5.9-26.1Z" class="line" />
        <path d="m201.6 169.3 13.7 2.7 1.6 18.9-15.2-5.1Z" class="line" />
        <path d="m216.2 157.7-.9 13.6-13.7-2.7 1-13Z" class="line" />
        <path d="m216.3 157-13.6-2.1 1.8-11 13.9 2.6Z" class="line" />
        <path d="m233.4 161.5-16.4-4.3 2-10.6 17.1 5.1Z" class="line" />
        <path d="m233.2 176.6.7-14.3 20.9 6.4L253 182Z" class="line" />
        <path d="m270.7 199.8-17 2.3v-19.4l20.4 1Z" class="line" />
        <path d="M287.6 215 272 225l-.7-24.6 22.6-3.6Z" class="line" />
        <path d="m281.6 268.7-9.5-43 15.5-9.9L291 250Z" class="line" />
        <path d="m271.2 315-3.3-38 13.3-6.9 5 42.4Z" class="line" />
        <path d="M257.6 310v-.1l-7.9-41 17.6 8 3.2 38Z" class="line" />
        <path d="m221.1 297.4.1.3 3.3 23-23.5-30.5-2-18Z" class="line" />
        <path d="m238.3 292.2.1.3 2.6 30-19.2-25v-.3l-5.7-29.6Z" class="line" />
        <path d="m249 268.4 7.7 40.7-17.7-16.8v-.4l-9.2-39.7Z" class="line" />
        <path d="m256.2 231.2 10.9 45-17.5-8.2-9.2-40.2Z" class="line" />
        <path d="m253 202.7 3 27.8-15.7-3.4-4.3-27.7Z" class="line" />
        <path d="m232.5 176.4-16.5-5 .9-13.5 16.4 4.2Z" class="line" />
        <path d="m253 202-17.1-3.3-2.7-21.4 19.8 5.3Z" class="line" />
        <path d="m267.8 276.2-11-45 14.7-5.3 9.6 43.5Z" class="line" />
        <path d="m270.7 200.5.7 24.8-14.7 5.2-3-27.8Z" class="line" />
        <path d="m216 172.2 16.5 4.9 2.7 21.3-17.6-7.3Z" class="line" />
        <path d="m201.9 304.5-.9-13 23.7 30.5-.2 12.8Z" class="line" />
        <path d="m200.4 312.4-18.2-15.6v-9.6l19 17.5Z" class="line" />
        <path d="m225.3 321.8-3.3-23 19 24.8-3.5 16.5Z" class="line" />
        <path d="m241.7 323.4-2.5-30.1 17.7 16.9.1.1-4.7 21.5Z" class="line" />
        <path d="m302.7 231.3-11 17.8-3.5-33.6 22.6-5.6Z" class="line" />
        <path d="m315 249.3-6 21.8-5.8-39.3h0l17.6-8Z" class="line" />
        <path d="m332 271.5-4.8 15.5-1.8-23v-.3l7.8-9.8Z" class="line" />
        <path d="m339.4 275.7-.1.2-7.2 9 .5-13.2 8-7.2Z" class="line" />
        <path d="m349.6 271.8-9.5 3.5 1.2-11.3 9.6-2.3Z" class="line" />
        <path d="M331.6 287.1h.3v-.2l.2-.7h-.3.3v-.2l7.1-9-.3 9-7.4 9 .4-7.9Z"
            class="line" />
        <path d="M331.3 297h-.3Z" class="line" />
        <path d="m331.3 296.5.1-.3 7.5-9.2.5 8.2-8.7 7.8Z" class="line" />
        <path d="m330 303.8-.7 1.7.9-3.8Z" class="line" />
        <path d="M327.7 309.4h.3Z" class="line" />
        <path d="m349.7 281.8-10.1 3.8.3-9.4v-.1l9.7-3.6Z" class="line" />
        <path d="M325 263.6h-.3v.4l-3.9 20.5-5.1-35 11.2-10.3-2.2 24.4Z"
            class="line" />
        <path d="M198.6 317.6 182 306.1l.3-8.5 18 15.6Z" class="line" />
        <path d="m215.2 336.2-.3.2Z" class="line" />
        <path d="m197.4 322.2 1.5-3.5 17 18.1Z" class="line" />
        <path d="M223.2 340.8 201 313l.8-7.6 22.7 30.4Z" class="line" />
        <path d="m225.2 335.7.1-12.8 12 18-2 10.9Z" class="line" />
        <path d="m238 340.7 3.6-16.6 10.6 8.5-2 16Z" class="line" />
        <path d="m267 335.5 4.1-19.8 15-2.5-4.7 21.1Z" class="line" />
        <path d="m314.2 312.2-5-38.8v-.6l6-21.8 5.3 35.5v.6Z" class="line" />
        <path d="M323.6 312.6 321 287v-.6l3.8-20 1.7 22.3v.3Z" class="line" />
        <path
            d="M327.9 307.2v-.2l.1-.2-.2-.1h.3v-.7l3-14.6-.3 4.6-.1.3.3.1h-.3v.6l-3 12.3Z"
            class="line" />
        <path d="m364.7 249.3 4.6-10.6 6.5 1.6-3 9.7Z" class="line" />
        <path d="m378.5 228 2.6 2.3-5 9.4-6.4-1.6Z" class="line" />
        <path d="m207.2 134.2 14.4 4.2-3 7.4-14-2.5Z" class="line" />
        <path d="m190.6 142.7 13.3 1.1-1.8 11-13.2-.4Z" class="line" />
        <path d="m196 249.4 2.1 21-17-12.4v-16Z" class="line" />
        <path d="m266.3 352 .6-15.8 14.4-1.2-.7 15.8Z" class="line" />
        <path d="m384.3 249.7-10.7.3 2.8-9.6 10 1.1Z" class="line" />
        <path d="m312.1 171.4-7.5 11.2-29.7.4 3.8-12 .3.2.1-.3v.3Z"
            class="line" />
        <path d="m232 127 14 4.5-2.5 7.1-15.9-5.8Z" class="line" />
        <path d="m212.7 126.5 13.9 6.6-4.6 4.7-14.5-4.1Z" class="line" />
        <path d="m180.5 241.8-.1 16-14.1-5 .2-14.8Z" class="line" />
        <path d="M224.3 346.6v.1l.4-.2-.3.2 5.1 6.6H225Z" class="line" />
        <path
            d="m321.5 329.9-.3-.2-.2.5h.3-.3v.2l-13.6 13.8 2.3-10.2 13.3-16.8-1.8 12.5h.3Z"
            class="line" />
        <path d="m382 266.7.3 8-9.8 2.6-.8-8.5Z" class="line" />
        <path d="m382.6 258-10.6 1.2 1.4-8.6 10.7-.3Z" class="line" />
        <path d="m401 247.9-16 1.7 2-8 16.5-.5Z" class="line" />
        <path d="m399 216 13 2-2.4 6.9-15-1.3 4-7.5Z" class="line" />
        <path d="m397.3 216.7.2-.1-3.6 6.8-4.2-2.7 1-1Z" class="line" />
        <path d="m281.8 137.3-21 3.3 2-11.7 22-6.8Z" class="line" />
        <path d="m233.8 113.5 15.2 3.7-2.8 13.7-14-4.6Z" class="line" />
        <path d="m218 117.6 13.4 9-4.4 6-14-6.7Z" class="line" />
        <path d="m200.6 119.7 11.5 6.4-5.2 7.4-13-3.6Z" class="line" />
        <path d="m161.4 131.2-4.7 18v.3l-7.7 7.3 1.6-20.5Z" class="line" />
        <path d="m167.6 222.6 13.3 1.4-.4 17-14-3.7Z" class="line" />
        <path d="m126.9 298.8-1.5-19.1 14.5 5.5-.6 15.9Z" class="line" />
        <path d="m210 346 13.6.4.8 6.9-13.9 1.2Z" class="line" />
        <path
            d="M225.2 353.9h4.8l4.8 5.8.2-.2-.2.3v.1l.3.3.1-.1h-.1l3.8 3.5-11.2-.1Z"
            class="line" />
        <path d="m241.6 365-1.6-1.3-2.2-2 10 6.6-.7.8Z" class="line" />
        <path d="m278.2 369.7-.1.2-13.8 1.5 1.4-6.6 14.1-1.6Z" class="line" />
        <path
            d="M320.6 334.7v-.3h-.6v.3l-.3.3.3.2-.3-.1-.2.5.3.1h-.3l-.5 1.8-.6.7-12.9 12.5 1.5-5 .1-.3 13.6-13.7-.7 2.4.3.1.3.1 1.6-4.5 12.2-1.8 7.9 11.3-20.5-1.3Z"
            class="line" />
        <path d="m315.6 342.3.4-.4-.2-.2.2.2 2.8-3.1 2.6-.2 5.5 9.7-16-1Z"
            class="line" />
        <path d="m308 349.7-.3-.3Z" class="line" />
        <path d="m303.7 354.3-.2-.2Z" class="line" />
        <path d="m307.8 350.2 2.6 6h-9Z" class="line" />
        <path d="m303.3 353.9-3.1 2.6z" class="line" />
        <path d="m305 352 2.2-2-2.3 2.3Z" class="line" />
        <path d="M319.3 337.7h.3l.6-2.2.9 2.5h-1.7l.1-.1Z" class="line" />
        <path d="m398.6 255.3-15.3 2.5 1.5-7.5 16-1.7Z" class="line" />
        <path d="m425.3 244.2-23.6 3.6 2.6-6.8 25-3.1Z" class="line" />
        <path d="m417.8 204.2 23.9.4-.5 5.5-26 .2.6-3.9Z" class="line" />
        <path d="m237 95.6 19.3 1.6-7.1 19.3-15.3-3.7Z" class="line" />
        <path d="m203.2 103.7 14.3 13.5-5 8.4-11.7-6.5Z" class="line" />
        <path d="m137.8 143.3 12.2-6.6-1.8 20.7-14.6 2.1Z" class="line" />
        <path d="m149.3 218.6 17.6 3.9-1 14.6-17.6-5.3Z" class="line" />
        <path d="m114.6 292.4-7.3-22.6 17.5 9.6 1.4 19.1Z" class="line" />
        <path d="m210.6 355.2 13.9-1.3 2.5 9.6-14.1 1Z" class="line" />
        <path d="m229 392.4-.2-.1-10.4-16.3 14.8 2 13.4 21.7Z" class="line" />
        <path d="m271 372-8.1.9 1-.8 13.3-1.5-.1.1-.5.2-1.1.7Z" class="line" />
        <path d="m272.1 374-.6-1.4 4-.4v-.3l.2.3 1.2-.7-.1-.3.1.3 5.6-2.7.4 1Z"
            class="line" />
        <path d="m290.7 363.6-11.7 5.7 1.5-6.3 12.7-5.8-1.7 5.8Z"
            class="line" />
        <path
            d="m294.3 361.2-.2-.2-.5.3-1.2 1 1.6-5.5 12-10.3-1.5 5.1-.4.6-10 8.6v.1Z"
            class="line" />
        <path d="m295.2 361 5.5-4 10-.2 4.1 8.4-18 .8Z" class="line" />
        <path d="m420.7 251.2-21.4 4 2.1-6.7 23.4-3.6Z" class="line" />
        <path d="M453.3 239.5h-.2l-27 4.5 4-6.3 27.7-3.8Z" class="line" />
        <path d="m469.1 209-27.2 1 .4-5.4 27.1-.4Z" class="line" />
        <path d="m425.3 195.8 1.2-3.3 13.2.8 1.5 4.8-17.2-.7zl-.2-.2Z"
            class="line" />
        <path d="m424.6 195.7-1.5 1.8-7.8 8.5-.2.2-.4-1.7 8.2-11.7Z"
            class="line" />
        <path d="m336.8 83.3 2.5 22.7-25.2 6 3-23.7Z" class="line" />
        <path d="M343.9 59.5 328 61l11.4-23.6 13.4 2Z" class="line" />
        <path d="M338.6 37.5 327.2 61l-21 9.6 14.2-27.4Z" class="line" />
        <path d="m243 77.9 24.6-4.1-11 22.8-19.4-1.6Z" class="line" />
        <path d="m218.5 82.4 17.9 13-3 17.1-15.7-12Z" class="line" />
        <path d="m128 127.6 9.2-13.6v29l-12.6 5.2Z" class="line" />
        <path d="m101.5 282.5-15-26 19.7 12.6.2.2 7.3 22.4Z" class="line" />
        <path d="m192.4 361.1 17.6-5.8 2.3 9.3-18.5 5.7Z" class="line" />
        <path d="M207.9 387.5h-.2l-8.7-8.7 18.6-2.8 10.3 16Z" class="line" />
        <path d="m247.6 418.6-.3-.2-17.5-25 17.4 7.3 20.9 29.5Z" class="line" />
        <path d="M269.6 431h-.2l-21.3-30 14.8 3.3L284 435Z" class="line" />
        <path d="m283.4 394-11-19.3 10.8-4.3 7.6 15.2Z" class="line" />
        <path d="m302.8 377.8-5.7-11.1 18-.9 4.7 8.4Z" class="line" />
        <path d="m447.5 246-26 5 4.2-6.2 26.7-4.5Z" class="line" />
        <path d="M475.3 235.8h-.2l-20.8 3.5 4.4-5.6 20-2.6Z" class="line" />
        <path d="m486.9 209.7-17.1-.6.2-4.8 17 1.2Z" class="line" />
        <path d="M429.3 184.8v-2.1l4.7.5 2.9 4.3-8.2-.8zl-.3-.1Z"
            class="line" />
        <path d="m428.6 184.9-.6 2-2 5.1.3.2-.3-.2-1 3-1.7-2.9 2.8-10.9Z"
            class="line" />
        <path d="m402.6 174.7-19.3-1v-12l18.7 1.6Z" class="line" />
        <path d="m352.8 87.5 7.4 21L340 106l-2.5-22.7Z" class="line" />
        <path d="m355.1 66.2-10.6-6.5 8.9-20.2 8.8 8.8Z" class="line" />
        <path d="m330 22.8-10.1 20-23.4 14 11.9-22.7Z" class="line" />
        <path d="m249.4 63.6 29.1-11L268 73l-24.7 4.2Z" class="line" />
        <path d="m220.9 66.9 21.5 10.9-5.8 17-18-13.2Z" class="line" />
        <path d="m202.4 57.7 15.4 24.1-.7 17.8-15.6-20.8-.1-.2Z" class="line" />
        <path d="M128.2 95.7v-.3l8.6-18 .4 35.5-9.2 13.5Z" class="line" />
        <path d="m97 90.8 4.8 15.4-12.2 4-8.9-23.7Z" class="line" />
        <path d="m111.5 77.7 1.1 4.7L97.4 90l-5-16.2Z" class="line" />
        <path d="m112 76.7-1.3-5.6 8.7-2.9Z" class="line" />
        <path d="m93.4 153.5 1 .1 2 .3.1-.3v.3h.4v-.3.4l5.4-.5-4.6 1Z"
            class="line" />
        <path d="m87.3 272.7-.3-.2-20.2-28.8L85 255.3l.4.4 15 25.9Z"
            class="line" />
        <path d="m182.4 391.4-7.7-1.9 23.6-10.5 8.5 8.5-24 3.9Z" class="line" />
        <path d="M195.1 395.2v.3zh-.7l-10.2-3.4 23.2-3.8h.2l13.3 14.4Z"
            class="line" />
        <path d="m265.3 445.1-.3-.2-16.6-25 20.6 11.6.2-.3-.2.3h.2l11.3 24.7Z"
            class="line" />
        <path d="m300.6 420-16.9-25.4 7.5-8.4 12.4 19.7Z" class="line" />
        <path d="m311.2 391.9-8.1-13.5 17-3.6 5.1 8.8Z" class="line" />
        <path d="m430.3 326.4.3.2 4.3 10-11.4-9.2-2.5-9.2Z" class="line" />
        <path d="m420.3 279.5-10.9 8.6-.7-7.1 14.7-7.5Z" class="line" />
        <path d="M470.3 241.4h-.2l-21.6 4.4 4.9-5.7h.2l20.8-3.5Z"
            class="line" />
        <path d="M488.5 233.5h-.2l-12 2 3.4-4.5 11.2-1.4Z" class="line" />
        <path d="M496.7 207.8v3.6l-9.2-1.7.2-4.1Z" class="line" />
        <path d="M461.1 185.4h.2l2.9 3.5-26.5-1.4-2.8-4.2Z" class="line" />
        <path d="m379 118.2 11.3 16.2L372 129l-10.6-19.5 17 8.1Z"
            class="line" />
        <path d="m366.8 99.1 11 17.6-16.8-8-7.2-20.4Z" class="line" />
        <path d="m362.8 79.8-7.2-13.1 7-17.5 4.3 14.8v.4Z" class="line" />
        <path d="M372.4 71.8v.6l-3.1 10.8-1.8-18.7V64l5-12.5Z" class="line" />
        <path d="m335.5 10.4-5 11.4-21.7 11.3 6.6-13.8Z" class="line" />
        <path d="m254.7 54.4 31.4-16-7.1 13.4-29 11Z" class="line" />
        <path d="m242.3 51.7 14.7-1.6-2.7 3.7L232 53Z" class="line" />
        <path d="m231.6 47-1.7 4.7-3.9-3Z" class="line" />
        <path d="m243.5 45.9-11 .2 3.3-19h11Z" class="line" />
        <path d="m255.2 49-11-3 3.2-18.8 11.4 5.1Z" class="line" />
        <path d="m244 46.6 10.8 3-12 1.4Z" class="line" />
        <path d="m230.7 52.5-.3-.3 2-5.5 11-.1L242 51Z" class="line" />
        <path d="m270.1 42-12.5 7.4h-1.2l-.6-.1 3.6-16.6 10.8 9Z"
            class="line" />
        <path d="m221.4 45 2.8-12.5v-.2l10.8-5-3.2 18.8-6.4 2.2Z"
            class="line" />
        <path d="m224 57.4 24.7 6.2-6 13.5L221 66.2Z" class="line" />
        <path d="m204.3 42.5 16 24-2.3 14.3-15.6-24.2Z" class="line" />
        <path d="M128.7 66.7v-.5l8.7-17.8-.6 27.4-8.5 18Z" class="line" />
        <path d="m52 252.1 9.4 16-10.8 6.3-2.3-10.7Z" class="line" />
        <path d="M47.6 263.6 34 273.9l1.6-9 8.6-14Z" class="line" />
        <path d="m23.9 265.3 12.5-10.5-1.5 9.8-14.3 8.7Z" class="line" />
        <path d="m28.3 256.4.3-.4-.3-.2.3.2 8.3-11.3-.3 9.1-12 10Z"
            class="line" />
        <path d="m7.7 285.2 9.5-2.5-1 6.4-9 1.6Z" class="line" />
        <path d="m37.4 301.4 19.5-3.7 3.1 4.9-19.3 2.3Z" class="line" />
        <path d="m85.5 308.3-3.2-10.8-3-14.1 7.5 5.1.2.3Z" class="line" />
        <path d="m87.6 288.5-.3.2Z" class="line" />
        <path d="m87.3 288.1-11.2-21.5 10.5 6.4.2.2 6.5 24Z" class="line" />
        <path d="m135 415 .7 1.4-2.9-.2Z" class="line" />
        <path d="m132 436.3 4.5-19.3 14.7-5-4.1 18Z" class="line" />
        <path d="m127.6 449.7 4.1-12.6 15.1-6.2-5.3 15.9Z" class="line" />
        <path d="m167.6 400.5.6-.1-.8.2Z" class="line" />
        <path d="M169.8 400.4v-.2Z" class="line" />
        <path
            d="m187 399-.1.4-.1.3.4.2-15.5.1h.3v-.2h.1v.1h.7v-.2h.3l.9-.3-.1-.6-2.5.5-4 .5.1.3-.1-.3-1.7.8-1 .4h.1-.1l-.2.2.2.2v.3l-.3-.5-.2.1.4.5.2-.1h.6v-.3.2l1-.2 3.4 3.3-18 6.4-2.6-2.8 6.4-2.6-.1-.3.1.3 8.8-3.8-.1-.3-.1-.4-3.7 1.2 22-10.4h.3l10.2 3.4-12 2.2h-.3v.4-.4l-5.9 1v.3l-.2-.3v.1h-.6l.1.7h.7l-.1-.4.2.3.1-.1 5.7-1h.4l4.3 1.2.1-.3v.3l.7.2.4.1.2-.6-.4-.2-.1.3v-.3l-.7-.1-3-.8 11.7-2.2h.6l11.2 7.3Z"
            class="line" />
        <path d="m208.8 404.1-.2.3Z" class="line" />
        <path d="m197 396.4 24.7 7 15.2 19.2Z" class="line" />
        <path d="m273 470-1.7-6.6 13.6 8.7 1.8 5Z" class="line" />
        <path d="m312.4 443.4-11.3-22.7 3-14 11.6 19.7Z" class="line" />
        <path d="m319.3 406-7.8-13.5 14-8.3 3.8 8.3Z" class="line" />
        <path
            d="m428.1 319.7 1.4 1.8.2.2.3-.1-.3.2.2.2 6.7 9.5-5.8-5.5-5.8-9.8Z"
            class="line" />
        <path d="m432.3 275.8-.7.6.1.2-.1-.2-12.2 9.2 1.4-5.7 15-7.9Z"
            class="line" />
        <path d="m443.6 271-14.2 9.3 2.6-3.4.7-.5 12.7-6.8Z" class="line" />
        <path d="m442 273 .7-.5-1 .6Z" class="line" />
        <path d="M443.6 264.6v.3zL425 272l4.2-5.8 19.9-6.4-5.2 4.6Z"
            class="line" />
        <path d="m450.9 258.6-.4.1v.4-.4l-20.5 6.7 4.8-5.6.2-.1 21.4-5.8Z"
            class="line" />
        <path d="m458 252.8-22 6 5.4-5.7 21.8-5Z" class="line" />
        <path d="m480.6 188.7.2.1 2.3 3.1-18-3-2.8-3.2Z" class="line" />
        <path d="m451.6 177.9.6.2 3.7 2.6-25.2-2.6-1.4-1.4v-1.9Z"
            class="line" />
        <path
            d="M423.4 162v.5h.4l-.3.1 1 1.4 1 1.8.8 2.4.3-.1h-.3l1.2 3 .3 1-2.3-3.1-2.8-7.5Z"
            class="line" />
        <path d="m393.2 124.8-7.6-7.9h0Z" class="line" />
        <path d="M373.6 86.7h-.3v.8l-1 4.5.8-19.5h-.4.4V72l2.7-7.5-2.5 22.3Z"
            class="line" />
        <path d="M364.7 7.3h.2l-1 5-11.6-4 1.2-5.1Z" class="line" />
        <path d="M337.2 4.1 336 9.5l-20.2 9 2-6Z" class="line" />
        <path d="m224.8 17.4-1 14.6-.2.1-8.6 7.4-1.6-1.7L215 27Z"
            class="line" />
        <path d="m206.7 35.2 16.8 21.9-3 8.6-16-24.1Z" class="line" />
        <path d="m153.2 11 11-2.6-2.5 8.7-10.9 2.3 2.2-8.3Z" class="line" />
        <path d="m130.3 47 .2-.7 8.6-15.6-1.7 15.7h.4-.4v.4L129 64.4Z"
            class="line" />
        <path d="M64.2 145.8h.3l-1-11.2 4.1 12.2-3-.8v-.2Z" class="line" />
        <path d="m72.4 156.7.3.2 30 16.6-8.3 3.6L63.3 159Z" class="line" />
        <path
            d="m43 247.6.2-.2h.3l-5.6-15 13.6 18.8v.1L48 262.6 44.5 250l-.3.1.3-.1-.6-1.6-.3.2.3-.2-.1-.2-.3-.7-.6.2.3.7.3-.1-.3.1.1.3.5 1.4-8 13.1 1.4-9.2H37h.3l.6-18Z"
            class="line" />
        <path d="m34 236.6 1.1-1h.1l.5 1.4-1 1.3-5.4 3.6Z" class="line" />
        <path d="m28.1 247.2 1-1 5.3-4.7-1.7 5.4-9 6Z" class="line" />
        <path d="m2.9 284.8 4.2.5-.6 5.4-3.8-1Z" class="line" />
        <path d="m41.5 305.4 19-2.2 3.2 4-18.3.7Z" class="line" />
        <path
            d="M78.3 326.7h.4v-.4l-.2-.2.3.1 2.5-14.5H81h.3l1-12.3 3 10.8v.3l-7 19 .4-2.8Z"
            class="line" />
        <path d="m140.5 453.9 1.6-6.6 18.4-11.3-2.7 9.5Z" class="line" />
        <path d="m255.7 451.6-3.3-7.6 18 18.5v.2l1.7 6.4Z" class="line" />
        <path d="m321.5 441.5-5.1 16.3-3.5-13.4 3.3-16.8 5.3 13.6Z"
            class="line" />
        <path d="m331.4 400-.3-.1-6.6 17.8-4.8-11 9.8-13.4 1.7 6.3-.1.3Z"
            class="line" />
        <path d="m426 315.1 1 2.4-3.8-4.3-.5-.8-1.5-6.7 1.2 2.4h.1-.1Z"
            class="line" />
        <path
            d="m419.3 299-.3.1.4 1.6.3-.1h-.3l.1.5.6-.2v-.4l-.5-1.4 2.9-6-.2.9v.2l.2.2h-.3l-.6 4.6-.8 4.2-.7-2.1h-.3l-.3.1 2.2 10-4.8-6v-.3l1.5-9.5.6 3.7Z"
            class="line" />
        <path
            d="m452.6 265.9-5.4 3.1 1.1-1 1.4-.7.3-.1-.1-.3.1.3 3.3-1.8h0l-.5.3.1.3-.2-.2Z"
            class="line" />
        <path d="m456 262.1-16.7 7.5 4.6-4.4.4-.1-.1-.3v.3l15.6-6Z"
            class="line" />
        <path d="m462.6 257.4-17 6.4 5.1-4.4.4-.2v-.3.4l16-5.3Z" class="line" />
        <path d="m468.6 252.7.1.3Z" class="line" />
        <path d="m452.5 258 5.4-4.5h.4v-.4.3l15.1-4.5-4.4 3.7Z" class="line" />
        <path d="m474.7 247.8.1.3Z" class="line" />
        <path d="m459.5 252.4 5-4.6h.3l14.4-4-4 4Z" class="line" />
        <path d="m491.8 236-6 1.8 2.8-3.7h.2l5.4-1.2-1.6 2.1.3.2-.3-.1-.1.2Z"
            class="line" />
        <path d="m477.5 185.4 2.3 2.5-18.2-3-.2-.1-3.3-3 19 3.5Z"
            class="line" />
        <path d="m476 184.4-18.8-3.5-3.4-2.4 18.9 3.6.6.3Z" class="line" />
        <path d="m467.3 179.4 1.1.3 2.6 1.5-18.6-3.7-.5-.2-3.4-2.2Z"
            class="line" />
        <path d="m444.4 173.7-16.4-3-.8-2.2 13.1 3 .9.4Z" class="line" />
        <path d="m438.2 170.4-11.3-2.6-.6-1.6 9.8 3Z" class="line" />
        <path d="m431.3 166.7 1 .7-6.3-2-.5-.9Z" class="line" />
        <path d="m241.4 4.5 10.1.2-3.1 6.8-11.1-.1 3.2-6.9Z" class="line" />
        <path d="m179.7 7 12.3 9-2.3 4.6-12.5-10Z" class="line" />
        <path d="M142.3 19.9v-.2l9.9-8-2.1 8-10 8.5Z" class="line" />
        <path d="M132.1 36.8h.4v-.2l8.6-14.7-1.9 7.1-8.3 15.1 1.6-7.3Z"
            class="line" />
        <path d="m114.4 57.7.8.3 7.5 4-.9 1.5-9.8-4.7Z" class="line" />
        <path d="M51.9 82.4v-.6L55 73l3.4 14.5-3.1 8.5z" class="line" />
        <path d="M58 123.2h-.2z" class="line" />
        <path
            d="m60.4 132.5.3-.2-.2-.2v-.5h-.3v-.1h.2l-2.8-13.8 5 13.8v.3h.4-.3l.9 10.9-2.5-8.3v-.3h-.2l.2-.1-.2-.3-.2-1.3Z"
            class="line" />
        <path d="m49 145.6.5.2 22 10.5-9 2.2-22-10.7Z" class="line" />
        <path d="m39.5 148 .1-.2Z" class="line" />
        <path d="m61.9 159-5.6 6-22-11.3 5.1-5.7Z" class="line" />
        <path d="M24.6 143.4h.3l13.9 4.4-5 5.6-14-4.7Z" class="line" />
        <path d="m6.8 174-.3-.8 3.3-4 6 14.8-2.3 4.8Z" class="line" />
        <path d="m14 190-.2-.4 2.3-4.9L29.6 206l-1.6 5.3Z" class="line" />
        <path d="m36.6 229.2-6.6-14L49 240v.3l2.1 9.3-14-19.5Z" class="line" />
        <path d="m14.2 258.8.5-.4 6.2-3-4.5 6.8-.2.2-5.8 2.2Z" class="line" />
        <path d="m3 293.6-.2-3.2 3.7 1 .3 4.8-3.5-1.6Z" class="line" />
        <path d="m14.8 308.2-1-.4-2-2.2 8.7-.3 3 2.6Z" class="line" />
        <path d="m29 310.2-3.7-1.8 15.2-2.8 3.9 2.5-15 2.2Z" class="line" />
        <path d="m39.3 312.5-1.6-.3 13-1h.8l3.8 1.4-10.6.3Z" class="line" />
        <path
            d="M59.1 313.4v.3l1.5.6-.7-.1v.3-.3l-9.2-.8 6.3-.2 1.5.4.4.1.2-.6-.5-.2v.3-.3l-1.5-.3-3.3-1.2 14.8.8 3.3 3-12.7-2.1Z"
            class="line" />
        <path
            d="m76.5 335 .3.1.7-1.9.2-.4-.6-.2-.2.4.3.1H77l-.7 1.8-3.7 8.6 5-14.2-.4 3.2h.3l.3.2 7.4-19.6-1.7 15.3L70 353.8l7-18.7Z"
            class="line" />
        <path d="m67.8 359.3.4-.9 15-28.2-1.9 15.8-16.2 29.5Z" class="line" />
        <path d="m78.6 425.4-3.2-6.1 14-1.3 3.2 6.4Z" class="line" />
        <path d="m116.3 452.3-.2-.2.3-4.3 10.3 2.6-.7 5Z" class="line" />
        <path d="m181.7 429-23 15.9 2.6-9.4 24.5-12.8Z" class="line" />
        <path d="M225.8 424.7v-.2l-.4.1.3-.1-4.5-7.1 29.3 24.6.5.6 3.5 8Z"
            class="line" />
        <path d="m224.9 427 .8.7-1.2-.9Z" class="line" />
        <path d="m326.3 424.4-1.4-5.9 6-16.5v2.2Z" class="line" />
        <path
            d="m346.4 391.4-2.8 1.4.2.3-.2-.3-11.8 6.3-1.8-6.3 20.7-5.4-1.7 2.5Z"
            class="line" />
        <path d="m377.2 388.7-17.2.6v.4-.4l-1.5.3-8.7.2 1.8-2.6 27.2 1Z"
            class="line" />
        <path d="m407 389-24.7-1.3 1.8-2.3 25 1.2Z" class="line" />
        <path
            d="m451 358-.2-.3-.1-.4-.6.2.1.4h.3-.3l.1.3v.4l-2.7 8-1.1-4.1 2.4-8.2 1.2 3h.3l.3-.1-3.3-11.6-.3.1.3-.1-2.3-4.3-.3.2.3-.2-1.4-2-.2-.3-.3.1.3-.2-.2-.2-10.3-14-.1-.3-.3.2.2-.3h0l-6.3-9.5-3.1-6-.5-2.1-.7-7.7.4-2.8 2-4h-.1l.1-.2-.4-.4h-.2l.5.6-.3-.1-.2-.2-.9 1 .3-1.4 2-2.2-1.1 1.8.3.2-.3-.2-.2.3.6.3 3.2-5-.3-.2-.2-.2-3.4 3.6-.3-.2.3.2.3-.9 1-2 5-4.1h0l.2.3-.2-.3-.5.4v.1h0l.2.3-.2-.2-.5.4.2.2-.3-.2-.1.3-.3.2.2.3-.2-.3-1 1.1.5.4 1-1 .3-.3-.2-.2.2.2.2-.3.7-.6h0v-.1h0l.2-.2 1-.8-.2-.1.1.1 1.1-1 5.8-5 4.5-3.5.6-.4h0l.8-.6.5-.3-.2-.3.2.3.3-.3 7.8-5-.2-.3.2.2.1-.1.5-.3-.2-.2.2.2 7.4-4.7-.1-.3.1.3 6.7-4.3-.2-.3.2.3 6.4-4.3-.2-.3.2.3 5.5-4.1-.2-.3.2.3 5-4.2-.2-.2.2.2 4-3.8-.3-.3.3.3 3.6-4 .8-.9-.3-.2.3.2.2-.3 2.3-2.9-.1-.1h.2l2.2-3.6-.3-.2.3.2 1.5-3.1-.3-.2.3.1 1.2-3.5h-.2.2l.7-3.9h-.3.3l.2-1-.3-.1h.3v-1.2l.2-.7h-.3.3V214h-.2.3v-3.6h-.4.4l-.4-3.2h-.3.3l-.7-3h-.3l.3-.1-1.3-3-.3.2.3-.2-1.9-3-.2.2.2-.2-.6-.7v-.2l-.4.2.3-.3-6-6.2-.8-.9-.2.2.1-.2-.4-.3-3.5-2.9-.2.3.1-.3-3.9-2.3-.1.2.1-.3-1-.4h0l-.3.2.1-.3-.3-.2-.1.3.1-.3-.7-.3-.3.6.8.3.2.1.1.1.2-.2-.1.3 1 .4.3.2-8.3-3.4-.1.3.1-.3-.7-.3-.5-.2 6.9 2.7.2-.6-13.7-5.7v.3l-.2.3h-.2l.3-.6-.9-.4-.1.3v-.3l-.4-.2-.2.6.4.2.8.3-18.6-4.2v.4-.4h-.4l-2.8-1.6 17.8 4.3 1.6.6.7.3.3.1.3-.6-.3-.1-.1.3.1-.3-.8-.3v.3-.3l-7.3-2.8-.1.3v-.3l-1-.3h0l-.2.2v-.3l-.6-.2-.1.7h.5v.2l.3-.3-.1.4 1 .3.7.2-15.7-3.8-1.8-1 15 4v-.7l-11.9-4h0l-.3.2.1-.3-.9-.3-.2.6.8.3h.1l.3-.1-.1.3 1 .3-6.3-1.7-1.3-.4-1-.7 6.3 2 .3-.6-8.6-3.4-.1.3.1-.3-6.4-3.1-2.5-1.5-1.5-2.2-.3.2.3-.2-6.7-9.5-.3.1.3-.2-7-7-6.2-8.5-.2.2.2-.2-7-8.7-.3.2.3-.2-.6-.6-.2.2.2-.2-.3-.2-1-1.2-.3.2.3-.2-.3-.3-1-1-.3-.5-.3.2.2-.2-1-1-.2-.4-.3.2.2-.3-1-1-.1-.1-.3.1.2-.2-1.1-1.1-.1-.3-.3.2.2-.3-.1-.1-.3.2.3-.2-.2-.1-.2.2.2-.3-.6-.4-6.3-6.1-.2.2.2-.2-1.8-1.6-.2.2.2-.2-1.8-1.4-2.5-3.8v-.2h-.1 0v-.4l-.1-.7 1.5-20.5 3-26h-.3.3l.2-22.3h-.4l.3-.1-4.3-16.2-.3.1.2-.2-8.5-9.8-.2.2.2-.2-.1-.1-.3.2.2-.3-.3-.1-1-.9-.2.3.1-.3-11.7-4.4-.1.3v-.3l-15.7 1.1V3l-.2-.3-20.5 9 .1.4-.1-.3L291 28.5 280.3 17v-.3l-.4.2.3-.3-1.4-1.2-.2.2.2-.3-11.5-8-.2.3.1-.3-9.9-3.3-.1.3V4l-2-.4-.1.3v-.3l-11.6-.2v.3-.3l-2.2.3-1 .1v.3V4l-12 4 .2.4-.2-.3-11.7 9.1.2.3-.3-.2-.5.5.3.2-.3-.2-.6 1 .3.2-.3-.2-.2.2-.5.7.3.2-.3-.2-.1.3.3.2-.3-.2-.2.2-.3.4.3.2-.3-.1-.3.5.3.2-.3-.2-.5.8.3.2-.3-.2-.3.5-.3.4.2.2-.3-.1-.3.5-.4.7.2.1-.2-.1-4 5.9.2.2-.2-.2-.2.3.3.1-.3-.1-.3.5.2.2-.2-.2h0l-11.8-14-.3.3.2-.3-12-8.6-.2.2.1-.3-3.4-1.7-.2.3.2-.3-.3-.2-.2.3.1-.3-12.2-2.5-.1.3v-.3l-11.8 3.4.1.3-.2-.3-10.8 9 .2.3-.2-.2-2.7 3 .2.3-.2-.2-.2.3.3.1-.3-.1-9.8 16.7.3.2h-.4v.2L123.6 60l-4-1.8-.2.3.1-.3-13.4-4.8v.3l-.2.3 7.7 3.4-2.4 1-16.6-7.9h2l1.5.2 6.7 3 .2-.3-.1.3.4.1.2-.6-.4-.1-.3-.2-.1.3.1-.3-6.4-2.8-.2.3V50L82 47.6v.3-.3h-.3l-.6-.2v.4-.4h-.6l-.2-.1-.1.3v-.3h-1.3v.7h1.4l.2-.3v.4h.5l.6.1V48v.3h.3l10.7 2.2-2.7 2.5-13.5-3.4 2.6-1.5-.2-.3-.1-.3-9.4 2.4.1.3-.1-.3-3.7 1.6.1.3-.2-.3-.6.4.2.2-.2-.2-6.8 6.3.3.2-.3-.2-2.6 4.6.3.2-.3-.1-3.9 9.9.3.1h-.3l-.3 9.4h.3-.3l-.1 8h.3-.3l.7 6.2v1h.3-.3l.1.4.1 1.2h.3-.3l.2.7.3-.1h-.3l.1.5.3-.1h-.3l.1.5.7-.2-.3-.8-.1-.5-.1-1.3h-.4.3v-1.4H52h.4L52 85.7l3 11.5.8 12.4-2.7-9.2-.3.1-.4.1 4.8 22 .3-.1h-.3l.1.6h.3-.2v.3l.2.7.3-.1h-.3l.1.6h.4-.4l.3.9.5-.2v.1l-.2.1H58l2.8 11.2v.2h.3-.3l.2.6h.3l-.3.1.1.2 1.5 7.5-12.6-3-.3-.2-.1.3v-.3l-1-.3-.5-.1v.3-.3l-.6-.2v.3-.3l-13-1.1-.1.3-.1.3 13.5 4.3-8.1 2.1h-.2l-.2.2.1-.3L26 143l7.4-2v-.7l-9.2.3v.3l-.1-.3-8.3 2.2.1.3-.2-.2-5.7 5.6.2.2-.2-.2-4.1 4.3.2.2h-.3l-2 8.1h.4l-.3.1 1.9 12 .3-.1-.3.1 5.7 16.6.3-.1-.3.1 9.2 16.7.3-.1-.3.1 1.6 2.7.3.5.2-.1-.2.2.1.1 8.3 14.3 3.5 9.1-5.3 6-7 7.5.2.2-.3-.2-5.8 6.4.2.3-.2-.3-5.1 6.4.3.2-.3-.2-4 6.2.3.2-.3-.2-3 5.7.3.2-.3-.1-1.8 5.4.3.1h-.3l-1 5.2h.3-.3v5.2h.3-.3l1 6.2h.3-.3l.3 1.3.3-.1h-.3l1.4 4.4.3-.1-.3.2 1.9 3.3.2-.1-.2.2.8.6 2.3 2.5.2-.2-.1.3 4.3 2.3.2-.3-.2.3 1 .5 3.8 2 .2-.3v.4l1.1.1 4.4 1.1v-.3.4l15.2 1v-.3.3l5.5.3 15.1 1.3.9.3v-.2.3h.8l6.7 1.4h.1v0h.5v-.6l-1-.2-4.8-1.4 9.8 1.7 1.5 1.5-1.5-.5-.1.3v-.3l-3.2-1H69l-.2.5.5.2v-.3.3l3.3 1 1 .4 2.5 1.1.7.6.4.4-.3 9-17.7 47.9.3.1.3.1 7-15.7-2.6 15.6-6 16.6.4-12.9.7-2.3.1-.3-.3-.1h.3l.4-.7-.6-.3-.4.8-.1.3.3.1h-.3l-.7 2.4h.3-.3l-2 10.6h.3-.4v2.5h.3-.3l1 12.9h.4-.3l.1.6.3-.1-.3.1 2.9 6.2.3-.1-.3.2 6.7 7.6.2.2.2-.1v.3l3.8 1.8.1-.3v.3l.4.1.2-.6-.4-.1-3.8-1.8-2.7-5.3 10 3.4 3 5.9-4.7-1.6-.1.3-.2.3 5.9 2.1.1-.3h.2l-.1.3.9.3v-.3.3l.4.2h0l.3-.2-.2.3 5.1 1.6.6-.1 13.2-1v-.3.3l1.9-.3-.1-.4.1.3h.3v-.4.3l.4-.1-.3-.6-.6.2-1.6.3-.2-.2-.2.2v-.3l-4.8-1.7 18.8-6.7 5.2 2.1-15.8 5.5.1.4-.2-.3-.6.5.2.3v.3h.1l.5 4.7h.3-.3l1 3.7.4-.1-.3.1 4 9.2h.2l-.2.1 8.1 8 .2-.2-.1.3.4.3 2 1.5.3-.2-.1.3 9.4 3.3.1-.3v.3l13.2-.8v-.3.3l17.5-7.7-.1-.3.1.3 2-1-.2-.3.2.2.4-.4-.4-.5-.4.4-1.4.8-.2-2.6 22.9-15.8-1 2.8-19.7 14.4.2.3.2.2 22.2-15.6-.2-.3.2.3 1-.6.2-.2-.1-.3.1.3 9.4-5.1h.4v-.1h0l.4-.3-.2-.2-.2-.3-.7.4-10.8 3 4.2-6.7h.2l14.8 1-7.5 2.3.2.6 9.6-2.8 12.3.6v-.3.3h.4l.2.2.1-.3v.3l4.4 1.8.3-.6-4.8-2-.1.3v-.3h-.4l-23.6-9.6 1.8-6.8 30.4 18v.1l-.4 1.4-2.2-.8-.5-.3-.3.6.5.3 8.6 6.3 24 20.7 17.6 18 .3-.3-.2.3 14.7 7.4.1-.3v.3l12.4 1.2v-.3l.2.3 9.7-3.4-.1-.3.2.2.6-.6.2-.1-.2-.2.2.1 7.5-9.4-.3-.2.3.1 5.3-16.5h-.3.3l3.2-23.5 5-21.4 12.4-11.1 2.7-1.4 11.8-1.8h.6v0h0l1-.2 17.1-.7 25 1 .1-.3v.3l2.6-.3v-.4.4l.8-.2v-.2.2l1.2-.2h.1v-.3.3l12.9-1.3v-.4.3l3.4-.8v-.3.3l1.9-.5-.1-.3.1.3 12.2-5.1-.1-.3.2.2.7-.8 7.5-7-.3-.1.3.1.8-1.2 1-1.2-.3-.2.3.1 3.2-9.4h-.3.3l.3-3.3h-.3.3zh-.3Z"
            class="line" />
    </g>
</svg>