<svg xmlns="http://www.w3.org/2000/svg" xml:space="preserve" style="fill-rule:evenodd;clip-rule:evenodd;stroke-linejoin:round;stroke-miterlimit:2" viewBox="0 0 421 419"><path d="M157.402 10.442c-.194-2.29-3.532-2.27-3.726.01-.233 2.74 3.962 2.68 3.726-.01M223.555.052c-2.451-.53-3.253 3.17-.802 3.7s3.253-3.17.802-3.7M81.272 42.412c-1.6 1.93 1.319 4.35 2.918 2.42 1.602-1.93-1.317-4.35-2.918-2.42M291.602 14.982c-1.952-1.46-4.136 1.41-2.355 2.94.034.03.078.04.114.06.037.03.057.07.096.1 2.049 1.32 4.049-1.69 2.145-3.1M268.563 60.762c-2.432.49-1.721 4.16.72 3.71 2.904.52 3.233-4.52-.72-3.71M350.495 52.982c-1.528-1.99-4.534.32-3.007 2.31 1.528 1.99 4.534-.32 3.007-2.31M31.636 103.962c-2.38-.6-3.347 3.07-.924 3.68 2.4.61 3.325-3.07.924-3.68M391.15 106.222c-.76-2.8-5.38-1.11-2.991 2.25.041 1.23 1.091 1.94 2.111 1.81 1.33-.16 2.19-1.7 1.289-2.96-.01-.37-.01-.61-.409-1.1M419.069 181.142c-2.49-.28-2.91 3.49-.42 3.77s2.92-3.49.42-3.77M195.724 107.672c-3.083-1.27-3.614 4.38-.479 3.97 2.008-.26 2.25-3.24.479-3.97M120.472 90.912c-2.504-.13-2.69 3.66-.185 3.78 2.505.13 2.69-3.66.185-3.78M56.813 133.562c.028-.92-.723-1.92-1.84-1.95-1.74-.05-2.695 2.21-1.239 3.37 1.183.95 3.037.12 3.079-1.42M11.686 188.372c-1.97-2.14-4.537.55-2.933 2.34.398.45.102.2 1.067.62 1.663.3 2.824-1.61 1.866-2.96M401.408 183.842c-.269-2.57-4.24-2.04-3.709.57-.46 2.76 4.13 3.3 3.709-.57M287.725 145.902c-1.704-2.16-4.907.85-2.631 2.63 1.719 2.26 4.913-.9 2.631-2.63M118.108 167.942c-1.744-2.17-4.822.9-2.611 2.64 1.766 2.34 4.886-.97 2.611-2.64M207.792 208.652c1.27-.17 1.871-1.56 1.637-2.13.102-2.13-2.81-2.76-3.624-.83-.598 1.42.353 3.17 1.987 2.96M5.496 167.222c-2.504-.13-2.702 3.66-.198 3.79s2.702-3.66.198-3.79M3.704 236.302c-.416-2.45-4.091-1.84-3.67.63.421 2.5 4.086 1.8 3.67-.63M351.941 187.292c-2.439.58-1.556 4.27.882 3.68 2.44-.58 1.557-4.27-.882-3.68M23.204 278.632c.112-2.72-3.905-2.48-3.758.04.139 2.29 3.67 2.37 3.758-.04M129.397 264.952c-3.095-.33-2.576 4.66.693 3.66 2.114-.64 1.605-3.83-.693-3.66M372.189 263.902c-.15-.84-.81-1.49-1.66-1.56-1.74-.16-2.74 2.05-1.48 3.26 1.26 1.19 3.46.14 3.14-1.7M21.715 301.772c-2.048 1.45.14 4.55 2.187 3.1 2.049-1.45-.139-4.54-2.187-3.1M52.178 226.272c-2.065-.34-3.065 2.41-1.294 3.49.477.28 1.436.32 1.851.19 2.073-.6 1.689-3.71-.557-3.68M410.88 261.632c-2.13-1.33-4.14 1.89-2.01 3.22s4.14-1.89 2.01-3.22M220.422 302.962c-2.754-.49-2.989 3.73-.319 3.73 3.897-.01 2.847-4.23.319-3.73M383.55 325.212c-1.7 1.84 1.09 4.42 2.79 2.57 1.699-1.84-1.09-4.41-2.79-2.57M62.699 353.862c-1.547.41-1.902 2.4-.659 3.33 1.043.77 2.785.31 2.982-1.29.174-1.39-1.023-2.38-2.323-2.04M79.207 318.202c-2.184-.25-2.92 2.72-.977 3.59.446.19 1.609.32 2.33-.29 1.365-1.15.542-3.44-1.353-3.3M304.957 331.432c-3.332-.72-3.438 4.16-.459 3.71 2.344.07 2.668-3.24.459-3.71M152.962 339.662c-2.331-.92-3.729 2.6-1.397 3.52 2.33.93 3.728-2.6 1.397-3.52M365.66 336.932c-.1-2.46-3.82-2.3-3.72.16.11 2.46 3.82 2.31 3.72-.16M290.668 390.282c-2.445 2.45.908 4.85 2.474 2.82 2.148-1.64-.602-4.69-2.474-2.82M340.017 376.772c-.469-2.44-4.141-1.73-3.661.72.479 2.49 4.133 1.71 3.661-.72M129.149 402.642c-2.479-.38-3.055 3.36-.577 3.74 2.479.39 3.055-3.36.577-3.74M136.571 385.622c-.086-1.64-2.128-2.39-3.252-1.18-.951 1.01-.477 2.61.73 3.05 1.182.43 2.598-.46 2.522-1.87M222.021 378.432c-.26-1.62-2.359-2.14-3.353-.82-.823 1.09-.217 2.63 1.053 2.94 1.26.32 2.521-.76 2.3-2.12M208.032 414.842c-2.495.26-2.101 4.03.394 3.77s2.1-4.03-.394-3.77M276.209 407.712c-2.494.26-2.1 4.03.394 3.77s2.1-4.03-.394-3.77" style="fill:#c6c6c6;fill-rule:nonzero"/><path d="M409.84 260.322c-1.09-7.71-2.45-15.52-3.77-23.09-3.021-17.28-6.13-35.14-6.17-52.85l18.56-.97zm-38.96 3.53 28.34-77.25c.28 17.05 3.24 34.17 6.14 50.75 1.46 8.39 2.97 17.05 4.1 25.54zm13.779 62.39-19.879 9.88 43.32-69.36zm-20.669 11.15.06-.1 19.3-9.6-42.681 46.23zm-79.142 63c5.958-6.89 6.94-8.02 7.354-8.45l42.284-13.27-56.562 29.73zm-72.788 15.57 78.534-23.3c-.941 1.07-14.37 16.6-14.37 16.6zm-75.874-30 83.478-6.83-11.66 37.1zm-6.856 18.26 5.591-18.01 70.489 29.71zm-83.492-71.02c-14.05-17.71-14.05-17.71-19.115-24.94-.959-1.37-2.108-3-3.561-5.06l-1.351-22.77.173.37-.049-.39 38.932 71.77c-6.314-7.99-11.196-14.14-15.029-18.98m-41.971-91.43 16.567 35.69-.161-.11.712 1.31 1.292 21.76zm1.757-70.1 4.154 17.81-7.24 41.24zm.464-5.17 23.577-56.17-19.505 77.61-4.398-18.84zm86.058-109.95-.204.41-58.264 46.39 49.043-59.15zm60.345-44.17-59.85 43.63-9.349-12.25zm70.593-10.11 17.269 9.42-79.85-1.36zm61.847 13.38-41.991-3.58-.889-.37.046.09-.131-.04-16.44-8.97zm50.059 33.73c-6.227-1.95-7.886-2.47-8.585-2.73l-1.004-.95.18.49-30.912-26.58 51.882 33.38c-5.002-1.57-8.747-2.73-11.561-3.61m-7.337-1.55c1.234.39 14.878 4.66 21.122 6.61l37.524 48.88zm71.337 134.79-47.679-69.19 38.039-5.63.02.07c.01.05.13.35.35.89zm-46.163 6.82 46.352-5v.19l-28.749 78.35zm17.853 75.24.17.05-.04-.16 38.41-.96-44.92 71.93zm-150.15 114.48 70.422 12.64-82.175 24.38 11.604-36.92.149.08zm-68.083-37.22 66.497 36.53-83.701 6.84zm-73.989-21.83-.286.3h.274l-15.306 34.44-40.735-75.08zm-26.48-91.46 26.384 90.5-56.542-40.69zm-31.284 47.67-18.45-39.75 7.844-44.68zm34.129-143.44-.208.42-43.715 54.65 20.458-81.4zm24.894-50.79c-7.991 16.46-16.251 33.47-24.549 50.09l-23.471-26.33 59.508-47.39c-3.826 7.83-7.651 15.72-11.488 23.63m12.585-24.23 27.545 34.85-63.718 39.15c8.193-16.41 32.198-65.87 36.173-74m83.834-17.74-19.903-29.14 83.906 1.43zm115.086 15.98c-19.184 5.48-21.3 6.08-22.064 6.14l-25.555-49.12 80.896 33.49c-14.661 4.17-25.414 7.24-33.277 9.49m59.852 58.25 47.816 69.4-46.157 4.98zm-51.268 130.56 52.381-55.05 17.683 73.86zm5.061 87.53-5.346-86.87 70.159 18.84zm58.613 4.19-58.128-3.66 64.558-67.75zm-58.635-2.97 57.965 3.65-70.246 53.44zm-.757.1-12.358 57.45-70.536-12.66zm-84.347-28.36.067 72.72-66.799-36.69zm-140.129 15.53 53.843 63.88-69.805-29.33 15.5-34.88zm48.992-54.02-49.433 52.44-26.389-90.52zm-77.198-38.71-29.839 49.29-10.94-87.09zm3.122-93.63-2.669 93.07-41.222-38.21zm61.791 33.94-60.928-35.15c.046-.09.091-.19.136-.28l64.461-39.62zm78.174-59.57-73.368-16.34 54.693-51.03zm.725-.08-18.802-67.83 91.613 21.74zm91.281 37.66-17.089-83.43.217.05-.081-.15 80.085 49.8zm.344.64 63.438-33.91.049.05 1.679 75.16zm12.55 97.14-12.357-96.18 64.785 41.08zm-27.229 77.66c-11.904-4.06-28.243-9.65-50.627-17.29l77.277-58.88 5.356 87.05c-1.225-.36-6.502-2.16-32.006-10.88m-51.654-16.81h.208c22.695 7.75 80.467 27.49 82.645 28.19l-82.835 44.79-.065-72.79.074.03zm-90.388-37.67c2.191.86 65.858 27.58 89.196 37.37l-66.838 36.05zm-.829-.25 22.432 73.66c-18.907-5.54-70.466-20.66-72.015-21.06zm-12.647-97.62 12.112 96.57-75.925-38.13zm133.902-37.67c-12.973-5.35-30.666-12.64-54.764-22.59l72.912-46.15 17.073 83.35c-2.156-.98-9.315-3.93-35.221-14.61m-42.281 74.4 77.914-58.77.062.03 12.452 96.92zm12.39 98.09h-.24l-12.475-97.45 90.48 38.2zm-13.384-97 12.392 96.79c-23.384-9.81-87.863-36.88-89.684-37.56zm-54.801-23.09c12.934 5.28 30.581 12.47 54.649 22.3l-77.642 59.49-12.065-96.18c2.092.95 9.13 3.82 35.058 14.39m42.251-73.92 12.392 95.44c-23.933-9.77-88.621-36.15-89.838-36.77zm.669-.45c24.159 9.97 87.996 36.29 90.073 37.24l-77.637 58.56zm-74.673-16.73 73.789 16.44-77.462 58.68zm-4.677 75.94-63.453 58.11 2.67-93.18zm209.511-122.12c.131.06.254.12.414.18l23.684 64.71-79.189-49.24c1.922-.48 39.977-11.35 55.091-15.65m-57.291 15.02-91.122-21.61 64.689-28.01.738.24zM92.81 56.832l82.046-15.34-54.436 50.78-27.765-35.13zm-12.406 263.93c2.356.66 52.371 15.33 71.383 20.89l-17.205 43.38zm308.655-213.83.091.17-38.295 5.66-.299-.43-23.426-64.01zm-98.728-90.1 33.32 28.65-78.549-32.51zm-134.875-5.72 20.124 29.47-81.512 15.28zm-26.789 392.81-62.903-46.77 68.465 28.76-.084.22.048-.01zm209.284-27.09-44.08 13.83 68.539-52.14zm80.399-194.14-18.5.97-9.061-72.15c4.63 11.93 19.461 50.23 27.561 71.18m1.03.67s-26.091-67.43-28.961-74.78l-.029-.22a.38.38 0 0 0-.16-.26c-.08-.2-.14-.35-.171-.44v-.08c0-.08-.01-.13-.02-.2l.01-.05a3 3 0 0 0-.199-.45l-.171-.34-.049-.04-39.661-51.68 1.462.45-60.754-39.09c-.037-.03-.081-.02-.122-.02l-67.279-14.61-.053-.02-67.7 8.71-.106.05-.085.03-73.16 33.16.102.13-51.575 62.2.055.06-25.351 60.39-3.88 70.34c-.001.04-.01.09.002.12l21.816 69.5-.098-1.66c1.121 1.59 2.093 2.98 2.89 4.12 5.077 7.24 5.077 7.24 19.141 24.97 4.342 5.48 10.025 12.65 17.616 22.24l.068.07 66.096 49.15.059-.19 78.646 12.09-.076.25.568-.17 2.798.43-1.388-.59 65.876-6.88-.65.75 63.466-33.35c.036-.02.075-.09.075-.09l46.741-50.57.061-.03 24.47-62.09.2 1.55.33-2.89.18-.46h-.13l8.91-79.5z" style="fill:#c6c6c6;fill-rule:nonzero"/></svg>