<svg xmlns="http://www.w3.org/2000/svg" xml:space="preserve"
    style="fill-rule:evenodd;clip-rule:evenodd;stroke-linejoin:round;stroke-miterlimit:2"
    viewBox="0 0 449 449">
    <path
        d="m443.534 263.2-6.574-11.708 1.328-14.216 8.367-6.711zm-8.653 33.429-6.141-12.337 2.07-8.239 12.343-10.718zm-87.904 112.806 6.069-5.938 8.665-6.836 3.74-1.434zm-4.602 3.53-19.714 7.721.846-.812 27.232-15.09zm-25.389 13.165 4.363-4.186 15.197-5.952zm-100.277 20.327 2.687-.699 10.737-.009 2.753.667zm-103.918-30.151 14.949 5.739 4.692 4.382zm-14.142-11.024 27.187 14.983.554.519-19.205-7.373zm-14.565-9.578 3.142 1.183 9.018 7.062 5.815 5.537zM5.847 265.873l11.845 10.022 2.293 9.016-5.814 12.305zM2.238 231.11l8.019 6.239 1.394 14.708-6.19 11.665zm2.012-35.025 5.334 3.739-1.11 18.536-6.226 10.561zm7.651-34.476 3.256 2.022-4.652 21.039-5.799 8.958zm13.054-32.941 1.569.842-8.719 22.198-4.714 6.72zm18.162-30.567.132.06-13.114 22.17-1.437 1.949zm377.627 24.963-2.388-3.087-13.036-21.993.344-.161zm15.073 35.17-5.069-6.927-8.694-21.991 1.774-.978zm8.34 35.013-6.164-9.029-4.565-20.775 3.507-2.222zm-4.165 25.775 6.631 10.68-8.245 6.614zm-7.617 22.109-1.55-26.275 8.547 3.334-1.749 18.731zm3.928 9.929-4.542-1.949.64-7.113 5.133-4.117zm.426 1.436 6.605 11.764-12.229 10.619zm-7.429 23.952 2.395-26.612 4.501 1.931-6.006 23.907zm-1.162 7.391-.49-.23 1.539-6.146.708-.615zm-7.101 26.167 4.531-18.091 2.831-6.753 6.156 12.367zm-3.773 9.323 3.446-8.079 13.272-12.251-12.942 29.054zm-16.345 33.244 6.436-10.047 11.7-11.23-16.639 25.308zm-21.45 28.869 9.995-11.002 3.517-3.44-13.461 14.609zm-7.171 6.866-4.951 5.449-3.806 1.46zm6.63-6.269.038.125-.534.421zm-26.668 17.503-1.576-6.378 16.129-14.25 10.024-3.736 1.856 6.09-3.562 3.921-13.768 10.863zm.764 3.09-.596-2.411 7.104-2.724zm-12.461 2.139 11.213-4.3.64 2.591-27.685 15.34zm-18.39 6.919 7.313-4.742 9.679-1.889-15.701 13.522zm-10.487 11.761-20.203 4.061-.235-1.829 30.282-13.659 1.327 7.079-.568.489zm7.985-1.606-3.461.696 4.596-1.673zm-4.839 5.392-8.086 2.505 12.789-7.017zm-11.124 4.171 2.528-.783-3.898 1.535zm-19.278 6.082 4.293-.878-7.839 2.25zm-18.766 4.633 3.138-.18-6.794 1.39zm-27.081 2.86 1.906-.177 9.903.245-13.49 1.249zm-1.276.118-1.632 1.28-3.379-.813zm-15.491-2.223 5.831-.01 1.828 2.198h-9.405zm-9.351 2.284 4.876.424-3.285.849zm-3.442-.3 2.198.191 1.636 1.309-13.618-1.221zm-24.788-2.554 3.744 1.239-7.151-1.411zm-19.438-4.709 3.762 1.444-7.985-2.284zm-18.496-5.745 1.291.705-3.893-1.501zm-16.54-9.033 13.527 7.387-8.613-2.635-5.211-4.866zm2.716-.165-2.417-.475-.779-.67zm-21.861-17.21 8.735 1.672 7.654 4.912-1.088 6.585zm-13.131-4.699 11.74 4.417 16.558 14.251-28.919-15.909zm-.656-.247-.579 2.573-6.86-5.372zm-21.588-13.879-4.642-5.085 1.714-6.001 9.372 3.439 16.694 14.643-1.396 6.2-9.417-3.544zm6.974 7.638-4.152-4.548 7.338 5.747zm-11.839-11.941 1.578 1.728-1.693-1.326zm-10.34-11.326 9.791 10.725-.127.446-15.167-16.422zM42.152 343.14l6.145 9.576-1.548 4.434-16.756-25.408zm-13.407-31.269 3.167 7.394-3.844 9.333-13.004-29.027zm-8.411-26.075 4.51 10.643 3.575 14.208-13.915-12.51zm-.122-7.77 1.483 5.894-1.111.532-1.98-7.785zm-7.796-25.7 5.172-2.26 2.508 26.954-1.786-1.511zm-.524.756 5.506 21.655-11.731-9.925zm4.992-10.576.636 6.832-5.213 2.279-1.297-13.681zm-7.699-23.815 9.249-3.657-1.526 26.611-5.988-4.659zm-.615.873 1.597 16.836-7.899-6.146zm10.361-13.19-.453 7.898-9.285 3.672 1.057-17.653zm-9.298-7.363-5.218-3.657 5.99-9.254zm1.529-13.957 13.159-4.74-5.266 25.3-8.756-6.136zm15.186-14.476-1.862 8.942-13.182 4.748 4.478-20.25zm-11.032-7.665-3.151-1.957 5.234-7.462zm3.092-10.774 16.597-5.435-8.447 23.188-10.617-6.592zm20.448-16.01-3.55 9.749-16.602 5.436 8.436-21.473zm-12.077-7.267-1.487-.798 3.854-5.227zm3.915-8.069 19.481-5.753-11.032 20.459-11.748-6.306zm25.415-16.758-5.471 10.145-19.457 5.746 12.703-21.474zm-9.486-10.213 1.877-2.255 19.563-5.189-2.921 5.477-8.662 11.586-12.24-5.591zm-2.789 3.351-.229.387-.068-.031zm48.455-50.664-20.46 17.977-1.223.296L93.19 45.198zm30.075-18.996L99.828 41.739l-2.887.639 26.15-16.123zm32.592-14.075-22.488 9.698-4.811 1.002 27.584-11.364zM316.66 23.19l-22.846-9.813-.314-.627 27.558 11.324zm32.546 18.553-22.798-14.348-.753-1.168 25.98 16.048zm27.84 22.615-20.558-18.021-.639-.84 22.047 19.064zm26.959 31.407 1.241 1.489-.281.131zm-11.371 7.395-11.319-15.044-1.047-1.969 20.08 5.233.867 1.04 3.118 5.261zm6.025 11.021-5.652-10.43 11.681-5.471 12.633 21.315zm20.628 8.134 4.195 5.423-1.685.929zm-9.259 12.844-10.905-20.123 18.685 5.421 3.379 8.547zM414 145.827l-3.683-10.038 11.126-6.136 8.41 21.271zm17.136 7.186 5.529 7.557-3.396 2.152zm-8.469 16.426-8.362-22.785 15.844 5.095 2.497 11.367zm2.148 9.985-1.935-9.297 9.925-6.289 4.391 19.982zm13.277 6.167 6.327 9.268-5.509 3.983zm-7.92 19.566-5.191-24.937 12.356 4.387.908 14.715zm.125.763 7.998-5.781 1.068 17.302-8.583-3.347zm-12.143 3.25 11.465-2.978.45 7.624zm3.07 35.419-10.745-4.612 2.364-29.428 4.165-1.082 13.106 5.112 1.592 26.986zm1.005.431 9.448-2.726-.588 6.529zm-2.669 34.805-16.05-7.508 5.059-23.357 12.61-3.637 9.845 4.225-2.473 27.464zm.93.436 7.899-2.472-1.382 5.52zm-3.242 31.49 6.544-15.602-3.664 14.63zm-1.607 3.831 1.25-2.978 2.904-.98-2.912 6.827zm1.248 4.624 3.733 8.624-12.547 12.043zm-10.06 21.819-8.675 3.102-.204-.549 17.264-28.244 1.294 2.994zm-8.433 3.753 7.854-2.809-5.632 8.793zm-22.789 25.367 1.027 3.369-8.372 3.12zm-16.441 9.879 8.221-15.107 7.809 4.666-8.743 7.726zm-8.901 11.587-.039-.026 8.404-10.621 6.374-2.375zm-1.53 1.859 1.343-.87 1.53 6.193-10.169 3.899zm-1.814 1.176-6.73 8.506-9.146 1.786zm-28.891 12.833L311.61 404l20.967-17.094 5.865-1.107 10.767 6.955-.945 1.196-19.044 12.345zm3.766 2.629-2.975-2.077 8.841-1.726zm-31.324 13.639 9.943-12.122 17.458-3.409 3.216 2.244-30.173 13.614zm-2.916 3.555 1.639-1.998 1.384-.39.224 1.735zm3.659 2.548-9.081 1.749 4.681-3.44 4.077-.82zm.673-.195-.316-2.453 15.768-3.17zm8.502 1.781-3.142 1.724-7.124 1.457zm-13.327 3.403 4.723-4.409 20.08-7.308 5.804-1.167-14.242 7.814zm-15.094 4.198 8.389-1.715-6.868 2.659-5.289.303zm-20.644 2.213 1.105-.428 16.477-1.502-3.374 1.117zm-2.131.817 13.802-.791-6.735 2.229-12.683-.315zm-23.44-3.561 7.355 2.661-5.135.008zm-1.078-.211 2.396 2.882-4.703.008zm-8.348 2.9 7.296-2.693-2.142 2.685zm-16.012.928 5.666 1.134-12.568.358-6.574-2.175zm-19.424-2.651 16.088 1.409 1.17.438-13.784-.698zm-3.019-.269 3.887 1.286-5.633-.285-7.309-2.804zm-18.883-4.467-6.507-1.296-2.894-1.58zm-1.377-4.08 4.811 4.406-15.848-4.848-14.533-7.936 4.806.943zm-.117-.779-16.096-5.762 16.351 3.209zm5.649-1.494 4.839 3.565-9.811-1.876.261-2.613zm-4.485-3.187 2.365.652 1.379 1.683-3.9-.766zm-27.226-16.766 18.163 3.477 9.63 11.748-.917.697-30.229-13.557zm-.947-.181-3.112 2.195-6.194-3.976zm-28.169-13.888-1.976-2.493 10.328-6.791 5.404.996 21.376 17.265-6.177 4.357-11.658-2.232zm1.329 1.678 14.139 9.074-8.189-1.567zm-4.654-2.988 2.852 1.83 6.511 8.215-10.717-4.033zm.767-.8.755.953-1.115-.716zm-8.547-10.781 8.115 10.236-.533.351-15.297-13.418zm-17.407-11.332 8.418-5.147 8.458 15.545-8.632-3.167zm-.4.574 6.831 5.992-7.733-2.837zm-22.815-25.563-2.003 5.735-5.333-8.308zm-9.141-4.619-12.957-12.146 3.8-9.23zm-7.818-24.626 17.312 28.236-.125.355-8.142-2.856-10.015-23.381zm-1.788-3.945 1.352 3.189-.915 2.22-2.627-6.134zm-.359-.849-2.162-.715-2.717-10.798zm-2.977-31.452-6.175 2.957-1.326-5.269zm-.824-35.005 12.093 3.43 5.213 23.685-15.562 7.449-8.583-2.645-2.587-27.799zm-1.051-.298-8.443 3.69-.581-6.25zm5.162-35.605 3.673.938 2.44 29.739-10.277 4.492-10.053-2.851 1.566-27.315zm-12.185-3.108 11.041 2.817-11.463 4.533zm17.284-30.856-1.642 31.854-3.498 1.383-12.058-3.077 5.393-25.908zm-9.888-4.957 10.318 2.343-.36 1.854-11.71 4.217zm15.968-26.735-5.517 28.396-10.259-2.33 8.643-23.73zm-3.467-7.729 5.685 1.139-2.035 5.802-7.015 2.298zm13.898-22.279-7.981 22.757-5.613-1.125 11.3-20.954zm3.371-9.828 1.6.28-4.658 8.733-2.143.633zm1.945-.366-1.515-.264 5.779-7.731zm11.687-17.924 32.283-4.299-4.067 9.68-9.868 16.695-3.384.503-25.931-4.529 6.293-11.798zm-.962.128-1.556 2.082 1.076-2.018zm-3.563-15.415 10.736 4.129-8.08 10.726-19.274 5.112zm2.051-2.773 1.576-2.149 1.201-.291zm18.602-6.262-9.483 12.588-10.618-4.083 5.729-5.034zm6.092-14.509 6.65 2.181-12.057 11.451-13.939 3.366zm1.158-1.584 1.433-2.084 2.877-.636zm14.755-5.033-8.694 8.257-6.494-2.131 6.741-4.256zm14.136-12.386 2.854.787-15.981 10.666-7.724 1.71zm.77-1.107.855-1.48 4.981-1.037zm9.987-3.382-7.139 4.766-2.63-.725 8.997-3.88zm24.277-10.934-1.896.482.324-.756 3.96-.767zm11.427-2.899-1.124.107 12.025-2.872zm21.188-5.221.143-.014zm100.183 7.922-2.097-.916 4.132.788.368.738zm29.247 12.007 4.564.917.931 1.443zm5.364 3.057-2.879.809-7.206-4.815 1.425.287zm13.719 11.898-15.837-10.581 3.103-.872 21.108 13.285zm12.093 3.355 2.414.529 1.45 1.903zm4.498 3.649-6.774 2.27-8.811-8.345 9.094 1.99zm5.68 14.066L349.227 49.29l6.928-2.321 19.44 17.042zm17.052 4.792.837.2 1.374 1.737zm4.188 4.596-10.879 4.331-9.677-12.844 14.918 3.57zm-2.556 15.377-7.891-10.473 10.996-4.378 16.688 20.009zm9.128 18.573-25.585 4.56-2.49-.361-14.284-23.969-1.092-2.613 33.275 4.353 1.975 2.625zm.718-.128-6.228-11.701 8.499 11.296zm4.917 9.236-4.574-8.592 2.359-.42 5.382 9.93zm8.357 23.709-8.045-22.898 3.319.963 11.174 20.619zm2.204 6.269-1.971-5.607 6.52-1.332 3.497 9.527zm5.743 29.343-5.561-28.554 8.167 2.626 8.562 23.329zm.451 2.318-.318-1.636 11.228-2.613 1.827 8.771zm1.767 32.56-1.696-31.797 12.831 4.555 5.319 25.552-12.478 3.241zm-.025.735 2.855 1.114-3.007.78zm-20.36 7.142-1.971-11.645 21.652 4.29-.184 2.292zm17.105 24.707-16.036-3.48-.989-20.534 19.358-5.027zm.564.906 9.812 4.211-11.439 3.301zm-15.83 11.609-.736-15.279 15.905 3.452-1.722 7.948zm8.316 19.806-9.587-2.276 1.274-16.81 13.277-3.831zm.46.893 15.271 7.144-20.102 6.29zm-11.461 15.508 1.361-17.979 9.446 2.244-5.008 13.921zm-.157 14.743-2.673-.685 2.744-13.304 5.59-1.75zm-6.823 19.44 1.582-7.671 5.61-10.889 19.018 9.715zm12.581 22.541.052.14-.242.087zm-23.615 8.604 6.578-18.413 16.62 9.23-1.061 1.267zm-15.367 5.957 1.903-2.719 12.241-2.197-5.489 10.087zm-22.54 24.394 1.668 1.077-3.891.735zm-23.235 5.781 4.341-11.746 18.151 5.675-2.911 2.373zm-1.731 13.676-4.761-1.568 6.18-11.343 18.766-3.544zm-8.994 6.202 9.051-5.401 6.065 4.232-16.202 3.163zm-1.957 2.146-1.922.169 2.712-1.619zm-15.571 8.313 12.278-7.326 2.716-.239-9.52 11.606zm-5.39 8.87 8.977-2.529-1.531 1.867zm-20.284 7.935-.128-2.183 16.797-4.733 10.03-.893-4.918 3.615zm15.266.594-17.631 2.146 2.203-2.003 20.641-3.974zm1.404-.171 5.397-3.966 9.651-1.858-4.919 4.591zm-1.138.837 5.976-.728-6.907 1.412zm-18.847 2.294 17.442-2.123-1.134.833-16.972 1.548zm-10.036 1.113-3.184-.518.633-1.225 10.86.555-1.451.562zm2.751.446 1.752-.159-.808.313zm-7.978.635-1 .783-2.149-.778zm1.708-.95.749.121-.852.078zm-.721-.118-.194.375-5.846.01-6.853-2.479zm-32.308.43-.226-.451 12.483-2.071-6.807 2.513zm.771.691 2.797-.005-1.918.708zm-8.289-.635-.948.157-.837-.314zm6.574-.388.14.279-1.19-.105zm-12.161-1.194 11.25-.618.585 1.163-3.498.58-6.961-.609zm-18.724-1.924 16.967 2.008.55.205-16.471-1.442zm-1.388-.164.853.629-6.532-1.301zm-1.129-.831-10.579-1.252-5.007-4.589 10.344 1.979zm16.22.242 2.263 1.944-17.095-2.022-5.057-3.725zm-17.251-7.721 17.215 4.746-.131 2.238-21.016-4.019-5.077-3.74zm-3.676-1.013-6.352-.547-1.276-1.556zm-17.523-16.123 12.447 7.319-4.956 3.767-9.206-11.229zm-1.379-.812-.909-.075-.366-.674zm-13.223-21.279 5.993 11.026-5.588 1.885-20.591-16.632zm-23.979-6.784 19.207-6.121 4.462 12.144-21.005-3.871zm-.74.293 1.977 1.596-3.44-.634zm-35.736-29.198 11.024 1.931 2.059 2.933-7.831 4.788zm-25.374-10.171 17.38-9.823 6.774 18.959-23.36-8.195zm4.642-40.572 7.672 14.7.803 3.862-27.012-8.934zm1.525-14.87 2.698 12.978-3.859 1.01-5.826-16.141zm-12.181-16.548 10.679-2.561 1.417 18.359-7.195-2.218zm-.653.232 4.726 13.093-19.513-6.014zm10.007-19.982 1.272 16.49-10.82 2.595-5.117-23.244zM38.687 240.91l17.241-3.803-.728 15.631-14.835-4.207zm-.66.223 1.581 7.183-10.927-3.099zm18.875-24.976-.941 20.233-17.373 3.832-2.408-29.353zm-20.945-7.998 23.024-4.641-2 11.942-20.862-5.323zm-.678.214.129 1.582-2.511-.64zm8.039-33.84 19.764 4.489-3.978 23.763-23.149 4.666 1.644-31.875zm-1.718-.39-3.896.71.297-1.527zm20.44-33.264 11.474 2.298-7.763 26.566-22.412 4.084-5.206-1.183 5.588-28.759zm-1.928-.387-16.164 2.653 1.93-5.504zm28.058-31.457-.634-.11.767-.114zm3.397-.709-.277 1.001-2.364-.206.262-.441zm.232-.734-2.158.321L96.64 96.07zm13.487-26.149 12.479-.914 28.21 2.176-2.757 10.235-4.092 10.817-46.543 3.757 6.656-15.841zm-.844.062-3.219 5.447 2.259-5.376zm-26.136-6.103 25.697 3.907-.969 1.614-32.045 4.267zm-.705-.215-7.574 10.131-.508.068 7.773-10.318zm14.441-14.316L78.069 74.625l-.344-.132 9.857-13.083zm10.611-10.445-9.803 9.649-4.458.538 11.635-11.049zm15.266-11.054L103.24 49.89l-2.643-.867 9.243-8.78zm12.649-9.063-11.505 8.244-8.013.864 15.363-10.253zm16.174-8.177-15.416 7.666-4.15-1.144 8.057-5.377zm42.707-16.756.099.02-13.499 3.761-2.402.228zm90.342 4.418-6.628-1.681 7.361 1.75zm4.384 1.112 1.178.111 1.024.448zm7.464 2.858-4.174 1.033-9.858-2.975-3.52-1.869 5.59.528 10.608 2.691zm25.981 15.92-15.249-7.539 10.897 1.077 8.097 5.41zm12.439 8.839-11.68-8.33 3.747-1.053 15.214 10.165zm15.701 11.196-14.551-10.376 7.338.788 9.363 8.868zm10.475 10.243-9.885-9.708 2.132-.714 11.46 10.855zm.805.792 3.71.432 9.308 12.354zm-11.91 20.001-.871-1.453 26.497-4.067 7.406 9.842zm10.396 26.592-44.981-3.629-8.038-21.043 28.494-2.249 13.122.942 1.816 3.048zm.783.077-7.854-18.787 11.511 19.318zm4.219 1.473-3.69.332-.297-1.072 3.881.562zm28.264 31.396 13.67-2.791 1.865 5.31zm16.736 33.259-21.602-3.891-7.875-26.765 10.823-2.211 17.68 2.866 5.631 28.918zm1.728.312 3.062-.713.255 1.31zm-20.718 4.82 19.016-4.424 5.125.923 1.696 31.822-21.776-4.315zm-16.136 20.003-.763-18.004 16.215-1.881 4.017 23.744zm-1.193 19.485 1.18-18.78 19.606 3.885 2.017 11.922zm-.793 12.621.748-11.915 22.922-2.988.975 20.252zm-4.248 25.911 4.166-25.22 24.762 5.374.75 15.586zm-.986 5.97.867-5.251 29.78-4.275-1.25 16.508zm-6.867 31.498-1.558-.4 8.277-30.422 29.492 7.005-1.388 18.325zm1.694.434 33.013-5.206-2.677 12.982zm24.21 28.613 3.049-5.916-1.154 5.596zm-4.968 9.644 4.571-8.872 2.058-.349-3.847 10.766zm-.357.595 2.903 1.612L373 354.093l-12.067 2.165zm-.284-.865-17.303-4.788 21.661-3.67zm-24.394 25.229-23.261-6.886 10.266-19.729 18.472-3.129 18.53 5.128-16.258 23.226zm5.612 1.662-4.134-1.224 5.708-1.024zm-45.742 16.453 8.025-11.849 1.445-.116-4.945 13.38zm-13.402 15.256 12.964-14.666 4.723 1.476-4.464 12.08zm-5.749 6.503 5.085-5.752 13.522-1.135-6.011 11.035zm-9.158 22.188-11.935-4.119.797-.679 22.496-1.98zm-29.481 11.482-5.017-1.775 21.92-13.316 11.627 4.013-27.322 10.97zm-8.063 2.134.39-.754 4.836-.431zm12.119.776-2.865-2.263.178-.072 16.038-1.427zm-14.285 3.416.528-1.021 13.356-1.625.125 2.134zm-.365.706 13.808-.505-2.273 2.068-12.025-.615zm-1.601 1.585-.592 1.147-10.57-1.717zm-9.518-1.179 10.323-.377-.455.881zm-14.208.635-10.062 1.669-.546-1.086zm-11.354-.903 9.632.304-9.225.507zm-.79-.025.44.877-12.46.685-2.344-2.014zm-14.841-3.353 13.987 1.654.5.996-14.614-.46zm2.411-3.031-2.814 2.261-13.702-3.777 16.215 1.396zm9.588.731.45.896-6.276-1.397zm-25.525-16.414 22.088 13.208-4.89 1.793-1.408-.122-27.305-10.87zm-1.591-1.303.941.795-11.818 4.115-11.515-6.771zm-25.445-23.016 5.184 5.798-11.665 3.935-5.824-10.714zm-13.695-15.317 13.025 14.568-11.996-.956-4.585-12.479zm-8.518-12.372 8.077 11.784-3.355 1.069zm-33.137-5.871-4.527 1.364-1.728-2.461zm-22.976-24.913 18.905-5.298 17.75 2.938 10.499 19.983-22.698 6.843-8.3-1.454zm-.669.255 15.859 22.588-10.848-1.901-6.992-19.567zm-5.076-9.632 4.717 9.037-1.859 1.05-3.651-10.219zm-.402-.77-.624-.103-.378-1.816zm1.255.911 22.178 3.67-17.677 4.954zm23.284-29.575-29.496 7.716-2.631-12.653zm-5.593-31.098 8.386 30.367-1.106.29-33.931-5.215-1.443-18.703zm-1.08-6.192.929 5.517-27.996 6.715-1.249-16.189zm-4.333-25.73 4.212 25.011-28.213-3.942.741-15.938zm-22.298-15.54 21.43 2.715.784 12.134-23.142 5.105zm20.186-16.551 1.199 18.561-21.312-2.7 2.045-12.22zm-14.01-20.592 14.736 1.67-.741 18.217-17.93 3.614zm-.529-.792-18.18-4.129 20.477-3.731zm15.785-10.318-.492 12.086-14.603-1.655 2.37-8.112zm-4.817-24.745 8.387.836-3.512 23.196-12.566 2.289zm-.459-.767-9.764-1.956 11.409-1.872zm9.873-5.179-.923 6.097-8.239-.821 1.745-4.059zm51.722-23.465-5.093 18.483-45.747 4.171 7.305-26.457zm4.841-9.504-1.582 8.956-2.321-.089 3.338-8.821zm.149-.708-.442.035 1.503-3.972zm7.451-20.827 49.001 1.631-1.612 17.114-54.112 2.044 2.825-10.486zm-.722-.044-1.349 3.564.968-3.594zm.811-4.455 1.414-.047-1.942 3.828-.481-.037zm-.73.044-.982 3.645-23.766-1.833zm-40.305.613 17.233-21.625 29.259-1.892 2.53.169-8.499 22.024-29.591 2.167zm-.49.658 6.794.524-7.425.544zm-.749-.098-.725 1.227-.986.073.857-1.43zm12.133-21.775 5.405-.349-17.124 21.487-.883-.134zm-.865.095-12.477 20.796-25.501-3.877 14.278-14.055zm-13.444-7.231 17.467 2.286-3.539 4.189-23.375 2.824zm30.365-12.979L121.42 52.296l-17.205-2.252 15.105-10.823zm-2.332-7.135 9.451 1.066-6.436 5.299-14.006 1.511zm21.716-9.033-11.52 9.486-9.084-1.024 16.121-8.016zm-4.681-.229-11.22 1.115 18.682-8.144 4.481 1.09zm13.013-5.697 1.994.204-9.331 4.929-3.731.371zm3.097-.379-1.416-.145 3.985-1.212zm16.523-5.6 10.371-.536-17.505 7.096-8.145-.833 4.822-2.547zm-4.916.254 2.051-.106-4.363 1.326zm15.128-4.083L181.005 8.9l-1.778.092L191.044 5.7zm64.867-.448-.128.029-9.982-1.217 8.614.773zm16.25 3.789-13.397-3.717.28-.063 15.959 4.049zm-1.864.603 1.708.082 1.889 1.004zm12.092 5.596-7.717.792-17.453-7.019 10.216.493 9.625 2.905zm1.238-.127-3.143-1.669 4.924 1.486zm4.54.094 4.225-1.047 18.558 8.108-10.625-1.05zm5.768 5.379-9.211-4.891 2.376-.243 11.271 5.573zm12.544 10.325-11.553-9.532 5.202.514 15.967 7.895zm7.039 5.808-6.299-5.197 9.986-1.167 11.16 7.958zM326.9 52.287l-12.411-14.74 15.315 1.645 14.984 10.686zm3.971 4.716-3.441-4.087 18.151-2.444 9.529 9.359zm.482.754 24.563 2.866 14.256 14.001-26.297 4.037zm11.645 21.723.692 1.162-8.075-.58zm-42.305-1.925-8.395-21.893 3.449-.237 29.494 1.902 17.262 21.496-11.507.908zm1.528 4.446-.635-1.232-.676-2.503 25.472 1.829zm5.501 21.49-4.813-17.821 6.871 17.986zm5.674 9.633-3.944.156-1.582-9.081 2.184.176zm50.211 23.124-44.037-3.864-5.231-18.624 41.985-3.786zm11.499 6.087-9.666.988-.951-6.267 8.957 1.452zm.711-.101-1.559-3.594 10.681 1.731zm-6.788 24.744-3.485-22.97 9.816-1.004 7.802 26.52zm-38.112 17.501-4.01-20.977 41.484 4.086.529 12.482zm1.129 10.002-1.027-9.316 37.93-4.402.756 17.824zm3.098 28.133-3.021-27.428 37.579 4.097-1.194 18.981zm32.584 8.067-32.419-3.861-.114-3.513 33.269-4.338zm-25.791 29.213-5.582-.72-1.024-31.653 32.319 3.848-4.202 25.438zm20.563 2.655-17.987-2.322 18.816-2.701zm-8.424 31.086-19.109-2.679 1.436-29.565 5.543-.795 20.402 2.633zm.458.817.048-.007zm-19.889 3.137.288-5.936 18.914 2.652-.107.273zm7.923 25.622-11.186-1.683 3.206-23.229 18.86-2.974zm.401.792 13.146 3.638-16.492 2.794zm-13.043 8.075 1.361-9.864 10.972 1.65-3.495 6.716zm-1.666 18.69-2.662-.427 4.202-17.538 8.563-1.45zm-5.731 12.381.976-4.074 5.093-7.521 22.097 6.541zm-.125-2.448-.613 2.556-1.182.094zm3.032-9.684 2.425.388-3.897 5.755zm-43.559 15.425 8.65-21.011 34.223 5.476-1.888 7.88-3.138 4.635zm29.499 9.308-31.163-5.267 1.361-3.306 37.651-3.018zm-41.215 17.837-2.002-.354 11.755-22.097 30.951 5.231-13.18 14.91zm22.037 3.898-19.37-3.426 24.193-2.031zm-24.772 17.363-12.537-2.332 12.447-17.996 2.787-.234 21.419 3.788-19.183 16.34zm3.631.676-1.087-.203 1.477-.13zm-22.65 13.784-.656-.128 3.73-12.231 15.919-1.401 2.8.521zm-1.05 1.161 1.12-.427 4.158 1.471-5.752.512zm-17.981 6.854 11.93-4.547 4.526-.012-.485.937zm14.384-.551-.49.949-10.433.381zm-27.097 1.376-9.996-.315-.464-.923zm-8.577-5.285 11.887 4.483-15.259-3.397-.54-1.075zm-7.333-2.764 2.007.756.376 1.285-6.443-.555zm-18.669-14.476 16.125 1.341.686.715 3.345 11.405-1.422.279-21.955-13.129zm-2.585-.214-1.498.283-.536-.452zm-.551-21.043 2.514.201 12.707 18.062-12.115 2.296-5.503-.458-19.146-16.174zm-2.684-.214-19.514 3.557-4.923-5.505zm-7.452-22.848 11.866 22.044-1.759.32-27.761-2.212-13.242-14.811zm-1.735-4.07 1.433 3.418-31.11 5.377-7.991-11.659zm-47.06-15.343 7.381 10.771.198.824-29.116-5.101zm.308-18.751 4.143 17.291-4.119.672-10.335-19.669zm-14.083-8.887 12.579-1.945 1.379 10.109-10.59-1.753zm-.708.142 3.218 6.127-15.768-2.61zm10.059-25.758 3.135 22.984-12.796 1.979-11.013-28.141zm-20.995-3.999 20.626-2.946.311 6.235-20.908-3.213zm12.754-33.856 6.371.89 1.465 29.323-20.82 2.974-8.381-30.349zm-2.568-.359-18.951 2.518-.891-5.29zm9.917-32.859-.93 31.666-6.413.852-22.537-3.149-4.249-25.228zm.119-4.032-.098 3.331-34.23 4.153-.771-11.931zm3.047-28.296-2.998 27.603-35.194-4.459-1.212-18.762zm1.07-9.845-.993 9.14-39.486 4.392.734-18.037zm4.073-21.827-3.973 21.142-39.817-4.513.499-12.269zm2.845-15.137-2.712 14.429-43.349 4.366 3.488-23.035zm.152-.68-42.621-4.244.948-6.264 45.717-4.169zm9.224-15.149-1.474 15.501-7.043-.306 4.075-14.79zm58.366-16.463-1.259 13.384-56.304 2.331 3.145-17.811zm4.021-31.643-.535 4.199.396-4.204zm.597-7.828.736-.001-1.232 7.14-.175-.006zm-.699.013-.668 7.097L148.1 82.15l1.974-3.889zm-36.151-20.674 38.732 1.147-2.503 18.832-47.163 1.574zm-.753-.042-10.969 21.621-1.529.052 8.467-21.942zm-32.958-2.9 17.469-16.103 21.533-1.256-10.362 18.886-2.965.192zm-.672.65 21.067 1.41-23.396 1.513zm-.811-.093-2.452 3.076-5.402.349 3.389-4.01zm8.607-16.057 9.251-.54-17.321 15.967-4.47-.585zm14.16-5.063-4.105 3.782-9.185.536 6.214-5.116zm5.462-11.121 12.492-.662-17.246 11.166-7.039-.794zm13.659-1.418-12.236.648 8.917-4.709 8.285.846zm14.853-3.334-7.3-.388 15.746-6.382zm9.866-10.582 4.946.474-4.327 1.743-9.527.492zm6.347-.09-3.174-.304 5.637-.689zm50.595.004-.613-.108-2.324-.944 6.112.746zm7.736-.216.162-.037 11.688 3.244-1.454-.07zm-6.3.776 4.901-.473 8.933 2.696-9.439-.456zm14.275 10.087-8.881-7.17 16.779 6.748zm15.561 3.339-5.063-3.256 7.847-.805 8.799 4.672zm18.476 11.881-17.301-11.125 11.822.623 11.828 9.76zm4.861 4.412-4.152-3.798 6.38-.745 6.076 5.013zm18.19 16.641-17.382-15.901 8.362.472 12.586 14.948zm-.27.724 2.404 2.993-23.695-1.528zm-30.436.876L281.56 35.644l22.485 1.27 17.53 16.038-25.832 1.778zm8.125 23.046-11.15-21.619 2.787-.192zm1.275 4.524-49.258 1.699-1.272-7.121 48.802 1.576 1.451 2.818zm-46.877 19.528-2.277-17.14 49.34-1.702 5.595 20.721zm1.833 13.813-1.741-13.117 52.729 1.882 1.595 9.155zm55.793 16.35-54.384-2.198-1.331-13.462 52.625-2.082zm11.166 15.887-8.849.401-1.514-15.542 6.265.55zm.709-.048-4.066-14.478 44.003 3.861.976 6.434zm.155.679 40.862-4.178 3.461 22.809-41.544-4.093zm-8.381 13.438-1.265-12.978 8.95-.406 2.756 14.413zm.656 23.557-.619-22.858 10.539 1.038 4.036 21.104zm.203 7.532-.185-6.839 14.044-.721 1.012 9.181zm-1.187 30.992 1.181-30.297 14.954 1.631 3.037 27.569zm.193.683 19.029-1.088.108 3.367zm-3.502 31.569 3.232-30.903 19.43 2.314 1.023 31.646zm23.74 4.736-24.778 1.575.945-5.623 23.801 3.072zm.69-.074-.026-.812 2.993.386zm-29.617 26.315 4.03-23.964 24.889-1.582-1.427 29.401zm-3.051 12.764 2.912-12.081 27.597 3.869-.297 6.117zm-4.094 16.987 3.923-16.28 30.312-2.102-3.182 23.052zm-5.714 18.064 5.531-17.392 31.142 4.683-1.389 10.064zm-.226.712 35.368-2.651-4.158 17.352-34.147-5.465zm-34.43 32.716 2.113-24.905 28.425 2.015-8.708 21.147zm20.231 2.141-19.381-1.492 20.678-1.657zm-12.073 22.74-11.278-.89 2.973-22.722 20.046 1.542zm-11.612 1.663.244-1.864 10.937.863-.045.066zm-1.685 17.605-1.706-.141 3.281-16.759 10.735-.901zm-2.441 3.611 2.726-2.874 10.438 1.941-13.209 1.163zm-11.158 11.767 10.203-10.76-3.669 12.033zm-6.866 5.022 5.682-.015-12.251 4.669zm-18.068.048 6.597 4.599-12.158-4.585zm-6.965-5.014-5.712 1.12-2.987-10.186zm-13.12-14.677 2.373-.204.648 3.346zm-.874.092 2.842 2.962-12.844-1.067zm-.113-17.637 3.227 16.656-2.825.243-12.57-17.869zm-12.686-1.707 12.32-.998.257 2.001zm9.31-24.374 2.921 22.688-12.669 1.024-11.85-22.015zm-1.5-.577-20.432 1.605-1.367-3.262zm-30.902-23.371 30.193-2.259 2.077 25.04-23.468-1.785zm-3.995-9.957 3.036 9.37-32.638 5.327-4.099-17.104zm-5.823-17.971 5.593 17.259-33.612-2.4-1.405-10.308zm-4.169-17.064 3.982 16.393-29.331 4.536-3.11-22.808zm-3.079-12.674 2.907 11.968-28.358-1.873-.321-6.414zm-4.323-24.774 4.182 24.092-25.666 3.666-1.457-29.16zm-23.641-2.169-3.793-.53 3.823-.507zm22.565-4.03.954 5.498-22.829-1.395.035-1.203zm-3.328-31.592 3.234 30.904-21.725 2.886.93-31.659zm-17.447-1.755 17.392.964.004.1-17.49 2.122zm16.136-29.89 1.227 30.159-17.315-.961 3.014-27.744zm-12.019-8.255 12.188.594-.176 6.965-12.991 1.445zm12.778-22.831-.573 22.732-12.101-.59 3.997-21.267zm57.899-11.365-.512 7.977-56.647 2.641 1.241-13.05zm3.148-21.086-.656 20.407-1.742.002 1.919-20.389zm.817-13.754-.786 13.059-.444.019zm1.784-14.154 56.127-.056.795 13.201-57.954.053.582-9.662zm2.262-17.753 52.243-.055 1.567 17.061-55.984.055zm51.522-7.898.657 7.151-52.072.054 1.233-7.15zm-46.829-19.38 43.494-.055 3.257 18.744-49.984.054zm-.702-.011-3.236 18.755h-.775l2.499-18.8zm-1.08-3.291h1.818l-.603 2.602-1.555-.046zm-39.275 1.178 38.573-1.166-.335 2.524-38.389-1.137zm-.857.026-.111.163-1.642-.111zm6.378-19.469 7.081-.191-12.974 18.952-4.475.136zm-17.613-3.066 18.261 1.085-1.033 1.303-21.16 1.235zm29.032-12.515-10.246 12.937-17.839-1.06 17.476-11.315zm12.292-2.32-1.291 1.332-9.235.23 2.482-1.99zm2.416-8.812 11.02-.245-12.754 8.4-7.914-.421zm8.788-3.561 1.864-.751 7.532-.92zm34.741-1.658 7.02.856 1.69.686zm20.065 13.317-12.846-8.331 10.498.233 9.553 7.713zm10.436 2.224-8.401-.194-1.345-1.373 7.32-.391zm11.998 13.747-10.244-12.992 11.387.601L298.304 31.9zm1.506 1.91-.983-1.247 19.109-1.142 3.977 3.638zm6.673 19.433-13.097-18.918 6.04.162 10.259 18.845zm.606.876-.118-.17 1.843.051zm-38.219 18.646-2.192-16.745 40.029-1.19 11.093 21.55-48.565-1.568zm-2.889-16.724.272 2.074-.371-2.072zm-1.57-3.232.619 2.555-43.2.056.604-2.611zm-37.59-18.933h33l4.422 18.241h-41.648zm-3.287-.079 2.577.068-4.23 18.252h-1.863zm-4.891-.13 4.189.111-3.521 18.347-38.199 1.155 12.973-18.95zm-23.676-.626 10.719.284-11.118.3zm-.811-.041-.443.648-7.041.19.97-1.225zm32.937-14.793-4.063 14.65-4.387.119-23.059-.61 13.284-13.706zm-16.313-1.52 16.731.395-.188.427-17.768.442zm20.996-9.29-3.963 9-16.06-.379 12.846-8.461zm-4.794-1.409 5.7.119-.528.59-6.468.144zm-9.058-.447 7.883.392-1.423.937-10.301.228zm17.948-3.002-9.033 2.751-5.899-.292 15.142-2.693zm23.534 2.751-9.526-2.88-.143-.166 15.56 2.754zm1.049.642 7.52-.373 3.796 1.541-9.852-.219zm-6.864.765-.502-.58 6.177-.129 1.333.864zm4.244 9.711-3.875-9.011 7.744.172 12.946 8.396zm.473 1.1-.179-.416 17.503-.461 1.279 1.305zm32.683 14.805-22.77.643-5.732-.155-3.955-14.596 19.07.44zm1.439.632 5.554-.332.921 1.168-6.008-.161zm-11.658.348 10.843-.305.422.608zm-14.621 18.832-3.452-18.322 5.523-.156 24.303.655 13.097 18.917zm-4.153-18.302 3.447 18.294h-.49l-4.425-18.252zM209.14 19.311h3.356l-4.769 14.651-2.651.004zm3.688-1.019-.106.327h-3.315l.178-.403zm1.034-9.791h3.825l-4.598 9.105-3.203-.076zm4.425-1.188-.251.497h-3.627l.508-.568zm.184-4.046.038-.042.242-.043zm12.404 4.543-.261-.497 2.898-.061.482.558zm5.148 9.796-4.784-9.105h3.285l3.889 9.042zm2.853 1.013h-2.471l-.111-.328 2.413-.064zm2.66 15.294-4.899-14.602h2.499l3.956 14.6zm-5.632-14.602 4.9 14.603-32.349.047 4.769-14.65zm-22.352-1.008h22.014l.106.316h-22.223zm16.904-9.802 4.787 9.11h-21.378l4.6-9.11zm-11.397-1.176h10.778l.255.485h-11.278zm5.75-4.649 4.344 3.957h-9.426l4.259-3.957zm7.241 1.828 6.453 1.951-4.679.098zm.874 2.068-2.746.058-4.341-3.954h.17l4.802 1.452zm-18.312-.028-4.233-.089 5.927-1.805zm2.97-2.283 5.206-1.585h.178L218.71 6.63l-3.186-.067zm29.481 52.21-.617-2.546h.435l.333 2.542zm40.527-1.204-39.679 1.179-.329-2.51 39.851 1.105zm-8.806-22.201-5.53.331-13.333-13.614 8.544.197zm-98.973-13.031 9.393-.235-13.23 13.651-6.484-.385zm71.381 63.722-.063-.683.122.683zm1.632 17.764-1.569-17.072h.106l2.271 17.101zm.845 13.882-.795-13.187.851.03 1.746 13.155zm.844 14.013-.802-13.322 1.843-.001 1.326 13.419zm4.444 21.103-3.756.003-.657-20.411 2.405.097zm1.293 8.735-.541-8.059 53.942-2.447 1.256 12.899zm1.933 28.772-1.886-28.077 54.658 2.393.62 22.944zm53.593 4.704-53.502-2.609-.054-1.404 53.374-2.738zm-6.256 31.374-46.014-2.453-1.205-30.844 53.472 2.616-1.184 30.392zm1.765 31.859-47.264-2.757-.3-25.787 45.802-2.62 4.994.266zm-47.122 9.348-.133-11.41 47.158 2.75-.964 5.732zm41.932 21.622-42.236-2.663.303-18.264 45.944-2.92zm-42.539 15.621.292-17.591 42.104 2.656-2.94 12.199zm35.393 14.121-35.948-2.407.535-11.017 39.306-2.726zm-37.061 20.545 1.08-22.26 35.784 2.397-5.568 17.517zm-14.656 4.423.394-3.679 13.52-.021-.395 4.659zm4.997 26.646-8.515-.655 3.434-25.301 13.544.96-2.118 24.986zm-12.589 22.646 3.85-21.938 8.71-.014 6.233.479-2.974 22.721zm15.472 3.892-16.337.03.729-3.237 15.865 1.252zm-19.934 15.995 3.441-15.273 16.378-.03-3.266 16.678zm17.114 2.118 1.258.105-1.61 1.697zm-1.242 2.74-.568.598-16.956.018 1.475-4.793 16.596 1.379zm-11.339 11.954-9.429-.791 3.031-9.855 16.512-.017zm-11.717 4.485 2.045-4.599 8.835.739-5.428 3.846zm-.307.693 4.779-.013-6.968 4.936zm-6.115.016 2.252 4.906-7.02-4.894zm-2.435-5.307 2.118 4.616-5.439.014-5.512-3.842zm-19.711-10.497 16.355-.018 3.108 9.839-9.429.842-9.947-10.367zm14.635-5.463 1.502 4.754-16.314.017-.667-3.442zm-3.797-15.96 3.616 15.278-15.431 1.325-3.211-16.575zm-.928-3.924.764 3.232-14.977.028-.269-2.089zm-12.399-22.604 8.241-.013 4.016 21.932-14.429 1.167-2.92-22.686zm-7.736-31.019 11.659-.018.408 3.666-11.692.874zm-1.827-23.13 1.086 22.411-33.192-2.371-5.632-17.385zm-.56-11.561.526 10.868-37.902 2.667-3.95-16.263zm-.342-18.441.32 17.745-41.476-2.738-2.936-12.086zm-.339-18.802.326 18.108-44.224 2.93-4.162-23.975zm.115-12.263-.117 11.568-48.179-2.944-.974-5.607zm-46.43-28.916 46.697 2.59-.26 25.631-49.376 3.023-3.232-30.897zm48.016-34.166-1.114 30.835-46.902 2.637-6.25-.347-1.231-30.254zm.072-2-.047 1.305-55.526 2.873.173-6.878zm4.602-28.979-.258 28.301-3.616.002 1.81-28.207zm63.289 28.252-.308-28.309 4.111.18 1.89 28.124zm.02 1.748-.012-1.056 5.722-.005.053 1.343zm-.44 31.422.438-30.729 5.792.284 1.204 30.842zm7.635 5.529-7.815.011.164-4.847 7.477.399zm.692-.021-.171-4.379 39.71 2.117zm-9.384 25.915.853-25.191 7.857-.011.299 25.727zm9.151 12.694-9.857.014.675-12.016 9.048.528zm-10.88 18.224.984-17.518 9.894-.014-.301 18.199zm10.273 19.022-11.764.017 1.445-18.347 10.611.669zm-12.617 10.832.798-10.123 11.796-.017-.531 10.948zm-52.942-10.044.834 10.102-10.108.711-.523-10.799zm-1.573-19.061 1.516 18.369-9.764.014-.321-17.815zm-8.907-18.169 7.812-.012 1.046 17.49-8.533.565zm7.051-12.749.72 12.045-7.774.012.119-11.632zm-6.669-25.842 5.695-.008.941 25.158-6.896.422zm-.676-.71-40.499-2.247 40.663-2.285zm6.163-4.87.182 4.88-5.653.008.166-4.59zm-.458-31.421.44 30.728-5.262.296 1.114-30.832zm62.45 30.654-61.319.056-.439-30.729 62.195-.056zm-61.117 5.646-.183-4.899 61.283-.055-.165 4.866zm60.059 25.774-59.093.056-.94-25.138 60.885-.088zm-58.338 12.813-.721-12.065 59.027-.056-.676 12.037zm56.608 18.104-55.522.056-1.044-17.468 57.549-.084zm-53.954 19.138-1.518-18.391 55.424-.055-1.446 18.369zm51.609 10.714-50.72.056-.832-10.079 52.348-.076zm5.56-124.65.011 1.04-62.198.056.01-1.048zM193.2 159.779l61.598-.056.308 28.325-62.164.048zm-4.602 29.012 3.646-.003-.01 1.065-3.681.191zm.557 148.571-1.09-22.487 10.142-.714 2.576 23.182zm12.324-.02-2.579-23.205 50.589-.055-2.486 23.189zm45.058 4.277-44.576.055-.404-3.639 45.372-.07zm-3.52 25.988-37.368.111-3.598-25.352 44.401-.055zm-4.23.704 4.12-.012zm.154 22.594-29.05.056-4.01-21.902 36.903-.061zm-28.13 4.003-.771-3.256 28.758-.054-.734 3.26zm23.665 15.881-19.894.055-3.608-15.244 26.934-.05zm-18.185 5.525-1.51-4.779 19.502-.053-1.482 4.815zm13.275 10.493h-9.961l-3.096-9.801 16.079-.017zm-2.637 6.007-2.263 5.09-2.33-5.078zm-4.91-.679-2.128-4.636h9.4l-2.054 4.622zM247.7 337.27l2.483-23.166 12.094.81-1.083 22.335zm11.315-186.059.538 8.012-4.078-.178-.252-7.831zm-4.484.004.251 7.816-61.567.056.251-7.822zm-60.353-21.757.801-13.31 58.038-.053.802 13.309zm-.033.692 59.706-.054.657 20.427-61.02.05zm-3.147 21.117 1.776-.002-.252 7.837-2.033.095zm-57.899 11.298 56.649-2.64-1.808 28.158-55.417-2.7zM155.5 335.676l33.004 2.357.382 4.595-30.396 2.275zm36.22 32.712-2.086-25.12 11.719-.877 3.598 25.357-8.042.631zm98.347-23.708-28.624-2.029.402-4.732 31.112-2.332zm23.517-196.622-53.933 2.446-2.004-20.268 54.414 2.199zM279.595 19.869l-10.828-.571-2.53-2.043 8.579-.459zm-105.461-3.017 7.966.424-2.59 2.077-10.061.533zm-38.2 115.696 56.338-2.333-1.914 20.346-55.906-2.432zm-9.385 15.931 7.142.311-1.249 13.129-8.581.864zm.398 212.299-6.194-9.038 3.877-.633zm1.095 1.597-2.727-11.38 32.716-5.34 8.745 20.861-37.87-2.88zm74.473 67.646-.496-.188.417-.081zm3.748 2.156-2.391.006-.3-1.021zm-2.935-1.85-.209-.709 6.13-1.202 5.362 3.739-6.393.016zm42.817 1.744-3.012.009 3.406-1.299zm.649-2.127-5.616 2.141-6.529.017 5.279-3.74 6.936 1.351zm72.035-297.625-6.154-.54-3.103-17.811 4.059-.16zm11.661-74.654 12.006 20.042-16.318-20.32zm-4.9-1.011-2.53-3.15 3.555-.479 3.29 3.908zm-184.694 47.667 54.224-2.048-.207 3.45-1.239 9.722-54.373-2.094zm-4.849 9.598 2.432.093-3.158 17.88-4.334.396zm68.957 322.151-13.077-1.547 2.641-2.124 9.673 2.154zm.112-1.322 12.807 2.851-12.093-1.431zm40.698-.437 8.905-2.024 2.689 2.127-12.428 1.512zm-1.669 1.717-12.663 1.54 13.446-3.056zm141.547-257.904-16.082 1.866-.522-12.299 14.293 2.575zm.689-.117-2.237-7.604 19.681 3.546zm-13.263-40.254-8.768-1.422-7.323-26.421 3.862-.348zm-16.982-28.46-42.015 3.789-3.302-8.645 44.976 3.628zM193.595 4.989l8.102-.74-8.934 1.091-.247-.05zM92.313 108.232l46.541-3.757-3.298 8.718-43.563-3.804zm-3.747 1.554 2.536.222-7.345 26.604-7.23 1.186zM63.657 316.843l-6.503-12.46 3.711-.971zm-2.118-13.607 31.078-8.13 1.509.232 11.12 28.416-13.881 3.89-24.157-3.998-2.371-4.542zm29.907 57.27 5.555-1.675 30.799 5.396 4.876 13.272-19.582 6.241zm56.388 49.218-8.979-5.28 5.163-1.742zm-3.15-7.247 11.862-4.001 18.813 15.892-22.857-1.899-3.508-2.063zm161.179.206 4.343 1.43-7.589 4.528zm-4.414 6.655-4.944 2.95-22.953 2.021 18.852-16.058 12.79 4.212zm34.349-25.988-18.525-5.791 5.053-13.671 29.847-5.355 5.164 1.528zm53.08-80.115 2.525.648-4.433 8.603zm-3.09 11.546-4.423 8.583-23.636 4.004-14.475-4.006 10.988-28.162 2.035-.321 31.927 8.184zM365.521 108.76l23.744-4.233 4.426 8.315zm28.54 4.834 8.168 23.246-15.372 3.14-12.927-2.096-12.331-28.426 1.76-.313zM161.863 11.658l1.341-.584 1.539-.146zm7.389-1.158 5.149-.489-4.004 2.115-8.97 2.728-4.426-1.076.934-.407zM54.586 113.119l4.51-8.455 24.093 4.207zm30.768-3.87 2.502.437-12.14 28.245-13.663 2.243-15.943-3.194 8.105-23.106zm-48.248 205.45 28.063 9.281 3.833 10.729-17.558 9.924-17.383-28.352zm-4.385-1.45 3.464 1.146-2.441 1.268zm20.811 33.932 22.812 8.003 5.549 10.199-8.596 5.256zm56.154 38.715-9.775 6.427-7.639-9.637zm-18.034-4.027-8.836-16.24 7.934-4.851 21.707 23.296-1.935 1.272zm57.481 30.245-16.913-3.238 5.822-4.107 10.434 6.136zm11.129 13.804-1.139-.314.543-.413zm-.042-1.148 5.193-3.945 25.853 10.293-17.657-1.52-12.186-3.36zm48.795 19.386-6.724-1.346 1.831-.303 4.397.384 1.238.991zm30.942-.249 1.368-1.072 4.07-.371 1.807.294-6.711 1.342zm48.836-18.209-13.474 3.797-17.424 1.55 25.87-10.389 5.707 4.215zm1.303-.367-.134.038.07-.085zm67.475-43.145-7.929 10.022-10.211-6.596zm-18.987 2.88-2.147-1.388 21.595-23.35 8.759 5.234-8.598 15.8zm37.122-14.986-7.988-4.772 5.783-10.628 21.587-7.719zm39.07-54.357-17.331 28.354-16.796-9.327 4.028-11.274 27.265-9.201zm.315-.618-2.232-1.14 3.157-1.065zM23.743 292.06l-2.943-6.943 1.067-.511zm-1.237-7.76 6.978-3.341 20.728 6.388 6.006 16.642-19.174 9.96-4.682-1.549-6.858-16.183zm35.925 84.205-11.185-10.674 1.527-4.375zm13.231 6.791-1.611 5.639-8.553-9.368zm-11.147-4.829-11.451-17.842 2.181-6.246.999.35 20.596 24.443-.987 3.455zm158.681 74.583-7.709-.67-.339-.272 3.297-1.217 6.483-.012zm9.352-2.184 6.464-.011 3.533 1.277-.227.178-7.954.739zm159.459-71.851-8.772 9.657-1.749-5.736zm12.444-17.711 1.474 3.972-10.769 10.539zm-11.457 16.603-11.71 4.365-1.117-3.665 20.209-24.107 1.367-.488 2.406 6.481zm38.482-85.613.448.21-1.243 2.965zm-2.57 7.409-8.533 20.343-4.378 1.478-19.655-10.039 5.843-16.245 21.328-6.673 7.325 3.427zM128.167 421.466l-.053-.021-.333-.311zm-.35-1.214-1.286-1.109 1.123-6.781 30.331 13.604-.165 1.665-20.794-4.082zm318.83-191.826-6.564-10.574-1.123-18.193 5.628-4.068zm.778 1.332-2.184-34.838-.346.022.338-.077-7.73-34.277-.338.077.321-.13-13.161-32.819-.321.13.297-.179-18.203-30.469-.297.178.271-.216-4.932-6.219-.151.124.151-.124-21.671-25.927-.272.214.227-.261-25.651-22.181-.227.262.182-.295-29.014-17.923-.182.295.131-.321-31.755-13.049-.131.322.079-.338-33.669-7.844-.033.174.033-.174-3.609-.675-.047.343.047-.343-6.577-.619-.015.25.015-.25-24.579-1.121-.032.346-.015-.346-24.764 1.121.019.254-.019-.254-6.524.619.05.343-.05-.343-3.553.731.028.11-.028-.11-33.72 7.842.079.339-.132-.32-31.813 13.107.132.319-.182-.295-29.069 17.922.182.296-.227-.262-25.708 22.292.228.261-.267-.222-21.681 25.995.273.215-.273-.215-4.664 6.24.288.192-.288-.192-18.212 30.538.297.177-.321-.128-13.107 32.877.321.128-.338-.075-7.728 34.389.338.075-.346-.021-2.128 34.895.346.02-.344.034 3.416 34.556.344-.034-.335.089 8.851 33.324.334-.088-.316.141 14.002 31.253.315-.141-.289.192 18.763 28.452.29-.192-.254.235 23.026 24.931.247-.242-.247.242 10.947 10.546-.613-.231 26.836 20.577.141-.163-.089.197 29.721 15.316-.521-.488 16.215 6.252.11-.328-.11.328 23.719 6.786.082-.337-.082.337 17.339 3.422.049-.343-.049.343 18.642 1.672-.719.186 27.399-.071-.767-.185 18.498-1.713-.051-.343.051.343 17.284-3.535-.083-.337.083.337 23.832-6.842-.112-.328.112.328 16.022-6.306-.465.446 29.689-15.387-.088-.194.139.16 26.865-20.66-.689.264 10.662-10.611-.25-.241.25.241 22.968-24.929-.255-.235.289.19 18.707-28.452-.289-.19.315.141 13.945-31.308-.316-.141.335.089 8.794-33.27-.335-.089.347.034 3.304-34.556-.346-.034z"
        style="fill:none;stroke:#c6c6c6;stroke-width:1" />
</svg>