<svg xmlns="http://www.w3.org/2000/svg" xml:space="preserve"
    style="fill-rule:evenodd;clip-rule:evenodd;stroke-linejoin:round;stroke-miterlimit:2"
    viewBox="0 0 504 482">
    <path
        d="m437.065 381.204-10.97 4.6 1.27-1.64 10.87-4.5-.58.8zm-13.89 5.54-15.14 1.98 1.86-2.07 16.51-2.33-1.51 1.97zm-20.88 2.89-22.79-.88 1.59-.4 22.61 1.1zm-79.26 57.49-.91-5.57 2.51-21.16 1.3 5.5zm-12.71 27.58-1.57-5 7.42-9.52 1.27 5.56zm-79.2-42.58.2-.26-1.17-.85-4.72-4.43.31-1.08 29.31 26.39-.13.41-23.6-20.44zm-27.42-9.5-16.07-1.19 5.1-7.249 21.82 8.889-10.34-.57-.02.33-.09-.31zm-19.53 8.2-.31.13.12.3-.19-.26-.93.65-.57.36-.41.11.04.15-.08-.13-.31.12.09.22-.13-.2-.36.2 1.03-2.94 8.8-2.41zm-66.28 22.65 8.19 2.61.6.7-8.27-2.91zm-14.98-22.03.43-3.42 4.41 11.66-.32 3.33-3.45-8.03zm-22.36-5.11-.1-.1-.23.23.1-.31-.6-.2 13.3-.93 5.2 1.8-12.45.88.03.32-.19-.27c-.14.1-.95.29-5.06-1.42m-1.17-.35-.06.18zm-20.62-16.45 4.97 5.98 1.8 3.53-5-5.68zm10.51-57.138 2.91-6.634-4.63 12.43.3.111-.3-.111-.34.946-3.34 7.506zm3.63-36.624.23-.238-4.14-3.856-2-2.085 9.59 5.958.48 2.883.06.844-.6-.471-.56-.67-.25.207.14-.293-.24-.121-2.48-2.396zm-50.87-4.793 6.74-.184 3.29.941-3.14.058-4.84-.295zm-6.09-2.192 8.3-.205 3.23 1.594-7.79.212-1.12-.164zm-7.48-4.528 2.09 1.068.41.269 1.12 1.213-2.54-1.378zm-3.3-4.328 3.07 1.464.22.214 1.47 2.663-2.76-1.412-.67-.517zm-1.63-4.47 3.39 1.45.99 3.605-3.27-1.557zm-.66-17.651.62.669-1.01 4.8-.41-1.009zm1.87-5.779 1 .2-2.02 5.533-.68-.739zm2.94-5.799 1.26-.444-2.94 5.83-.99-.198zm4-6.211 1.34-.628-3.64 5.547-1.14.402zm5.07-6.314 1.54-.91-3.98 5.054-.56.474-1.15.539zm5.83-6.413 1.62-1.024-4.32 4.723-.44.374-1.21.71zm-1.32-41.084-5.55-12.445 12.1 18.525.27-.182-.27.182.28.404 6.15 12.967-10.98-16.109-.27.184.23-.237-.11-.106-.27-.516-.28.157.28-.157zm-12.23-25.629 4.13 9.152.3-.142-.3.142 4.33 9.64-5.41-9.835zm-4.48-19.275 3.65-3.552 1.35 10.685-3.25 3.893zm1.89-8.152 3.23-3.376-1.53 7.118-3.37 3.277zm9.59-9.707 7.65.005-4.62 5.095-8.04-.142zm8.2-2.208 6.42-.176-6.27 1.736-5.99-.004zm23.7 1.044.46.155.1-.312-.1.312 1.04.304.27.136.15-.294-.11.312 9.59 3.097-9.68-.848-12.35-3.869 10.08.862zm10.26-17.328.23-.078zm-3.29-16.047 1.09 3.657.12.953.32-.053-.32.053 1.95 9.607-.11-.234zm3.61-50.405 5.44-5.041-1.53 3.176-.13.21-5.45 4.618zm7.23-6.539 9.17-1.888-1.9 5.109-9.75 1.208 1.99-4.12zm3.69-1.534 7.13-1.863-1.26.758-6.37 1.311zm53.9 10.193-.21.523.6.244.34-.822-.31-.116.31.116 6.75-19.072-.97 4.635-7.3 23.844.86-7.304-.33-.038.03-.127.28.112.17-.408-.24-.096.25.055.17-.683-.31-.081-.26-.203-.15.189-5.65-2.986 1.51.277.42.142zm83.73-29.038 1.72 2.251-2.03.338-13.07-17.328 1.45.514zm.86-.433.16-.269-.28-.169.28.169 4.16-6.193-.28-.176.28.176.16-.268.48-.671-.28-.178.28.178.17-.282-.29-.167.29.167.15-.252.3-.385-.26-.203.28.167.16-.271-.28-.167.28.167.49-.81-.28-.167.28.167.46-.78.31-.396-.25-.203.28.167.31-.519.48-.683-.27-.178.27.178.16-.265.23-.344-1.68 7.988-4.86 7.169-1.85-2.429zM257.135 4.7l8.85 2.991-2.2.556-9.93-3.725 1.23-.156zm20.89 10.991-2.38 1.696-11.15-8.644 2.58-.652zm.93.802.7.677.12.231.29-.148-.25.214 9.94 11.561-.92 1.219-1.87 1.124-10.86-13.51 2.46-1.748zm36.96-4.188.62.133-26.76 17.987-.05-.019.95-.713-.21-.255.21.255.61-.521zm104.36 145.717-7.7-4.036-6.03-10.544 7.84 6.131zm6 5.231.08-.159zm5.78 2.948.14-.298zl.88.352-1.4-.43-1.47-.59-.42-.274 2.12.796zm55.19 22.581-9.47-3.925-.11.307.11-.307-.41-.138-1.78-1.384 9.91 4.03zm2.91 2.526.21-.183zl.83.945-10.04-4.086-1.99-2.113 10.11 4.19.38.246zm9.23 11.601-3.37-3.152-.66-1.683 3.41 3.405zm-11.25 37.139-6.38 2.302 3.31-3.635 5.86-1.749zm-3.93 3.869-7.4 3.115 3.69-3.52 6.53-2.367zm-4.99 4.102-8.02 3.637 3.79-3.21.39-.105-.09-.316.13.301 7.03-2.961zm-5.46 4.086-8.4 3.987 3.53-2.75.39-.106-.08-.316.13.297 7.47-3.382zm-6.38 4.338-8.26 4.102 2.93-2.212.89-.365-.14-.299.14.299 7.29-3.456zm-6.67 4.32-7.55 4.005 2.03-1.561 1.06-.506-.15-.295.15.295 6.28-3.121zm-15.83 10.35.13.155zm-6.63 5.106.05.065zm-14.51 12.549.3.129zl-.32.802-.33.671-.14.251.29.178-.09.096-.22-.105-3.47 7.303-.71-4.722.01-.27 6.93-8.09-.95 1.694.29.148-.29-.148zm-.27 1.662-.08-.04zm24.05 57.879-1.11-3.227.41.753zm.42 19.526 2.18-6.543-.05.574-2.18 6.426zm-1.94 4.479-6.27 5.56.21-2.92 7.25-6.382-.31 2.622zm-6.81 6.6.09.05zm-11.43.95 11.5-4.57-.23 3.25-.07.11-11.44 4.73zm-17.71 6.11-.13-4.02 17.18-1.95-.25 3.6zm-28.96 1.72-29.33-1.1-.13-4.15 31.66 2.92-1.77 2.35zm-31.79 2.77 3.94-.1-5.06.77zm-17.59 9.63.09-.24 9.73-5.16-9.94 8.84zm-10.07 39.73-5.24-13.48 3.04-18.56 4.76 10.791zm-4.96 19.26 5.02-16.09 1.03 6.31-4.87 15.28-1.19-5.18zm-8.14 9.85-3.45-12.58 7.35-11.12 3.59 13.83-.01.26zm-8.46 9.52-1.73-4.69 9.84-3.69 1.59 5.07zm-44.5-26.03 9.62 10.25-9.74-9.88zm-60.81-46.41-3.49-4.74 27.89 14.48.39.25 4.86 7.64zm-2.41 7.48-24.56 4.55 2.86-12.92 23.47 1.441zm-5.53 7.96-.24.1.14.29-.14-.29-24.95 13.08 5.97-15.89 24.29-4.5zm-46.4 33.18 17.38-8.43.15 2.59-16.92 7.46zm-.63.18.59 1.58-12.5.77-.95-1.09zm-31.45-14.47 7.37 7.13-.26 4.08-7.48-7.37zm-4.82-13.83 6.67-1.69.98 3.09-3.12 10.7-4.53-12zm-.66.16-.23 1.77-.15-1.69zm16.18-6.2.59-.25 3.79-.78-13.12 4.68-6.44 1.63zl-.12-.31zm19.61-17.18 5.16 3.1-24.43 13.23-.46.19-5.41-2.229zm-48.57 14.57 19.85-7.75 2.43 7.31-19.14 6.86zm-25.85-12.84 10.2 2.921.07 10.589-10.17-3.44zm-6.16-8.079 5.5 7.75.1 9.719-5.96-7.17-.1-.429zm-.61-.981-.27 5.93-.68-7.91.08-2.43 1.23-6.41zm7.08-17.8 4.45 8.86-5.21 16.83-5.62-7.919zm13.82-53.239-.18 1.111-.12.215.28.169-.33-.011-.01.214-.44 1.047.19-5.78zm-1.16-9.628-1.29-7.212-.32.062.32-.062-1.32-6.316 6.02 9.924-1.95 11.424-.96-4.781zl-.32.054zm-12.08-7.638-.54-.389-3.04-3.739 13.76 4.862 1.12 6.292zm-13.46 2.957-.86-.156-4.13-1.93 17.59-.694.47.342 3.23 3.366zm-6.4-2.021 4.19 1.957-14.02 1.181-1.14-.035-3.35-.971zm-27.42-7.506 2.2 3.569-8.78.354-.29-.188-1.72-3.127zm-1.42-5.125 1.18 4.485-8.76.62-.13-.123-1.1-3.989zm-14.28-8.136-.1-.332.02-3.515.19.478zm1.97-9.131 4.64-.205-1.57 6.123-4.21-.496zm2.32-6.438 5.34-1.381-2.82 6.949-4.63.206zm3.4-6.784 5.86-2.186-3.59 6.831-5.3 1.37zm10.04-13.613.43-.36 6.34-3.511-4.59 5.983-.41.342-5.96 2.852zm6.46-6.947 1.22-1.033 5.77-3.877-4.62 5.663-1.04 1.012-5.97 3.302zm3.35-5.244 2.04-1.413-4.6 5.134-1.2 1.017-1.58 1zm5.21-4.924-.22.383-1.05 1.015-2.07 1.435 3.14-3.521zm2.32-.207-.13 3.951-.69-1.586-.69-1.943-.22.078.2-.116-.13-.252-.4-1.374-.31.104.31-.104-2.23-5.948zm-1.16-5.062.41.949 1.98 5.276-.6-1.381-.3.132.28-.167-9.87-16.695zm-5.96-22.796 22.19 29.353-3.02 3.255-20.82-27.236zm-12.99-48.342 1.77 11.612-8.69-1.688-1.36-10.832zm.02-.655-8.28-.909 1.66-7.726 8.31.147zm45-10.791 1.17.303 21.02 9.773-11.43-.733-.39-.133-21.13-10.154zm.76-.811 1.2.452.1-.311-.1.311 3.93 1.097.09-.316-.09.316.5.13-6.23-1.506-3.96-1.278zm.95-.341-.57-.213-.91-4.719zm-.75-26.898-.36 10.901-5.97-16.36-.98-14.014zm-8.19-47.074-2.95 7.991.22-6.873 3.07-7.972zm7.32-5.239-6.63 4.649.4-8.127 6.24-5.283zm10.75-10.679 1.08 10.635-11.18-.108.02-9.225.03-.057zm15.96 4.402-15.24-4.975 1.94-5.255 13.93 3.504zm20.54 2.846-18.99-9.896 2.79-2.593 17.52 8.361zm12.34 10.372-.32-.024-.02.525-7.44 25.988-.03-10.177 8.41-24.219-.92 7.883zm6.31-7.376.32.018zl-.02.517-7.04 24.005 1.06-16.581-.33-.016.33.016.02-.513 7.28-23.563zm24.76-55.629-.22.091.12.303-.21-.254-7.69 6.23.18-.21 8.58-7.159zm11.51-2.81-10.49 2.544 1.93-2.543 10.68-3.052zm12.29 2.662-11.54-2.587 2.31-3.328 11.56 2.331zm16.22 5.551-.25-.125-8.28-6.146 8.89 6.401zm11.11 25.03-13.76-19.756 2.35-4.653 13.65 18.097zm5.26-6.48 3.55 3.717.23-.227-.23.227 13.9 14.983-2.87 3.356-16.64-21.712zm3.56 2.784-2.74-2.883 4.15-6.117zm12.2-21.065-.12.203-9.58 9.472 1.74-8.255 10.67-8.311zm11.47-4.701-10.59 4.251 2.82-7.172 10.97-3.718zm15.54-7.089v-.051zm8.68 11.847-11.68-4.564 3.21-6.949.18.005 10.92 4.096zm12.45 10.034-11.86-9.715 2.62-7.388 11.34 8.797zm7.28 9.19-6.73-8.685 2.08-8.221 10.61 13.202zm9.91-6.694-1.1-1.285 1.25 1.323zm24.52-9.841-27.28 17.824 2.48-5.697 26.67-17.931zm22.1-15.335-19.65 8.389-.43-.092 19.47-8.63zm15.46-1.112-14.64.816-.28-.154 14.46-1.046zm20.07 19.355-8.1-9.168 1.06-4.678 7.98 9.174zm4.36 15.558-3.83-14.857.81-4.03 3.95 14.691zm-.03 21.115.38-19.671.57-2.594-.1 19.206zm-2.14 23.001-.25.959 2.31-20.664-.32-.024.32.024.03-.659.42-1.537zm-.76 6.084-.33-.013zl.02-.792.47-1.726-.86 11.027zm2.66 20.919.28-.165-.17.274.38.249 1.37 2.276-10.62-11.576-.53-.77-3.24-14.311 6.72 15.124.3-.134-.28.171.88 1.422.27-.187-.27.187.44.57.56.965.28-.174-.28.174.3.441.24-.175-.24.175.45.575 2.59 3.914zm10.59 9.031.04-.041zm1.33 1.398.04-.02zm17.15 23.023-.29-.273-4.7-5.852 4.44 4.527.24-.232-.24.232 2.36 2.278 3.26 3.287zm-6.8 7.731-7.07-13.988 13.15 6.48.23.219 6.47 11.306zm22.45 9.855 3.36 9.024-8.33-3.406-3.43-10.227 8.18 4.287zm1.4 1.888-.02-.051.22-.156zm2.3 2.201-.33-.449.12.045.25.237.23-.236-.13.304 1.77.736.35.231zm25.27 13.438-21.05-2.863-.2-.384-.79-2.378 17.91 3.262.06-.321-.01.327.37.012zm41.67 16.314.52.626.97 1.708-9.43-3.565-2.03-2.806zm2.77 3.175-.27-.389-.3-.527 2.01 1.94.12.231.29-.148-.26.209.58.692.28.434zm-8.83-.479-1.44-3.062 9.51 3.599.21.305.99 2.504zm11.07 7.464-.64-2.565 3.69 3.451.44 2.02zm.35 3.867-.24-2.926 3.59 2.997.26 2.346zm.03 4.255-.01-3.455 3.66 2.458.03 2.869zm3.41 5.438-3.97-1.219.49-3.52 3.75 1.906-.03.855-.17.651.32.081-.32-.012-.04 1.184zm-20.33 25.767-.21.087-14.49 3.855 4.63-4.705.21-.086 13.38-3.013zm-30.73 23.765-.28.118.14.293-.14-.293-15.38 8.202 3.43-3.786 15.17-6.793zm-5.62 4.974.15.22zm-16.2 10.743.42-.476 9.97-6.49-5.32 4.499.21.256-.21-.256-6.79 5.529zm-8.76 4.236 11.03-8.32-2.32 3.155-.46.525.24.216-.24-.216-8.55 9.981zm-1.01 6.276-.01.394-1.75 10.706-4.05-7.155 6.11-9.206zl.33.015zm3.18 11.621.49-2.852.39 4.668zm1.13 2.313.12-.011zm6.22 12.537-.1-.203.32.481zm1.18 2.013.13-.096zm.3.425.1-.107zm14.38 24.69-.12-.381-.31.115.31-.115-3.9-9.609 2.37 2.753.24-.226-.24.226.12.12.12.226.29-.147-.27.184 1.43 2.077 3.16 9.17zm4.22 6.358.07-.022zm-2.7 8.883-3.73-6.265 2.06-8.069 4.07 5.592.1.404zm-6.21 12.534-1.3-4.849 7.43-6.298 1.31 4.598zm-12.16 5-1.87-5.36 12.13-4.181 1.33 4.941zm-17.88 2.11-2.96-5.94 18.33-1.39 1.87 5.37zm-25.59 3.46-.92-4.33 26 1.53.13 4.03zm-32.66-3-2.52-5.59 33.58 4.2.92 4.34zm-21.68 10.37-3.67-8.12 24.81-1.59.13 4.23zm-13.96 33.29-11.55-19.57 6.78-12.85 7.84 13.7zm-11.08 30.16-9.4-23.69 5.32-10.4 11.48 22.91zm-10.16 5.24 9.87-4.09 3.49 12.7-9.86 3.69zm-7.11 16.62-1.84-5.15 12 1.56 1.71 4.63zm-47.18-51.44 24.21 19.3.23.22 5.06 15.56-18.84-19.56zm-20.34-10.5-.21.26.17-.28-.41-.27-8.65-8.93 27.28 17.92.4.39 10.52 15.32zm-12.43-11.4.81.52 9.33 9.63-26.03-13.51zm-37.03.35-3.31-3.2 2.59-.579 19.29-.211v-.26l.12.02-.12.24.3.14.15-.299-.01.329.45.02 3.86 5.23zm-3.47 13.78-19.24 11.41 4.06-17.94 18.06-6.43zm-6.32 16.86-18.39 11.24 5.25-15.79 19.11-11.34zm-33.4 15.35 13.98-2.94-1.59 6.65-13.09 1.27zm-7.49-14.35 11.16 1.02-4.17 12.67-10.39-2.68zm-8.18-7.58 7.57 7.33-3.36 10.88-7.44-7.19zm-.2-1.82-.66-2.07 1.28-.45zm7.96 8.42-7.56-7.32.96-3.88 10.2-3.64zm25.19-28.429.24-.091 7.42-1.08-7.93 4.181.15.289.13.3 1.54-.64-.05-.13.05.13 2.41-1.06 2.45 2.721-14.65 5.02-.73-1.541 8.2-4.109-.12-.301.17.27.62-.39-.35-.559-.61.389-.59.241.14.299-.14-.299-11.3 5.699.15.301-.01.12-.12-.301-4.63 1.921.25.599 4.55-1.88 3.95.25-4.62 19.43-11.17-1.01 3.74-15.45 3.39-1.34-.12-.31-.06-.31-5.34 1.09zm23.5-21.951 4.96 4.79-28.45 16.45-.13.06-5.23-3.14zm-30.8 9.44.98 8.55-25.36 14.41-2.42-7.309zm-46.36 11.22 21.63-9.67-2.75 13.711-19.84 7.75zm-.67.171-.97 11.809-14.17 1.25-.08-10.66zm-20.73-18.201 10.69 2.17-5.72 17.75-10.23-2.93zm11.99-40.443 3.16 10.665-15.37 28.688-4.49-8.94zm2.51-18.332 10.12-28.614 5.13 11.017-17.13 33.313zm1.63-18.053.33.023 1.56-20.877 6.19 9.473-9.41 26.598 1.66-15.194zm-11.52-10.71-2.21-8.048 9.71 6.006-.98 12.792zm-16.44-2.052 15.87 2.471 1.54 7.391-14.38-5.081zm-21.13 3.803 3.27 3.409-15.47 2.904-3.1-2.761zm-2.64-4.75 2.25 4.166-15.45 3.587-2.24-3.639zm-1.54-6.066 1.31 5.45-15.49 4.127-1.19-4.527zm-25.31.649 8.98-1.628.22 5.52-8.82.995zm2.33-13.027 10.01-3.766-2.16 7.381-9.42 2.505zm3.13-7.75 10.4-4.871-3.27 8.061-9.95 3.744zm4.06-7.757.24-.203 10.37-5.72-3.89 7.908-10.29 4.818zm5.43-8.075.4-.341 9.63-6.358-4.05 7.481-.27.331-10.09 5.566zm12.9-16.309.26.202-.45 1.547-2.97 2.638 3.42-4.185zm1.95 5.056-6.05 8.204 2.43-4.489-.28-.158.31.094 2.05-6.68-.32-.095.32.095.76-2.553.89 2.046zm30.51 20.603-5.49 3.683-9.87-16.921-2.06-9.352zm-14.75-27.597 21.85 28.669-6.44-1.291-18.43-23.885-.05-.178zm-11.46-25.656.37.244 22.61 30.206-11.28-5.561-21.98-29.073zm-14.95-23.639 14.28 22.661-10.37-4.221-13.37-21.13zm-7.24-16.619 6.87 15.836-9.58-2.726-5.9-14.784zm12.95-6.778 2.87 13.067-15.29-6.804-1.77-11.59zm.02-.692-14.24-5.346 1.7-8.53 13.98 4.682zm23.29 12.801-22.67-12.528 1.44-9.19 21.99 11.315zm38.59 1.642-4.93 7.534-32.04-19.842 5.55-6.063zm-7.9-19.889.53.14 26.55 13.148-9.57 2.175-29.24-16.215zm-9.84-7.494 4.51 1.247 17.91 7.283-11.88-1.527-.54-.141-19.69-9.158zm-12.83-18.427.37-11.372 7.5 19.824-2.68 6.819-.15-.039zm-4.49-43.37 9.02 23.164-4.35 6.473-7.85-20.905zm3.52-21.203 4.41 16.502-7.71 3.315-3.46-15.082zm11.81-.098 5.54 18.465-12.29-1.965-4.44-16.608zm14.77-6.196 2.47 11.985-16.69-6.348-1.07-10.629zm20.42 2.83.61 6.568-20.4-9.848.64-6.704zm11.46 1.857-10.73-2.308 1.3-4.068 10.15 4.869zm-6.96 22.573-.52-5.597 6.98-14.435-.3-.133.3.133.16-.394.82-1.628-.3-.145.3.145.81-1.688zm6.69 5.332-.32-.016-.02.512-6.76 22.546.58-13.753-.32-.012.32.012.02-.514 7.23-25.282-1.05 16.491zm7.07 1.747-.01.364-7.62 20.729.87-22.277-.33-.012.33.012.02-.511 7.19-24.507zm20.52-58.969-9.95 9.299 1.68-16.293 10.07-8.656zm26.12-15.383-11.85-3.786 2.42-8.814 11.62 2.603zm13.3 12.45-12.7-12.138 2.18-9.97 12.49 10.033zm14.33 22.373-13.76-21.776 1.94-11.957 13.71 19.67zm25.43-2.313 26.65 1.011-4.93 8.507-24.6-6.155zm-6.49-7.99 4.31 3.448.2-.258-.2.258 4.71 3.575.07.09-1.7.251-.58-.02-.01.328.01-.328-.32-.009-7.29-7.912zm2.54-12.229-2.54 11.418-2.99-2.147-2.39-2.565zm11.81-6.639-10.75 4.959 1.07-14.899.06-.104 10.82-4.343zm11.73-.135-11.06.024 1.2-14.448 11.2.108zm12.02 5.196-11.38-5.073 1.35-14.301 11.68 4.564zm11.46 9.34-10.84-8.997 1.64-14.731 11.83 9.683zm4.21-1.733-3.64 2.205 2.6-13.871 6.34 8.187zm-19.02 13.987 2.36-3.284 13.13-7.794-.17-.283.17.283 18.06-10.583-2.52 5.767zm52.3-19.593-27.63 17.235 6.87-13.07 27.25-17.807zm43.74-25.497-15.02 1.217 1.39-5.467 14.87-.829zm16.98 24.336-8.16-9.364 3.74-9.786 8.16 9.235zm4.36 15.666-3.9-15.022 3.6-9.542 3.9 15.147zm3.18 12.887-.02.633-3.01 8.259.12-20.636 3.31-8.669zm-4 35.376.01-.524-.32-.01.32.01.01-.246.97-4.392-.42 9.92zm-8.81-15.254-.1-.445 3.84-14.402 1.86 20.021.32-.042-.32.042.13.718.32-.068-.32.068.14.566.63-.155-.13-.545-.12-.659-.11-1.317 2.84-9.781-.8 20.431.32.011-.32-.011-.03.827.33.011-.33.04-1.65-8.835-.65.086 1.29 9.485zm-9.9 5.974 2.07-19.365 7.08 13.061 3.9 17.187zm26.71 26.747.23-.229zl.11.113.12.229.29-.148-.24.227 2.22 2.279.23-.231-.23.231 1.46 1.419 7.59 8.419-12.17-8.649-.54-.524-9.2-14.648zm5.03 2.547-6.13-5.655-.36-.594 6.54 6.215zm17.66 20.612-.64-.941.71 1.018zm-3.04-2.371.13-.13zm-15.38-16.965-.07.073zm7.98 7.947-7.66-7.94.4-.402 7.53 7.949zm1.17-.35.06-.038 4.38 5.358zm2.63 4.896-3.35-4.048.26-.38 6.86 8.228-.05.06zm-15.26-16.314-.12-.239-.29.149.22-.237-.11-.111-.42-.699 4.45 4.104-.33.341-1.23-1.074zm10.37 20.799-10.64-15.302 12.87 9.152 2.17 2.1 8.27 10.296zm-11.34 11.846-7.43-16.665 18.32 5.349 7.22 14.283zm22.63 16.173-3.46-12.285 12.97 4.077 3.51 10.461zm23 17.257-8.36-2.952-.77-11.133 8.48 3.468zm8.81 2.634-3.07-3.804 25.64 2.707 3.37 3.141zm33.3 11.021-2.17-3.893 18.08 2.964 1.51 3.219zm19.47 6.743-1-3.524 9.31 3.361.75 3.012zm.49 4.557-.38-3.837 9.1 2.862.27 3.194zm8.5 10.809-9.36-.95.68-4.396 9.19 1.719zm-.37 4.339.88-3.568 3.95 1.214-.01.407-.64 2.8zm2.87 4.442-4.47-.148 1.4-3.663 4.19.852zm-1.64 3.694-4.88.554 1.78-3.75 4.47.147zm-5.23 1.253 4.85-.55-1.86 3.231-5.39 1.122zm-16.36 7.002.21-.084 11.99-2.047-2.92 3.811-13.32 3zm-10.94 10.673-.21.087-22.04 5.043 5.59-5.665 21.37-4.265zm-26.95 23.228-16.22 8.563 3.04-5.871 17.89-7.214zm-28 18.441 10.45-8.242-1.48 5.698-6.49 9.778zm6.69 16.245 3.2 10.738-9.16-8.728 1.81-9.35zm5.87 7.692 7.15 11.832-8.62-7.5-.24-.346-2.92-9.858zm14 25.112-4.3-10.079 6.8 6.459.55.664 4.03 9.932zm5.68 16.94-7.4-8.224 1.64-7.869 7.77 7.649.09.251zm-3.54 13.953-3.84-6.714 7.46-6.071 3.84 6.459zm-12.73 4.517-4.98-7.308 13.29-3.621 3.85 6.735zm-19.06 1.49-7.21-8.149 20.59-.512 4.95 7.271zm-23.41 5.03-4.87-6.63 27.93 2.25 2.95 5.91zm-34.39-4.29-5.14-7.024 33.78 4.604 4.86 6.61zm-22.78 7.9-4.92-8.57 27.3 1.3 2.56 5.68zm-21.93 21.83-12.25-19.5 10.8-7.11 8.24 13.74zm-8.93 26.02-19.69-29.289 7.95-6.87 17.09 25.719zm-.57 28.98-9.14-24.34 9.56-3.57 9.46 23.82zm-12.56-2.3 12.11 3 3.5 12.27-12.02-1.57zm-.86-.51.1.18 3.56 13.6-13.67-8.79-.09-.18-5.21-16zm-41.95-33.26-.42-.41-15.35-19.45 23.59 14.57.26.25 16.21 24.41zm-84.81-18.91 1.68-.62 2.03-.659-6.37 2.689zm19.44-15.28 7.72 1.83-27.38 12.83-7.61 1.1zm19.78-18.82 4.41 7.29-24.17 10.79-4.97-4.81zm-26.02 3.71.4 9.31-28.92 18.2-.98-8.54zm-54.1 20.55 28.19-17-4.22 15.04-26.71 15.6zm-14.6-10.51 23.67-11.68-9.61 21.731-21.56 9.64zm-17.8 4.68 17.01-4.44-7.53 19.77-15.19 2.39zm4.3-31.556 10.66 2.685-15.39 28.241-10.67-2.17zm14.48-46.353 6.11 9.22-20.66 35.93-3.17-10.688zm-5.27-12.65-6.81-25.239 13.25 9.086-1.46 26.831zm-22.75-8.154-3.41-9.287 10.02 1.239.12.054 3.11 14.077zm-16.81.54 16.3.007 2.24 8.167-16.12-2.511zm-.68.061 2.41 5.65-19.73 3.756-2.27-4.194zm-2.23-7.204 2 6.586-19.61 5.219-1.32-5.487zm-35.23 5.373 15.38-5.97.2 6.462-15.36 5.045zm3.49-15.317 14.49-8.837-1.54 8.984-15.11 7.212zm12.53 9.082 17.35-7.964 1.7 8.188-18.84 6.288zm34.56-2.462-14.87 2.529-1.73-8.338 10.96-6.344zm-19.55-16.632 2.21 10.472-17.15 7.873.95-7.787zm-29.93 18.207 15.23-7.27-.94 7.717-15.31 5.944zm34.77 1.591 14.97-2.547 3.38 9.2-16.33-.007zm25.18-2.007-9.77-1.209-5.78-12.45 5.55-3.721zm1.1.28-.19.271.15-.294-.21-.103-10.1-17.538 6.54 1.312 11.07 21.274zm-13.81-39.839.24.231 20.3 28.863-10.09-6.14-21.73-28.514zm-2.75-18.417.39.381 21.12 29.341-18.07-11.545-.25-.25-22.4-29.924zm-17.97-27.165.24.223 16.83 25.609-19.83-12.393-14.2-22.518zm-9.31-19.191 8.77 18.158-17.1-9.156-6.83-15.751zm20.24-1.015 4.8 15.202-24.5-14.644-2.86-13.031zm33.43 9.052.18 12.021-32.99-21.463.76-10.397zm5.72-7.835 32.34 18.693-3.46 9.573-33.82-20.718zm8.99-4.048 29.31 14.378-5.65 7.785-32.03-18.512zm10.55-2.422.19.097.14-.294-.11.309 24.41 8.656-5.48 7.494-28.72-14.087zm-13.01-11.741.86.158 21.93 7.993-9.42 3.041-25.82-12.793zm-14.1-7.08 10.73 2.42.07-.32-.07.32 14.85 3.148-10.51 1.024-.84-.153-17.84-7.257zm-10.55-3.049-2.23-.841-2.2-8.382 5.36-4.303 3.41 14.726zm-7.19-2.35 2.33-5.943 1.89 7.217zm-1.01-34.911 8.94 23.047-5.4 4.33-7.9-20.896zm-1.17-27.986 9.84 25.268-8.39 1.641-9.18-23.586zm12.96 1.94 8.99 23.894-11.44-.636-9.82-25.219zM91.575 73.7l5.14 16.397-16.29-4.353-5.52-18.384zm18.47-2.582 1.31 5.875-19.24-3.822-2.45-11.894zm9.9-3.752-9.33 3.085-.59-6.469 10.48 2.256zm-6.85 14.203-.95-4.067 6.51-7.426zm-10.82 24.123-4.68-14.96 15.11-7.676.62 6.587zm11.11-3.436-.02.481-8.51 17.847-2.35-14.078 10.84-15.728zm-.38 16.926-.33-.013-.01.346-7.37 14.994-.26-12.776 8.26-17.33-.62 14.766zm-1.11 15.008 1.42-14.573-.33-.022.33.022.01-.381 6.77-22.577-.85 21.696zm15.42-6.794-9.4 11.673 1.97-20.563 7.69-20.914zm19.87-62.989-9.74 10.633.64-28.443 9.99-9.346zm12.58-30.309-10.96 1.975 1.84-15.931 10.97-2.363zm12.75 5.847-12.1-5.763 1.86-16.385 11.87 3.79zm13.65 15.147-13.03-14.762 1.62-18.27 12.68 12.12zm14.61 22.56-14-21.836 1.26-20.735 13.72 21.698zm94.56-20.1-.11.179-26.25 14.772 10.65-20.467 27.65-17.245zm51.98-38.512-16.05 2.625 5.1-11.622 15-1.215zm12.54 3.745-11.87-3.659 4.07-10.256 11.57 4.041zm2.6 24.835-8.77-8.752 6.46-15.074 8.18 9.382zm10.09 2.088-5.27 13.208-4.35-14.7 5.71-14.063 3.92 15.114zm-19.76 37.151-15.28-4.191 6.77-22.318 10.65 6.512zm.28 58.624-5.43-17.414 24.07 1.597 7.5 16.81zm30.25 15.468-3.17-13.725 18.23 2.987 3.5 12.409zm19.98 13.763-.63-11.33 13.11 2.268.78 11.202zm19.43 17.059-8.27-2.322 2.69-11.776 8.4 2.966zm5.73-17.68.23.455-.07 2.272.33-.007-.33.007.11 1.399.01 4.098-.05 1.49-2.43-3.488-.62-10.101zm.9 3.809-.02-.253.3.288zm.04 4.132-.02-3.469 1.02.125 3.07 3.805zm10.79 10.66-2.1-4.499 26.61 1.41 2.22 3.967zm29.2 5.797-1.42-4.178 17.44 2.292 1.04 3.637zm.65 5.111-.52-4.44 17.07 1.752.4 3.908zm16.1 11.136-17.58.083 1.11-5.078 17.14.565zm8.98 5.246-9.8-.195 1.34-4.373 9.36.951zm-1.64 4.368-10.38.558 1.99-4.472 9.81.195zm-2.11 4.489-11.25 1.425 2.66-4.683 10.4-.559zm-50.33 23.687-23.96 5.459 3.98-6.226 25.63-4.95zm-6.32 6.565-.22.089-21.09 5.967 3.19-6.379 23.61-5.381zm-5.86 6.689-18.51 6.806 2.39-6.549.14-.058 20.78-5.878zm-4.96 6.746-15.12 7.683 1.31-6.826 18.06-6.64zm-21.46 24.603 6.58-7.796 2.56 7.451-1.86 9.61zm17.39 19.942.24.353 2.57 9.255-13.59-10.883 1.09-7.956zm13.97 28.985-12.74-10.557 2.34-7.373 12.01 9.838.06.12zm.2 15.435-8.2-8.87 8.16-5.538 7.5 8.333zm-13.91 3.893-10.02-9.825 15.11-2.642 8.18 8.849zm-21.45.569-12.53-10.646 23.14.364 9.96 9.77zm-21.03 6.479-9.12-8.812 29.87 2.977 7.15 8.085zm-34.66-4.707-6.99-8.327 31.47 4.111 9.09 8.783zm-22.4 6.417-4.63-8.282 26.68 2.484 5.19 7.088zm-29.19 11-7.51-14.997 12.56-3.387 5.75 11.274zm-16.41 16.24-14.02-22.93 10.89-3.54 11.09 19.6zm10.04 33.9-21.34-31.07 11.07-1.97 19.81 29.47zm-3.35 21.89-11.56-25.35 14.54 4.13 9.1 24.22zm-59.54-54.4-13.36-14.39 19.78 4.44.18.09 17.21 24.57zm-9.63-37.523 4.82 10.123-18.77 2.84-4.43-7.32zm-44.38 9.193 23.74-13.058 1.4 9.136-24.74 13.272zm-25.72 3.45 27.81-17.053-2.72 13.223-29.31 18.84zm-19-5.22.11-.19 26.84-15.362-8.5 20.332-28.05 16.91zm-7.99-17.66 21.74-9.834-14.27 27.084-23.56 11.63zm-18.76 5.738 17.85-5.443-16.19 29.065-16.94 4.42zm9.74-39.469 9.89 4.48-20.01 34.34-10.66-2.684zm-4.83-37.964 12.4 9.425-7.83 27.347-6.07-9.172zm-11.07-39.979.25.244 14.69 24.19-19.64-12.576-.41-.393-21.01-29.222zm-17.68-27.591 16.76 26.171-26.34-17.904-.4-.381-16.78-25.529zm-12.33-22.848.25.356 11.42 21.271-27.04-17.822-.23-.229-8.76-18.135zm28.53 5.73 5.88 17.343-33.65-23.131-.23-.329-4.81-15.227zm34.07 21.111-33.47-21.503-.18-12.047 33.79 20.697zm4.35-22.824 23.49 8.438-2.14 12.323-24.82-11.146zm6-8.399 18.71 3.432-1.14 12.739-23.25-8.352zm5.94-8.126 13.08-1.954-.28 12.854-18.31-3.36zm-14.52-12.147 19.14 2.77-4.96 8.675-23.65-8.39zm-10.2-9.569 17.75 1.508-7.66 7.348-21.3-7.763zm-6.6-5.736-.07-.32-.03-.325-9.32.861 8.26-4.279-.15-.291.2.259 9.28-7.155-6 10.166-1.7.327.07.319-.07-.319-.47.125.17.632.44-.118 1.84-.352-.07-.32.07.32 12.74-3.141-8.13 8.706-.43-.013-15.38-3.258zm-19.97-3.881-.45 2.976-.59-.019-3.95-.893zm-2.7-15.357 2.74 14.631-6.15 2.542-.6-.111-3.47-15.027zm-8.31-23.448 8.14 22.816-7.51 2.04-9.01-23.216zm17.7 19.83-8.93 2.802-8.08-22.652 11.42.634zm.57-.377-5.51-18.939 12.11-3.91 2.44 14.682zm15.75 6.295-.14.453-7.83 9.633 2.06-9.724 7.34-15.01zm-8.8 12.1-.24-.223zl.48-.545-.25-.212.25.212 7.46-9.177-3.75 9.972-8.81 4.565zm-13.5.651 7.27-3.622-1.74 7.783-6.04-.822zm7.39-4.416-7.45 3.711-2.71-14.53 8.87-2.785zm8.52-8.539-.11.279-7.8 7.734-1.28-13.378 8.92-8.048zm-2.87 11.838-6.75 4.873 1.75-7.812 7.49-7.428-2.1 9.922zm-6.44 5.453 3.91-2.821-2.88 2.999zm21.81-13.068-.09.152-9.66 7.451 4.1-10.905-.3-.106.3.106.17-.532 7.38-15.884zm6.75 8.46-12.84 3.165 6.67-11.326 9.37-11.638zm23.29-83.123.86 36.811-10.2 10.024-.44-36.165zm11.77-3.187-11.13 1.975.91-27.4 10.97-1.978zm13 7.035-12.35-6.949.75-27.37 12.09 5.759zm14.14-13.177.4 28.12-13.9-14.517.5-28.341zm14.66 22.836.1.196 1.72 22.999-15.42-17.211-.39-27.804zm79.04 7.955-22.39 9.456 11-22.715 26.23-14.756zm16.05-28.878 23.46-14.12-14.06 27.219-.25.209-24.11 14.913zm43.11-21.25-18.18 5.709 10.14-20.02 16.05-2.625zm14.12 1.892-13.4-1.883 8.03-16.973 11.88 3.663zm-16.26 44.037-19.46 4.917 10.31-25.998 15.95-1.325zm10.58 44.776-7.26-20.754 20.37 2.536 10.83 19.805zm-31.15 19.332-1.12-14.838 31.8-3.824 5.44 17.42zm38.95 13.282-2.01-13.869 26.25.998 3.18 13.773zm58.6 29.314-13.89-1.508 3.3-12.452 13.29 2.145zm.39 14.735-7.94-1.785 7.94-12.212 8.22 2.306zm12.57-12.209 1.74-4.521 8.82.816 2.11 4.505zm15.09 6.263-1.44-4.759 26.82.882 1.44 4.224zm.48 5.791-.37-5.135 26.88.347.52 4.469zm25.54 10.932-27.37 1.789 1.28-5.889 27.2-.989zm16.75 4.953-18.17.86 1.92-5.175 17.59-.084zm-2.28 5.167-19.04 1.754 2.87-5.392 18.18-.861zm-3.05 5.411-20.06 2.64 3.68-5.606 19.06-1.755zm-63.14 27.826-18.96 4.431 1.87-6.777 21.1-3.918zm-3.62 7.217-.18.075-16.39 4.937 1.06-7.083 18.73-4.378zm-3.01 7.479-13.89 5.618.25-7.381 16.05-4.834zm-1.5 7.712-10.52 6.616-1.83-8.018 13.68-5.531zm-10.31 7.26 10.33-6.498.74 7.214-6.71 7.954zm-.83 16.347 5.12-6.554 7.54 9.599-1.1 8.003zm23.61 30.862-16.44-12.344 4.69-6.322 14.09 11.28zm4.81 17.085-14.09-11.438 9.41-4.718 12.83 10.628zM409.465 355l-15.72-12.08 16.77-1.926 14.01 11.372zm-24.15-.358-15.88-12.531 23.35.9 15.61 11.994zm-17.6 8.243-11.87-10.552 29.22 2.952 12.44 10.568zm-39.27-13.667 26.04 2.861.2.096 11.88 10.566-31.22-4.078zm-16.99 7.686 23.54 2.378 7.02 8.35-26.48-2.466zm-28.36 11.652 2.18-1.019-.14-.297.21.248.28-.239 4.15-2.047-.15-.293.21.248 1.24-1.051.93-.652-.19-.264.19.264 2.04-1.596-.2-.254.2.254.45-.38.1-.054 1.56 4.725-12.6 3.399zm-24.51 4.448 3 .67.07-.32.04.32 9.08-1.04.74 1.68-10.9 3.55zm-10.4 6.51 12.07-.9 14.08 23.03-11.09 1.97zm-20.96-15.345 5.62 13.085-14.86-1.93-4.84-10.174zm-34.97-14.042-.49 10.55-23.55 12.957 2.73-13.244zm-41 6.461 23.22-11.901-4.11 15.271-27.59 16.916zm-13.17-11.848 21.08-9.503-8.43 20.888-26.68 15.269zm-6.05-20.139 16.09-4.328-10.53 23.97-21.7 9.817zm-15.13 1.327 14.33-1.227-16.32 29.787-17.82 5.436zm-2.41-32.831 11.66 6.141-9.63 25.936-9.92-4.492zm2.29-33.08 7.64 18.45-17.52-9.634-.24-.234-14.7-24.206zm-11.01-21.158 10.42 20.012-25.03-15.757-.24-.236-16.47-25.742zm-10.54-21.833 9.96 20.631-31.66-21.955-.25-.368-11.39-21.22zm27.84 3.513 3.23 15.471-30.54-19.419-5.91-17.389zm24.57 10.986-23.95-11.392.14-12.923 24.82 11.144zm3.88-26.053 14.48.212.92 16.098-17.55-3.884zm1.24-13.555 10.07-3.844 3.08 16.955-14.3-.209zm.31-13.674 8.86-5.501.81 14.664-9.95 3.797zm-8.36-7.249 8.86-5.752-1.13 12.53-12.68 1.895zm-11.45-10.764 14.82-2.158-3.84 12.327-18.75-2.714zm-8.87-11.208 12.59-5.338-4.12 15.889-16.96-1.472zm23.72-45.978 1.88 32.878-12.2 6.65.08-29.47zm10.87-40.21 1.35 36.041-11.62 3.008-.87-37.072zm12.99 7.127 2.49 33.168-13.47-4.245-1.35-35.865zm14.56 15.157 2.09 26.317-13.48-8.043-2.46-32.744zm13.7 33.644-10.91-6.908-2.07-25.935 15.39 17.182zm16.82-18.072.49 15.649-14.23-13.491-1.7-22.78zm50.86 10.512-17.99 5.223 7.09-19.263 22.36-9.445zm24.05-11.611-.09.163-23.03 11.022 11.46-23.469 24.16-14.943zm24.62-11.818-23.65 11.279 12.54-27.332.23-.194 21.15-9.661zm-1.48 43.464-1.01-18.557 25.36-6.04 7.28 20.794zm-33.56 18.049.81-11.46 32.14-5.835 1.12 14.774zm34.63 10.126.11-12.028 36.26-1.246 2.01 13.859zm66.43 14.309-28.93-1.086 1.54-11.968 27.5.905zm16.66 14.04-21-1.088 4.89-12.274 19.41.905zm6.3 14.388-15.15-1.283 9.25-12.418 13.84 1.502zm-8.84 12.792-7.96-1.244 17.03-10.855 7.69 1.73zm21.72-11.405 5.08-5.5 17.79.719.37 5.149zm21.39 13.126-26.85.727 2-6.424 26.14-.215zm25.91 4.034-27.8 2.573 2.38-5.973 27.35-1.786zm-3.22 6.091-27.79 3.241 2.92-6.077 27.75-2.568zm-4.14 6.339-27.76 3.903 3.75-6.301 27.7-3.229zm-61.91 29.669-13.78 3.105.52-7.409 15.15-2.52zm-1.2 7.838-12.3 3.796-.3-7.853 13.67-3.08zm-.29 8.15-10.54 4.486-1.41-8.176 12.19-3.761zm-6.4 14.11-3.96-8.99 10.45-4.447 1.85 8.137zm.33.565 8.25-5.246 4.46 8.874-5.17 6.613zm14.64 28.857-14.36-12.65 7.23-5.002 11.83 11.311zm7.1 17.957-17.91-13.213 10.8-3.895 16.51 12.393zm-17.65 2.077-17.48-13.64 16.44-1.414 17.8 13.13zm-37.9-13.683 19.44.114 17.36 13.542-23.33-.9zm-.15 22.915-.19-.091-10.98-11.427 24.53 2.001 15.8 12.464zm-27.13-3.093-.15-.079-5.55-9.768 20.68 1.344 10.9 11.346zm-16.7 7.721-2.8-6.461 1.93-1.873 17.09 1.107.18.086 6.94 9.499zm-28.46 12.189-.06-.129zm-24.55 3.826-10.36-2.835.66-.792 14.65 3.337-1.48 1.07zm-15.92-5.964 4.79 3.574.19-.263-.08.316 10.7 2.927 2.16 5.16-12.13.91zm5.39 33.874-13.58-22.08 13.42 1.48 14.97 23.95zm-7.95-35.851 1.48 1.17 5.97 13.381-13.49-1.49-5.66-13.186zm-30.31-18.265.56 8.608-17.46 5.787.49-10.555zm-15.52-7.474-1.5 10.833-21.15 10.187 4.1-15.245zm-15.28-9.296-3.82 14.59-23.08 11.828 8.4-20.794zm-13.75-12.484-5.27 17.605-21.02 9.474 10.45-23.777zm-24.98-14.996 13.04.036-4.41 17.71-16.1 4.333zm-13.03-2.313 12.37 2.241-7.56 22.317-14.38 1.231zm9.9-29.419 3.15 14.381-14.48-5.471-7.65-18.464zm-4.94-15.868 4.69 15.005-19.13-9.626-10.44-20.051zm-5.22-17.257 4.94 16.332-25.16-14.838-10-20.708zm21.12-4.672 1.11 14.437-21.66-10.203-3.25-15.556zm29.3-28.751 3.89 19.893-13.23-1.48-.93-16.278zm-3.18-18.799 3.06 18.157-10.23 2.128-3.11-17.121zm-.03-15.146-.04 14.483-10.28 3.165-.83-14.768zm-19.45-4.757 8.5-5.84-.85 13.036-8.78 5.452zm-5.42-6.931 7.51-7.215-2.69 13.763-8.61 5.59zm11.52-58.308 1.22 30.821-10.96 5.237-1.88-33.05zm10.95 27.516-9.08 3.057-1.22-30.541 13.45 4.236zm9.83-.039-9.15-.041 3.09-22.861 13.49 8.046zm12.14 2.697-11.45-2.596 7.3-14.613 10.89 6.893zm38.35-3.753-13.42-9.022-.49-15.683 15.48 11.975zm30.67 2.388-15.4 2.528 2.78-13.705 17.95-5.216zm22.59-6.941-21.83 6.734 5.35-16.439 23.14-11.08zm28.56-9.238-27.8 8.99 6.75-21.03.09-.148 23.94-11.423zm-28.02 9.752 28.02-9.061 1 18.466-32 5.809zm-4.55 27.387-21.39.098 1.12-8.161 21.07-3.316zm34.64 10.092-34.33.087.31-9.548 34.13-2.526zm37.49 13.199-39.85-1.852 2.93-10.689 38.46.586zm24.56 14.028-31.84-1.854 7.73-11.499 28.99 1.089zm12.07 14.168-24.27-1.728 12.54-11.765 20.97 1.087zm-1.87 12.748-17.17-1.595 19.27-10.478 14.86 1.259zm-15.68 10.37-9.52-1.025 25.31-8.674 7.6 1.188zm42.4-17.302-4.74 2.61.16.287-.16-.287-10.98 6.101-.62.254.14.299-.14-.299-.76.365-.2-.529 16.93-10.471zm.55.367-.02.088-.15-.286zm-.56 3.256-3.66-.852 4.2-2.316zm-14.58 5.207 10.06-5.586 4.36 1.016-2.02 6.483zm37.31 7.879-26.89 1.531 2.44-6.809 26.84-.727zm-3.25 6.786-26.47 2.485 2.59-7.07 26.82-1.527zm-4.17 7.028-25.27 3.188 2.72-7.051 26.32-2.472zm-47.77 28.904-10.38 2.12.27-8.25 10.63-1.333zm-7.59 20.646-1.83-8.767 9.79-2.649 1.43 8.237zm4.89 10.623-4.68-10.005 9.37-3.174 4 9.075zm.36.557 8.65-4.089 7.65 10.38-7.25 5.026zm-2.35 15.503 11.25-3.378 14.39 12.678-10.85 3.908zm-14.93 1.822 14.17-1.626 14.69 13.125-16.48 1.417zm-16.53.879 15.71-.796 12.3 12.842-19.44-.114zm-10.71 11.956 18.98.625 13.39 12.685-24.41-1.991zm-40.01 17.252 13.69-10.592-2.3 10.417-.1.18-12.34 10.574zm-13.89 6.062 13.2-5.715-1.07 10.791-12.77 5.864zm-31.28 10.43 15.07 3.003-1.46 6.595-14.92-3.39zm-40.32-23.131-.36 6.701-16.31 3.821 1.49-10.756zm-14.46-9.827-1.3 9.01-18.46 5.745 3.79-14.484zm-14.66-12.327-1.85 12.023-18.43 5.601 5.23-17.458zm-27.04-14.669 13.05.822-1.61 13.417-15.8 3.293zm-12.93-16.493 12.65 2.515-.29 13.306-13.03-.036zm11.87-9.935.76 11.781-12.67-2.518-3.14-14.351zm-1.69-13.151 1.61 12.436-15.15-5.121-4.69-15.031zm-1.95-14.81 1.85 14.058-18.39-7.782-4.95-16.398zm16.83 5.115-16.22-5.573-1.12-14.496 17.54 5.346zm24.49-48.152 4.98 22.947-13.6-3.848-3.92-20.035zm-3.3-20.324 3.18 19.657-12.54-.936-3.08-18.214zm-12.09-28.134-1 12.922-11.15 2.881.87-13.184zm-17.54-6.167.12-.279 7.55-5.299-2.03 13.909-8.4 5.774zm7.84-6.495-7.45 5.221 4.61-17.673 8.86-2.982zm11.78-1.627-11.01 1.442 6.03-15.455 9.08.041zm13.22.398-12.54-.413 4.08-13.895 11.46 2.597zm70.02-1.44-15.95-1.842 2.63-7.189 15.42-2.531zm-19.42 3.767 3.18-4.983 16.14 1.863-1.11 8.075zm39.9 15.101-22.53-1.409 1.39-7.997 21.45-.099zm31.95 11.26-33.29-.14-.3-.149 2.22-10.297 34.3-.086zm32.49 14.003-39.64-2.115 7.57-11.225 39.8 1.85zm19.45 14.331-.18.076-34.37-3.005 15.36-10.731 31.78 1.85zm5 12.782-26.27-2.44 21.5-9.729 24.01 1.708zm-8.44 10.898-.39.102-15.92-1.151 24.43-9.204 17.21 1.575zm-7.7 12.4-10.82-.107 18.29-11.557.35-.093 9.61 1.063zm18.81-10.573 3.58 1.17-13.61 10.505-7.73-.982 17.45-10.704zm24.7-8.35-7.74 3.464.13.3-.13-.3-12.7 5.589-3.2-1.045 23.44-8.532zm-6.29 15.876 3.77-7.887 15.12 1.288-2.61 7.135zm-3.23 8.817 2.94-8.172 16.33.538-2.75 7.118zm-23.71 48.471-1.69-9.183 10.09-2.13 1.84 8.798zm4.29 11.035-4.11-10.402 10.27-2.52 4.69 10.033zm.35.584 10.84-2.886 9.07 11.336-11.3 3.393zm-13.17 2.101 12.47-1.94 8.58 11.798-14.2 1.629zm-13.53 1.916 12.83-1.811 6.82 11.431-15.68.795zm-10.61 13.145 14.21-2.04 8.52 11.854-18.89-.622zm-6.09 3.478 5.46-3.265 3.78 9.036-11.59 1.659zm-27.11 6.225 15.89-13.073-4.51 18.888-13.79 10.664zm-15.73 6.965 15.02-6.599-2.44 16.641-13.25 5.736zm-15.65 17.886 14.29-1.24-.65 11.034-14.16 1.639zm-15.58-3.168 14.92 3.128-.52 11.446-15.06-3.001zm-15.36 9.807.47-6.141 13.52 8.328-1.3 6.144zm-10.46-13.045-.28-.409-.27.185.22-.237-.27-.266-2.32-3.084-.26.195.23-.236-.41-.394-.44-.711 1.98.444 8.25 12.666zm-4.36-4.18.53.389.41.396 2.11 2.818-13.64-.448.35-6.525zm-9.37-6.765-1.37 2.619-15.24-.235 1.27-8.81zm-14.57-12.839-1.3 5.627-15.95.27 1.82-11.823zm-15.41-16.025-.59 9.326-15 .165 1.59-13.249zm-27.32-18.519 12.79 3.042-.08 10.957-13-.82zm12.56-8.415.22 10.78-12.79-3.042-.76-11.712zm-.51-12.274.49 11.587-13.37-3.984-1.61-12.413zm-.3-14.065.29 13.365-14.57-4.834-1.85-14.075zm30.38-4.594-14.89-7.338.41-17.119 13.69 3.872zm10.04-38.825 4.59 25.873-14.81-8.101-5-23.004zm-5-23.539 4.84 22.793-15.21-5.232-3.19-19.713zm-14.07-17.883-.2 15.023-12.45.507.03-14.505zm1.17-13.327-1.14 12.666-12.61 1.025 1-12.932zm-13.35.18-11.27 2.616 2.05-14.083 11.1-1.454zm13.42-.841-12.75.759 1.87-12.883 12.57.414zm15.78-11.227-13.3-1.093 2.96-11.593 12.93 3.576zm18.66-5.125 4.54-4.686 15.95 5.841-3.17 4.967zm14.35 13.234 3.28-6.331 18.45 5.021-1.38 7.96zm41.25 18.985-22.7-2.086 2.31-9.475 22.58 1.412zm50.58 25.784-33.47-.158 9.52-12.646 39.28 2.097zm12.94 13.255-.39.102-29.09-.291 16.74-12.402 33.98 2.971zm1.33 12.276-.41-.011.01.327-.01-.327-20.29 1.28 19.16-12.815.35-.092 25.68 2.407zm-1.91 13.476-.25.102-12.74 2.637 14.63-15.568 16.76 1.201zm2.67 14.153-9.66 3.12 7.08-16.602.12-.051 11.35.112zm10.54-.524-9.7.444 8.82-13.311 8.08 1.027zm22.12-22.781.05-.022 1.42 1.598-9.02 10.479-6.09-1.529zm1.95 1.138-1.27-1.432 9.02-3.974zm10.67-6.236-.25-.216-7.4 9.135-2.54-2.218 9.99-6.966-.05.049zm-7.04 9.202 7.11-8.772 4.43 2.748-3.84 8.035zm-5.4 9.795 4.99-9.227 7.86 2.052-2.98 8.268zm-5.4 19.508-9.07.726 2.18-10.093 8.32.656zm-.33 8.968-9.72 1.612.87-9.186 9.12-.731zm-9.74 2.28 9.77-1.62.85 8.481-10.07 2.125zm-9.6 21.059-1.26-9.306 10.85-1.987 1.69 9.194zm.13.643 11.32-2.106 4.11 10.39-12.47 1.939zm-11.72 3.316 11.08-3.168 2.95 10.172-12.76 1.8zm-9.95 15.055 10.77-5.426 3.93 10.298-14.08 2.021zm-3.22 4.474-.32-.088zl.16-.646.12-.206 2.34-2.966.58 6.433-4.98 2.975zm-.16-3.475-.31 2.643-2.85 9.117zm-3.24 4.387.33.028.02-.548 2.98-22.697.61 13.759-.11.194.28.169-.33-.011-.01.24-4.64 17.242 1.2-8.348zm-9.04-2.019 6.2-24.926 2.53 26.397-.01.428-13.14 16.607zm-12.18-13.625 6.54-25.253 4.97 38.662-15.92 13.102zm-15.5 12.545 14.72-11.827-4.39 26.371-14.99 6.587zm-33.98 19.9 13.42 3.336-.52 15.858-14.89-3.122zm-14.93 8.597 12.24 7.903-.66 11.499-13.51-8.326zm-12.88-4.841 10.25 16.161-.45 5.796-11.12-17.081zm-4.4 3.985-.95-.79-20.44-21.735 1.57-4.297 21.71 27.245zm-8.79-4.941.75.318 4.74 3.172.15-.238-.15.238.42.272 1.75 1.691-8.96-2.95zm1.46-.126-.43-.146-1.05-.448-.13.301.13-.301-15.8-6.618 1.24-5.383zm-14.84-17.262-1.58 3.675-15.56-5.974.58-9.08zm-31.08-26.982 14.2 5.864-.29 8.718-13.98-3.753zm14.19-4.849.06.108-.04 9.905-14.21-5.868-.22-10.71zm-.43-12.574.33 11.81-14.33-6.527-.48-11.55zm-.7-15.432.67 14.705-14.48-6.266-.28-13.375zm30.4-21.888 4.33 29.107-18.43-16.596-.79-20.655zm12.32-18.043 5.72 32.075-17.44-14.418-4.61-25.971zm-6.1-26.885 5.92 26.059-16.3-8.298-4.85-22.866zm-29.37-23.2 13.32.832.05 16.387-13.57-2.153zm14.36-12.898-1.01 13.075-13.31-.831 1.14-12.678zm34.39-4.401-17.18-5.087 3.05-7.395 17.4 6.149zm-2.36 10.542 2.75-9.735 20.46 6.692-2.31 9.478zm19.68 20.389 1.74-13.186 22.64 2.081-3.87 12.047zm40.8 13.936-.19.079-22.89 3.694 3.29-16.104 29.36-.37zm16.68 13.185-22.82 5.677 6.31-18.219.11-.047 33.18.157zm9.87 13.834-17.48 7.879 7.98-21.082 28.82.288zm5.98 15.128-11.15 10.316 5.6-24.844 20.42-1.29zm6.31 14.601-7.86 9.853 2.08-23.949 12.94-2.675zm7.39 10.84-8.09 7.226 1.3-17.655 9.7-3.134zm10.31-2.518-9.58 2.254 2.89-13.469 9.81-.45zm12.91-11.763-8.79-.543 7.15-11.75 6.33 1.589zm-2.39 10.84-9.82.831 3.1-11.577 8.92.551zm-.97 9.907-10.32 1.597 1.32-10.001 9.88-.836zm-10.37 2.267 10.37-1.604.56 9.009-10.82 1.98zm-10.65 14.051 10.17-3.824 1.25 9.272-11 3.144zm-8.98 17.683 8.86-8.006 1.24 8.568-10.56 5.32zm-2.31 5.513 1.51-3.637-.36 4.437-1.89 2.401zm-.99-20.735 4.55-14.796-.4 12.094-.16.652.32.083-.33-.011-.01.244-3.29 16.279zm-25.32 10.084-10.2-48.706 10.86-17.489 5.98 40.055-.02.619zm-15.24 13.246-4.9-42.451 9.46-18.59 10.29 49.1zm-29.15-1.408 12.91 4.891-4.2 19.914-13.4-3.331zm-57.27-20.19.84 13.263-18.99-17.544-.08-.16-.33-11.724zm-2.09-19.191 2 18.236-18.5-16.104-.67-14.629zm17.05-4.68 5.59 29.478-22.02-25.112-2.07-21.026zm13.74-15.101 9 39.325-22.13-24.54-4.35-29.233zm10.68-23.991 9.06 39.838-19.15-16.2-5.77-32.325zm-4.4-28.364 4.27 27.54-15.88-8.696-5.94-26.154zm-33.68-29.884 13.72 2.69 1.58 18.869-15.26-5.114zm14.61-11.6-.88 13.623-13.71-2.686 1.01-13.094zm.09-.649-13.59-2.159 1.79-10.99 13.87 2.562zm17.08 4.39-16.44-4.258 2.07-10.565 17.12 5.074zm-.23 15.138.76-14.304 20.87 6.425-1.74 13.208zm37.57 23.244-17.13 2.23.06-19.389 20.39.936zm16.85 15.234-15.58 9.84-.66-24.502 22.57-3.642zm-5.96 53.583-9.56-43.006 15.52-9.804 3.5 34.203zm-10.46 46.363-3.25-38.093 13.32-6.803 4.88 42.357zm-13.59-5.001-.06-.126-7.79-41.047 17.54 8.106 3.23 37.963zm-36.46-12.604.11.335 3.29 22.956-23.56-30.463-1.99-18.09zm17.21-5.217.11.316 2.53 29.924-19.12-24.924-.12-.349-5.61-29.596zm10.66-23.744 7.7 40.606-17.64-16.79-.11-.327-9.09-39.687zm7.2-37.258 10.91 44.957-17.52-8.1-9.16-40.276zm-3.2-28.478 3.09 27.785-15.8-3.427-4.29-27.695zm-20.47-26.308-16.53-4.916.89-13.636 16.4 4.249zm20.44 25.635-17.06-3.352-2.69-21.409 19.8 5.305zm14.84 74.207-10.96-45.123 14.62-5.199 9.67 43.509zm2.89-75.746.68 24.764-14.63 5.203-3.09-27.746zm-54.67-28.322 16.51 4.912 2.67 21.353-17.6-7.331zm-14.15 132.287-.83-13.055 23.65 30.579-.14 12.825zm-1.48 7.967-18.2-15.672.04-9.572 18.97 17.522zm24.94 9.327-3.28-22.908 18.99 24.747-3.57 16.461zm16.38 1.592-2.55-30.075 17.78 16.915.06.124-4.7 21.524zm60.99-92.007-11.04 17.775-3.45-33.587 22.59-5.62zm12.32 17.953-5.98 21.836-5.86-39.317.04-.079 17.54-7.904zm16.92 22.201-4.77 15.497-1.79-22.989.01-.281 7.84-9.822zm7.47 4.191-.12.196-7.14 9.001.43-13.18 8.04-7.175zm10.19-3.93-9.49 3.543 1.23-11.316 9.58-2.256zm-18 15.339.32.013.01-.237.17-.653-.32-.082.33.011v-.168l7.1-8.937-.3 8.942-7.38 9.067.39-7.943zm-.31 9.918-.32-.023zl.02-.507.12-.305 7.52-9.227.41 8.233-8.66 7.832zm-1.32 6.758-.71 1.694.91-3.781zm-2.31 5.584.31.069zm22.03-27.526-10.11 3.8.31-9.471.06-.097 9.62-3.594zm-24.62-18.225-.33-.021-.01.399-3.88 20.509-5.16-34.995 11.18-10.347-2.13 24.434zm-126.42 54.005-16.76-11.517.28-8.489 18.1 15.583zm16.51 18.556-.21.254zl-17.76-13.936 1.52-3.52 17.03 18.116zm8 4.64-22.17-27.817.79-7.546 22.72 30.405zm2.03-5.12.14-12.742 11.95 18.009-1.89 10.817zm12.8 5.045 3.61-16.629 10.56 8.463-1.98 16.036zm28.97-5.183 4.19-19.866 14.9-2.533-4.67 21.163zm47.27-23.389-4.98-38.775.02-.62 5.97-21.801 5.25 35.518-.02.625zm9.33.416-2.44-25.428.02-.649 3.78-19.998 1.73 22.25-.01.362zm4.35-5.34.01-.207.12-.194-.28-.169.33.011.02-.658 2.94-14.57-.22 4.513-.15.354.3.124-.32-.012-.02.525-2.97 12.311zl-.32-.025zm36.75-57.923 4.64-10.593 6.49 1.6-2.9 9.643zm13.81-21.361 2.66 2.328-5.1 9.426-6.33-1.56zm-171.24-93.704 14.41 4.159-3.07 7.436-13.9-2.57zm-16.66 8.488 13.3 1.092-1.8 11.009-13.17-.433zm5.49 106.657 2.08 21.065-17.11-12.453.09-15.975zm70.28 102.671.52-15.848 14.45-1.237-.67 15.844zm117.95-102.385-10.72.293 2.87-9.532 9.96 1.107zm-72.16-78.292-7.56 11.207-29.66.374 3.81-11.88.26.127.14-.293v.327zm-80.11-44.466 14.05 4.57-2.61 7.13-15.82-5.789zm-19.32-.47 13.87 6.637-4.59 4.738-14.44-4.168zm-32.23 115.305-.09 15.953-14.09-4.937.2-14.765zm43.83 104.812.1.145.26-.193-.26.193 5.13 6.543-4.5-.034zm97.2-16.702-.28-.119-.17.41.3.124-.32-.011-.01.147-13.59 13.776 2.24-10.169 13.33-16.841-1.8 12.508.32.045zm60.53-63.153.3 7.905-9.82 2.655-.85-8.444zm.6-8.797-10.63 1.334 1.41-8.619 10.74-.294zm18.33-10.016-15.98 1.721 2.09-8.041 16.47-.514zm-2-31.935 13.14 2.027-2.47 6.876-15.03-1.281 3.93-7.446zm-1.61.73.2-.093-3.6 6.805-4.28-2.658.94-.998zl-.13-.297zm-115.58-79.433-21.04 3.311 2.12-11.673 21.88-6.751zm-47.94-23.765 15.19 3.667-2.77 13.694-14-4.551zm-15.82 4.09 13.42 9.028-4.41 5.962-13.96-6.679zm-17.42 2.153 11.52 6.405-5.24 7.321-12.91-3.572zm-39.16 11.428-4.69 18.006-.13.319-7.65 7.344 1.69-20.513zm6.15 91.39 13.31 1.49-.41 17.034-13.97-3.745zm-40.71 76.247-1.42-19.118 14.48 5.469-.67 15.894zm83.11 47.144 13.64.448.75 6.853-13.83 1.251zm15.18 7.928 4.89.037 4.73 5.825.25-.207-.18.275-.05.097.3.29.13-.141-.13.141 3.8 3.427-11.21-.12zm16.43 11.107-1.61-1.27-2.2-1.987 10.02 6.579-.67.815zm36.63 4.749-.15.131-13.81 1.53 1.46-6.572 14.12-1.634zm42.4-34.999.01-.347-.65-.023-.01.306-.25.318.25.203-.31-.097-.17.55.31.092-.31-.092-.51 1.855-.57.733-12.91 12.436 1.5-5.036.12-.201 13.56-13.742-.69 2.461.32.09.31.109 1.61-4.577 12.14-1.737 7.92 11.259-20.51-1.333zm-5.06 7.565.46-.385-.22-.248.25.218 2.75-3.11 2.56-.16 5.5 9.679-16.01-1.037zm-7.63 7.371-.22-.224zm-4.18 4.64-.22-.241zl4.07-4.066 2.59 5.949-8.96.062zm-.49-.445-3.07 2.591 3.13-2.693zm1.81-1.878 2.16-2.075-2.35 2.34zm14.21-14.337.32.087.61-2.205.88 2.442-1.73.108.18-.228zm79.29-82.377-15.25 2.536 1.5-7.509 15.9-1.713zm26.74-11.113-23.61 3.636 2.56-6.774 25.08-3.162zm-7.46-39.979 23.84.377-.46 5.538-26.09.214.67-3.903zM236.995 95.645l19.3 1.564-7.1 19.325-15.27-3.687zm-33.77 8.02 14.26 13.515-5.02 8.417-11.62-6.467zm-65.47 39.678 12.2-6.655-1.71 20.7-14.69 2.14zm11.54 75.208 17.63 3.903-1.06 14.694-17.58-5.36zm-34.73 73.842-7.3-22.615 17.5 9.623 1.42 19.117zm96.07 62.759 13.85-1.253 2.53 9.627-14.12.984zm18.42 37.212-.21-.11-10.43-16.21 14.76 1.91 13.39 21.78zm41.89-20.41-8.09.93 1.1-.8 13.2-1.458-.09.079-.43.239-1.17.62zl.03.33zm1.19 2.14-.68-1.52 4.13-.36-.03-.33.15.29 1.24-.65-.15-.29.15.29 5.56-2.687.43.923zm13.31-7.121-.06-.07zm5.27-3.408-11.72 5.745 1.55-6.268 12.65-5.806-1.66 5.754zm3.6-2.36-.21-.248-.46.389-1.24.964 1.58-5.485 12.08-10.351-1.54 5.149-.43.602-9.99 8.593.07.087zm.85-.14 5.49-4.15 10.04-.07 4.11 8.328-18 .863zm125.5-109.895-21.37 3.969 2.14-6.641 23.38-3.601zm32.63-11.706-.19.081-26.93 4.471 4.01-6.267 27.62-3.883zm15.8-30.374-27.21.989.46-5.519 27.05-.319zm-43.81-13.286 1.24-3.31 13.2.833 1.45 4.767-17.13-.693 1.19-1.509-.26-.203zm-.71-.144-1.44 1.836-7.86 8.52-.2.172-.38-1.691 8.24-11.71zm-87.77-112.356 2.51 22.699-25.18 5.995 3-23.722zm7.06-23.766-15.86 1.318 11.4-23.536 13.42 1.886zm-5.28-22.036-11.37 23.482-20.97 9.576 14.13-27.343zm-95.56 40.378 24.58-4.124-11.05 22.815-19.39-1.57zm-24.57 4.483 17.91 13.076-3.04 17.063-15.61-12.08zm-90.51 45.274 9.27-13.607-.07 28.877-12.53 5.309zm-26.46 154.831-14.99-26.021 19.7 12.614.22.213 7.25 22.455zm90.96 78.632 17.55-5.817 2.26 9.351-18.41 5.645zm15.44 26.424-.21-.11-8.64-8.62 18.57-2.81 10.31 16.03zm39.7 31.1-.25-.24-17.5-24.98 17.33 7.291 20.91 29.469zm22.01 12.38-.19-.09-21.27-29.979 14.75 3.329 21.19 30.85zm13.79-36.98-10.95-19.34 10.78-4.331 7.62 15.211zm19.37-16.25-5.66-11.096 18.04-.865 4.71 8.421zm144.72-131.779-25.92 5.007 4.14-6.241 26.66-4.427zm27.85-10.211-.19.079-20.84 3.41 4.45-5.537 20.04-2.636zm11.55-26.129-17.12-.564.29-4.83 16.96 1.22zm-57.56-24.841.07-2.122 4.65.526 2.86 4.232-8.16-.755.56-1.795-.31-.097zm-.69.046-.63 2.019-1.99 5.156.3.116-.3-.116-1.09 2.889-1.6-2.793 2.76-10.923zm-25.99-10.209-19.37-.903.11-12.135 18.63 1.677zm-49.81-87.104 7.42 20.938-20.28-2.525-2.5-22.623zm2.29-21.341-10.61-6.488 8.9-20.207 8.79 8.768zm-25.15-43.359-10.07 19.867-23.44 14.107 11.91-22.704zm-80.54 40.749 29.11-10.922-10.57 20.357-24.63 4.134zm-28.54 3.29 21.49 10.867-5.82 17.013-18.05-13.177zm-18.52-9.151 15.45 24.092-.73 17.82-15.6-20.842-.1-.181zm-74.12 37.986.02-.349 8.52-18.049.44 35.542-9.25 13.572zm-31.3-4.886 4.81 15.383-12.16 3.929-8.9-23.654zm14.57-13.142 1.1 4.679-15.21 7.728-5.09-16.221zm.45-.981-1.25-5.603 8.69-2.877zm-18.6 76.741 1.12.153 1.96.338.06-.323-.02.327.46.015.01-.327.03.325 5.27-.486-4.57.953zm-6.05 119.289-.27-.255-20.24-28.779 18.09 11.57.39.381 14.95 25.944zm95.13 118.612-7.79-1.85 23.62-10.54 8.52 8.5-23.97 3.9zm12.69 3.87-.09.32.01-.33-.7-.029-10.14-3.381 23.21-3.78.15.07 13.28 14.31zm70.16 49.89-.27-.26-16.62-25.02 20.63 11.63.15-.29-.15.29.21.1 11.21 24.62zm35.27-25.16-16.83-25.34 7.45-8.45 12.42 19.771zm10.64-28.07-8.11-13.51 17.09-3.55 5.05 8.78zm119.14-65.486.25.241 4.26 10.03-11.34-9.284-2.54-9.139zm-10.07-46.915-10.87 8.575-.73-7.06 14.68-7.456zm50-38.081-.2.083-21.55 4.301 4.86-5.65.21-.084 20.79-3.403zm18.2-7.935-.18.074-12.02 2.051 3.41-4.611 11.25-1.425zm8.2-25.65.02 3.621-9.17-1.715.14-4.131zm-35.53-22.457.18.086 2.85 3.476-26.44-1.402-2.86-4.23zm-82.1-67.121 11.22 16.126-18.12-5.289-10.64-19.468 17.01 8.118zm-12.29-19.122 11.08 17.556-16.84-8.034-7.21-20.344zm-3.98-19.283-7.14-13.166 6.9-17.466 4.37 14.755-.02.462zm9.65-8.035-.02.646-3.11 10.725-1.75-18.71.01-.475 4.98-12.481zm-36.91-61.424-5.05 11.473-21.63 11.285 6.56-13.788zm-80.77 44.019 31.34-16.049-7.08 13.457-29.08 10.908zm-12.43-2.664 14.71-1.648-2.68 3.731-22.36-.852zm-10.75-4.823-1.65 4.802-3.9-2.952zm11.97-1.009-11.05.156 3.27-18.925 11.05-.025zm11.64 3.186-10.99-3.098 3.26-18.739 11.37 5.072zm-11.14-2.459 10.73 3.026-12.04 1.372zm-13.38 5.835-.21-.278 1.88-5.471 11.05-.156-1.35 4.549zm39.49-10.54-12.55 7.467-1.23.082-.56-.191 3.59-16.554 10.82 8.981zm-48.76 3.149 2.81-12.606.08-.134 10.77-4.968-3.24 18.778-6.42 2.137zm2.66 12.317 24.68 6.174-6.1 13.583-21.59-10.913zm-19.73-14.87 15.97 23.952-2.32 14.37-15.54-24.221zm-75.57 24.161.02-.481 8.62-17.832-.62 27.464-8.48 17.957zm-76.75 185.44 9.4 16.075-10.8 6.253-2.26-10.706zm-4.37 11.48-13.68 10.319 1.55-8.989 8.58-14.019zm-23.75 1.724 12.57-10.515-1.57 9.807-14.23 8.684zm4.41-8.962.3-.386-.26-.199.26.199 8.3-11.258-.3 9.119-12 10.041zm-20.55 28.872 9.43-2.509-1.03 6.398-8.99 1.628zm29.64 16.205 19.55-3.721 3.08 4.858-19.33 2.292zm48.16 6.892-3.19-10.793-3.13-14.169 7.6 5.151.19.276zm2.08-19.81-.27.184zl-.29-.418-11.18-21.493 10.45 6.354.21.207 6.49 24.045zm47.47 126.567.61 1.289-2.86-.179zm-3.16 21.199 4.58-19.29 14.66-5.03-4.1 18.12zm-4.37 13.46 4.17-12.67 15.09-6.17-5.29 15.9zm40.05-49.289.59-.081-.81.18zm2.18-.101-.04-.2zm17.14-1.269-.07.319-.1.31.43.14-15.48.16.33-.1-.03-.089.12-.031.03.13.61-.109-.02-.13.03-.011.05.11.28-.11.89-.239-.12-.641-2.45.47-3.96.551.04.329-.13-.3-1.7.77-.92.38.04.091-.08.009-.04-.05-.16.13.21.25.05.25-.41-.5-.16.13.43.5.14-.13.02.08.61-.12-.04-.189.04.189 1.05-.21 3.34 3.23-18.08 6.431-2.48-2.76 6.36-2.63-.12-.301.12.301 8.8-3.841-.13-.3-.1-.31-3.62 1.17 21.92-10.41.32.01 10.19 3.41-11.89 2.22-.41-.01-.01.321-.05-.321-5.81.91.05.33-.21-.26-.09.081-.53.099.12.651.62-.12-.07-.321.21.25.09-.069 5.69-.901.4.01 4.34 1.1.07-.309-.07.309.75.171.42.14.21-.62-.45-.15-.1.309.07-.32-.76-.16-2.92-.74 11.68-2.18.62.02 11.12 7.26zm21.86 5.029-.18.27zl-11.78-7.69 24.69 6.901 15.18 19.249zm64.26 65.93-1.77-6.69 13.65 8.77 1.77 4.97zm39.39-26.61-11.37-22.7 3.03-13.98 11.62 19.68zm6.89-37.38-7.79-13.6 13.99-8.26 3.74 8.3zm108.79-86.36 1.43 1.798.13.251.29-.147-.23.237.13.129 6.75 9.489-5.79-5.499-5.84-9.77zm4.19-43.849-.75.506.19.267-.19-.267-12.2 9.2 1.46-5.636 14.95-7.879zm11.3-4.752-14.19 9.238 2.56-3.474.71-.481 12.7-6.738zm-1.64 1.846.73-.477-.91.634zm1.64-8.363.09.315-.12-.304-18.52 7.464 4.2-5.711 19.94-6.487-5.2 4.619zm7.28-5.937-.4.103.1.314-.1-.314-20.44 6.651 4.75-5.627.2-.086 21.45-5.75zm7.19-5.823-22.13 5.932 5.42-5.623 21.85-4.999zm22.57-64.068.19.091 2.24 3.099-18-2.953-2.74-3.332zm-29-10.866.52.256 3.7 2.586-25.15-2.656-1.44-1.389.06-1.831zm-28.29-15.811.11.464.32-.077-.27.192 1.01 1.398.98 1.775.83 2.35.31-.113-.31.113 1.12 2.933.31.917-2.24-3.066-2.78-7.475zm1.69.765-.06.076zm-31.88-38.067-.05.036-7.49-7.902.06-.036zm-19.53-38.057-.33-.023-.02.807-.99 4.467.76-19.454-.32-.012.32.012.03-.632 2.72-7.456-2.5 22.268zm-8.91-79.449.2.1-1.12 4.922-11.55-4.036 1.25-5.096zm-27.49-3.116-1.36 5.35-20.19 8.999 1.93-5.974zm-112.46 13.246-1.05 14.583-.09.149-8.65 7.327-1.59-1.652 1.69-10.832zm-18.05 17.814 16.74 21.848-2.93 8.603-16.07-24.094zm-53.54-24.16 10.94-2.653-2.39 8.691-10.93 2.354 2.24-8.336zm-22.88 36.016.16-.743 8.59-15.59-1.62 15.698.32.023-.32-.023-.01.355-8.52 17.609zm-66.11 98.747.33-.028-.97-11.171 4.05 12.224-3.08-.858v-.156zm8.16 10.939.34.115 30.02 16.644-8.35 3.639-31.1-18.185zm-29.45 90.832.3-.131.31-.117-5.58-14.869 13.54 18.74.08.142-3.54 11.228-3.52-12.577-.31.1.31-.1-.57-1.56-.3.129.3-.129-.14-.275-.28-.697-.61.24.29.713.3-.134-.3.134.13.263.51 1.381-8.06 13.169 1.46-9.187-.32-.052.33.011.59-18.085zm-8.83-10.961 1.05-1.022.09-.051.51 1.421-.97 1.291-5.41 3.631zm-5.97 10.536 1.07-1.034 5.24-4.667-1.67 5.449-9.01 5.945zm-25.21 37.61 4.18.492-.58 5.469-3.76-1.068zm38.59 20.657 18.93-2.244 3.28 4.024-18.29.723zm36.85 21.271.32.012.01-.191.12-.196-.28-.17.32.049 2.46-14.528-.33-.041.33.041.93-12.245 3.18 10.755-.01.3-7.16 18.951.43-2.684zm62.15 127.18 1.57-6.58 18.43-11.25-2.66 9.42zm115.21-2.27-3.34-7.64 17.97 18.57.11.21 1.69 6.35zm65.77-10.08-5.08 16.31-3.48-13.41 3.26-16.87 5.31 13.67zm9.91-41.5-.3-.12-6.57 17.75-4.84-10.959 9.84-13.421 1.69 6.32-.12.31zm94.56-84.876 1.14 2.392-3.89-4.366-.53-.775-1.47-6.666 1.17 2.411.18-.092-.18.092zm-6.64-16.077-.32.066.41 1.555.31-.094-.31.094.14.428.62-.21-.14-.417-.37-1.39 2.82-5.932-.12.802-.13.215.28.169-.32-.038-.61 4.644-.72 4.188-.69-2.098-.31.101-.32.072 2.2 9.981-4.77-6.046-.1-.285 1.56-9.506.57 3.767zm33.3-33.187-5.44 3.152 1.19-.966 1.37-.768.29-.123-.14-.295.14.295 3.33-1.762-.11.064-.45.256.16.286-.2-.252zm3.33-3.76-16.61 7.428 4.55-4.368.39-.107-.1-.31.1.31 15.59-5.907zm6.7-4.737-16.93 6.447 5.05-4.482.39-.102-.09-.314.09.314 15.89-5.29zm6.01-4.657.1.314zl-16.09 5.358 5.38-4.555.4-.107-.09-.314.09.314 15.1-4.517-4.39 3.714zm6.1-4.895.09.314zl-15.23 4.556 5.02-4.583.23-.095 14.41-3.833-4.04 3.851zm17.04-11.808-6.02 1.797 2.83-3.696.21-.085 5.41-1.127-1.56 2.125.25.205-.28-.168-.14.24zm-14.3-50.58 2.36 2.499-18.21-3.078-.21-.102-3.27-3.05 18.98 3.613zm-1.55-1.012-18.7-3.561-3.43-2.398 18.86 3.673.68.274zm-8.63-5.074 1.14.299 2.52 1.491-18.51-3.606-.55-.268-3.44-2.173zm-22.93-5.681-16.36-2.979-.83-2.18 13.13 3.065.85.287zm-6.17-3.259-11.3-2.64-.56-1.587 9.73 3.034zm-6.92-3.698 1.06.632-6.3-1.936-.51-.924zM241.405 4.464l10.13.202-3.15 6.815-11.13-.107 3.29-6.828zm-61.74 2.466 12.39 9.192-2.3 4.542-12.5-10.046zm-37.37 12.929.1-.176 9.8-7.933-2.14 7.938-9.93 8.541zm-10.15 16.905.33.011v-.192l8.6-14.658-1.84 7.111-8.3 15.084 1.53-7.288zm-17.71 20.977.77.258 7.46 3.945-.84 1.598-9.86-4.727zm-62.58 24.672v-.047l.11-.056-.1-.205.01-.278 3.27-8.851 3.33 14.515-3.12 8.559-3.36-13.671zm6.23 40.818-.3.056.28-.162zm2.35 9.222.23-.139-.12-.246-.13-.517-.2.05-.03-.127.24-.051-2.79-13.717 5.03 13.797-.01.345.33.012-.33.028.94 10.786-2.5-8.313.01-.221-.25-.008.22-.152-.13-.238-.25-1.339zm-11.44 13.195.49.127 21.92 10.533-8.97 2.182-21.86-10.64zm-9.5 2.404.14-.294zl22.37 10.887-5.53 6.041-22-11.313 5.08-5.654zm-14.89-4.636.27-.073 13.88 4.425-5.04 5.618-13.92-4.661zm-17.79 30.66-.35-.915 3.33-3.988 5.93 14.846-2.26 4.789zm7.21 15.908-.2-.398 2.3-4.877 13.48 21.31-1.63 5.323zm22.62 39.201-6.64-13.989 18.94 24.757.12.341 2.04 9.273-14.05-19.43zl-.3.135zm-22.46 29.635.54-.463 6.18-2.955-4.46 6.798-.22.191-5.8 2.161zm-11.12 34.759-.29-3.227 3.69 1.051.37 4.757-3.55-1.515zm11.72 14.582-.92-.392-1.97-2.128 8.61-.346 2.98 2.651zm14.14 2-3.58-1.766 15.14-2.841 3.92 2.507-14.98 2.231zm10.34 2.386-1.6-.343 13.03-1.098.84.154 3.74 1.364-10.57.242zm19.88.845-.11.309 1.59.557-.73-.068-.03.326.03-.326-9.23-.806 6.33-.145 1.47.313.42.145.21-.617-.45-.154-.11.308.07-.319-1.47-.316-3.31-1.204 14.81.844 3.24 3.022-12.68-2.192zm17.39 21.645.31.111.67-1.899.16-.404-.61-.248-.16.418.3.116-.3-.116-.68 1.908-3.74 8.543 5.09-14.158-.52 3.225.32.053.31.117 7.42-19.631-1.67 15.353-13.56 25.395 6.97-18.672zm-8.69 24.296.31-.892 15.06-28.222-1.88 15.761-16.2 29.504zm10.77 66.041-3.25-6.1 14.08-1.24 3.11 6.36zm37.71 26.91-.25-.17.28-4.36 10.35 2.67-.7 4.95zm65.36-23.26-23.02 15.88 2.64-9.36 24.47-12.83zm44.15-4.32-.12-.23-.28.16.28-.16-4.5-7.08 29.3 24.56.52.64 3.48 7.93zm-.95 2.27.77.72-1.17-.86zm101.38-2.53-1.39-5.9 6.11-16.52-.07 2.22zm20.15-33.03-2.79 1.43.15.29-.15-.29-11.87 6.29-1.71-6.37 20.62-5.32-1.69 2.46zm30.78-2.74-17.21.67.03.33-.03-.33-1.52.23-8.63.23 1.77-2.56 27.18 1.02zm29.78.25-.04.03-24.63-1.21 1.75-2.32 24.97 1.22zm43.99-30.99-.13-.253-.13-.397-.63.203.14.421.31-.101-.29.15.11.203-.02.415-2.69 8.077-1.18-4.171 2.44-8.138 1.19 3.027.31-.12.31-.09-3.27-11.539-.31.09.29-.157-2.31-4.221-.28.171.28-.171-1.45-2.117-.13-.254-.29.147.22-.237-.14-.134-10.29-14.05-.13-.261-.29.147.23-.237-.13-.122-6.19-9.375-3.13-6.12-.52-2.024-.66-7.676.39-2.781 1.94-4.025-.08-.039.16-.127-.43-.496-.16.135.43.488-.22-.104-.25-.203-.84 1.058.21-1.43 2.09-2.206-1.15 1.792.28.173-.28-.173-.17.274.56.339 3.2-4.982-.27-.176-.24-.226-3.37 3.543-.3-.141.3.141.33-.822.95-2.1 5.02-4.077-.05.083.21.248-.21-.248-.47.399.06.075-.06.058.21.25-.21-.25-.48.401.22.248-.28-.169-.14.227-.27.231.21.249-.24-.219-.95 1.068.49.436.94-1.056.29-.248-.22-.249.29.17.13-.227.74-.623-.07-.08.06-.049.08.046.14-.23.9-.762-.14-.149.14.149 1.09-1.064 5.8-5.038 4.48-3.403.63-.395-.06-.084.09.054.75-.634.45-.249-.16-.286.21.248.29-.243 7.78-5.122-.19-.263.19.263.15-.121.45-.255-.17-.282.17.282 7.46-4.717-.17-.276.17.276 6.69-4.327-.18-.273.18.273 6.39-4.341-.19-.267.19.267 5.47-4.1-.2-.257.2.257 5.02-4.121-.22-.242.22.242 3.95-3.881-.23-.226.23.226 3.64-4.018.78-.791-.23-.23.28.168.15-.252 2.36-2.933-.16-.126.18.092 2.26-3.661-.28-.155.28.155 1.48-3.134-.29-.14.31.104 1.18-3.542-.21-.07.22.029.74-3.835-.33-.059.33.059.18-1.1-.32-.055.33.012.04-1.201.16-.651-.31-.081.32.011.04-1.108-.33-.004.33.004-.03-3.605-.33.019.33-.019-.36-3.212-.32.053.32-.053-.66-3.07-.32.07.3-.13-1.28-2.933-.3.13.28-.175-1.88-2.955-.28.175.25-.209-.56-.679-.13-.248-.29.149.24-.228-6.02-6.244-.73-.852-.25.214.18-.274-.45-.287-3.53-2.855-.2.254.16-.28-3.88-2.331-.16.28.12-.3-.99-.424-.1-.101-.23.235.14-.293-.31-.153-.13.299.13-.299-.76-.306-.25.609.76.301.23.113.11.107.23-.235-.13.301 1.02.437.25.149-8.25-3.356-.13.303.13-.303-.73-.293-.47-.28 6.83 2.75.25-.607-13.66-5.681-.12.303-.17.272-.11-.024.27-.547-.9-.444-.14.294.1-.311-.45-.152-.21.62.43.147.72.351-18.52-4.184-.07.32.01-.328-.38-.012-2.83-1.595 17.78 4.242 1.65.604.74.298.28.135.29-.587-.31-.152-.14.299.14-.299-.77-.308-.12.306.12-.306-7.38-2.724-.1.31.1-.31-.99-.291-.08-.087-.23.235.08-.316-.6-.158-.17.632.52.135.08.085.23-.235-.09.314 1.05.309.62.227-15.66-3.823-1.86-1.04 14.96 4.022.08-.315.1-.311-11.97-3.952-.09-.091-.23.235.11-.31-.91-.305-.21.62.84.282.09.091.23-.235-.1.31.99.328-6.24-1.679-1.32-.446-1.06-.629 6.4 1.967.25-.609-8.54-3.439-.14.294.14-.294-6.42-3.094-2.48-1.425-1.55-2.194-.27.187.27-.187-6.68-9.587-.27.188.23-.231-6.91-6.964-6.24-8.587-.26.2.26-.2-7.03-8.636-.25.203.22-.234-.59-.573-.18.187.18-.187-.28-.273-1.03-1.138-.23.222.23-.222-.29-.282-1.01-1.117-.28-.404-.27.186.23-.234-1.01-.975-.27-.396-.27.184.23-.235-1-.959-.12-.232-.29.15.23-.235-1.14-1.104-.12-.231-.29.149.23-.236-.15-.142-.23.235.23-.235-.15-.143-.23.235.2-.265-.58-.419-6.33-6.119-.22.24.22-.24-1.78-1.582-.2.229.2-.229-1.75-1.408-2.52-3.814v-.171l-.12-.004-.06-.078.15-.078-.12-.232-.11-.737 1.58-20.437 2.99-26.075-.33-.019.33.019.13-22.324-.33-.002.31-.085-4.33-16.12-.32.085.25-.215-8.52-9.794-.23.226.23-.226-.15-.152-.23.237.14-.293-.26-.132-1.01-.835-.21.252.12-.306-11.72-4.38-.12.306-.02-.327-15.71 1.136.02.327-.13-.299-20.54 9.102.14.299-.19-.271-24.52 16.796-10.8-11.418-.12-.238-.29.149.23-.236-1.33-1.284-.23.236.19-.269-11.46-7.952-.18.268.1-.309-9.93-3.356-.11.31.06-.323-2.12-.346-.05.323v-.327l-11.55-.243-.01.328-.05-.324-2.14.344-1.05.1.03.325-.1-.31-11.85 4.017.1.31-.2-.257-11.71 9.119.2.258-.24-.218-.48.534.25.218-.27-.184-.65.952.28.175-.28-.175-.15.256-.48.683.27.178-.27-.178-.17.281.28.168-.28-.168-.15.252-.31.386.26.203-.28-.168-.32.542.28.167-.28-.167-.49.81.28.168-.28-.168-.3.51-.31.396.25.203-.28-.167-.3.519-.49.684.27.179-.27-.179-4 5.93.27.176-.27-.176-.17.279.28.168-.28-.168-.32.539.28.168-.28-.168-.04.064-11.75-14.008-.25.211.19-.266-12.04-8.658-.19.265.15-.292-3.44-1.768-.15.293.15-.293-.31-.147-.14.293.06-.321-12.24-2.469-.06.322-.09-.314-11.68 3.333.09.314-.21-.252-10.79 9.01.21.252-.25-.214-2.69 3.081.25.214-.28-.169-.16.271.28.167-.28-.167-9.83 16.757.28.165-.33-.011-.01.225-8.25 23.306-4.04-1.796-.12.305.12-.305-13.39-4.85-.11.309-.13.298 7.72 3.416-2.43 1.054-16.55-7.902 2.05-.013 1.45.18 6.69 2.95.15-.294-.11.311.45.152.21-.621-.43-.146-.28-.14-.14.296.14-.296-6.46-2.83-.13.299.04-.326-16.33-2.463-.06.322.01-.327-.27-.008-.57-.148-.08.316.01-.327-.54-.018-.23-.116-.15.293-.02-.326-1.22.097.05.654 1.13-.09.22.105.14-.293-.01.327.58.02.56.147.08-.315-.01.327.27.008 10.69 2.17-2.7 2.503-13.55-3.408 2.59-1.553-.17-.281-.08-.315-9.36 2.446.08.315-.13-.302-3.7 1.532.13.303-.18-.277-.62.393.17.276-.22-.24-6.74 6.25.22.241-.29-.16-2.59 4.597.29.159-.3-.118-3.83 9.929.3.119-.32-.011-.31 9.357.33.008-.33-.008-.11 7.988.33.004-.33.038.71 6.198-.03.938.32.011-.31.101.13.382.11 1.205.32-.028-.32.077.14.569.32-.09-.32.09.15.43.31-.102-.31.102.13.418.62-.207-.27-.814-.12-.53-.11-1.214-.33.028.31-.102-.12-.359.03-.919h-.32.32l-.35-10.812 2.87 11.651.82 12.375-2.73-9.157-.31.094-.32.07 4.76 21.921.32-.073-.32.073.13.56.32-.077-.29.15.12.238.12.653.32-.069-.32.069.14.576.32-.091-.32.091.28.848.5-.162.02.133-.21.065-.32.08 2.82 11.069-.01.225.33.012-.32.077.14.554.31-.077-.29.149.12.238 1.46 7.496-12.6-3.057-.27-.133-.14.293.09-.314-1.04-.307-.47-.155-.09.313.09-.313-.61-.16-.08.315.02-.325-13.04-1.116-.03.325-.1.312 13.53 4.27-8.15 2.13-.19-.095-.15.293.1-.312-13.4-4.273 7.38-2.045-.09-.316-.01-.327-9.13.25.01.327-.09-.316-8.29 2.207.09.316-.23-.233-5.67 5.601.22.214-.22-.214-4.1 4.278.24.225-.32-.075-1.94 8.198.32.075-.33.051 1.89 11.907.33-.05-.31.114 5.69 16.568.31-.105-.29.157 9.19 16.697.29-.163-.29.163 1.59 2.674.28.541.29-.148-.23.236.12.113 8.31 14.254 3.42 9.133-5.24 5.874-7.09 7.613.24.222-.24-.222-5.85 6.426.25.214-.25-.214-5.09 6.327.26.192-.26-.192-4.03 6.232.29.164-.29-.164-2.93 5.702.29.15-.31-.105-1.85 5.448.31.105-.32-.056-.94 5.203.33.057h-.33l-.02 5.233h.33l-.33.053 1.02 6.098.32-.06-.32.06.27 1.273.32-.085-.32.085 1.38 4.333.32-.102-.29.159 1.87 3.368.28-.158-.2.26.73.562 2.32 2.532.24-.222-.15.29 4.35 2.351.14-.295-.14.295 1.05.448 3.72 2.039.16-.285-.05.323 1.2.175 4.35 1.103.08-.316-.02.328 15.18 1.049.02-.327-.02.327 5.46.319 15.14 1.321.86.292.07-.205.03.224.73.022 6.75 1.452.02-.054.05.009v.056l.46.015.01-.327.05-.323-1.03-.168-4.83-1.445 9.78 1.689 1.55 1.503-1.51-.476-.09.314.09-.314-3.31-.934-.45-.15-.2.624.46.152.09-.314-.09.314 3.31.935 1.01.431 2.51 1.167.69.536.34.435-.3 9.05-17.69 47.843.31.11.3.14 7-15.712-2.6 15.522-5.98 16.66.42-12.87.67-2.39.13-.23-.28-.16.31.12.33-.82-.61-.24-.32.79-.15.25.28.17-.31-.09-.7 2.47.32.07-.32-.07-2.02 10.55.32.06-.32-.01-.08 2.5.32-.01-.32.01 1.1 12.86.32-.03-.32.08.14.55.31-.07-.29.13 2.84 6.161.29-.141-.24.22 6.72 7.63.12.24.29-.15-.13.3 3.91 1.79.12-.31-.12.31.47.15.21-.62-.45-.15-3.76-1.72-2.73-5.35 9.95 3.37 3.13 5.89-4.79-1.58-.1.31-.11.31 5.86 2.12.1-.29.16-.01-.1.31.9.3.11-.31-.11.31.39.13.09.09.23-.23-.13.3c2.91 1.22 4.32 1.55 5.06 1.55.27 0 .43-.05.56-.11l13.23-.94-.02-.33.06.32 1.83-.35-.06-.32.12.3.31-.12-.12-.3.12.3.32-.12-.26-.61-.59.24-1.59.3-.17-.25-.27.19.11-.31-4.84-1.67 18.72-6.71 5.24 2.17-15.81 5.5.11.31-.22-.25-.62.53.21.25-.02.31.18.03.42 4.68.32-.03-.31.1 1.1 3.63.31-.11-.31.11 3.97 9.23.3-.12-.23.23 8.1 7.98.23-.23-.18.27.44.29 2.07 1.57.2-.26-.11.31 9.47 3.34.11-.31.02.33 13.11-.81-.02-.33.14.3 17.46-7.69-.15-.3.15.3 1.87-1.05-.16-.29.21.25.47-.4-.42-.49-.44.37-1.38.77-.16-2.6 22.84-15.76-.97 2.77-19.72 14.44.19.26.19.27 22.26-15.66-.18-.27.18.27.91-.63.28-.12-.12-.3.15.29 9.39-5.12.03.07.31-.13-.04-.09.07-.03.06.07.31-.27-.21-.25-.15-.29-.75.37-10.81 2.97 4.29-6.62.14-.05 14.84 1.1-7.5 2.22.18.62 9.62-2.83 12.25.68.02-.33-.02.33.39.01.25.12.13-.3-.13.3 4.52 1.81.24-.61-4.78-1.94-.14.29.01-.32-.4-.02-23.55-9.599 1.74-6.811 30.43 18.09.04.08-.38 1.32-2.21-.79-.58-.29-.29.59.57.29 8.57 6.31 23.96 20.75 17.66 17.92.23-.23-.15.29 14.67 7.37.15-.29-.03.33 12.43 1.23.03-.33.11.31 9.7-3.4-.11-.31.24.23.62-.66.14-.12-.16-.18.2.14 7.46-9.4-.25-.2.31.09 5.26-16.49-.31-.09.32.04 3.21-23.43 4.94-21.48 12.42-11.06 2.71-1.38 11.84-1.8.58.02v-.11l.07-.01.03.11.88-.24 17.17-.67 25.06.96.01-.32.04.32 2.6-.33-.04-.32.04.32.78-.11-.05-.29.05.29 1.21-.23h.09l.02-.32.03.32 12.83-1.36-.04-.33.08.31 3.38-.85-.08-.32.08.32 1.85-.49-.09-.31.13.3 12.19-5.11-.13-.3.26.2.62-.79 7.51-6.89-.23-.24.28.18.78-1.19.96-1.21-.26-.2.31.1 3.2-9.398-.31-.105.32.026.27-3.305-.33-.018.33.018.01-.556-.32-.011z"
        style="fill:none;stroke:#c6c6c6;stroke-width:1" />
</svg>
