<?xml version="1.0" encoding="UTF-8" standalone="no"?>
<!DOCTYPE svg PUBLIC "-//W3C//DTD SVG 1.1//EN" "http://www.w3.org/Graphics/SVG/1.1/DTD/svg11.dtd">
<svg width="100%" height="100%" viewBox="0 0 428 428" version="1.1" xmlns="http://www.w3.org/2000/svg" xmlns:xlink="http://www.w3.org/1999/xlink" xml:space="preserve" xmlns:serif="http://www.serif.com/" style="fill-rule:evenodd;clip-rule:evenodd;stroke-linejoin:round;stroke-miterlimit:2;">
    <g transform="matrix(1,0,0,1,-1.67,-1.33)">
        <g id="base">
            <circle id="bg" cx="215.34" cy="215" r="212.67" style="fill:none;stroke:rgb(255,0,0);stroke-width:2px;"/>
            <g id="base-lines" serif:id="base lines">
                <path d="M215.34,427.67L215.34,215" style="fill:none;stroke:rgb(255,0,0);stroke-width:2px;"/>
                <path d="M31.16,108.66L215.34,215" style="fill:none;stroke:rgb(255,0,0);stroke-width:2px;"/>
                <path d="M399.52,108.66L215.34,215" style="fill:none;stroke:rgb(255,0,0);stroke-width:2px;"/>
            </g>
        </g>
        <g id="lines">
            <g id="bottom">
                <path d="M23.614,121.715C41.873,145.769 170.396,229.442 214.869,227.679C262.517,225.79 378.294,152.91 405.935,119.253" style="fill:none;stroke:white;stroke-width:1px;stroke-linecap:round;stroke-miterlimit:1.5;"/>
                <g transform="matrix(1,0,0,1,-0.388573,16.987168)">
                    <path d="M18.017,120.629C30.295,160.312 163.88,226.303 214.869,227.679C269.079,229.141 390.64,155.397 411.987,119.179" style="fill:none;stroke:white;stroke-width:1px;stroke-linecap:round;stroke-miterlimit:1.5;"/>
                </g>
                <g transform="matrix(1,0,0,1,-0.065335,36.120083)">
                    <path d="M12.046,119.358C24.402,172.125 164.225,228.014 214.869,227.679C280.08,227.247 406.291,158.981 418.414,116.997" style="fill:none;stroke:white;stroke-width:1px;stroke-linecap:round;stroke-miterlimit:1.5;"/>
                </g>
                <g transform="matrix(1,0,0,1,0.073932,55.789436)">
                    <path d="M6.17,117.792C20.211,178.056 164.713,230.819 213.825,228.579C296.901,224.789 414.221,158.9 423.242,115.008" style="fill:none;stroke:white;stroke-width:1px;stroke-linecap:round;stroke-miterlimit:1.5;"/>
                </g>
                <g transform="matrix(1,0,0,1,0.960132,75.695997)">
                    <path d="M3.167,117.399C15.734,177.807 141.288,228.006 213.431,228.57C298.34,229.234 417.404,160.34 425.305,113.441" style="fill:none;stroke:white;stroke-width:1px;stroke-linecap:round;stroke-miterlimit:1.5;"/>
                </g>
                <g transform="matrix(1,0,0,1,0.536297,94.826978)">
                    <path d="M2.638,118.816C16.527,181.338 142.205,229.958 214.336,228.431C310.069,226.403 409.697,169.351 427.098,113.687" style="fill:none;stroke:white;stroke-width:1px;stroke-linecap:round;stroke-miterlimit:1.5;"/>
                </g>
                <g transform="matrix(1,0,0,1,0.762508,114.216486)">
                    <path d="M2.638,118.816C19.759,179.641 142.205,229.958 214.336,228.431C310.069,226.403 409.697,169.351 427.098,113.687" style="fill:none;stroke:white;stroke-width:1px;stroke-linecap:round;stroke-miterlimit:1.5;"/>
                </g>
                <g transform="matrix(1,0,0,1,0.346131,131.795064)">
                    <path d="M5.741,119.592C29.436,187.639 142.205,229.958 214.336,228.431C310.069,226.403 407.475,172.323 424.875,116.659" style="fill:none;stroke:white;stroke-width:1px;stroke-linecap:round;stroke-miterlimit:1.5;"/>
                </g>
                <g transform="matrix(1,0,0,1,0.196981,146.272563)">
                    <path d="M11.421,129.801C35.986,185.32 129.263,229.118 214.336,228.431C307.779,227.676 395.644,176.509 419.888,125.186" style="fill:none;stroke:white;stroke-width:1px;stroke-linecap:round;stroke-miterlimit:1.5;"/>
                </g>
                <g transform="matrix(1,0,0,1,-0.213182,160.362272)">
                    <path d="M20.682,138.715C45.755,188.101 129.263,229.118 214.336,228.431C307.779,227.676 383.472,184.315 412.805,134.431" style="fill:none;stroke:white;stroke-width:1px;stroke-linecap:round;stroke-miterlimit:1.5;"/>
                </g>
                <g transform="matrix(1,0,0,1,-1.943323,172.215973)">
                    <path d="M39.357,159.026C64.546,189.357 131.261,230.046 217.05,228.037C308.951,225.885 353.876,195.608 394.93,159.011" style="fill:none;stroke:white;stroke-width:1px;stroke-linecap:round;stroke-miterlimit:1.5;"/>
                </g>
                <g transform="matrix(1,0,0,1,-1.966938,180.230303)">
                    <path d="M58.98,175.763C86.367,198.525 132.457,230.174 217.05,228.037C306.124,225.786 338.461,204.868 377.964,173.23" style="fill:none;stroke:white;stroke-width:1px;stroke-linecap:round;stroke-miterlimit:1.5;"/>
                </g>
                <g transform="matrix(1,0,0,1,-3.158896,186.69223)">
                    <path d="M87.767,196.525C118.383,211.183 129.912,227.914 218.214,228.423C299.689,228.893 314.761,211.944 357.527,188.789" style="fill:none;stroke:white;stroke-width:1px;stroke-linecap:round;stroke-miterlimit:1.5;"/>
                </g>
                <g transform="matrix(1,0,0,1,-7.607296,193.247375)">
                    <path d="M119.916,205.245C137.087,216.741 162.352,229.994 222.269,229.702C275.599,229.441 300.418,217.435 323.542,209.312" style="fill:none;stroke:white;stroke-width:1px;stroke-linecap:round;stroke-miterlimit:1.5;"/>
                </g>
            </g>
            <g id="right" transform="matrix(-1,0,0,1,431.573908,0)">
                <g transform="matrix(-0.470176,-0.882573,0.882573,-0.470176,125.818713,506.310065)">
                    <path d="M32.387,106.683C55.765,94.951 211.652,181.888 226.848,208.794C240.708,233.339 254.818,429.207 236.008,427.542" style="fill:none;stroke:white;stroke-width:1px;stroke-linecap:round;stroke-miterlimit:1.5;"/>
                </g>
                <g transform="matrix(-0.470176,-0.882573,0.882573,-0.470176,112.11298,499.381891)">
                    <path d="M27.492,102.862C48.634,83.946 190.564,151.135 226.848,208.794C257.439,257.409 262.431,430.803 240.25,434" style="fill:none;stroke:white;stroke-width:1px;stroke-linecap:round;stroke-miterlimit:1.5;"/>
                </g>
                <g transform="matrix(-0.470176,-0.882573,0.882573,-0.470176,95.093772,490.194532)">
                    <path d="M23.882,99.541C52.046,74.81 193.171,149.5 227.229,210.006C276.162,296.935 261.82,437.549 242.611,440.817" style="fill:none;stroke:white;stroke-width:1px;stroke-linecap:round;stroke-miterlimit:1.5;"/>
                </g>
                <g transform="matrix(-0.470176,-0.882573,0.882573,-0.470176,75.664765,482.061459)">
                    <path d="M20.013,98.598C66.991,76.404 187.537,141.963 228.389,212.314C282.879,306.15 266.381,443.465 244.333,448.494" style="fill:none;stroke:white;stroke-width:1px;stroke-linecap:round;stroke-miterlimit:1.5;"/>
                </g>
                <g transform="matrix(-0.470176,-0.882573,0.882573,-0.470176,55.181471,475.735736)">
                    <path d="M18.688,100.766C69.674,77.688 189.054,144.173 230.66,216.059C285.016,309.973 278.298,420.933 248.695,455.044" style="fill:none;stroke:white;stroke-width:1px;stroke-linecap:round;stroke-miterlimit:1.5;"/>
                </g>
                <g transform="matrix(-0.470176,-0.882573,0.882573,-0.470176,38.011651,467.000213)">
                    <path d="M18.618,100.898C75.273,74.867 190.165,145.61 231.772,217.496C286.127,311.41 281.382,421.55 251.779,455.661" style="fill:none;stroke:white;stroke-width:1px;stroke-linecap:round;stroke-miterlimit:1.5;"/>
                </g>
                <g transform="matrix(-0.470176,-0.882573,0.882573,-0.470176,20.237946,459.46959)">
                    <path d="M21.772,101.711C78.426,75.681 191.339,147.25 232.946,219.136C287.301,313.05 283.388,422.269 253.785,456.38" style="fill:none;stroke:white;stroke-width:1px;stroke-linecap:round;stroke-miterlimit:1.5;"/>
                </g>
                <g transform="matrix(-0.470176,-0.882573,0.882573,-0.470176,3.369351,454.348767)">
                    <path d="M30.656,103.745C94.76,87.755 193.486,150.589 235.092,222.475C289.448,316.389 289.553,409.846 258.872,452.942" style="fill:none;stroke:white;stroke-width:1px;stroke-linecap:round;stroke-miterlimit:1.5;"/>
                </g>
                <g transform="matrix(-0.470176,-0.882573,0.882573,-0.470176,-12.143732,448.926718)">
                    <path d="M40.288,107.137C105.656,98.063 195.842,153.534 237.448,225.42C291.804,319.334 289.553,409.846 258.872,452.942" style="fill:none;stroke:white;stroke-width:1px;stroke-linecap:round;stroke-miterlimit:1.5;"/>
                </g>
                <g transform="matrix(-0.470176,-0.882573,0.882573,-0.470176,-25.700287,445.75525)">
                    <path d="M55.942,111.458C113.122,107.677 197.069,156.832 239.266,228.854C295.471,324.783 289.78,409.481 260.75,449.051" style="fill:none;stroke:white;stroke-width:1px;stroke-linecap:round;stroke-miterlimit:1.5;"/>
                </g>
                <g transform="matrix(-0.470176,-0.882573,0.882573,-0.470176,-35.690848,440.293744)">
                    <path d="M77.212,115.228C132.2,126.185 195.407,151.93 238.915,228.02C294.104,324.537 285.745,385.461 274.65,413.436" style="fill:none;stroke:white;stroke-width:1px;stroke-linecap:round;stroke-miterlimit:1.5;"/>
                </g>
                <g transform="matrix(-0.470176,-0.882573,0.882573,-0.470176,-41.783564,434.201028)">
                    <path d="M98.9,119.477C150.653,131.732 199.22,157.615 239.334,226.638C290.844,315.27 280.792,361.563 281.045,371.891" style="fill:none;stroke:white;stroke-width:1px;stroke-linecap:round;stroke-miterlimit:1.5;"/>
                </g>
                <g transform="matrix(-0.470176,-0.882573,0.882573,-0.470176,-48.017971,431.083824)">
                    <path d="M140.836,134.959C162.689,144.696 200.097,165.444 239.683,226.452C269.499,272.402 278.143,315.511 279.108,328.878" style="fill:none;stroke:white;stroke-width:1px;stroke-linecap:round;stroke-miterlimit:1.5;"/>
                </g>
                <g transform="matrix(-0.470176,-0.882573,0.882573,-0.470176,-52.256725,430.17552)">
                    <path d="M205.377,179.168C213.358,185.445 228.862,205.556 242.513,227.765C259.449,255.316 266.743,276.07 268.988,283.45" style="fill:none;stroke:white;stroke-width:1px;stroke-linecap:round;stroke-miterlimit:1.5;"/>
                </g>
            </g>
            <g id="left">
                <g transform="matrix(-0.470176,-0.882573,0.882573,-0.470176,125.818713,506.310065)">
                    <path d="M32.387,106.683C55.765,94.951 211.652,181.888 226.848,208.794C240.708,233.339 254.818,429.207 236.008,427.542" style="fill:none;stroke:white;stroke-width:1px;stroke-linecap:round;stroke-miterlimit:1.5;"/>
                </g>
                <g transform="matrix(-0.470176,-0.882573,0.882573,-0.470176,112.11298,499.381891)">
                    <path d="M27.492,102.862C48.634,83.946 190.564,151.135 226.848,208.794C257.439,257.409 262.431,430.803 240.25,434" style="fill:none;stroke:white;stroke-width:1px;stroke-linecap:round;stroke-miterlimit:1.5;"/>
                </g>
                <g transform="matrix(-0.470176,-0.882573,0.882573,-0.470176,95.093772,490.194532)">
                    <path d="M23.882,99.541C52.046,74.81 193.171,149.5 227.229,210.006C276.162,296.935 261.82,437.549 242.611,440.817" style="fill:none;stroke:white;stroke-width:1px;stroke-linecap:round;stroke-miterlimit:1.5;"/>
                </g>
                <g transform="matrix(-0.470176,-0.882573,0.882573,-0.470176,75.664765,482.061459)">
                    <path d="M20.013,98.598C66.991,76.404 187.537,141.963 228.389,212.314C282.879,306.15 266.381,443.465 244.333,448.494" style="fill:none;stroke:white;stroke-width:1px;stroke-linecap:round;stroke-miterlimit:1.5;"/>
                </g>
                <g transform="matrix(-0.470176,-0.882573,0.882573,-0.470176,55.181471,475.735736)">
                    <path d="M18.688,100.766C69.674,77.688 189.054,144.173 230.66,216.059C285.016,309.973 278.298,420.933 248.695,455.044" style="fill:none;stroke:white;stroke-width:1px;stroke-linecap:round;stroke-miterlimit:1.5;"/>
                </g>
                <g transform="matrix(-0.470176,-0.882573,0.882573,-0.470176,38.011651,467.000213)">
                    <path d="M18.618,100.898C75.273,74.867 190.165,145.61 231.772,217.496C286.127,311.41 281.382,421.55 251.779,455.661" style="fill:none;stroke:white;stroke-width:1px;stroke-linecap:round;stroke-miterlimit:1.5;"/>
                </g>
                <g transform="matrix(-0.470176,-0.882573,0.882573,-0.470176,20.237946,459.46959)">
                    <path d="M21.772,101.711C78.426,75.681 191.339,147.25 232.946,219.136C287.301,313.05 283.388,422.269 253.785,456.38" style="fill:none;stroke:white;stroke-width:1px;stroke-linecap:round;stroke-miterlimit:1.5;"/>
                </g>
                <g transform="matrix(-0.470176,-0.882573,0.882573,-0.470176,3.369351,454.348767)">
                    <path d="M30.656,103.745C94.76,87.755 193.486,150.589 235.092,222.475C289.448,316.389 289.553,409.846 258.872,452.942" style="fill:none;stroke:white;stroke-width:1px;stroke-linecap:round;stroke-miterlimit:1.5;"/>
                </g>
                <g transform="matrix(-0.470176,-0.882573,0.882573,-0.470176,-12.143732,448.926718)">
                    <path d="M40.288,107.137C105.656,98.063 195.842,153.534 237.448,225.42C291.804,319.334 289.553,409.846 258.872,452.942" style="fill:none;stroke:white;stroke-width:1px;stroke-linecap:round;stroke-miterlimit:1.5;"/>
                </g>
                <g transform="matrix(-0.470176,-0.882573,0.882573,-0.470176,-25.700287,445.75525)">
                    <path d="M55.942,111.458C113.122,107.677 197.069,156.832 239.266,228.854C295.471,324.783 289.78,409.481 260.75,449.051" style="fill:none;stroke:white;stroke-width:1px;stroke-linecap:round;stroke-miterlimit:1.5;"/>
                </g>
                <g transform="matrix(-0.470176,-0.882573,0.882573,-0.470176,-35.690848,440.293744)">
                    <path d="M77.212,115.228C132.2,126.185 195.407,151.93 238.915,228.02C294.104,324.537 285.745,385.461 274.65,413.436" style="fill:none;stroke:white;stroke-width:1px;stroke-linecap:round;stroke-miterlimit:1.5;"/>
                </g>
                <g transform="matrix(-0.470176,-0.882573,0.882573,-0.470176,-41.783564,434.201028)">
                    <path d="M98.9,119.477C150.653,131.732 199.22,157.615 239.334,226.638C290.844,315.27 280.792,361.563 281.045,371.891" style="fill:none;stroke:white;stroke-width:1px;stroke-linecap:round;stroke-miterlimit:1.5;"/>
                </g>
                <g transform="matrix(-0.470176,-0.882573,0.882573,-0.470176,-48.017971,431.083824)">
                    <path d="M140.836,134.959C162.689,144.696 200.097,165.444 239.683,226.452C269.499,272.402 278.143,315.511 279.108,328.878" style="fill:none;stroke:white;stroke-width:1px;stroke-linecap:round;stroke-miterlimit:1.5;"/>
                </g>
                <g transform="matrix(-0.470176,-0.882573,0.882573,-0.470176,-52.256725,430.17552)">
                    <path d="M205.377,179.168C213.358,185.445 228.47,203.861 242.122,226.07C259.057,253.621 266.743,276.07 268.988,283.45" style="fill:none;stroke:white;stroke-width:1px;stroke-linecap:round;stroke-miterlimit:1.5;"/>
                </g>
            </g>
        </g>
    </g>
</svg>
