<svg width="100%" height="100%" viewBox="0 0 427 427"
    xmlns="http://www.w3.org/2000/svg">
    <style>
        svg {
            stroke-linecap: round;
            stroke-linejoin: round;
        }

        circle,
        path {
            fill: none;
            stroke: white;
            stroke-width: 1px;
        }
    </style>
    <circle class="bg-sphere" cx="213.189" cy="213.189" r="212.739" />
    <g id="lines-left">
        <path class="line"
            d="M213.392,9.547L210.088,23.578L197.135,41.641C172.227,79.342 -2.6,177.654 5.553,259.491" />
        <path class="line"
            d="M213.397,9.555L222.071,22.643L218.564,42.509C204.832,101.764 -18.553,244.878 29.171,319.947" />
        <path class="line"
            d="M213.382,9.557L232.304,21.165L239.548,40.401C236.03,151.315 -6.997,281.313 54.636,354.912" />
        <path class="line"
            d="M213.33,9.533L240.418,19.459L259.619,37.456C306.985,167.544 19.992,317.01 86.419,383.928" />
        <path class="line"
            d="M275.317,33.86C387.513,170.586 37.27,363.729 123.951,406.221" />
        <path class="line"
            d="M213.515,9.57L250.683,13.998L284.442,28.728C463.467,166.493 80.603,401.483 153.597,417.406" />
        <path class="line"
            d="M213.365,9.545L249.384,11.186L287.428,22.361C509.433,158.259 186.167,384.186 173.736,422.053" />
        <path class="line"
            d="M213.362,9.527L176.81,9.635L146.268,13.241C137.239,14.883 126.852,18.627 126.852,18.627" />
        <path class="line"
            d="M213.371,9.448L247.835,7.892L285.105,16.339C425.471,72.755 455.613,266.93 193.881,424.985" />
        <path class="line"
            d="M373.569,73.672C459.092,187.346 394.07,353.413 215.871,425.912" />
        <path class="line"
            d="M239.486,424.248C358.902,380.813 433.323,281.63 422.983,177.415" />
        <path class="line"
            d="M0.537,207.004C-2.348,144.969 169.323,49.034 177.056,39.651L199.655,22.458L213.396,9.538" />
        <path class="line"
            d="M12.628,142.202C35.425,94.31 138.268,47.57 159.649,36.205L188.895,20.571L213.363,9.506" />
        <path class="line"
            d="M32.043,101.76C49.356,71.385 125.525,38.16 147.499,30.168L180.67,18.807L213.344,9.499" />
        <path class="line"
            d="M73.556,52.88C98.977,38.041 140.133,24.676 140.133,24.676L177.092,15.528L213.368,9.532" />
        <path class="line"
            d="M213.351,9.522L174.27,12.87L139.203,19.303C134.015,20.256 114.988,25.907 102.284,31.692" />
        <path class="line" d="M213.321,9.562L178.455,6.102L157.209,7.915" />
        <path class="line" d="M213.29,9.437L182.352,3.659L175.185,3.906" />
        <path class="line" d="M213.313,9.415L197.034,2.124L192.757,1.33" />
        <path class="line" d="M213.47,9.054L209.6,3.784L209.914,0.616" />
        <path class="line" d="M275.317,33.86L247.727,17.064L213.35,9.489" />
    </g>
    <g id="lines-right">
        <path class="line"
            d="M213.372,9.585L214.815,23.465L227.305,41.641C252.213,79.342 428.783,178.245 420.629,260.082" />
        <path class="line"
            d="M213.242,9.564L202.778,22.568L205.876,42.509C219.608,101.764 444.198,245.986 396.474,321.055" />
        <path class="line"
            d="M213.305,9.493L192.136,21.165L184.892,40.401C188.41,151.315 432.313,282.422 370.68,356.021" />
        <path class="line"
            d="M213.326,9.537L183.321,19.853L164.821,37.456C117.454,167.544 405.231,317.877 338.804,384.795" />
        <path class="line"
            d="M149.122,33.86C36.926,170.586 387.392,364.559 300.711,407.05" />
        <path class="line"
            d="M213.364,9.523L174.556,14.165L139.998,28.728C-39.027,166.493 343.816,402.052 270.822,417.975" />
        <path class="line"
            d="M213.316,9.536L173.044,11.075L137.012,22.361C-84.993,158.259 238.273,384.186 250.704,422.053" />
        <path class="line"
            d="M213.357,9.543L247.63,9.635L278.172,13.241C287.201,14.883 298.205,18.106 298.205,18.106" />
        <path class="line"
            d="M213.3,9.457L176.605,7.892L139.334,16.339C-1.031,72.755 -31.173,266.93 230.559,424.985" />
        <path class="line"
            d="M51.903,74.547C-33.62,188.221 30.37,353.413 208.569,425.912" />
        <path class="line"
            d="M184.954,424.248C65.538,380.813 -7.011,282.353 3.329,178.138" />
        <path class="line"
            d="M423.903,207.004C426.787,144.969 255.117,49.034 247.384,39.651L224.503,22.157L213.338,9.551" />
        <path class="line"
            d="M413.736,141.992C390.939,94.1 286.172,47.57 264.791,36.205L235.158,20.346L213.396,9.539" />
        <path class="line"
            d="M394.055,101.186C376.742,70.811 298.915,38.16 276.941,30.168L241.61,18.265L213.397,9.514" />
        <path class="line"
            d="M352.958,52.795C327.537,37.956 284.307,24.676 284.307,24.676L247.348,15.528L213.379,9.539" />
        <path class="line"
            d="M213.366,9.525L250.17,12.87L285.237,19.303C290.424,20.256 310.866,25.581 323.57,31.366" />
        <path class="line" d="M213.353,9.511L248.761,5.93L267.426,7.45" />
        <path class="line" d="M213.353,9.507L235.196,4.169L247.626,3.196" />
        <path class="line" d="M213.382,9.506L225.434,2.67L229.425,1.116" />
        <path class="line" d="M213.376,9.053L217.246,3.783L216.932,0.616" />
        <path class="line" d="M149.122,33.86L176.713,17.064L213.328,9.528" />
    </g>
</svg>