<?xml version="1.0" encoding="UTF-8"?>
<svg
	class="graphic-sphere-svg"
	height="100%"
	viewBox="0 0 500 500"
	width="100%"
	xmlns="http://www.w3.org/2000/svg">
	<defs>
		<radialGradient
			id="sphere-gradient"
			gradientUnits="userSpaceOnUse"
			cx="250.11"
			cy="250.20"
			r="243.96">
			<stop offset="20%" stop-color="#ea5ec1" />
			<stop offset="110%" stop-color="#51a8c8" />
		</radialGradient>
	</defs>
	<g id="sphere-dots-connected-background" stroke="url(#sphere-gradient)">
		<path class="background" fill="none"
		d="M493.12,220.21 c0.00,0.00 -30.31,-78.34 -33.64,-86.87 l-0.03,-0.26 c-0.01,-0.13 -0.09,-0.23 -0.19,-0.30 c-0.09,-0.23 -0.16,-0.41 -0.20,-0.51 l0.00,-0.09 c0.00,-0.09 -0.01,-0.15 -0.02,-0.23 l0.01,-0.06 c-0.03,-0.12 -0.12,-0.29 -0.23,-0.52 l-0.20,-0.39 l-0.06,-0.05 l-46.07,-60.04 l1.70,0.52 l-70.58,-45.41 c-0.05,-0.03 -0.09,-0.02 -0.14,-0.02 l-78.16,-16.97 l-0.06,-0.02 l-78.65,10.12 l-0.13,0.06 l-0.10,0.03 l-84.99,38.52 l0.12,0.15 l-59.92,72.26 l0.06,0.07 l-29.45,70.16 l-4.51,81.72 c0.00,0.05 -0.01,0.10 0.00,0.14 l25.35,80.74 l-0.12,-1.93 c1.30,1.85 2.43,3.46 3.36,4.79 c5.90,8.41 5.90,8.41 22.24,29.01 c5.04,6.37 11.64,14.70 20.47,25.84 l0.08,0.08 l76.79,57.10 l0.07,-0.22 l91.37,14.05 l-0.09,0.29 l0.66,-0.20 l3.25,0.50 l-1.61,-0.69 l76.53,-7.99 l-0.76,0.87 l73.74,-38.74 c0.05,-0.02 0.09,-0.10 0.09,-0.10 l54.30,-58.75 l0.07,-0.03 l28.43,-72.13 l0.23,1.80 l0.38,-3.36 l0.21,-0.53 l-0.15,0.00 l10.35,-92.36 l0.22,-0.01 Z" />
	</g>
	<g id="triangles" fill="none" stroke="url(#sphere-gradient)">
		<path class="triangle" fill="none"
		d="M482.11,309.62 c-1.27,-8.96 -2.85,-18.03 -4.38,-26.82 c-3.51,-20.07 -7.12,-40.82 -7.17,-61.40 l21.56,-1.13 l-10.01,89.35 Z" />
		<path class="triangle" fill="none"
		d="M436.85,313.72 l32.92,-89.74 c0.33,19.81 3.76,39.70 7.13,58.96 c1.70,9.75 3.45,19.81 4.76,29.67 l-44.82,1.12 Z" />
		<path class="triangle" fill="none"
		d="M452.86,386.20 l-23.10,11.48 l50.33,-80.58 l-27.23,69.10 Z" />
		<path class="triangle" fill="none"
		d="M428.84,399.15 l0.07,-0.12 l22.42,-11.15 l-49.58,53.71 l27.09,-42.44 Z" />
		<path class="triangle" fill="none"
		d="M336.90,472.34 c6.92,-8.00 8.06,-9.32 8.54,-9.82 l49.12,-15.42 l-65.71,34.54 l8.04,-9.31 Z" />
		<path class="triangle" fill="none"
		d="M252.34,490.43 l91.23,-27.07 c-1.09,1.24 -16.69,19.28 -16.69,19.28 l-74.54,7.78 Z" />
		<path class="triangle" fill="none"
		d="M164.20,455.58 l96.98,-7.93 l-13.55,43.10 l-83.44,-35.17 Z" />
		<path class="triangle" fill="none"
		d="M156.23,476.79 l6.49,-20.92 l81.89,34.52 l-88.38,-13.59 Z" />
		<path class="triangle" fill="none"
		d="M59.24,394.29 c-16.32,-20.57 -16.32,-20.57 -22.20,-28.97 c-1.12,-1.59 -2.45,-3.49 -4.14,-5.88 l-1.57,-26.45 l0.20,0.43 l-0.06,-0.45 l45.23,83.38 c-7.33,-9.28 -13.01,-16.43 -17.46,-22.05 Z" />
		<path class="triangle" fill="none"
		d="M10.48,288.07 l19.25,41.46 l-0.19,-0.13 l0.82,1.52 l1.50,25.28 l-21.39,-68.14 Z" />
		<path class="triangle" fill="none"
		d="M12.52,206.63 l4.82,20.69 l-8.41,47.91 l3.59,-68.60 Z" />
		<path class="triangle" fill="none"
		d="M13.06,200.63 l27.39,-65.25 l-22.67,90.16 l-5.11,-21.89 l0.38,-3.02 Z" />
		<path class="triangle" fill="none"
		d="M113.04,72.89 l-0.23,0.48 l-67.68,53.89 l56.97,-68.72 l10.96,14.35 Z" />
		<path class="triangle" fill="none"
		d="M183.14,21.58 l-69.53,50.69 l-10.86,-14.23 l80.39,-36.46 Z" />
		<path class="triangle" fill="none"
		d="M265.14,9.84 l20.06,10.94 l-92.76,-1.58 l72.70,-9.36 Z" />
		<path class="triangle" fill="none"
		d="M337.00,25.38 l-48.78,-4.16 l-1.03,-0.43 l0.06,0.10 l-0.15,-0.05 l-19.10,-10.42 l69.01,14.95 Z" />
		<path class="triangle" fill="none"
		d="M395.15,64.56 c-7.24,-2.27 -9.17,-2.87 -9.98,-3.17 l-1.16,-1.10 l0.21,0.57 l-35.91,-30.88 l60.27,38.78 c-5.81,-1.82 -10.17,-3.17 -13.43,-4.19 Z" />
		<path class="triangle" fill="none"
		d="M386.63,62.76 c1.43,0.45 17.29,5.41 24.54,7.68 l43.59,56.79 l-68.14,-64.46 Z" />
		<path class="triangle" fill="none"
		d="M469.50,219.35 l-55.39,-80.38 l44.19,-6.54 l0.02,0.08 c0.01,0.06 0.15,0.41 0.41,1.03 l10.77,85.81 Z" />
		<path class="triangle" fill="none"
		d="M415.88,227.28 l53.85,-5.81 l0.00,0.22 l-33.40,91.02 l-20.45,-85.43 Z" />
		<path class="triangle" fill="none"
		d="M436.61,314.69 l0.20,0.06 l-0.05,-0.19 l44.62,-1.12 l-52.18,83.56 l7.41,-82.32 Z" />
		<path class="triangle" fill="none"
		d="M262.18,447.68 l81.81,14.68 l-95.46,28.32 l13.48,-42.89 l0.17,0.09 l0.00,-0.21 Z" />
		<path class="triangle" fill="none"
		d="M183.09,404.44 l77.26,42.44 l-97.24,7.95 l19.98,-50.38 Z" />
		<path class="triangle" fill="none"
		d="M97.13,379.08 l-0.34,0.35 l0.31,0.00 l-17.79,40.01 l-47.32,-87.22 l65.12,46.86 Z" />
		<path class="triangle" fill="none"
		d="M66.37,272.83 l30.65,105.14 l-65.68,-47.27 l35.04,-57.87 Z" />
		<path class="triangle" fill="none"
		d="M30.03,328.21 l-21.43,-46.18 l9.11,-51.91 l12.33,98.08 Z" />
		<path class="triangle" fill="none"
		d="M69.68,161.57 c-0.08,0.16 -0.16,0.33 -0.24,0.49 l-50.79,63.49 l23.77,-94.56 l27.27,30.59 Z" />
		<path class="triangle" fill="none"
		d="M98.60,102.56 c-9.28,19.12 -18.88,38.88 -28.52,58.19 l-27.27,-30.59 l69.13,-55.05 c-4.45,9.10 -8.89,18.26 -13.35,27.45 Z" />
		<path class="triangle" fill="none"
		d="M113.21,74.42 l32.01,40.49 l-74.03,45.48 c9.51,-19.06 37.41,-76.52 42.02,-85.97 Z" />
		<path class="triangle" fill="none"
		d="M210.60,53.81 l-23.12,-33.85 l97.48,1.66 l-74.35,32.19 Z" />
		<path class="triangle" fill="none"
		d="M344.30,72.37 c-22.28,6.37 -24.74,7.06 -25.63,7.13 l-29.68,-57.06 l93.98,38.91 c-17.03,4.84 -29.52,8.41 -38.66,11.02 Z" />
		<path class="triangle" fill="none"
		d="M413.83,140.04 l55.55,80.62 l-53.63,5.79 l-1.93,-86.41 Z" />
		<path class="triangle" fill="none"
		d="M354.27,291.72 l60.85,-63.95 l20.54,85.81 l-81.39,-21.85 Z" />
		<path class="triangle" fill="none"
		d="M360.15,393.40 l-6.22,-100.92 l81.51,21.89 l-75.29,79.03 Z" />
		<path class="triangle" fill="none"
		d="M428.24,398.27 l-67.53,-4.25 l75.00,-78.71 l-7.47,82.96 Z" />
		<path class="triangle" fill="none"
		d="M360.11,394.82 l67.35,4.24 l-81.61,62.08 l14.27,-66.32 Z" />
		<path class="triangle" fill="none"
		d="M359.23,394.94 l-14.36,66.74 l-81.95,-14.71 l96.30,-52.03 Z" />
		<path class="triangle" fill="none"
		d="M261.24,361.99 l0.08,84.48 l-77.60,-42.62 l77.52,-41.86 Z" />
		<path class="triangle" fill="none"
		d="M98.45,380.03 l62.55,74.21 l-81.09,-34.07 l18.01,-40.52 l0.53,0.38 Z" />
		<path class="triangle" fill="none"
		d="M155.36,317.28 l-57.42,60.92 l-30.66,-105.16 l88.08,44.24 Z" />
		<path class="triangle" fill="none"
		d="M65.67,272.31 l-34.67,57.26 l-12.71,-101.18 l47.38,43.91 Z" />
		<path class="triangle" fill="none"
		d="M69.30,163.53 l-3.10,108.12 l-47.89,-44.39 l50.99,-63.73 Z" />
		<path class="triangle" fill="none"
		d="M141.08,202.96 l-70.78,-40.83 c0.06,-0.10 0.10,-0.22 0.16,-0.33 l74.89,-46.03 l-4.26,87.19 Z" />
		<path class="triangle" fill="none"
		d="M231.89,133.76 l-85.24,-18.98 l63.54,-59.28 l21.69,78.27 Z" />
		<path class="triangle" fill="none"
		d="M232.73,133.66 l-21.84,-78.80 l106.43,25.26 l-84.59,53.54 Z" />
		<path class="triangle" fill="none"
		d="M338.77,177.42 l-19.85,-96.92 l0.26,0.06 l-0.09,-0.17 l93.04,57.85 l-73.34,39.19 Z" />
		<path class="triangle" fill="none"
		d="M339.17,178.16 l73.70,-39.39 l0.06,0.06 l1.95,87.32 l-75.71,-47.98 Z" />
		<path class="triangle" fill="none"
		d="M353.75,291.01 l-14.36,-111.74 l75.27,47.72 l-60.91,64.01 Z" />
		<path class="triangle" fill="none"
		d="M322.11,381.23 c-13.82,-4.72 -32.81,-11.21 -58.82,-20.09 l89.78,-68.40 l6.23,101.13 c-1.43,-0.42 -7.55,-2.51 -37.19,-12.64 Z" />
		<path class="triangle" fill="none"
		d="M262.11,361.70 l0.24,0.00 c26.37,9.00 93.48,31.94 96.02,32.75 l-96.24,52.03 l-0.08,-84.56 l0.08,0.03 l-0.03,-0.26 Z" />
		<path class="triangle" fill="none"
		d="M157.10,317.94 c2.54,1.00 76.51,32.04 103.63,43.41 l-77.65,41.88 l-25.98,-85.29 Z" />
		<path class="triangle" fill="none"
		d="M156.14,317.65 l26.06,85.57 c-21.97,-6.44 -81.87,-24.00 -83.67,-24.47 l57.60,-61.11 Z" />
		<path class="triangle" fill="none"
		d="M141.44,204.24 l14.07,112.19 l-88.21,-44.30 c24.71,-22.63 49.42,-45.26 74.13,-67.89 Z" />
		<path class="triangle" fill="none"
		d="M297.00,160.48 c-15.07,-6.22 -35.63,-14.68 -63.62,-26.24 l84.70,-53.61 l19.83,96.83 c-2.51,-1.14 -10.83,-4.57 -40.92,-16.97 Z" />
		<path class="triangle" fill="none"
		d="M247.88,246.91 l90.51,-68.27 l0.07,0.03 l14.46,112.59 l-105.06,-44.35 Z" />
		<path class="triangle" fill="none"
		d="M262.27,360.86 l-0.28,0.00 l-14.50,-113.21 l105.11,44.38 l-90.35,68.83 Z" />
		<path class="triangle" fill="none"
		d="M246.73,248.18 l14.39,112.44 c-27.16,-11.40 -102.07,-42.84 -104.18,-43.63 l89.79,-68.81 Z" />
		<path class="triangle" fill="none"
		d="M183.07,221.35 c15.02,6.13 35.53,14.49 63.49,25.91 l-90.20,69.11 l-14.02,-111.74 c2.43,1.10 10.61,4.44 40.73,16.72 Z" />
		<path class="triangle" fill="none"
		d="M232.15,135.48 l14.39,110.88 c-27.80,-11.35 -102.95,-42.00 -104.37,-42.72 l89.98,-68.16 Z" />
		<path class="triangle" fill="none"
		d="M232.93,134.95 c28.07,11.58 102.23,42.16 104.64,43.26 l-90.20,68.03 l-14.45,-111.29 Z" />
		<path class="triangle" fill="none"
		d="M146.18,115.52 l85.72,19.10 l-89.99,68.17 l4.26,-87.27 Z" />
		<path class="triangle" fill="none"
		d="M140.75,203.74 l-73.71,67.51 l3.10,-108.25 l70.61,40.74 Z" />
		<path class="triangle" fill="none"
		d="M384.14,61.87 c0.15,0.07 0.29,0.14 0.48,0.21 l27.51,75.18 l-92.00,-57.20 c2.23,-0.56 46.45,-13.19 64.00,-18.18 Z" />
		<path class="triangle" fill="none"
		d="M317.58,79.32 l-105.86,-25.10 l75.15,-32.54 l0.86,0.28 l29.86,57.37 Z" />
		<path class="triangle" fill="none"
		d="M113.76,73.22 l95.32,-17.82 l-63.24,58.99 l-32.26,-40.81 l0.19,-0.36 Z" />
		<path class="triangle" fill="none"
		d="M99.34,379.84 c2.74,0.77 60.84,17.81 82.92,24.27 l-19.99,50.40 l-62.94,-74.66 Z" />
		<path class="triangle" fill="none"
		d="M457.91,131.42 l0.10,0.20 l-44.49,6.58 l-0.35,-0.50 l-27.22,-74.36 l71.95,68.09 Z" />
		<path class="triangle" fill="none"
		d="M343.21,26.75 l38.71,33.28 l-91.25,-37.77 l52.55,4.48 Z" />
		<path class="triangle" fill="none"
		d="M186.52,20.11 l23.37,34.24 l-94.69,17.75 l71.32,-51.99 Z" />
		<path class="triangle" fill="none"
		d="M155.39,476.44 l-73.07,-54.33 l79.53,33.41 l-0.09,0.26 l0.06,-0.01 l-6.42,20.68 Z" />
		<path class="triangle" fill="none"
		d="M398.52,444.97 l-51.21,16.07 l79.63,-60.57 l-28.42,44.51 Z" />
		<path class="triangle" fill="none"
		d="M491.92,219.43 l-21.49,1.13 l-10.53,-83.82 c5.38,13.86 22.61,58.35 32.02,82.69 Z" />
	</g>
	<g id="circles" fill="url(#sphere-gradient)" stroke-width="3.19">
		<circle class="circle" cx="232.41" cy="134.34" r="6.39" />
		<circle class="circle" cx="318.34" cy="80.33" r="6.39" />
		<circle class="circle" cx="210.03" cy="54.84" r="6.39" />
		<circle class="circle" cx="287.15" cy="21.69" r="6.39" />
		<circle class="circle" cx="265.13" cy="9.14" r="6.39" />
		<circle class="circle" cx="186.42" cy="19.84" r="6.39" />
		<circle class="circle" cx="112.79" cy="73.60" r="6.39" />
		<circle class="circle" cx="101.76" cy="58.20" r="6.39" />
		<circle class="circle" cx="41.93" cy="130.18" r="6.39" />
		<circle class="circle" cx="69.45" cy="161.91" r="6.39" />
		<circle class="circle" cx="145.26" cy="115.13" r="6.39" />
		<circle class="circle" cx="343.85" cy="26.94" r="6.39" />
		<circle class="circle" cx="384.20" cy="61.95" r="6.39" />
		<circle class="circle" cx="411.89" cy="70.54" r="6.39" />
		<circle class="circle" cx="458.58" cy="131.78" r="6.39" />
		<circle class="circle" cx="412.99" cy="139.05" r="6.39" />
		<circle class="circle" cx="338.60" cy="178.27" r="6.39" />
		<circle class="circle" cx="415.12" cy="227.02" r="6.39" />
		<circle class="circle" cx="469.97" cy="221.20" r="6.39" />
		<circle class="circle" cx="492.11" cy="220.16" r="6.39" />
		<circle class="circle" cx="246.57" cy="247.24" r="6.39" />
		<circle class="circle" cx="141.44" cy="203.96" r="6.39" />
		<circle class="circle" cx="155.88" cy="317.37" r="6.39" />
		<circle class="circle" cx="352.80" cy="291.92" r="6.39" />
		<circle class="circle" cx="435.84" cy="314.23" r="6.39" />
		<circle class="circle" cx="481.67" cy="313.37" r="6.39" />
		<circle class="circle" cx="428.16" cy="398.28" r="6.39" />
		<circle class="circle" cx="359.51" cy="394.28" r="6.39" />
		<circle class="circle" cx="452.52" cy="386.81" r="6.39" />
		<circle class="circle" cx="398.92" cy="444.64" r="6.39" />
		<circle class="circle" cx="344.70" cy="462.27" r="6.39" />
		<circle class="circle" cx="326.96" cy="483.14" r="6.39" />
		<circle class="circle" cx="247.62" cy="490.86" r="6.39" />
		<circle class="circle" cx="155.53" cy="476.69" r="6.39" />
		<circle class="circle" cx="162.46" cy="455.46" r="6.39" />
		<circle class="circle" cx="182.54" cy="404.05" r="6.39" />
		<circle class="circle" cx="79.16" cy="420.34" r="6.39" />
		<circle class="circle" cx="97.27" cy="379.20" r="6.39" />
		<circle class="circle" cx="261.54" cy="361.28" r="6.39" />
		<circle class="circle" cx="31.76" cy="358.97" r="6.39" />
		<circle class="circle" cx="30.73" cy="331.40" r="6.39" />
		<circle class="circle" cx="66.56" cy="272.48" r="6.39" />
		<circle class="circle" cx="17.71" cy="227.24" r="6.39" />
		<circle class="circle" cx="7.89" cy="281.81" r="6.39" />
		<circle class="circle" cx="12.11" cy="202.93" r="6.39" />
		<circle class="circle" cx="261.34" cy="447.42" r="6.39" />
	</g>
</svg>
