<svg xmlns="http://www.w3.org/2000/svg" xml:space="preserve" style="fill-rule:evenodd;clip-rule:evenodd;stroke-linejoin:round;stroke-miterlimit:2" viewBox="0 0 449 449"><path d="m443.534 263.2-6.574-11.708 1.328-14.216 8.367-6.711zm-8.653 33.429-6.141-12.337 2.07-8.239 12.343-10.718zm-87.904 112.806 6.069-5.938 8.665-6.836 3.74-1.434zm-4.602 3.53-19.714 7.721.846-.812 27.232-15.09zm-25.389 13.165 4.363-4.186 15.197-5.952zm-100.277 20.327 2.687-.699 10.737-.009 2.753.667zm-103.918-30.151 14.949 5.739 4.692 4.382zm-14.142-11.024 27.187 14.983.554.519-19.205-7.373zm-14.565-9.578 3.142 1.183 9.018 7.062 5.815 5.537zM5.847 265.873l11.845 10.022 2.293 9.016-5.814 12.305zM2.238 231.11l8.019 6.239 1.394 14.708-6.19 11.665zm2.012-35.025 5.334 3.739-1.11 18.536-6.226 10.561zm7.651-34.476 3.256 2.022-4.652 21.039-5.799 8.958zm13.054-32.941 1.569.842-8.719 22.198-4.714 6.72zm18.162-30.567.132.06-13.114 22.17-1.437 1.949zm377.627 24.963-2.388-3.087-13.036-21.993.344-.161zm15.073 35.17-5.069-6.927-8.694-21.991 1.774-.978zm8.34 35.013-6.164-9.029-4.565-20.775 3.507-2.222zm-4.165 25.775 6.631 10.68-8.245 6.614zm-7.617 22.109-1.55-26.275 8.547 3.334-1.749 18.731zm3.928 9.929-4.542-1.949.64-7.113 5.133-4.117zm.426 1.436 6.605 11.764-12.229 10.619zm-7.429 23.952 2.395-26.612 4.501 1.931-6.006 23.907zm-1.162 7.391-.49-.23 1.539-6.146.708-.615zm-7.101 26.167 4.531-18.091 2.831-6.753 6.156 12.367zm-3.773 9.323 3.446-8.079 13.272-12.251-12.942 29.054zm-16.345 33.244 6.436-10.047 11.7-11.23-16.639 25.308zm-21.45 28.869 9.995-11.002 3.517-3.44-13.461 14.609zm-7.171 6.866-4.951 5.449-3.806 1.46zm6.63-6.269.038.125-.534.421zm-26.668 17.503-1.576-6.378 16.129-14.25 10.024-3.736 1.856 6.09-3.562 3.921-13.768 10.863zm.764 3.09-.596-2.411 7.104-2.724zm-12.461 2.139 11.213-4.3.64 2.591-27.685 15.34zm-18.39 6.919 7.313-4.742 9.679-1.889-15.701 13.522zm-10.487 11.761-20.203 4.061-.235-1.829 30.282-13.659 1.327 7.079-.568.489zm7.985-1.606-3.461.696 4.596-1.673zm-4.839 5.392-8.086 2.505 12.789-7.017zm-11.124 4.171 2.528-.783-3.898 1.535zm-19.278 6.082 4.293-.878-7.839 2.25zm-18.766 4.633 3.138-.18-6.794 1.39zm-27.081 2.86 1.906-.177 9.903.245-13.49 1.249zm-1.276.118-1.632 1.28-3.379-.813zm-15.491-2.223 5.831-.01 1.828 2.198h-9.405zm-9.351 2.284 4.876.424-3.285.849zm-3.442-.3 2.198.191 1.636 1.309-13.618-1.221zm-24.788-2.554 3.744 1.239-7.151-1.411zm-19.438-4.709 3.762 1.444-7.985-2.284zm-18.496-5.745 1.291.705-3.893-1.501zm-16.54-9.033 13.527 7.387-8.613-2.635-5.211-4.866zm2.716-.165-2.417-.475-.779-.67zm-21.861-17.21 8.735 1.672 7.654 4.912-1.088 6.585zm-13.131-4.699 11.74 4.417 16.558 14.251-28.919-15.909zm-.656-.247-.579 2.573-6.86-5.372zm-21.588-13.879-4.642-5.085 1.714-6.001 9.372 3.439 16.694 14.643-1.396 6.2-9.417-3.544zm6.974 7.638-4.152-4.548 7.338 5.747zm-11.839-11.941 1.578 1.728-1.693-1.326zm-10.34-11.326 9.791 10.725-.127.446-15.167-16.422zM42.152 343.14l6.145 9.576-1.548 4.434-16.756-25.408zm-13.407-31.269 3.167 7.394-3.844 9.333-13.004-29.027zm-8.411-26.075 4.51 10.643 3.575 14.208-13.915-12.51zm-.122-7.77 1.483 5.894-1.111.532-1.98-7.785zm-7.796-25.7 5.172-2.26 2.508 26.954-1.786-1.511zm-.524.756 5.506 21.655-11.731-9.925zm4.992-10.576.636 6.832-5.213 2.279-1.297-13.681zm-7.699-23.815 9.249-3.657-1.526 26.611-5.988-4.659zm-.615.873 1.597 16.836-7.899-6.146zm10.361-13.19-.453 7.898-9.285 3.672 1.057-17.653zm-9.298-7.363-5.218-3.657 5.99-9.254zm1.529-13.957 13.159-4.74-5.266 25.3-8.756-6.136zm15.186-14.476-1.862 8.942-13.182 4.748 4.478-20.25zm-11.032-7.665-3.151-1.957 5.234-7.462zm3.092-10.774 16.597-5.435-8.447 23.188-10.617-6.592zm20.448-16.01-3.55 9.749-16.602 5.436 8.436-21.473zm-12.077-7.267-1.487-.798 3.854-5.227zm3.915-8.069 19.481-5.753-11.032 20.459-11.748-6.306zm25.415-16.758-5.471 10.145-19.457 5.746 12.703-21.474zm-9.486-10.213 1.877-2.255 19.563-5.189-2.921 5.477-8.662 11.586-12.24-5.591zm-2.789 3.351-.229.387-.068-.031zm48.455-50.664-20.46 17.977-1.223.296L93.19 45.198zm30.075-18.996L99.828 41.739l-2.887.639 26.15-16.123zm32.592-14.075-22.488 9.698-4.811 1.002 27.584-11.364zM316.66 23.19l-22.846-9.813-.314-.627 27.558 11.324zm32.546 18.553-22.798-14.348-.753-1.168 25.98 16.048zm27.84 22.615-20.558-18.021-.639-.84 22.047 19.064zm26.959 31.407 1.241 1.489-.281.131zm-11.371 7.395-11.319-15.044-1.047-1.969 20.08 5.233.867 1.04 3.118 5.261zm6.025 11.021-5.652-10.43 11.681-5.471 12.633 21.315zm20.628 8.134 4.195 5.423-1.685.929zm-9.259 12.844-10.905-20.123 18.685 5.421 3.379 8.547zM414 145.827l-3.683-10.038 11.126-6.136 8.41 21.271zm17.136 7.186 5.529 7.557-3.396 2.152zm-8.469 16.426-8.362-22.785 15.844 5.095 2.497 11.367zm2.148 9.985-1.935-9.297 9.925-6.289 4.391 19.982zm13.277 6.167 6.327 9.268-5.509 3.983zm-7.92 19.566-5.191-24.937 12.356 4.387.908 14.715zm.125.763 7.998-5.781 1.068 17.302-8.583-3.347zm-12.143 3.25 11.465-2.978.45 7.624zm3.07 35.419-10.745-4.612 2.364-29.428 4.165-1.082 13.106 5.112 1.592 26.986zm1.005.431 9.448-2.726-.588 6.529zm-2.669 34.805-16.05-7.508 5.059-23.357 12.61-3.637 9.845 4.225-2.473 27.464zm.93.436 7.899-2.472-1.382 5.52zm-3.242 31.49 6.544-15.602-3.664 14.63zm-1.607 3.831 1.25-2.978 2.904-.98-2.912 6.827zm1.248 4.624 3.733 8.624-12.547 12.043zm-10.06 21.819-8.675 3.102-.204-.549 17.264-28.244 1.294 2.994zm-8.433 3.753 7.854-2.809-5.632 8.793zm-22.789 25.367 1.027 3.369-8.372 3.12zm-16.441 9.879 8.221-15.107 7.809 4.666-8.743 7.726zm-8.901 11.587-.039-.026 8.404-10.621 6.374-2.375zm-1.53 1.859 1.343-.87 1.53 6.193-10.169 3.899zm-1.814 1.176-6.73 8.506-9.146 1.786zm-28.891 12.833L311.61 404l20.967-17.094 5.865-1.107 10.767 6.955-.945 1.196-19.044 12.345zm3.766 2.629-2.975-2.077 8.841-1.726zm-31.324 13.639 9.943-12.122 17.458-3.409 3.216 2.244-30.173 13.614zm-2.916 3.555 1.639-1.998 1.384-.39.224 1.735zm3.659 2.548-9.081 1.749 4.681-3.44 4.077-.82zm.673-.195-.316-2.453 15.768-3.17zm8.502 1.781-3.142 1.724-7.124 1.457zm-13.327 3.403 4.723-4.409 20.08-7.308 5.804-1.167-14.242 7.814zm-15.094 4.198 8.389-1.715-6.868 2.659-5.289.303zm-20.644 2.213 1.105-.428 16.477-1.502-3.374 1.117zm-2.131.817 13.802-.791-6.735 2.229-12.683-.315zm-23.44-3.561 7.355 2.661-5.135.008zm-1.078-.211 2.396 2.882-4.703.008zm-8.348 2.9 7.296-2.693-2.142 2.685zm-16.012.928 5.666 1.134-12.568.358-6.574-2.175zm-19.424-2.651 16.088 1.409 1.17.438-13.784-.698zm-3.019-.269 3.887 1.286-5.633-.285-7.309-2.804zm-18.883-4.467-6.507-1.296-2.894-1.58zm-1.377-4.08 4.811 4.406-15.848-4.848-14.533-7.936 4.806.943zm-.117-.779-16.096-5.762 16.351 3.209zm5.649-1.494 4.839 3.565-9.811-1.876.261-2.613zm-4.485-3.187 2.365.652 1.379 1.683-3.9-.766zm-27.226-16.766 18.163 3.477 9.63 11.748-.917.697-30.229-13.557zm-.947-.181-3.112 2.195-6.194-3.976zm-28.169-13.888-1.976-2.493 10.328-6.791 5.404.996 21.376 17.265-6.177 4.357-11.658-2.232zm1.329 1.678 14.139 9.074-8.189-1.567zm-4.654-2.988 2.852 1.83 6.511 8.215-10.717-4.033zm.767-.8.755.953-1.115-.716zm-8.547-10.781 8.115 10.236-.533.351-15.297-13.418zm-17.407-11.332 8.418-5.147 8.458 15.545-8.632-3.167zm-.4.574 6.831 5.992-7.733-2.837zm-22.815-25.563-2.003 5.735-5.333-8.308zm-9.141-4.619-12.957-12.146 3.8-9.23zm-7.818-24.626 17.312 28.236-.125.355-8.142-2.856-10.015-23.381zm-1.788-3.945 1.352 3.189-.915 2.22-2.627-6.134zm-.359-.849-2.162-.715-2.717-10.798zm-2.977-31.452-6.175 2.957-1.326-5.269zm-.824-35.005 12.093 3.43 5.213 23.685-15.562 7.449-8.583-2.645-2.587-27.799zm-1.051-.298-8.443 3.69-.581-6.25zm5.162-35.605 3.673.938 2.44 29.739-10.277 4.492-10.053-2.851 1.566-27.315zm-12.185-3.108 11.041 2.817-11.463 4.533zm17.284-30.856-1.642 31.854-3.498 1.383-12.058-3.077 5.393-25.908zm-9.888-4.957 10.318 2.343-.36 1.854-11.71 4.217zm15.968-26.735-5.517 28.396-10.259-2.33 8.643-23.73zm-3.467-7.729 5.685 1.139-2.035 5.802-7.015 2.298zm13.898-22.279-7.981 22.757-5.613-1.125 11.3-20.954zm3.371-9.828 1.6.28-4.658 8.733-2.143.633zm1.945-.366-1.515-.264 5.779-7.731zm11.687-17.924 32.283-4.299-4.067 9.68-9.868 16.695-3.384.503-25.931-4.529 6.293-11.798zm-.962.128-1.556 2.082 1.076-2.018zm-3.563-15.415 10.736 4.129-8.08 10.726-19.274 5.112zm2.051-2.773 1.576-2.149 1.201-.291zm18.602-6.262-9.483 12.588-10.618-4.083 5.729-5.034zm6.092-14.509 6.65 2.181-12.057 11.451-13.939 3.366zm1.158-1.584 1.433-2.084 2.877-.636zm14.755-5.033-8.694 8.257-6.494-2.131 6.741-4.256zm14.136-12.386 2.854.787-15.981 10.666-7.724 1.71zm.77-1.107.855-1.48 4.981-1.037zm9.987-3.382-7.139 4.766-2.63-.725 8.997-3.88zm24.277-10.934-1.896.482.324-.756 3.96-.767zm11.427-2.899-1.124.107 12.025-2.872zm21.188-5.221.143-.014zm100.183 7.922-2.097-.916 4.132.788.368.738zm29.247 12.007 4.564.917.931 1.443zm5.364 3.057-2.879.809-7.206-4.815 1.425.287zm13.719 11.898-15.837-10.581 3.103-.872 21.108 13.285zm12.093 3.355 2.414.529 1.45 1.903zm4.498 3.649-6.774 2.27-8.811-8.345 9.094 1.99zm5.68 14.066L349.227 49.29l6.928-2.321 19.44 17.042zm17.052 4.792.837.2 1.374 1.737zm4.188 4.596-10.879 4.331-9.677-12.844 14.918 3.57zm-2.556 15.377-7.891-10.473 10.996-4.378 16.688 20.009zm9.128 18.573-25.585 4.56-2.49-.361-14.284-23.969-1.092-2.613 33.275 4.353 1.975 2.625zm.718-.128-6.228-11.701 8.499 11.296zm4.917 9.236-4.574-8.592 2.359-.42 5.382 9.93zm8.357 23.709-8.045-22.898 3.319.963 11.174 20.619zm2.204 6.269-1.971-5.607 6.52-1.332 3.497 9.527zm5.743 29.343-5.561-28.554 8.167 2.626 8.562 23.329zm.451 2.318-.318-1.636 11.228-2.613 1.827 8.771zm1.767 32.56-1.696-31.797 12.831 4.555 5.319 25.552-12.478 3.241zm-.025.735 2.855 1.114-3.007.78zm-20.36 7.142-1.971-11.645 21.652 4.29-.184 2.292zm17.105 24.707-16.036-3.48-.989-20.534 19.358-5.027zm.564.906 9.812 4.211-11.439 3.301zm-15.83 11.609-.736-15.279 15.905 3.452-1.722 7.948zm8.316 19.806-9.587-2.276 1.274-16.81 13.277-3.831zm.46.893 15.271 7.144-20.102 6.29zm-11.461 15.508 1.361-17.979 9.446 2.244-5.008 13.921zm-.157 14.743-2.673-.685 2.744-13.304 5.59-1.75zm-6.823 19.44 1.582-7.671 5.61-10.889 19.018 9.715zm12.581 22.541.052.14-.242.087zm-23.615 8.604 6.578-18.413 16.62 9.23-1.061 1.267zm-15.367 5.957 1.903-2.719 12.241-2.197-5.489 10.087zm-22.54 24.394 1.668 1.077-3.891.735zm-23.235 5.781 4.341-11.746 18.151 5.675-2.911 2.373zm-1.731 13.676-4.761-1.568 6.18-11.343 18.766-3.544zm-8.994 6.202 9.051-5.401 6.065 4.232-16.202 3.163zm-1.957 2.146-1.922.169 2.712-1.619zm-15.571 8.313 12.278-7.326 2.716-.239-9.52 11.606zm-5.39 8.87 8.977-2.529-1.531 1.867zm-20.284 7.935-.128-2.183 16.797-4.733 10.03-.893-4.918 3.615zm15.266.594-17.631 2.146 2.203-2.003 20.641-3.974zm1.404-.171 5.397-3.966 9.651-1.858-4.919 4.591zm-1.138.837 5.976-.728-6.907 1.412zm-18.847 2.294 17.442-2.123-1.134.833-16.972 1.548zm-10.036 1.113-3.184-.518.633-1.225 10.86.555-1.451.562zm2.751.446 1.752-.159-.808.313zm-7.978.635-1 .783-2.149-.778zm1.708-.95.749.121-.852.078zm-.721-.118-.194.375-5.846.01-6.853-2.479zm-32.308.43-.226-.451 12.483-2.071-6.807 2.513zm.771.691 2.797-.005-1.918.708zm-8.289-.635-.948.157-.837-.314zm6.574-.388.14.279-1.19-.105zm-12.161-1.194 11.25-.618.585 1.163-3.498.58-6.961-.609zm-18.724-1.924 16.967 2.008.55.205-16.471-1.442zm-1.388-.164.853.629-6.532-1.301zm-1.129-.831-10.579-1.252-5.007-4.589 10.344 1.979zm16.22.242 2.263 1.944-17.095-2.022-5.057-3.725zm-17.251-7.721 17.215 4.746-.131 2.238-21.016-4.019-5.077-3.74zm-3.676-1.013-6.352-.547-1.276-1.556zm-17.523-16.123 12.447 7.319-4.956 3.767-9.206-11.229zm-1.379-.812-.909-.075-.366-.674zm-13.223-21.279 5.993 11.026-5.588 1.885-20.591-16.632zm-23.979-6.784 19.207-6.121 4.462 12.144-21.005-3.871zm-.74.293 1.977 1.596-3.44-.634zm-35.736-29.198 11.024 1.931 2.059 2.933-7.831 4.788zm-25.374-10.171 17.38-9.823 6.774 18.959-23.36-8.195zm4.642-40.572 7.672 14.7.803 3.862-27.012-8.934zm1.525-14.87 2.698 12.978-3.859 1.01-5.826-16.141zm-12.181-16.548 10.679-2.561 1.417 18.359-7.195-2.218zm-.653.232 4.726 13.093-19.513-6.014zm10.007-19.982 1.272 16.49-10.82 2.595-5.117-23.244zM38.687 240.91l17.241-3.803-.728 15.631-14.835-4.207zm-.66.223 1.581 7.183-10.927-3.099zm18.875-24.976-.941 20.233-17.373 3.832-2.408-29.353zm-20.945-7.998 23.024-4.641-2 11.942-20.862-5.323zm-.678.214.129 1.582-2.511-.64zm8.039-33.84 19.764 4.489-3.978 23.763-23.149 4.666 1.644-31.875zm-1.718-.39-3.896.71.297-1.527zm20.44-33.264 11.474 2.298-7.763 26.566-22.412 4.084-5.206-1.183 5.588-28.759zm-1.928-.387-16.164 2.653 1.93-5.504zm28.058-31.457-.634-.11.767-.114zm3.397-.709-.277 1.001-2.364-.206.262-.441zm.232-.734-2.158.321L96.64 96.07zm13.487-26.149 12.479-.914 28.21 2.176-2.757 10.235-4.092 10.817-46.543 3.757 6.656-15.841zm-.844.062-3.219 5.447 2.259-5.376zm-26.136-6.103 25.697 3.907-.969 1.614-32.045 4.267zm-.705-.215-7.574 10.131-.508.068 7.773-10.318zm14.441-14.316L78.069 74.625l-.344-.132 9.857-13.083zm10.611-10.445-9.803 9.649-4.458.538 11.635-11.049zm15.266-11.054L103.24 49.89l-2.643-.867 9.243-8.78zm12.649-9.063-11.505 8.244-8.013.864 15.363-10.253zm16.174-8.177-15.416 7.666-4.15-1.144 8.057-5.377zm42.707-16.756.099.02-13.499 3.761-2.402.228zm90.342 4.418-6.628-1.681 7.361 1.75zm4.384 1.112 1.178.111 1.024.448zm7.464 2.858-4.174 1.033-9.858-2.975-3.52-1.869 5.59.528 10.608 2.691zm25.981 15.92-15.249-7.539 10.897 1.077 8.097 5.41zm12.439 8.839-11.68-8.33 3.747-1.053 15.214 10.165zm15.701 11.196-14.551-10.376 7.338.788 9.363 8.868zm10.475 10.243-9.885-9.708 2.132-.714 11.46 10.855zm.805.792 3.71.432 9.308 12.354zm-11.91 20.001-.871-1.453 26.497-4.067 7.406 9.842zm10.396 26.592-44.981-3.629-8.038-21.043 28.494-2.249 13.122.942 1.816 3.048zm.783.077-7.854-18.787 11.511 19.318zm4.219 1.473-3.69.332-.297-1.072 3.881.562zm28.264 31.396 13.67-2.791 1.865 5.31zm16.736 33.259-21.602-3.891-7.875-26.765 10.823-2.211 17.68 2.866 5.631 28.918zm1.728.312 3.062-.713.255 1.31zm-20.718 4.82 19.016-4.424 5.125.923 1.696 31.822-21.776-4.315zm-16.136 20.003-.763-18.004 16.215-1.881 4.017 23.744zm-1.193 19.485 1.18-18.78 19.606 3.885 2.017 11.922zm-.793 12.621.748-11.915 22.922-2.988.975 20.252zm-4.248 25.911 4.166-25.22 24.762 5.374.75 15.586zm-.986 5.97.867-5.251 29.78-4.275-1.25 16.508zm-6.867 31.498-1.558-.4 8.277-30.422 29.492 7.005-1.388 18.325zm1.694.434 33.013-5.206-2.677 12.982zm24.21 28.613 3.049-5.916-1.154 5.596zm-4.968 9.644 4.571-8.872 2.058-.349-3.847 10.766zm-.357.595 2.903 1.612L373 354.093l-12.067 2.165zm-.284-.865-17.303-4.788 21.661-3.67zm-24.394 25.229-23.261-6.886 10.266-19.729 18.472-3.129 18.53 5.128-16.258 23.226zm5.612 1.662-4.134-1.224 5.708-1.024zm-45.742 16.453 8.025-11.849 1.445-.116-4.945 13.38zm-13.402 15.256 12.964-14.666 4.723 1.476-4.464 12.08zm-5.749 6.503 5.085-5.752 13.522-1.135-6.011 11.035zm-9.158 22.188-11.935-4.119.797-.679 22.496-1.98zm-29.481 11.482-5.017-1.775 21.92-13.316 11.627 4.013-27.322 10.97zm-8.063 2.134.39-.754 4.836-.431zm12.119.776-2.865-2.263.178-.072 16.038-1.427zm-14.285 3.416.528-1.021 13.356-1.625.125 2.134zm-.365.706 13.808-.505-2.273 2.068-12.025-.615zm-1.601 1.585-.592 1.147-10.57-1.717zm-9.518-1.179 10.323-.377-.455.881zm-14.208.635-10.062 1.669-.546-1.086zm-11.354-.903 9.632.304-9.225.507zm-.79-.025.44.877-12.46.685-2.344-2.014zm-14.841-3.353 13.987 1.654.5.996-14.614-.46zm2.411-3.031-2.814 2.261-13.702-3.777 16.215 1.396zm9.588.731.45.896-6.276-1.397zm-25.525-16.414 22.088 13.208-4.89 1.793-1.408-.122-27.305-10.87zm-1.591-1.303.941.795-11.818 4.115-11.515-6.771zm-25.445-23.016 5.184 5.798-11.665 3.935-5.824-10.714zm-13.695-15.317 13.025 14.568-11.996-.956-4.585-12.479zm-8.518-12.372 8.077 11.784-3.355 1.069zm-33.137-5.871-4.527 1.364-1.728-2.461zm-22.976-24.913 18.905-5.298 17.75 2.938 10.499 19.983-22.698 6.843-8.3-1.454zm-.669.255 15.859 22.588-10.848-1.901-6.992-19.567zm-5.076-9.632 4.717 9.037-1.859 1.05-3.651-10.219zm-.402-.77-.624-.103-.378-1.816zm1.255.911 22.178 3.67-17.677 4.954zm23.284-29.575-29.496 7.716-2.631-12.653zm-5.593-31.098 8.386 30.367-1.106.29-33.931-5.215-1.443-18.703zm-1.08-6.192.929 5.517-27.996 6.715-1.249-16.189zm-4.333-25.73 4.212 25.011-28.213-3.942.741-15.938zm-22.298-15.54 21.43 2.715.784 12.134-23.142 5.105zm20.186-16.551 1.199 18.561-21.312-2.7 2.045-12.22zm-14.01-20.592 14.736 1.67-.741 18.217-17.93 3.614zm-.529-.792-18.18-4.129 20.477-3.731zm15.785-10.318-.492 12.086-14.603-1.655 2.37-8.112zm-4.817-24.745 8.387.836-3.512 23.196-12.566 2.289zm-.459-.767-9.764-1.956 11.409-1.872zm9.873-5.179-.923 6.097-8.239-.821 1.745-4.059zm51.722-23.465-5.093 18.483-45.747 4.171 7.305-26.457zm4.841-9.504-1.582 8.956-2.321-.089 3.338-8.821zm.149-.708-.442.035 1.503-3.972zm7.451-20.827 49.001 1.631-1.612 17.114-54.112 2.044 2.825-10.486zm-.722-.044-1.349 3.564.968-3.594zm.811-4.455 1.414-.047-1.942 3.828-.481-.037zm-.73.044-.982 3.645-23.766-1.833zm-40.305.613 17.233-21.625 29.259-1.892 2.53.169-8.499 22.024-29.591 2.167zm-.49.658 6.794.524-7.425.544zm-.749-.098-.725 1.227-.986.073.857-1.43zm12.133-21.775 5.405-.349-17.124 21.487-.883-.134zm-.865.095-12.477 20.796-25.501-3.877 14.278-14.055zm-13.444-7.231 17.467 2.286-3.539 4.189-23.375 2.824zm30.365-12.979L121.42 52.296l-17.205-2.252 15.105-10.823zm-2.332-7.135 9.451 1.066-6.436 5.299-14.006 1.511zm21.716-9.033-11.52 9.486-9.084-1.024 16.121-8.016zm-4.681-.229-11.22 1.115 18.682-8.144 4.481 1.09zm13.013-5.697 1.994.204-9.331 4.929-3.731.371zm3.097-.379-1.416-.145 3.985-1.212zm16.523-5.6 10.371-.536-17.505 7.096-8.145-.833 4.822-2.547zm-4.916.254 2.051-.106-4.363 1.326zm15.128-4.083L181.005 8.9l-1.778.092L191.044 5.7zm64.867-.448-.128.029-9.982-1.217 8.614.773zm16.25 3.789-13.397-3.717.28-.063 15.959 4.049zm-1.864.603 1.708.082 1.889 1.004zm12.092 5.596-7.717.792-17.453-7.019 10.216.493 9.625 2.905zm1.238-.127-3.143-1.669 4.924 1.486zm4.54.094 4.225-1.047 18.558 8.108-10.625-1.05zm5.768 5.379-9.211-4.891 2.376-.243 11.271 5.573zm12.544 10.325-11.553-9.532 5.202.514 15.967 7.895zm7.039 5.808-6.299-5.197 9.986-1.167 11.16 7.958zM326.9 52.287l-12.411-14.74 15.315 1.645 14.984 10.686zm3.971 4.716-3.441-4.087 18.151-2.444 9.529 9.359zm.482.754 24.563 2.866 14.256 14.001-26.297 4.037zm11.645 21.723.692 1.162-8.075-.58zm-42.305-1.925-8.395-21.893 3.449-.237 29.494 1.902 17.262 21.496-11.507.908zm1.528 4.446-.635-1.232-.676-2.503 25.472 1.829zm5.501 21.49-4.813-17.821 6.871 17.986zm5.674 9.633-3.944.156-1.582-9.081 2.184.176zm50.211 23.124-44.037-3.864-5.231-18.624 41.985-3.786zm11.499 6.087-9.666.988-.951-6.267 8.957 1.452zm.711-.101-1.559-3.594 10.681 1.731zm-6.788 24.744-3.485-22.97 9.816-1.004 7.802 26.52zm-38.112 17.501-4.01-20.977 41.484 4.086.529 12.482zm1.129 10.002-1.027-9.316 37.93-4.402.756 17.824zm3.098 28.133-3.021-27.428 37.579 4.097-1.194 18.981zm32.584 8.067-32.419-3.861-.114-3.513 33.269-4.338zm-25.791 29.213-5.582-.72-1.024-31.653 32.319 3.848-4.202 25.438zm20.563 2.655-17.987-2.322 18.816-2.701zm-8.424 31.086-19.109-2.679 1.436-29.565 5.543-.795 20.402 2.633zm.458.817.048-.007zm-19.889 3.137.288-5.936 18.914 2.652-.107.273zm7.923 25.622-11.186-1.683 3.206-23.229 18.86-2.974zm.401.792 13.146 3.638-16.492 2.794zm-13.043 8.075 1.361-9.864 10.972 1.65-3.495 6.716zm-1.666 18.69-2.662-.427 4.202-17.538 8.563-1.45zm-5.731 12.381.976-4.074 5.093-7.521 22.097 6.541zm-.125-2.448-.613 2.556-1.182.094zm3.032-9.684 2.425.388-3.897 5.755zm-43.559 15.425 8.65-21.011 34.223 5.476-1.888 7.88-3.138 4.635zm29.499 9.308-31.163-5.267 1.361-3.306 37.651-3.018zm-41.215 17.837-2.002-.354 11.755-22.097 30.951 5.231-13.18 14.91zm22.037 3.898-19.37-3.426 24.193-2.031zm-24.772 17.363-12.537-2.332 12.447-17.996 2.787-.234 21.419 3.788-19.183 16.34zm3.631.676-1.087-.203 1.477-.13zm-22.65 13.784-.656-.128 3.73-12.231 15.919-1.401 2.8.521zm-1.05 1.161 1.12-.427 4.158 1.471-5.752.512zm-17.981 6.854 11.93-4.547 4.526-.012-.485.937zm14.384-.551-.49.949-10.433.381zm-27.097 1.376-9.996-.315-.464-.923zm-8.577-5.285 11.887 4.483-15.259-3.397-.54-1.075zm-7.333-2.764 2.007.756.376 1.285-6.443-.555zm-18.669-14.476 16.125 1.341.686.715 3.345 11.405-1.422.279-21.955-13.129zm-2.585-.214-1.498.283-.536-.452zm-.551-21.043 2.514.201 12.707 18.062-12.115 2.296-5.503-.458-19.146-16.174zm-2.684-.214-19.514 3.557-4.923-5.505zm-7.452-22.848 11.866 22.044-1.759.32-27.761-2.212-13.242-14.811zm-1.735-4.07 1.433 3.418-31.11 5.377-7.991-11.659zm-47.06-15.343 7.381 10.771.198.824-29.116-5.101zm.308-18.751 4.143 17.291-4.119.672-10.335-19.669zm-14.083-8.887 12.579-1.945 1.379 10.109-10.59-1.753zm-.708.142 3.218 6.127-15.768-2.61zm10.059-25.758 3.135 22.984-12.796 1.979-11.013-28.141zm-20.995-3.999 20.626-2.946.311 6.235-20.908-3.213zm12.754-33.856 6.371.89 1.465 29.323-20.82 2.974-8.381-30.349zm-2.568-.359-18.951 2.518-.891-5.29zm9.917-32.859-.93 31.666-6.413.852-22.537-3.149-4.249-25.228zm.119-4.032-.098 3.331-34.23 4.153-.771-11.931zm3.047-28.296-2.998 27.603-35.194-4.459-1.212-18.762zm1.07-9.845-.993 9.14-39.486 4.392.734-18.037zm4.073-21.827-3.973 21.142-39.817-4.513.499-12.269zm2.845-15.137-2.712 14.429-43.349 4.366 3.488-23.035zm.152-.68-42.621-4.244.948-6.264 45.717-4.169zm9.224-15.149-1.474 15.501-7.043-.306 4.075-14.79zm58.366-16.463-1.259 13.384-56.304 2.331 3.145-17.811zm4.021-31.643-.535 4.199.396-4.204zm.597-7.828.736-.001-1.232 7.14-.175-.006zm-.699.013-.668 7.097L148.1 82.15l1.974-3.889zm-36.151-20.674 38.732 1.147-2.503 18.832-47.163 1.574zm-.753-.042-10.969 21.621-1.529.052 8.467-21.942zm-32.958-2.9 17.469-16.103 21.533-1.256-10.362 18.886-2.965.192zm-.672.65 21.067 1.41-23.396 1.513zm-.811-.093-2.452 3.076-5.402.349 3.389-4.01zm8.607-16.057 9.251-.54-17.321 15.967-4.47-.585zm14.16-5.063-4.105 3.782-9.185.536 6.214-5.116zm5.462-11.121 12.492-.662-17.246 11.166-7.039-.794zm13.659-1.418-12.236.648 8.917-4.709 8.285.846zm14.853-3.334-7.3-.388 15.746-6.382zm9.866-10.582 4.946.474-4.327 1.743-9.527.492zm6.347-.09-3.174-.304 5.637-.689zm50.595.004-.613-.108-2.324-.944 6.112.746zm7.736-.216.162-.037 11.688 3.244-1.454-.07zm-6.3.776 4.901-.473 8.933 2.696-9.439-.456zm14.275 10.087-8.881-7.17 16.779 6.748zm15.561 3.339-5.063-3.256 7.847-.805 8.799 4.672zm18.476 11.881-17.301-11.125 11.822.623 11.828 9.76zm4.861 4.412-4.152-3.798 6.38-.745 6.076 5.013zm18.19 16.641-17.382-15.901 8.362.472 12.586 14.948zm-.27.724 2.404 2.993-23.695-1.528zm-30.436.876L281.56 35.644l22.485 1.27 17.53 16.038-25.832 1.778zm8.125 23.046-11.15-21.619 2.787-.192zm1.275 4.524-49.258 1.699-1.272-7.121 48.802 1.576 1.451 2.818zm-46.877 19.528-2.277-17.14 49.34-1.702 5.595 20.721zm1.833 13.813-1.741-13.117 52.729 1.882 1.595 9.155zm55.793 16.35-54.384-2.198-1.331-13.462 52.625-2.082zm11.166 15.887-8.849.401-1.514-15.542 6.265.55zm.709-.048-4.066-14.478 44.003 3.861.976 6.434zm.155.679 40.862-4.178 3.461 22.809-41.544-4.093zm-8.381 13.438-1.265-12.978 8.95-.406 2.756 14.413zm.656 23.557-.619-22.858 10.539 1.038 4.036 21.104zm.203 7.532-.185-6.839 14.044-.721 1.012 9.181zm-1.187 30.992 1.181-30.297 14.954 1.631 3.037 27.569zm.193.683 19.029-1.088.108 3.367zm-3.502 31.569 3.232-30.903 19.43 2.314 1.023 31.646zm23.74 4.736-24.778 1.575.945-5.623 23.801 3.072zm.69-.074-.026-.812 2.993.386zm-29.617 26.315 4.03-23.964 24.889-1.582-1.427 29.401zm-3.051 12.764 2.912-12.081 27.597 3.869-.297 6.117zm-4.094 16.987 3.923-16.28 30.312-2.102-3.182 23.052zm-5.714 18.064 5.531-17.392 31.142 4.683-1.389 10.064zm-.226.712 35.368-2.651-4.158 17.352-34.147-5.465zm-34.43 32.716 2.113-24.905 28.425 2.015-8.708 21.147zm20.231 2.141-19.381-1.492 20.678-1.657zm-12.073 22.74-11.278-.89 2.973-22.722 20.046 1.542zm-11.612 1.663.244-1.864 10.937.863-.045.066zm-1.685 17.605-1.706-.141 3.281-16.759 10.735-.901zm-2.441 3.611 2.726-2.874 10.438 1.941-13.209 1.163zm-11.158 11.767 10.203-10.76-3.669 12.033zm-6.866 5.022 5.682-.015-12.251 4.669zm-18.068.048 6.597 4.599-12.158-4.585zm-6.965-5.014-5.712 1.12-2.987-10.186zm-13.12-14.677 2.373-.204.648 3.346zm-.874.092 2.842 2.962-12.844-1.067zm-.113-17.637 3.227 16.656-2.825.243-12.57-17.869zm-12.686-1.707 12.32-.998.257 2.001zm9.31-24.374 2.921 22.688-12.669 1.024-11.85-22.015zm-1.5-.577-20.432 1.605-1.367-3.262zm-30.902-23.371 30.193-2.259 2.077 25.04-23.468-1.785zm-3.995-9.957 3.036 9.37-32.638 5.327-4.099-17.104zm-5.823-17.971 5.593 17.259-33.612-2.4-1.405-10.308zm-4.169-17.064 3.982 16.393-29.331 4.536-3.11-22.808zm-3.079-12.674 2.907 11.968-28.358-1.873-.321-6.414zm-4.323-24.774 4.182 24.092-25.666 3.666-1.457-29.16zm-23.641-2.169-3.793-.53 3.823-.507zm22.565-4.03.954 5.498-22.829-1.395.035-1.203zm-3.328-31.592 3.234 30.904-21.725 2.886.93-31.659zm-17.447-1.755 17.392.964.004.1-17.49 2.122zm16.136-29.89 1.227 30.159-17.315-.961 3.014-27.744zm-12.019-8.255 12.188.594-.176 6.965-12.991 1.445zm12.778-22.831-.573 22.732-12.101-.59 3.997-21.267zm57.899-11.365-.512 7.977-56.647 2.641 1.241-13.05zm3.148-21.086-.656 20.407-1.742.002 1.919-20.389zm.817-13.754-.786 13.059-.444.019zm1.784-14.154 56.127-.056.795 13.201-57.954.053.582-9.662zm2.262-17.753 52.243-.055 1.567 17.061-55.984.055zm51.522-7.898.657 7.151-52.072.054 1.233-7.15zm-46.829-19.38 43.494-.055 3.257 18.744-49.984.054zm-.702-.011-3.236 18.755h-.775l2.499-18.8zm-1.08-3.291h1.818l-.603 2.602-1.555-.046zm-39.275 1.178 38.573-1.166-.335 2.524-38.389-1.137zm-.857.026-.111.163-1.642-.111zm6.378-19.469 7.081-.191-12.974 18.952-4.475.136zm-17.613-3.066 18.261 1.085-1.033 1.303-21.16 1.235zm29.032-12.515-10.246 12.937-17.839-1.06 17.476-11.315zm12.292-2.32-1.291 1.332-9.235.23 2.482-1.99zm2.416-8.812 11.02-.245-12.754 8.4-7.914-.421zm8.788-3.561 1.864-.751 7.532-.92zm34.741-1.658 7.02.856 1.69.686zm20.065 13.317-12.846-8.331 10.498.233 9.553 7.713zm10.436 2.224-8.401-.194-1.345-1.373 7.32-.391zm11.998 13.747-10.244-12.992 11.387.601L298.304 31.9zm1.506 1.91-.983-1.247 19.109-1.142 3.977 3.638zm6.673 19.433-13.097-18.918 6.04.162 10.259 18.845zm.606.876-.118-.17 1.843.051zm-38.219 18.646-2.192-16.745 40.029-1.19 11.093 21.55-48.565-1.568zm-2.889-16.724.272 2.074-.371-2.072zm-1.57-3.232.619 2.555-43.2.056.604-2.611zm-37.59-18.933h33l4.422 18.241h-41.648zm-3.287-.079 2.577.068-4.23 18.252h-1.863zm-4.891-.13 4.189.111-3.521 18.347-38.199 1.155 12.973-18.95zm-23.676-.626 10.719.284-11.118.3zm-.811-.041-.443.648-7.041.19.97-1.225zm32.937-14.793-4.063 14.65-4.387.119-23.059-.61 13.284-13.706zm-16.313-1.52 16.731.395-.188.427-17.768.442zm20.996-9.29-3.963 9-16.06-.379 12.846-8.461zm-4.794-1.409 5.7.119-.528.59-6.468.144zm-9.058-.447 7.883.392-1.423.937-10.301.228zm17.948-3.002-9.033 2.751-5.899-.292 15.142-2.693zm23.534 2.751-9.526-2.88-.143-.166 15.56 2.754zm1.049.642 7.52-.373 3.796 1.541-9.852-.219zm-6.864.765-.502-.58 6.177-.129 1.333.864zm4.244 9.711-3.875-9.011 7.744.172 12.946 8.396zm.473 1.1-.179-.416 17.503-.461 1.279 1.305zm32.683 14.805-22.77.643-5.732-.155-3.955-14.596 19.07.44zm1.439.632 5.554-.332.921 1.168-6.008-.161zm-11.658.348 10.843-.305.422.608zm-14.621 18.832-3.452-18.322 5.523-.156 24.303.655 13.097 18.917zm-4.153-18.302 3.447 18.294h-.49l-4.425-18.252zM209.14 19.311h3.356l-4.769 14.651-2.651.004zm3.688-1.019-.106.327h-3.315l.178-.403zm1.034-9.791h3.825l-4.598 9.105-3.203-.076zm4.425-1.188-.251.497h-3.627l.508-.568zm.184-4.046.038-.042.242-.043zm12.404 4.543-.261-.497 2.898-.061.482.558zm5.148 9.796-4.784-9.105h3.285l3.889 9.042zm2.853 1.013h-2.471l-.111-.328 2.413-.064zm2.66 15.294-4.899-14.602h2.499l3.956 14.6zm-5.632-14.602 4.9 14.603-32.349.047 4.769-14.65zm-22.352-1.008h22.014l.106.316h-22.223zm16.904-9.802 4.787 9.11h-21.378l4.6-9.11zm-11.397-1.176h10.778l.255.485h-11.278zm5.75-4.649 4.344 3.957h-9.426l4.259-3.957zm7.241 1.828 6.453 1.951-4.679.098zm.874 2.068-2.746.058-4.341-3.954h.17l4.802 1.452zm-18.312-.028-4.233-.089 5.927-1.805zm2.97-2.283 5.206-1.585h.178L218.71 6.63l-3.186-.067zm29.481 52.21-.617-2.546h.435l.333 2.542zm40.527-1.204-39.679 1.179-.329-2.51 39.851 1.105zm-8.806-22.201-5.53.331-13.333-13.614 8.544.197zm-98.973-13.031 9.393-.235-13.23 13.651-6.484-.385zm71.381 63.722-.063-.683.122.683zm1.632 17.764-1.569-17.072h.106l2.271 17.101zm.845 13.882-.795-13.187.851.03 1.746 13.155zm.844 14.013-.802-13.322 1.843-.001 1.326 13.419zm4.444 21.103-3.756.003-.657-20.411 2.405.097zm1.293 8.735-.541-8.059 53.942-2.447 1.256 12.899zm1.933 28.772-1.886-28.077 54.658 2.393.62 22.944zm53.593 4.704-53.502-2.609-.054-1.404 53.374-2.738zm-6.256 31.374-46.014-2.453-1.205-30.844 53.472 2.616-1.184 30.392zm1.765 31.859-47.264-2.757-.3-25.787 45.802-2.62 4.994.266zm-47.122 9.348-.133-11.41 47.158 2.75-.964 5.732zm41.932 21.622-42.236-2.663.303-18.264 45.944-2.92zm-42.539 15.621.292-17.591 42.104 2.656-2.94 12.199zm35.393 14.121-35.948-2.407.535-11.017 39.306-2.726zm-37.061 20.545 1.08-22.26 35.784 2.397-5.568 17.517zm-14.656 4.423.394-3.679 13.52-.021-.395 4.659zm4.997 26.646-8.515-.655 3.434-25.301 13.544.96-2.118 24.986zm-12.589 22.646 3.85-21.938 8.71-.014 6.233.479-2.974 22.721zm15.472 3.892-16.337.03.729-3.237 15.865 1.252zm-19.934 15.995 3.441-15.273 16.378-.03-3.266 16.678zm17.114 2.118 1.258.105-1.61 1.697zm-1.242 2.74-.568.598-16.956.018 1.475-4.793 16.596 1.379zm-11.339 11.954-9.429-.791 3.031-9.855 16.512-.017zm-11.717 4.485 2.045-4.599 8.835.739-5.428 3.846zm-.307.693 4.779-.013-6.968 4.936zm-6.115.016 2.252 4.906-7.02-4.894zm-2.435-5.307 2.118 4.616-5.439.014-5.512-3.842zm-19.711-10.497 16.355-.018 3.108 9.839-9.429.842-9.947-10.367zm14.635-5.463 1.502 4.754-16.314.017-.667-3.442zm-3.797-15.96 3.616 15.278-15.431 1.325-3.211-16.575zm-.928-3.924.764 3.232-14.977.028-.269-2.089zm-12.399-22.604 8.241-.013 4.016 21.932-14.429 1.167-2.92-22.686zm-7.736-31.019 11.659-.018.408 3.666-11.692.874zm-1.827-23.13 1.086 22.411-33.192-2.371-5.632-17.385zm-.56-11.561.526 10.868-37.902 2.667-3.95-16.263zm-.342-18.441.32 17.745-41.476-2.738-2.936-12.086zm-.339-18.802.326 18.108-44.224 2.93-4.162-23.975zm.115-12.263-.117 11.568-48.179-2.944-.974-5.607zm-46.43-28.916 46.697 2.59-.26 25.631-49.376 3.023-3.232-30.897zm48.016-34.166-1.114 30.835-46.902 2.637-6.25-.347-1.231-30.254zm.072-2-.047 1.305-55.526 2.873.173-6.878zm4.602-28.979-.258 28.301-3.616.002 1.81-28.207zm63.289 28.252-.308-28.309 4.111.18 1.89 28.124zm.02 1.748-.012-1.056 5.722-.005.053 1.343zm-.44 31.422.438-30.729 5.792.284 1.204 30.842zm7.635 5.529-7.815.011.164-4.847 7.477.399zm.692-.021-.171-4.379 39.71 2.117zm-9.384 25.915.853-25.191 7.857-.011.299 25.727zm9.151 12.694-9.857.014.675-12.016 9.048.528zm-10.88 18.224.984-17.518 9.894-.014-.301 18.199zm10.273 19.022-11.764.017 1.445-18.347 10.611.669zm-12.617 10.832.798-10.123 11.796-.017-.531 10.948zm-52.942-10.044.834 10.102-10.108.711-.523-10.799zm-1.573-19.061 1.516 18.369-9.764.014-.321-17.815zm-8.907-18.169 7.812-.012 1.046 17.49-8.533.565zm7.051-12.749.72 12.045-7.774.012.119-11.632zm-6.669-25.842 5.695-.008.941 25.158-6.896.422zm-.676-.71-40.499-2.247 40.663-2.285zm6.163-4.87.182 4.88-5.653.008.166-4.59zm-.458-31.421.44 30.728-5.262.296 1.114-30.832zm62.45 30.654-61.319.056-.439-30.729 62.195-.056zm-61.117 5.646-.183-4.899 61.283-.055-.165 4.866zm60.059 25.774-59.093.056-.94-25.138 60.885-.088zm-58.338 12.813-.721-12.065 59.027-.056-.676 12.037zm56.608 18.104-55.522.056-1.044-17.468 57.549-.084zm-53.954 19.138-1.518-18.391 55.424-.055-1.446 18.369zm51.609 10.714-50.72.056-.832-10.079 52.348-.076zm5.56-124.65.011 1.04-62.198.056.01-1.048zM193.2 159.779l61.598-.056.308 28.325-62.164.048zm-4.602 29.012 3.646-.003-.01 1.065-3.681.191zm.557 148.571-1.09-22.487 10.142-.714 2.576 23.182zm12.324-.02-2.579-23.205 50.589-.055-2.486 23.189zm45.058 4.277-44.576.055-.404-3.639 45.372-.07zm-3.52 25.988-37.368.111-3.598-25.352 44.401-.055zm-4.23.704 4.12-.012zm.154 22.594-29.05.056-4.01-21.902 36.903-.061zm-28.13 4.003-.771-3.256 28.758-.054-.734 3.26zm23.665 15.881-19.894.055-3.608-15.244 26.934-.05zm-18.185 5.525-1.51-4.779 19.502-.053-1.482 4.815zm13.275 10.493h-9.961l-3.096-9.801 16.079-.017zm-2.637 6.007-2.263 5.09-2.33-5.078zm-4.91-.679-2.128-4.636h9.4l-2.054 4.622zM247.7 337.27l2.483-23.166 12.094.81-1.083 22.335zm11.315-186.059.538 8.012-4.078-.178-.252-7.831zm-4.484.004.251 7.816-61.567.056.251-7.822zm-60.353-21.757.801-13.31 58.038-.053.802 13.309zm-.033.692 59.706-.054.657 20.427-61.02.05zm-3.147 21.117 1.776-.002-.252 7.837-2.033.095zm-57.899 11.298 56.649-2.64-1.808 28.158-55.417-2.7zM155.5 335.676l33.004 2.357.382 4.595-30.396 2.275zm36.22 32.712-2.086-25.12 11.719-.877 3.598 25.357-8.042.631zm98.347-23.708-28.624-2.029.402-4.732 31.112-2.332zm23.517-196.622-53.933 2.446-2.004-20.268 54.414 2.199zM279.595 19.869l-10.828-.571-2.53-2.043 8.579-.459zm-105.461-3.017 7.966.424-2.59 2.077-10.061.533zm-38.2 115.696 56.338-2.333-1.914 20.346-55.906-2.432zm-9.385 15.931 7.142.311-1.249 13.129-8.581.864zm.398 212.299-6.194-9.038 3.877-.633zm1.095 1.597-2.727-11.38 32.716-5.34 8.745 20.861-37.87-2.88zm74.473 67.646-.496-.188.417-.081zm3.748 2.156-2.391.006-.3-1.021zm-2.935-1.85-.209-.709 6.13-1.202 5.362 3.739-6.393.016zm42.817 1.744-3.012.009 3.406-1.299zm.649-2.127-5.616 2.141-6.529.017 5.279-3.74 6.936 1.351zm72.035-297.625-6.154-.54-3.103-17.811 4.059-.16zm11.661-74.654 12.006 20.042-16.318-20.32zm-4.9-1.011-2.53-3.15 3.555-.479 3.29 3.908zm-184.694 47.667 54.224-2.048-.207 3.45-1.239 9.722-54.373-2.094zm-4.849 9.598 2.432.093-3.158 17.88-4.334.396zm68.957 322.151-13.077-1.547 2.641-2.124 9.673 2.154zm.112-1.322 12.807 2.851-12.093-1.431zm40.698-.437 8.905-2.024 2.689 2.127-12.428 1.512zm-1.669 1.717-12.663 1.54 13.446-3.056zm141.547-257.904-16.082 1.866-.522-12.299 14.293 2.575zm.689-.117-2.237-7.604 19.681 3.546zm-13.263-40.254-8.768-1.422-7.323-26.421 3.862-.348zm-16.982-28.46-42.015 3.789-3.302-8.645 44.976 3.628zM193.595 4.989l8.102-.74-8.934 1.091-.247-.05zM92.313 108.232l46.541-3.757-3.298 8.718-43.563-3.804zm-3.747 1.554 2.536.222-7.345 26.604-7.23 1.186zM63.657 316.843l-6.503-12.46 3.711-.971zm-2.118-13.607 31.078-8.13 1.509.232 11.12 28.416-13.881 3.89-24.157-3.998-2.371-4.542zm29.907 57.27 5.555-1.675 30.799 5.396 4.876 13.272-19.582 6.241zm56.388 49.218-8.979-5.28 5.163-1.742zm-3.15-7.247 11.862-4.001 18.813 15.892-22.857-1.899-3.508-2.063zm161.179.206 4.343 1.43-7.589 4.528zm-4.414 6.655-4.944 2.95-22.953 2.021 18.852-16.058 12.79 4.212zm34.349-25.988-18.525-5.791 5.053-13.671 29.847-5.355 5.164 1.528zm53.08-80.115 2.525.648-4.433 8.603zm-3.09 11.546-4.423 8.583-23.636 4.004-14.475-4.006 10.988-28.162 2.035-.321 31.927 8.184zM365.521 108.76l23.744-4.233 4.426 8.315zm28.54 4.834 8.168 23.246-15.372 3.14-12.927-2.096-12.331-28.426 1.76-.313zM161.863 11.658l1.341-.584 1.539-.146zm7.389-1.158 5.149-.489-4.004 2.115-8.97 2.728-4.426-1.076.934-.407zM54.586 113.119l4.51-8.455 24.093 4.207zm30.768-3.87 2.502.437-12.14 28.245-13.663 2.243-15.943-3.194 8.105-23.106zm-48.248 205.45 28.063 9.281 3.833 10.729-17.558 9.924-17.383-28.352zm-4.385-1.45 3.464 1.146-2.441 1.268zm20.811 33.932 22.812 8.003 5.549 10.199-8.596 5.256zm56.154 38.715-9.775 6.427-7.639-9.637zm-18.034-4.027-8.836-16.24 7.934-4.851 21.707 23.296-1.935 1.272zm57.481 30.245-16.913-3.238 5.822-4.107 10.434 6.136zm11.129 13.804-1.139-.314.543-.413zm-.042-1.148 5.193-3.945 25.853 10.293-17.657-1.52-12.186-3.36zm48.795 19.386-6.724-1.346 1.831-.303 4.397.384 1.238.991zm30.942-.249 1.368-1.072 4.07-.371 1.807.294-6.711 1.342zm48.836-18.209-13.474 3.797-17.424 1.55 25.87-10.389 5.707 4.215zm1.303-.367-.134.038.07-.085zm67.475-43.145-7.929 10.022-10.211-6.596zm-18.987 2.88-2.147-1.388 21.595-23.35 8.759 5.234-8.598 15.8zm37.122-14.986-7.988-4.772 5.783-10.628 21.587-7.719zm39.07-54.357-17.331 28.354-16.796-9.327 4.028-11.274 27.265-9.201zm.315-.618-2.232-1.14 3.157-1.065zM23.743 292.06l-2.943-6.943 1.067-.511zm-1.237-7.76 6.978-3.341 20.728 6.388 6.006 16.642-19.174 9.96-4.682-1.549-6.858-16.183zm35.925 84.205-11.185-10.674 1.527-4.375zm13.231 6.791-1.611 5.639-8.553-9.368zm-11.147-4.829-11.451-17.842 2.181-6.246.999.35 20.596 24.443-.987 3.455zm158.681 74.583-7.709-.67-.339-.272 3.297-1.217 6.483-.012zm9.352-2.184 6.464-.011 3.533 1.277-.227.178-7.954.739zm159.459-71.851-8.772 9.657-1.749-5.736zm12.444-17.711 1.474 3.972-10.769 10.539zm-11.457 16.603-11.71 4.365-1.117-3.665 20.209-24.107 1.367-.488 2.406 6.481zm38.482-85.613.448.21-1.243 2.965zm-2.57 7.409-8.533 20.343-4.378 1.478-19.655-10.039 5.843-16.245 21.328-6.673 7.325 3.427zM128.167 421.466l-.053-.021-.333-.311zm-.35-1.214-1.286-1.109 1.123-6.781 30.331 13.604-.165 1.665-20.794-4.082zm318.83-191.826-6.564-10.574-1.123-18.193 5.628-4.068zm.778 1.332-2.184-34.838-.346.022.338-.077-7.73-34.277-.338.077.321-.13-13.161-32.819-.321.13.297-.179-18.203-30.469-.297.178.271-.216-4.932-6.219-.151.124.151-.124-21.671-25.927-.272.214.227-.261-25.651-22.181-.227.262.182-.295-29.014-17.923-.182.295.131-.321-31.755-13.049-.131.322.079-.338-33.669-7.844-.033.174.033-.174-3.609-.675-.047.343.047-.343-6.577-.619-.015.25.015-.25-24.579-1.121-.032.346-.015-.346-24.764 1.121.019.254-.019-.254-6.524.619.05.343-.05-.343-3.553.731.028.11-.028-.11-33.72 7.842.079.339-.132-.32-31.813 13.107.132.319-.182-.295-29.069 17.922.182.296-.227-.262-25.708 22.292.228.261-.267-.222-21.681 25.995.273.215-.273-.215-4.664 6.24.288.192-.288-.192-18.212 30.538.297.177-.321-.128-13.107 32.877.321.128-.338-.075-7.728 34.389.338.075-.346-.021-2.128 34.895.346.02-.344.034 3.416 34.556.344-.034-.335.089 8.851 33.324.334-.088-.316.141 14.002 31.253.315-.141-.289.192 18.763 28.452.29-.192-.254.235 23.026 24.931.247-.242-.247.242 10.947 10.546-.613-.231 26.836 20.577.141-.163-.089.197 29.721 15.316-.521-.488 16.215 6.252.11-.328-.11.328 23.719 6.786.082-.337-.082.337 17.339 3.422.049-.343-.049.343 18.642 1.672-.719.186 27.399-.071-.767-.185 18.498-1.713-.051-.343.051.343 17.284-3.535-.083-.337.083.337 23.832-6.842-.112-.328.112.328 16.022-6.306-.465.446 29.689-15.387-.088-.194.139.16 26.865-20.66-.689.264 10.662-10.611-.25-.241.25.241 22.968-24.929-.255-.235.289.19 18.707-28.452-.289-.19.315.141 13.945-31.308-.316-.141.335.089 8.794-33.27-.335-.089.347.034 3.304-34.556-.346-.034z" style="fill:#c6c6c6;fill-rule:nonzero"/><path d="M222.643 2.343c.53 1.713 3.117 1.885 3.564-.344-.106-2.955-4.056-2.459-3.564.344M209.364 17.207c-.078-.021-.154-.005-.232-.016-.082-.012-.162-.047-.244-.047-.043-.014-.151.018-.151.018-1.632.126-2.141 2.069-1.166 3.072 2.208 2.253 4.703-2.214 1.793-3.027M250.693 101.996c-.015.068.051.195.067.265.422 1.812 3.151 1.972 3.512-.098.014-.079.073-.199.052-.275l-.004-.169c.016-.07-.051-.195-.068-.266-.421-1.809-3.148-1.977-3.511.098-.014.079-.073.199-.053.274zM251.893 75.819c-.691-2.692-4.153-.844-3.546.643-.013.077.048.163.068.24.598 2.352 4.061 1.389 3.478-.883M245.618 52.691c-.518.909-.127 1.969.612 2.425-1.601.529-1.681 2.763-.119 3.397 1.671.674 3.015-1.367 2.393-2.251-.282-.843-.383-.585-.735-.97.703-.241 1.12-.812 1.202-1.498.008-.06.05-.135.034-.191.017-.052-.015-.09-.019-.144-.115-1.816-2.492-2.314-3.368-.768M242.223 33.012c.049-.128-1.103-.17-1.236-.138-1.586.39-1.892 2.557-.446 3.358 1.363.759 1.941-.428 2.457-.263 2.925.934 3.152-4.065.209-3.507-.323.099-.622.165-.984.55M232.98 8.419c.425 2.913 4.889 1.263 3.278-1.233-1.037-1.617-3.567-.743-3.278 1.233M237.962 17.89c-1.095 1.465.527 3.156 1.417 2.895.057.017.205-.036.265-.044 1.561-.21 2.027-2.1 1.032-3.075-.683-.67-2.004-.732-2.714.224M227.938 2.584c.376 2.671 4.084 1.424 3.594-.233.018-.06-.039-.215-.049-.277-.386-2.627-4.096-1.461-3.593.237-.018.059.039.213.048.273M217.141 1.701c-.485 1.315.654 2.729 2.126 2.37 1.494-.364 1.962-2.382.513-3.27-.933-.574-2.224-.214-2.639.9M206.8 1.861c-.499 1.21.527 2.783 2.068 2.441.966-.21 1.727-1.161 1.263-2.532-.718-1.507-2.79-1.219-3.331.091M211.932 7.526c-.685 1.857 1.672 3.202 2.973 1.934 1.742-1.696-.907-4.371-2.603-2.539-.062.037-.37.605-.37.605M239.99 4.377c3.266-.357 1.57-4.071.091-3.641-2.024-.007-2.733 3.085-.091 3.641M257.323 4.325c-.006.085-.001.018-.07-.04-.075-.061.026-.295.069-.381-.058.307-.006.279.001.421m-4.159 4.389c.193 3.088 5.045 1.5 3.217-1.238l.574-.178c.498-.268.775-.699.892-1.18.033-.136.022-.071.093.015.929 1.108 2.803.71 3.168-.721.182-.729-.262-2.335-1.154-2.794-.479-.249-1.238-.225-1.4-.113-1.263.41-1.276 1.946-1.207 1.229l.005-.07c.048-.834-.64-1.82-1.65-1.917l-.07-.006c-1.653-.094-2.622 1.959-1.311 3.152.278.253-.371.663.163 1.662.236.432.231.197-.163.348-.63.332-1.221.791-1.157 1.811M248.651 4.717c.499.092-.523.032-.741 1.272-.166.938.54 1.949 1.478 2.115 2.357.416 2.981-3.179.636-3.593-.079-.014-.222.054-.025-.082 1.294-.891.934-2.957-.695-3.252-2.397-.444-2.99 3.113-.653 3.54M271.901 11.202c2.295.639 3.272-2.88.976-3.516-2.31-.645-3.287 2.873-.976 3.516M266.833 19.709c.059 1.494 1.868 2.334 3.041 1.262.837-.778.78-2.15-.233-2.827-1.281-.861-2.869.089-2.808 1.565M176.601 11.257c2.27-.636 1.292-4.144-.979-3.515-2.381.667-1.288 4.146.979 3.515M178.216 20.835c1.488 1.863 4.341-.423 2.847-2.283-1.49-1.852-4.33.426-2.847 2.283M166.625 37.024c2.185.815 3.564-2.555 1.273-3.409-2.215-.846-3.533 2.551-1.273 3.409M204.206 36.074c1.442.337 1.879-.957 2.018-.661.668 1.444 2.768 1.386 3.341-.134.707-1.875-1.695-3.304-3.024-1.868-.362.385-.173.354-.255.168-.701-1.582-3.036-1.386-3.43.32l-.028.069c-.012.059.007.115.001.174-.098 1.042.683 1.77 1.377 1.932M311.599 23.244c.457 2.237 3.8 1.775 3.578-.525-.243-2.645-4.051-1.823-3.578.525M286.242 12.287c.436-.217.73-.563.869-.881 1.113-2.535-3.09-3.638-3.463-.984-.203 1.407 1.214 2.555 2.594 1.865M315.431 36.759c-.27-1.355-1.989-2.016-3.065-.895-.739.766-.623 1.899.055 2.549 1.276 1.231 3.349.034 3.01-1.654M295.732 21.837c.01-.053.01-.057.067-.202 1.066-2.752-3.903-3.647-3.422-.118.431 1.418 2.281 1.678 3.15.626.123-.148-.014-.087.205-.306M282.723 35.626c.225-1.099-.515-1.946-1.402-2.127-1.08-.22-1.935.469-2.127 1.403-.155.756.085 1.411.769 1.862 1.101.729 2.5.135 2.76-1.138M199.617 52.311c-.689.709-.694 1.977.182 2.675 1.054.84 2.508.29 2.853-.913.747-1.255-1.514-3.324-3.035-1.762M154.609 22.804c2.724-.519 1.185-4.687-1.202-3.373-1.906 1.022-.738 3.754 1.202 3.373M161.301 10.904l.026.086c.009.066-.021.061.014.125-.006.081.044.113.069.187.702 2.124 3.811 1.296 3.498-.828-.01-.069.021-.059-.015-.127.005-.08-.044-.112-.069-.185-.679-2.054-3.731-1.375-3.523.742M133.298 23.122c.146 1.442 1.872 2.152 2.99 1.18 1.365-1.181.354-3.414-1.432-3.152a1.793 1.793 0 0 0-1.558 1.972M191.507 4.376s-.003-.003-.103.108c.071-.655-.031-.377.103-.108m-3.739 1.29c.252.652.812 1.121 1.62 1.146 1.396.044 1.504-1.06 1.604-.674.133.52.55.978.892 1.161.217.116.324-.017.119.276-1.227 1.761 1.073 3.69 2.612 2.452 1.077-.865.836-2.628-.495-3.124.974-1.438-.077-1.072.638-2.561.715-1.481-.767-3-2.228-2.469-.718.258-1.143.831-1.185 1.594-.056 1.001.048-1.132-1.865-.996-1.657.314-1.525 1.323-1.676 1.81-.225.493-.281.754-.036 1.385M133.103 36.241c-.878 1.347.299 2.924 1.68 2.794.976.182 2.422-1.708 1.128-3.058-.685-.713-2.092-.83-2.808.264M111.215 40.902c1.273-1.956-1.654-3.618-2.56-2.49-2.404 1.657.97 4.915 2.56 2.49M155.88 56.629c2.21.814 3.443-2.39 1.394-3.342-2.301-1.087-3.645 2.499-1.394 3.342M116.588 59.007c2.044 1.228 3.925-1.909 1.877-3.129-1.968-1.183-3.988 1.865-1.877 3.129M147.128 79.759c2.495.674 2.964-3.254 1.093-3.472-2.167-.778-3.638 2.495-1.093 3.472M196.08 76.349c.252 1.65 1.675 2.158 2.749 1.506 1.16-.702 1.144-2.233.146-2.977-1.185-.894-2.828-.093-2.895 1.471M301.552 76.471c-1.411-1.102-3.353.274-2.838 1.941.388 1.257 2.003 1.562 2.389 1.177 1.186-.454 1.666-2.175.449-3.118M328.897 57.392c.096 2.919 4.668 1.789 3.421-.83-.796-1.695-3.49-1.162-3.421.83M291.654 13.499c.14.109.089.396.136.584.262 1.062 1.523 1.72 2.586 1.193 1.278-.631 1.303-2.37.207-3.125a1.82 1.82 0 0 0-1.393-1.852l-.072-.015c-1.841-.35-2.938 2.059-1.464 3.215M156.94 14.244c.253-.793-.117-.407.345-.972.942-1.154.155-2.692-1.049-2.926-.059-.011-.119-.002-.177-.008-.054-.005-.101-.03-.154-.03-.065-.001-.124.028-.189.035-.071.006-.139-.023-.203.011 0 0-.189.081-.316.091-.058.025-.096.072-.151.102-.064.034-.136.053-.195.094-.044.031-.076.073-.117.107-.039.032-.084.052-.12.088-.047.046-.073.105-.114.156-.043.052-.096.094-.133.151-.032.049-.048.106-.075.159-.021.041-.058.068-.077.112-.107.891-.822 1.39-.818 2.288 0 2.024 2.905 2.557 3.543.542M124.326 27.164c-.073-.212.181-.121.172-.16 1.604-.378 1.907-2.533.494-3.346-1.309-.756-3.212.427-2.621 2.161.066.197-.26.174-.47.264-.553.239-1.049.94-1.04 1.233-.784 3.103 4.518 2.869 3.465-.152M85.593 61.171c.058 1.218 1.407 1.999 2.037 1.717 1.253-.162 1.779-1.574 1.57-2.041-.292-2.263-3.724-1.991-3.607.324M195.184 100.147c-2.164.374-1.926 3.57.341 3.583.075.021.193-.038.272-.052 2.181-.38 1.904-3.58-.343-3.583-.075-.02-.191.038-.27.052M139.247 105.166c1.597 1.832 4.261-.584 2.71-2.362-1.556-1.776-4.315.521-2.71 2.362M252.228 285.708c1.634 0 1.622-1.387 1.812-1.775.05-1.897-2.926-2.914-3.635-.164.011.056.007.064.007.064a1.84 1.84 0 0 0 1.816 1.875M257.234 189.801c-.436-2.347-3.95-1.671-3.519.648.436 2.352 3.953 1.668 3.519-.648M256.894 159.029c-.471-2.349-3.968-1.612-3.512.69.461 2.351 3.979 1.626 3.512-.69M255.939 129.379c-.229-1.069-1.396-1.569-1.782-1.449-1.208-.332-2.729 2.147-.958 3.315 1.376.914 3.068-.328 2.74-1.866M340.494 39.606c-.267-2.372-3.695-1.756-3.574-.173-.552 2.689 3.88 2.983 3.574.173M362.321 62.02c.641-.759.51-1.879-.128-2.486-1.173-1.112-2.995-.201-3.057 1.241-.082 1.818 2.115 2.523 3.185 1.245M326.515 29.427c1.74-.359 2.032-2.903.194-3.492-.445-.144-.531-.039-.459-.271.336-1.069-.314-1.593-.758-2.09-2.11-1.306-3.989 2.033-1.777 3.156.994.511.703-.124.64.797-.078 1.173.942 2.141 2.16 1.9M217.521 8.231c1.366 1.45 3.772-.086 3.01-1.943-.704-1.714-3.401-1.399-3.503.597-.025.513.296 1.231.493 1.346M206.412 6.893c.096 1.275 1.433 2.085 2.63 1.452 2.382-1.248.16-4.427-1.842-3.113-.559.367-.88 1.208-.815 1.459-.019.058.022.139.027.202M197.394 6.453c.294 3.673 5.871.637 2.668-1.744 1.757-.415 1.842-2.885.161-3.481-1.526-.524-2.736 1.19-2.358 2.046.224 1.241 1.4 1.271.636 1.342a1.8 1.8 0 0 0-1.107 1.837M174.176 18.295c2.387-.179 2.133-3.774-.274-3.588-2.376.171-2.141 3.773.274 3.588M241.758 5.3c-2.034-1.489-4.074 1.685-2.062 2.986 1.925 1.251 3.974-1.578 2.062-2.986M275.968 14.98c-1.865-1.348-3.923 1.263-2.305 2.785 1.855 1.757 4.354-1.305 2.305-2.785M287.266 13.342c-2.479.259-1.925 4.036.508 3.591 2.064-.37 2.064-3.574-.508-3.591M315.788 30.113c.04 1.258 1.288 1.979 2.294 1.698 1.094-.306 1.67-1.669 1.072-2.682-.914-1.545-3.432-.964-3.366.984M355.654 44.847c-2.209.736-1.188 4.024 1.006 3.499 2.411-.566 1.359-4.288-1.006-3.499M377.4 65.442c.248 2.056 3.216 2.154 3.575.103.155-.859-.209-1.1-.378-1.488-1.123-1.347-3.417-.46-3.197 1.385M351.752 43.281c.198 1.515 1.959 2.082 3.023 1.077.804-.748.72-1.862.079-2.541-1.175-1.257-3.332-.3-3.102 1.464M357.844 107.511a1.72 1.72 0 0 0-.679-1.193c-1.847-1.447-3.69 1.23-2.663 2.301.95 1.68 3.599.914 3.342-1.108M345.103 79.272c-.393-.039.233-.251-.446-1.199-.628-.891-1.872-.976-2.616-.378-1.167.935-.701 2.772.633 3.163.038.011.426.089.426.089-.092 1.384 1.473 2.465 2.757 1.696 1.414-.842 1.036-3.189-.754-3.371M307.328 102.025c-3.216.21-1.332 5.053 1.172 3.267 1.508-1.083.644-3.393-1.172-3.267M312.556 133.917c1.632-.158 2.331-2.398.768-3.355-1.489-.913-2.928.661-2.758 1.423-.233.66.671 2.06 1.99 1.932M195.116 128.539c-1.801-1.854-4.215.9-2.612 2.532 1.579 1.626 4.38-.7 2.612-2.532M90.233 107.982c.068 2.395 3.726 2.244 3.62-.154-.107-2.434-3.725-2.202-3.62.154M93.805 44.488c1.78 1.62 4.156-1.078 2.412-2.656-1.742-1.585-4.182 1.062-2.412 2.656M67.501 65.469c.025 2.415 3.633 2.314 3.604-.035-.024-2.403-3.632-2.329-3.604.035M91.176 47.949c.536.61 1.598.881 2.455.235 1.247-.937.825-2.791-.6-3.183-1.761-.498-2.977 1.675-1.855 2.948M159.68 15.625c.465 2.015 3.371 1.739 3.572-.226 0 0-.04-.678-.071-.719-.692-2.277-4.03-1.272-3.501.945M132.173 31.8c.615-.303.988-1.112.953-1.242.572-2.574-3.495-3.07-3.565-.442-.042 1.362 1.391 2.289 2.612 1.684M48.632 89.936c-2.514-1.683-4.275 3.235-1.043 3.299 1.917.043 2.474-2.345 1.043-3.299M67.885 87.448c1.651.881 3.409-1.08 2.352-2.625-.025-.037-.04-.082-.067-.116-2.404-1.885-3.997.826-2.854 2.262.047.06.116.098.17.151.055.054.094.124.155.17 0 0 .011-.016.244.158M84.966 138.477c.641-.387.582-.687.826-1.073.366-2.798-3.211-3.025-3.562-.759-.206 1.348 1.332 2.678 2.736 1.832M134.867 133.854c1.136.528 2.363-.272 2.547-1.323.166-.947-.465-1.849-1.367-2.07-2.096-.524-3.209 2.467-1.18 3.393M194.54 158.73c-.831-1.949-4.099-1.211-3.365 1.406.782 1.888 4.136 1.248 3.365-1.406M378.331 84.334c-1.845 1.812 1.403 4.137 2.362 2.731.061-.047.099-.116.154-.17s.124-.093.17-.153c.029-.035.043-.079.068-.117.023-.034.059-.056.08-.092.037-.063.043-.136.071-.202.235-.542.145-.482.149-.671.043-1.579-1.837-2.523-3.054-1.326M400.686 92.97c.075.008.15-.013.226-.015.073-.001.143.02.215.01.042-.007.077-.03.118-.039.045-.009.09-.006.135-.019.073-.021.136-.07.206-.101.069-.03.147-.037.211-.075 0 0 .061-.061.098-.086.035-.024.077-.03.11-.056.052-.043.112-.133.157-.18.053-.054.119-.093.166-.155.029-.039.041-.085.066-.126s.063-.074.086-.116c.044-.083.046-.168.088-.249.018-.052.07-.149.07-.149.011-.041.001-.085.009-.127.009-.049.031-.093.035-.142.008-.075-.012-.149-.014-.225-.001-.073.019-.143.009-.216-.006-.041-.029-.076-.038-.117-.009-.046-.006-.092-.02-.137-.02-.072-.07-.134-.1-.204s-.038-.148-.076-.213l-.085-.096c-.03-.044-.031-.098-.075-.127-.022-.053-.118-.099-.16-.14a1.788 1.788 0 0 0-3.026.961c-.009.049-.03.093-.035.142-.008.076.012.151.014.227.001.072-.019.142-.009.214.005.042.029.077.038.118.009.045.006.091.019.136.021.072.07.135.101.206.03.069.038.147.076.211.035.142.579.609.718.682.053.028.454.18.667.203M382.151 71.651c1.188.631 2.591-.198 2.665-1.505.035-.586-.19-1.159-.956-1.709-2.112-1.121-3.822 2.094-1.709 3.214" style="fill:#c6c6c6;fill-rule:nonzero"/><path d="M236.792 16.449c-2.006-1.303-3.949 1.734-1.951 3.017 2.025 1.309 3.931-1.744 1.951-3.017M256.106 18.928c2.112 1.373 3.897-1.825 1.986-3.062-1.982-1.288-3.987 1.766-1.986 3.062M274.905 33.518c-.171-1.339-1.716-2.033-2.826-1.267a1.817 1.817 0 0 0-.043 2.941 1.79 1.79 0 0 0 2.869-1.674M320.6 53.425c.242 2.363 3.854 2.029 3.608-.367-.241-2.364-3.852-2.026-3.608.367M298.154 33.529c2.452 1.667 4.139-1.647 2.218-2.88-1.858-1.194-3.846 1.388-2.218 2.88M369.104 75.138c.454 3.025 5.079 1.042 3.261-1.374-.634-.845-1.967-.97-2.748-.189-.344.182-.578 1.142-.513 1.563M347.505 49.974c-.208-2.819-4.368-1.788-3.531.711.698 2.094 3.686 1.35 3.531-.711M419.646 119.269c-.219-.959-2.422-1.478-3.2.099-.586 1.185.35 2.801 1.851 2.611 1.253-.158 1.989-1.586 1.349-2.71M394.298 111.48c-2.419.02-2.367 3.629.041 3.605 2.42-.029 2.367-3.637-.041-3.605M365.572 137.659c1.353-1.984-1.644-4.027-2.995-2.042-1.349 1.986 1.645 4.027 2.995 2.042M316.212 191.274c-1.982.084-2.477 2.284-1.144 3.266 2.445 1.804 4.361-2.857 1.144-3.266M313.8 161.003a1.77 1.77 0 0 0 .199 2.278c1.187 1.214 3.164.214 3.116-1.321-.054-1.714-2.306-2.453-3.315-.957M190.832 190.574c.525 2.331 4.013 1.519 3.491-.783-.533-2.353-4.013-1.504-3.491.783M133.112 160.471c-.717-.36-2.149.459-2.175 1.717-.02.964.84 1.933 1.956 1.856 2.028-.137 2.337-3.144.219-3.573M55.762 113.295c-.216-1.441-1.921-1.994-2.957-1.146-1.085.883-.784 2.671.548 3.135 1.2.419 2.612-.588 2.409-1.989M63.964 70.382c.044.689.559 1.336.883 1.427 1.918 1.149 3.839-1.584 2.045-2.97-1.248-.969-3.025.032-2.928 1.543M101.492 50.34c.067 1.87 2.479 2.362 3.371.869.375-.622.364-1.608-.319-2.254-1.151-1.09-3.111-.253-3.052 1.385M76.985 76.405a1.79 1.79 0 0 0 2.34-.005c1.18-1.008.656-3.032-1.024-3.169-1.789-.145-2.635 2.054-1.316 3.174M147.938 32.357c.175 2.784 4.411 1.818 3.511-.73-.679-1.912-3.654-1.428-3.511.73M190.671 18.733c.249.453 1.511.758 2.294.244.838-.551 1.028-1.756.52-2.528-.026-.038-.066-.058-.094-.094l-.14-.183c-.034-.063-.102-.073-.159-.118-1.828-1.479-3.965 1.11-2.421 2.679M230.295 5.205c-.757-.107-1.854.33-2.022 1.525a1.804 1.804 0 0 0 1.774 2.074c2.68-.726 2.043-3.348.248-3.599M212.301 19.446c1.677 1.135 3.583-.847 2.495-2.484-1.602-2.421-4.918.857-2.495 2.484M403.999 97.534c.103 1.24 1.42 2.035 2.576 1.494l.073-.054.089-.031c.036-.022.055-.059.09-.083.034-.023.074-.028.107-.054.675-.561.867-1.64.433-2.366-.022-.035-.058-.055-.081-.089-.024-.034-.029-.075-.055-.108-1.118-1.336-3.388-.493-3.232 1.291M391.2 104.807c1.575 1.715 4.125-.532 2.785-2.311-1.47-1.96-4.496.45-2.785 2.311M428.638 151.539c.052 1.534 1.831 2.286 2.972 1.317 1.121-.951.706-2.769-.72-3.125a1.782 1.782 0 0 0-2.252 1.808M405.366 144.98c3.251-.977-.194-5.54-2.042-2.726-.845 1.297.326 3.244 2.042 2.726M371.482 200.094c1.826-2.299-2.606-4.466-3.204-1.473-.375 1.888 2.061 2.917 3.204 1.473M370.517 167.523c.321-2.288-3.168-2.903-3.589-.572l.001.074-.021.071c-.005.044.013.084.012.128s-.022.083-.02.128c.088 2.183 3.312 2.369 3.617.171M316.676 224.523c-.234-1.935-2.947-2.191-3.498-.276-.794 2.762 3.854 3.158 3.498.276M256.788 221.233c-.238-1.326-1.694-1.854-2.722-1.199-1.34.855-1.001 2.895.56 3.256a1.78 1.78 0 0 0 2.162-2.057M193.432 223.345c1.919-.449 1.803-3.17-.099-3.505-2.862-.504-2.682 4.16.099 3.505M130.236 193.748c.221.888.911 1.355 1.826 1.391 1.96-.256 2.249-2.489.855-3.35-1.565-.967-3.215.816-2.681 1.959M76.289 199.333c.001.072-.03.063-.002.137-.014.076.011.053.021.121.348 2.258 3.628 1.916 3.596-.301-.016-2.307-3.534-2.358-3.63-.053zM79.202 165.795c-2.281.23-2.111 3.693.236 3.618 2.558-.067 2.176-3.858-.236-3.618M44.72 142.319c-1.671-1.718-4.267.822-2.584 2.528 1.689 1.72 4.257-.831 2.584-2.528M31.809 121.674c1.68-1.962-1.506-4.257-2.883-2.164-1.276 1.912 1.44 3.872 2.883 2.164M19.087 153.413c1.944-1.227.219-4.208-1.815-3.137-2.165 1.135-.334 4.489 1.815 3.137M54.792 103.978c.138 2.413 3.74 2.148 3.596-.209-.138-2.415-3.741-2.152-3.596.209M42.221 99.316c2.128.974 3.656-2.192 1.598-3.26-2.274-1.189-3.748 2.279-1.598 3.26M125.397 52.217c-1.403 1.763 1.155 4.093 2.746 2.364 1.69-1.811-1.195-4.309-2.746-2.364M174.371 34.278c.377 1.388 2.178 1.844 3.135.667 1.183-1.439-.475-3.215-1.385-2.955-1.157-.004-2.083 1.057-1.75 2.288M161.288 57.442c1.652-.122 2.129-2.022 1.215-3.014-1.019-1.118-2.933-.57-3.136.982-.145 1.069.66 2.129 1.921 2.032M107.955 79.259c-.037-2.693-4.236-2.129-3.565.48.055.211-.02.055-.207-.058-1.114-.667-2.645.023-2.738 1.443-.198 2.879 4.416 2.317 3.514-.44-.043-.132.006-.015.061.028.897.718 2.217.384 2.725-.547.274-.495.214-.716.21-.906M41.072 136.324c.414-2.099-2.716-3.143-3.503-.982-.889 2.449 2.998 3.483 3.503.982M9.877 161.232c.071.726.622 1.354.983 1.432 1.697.86 3.296-1.073 2.354-2.579-.996-1.598-3.532-.773-3.337 1.147M26.414 128.944c.926-1.982-1.825-3.579-3.106-1.846-1.575 2.154 2.018 4.176 3.106 1.846M9.04 184.92c.137 2.056 2.876 2.292 3.493.458.98-2.895-3.672-3.253-3.493-.458M37.042 177.074c.045.005.085.029.13.031l.208-.03c.065-.004.181.023.237-.006.052-.01.177-.058.269-.07 1.923-.693 1.338-3.442-.524-3.537l-.21.03c-2.199.137-2.247 3.318-.11 3.582M81.566 232.563c.352-.421.538-1.07.294-1.757-.662-1.863-3.362-1.492-3.481.491-.386 1.428 1.972 2.73 3.187 1.266M132.386 226.525c.676.382 1.392.324 1.998-.163 1.657-1.327-.093-3.644-1.264-3.21-1.704.129-2.31 2.485-.734 3.373M194.608 254.765c2.065-.486 1.714-3.567-.408-3.567-1.067.322-1.596.173-1.819 1.937.057.934 1.024 1.913 2.227 1.63M254.069 251.146c-2.288.15-2.463 2.692-.912 3.458 2.935 1.071 3.554-3.307.912-3.458M309.811 256.483c.096 1.083 1.185 1.72 1.573 1.652 1.174.518 2.988-1.798 1.374-3.172-1.258-1.077-3.088-.046-2.947 1.52M369.842 230.96c-.084-1.363-1.493-2.041-2.579-1.506-1.386.676-1.365 2.755.193 3.306 1.448.515 2.615-.942 2.386-1.8M412.119 173.469c-.036-.029-.062-.069-.101-.095-.06-.04-.136-.053-.201-.086-.067-.034-.122-.088-.194-.114 0 0-.081-.007-.121-.019-.051-.014-.093-.04-.145-.05-.057-.03-.172-.001-.237-.005-.057-.003-.211-.03-.211-.03-.154.009-.763.203-.929.318a1.8 1.8 0 0 0-.323 2.686c.766.88 1.901.724 2.534.172.759-.662.762-1.741.322-2.384-.041-.059-.104-.099-.151-.153-.046-.054-.076-.12-.13-.169-.034-.03-.078-.043-.113-.071M414.536 207.787c.331-1.655-1.705-2.919-3.028-1.677-1.25 1.164-.159 2.978.597 3.026.051.019.106.019.159.033.046.013.08.044.127.053h.106l.102.029.097-.012c.041.001.083.014.125.012.385.103 1.509-.428 1.715-1.464M438.28 182.638c-.08 0-.082-.005-.141-.022-2.52-.681-3.132 3.092-.807 3.534l.232-.002c.072.004.145.034.216.029.107-.028.17-.049.281-.038 1.012-.224 1.701-1.208 1.31-2.356-.259-.763-.692-.907-1.091-1.145M425.808 127.77c-.066-1.729-2.245-2.353-3.253-1.026-.759 1.006-.31 2.506.974 2.856a1.8 1.8 0 0 0 2.279-1.83M435.386 161.067c.047.086.044.09.061.143.737 2.32 4.158 1.178 3.436-1.091-.709-2.258-3.994-1.243-3.497.948M286.692 56.522c.785 1.317 2.885 1.16 3.299-.49.064-.255-.005-.395.132-.2 1.36 1.968 4.106-.009 3.079-1.894-.859-1.578-3.269-1.056-3.415.727-.021-.035-.024-.076-.047-.11-.037-.052-.093-.08-.134-.128-.051-.06-.088-.128-.146-.18-1.524-1.367-3.833.492-2.768 2.275M200.891 56.828v.057c0 1.055.909 1.793 1.77 1.821l.056.001c1.656 0 2.486-2.066 1.169-3.196-1.239-1.058-2.951-.09-2.995 1.317M250.929 82.439c-3.585 1.582 1.63 5.622 2.5 2.106.214-1.725-.993-2.564-2.5-2.106M303.729 82.978c.534-1.497-1.073-2.685-1.81-2.427-.702-.11-1.952.883-1.649 2.208.411 1.841 2.88 1.812 3.459.219M313.398 111.694c-2.331.647-1.317 4.156.986 3.513 2.354-.661 1.265-4.147-.986-3.513M373.797 142.816c.253 2.456 3.971 1.97 3.603-.458-.355-2.361-3.843-1.818-3.603.458M362.738 108.408c-1.09-2.228-4.277-.497-3.264 1.572 1.092 2.229 4.277.495 3.264-1.572M424.286 169.865c-.07-1.313-1.419-1.984-2.424-1.615-1.193.438-1.648 2.132-.541 3.077 1.267 1.084 3.048.093 2.965-1.462M410.165 137.417c2.506-.391 1.695-4.053-.641-3.575-2.268.468-1.689 3.938.641 3.575M438.858 216.382a1.804 1.804 0 0 0-.666 2.542c.893 1.438 3.296.97 3.355-.903.053-1.55-1.567-2.274-2.689-1.639M364.579 262.931c-.011-2.163-3.178-2.531-3.592-.259-.031.069.007.19.007.267.005 2.18 3.18 2.518 3.591.262.032-.068-.005-.193-.006-.27M304.583 287.117c-.237 2.422 3.462 2.698 3.624.298.144-2.296-3.395-2.67-3.624-.298M354.795 292.259c-.639-.398-2.247.544-2.227 1.296l-.012.116c-.416 2.094 2.657 3.103 3.473 1.013l.017-.097.045-.101.011-.115.034-.097c.143-1.017-.812-2.028-1.341-2.015M438.407 251.327c-.322-2.408-3.921-1.89-3.603.481.33 2.435 3.904 1.826 3.603-.481M411.907 239.86c-.561-2.968-5.512-.964-2.844 1.829 1.204.853 3.164-.135 2.844-1.829M444.817 196.737c1.227.057 1.953-1.029 1.898-1.909-.14-2.276-3.795-2.223-3.641.229.044.708.633 1.632 1.743 1.68M387.423 179.68c1.035-1.048.473-2.754-.917-3.038-1.587-.328-2.778 1.462-1.864 2.801.6.878 1.918 1.122 2.781.237M255.397 114.017c-1.878.512-1.73 3.24.233 3.506.082.012.197.066.274.041l.172-.011c.074.013.189-.057.263-.077 2.292-.633 1.35-4.089-.942-3.459M199.794 83.952c-.135-1.152-1.366-2.09-2.659-1.364-1.445.807-1.059 2.699.14 3.234 1.521.457 2.674-.553 2.519-1.87M136.103 111.792c-.581-.253-1.876.246-2.088 1.452-.242.559.221 1.715 1.209 2.039 2.442.794 3.41-3.046.879-3.491M147.156 84.226c1.085.247 2.257-.674 2.207-1.656.262-.743-.965-2.415-2.515-1.767-1.589.661-1.47 3.03.308 3.423M73.52 144.669c2.301.565 3.157-2.859.944-3.509-2.363-.684-3.296 2.926-.944 3.509M88.553 111.201c1.512-.174 2.012-1.816 1.27-2.847-.595-.825-1.989-1.127-2.857-.084-1.047 1.252-.015 3.122 1.587 2.931M27.786 168.922c-2.307-1.635-4.144 2.301-1.673 3.203 2.027.738 3.349-2.023 1.673-3.203M37.134 206.948c-.954-1.586-3.283-.894-3.37.839.144 1.39 1.028 1.985 1.972 1.912 1.706-.451 1.976-1.795 1.398-2.751M10.148 219.689c1.634-1.789-1.07-4.192-2.667-2.445-1.638 1.787 1.073 4.188 2.667 2.445M137.393 254.958c-.692-.36-1.403-.277-1.993.234-1.623 1.398.259 3.644 1.384 3.166 1.246.208 2.488-2.429.609-3.4M143.749 287.336c-.006-.05.018-.047-.006-.097.007-.051-.013-.039-.022-.084-.457-2.26-3.827-1.736-3.577.556.259 2.427 3.866 2.022 3.605-.375M194.313 284.369c.522 2.102 3.562 1.61 3.562-.431 0-1.215-1.356-2.037-1.94-1.818-.056-.017-.256.067-.312.081-.986.245-1.556 1.182-1.31 2.168M196.781 314.244c.21.797.974 1.386 1.797 1.36 1.26-.04 1.97-1.426 1.753-1.951.02-.078-.065-.242-.084-.315-.628-2.373-4.067-1.38-3.466.906M206.822 369.126c.859-1.194.004-2.933-1.549-2.873-1.091.069-1.753.924-1.75 1.816 0 1.713 2.276 2.482 3.299 1.057M202.758 343.434c1.261-.987.745-2.981-.879-3.192-1.534-.201-2.459 1.465-1.83 2.638.47.872 1.713 1.338 2.709.554M228.046 427.389c.078.577.342.983.838 1.29.046.029.162.138.213.144.053.023.653.15.711.151.049.015.194-.037.247-.044.579-.078.988-.342 1.296-.84.028-.046.137-.16.143-.212.022-.052.15-.653.15-.71.017-.051-.037-.201-.045-.255-.079-.572-.337-.981-.844-1.292-.044-.027-.155-.133-.206-.139a7 7 0 0 0-.71-.151c-.05-.016-.201.038-.254.045-.581.079-.991.346-1.295.848-.027.044-.131.152-.137.202a7 7 0 0 0-.151.711c-.016.05.037.197.044.252M226.487 438.735c.229-1.944-3.356-2.675-3.627-.179-.247 2.638 3.831 2.558 3.627.179M221.16 427.043c-.075-1.175-1.262-1.979-2.36-1.631-.943.297-1.463 1.531-1.212 2.092.445 2.239 3.715 1.763 3.572-.461M210.367 426.552c-.226-.072-.402-.234-.667-.289-1.874-.389-3.051 2.139-1.419 3.282 2.501 1.226 3.779-1.817 2.086-2.993M196.569 412.81c-.069-2.411-3.693-2.292-3.614.12.068 2.417 3.699 2.289 3.614-.12M160.064 345.132c-.189-2.476-3.905-2.057-3.617.35.286 2.39 3.791 1.927 3.617-.35M149.45 319.067c2.299-.363 1.847-3.783-.407-3.622-2.446.171-2.076 3.996.407 3.622M87.339 263.326c0-.077.037-.2.005-.269l-.037-.182c.002-.075-.08-.175-.11-.245-.854-2.014-3.891-1.048-3.412 1.152-.003.075.079.173.109.243.763 1.803 3.445 1.269 3.445-.699M94.686 296.073c2.157-.719 1.266-3.937-.928-3.487l-.115.011-.099.044c-2.108.703-1.307 3.827.829 3.522l.099-.035.116-.011zM38.006 238.861c-3.215.485-.889 5.186 1.451 3.14.057-.05.121-.089.17-.145.039-.043.065-.092.1-.139.025-.033.063-.055.085-.09.032-.05.039-.112.066-.165.035-.068.079-.129.105-.201.02-.054.026-.11.04-.166.01-.041.039-.076.046-.118.011-.055-.008-.115-.002-.172.116-1.254-.986-2.106-2.061-1.944M11.835 250.311c-2.369.228-2.016 3.849.344 3.632 2.434-.233 1.979-3.845-.344-3.632M3.459 229.604c-.632-1.405-2.536-1.347-3.217-.191-.679 1.159.136 2.762 1.606 2.728a1.79 1.79 0 0 0 1.611-2.537M5.763 195.557c.144-2.427-3.5-2.592-3.642-.222-.149 2.375 3.499 2.584 3.642.222M19.207 204.405c-2.184.101-2.332 3.295-.154 3.582 2.597.346 2.74-3.705.154-3.582M126.134 149.93c2.229.147 2.695-3.08.538-3.575-2.524-.596-3.126 3.402-.538 3.575M195.074 114.382c-1.548-1.201-3.103.68-2.914 1.387-.159.515.836 1.978 1.618 1.841 1.158.484 3.017-1.896 1.296-3.228M325.39 147.818a1.82 1.82 0 0 0-2.224-1.629c-1.835.422-1.865 3.044-.042 3.515 1.182.312 2.36-.667 2.266-1.886M332.43 184.518c-.369-1.929-3.312-2.226-3.604.548.961 2.833 3.993 1.458 3.604-.548M429.007 207.317c2.03 1.207 3.902-1.844 1.904-3.103-1.894-1.184-4.159 1.719-1.904 3.103M448.9 229.665c-.156-2.384-3.789-2.192-3.642.229.154 2.397 3.787 2.169 3.642-.229M401.439 271.824c-.838 2.051 2.312 3.634 3.326 1.463l.02-.083.044-.072.015-.102.047-.112c.012-.054 0-.124.007-.178.264-2.109-2.666-2.847-3.459-.916M393.666 303.244c-.433-1.827-2.875-1.859-3.472-.207-1.083 3.004 4.184 3.234 3.472.207M343.278 321.835c-2.265-.623-3.262 2.739-1.056 3.474 2.411.804 3.353-2.845 1.056-3.474M300.963 317.526c.624-2.269-2.778-3.256-3.485-1.038l-.007.065-.027.06-.003.08-.028.076.003.077-.019.072c-.142 2.162 2.997 2.687 3.566.608M249.933 311.924c-3.282-.108-1.784 5.158 1.133 3.191 1.215-1.047.47-3.14-1.133-3.191M107.516 323.936c-.075-2.554-3.986-2.171-3.61.328.351 2.264 3.667 1.917 3.61-.328M58.327 304.816c.563-1.444-.798-2.823-2.218-2.386l-.083.012c-.04.015-.066.047-.104.063l-.119.035-.125.101c-.534.342-.685.664-.789 1.115-.514 2.216 2.638 3.103 3.438 1.06M45.15 271.177c-.044.006-.133-.012-.17.01-.04-.003-.072.032-.111.044-2.339.687-1.218 4.135 1.038 3.462 2.166-.636 1.448-3.807-.757-3.516M63.48 180.551c1.158 0 1.933-1.138 1.794-1.797 0-1.22-1.207-1.917-1.796-1.793-1.158.003-1.935 1.137-1.795 1.796 0 1.222 1.208 1.919 1.797 1.794M188.904 151.193c.166 1.067 1.287 1.638 1.672 1.545 1.195.421 2.873-1.98 1.168-3.256-1.325-.992-3.085.161-2.84 1.711M261.448 186.648c-2.329.554-1.466 4.024.826 3.473 2.326-.556 1.465-4.022-.826-3.473M261.081 150.454c-.217-.919-1.077-1.426-1.804-1.402-1.727.058-2.407 2.38-.887 3.332 1.392.871 3.056-.402 2.691-1.93M392.683 217.295c.752.105 1.847-1.378 1.53-2.067.009-.064-.015-.052-.028-.11-.439-2.085-3.705-1.794-3.593.467.052 1.14 1.457 2.003 2.091 1.71M433.535 242.859c.991-1.4-.26-2.937-1.574-2.859-1.623.098-2.467 2.287-.754 3.429 1.168.422 1.863.087 2.328-.57M445.579 264.108c-.081-.641-.651-1.348-1.326-1.529 0 0-.123-.008-.162-.015-.884-.161-1.895.358-2.09 1.456-.521 2.864 3.913 2.734 3.578.088M430.272 276.101c-2.123-1.813-4.086.792-2.792 2.346 1.359 1.201 2.859.496 3.166-.729.096-.386.038-1.126-.374-1.617M416.218 314.027a1.815 1.815 0 0 0-2.595.794c-.576 1.244.409 2.587 1.653 2.587 1.804-.008 2.503-2.423.942-3.381M427.718 282.636c-1.419.549-1.601 2.654-.119 3.348.802.117 1.621.419 2.313-.728.939-1.557-.678-3.208-2.194-2.62M330.252 351.114c-.014-.693-.497-1.481-1.281-1.714-1.046-.308-2.14.513-2.185 1.077-1.138 2.817 3.527 3.409 3.466.637M289.145 346.405c1.164 1.004 2.82.158 2.965-1.153.155-1.308-1.258-2.511-2.622-1.799-1.163.603-1.318 2.114-.343 2.952M246.913 340.153c-1.298-.053-2.398 1.455-1.585 2.758.945 1.517 3.28.849 3.333-.885.031-1.001-.841-1.845-1.748-1.873M121.957 351.262a1.79 1.79 0 0 0-2.48-1.44c-1.349.55-1.489 2.286-.423 3.103 1.225.948 3.104-.053 2.903-1.663M71.092 331.833l-.054.029c-.733.417-1.059 1.364-.859 2.081.018.064.063.111.087.171s.022.123.053.181l.029.053c.526.926 1.711 1.098 2.432.72l.053-.029a1.79 1.79 0 0 0 .774-2.249c-.024-.061-.023-.125-.054-.183l-.029-.054c-.485-.857-1.631-1.138-2.432-.72M22.169 284.904c-.055-2.512-3.978-2.258-3.594.31.331 2.232 3.652 1.946 3.594-.31M22.296 277.519c-.502-2.825-5.206-1.317-2.953 1.709 1.442 1.094 3.239-.107 2.953-1.709M7.044 264.731s-.034-.116-.042-.155c-.159-.887-.683-1.3-1.565-1.483-.069-.008-.134.002-.203.002-.057 0-.112-.018-.169-.013 0 0-.117.035-.156.043-.069.012-.117-.015-.178.023-.061.018-.113.054-.173.077-.057.024-.119.032-.174.061s-.093.071-.143.104c-.046.031-.101.047-.143.081-.05.039-.082.098-.128.143-.041.04-.095.059-.133.104a1.4 1.4 0 0 1-.218.323c-.027.051-.026.107-.047.159 0 0-.059.093-.09.205l-.01.096c-.014.064-.038.123-.046.188-.008.069.003.135.003.204 0 .057-.018.113-.013.169 0 0 .035.117.042.156.012.069-.014.118.024.178.018.061.053.113.077.172.023.058.031.119.06.175.028.054.072.094.106.144.029.045.046.1.079.142.04.049.098.082.142.128.041.041.061.095.106.133.09.038.255.152.323.218.198.105.724.23 1.021.203 0 0 .116-.035.155-.042.069-.012.118.014.178-.024.062-.018.114-.053.173-.077.058-.023.119-.031.174-.06s.093-.072.144-.106c.045-.03.1-.046.142-.08.05-.039.083-.097.129-.142.041-.041.094-.06.132-.105.035-.086.158-.261.219-.323.027-.051.025-.106.047-.158.015-.035.058-.099.089-.209l.01-.093c.015-.064.039-.122.046-.188.008-.069-.002-.135-.002-.204 0-.057.018-.112.012-.169M18.091 243.923c.732-.401 1.263-1.49.723-2.473-.615-1.126-2.278-1.229-3.029-.253-1.137 2.047.867 3.512 2.306 2.726M55.441 255.013c2.227.107 2.676-3.412.251-3.624-2.451-.219-2.676 3.509-.251 3.624M57.527 214.091c-.443-.2-1.759.269-2.033 1.348-.35 1.388.959 2.535 2.225 2.21 2.323-.604 1.149-3.742-.192-3.558M120.458 186.508c1.795-1.414-.329-4.382-2.279-2.847-1.931 1.545.51 4.263 2.279 2.847M186.5 188.744c.407 2.365 3.931 1.723 3.529-.6-.404-2.349-3.926-1.729-3.529.6M112.242 261.386c.022 2.297 3.399 2.449 3.615.162.004-.051.028-.043.014-.098.019-.054-.005-.048-.006-.1-.021-2.296-3.394-2.448-3.614-.163-.005.051-.028.045-.014.099-.019.054.005.048.005.1M113.397 223.445c.275 2.207 3.462 1.999 3.595-.141.023-.066-.032-.225-.041-.296-.234-1.85-2.916-2.295-3.499-.271-.016.056-.096.22-.086.276l-.01.137c-.022.065.033.226.041.295M58.394 287.691c-2.469-.098-2.496 3.501-.136 3.587 1.639.065 2.329-1.767 1.55-2.85-.046-.064-.112-.108-.166-.166-.049-.053-.081-.12-.136-.167-.361-.305-.727-.39-1.112-.404M15.897 298.153c-.091-2.415-3.727-2.197-3.636.138.092 2.428 3.728 2.183 3.636-.138M35.382 316.063c-.066-1.493-1.956-2.36-3.106-1.201-.336.341-.444.685-.489 1.07-.305 2.568 3.719 2.737 3.595.131M170.721 370.417c-.005-.61-1.069-1.465-2.034-1.295-.943.163-1.838 1.085-1.296 2.663 1.017 1.87 3.954.756 3.33-1.368M244.268 369.473a1.773 1.773 0 0 0 .11-2.969c-1.251-.915-2.819.073-2.867 1.381-.049 1.307 1.441 2.411 2.757 1.588M277.93 370.532c-.292 2.35 3.213 2.789 3.595.524l-.002-.084.022-.08c.186-2.379-3.335-2.637-3.615-.36M313.158 376.902c1.226-2.594-3.254-3.74-3.412-.875-.042.757.273 1.364 1.021 1.721.738.352 1.89.196 2.391-.846M378.529 332.475c-.246-.814-.519-.722-.905-1.094-.725-.374-1.821-.211-2.368.662l-.063.074-.026.05c-.398.773-.147 1.939.736 2.431l.05.026c1.347.696 3.042-.594 2.576-2.149M422.823 328.727c-.18-1.724-2.51-2.254-3.368-.676l-.09.131c-.813 3.359 3.729 3.187 3.458.545M436.792 297.567c-.031-1.696-2.03-2.242-3.048-1.302-2.53 2.881 3.123 4.66 3.048 1.302M389.669 289.054c.059 1.486 1.089 1.514 1.656 1.746.073.005.138-.024.211-.027.071-.002.138.021.211.01 5.258-1.629-2.265-6.15-2.078-1.729M395.722 253.723c1.705-2.644-3.282-4.156-3.32-1.005-.034 1.86 2.351 2.503 3.32 1.005M337.887 261.001c.132-.539-.702-1.714-1.802-1.724-2.203-.02-2.498 3.249-.288 3.587.851.416 2.375-1.04 2.09-1.863M263.674 225.328c-2.305-.399-2.972 3.115-.607 3.526 2.325.406 2.963-3.119.607-3.526M333.113 222.437c-.498 1.543 1.136 2.929 2.57 2.173 1.087-.563 1.336-2.141.328-2.994-1.046-.886-2.521-.311-2.898.821M333.59 299.668c1.961.818 3.548-1.956 1.686-3.181-2.201-1.453-4.124 2.177-1.686 3.181M407.112 340.479c-2.06-.027-2.171 2.669-1.338 3.085.679.705 1.898.853 2.703-.127.972-1.175.099-2.936-1.365-2.958M420.125 312.824c2.284.382 2.93-2.998.737-3.546-2.377-.592-3.195 3.148-.737 3.546M396.478 343.086c-1.729 1.296-.13 4.274 2.18 2.909 1.733-1.307.107-4.261-2.18-2.909M374.489 369.27c-1.837 1.878 1.274 4.391 2.759 2.302 1.307-1.823-1.211-3.893-2.759-2.302M336.976 382.295c-1.757-1.308-3.895 1.097-2.388 2.685 1.811 1.938 4.45-1.166 2.388-2.685M357.452 361.636c1.477.433 2.856-1.113 2.141-2.556-1.456-2.912-5.592.907-2.141 2.556M294.145 397.731c-.178-2.454-3.8-2.056-3.633.258.171 2.371 3.809 2.181 3.633-.258M268.975 394.675c1.015-1.149.2-2.813-1.116-2.978-1.323-.173-2.523 1.24-1.831 2.601a1.774 1.774 0 0 0 2.947.377M210.971 390.131c-1.534-1.773-4.324.499-2.734 2.352 1.548 1.796 4.301-.527 2.734-2.352M238.173 392.697c1.25.921 2.822-.074 2.869-1.376.049-1.317-1.447-2.41-2.754-1.593-1.08.671-1.177 2.19-.115 2.969M183.026 393.456c-.43-1.712-1.961-1.961-2.841-1.356-.065.02-.126.124-.178.171-.444.4-.684.915-.593 1.581.312 2.218 3.801 1.96 3.612-.396M155.824 399.723a1.85 1.85 0 0 0 2.19-.461c.913-1.077.237-2.894-1.276-2.995-1.929-.123-2.652 2.614-.914 3.456M138.442 375.074c-.475-.428-.887-.484-1.314-.457-2.228.133-2.245 3.435-.02 3.606 1.671.119 2.5-1.884 1.503-3.015-.021-.046-.129-.099-.169-.134M89.622 361.683c.988.874 2.306.275 2.537-.159.865-.982.284-2.3-.161-2.539-.983-.864-2.299-.281-2.537.162-.862.981-.283 2.297.161 2.536M114.793 384.074c-.059-1.849-2.462-2.384-3.361-.854-.786 1.333.31 2.772 1.622 2.721 1.146-.041 1.774-.964 1.739-1.867M51.613 343.32c-2.777-.45-2.764 4.195.112 3.538 1.889-.424 1.903-3.21-.112-3.538M26.491 328.636c-1.092 2.062 2.058 3.815 3.181 1.678.027-.052.097-.112.101-.169 1.014-1.825-2.145-3.679-3.282-1.509M30.81 311.365c-.378-2.279-3.967-1.845-3.552.598.396 2.377 3.953 1.756 3.552-.598M44.239 342.882c-.036-1.335-1.588-2.288-2.805-1.501-1.608 1.03-.837 3.861 1.713 3.206.252-.146.258-.135.258-.135.061-.04.096-.102.151-.147.059-.049.138-.083.19-.138.191-.393.507-.498.493-1.285M114.099 298.056c-.394 2.541 3.46 2.843 3.624.398l-.014-.107.015-.105c-.102-1.955-2.98-2.572-3.625-.186M185.102 227.51c.188 1.06 1.327 1.616 1.722 1.513 1.271.364 2.749-2.078 1.084-3.276-1.327-.956-3.081.203-2.806 1.763M265.566 265.286c-.536-2.359-4.019-1.479-3.491.793.533 2.319 4.019 1.527 3.491-.793M186.081 267.539c2.864.649 2.875-4.015.076-3.508-1.913.348-1.998 3.075-.076 3.508M78.391 354.896c-.013-2.52-3.815-2.289-3.619.152.172 2.29 3.626 2.197 3.619-.152M67.243 323.684c-.034-2.4-3.63-2.358-3.608.043.027 2.399 3.638 2.356 3.608-.043M48.66 357.848c-.043-1.014-1.035-1.996-2.283-1.662-1.253.332-1.689 1.789-1.056 2.745 1.012 1.534 3.42.725 3.339-1.083M61.713 369.654c-.249-.681-1.944-1.143-2.833-.029-.485.608-.604 1.47-.02 2.225 1.426 1.867 4.337-.273 2.853-2.196M99.76 391.967c-.032-.039-.176-.071-.222-.093-1.984-.949-3.471 1.679-1.977 2.989 1.913 1.676 4.335-1.497 2.199-2.896M75.028 370.843c-.2-1.481-1.955-2.018-2.98-1.15-.036.031-.052.075-.086.109-.034.032-.078.047-.109.083l-.074.104a1.78 1.78 0 0 0-.017 2.153c1.127 1.566 3.517.513 3.266-1.299M139.825 404.333c-.018-1.398-1.377-2.12-2.511-1.631-1.407.6-1.347 2.335-.435 3.075 1.051.847 2.968.246 2.946-1.444M179.676 415.674c-.245-1.106-1.418-1.669-2.373-1.334-1.457.506-1.618 2.465-.376 3.252 1.35.866 3.099-.333 2.749-1.918M233.69 412.578c1.251.923 2.826-.07 2.87-1.371.057-1.312-1.438-2.413-2.75-1.598a1.773 1.773 0 0 0-.12 2.969M216.127 411.034c-.189-2.211-3.733-2.179-3.627.237.113 2.51 3.835 2.133 3.627-.237M252.506 412.517c-.31 2.345 3.166 2.824 3.586.575l-.001-.093.026-.089c.197-2.378-3.308-2.659-3.611-.393M311.314 402.234c-1.535-.238-3.058 1.648-1.323 3.283 2.94 1.453 3.975-2.87 1.323-3.283M390.206 368.656c-.923-.588-2.195-.105-2.413.442-1.085 1.412.256 3.324 1.942 2.823 1.607-.474 1.678-2.492.471-3.265M403.331 355.842c-.929-.61-2.185-.136-2.423.416-1.09 1.394.214 3.335 1.922 2.839 1.598-.456 1.7-2.469.501-3.255M372.938 352.602c-2.444.441-1.643 4.116.736 3.556 2.327-.55 1.51-3.957-.736-3.556M386.202 322.996c-.273-2.45-3.869-1.949-3.592.411.274 2.464 3.867 1.941 3.592-.411M331.315 332.283c.049-1.71-3.136-2.444-3.576-.116-.523 2.816 3.911 2.797 3.576.116M263.285 337.927c.444-2.314-3.064-3.063-3.522-.663-.462 2.402 3.083 2.985 3.522.663M323.864 363.272c.005-.042-.068-.174-.081-.218-.179-.577-.532-.948-1.1-1.157-.04-.015-.16-.091-.2-.088a8 8 0 0 0-.726-.022c-.039-.005-.168.066-.209.079-.581.177-.956.532-1.166 1.103-.015.04-.091.16-.088.199-.013.052-.03.674-.021.727-.005.039.065.168.078.208.177.578.531.955 1.098 1.164.041.015.165.094.205.091.052.012.673.03.726.021.041.005.173-.068.216-.081.576-.179.948-.53 1.157-1.096.015-.04.093-.164.09-.204a8 8 0 0 0 .021-.726M360.199 381.487c-.088-.822-.544-1.347-1.345-1.55-1.764-.442-2.953 1.601-1.804 2.924 1.135 1.308 3.335.454 3.149-1.374M368.504 392.54c-1.665-1.05-3.548.922-2.423 2.538 1.674 2.398 4.797-1.045 2.423-2.538M381.182 382.255c-.002-.082-.029-.159-.042-.24-.012-.078-.005-.156-.027-.232 0-.063-.334-.639-.334-.639-.233-.288-.256-.231-.366-.31-1.111-.799-1.665-.217-2.39.22-1.764 1.916 1.329 4.329 2.797 2.285.046-.064.111-.114.148-.183l.035-.1c.018-.039.043-.074.059-.115.03-.078.033-.16.052-.242.017-.07.054-.135.062-.207l-.005-.106c.002-.044.012-.087.011-.131M354.599 403.052c-.174-1.699-2.163-2.018-3.079-1.052-.864.911-.598 2.482.713 2.93 1.324.458 2.492-.635 2.366-1.878M351.7 391.898c-1.261-1.543-3.531-.257-3.188 1.496.217 1.072 1.275 1.603 2.136 1.434 1.266-.239 1.95-1.831 1.052-2.93M320.018 411.114c-.542 2.344 3.015 3.161 3.546.814.532-2.344-3.005-3.135-3.546-.814M270.022 417.302c.858.692 2.073.429 2.631-.374.965-1.392-.373-3.216-1.963-2.783-1.39.37-1.848 2.204-.668 3.157M283.296 421.998c2.302.689 3.298-2.707 1.114-3.459-2.308-.805-3.459 2.771-1.114 3.459M241.636 427.805c-.284-2.595-4.097-1.857-3.57.57.476 2.218 3.805 1.744 3.57-.57M201.151 431.501c2.063-.463 1.781-3.676-.484-3.561-2.612.124-2.014 4.14.484 3.561M167.143 420.291c-.065-.816-.507-1.356-1.294-1.582-1.769-.499-2.992 1.526-1.89 2.87 1.102 1.341 3.329.547 3.184-1.288M127.427 413.653c2.381-.052 2.299-3.636-.082-3.581-2.387.05-2.305 3.64.082 3.581M98.262 403.416c-.165-1.105-1.007-1.295-1.394-1.511-1.844-.417-3.023 2.046-1.525 3.216.385.151 1.071.706 2.05.125.621-.368.973-1.141.869-1.83M83.779 394.232c-.135-.75-.651-1.277-1.397-1.431-1.759-.365-2.867 1.798-1.664 3.02 1.196 1.235 3.385.185 3.061-1.589M71.668 382.724c.194-1.297-2.262-2.586-3.338-.805-.799 1.321.36 2.706 1.044 2.686 1.109.31 2.38-.605 2.294-1.881M93.238 382.045c-.09-1.269-1.497-2.117-2.683-1.47s-1.327 2.454.019 3.177c1.384.753 2.759-.459 2.664-1.707M128.544 362.19c-.068-.02-.14-.074-.18-.068a8 8 0 0 0-.726.023l-.174.077a1.73 1.73 0 0 0-1.147 1.235c-.015.056-.057.154-.057.154-.011.062.008.668.021.726-.003.043.056.11.082.182.206.578.614.971 1.226 1.138.057.015.159.059.159.059.062.011.668-.009.726-.022.04.004.109-.055.178-.08a1.72 1.72 0 0 0 1.138-1.218c.017-.063.063-.169.063-.169a9 9 0 0 0-.023-.726l-.072-.163a1.72 1.72 0 0 0-1.214-1.148M122.415 332.588c-.286-2.133-3.475-2.03-3.628.117-.192 2.694 3.98 2.461 3.628-.117M188.957 303.096c.085-2.587-4.097-2.393-3.571.282.41 2.098 3.499 1.927 3.571-.282M188.846 335.902c-2.352-.03-2.424 3.461-.151 3.625l.109-.014.109.017c2.346-.113 2.233-3.6-.067-3.628M265.016 302.862c-.057-1.719-2.42-2.595-3.485-.658-1.201 2.786 3.581 3.593 3.485.658M257.083 368.549c-.102 2.362 3.434 2.523 3.626.229l-.009-.079.016-.078c-.006-2.389-3.535-2.366-3.633-.072M198.102 418.284c2.665 1.437 3.897-3.283.935-3.414-1.973-.087-2.575 2.523-.935 3.414M253.629 395c-.225 2.315 3.154 2.699 3.58.522.012-.061-.006-.118-.001-.179.006-.061.035-.113.035-.175 0-2.285-3.403-2.443-3.614-.168M193.031 395.1c-.269 2.54 3.62 2.671 3.611.18 0-2.282-3.38-2.42-3.611-.18M298.719 411.334c-1.312 2.024 1.739 3.941 3.014 1.949 1.292-1.995-1.729-3.949-3.014-1.949M321.586 422.604c.584-2.346-2.944-3.182-3.516-.872-.588 2.357 2.949 3.165 3.516.872M316.784 427.297c-.319-2.336-3.88-1.919-3.545.495.33 2.418 3.865 1.847 3.545-.495M299.173 434.423c-.087-2.376-3.693-2.3-3.609.132.087 2.383 3.702 2.297 3.609-.132M293.386 431.352a1.78 1.78 0 0 0-.913-1.798c-1.563-.866-3.28.796-2.472 2.389.788 1.547 3.157 1.239 3.385-.591M158.139 429.561c-1.772-.335-2.881 1.943-1.575 3.138 2.562 1.707 4.505-2.104 1.575-3.138M152.939 433.054c-2.151-.724-3.402 2.396-1.335 3.353 2.344 1.091 3.684-2.57 1.335-3.353M136.306 427.758c-.11-1.588-2.091-2.273-3.157-1.09-.91 1.007-.391 2.535.756 2.926 1.134.394 2.495-.47 2.401-1.836M131.692 422.388c-.103-1.559-2.004-2.254-3.087-1.118-.878.922-.553 2.468.69 2.917 1.232.451 2.481-.521 2.397-1.799M150.731 414.115c1.326-.816.967-2.588-.095-3.14-1.092-.575-2.72.184-2.639 1.709.075 1.453 1.597 2.136 2.734 1.431M251.569 414.832c-2.403-.473-3.002 3.128-.701 3.582 2.401.471 2.986-3.138.701-3.582M246.771 434.177c1.269-.266 1.709-1.612 1.264-2.541-.151-.318-.293-.264.05-.189.504.274 2.118-.265 2.178-1.694.082-1.802-2.133-2.341-2.768-1.61-.987.631-1.003 2.128-.55 2.522-.037-.025-.166-.004-.211-.013-2.823-.535-2.772 4.124.037 3.525M285.734 427.286c-.037.023-.079.038-.115.063-.067.024-.115.118-.168.168-1.59 1.475.328 3.97 2.157 2.862 2.043-1.236.224-4.37-1.874-3.093M287.53 436.397c-.285-2.378-3.912-1.912-3.622.442.288 2.383 3.911 1.901 3.622-.442M275.376 441.298c-.008-.958-.792-1.684-1.703-1.864-.357-2.48-4.051-1.719-3.576.63.605 1.693 1.588 1.175 1.681 1.624.435 2.155 3.626 1.808 3.598-.39M255.434 438.494c-1.299-.053-2.267 1.453-1.776 2.462l.353.583c3.144 2.649 4.434-3.228 1.423-3.045" style="fill:#c6c6c6;fill-rule:nonzero"/><path d="M259.732 436.242c-.337-.341-.279-.164-.065-.421 1.053-1.258-.003-3.116-1.555-2.97-1.556.129-2.259 2.147-.999 3.199.118.099.171.062.058.176-.87.852-.679 2.509.644 2.997 2.223.507 3.067-1.817 1.917-2.981M192.147 436.375l-.06-.077c-.165-.074.203.035.581-.677.744-1.393-.595-3.086-2.16-2.579-1.175.38-1.684 1.877-.833 2.893.237.284.335.057-.085.499a1.805 1.805 0 0 0 .059 2.556c1.716 1.631 4.265-.931 2.498-2.615M164.159 435.081c-1.072-.226-1.937.463-2.131 1.391-.283 1.345.491 1.62 1.228 2.114 2.434.741 3.37-2.988.903-3.505M162.236 430.541c2.058 1.459 3.737-1.806 2.451-2.649-.775-.93-2.306-.843-2.951.233-.671 1.104.115 2.281.5 2.416M205.379 432.214c-.221-1.249-1.581-1.825-2.588-1.315-.983.494-1.346 1.871-.581 2.794 1.146 1.376 3.503.381 3.169-1.479M250.967 442.619c-.101-1.748-2.396-2.355-3.349-.886-.658 1.013-.133 2.645 1.351 2.786 1.238.124 2.057-.917 1.998-1.9M202.159 442.59c-.241-2.396-3.851-1.997-3.592.378.257 2.409 3.84 1.986 3.592-.378" style="fill:#c6c6c6;fill-rule:nonzero"/><path d="M193.314 438.78c-.765.204-1.463 1.753-.745 2.604.994 1.579 3.171.66 3.231-.329.371-2.014-1.329-2.822-2.486-2.275M178.215 438.077c-1.091-.158-1.926.677-2.044 1.533-.026.178-.219.118-.411.15a1.85 1.85 0 0 0-1.459 1.285c-.652 2.314 2.851 3.294 3.508 1.003.175-.621.08-.203.835-.514 1.688-.69 1.399-3.194-.429-3.457M210.832 444.309c-.168-1.438-.437-.107-.372-1.677.04-.957-.671-1.811-1.649-1.895-1.602-.145-2.652 1.882-1.456 3.097-.311.766-.111 1.707.755 2.229 1.271.771 2.9-.251 2.722-1.754M193.715 443.173a1.83 1.83 0 0 0-2.143 1.533c-.153 1.034.779 2.038 1.33 2.003 2.388.634 3.202-3.064.813-3.536M221.167 445.569c.076-.881-.585-1.882-1.659-1.975-1.709-.146-2.753 2.081-1.297 3.243 1.075.86 2.83.188 2.956-1.268M229.203 443.925c-2.179 1.477.323 4.433 2.179 2.889 1.703-1.421-.279-4.192-2.179-2.889M258.12 444.79c-.078-2.446-3.701-2.244-3.61.122.077 2.449 3.7 2.245 3.61-.122M234.77 445.251c-2.189 1.432.23 4.421 2.115 2.94 1.76-1.381-.175-4.223-2.115-2.94M239.384 442.582c.035.829-.908.763-.708 2.137.339 2.39 3.931 1.837 3.577-.522-.063-.441.764-.549.764-1.701 0-2.466-3.755-2.353-3.633.086M215.778 446.712c-.133-2.366-3.63-2.181-3.63.104 0 2.338 3.773 2.421 3.63-.104" style="fill:#c6c6c6;fill-rule:nonzero"/></svg>