<svg xmlns="http://www.w3.org/2000/svg" xml:space="preserve"
    style="fill-rule:evenodd;clip-rule:evenodd;stroke-linejoin:round;stroke-miterlimit:2"
    viewBox="0 0 428 429">
    <path
        d="M83.103 108.077c-.26-2.48-3.88-2.08-3.66.36.24 2.51 3.91 2.09 3.66-.36M116.053 82.367c-2.16-.84-3.65 2.37-1.46 3.41 2.35 1.11 3.74-2.53 1.46-3.41M113.633 116.567c-2.25 1.49.31 4.55 2.22 2.96 1.72-1.43-.25-4.29-2.22-2.96M157.763 124.027c-.45-1.27-2.18-1.66-3.12-.68-.6.63-.75 1.87.06 2.64 1.38 1.32 3.71-.09 3.06-1.96M147.063 89.197c-2.2-.16-2.45 3.83.21 3.67 2.46-.14 2.22-3.81-.21-3.67M93.813 186.017c-.3-1.72-2.36-1.96-3.26-.8-.76.99-.37 2.57 1.02 2.9 1.38.34 2.46-.86 2.24-2.1M83.333 145.597c-.55-2.27-3.89-1.63-3.66.62.25 2.56 4.29 1.98 3.66-.62M144.563 194.247c-.04-.61-.51-1.39-1.27-1.65-1.68-.55-3.21 1.38-2.04 2.89 1.15 1.48 3.42.54 3.31-1.24M124.323 153.477l-.13-.02-.26.04c-.08.01-.15-.01-.23.01l-.1.05c-.04.01-.09 0-.13.03-.06 0-.17.11-.22.14-.96.54-1.32 1.64-.44 2.89 2.98 2.16 4.65-2.87 1.51-3.14M201.193 197.677c-.42-2.41-4.08-1.77-3.65.65.43 2.44 4.07 1.74 3.65-.65M170.133 233.657c-.34-2.44-4-1.92-3.66.51.34 2.47 3.99 1.89 3.66-.51M175.893 160.637c-.22-1.4-1.3-1.9-2.2-1.74-.05.01-.33.14-.5.17l-.08.06c-.04.02-.07.01-.11.05-.06.02-.12.12-.17.16l-.22.19c-1.88 3.38 3.43 4.17 3.28 1.11M203.853 126.787c-.67-1.33-2.51-1.37-3.24-.12-.95 1.61.8 3.43 2.44 2.57.82-.42 1.29-1.45.8-2.45M236.283 66.267c-1.21 2.89 3.48 3.53 3.58.78.08-2.15-2.85-2.54-3.58-.78M250.653 124.927c-2.31-.62-3.32 2.92-.95 3.54 2.33.61 3.32-2.91.95-3.54M225.813 162.027c.13 2.43 3.79 2.24 3.67-.19-.13-2.42-3.78-2.24-3.67.19M223.523 97.657c1.8.84 3.36-1.3 2.32-2.78-.64-.89-1.88-.95-2.61-.44-1.13.81-.96 2.63.29 3.22M297.863 120.217c-1.82-1.12-3.3.3-3.03 1.75.54 2.97 5.38 1.04 3.03-1.75M336.393 113.527c.18-.75-.23-1.58-.72-1.93-1.44-1.03-3.43.39-2.82 2.12.63 1.78 3.13 1.57 3.54-.19M330.443 148.877c-1.93.07-2.68 1.76-1.44 3.25 2.76 1.73 4.53-2.38 1.44-3.25M302.613 87.167c-.36-1.5-2.37-1.95-3.31-.67-.55.74-.49 1.96.39 2.61 1.38 1.02 3.34-.24 2.92-1.94M260.033 196.707c-.24-2.41-3.89-2.07-3.66.35.23 2.41 3.88 2.08 3.66-.35M317.043 190.627c-.03-1.22-.81-1.39-1.2-1.69-1.88-.71-3.37 1.74-1.95 3.09 1.92 1.21 3.19-.18 3.15-1.4M292.643 231.267c-.27-2.42-3.92-2.02-3.65.4s3.91 2.02 3.65-.4M283.313 158.207c-.21-1.04-1.15-1.64-2.18-1.41-1.64.36-1.96 2.43-.62 3.32s3.16-.23 2.8-1.91M363.533 179.947c-.46-2.99-5.28-1.26-3.13 1.61 1.19 1.16 3.4.22 3.13-1.61M395.833 167.077c.13-.78-.19-1.47-.86-1.88-1.61-.97-3.36.74-2.63 2.34.72 1.57 3.17 1.41 3.49-.46M389.703 209.597c-.3-2.5-3.94-1.99-3.64.45.32 2.48 3.93 1.98 3.64-.45M368.513 139.787c.08-.84-.27-1.47-1.02-1.84-1.69-.82-3.28.99-2.43 2.54s3.25 1.18 3.45-.7M362.603 101.317c-.59-1.22-2.38-1.39-3.19-.28-.51.7-.49 1.95.41 2.61 1.54 1.12 3.64-.57 2.78-2.33M373.313 88.287c-1.67 1.68.7 4.1 2.43 2.78.07-.06.11-.13.17-.2.06-.06.14-.1.19-.17 1.38-1.83-1.18-4.04-2.79-2.41M390.473 124.677c-1.97-1.34-4.11 1.64-2.06 3.03 1.98 1.34 4.09-1.66 2.06-3.03M346.093 67.877c-1.84-1.47-4.01 1.11-2.52 2.71.07.07.15.1.23.16.07.06.12.13.2.18 1.94 1.13 3.91-1.59 2.09-3.05M376.373 75.877c-.17-.73-.68-1.26-1.5-1.39-1.82-.29-2.84 1.96-1.56 3.17 1.27 1.19 3.47.03 3.06-1.78M319.443 27.877c-2.04-1.27-3.97 1.78-2.03 3.12l.09.03.07.06c2.11 1.17 3.89-1.96 1.87-3.21M359.653 58.507c.29-1.81-1.96-2.84-3.17-1.55-.67.71-.59 1.96.04 2.59.92.92 2.88.6 3.13-1.04M346.003 48.387c1.67-1.75-.95-4.28-2.64-2.54-1.7 1.74.94 4.31 2.64 2.54M410.923 153.197c1.3-.08 2.13-1.47 1.51-2.67a1.823 1.823 0 0 0-3.05-.31c-1.02 1.25-.05 3.09 1.54 2.98M402.303 113.037c.12-1.55-1.54-2.43-2.74-1.74-.43.24-.41.47-.43.08-.11-2.01-2.93-2.4-3.57-.49-.65 1.89 1.67 3.14 2.98 1.99.19-.17.04-.27.1.24.25 2.15 3.5 2.19 3.66-.08M416.293 144.327c-.4-2.84-4.93-1.37-3.38 1.2 1.04 1.73 3.66.79 3.38-1.2M63.743 65.997c-.2-1.56-2.02-2.06-3.05-1.16-1.02.9-.76 2.77.77 3.17 1.28.33 2.45-.7 2.28-2.01M97.923 37.837c.1-1.56-1.61-2.39-2.77-1.7-1.18.7-1.26 2.59.16 3.25 1.19.57 2.54-.22 2.61-1.55M13.633 141.867c-1.11 2.08 1.84 3.71 3.13 1.97.05-.07.07-.16.11-.24s.11-.15.14-.24c.78-2.15-2.3-3.52-3.38-1.49M7.973 156.967c.33 1.28 1.8 1.81 2.87 1.02 1.29-.94.79-2.78-.46-3.22-1.26-.45-2.8.66-2.41 2.2M30.533 104.767c.12.92.96 1.6 1.5 1.6 1.56.27 2.96-1.63 1.71-3.05-1.27-1.45-3.43-.26-3.21 1.45M48.713 172.587c-.3 2.72 3.7 2.66 3.69.19l-.01-.12v-.08l-.02-.08v-.08c-.41-2.06-3.43-1.95-3.66.17M42.723 244.547c-1.27-1.89-4.25-.23-3.23 1.85 1.02 2.13 4.52.8 3.23-1.85M29.123 199.477c-.44-2.46-4.09-1.73-3.65.66.46 2.55 4.07 1.66 3.65-.66M112.533 226.217c-1.72-1.21-3.91 1-2.49 2.7.96 1.15 2.8.77 3.2-.67.23-.8-.1-1.6-.71-2.03M85.543 260.517c.24-2.47-3.4-2.7-3.65-.37-.25 2.48 3.41 2.77 3.65.37M64.073 215.727c-1.89-1.58-4.13 1.22-2.5 2.77 2.11 1.72 4.31-1.24 2.5-2.77M139.633 268.657c-.32-2.44-4-1.94-3.66.5.32 2.45 3.99 1.9 3.66-.5M113.163 300.627c-.24-1.41-1.99-2.07-3.09-1.02-1.1 1.04-.54 2.83.87 3.13 1.26.28 2.43-.83 2.22-2.11M64.613 290.337c-.02-1.99-2.73-2.55-3.56-.76-1.01 3.09 3.6 3.57 3.56.76M51.633 314.727c-1.79-.82-3.33 1.29-2.32 2.75.63.91 1.86.99 2.6.49 1.16-.81.99-2.66-.28-3.24M90.433 327.227c-1.62 1.74.86 4.08 2.55 2.68.06-.06.09-.13.15-.19.05-.06.12-.1.17-.16 1.34-1.89-1.31-4.03-2.87-2.33M144.273 336.817c.23-1.33-.91-2.39-2.2-2.12-1.53.33-1.88 2.19-.9 3.13.98.95 2.82.53 3.1-1.01M197.583 341.157c1.37 2.04 4.39-.04 3.04-2.05-1.34-1.98-4.4.01-3.04 2.05M175.223 367.347c1.05-1.7-.98-3.62-2.62-2.46-2.46 1.74 1.09 4.93 2.62 2.46M169.973 306.767c-.27-1.49-2.09-1.97-3.1-.97-1 .98-.57 2.81.93 3.11 1.29.26 2.41-.84 2.17-2.14M196.433 273.117c.27 1.44 2.04 2.02 3.11.98 1.05-1.04.51-2.83-.93-3.12-1.27-.26-2.41.86-2.18 2.14M261.443 273.387c1.41-.33 1.92-2.14.82-3.15s-2.86-.36-3.07 1.08c-.2 1.28.99 2.37 2.25 2.07M227.953 307.187c-1.68 1.71.84 4.24 2.57 2.68.03-.03.04-.07.07-.1s.07-.04.1-.07c1.56-1.82-1.1-4.2-2.74-2.51M227.613 235.687c.31 1.41 2.1 1.95 3.13.86 1.04-1.1.39-2.85-1.03-3.09-1.28-.21-2.38.97-2.1 2.23M323.633 264.787c-.25-2.42-3.9-2.05-3.65.37.24 2.42 3.89 2.05 3.65-.37M372.093 252.067c-1.79-.67-3.19 1.43-2.16 2.84.64.89 1.88.95 2.6.42 1.19-.86.91-2.76-.44-3.26M348.003 295.587c-.14-2.4-3.78-2.23-3.66.21.12 2.46 3.82 2.25 3.66-.21M348.183 222.487c0-.7-.44-1.45-1.21-1.73-1.81-.66-3.31 1.63-2 3.03 1.1 1.19 3.23.43 3.21-1.3M259.723 338.667c-.15-.81-.7-1.3-1.44-1.45-1.82-.35-2.91 1.88-1.67 3.11 1.23 1.24 3.46.16 3.11-1.66M316.703 332.477c-.27-1.46-2.07-2-3.1-.98-1.05 1.02-.53 2.83.92 3.12 1.29.26 2.41-.87 2.18-2.14M282.933 363.977c-.17-1.23-1.55-2.04-2.76-1.31-1.16.7-1.17 2.28-.15 3.04 1.33.98 3.14-.13 2.91-1.73M289.173 305.737c1.43 2.01 4.41-.15 2.99-2.14-1.45-2.04-4.4.16-2.99 2.14M368.113 345.137c-.05-.93-.91-1.82-1.98-1.75-1.67.09-2.42 2.28-1.01 3.35 1.25.95 3.08-.03 2.99-1.6M387.043 284.747c1.46.58 3.06-.92 2.38-2.47-.07-.51-1.25-1.49-2.45-.96-.28.04-.97.84-.99 1.02-.43 1.12.45 2.36 1.06 2.41M406.233 237.627c-1.63-.29-2.93 1.72-1.68 3.08 2.05 2.22 5.08-1.91 1.68-3.08M413.713 265.897c-2.54-.1-2.56 3.59-.14 3.67 2.45.1 2.62-3.58.14-3.67M415.683 194.407c-.06-.86-.74-1.47-1.34-1.65-1.67-.49-2.97 1.36-2.13 2.75.99 1.63 3.6.81 3.47-1.1M421.343 178.537c-.04 2.65 4.08 2.36 3.68-.27-.35-2.22-3.65-2-3.68.27M424.333 253.027c-.01-1.53-1.86-2.56-3.13-1.29-1.2 1.19-.29 3.14 1.31 3.13.91-.01 1.83-.72 1.82-1.84M415.063 286.717c-.08-1.64-2.1-2.36-3.21-1.18-.96 1.03-.43 2.6.72 3.02 1.14.42 2.56-.43 2.49-1.84M427.653 215.307c.87-1.32-.2-2.88-1.56-2.86s-2.38 1.6-1.48 2.9a1.817 1.817 0 0 0 3.04-.04M10.193 269.837c-1.29-.28-2.47.86-2.22 2.18.32 1.64 2.46 2.06 3.38.69.73-1.08.16-2.59-1.16-2.87M82.713 370.887c.02-.93-.76-1.88-1.83-1.9-1.68-.04-2.58 2.09-1.29 3.25 1.17 1.06 3.09.24 3.12-1.35M112.703 381.717c.75 1.11 2.37 1.04 3.06-.06.71-1.1.06-2.58-1.25-2.8-1.6-.25-2.73 1.52-1.81 2.86M154.673 388.837c.89.47 1.86.1 2.3-.44 1.12-1.34-.19-3.46-1.96-2.94-1.62.48-1.76 2.63-.34 3.38M146.013 404.537c2.29.81 3.5-2.64 1.22-3.45-2.3-.81-3.53 2.64-1.22 3.45M122.403 359.767c-1.56 1.83 1.16 4.19 2.77 2.48l.05-.08.08-.07c1.49-1.96-1.4-4.1-2.9-2.33M149.913 413.147c-.12-.87-1-1.75-2.1-1.6-1.77.24-2.28 2.74-.53 3.55 1.27.59 2.83-.49 2.63-1.95M159.253 418.587c-.02-1.61-1.96-2.42-3.12-1.29-.95.93-.63 2.52.58 3.01 1.21.5 2.56-.38 2.54-1.72M116.683 395.667c-.29-2.43-3.79-1.98-3.7.3.11 2.59 4.01 2.19 3.7-.3M175.383 419.557c1.3-.06 2.13-1.44 1.59-2.61-.6-1.31-2.46-1.48-3.25-.19-.79 1.28.22 2.87 1.66 2.8M206.623 418.027c-1.75-.96-3.47 1.13-2.45 2.67.6.91 1.85 1.02 2.59.53 1.13-.74 1.06-2.55-.14-3.2M199.293 424.897c-.18-1.09-1.28-1.67-2.14-1.52-.79.13-1.04.66-1.41 1.04-1.19 1.26 0 3.21 1.08 3.1 1.44.24 2.67-1.47 2.47-2.62M185.613 406.687c-.21-2.42-3.87-2.11-3.66.31.2 2.43 3.86 2.12 3.66-.31M203.533 390.507a1.84 1.84 0 0 0-2.2-2.12c-1.49.31-1.92 2.15-.9 3.13 1.03.99 2.84.47 3.1-1.01M251.493 389.017c-.21-1.55-2.04-2.04-3.06-1.12-1.02.91-.73 2.78.79 3.16a1.83 1.83 0 0 0 2.27-2.04M225.563 407.437c-.4-2.42-4.06-1.81-3.65.61.4 2.44 4.05 1.79 3.65-.61M229.063 367.237c-.13-.74-.62-1.29-1.44-1.45-1.8-.37-2.92 1.86-1.68 3.1 1.23 1.25 3.46.17 3.12-1.65M297.943 384.507c.38-2.41-3.27-2.99-3.65-.58s3.27 2.99 3.65.58M299.103 397.857c-2.02 1.42.12 4.48 2.14 3.06 2.03-1.41-.11-4.47-2.14-3.06M331.623 356.627c.32-2.43-3.31-2.89-3.63-.49-.33 2.42 3.3 2.88 3.63.49M238.973 419.897c.41-.82.15-1.74-.4-2.23-.72-.33-.41-.58-2.1-.26-2.85 2.21 1.19 5.08 2.5 2.49M269.763 415.937c.21-1.75-1.76-2.5-2.88-1.7-1.03.74-1.09 2.36.13 3.08 1.23.72 2.61-.12 2.75-1.38M263.583 407.077c2.42.4 3.01-3.27.6-3.66-2.42-.39-3.02 3.26-.6 3.66M293.173 411.947c.31-1.55-1.3-2.59-2.52-2.06-1.23.52-1.62 2.38-.28 3.25 1.1.71 2.54.13 2.8-1.19M335.853 375.267c-1.51-3.99-5.91 1.09-2.35 2.18.89.28 1.13-.07 1.61-.23.32-.38.22.15.76-1.18.01-.07.01-.71-.02-.77M328.433 389.577c-1.63-1.18-3.81.86-2.6 2.58.03.04-.66.25-.72.28-2.11 1.25-.2 4.45 1.89 3.22.93-.54 1.18-1.87.57-2.7-.15-.12.42.11 1.1-.6.85-.89.54-2.22-.24-2.78M400.463 318.107c-.11-1.34-1.48-2.08-2.66-1.48-1.39.71-1.25 2.59-.07 3.25 1.19.66 2.87-.21 2.73-1.77M380.973 347.097c.22-2.34-3.42-2.86-3.65-.35-.23 2.39 3.41 2.79 3.65.35M362.233 364.607c-.04-.7-.6-1.5-1.49-1.68-1.69-.36-2.91 1.61-1.83 2.96.03.05.08.07.12.1.03.03.07.12.1.14.03.04.62.36.68.38.71.47 2.51-.39 2.42-1.9M393.083 307.147c-2.28.81-1.05 4.33 1.24 3.52 2.27-.81 1.1-4.34-1.24-3.52M390.803 331.557a1.824 1.824 0 0 0-2.76-1.28c-1.3.78-1.12 2.65.17 3.24 1.27.6 2.84-.45 2.59-1.96M138.963 411.767c-.03-1.63-2.03-2.43-3.17-1.27-.99 1-.52 2.57.63 3.03 1.14.46 2.58-.35 2.54-1.76M128.553 406.127c-1.94-1.36-3.91 1.41-2.32 2.87 1.89 1.76 4.5-1.35 2.32-2.87M180.793 423.087c-.17-.93-1.12-1.68-2.17-1.48-3.18-1.63-4.15 2.62-1.7 3.23.25.07.76-.04.98.11 1.37.97 3.19-.26 2.89-1.86M183.343 422.307c-2.01.08-2.45 2.84-.56 3.54 2.76 1.03 3.49-3.66.56-3.54M215.493 426.627c.34-2.42-3.3-2.95-3.64-.5-.34 2.48 3.3 2.9 3.64.5M223.283 426.547c.27-1.58-1.44-2.65-2.73-1.9-.9-1.3-2.76-.91-3.25.39-.59 1.56 1.14 3.14 2.67 2.25.99 1.38 3.02.94 3.31-.74M242.583 424.767c.21-1.35-1.04-2.39-2.28-2.08-1.24.32-1.84 1.83-1.02 2.91.99 1.3 3.05.77 3.3-.83M267.813 419.507c-.36-2.32-4.01-1.91-3.63.56.36 2.32 4.01 1.91 3.63-.56M234.813 425.667c.15-1.84-2.16-2.72-3.28-1.32-1.11 1.43.24 3.49 2.02 2.91.69-.23 1.18-.72 1.26-1.59M185.113 19.137c-.4-2.6-4.38-1.69-3.6.84.66 2.16 3.95 1.43 3.6-.84M192.923 21.467c-.17-1.31-1.64-2.01-2.77-1.33-1.12.66-1.23 2.28-.15 3.07 1.31.96 3.14-.13 2.92-1.74M202.583 23.117c-.16-2.41-3.83-2.18-3.66.26.17 2.42 3.83 2.17 3.66-.26M178.833 38.987c-1.82-.81-3.36 1.4-2.25 2.85.66.86 1.92.88 2.62.34 1.1-.85.86-2.63-.37-3.19M128.403 54.227c-.65-1.87-3.42-1.56-3.56.48-.22 2.97 4.56 2.36 3.56-.48M149.263 59.537c-1.76-.58-3.09 1.45-2.11 2.85.63.9 1.86.97 2.6.46 1.23-.87.94-2.83-.49-3.31M162.703 37.227c.35-2.4-3.26-2.94-3.63-.55-.36 2.41 3.27 2.95 3.63.55M175.993 67.487c.26.07 1.21-.42 1.29-.58 1.61-1.72-.7-4.08-2.47-2.74-1.5 1.15-.55 3.38 1.18 3.32M208.203 67.327c-.12-.79-.63-1.35-1.4-1.53-1.86-.43-2.94 1.77-1.78 3.03 1.17 1.28 3.44.37 3.18-1.5M200.023 42.787c-.04-.89-.84-1.83-1.95-1.77-1.7.08-2.48 2.33-.99 3.39 1.23.86 3.02-.07 2.94-1.62M213.403 23.887c-.03-.99-.9-1.87-1.96-1.81-1.97.1-2.4 2.9-.58 3.59 1.29.51 2.58-.54 2.54-1.78M222.173 25.467c2.35.78 3.47-2.77 1.12-3.49-2.32-.73-3.41 2.74-1.12 3.49M220.043 41.517c-1.65-.25-2.88 1.82-1.58 3.14 2.14 2.16 4.99-2.09 1.58-3.14M235.423 22.307c-.31-2.41-3.96-1.94-3.65.47.32 2.42 3.96 1.95 3.65-.47M243.113 18.797c-1.84-.67-3.42 1.7-1.93 3.11 1.84 1.75 4.88-1.33 1.93-3.11M262.213 37.387c-1.87-1.44-4.01 1.23-2.42 2.79.06.06.13.08.19.13s.1.11.17.15c1.98 1.16 3.92-1.66 2.06-3.07M269.763 62.167c-1.48-1.14-3.42.39-2.92 2.02.32 1.06 1.46 1.51 2.33 1.25 1.42-.43 1.77-2.37.59-3.27M266.303 93.197c-.13-.87-.79-1.47-1.56-1.58-1.75-.24-2.82 2-1.54 3.21 1.22 1.15 3.37.16 3.1-1.63M243.283 42.327c.27-1.55-1.27-2.55-2.51-2.04-1.18.47-1.56 2.15-.58 3.08 1.02.96 2.82.54 3.09-1.04M293.743 59.857c2.41-.14 2.24-3.73-.15-3.66-2.49.06-2.32 3.81.15 3.66M312.843 50.767c-.02-1.29-1.37-2.18-2.56-1.67-1.32.56-1.56 2.41-.28 3.24 1.27.83 2.87-.14 2.84-1.57M329.803 78.977c-.13-.74-.71-1.33-1.44-1.48-1.8-.38-2.99 1.76-1.7 3.09 1.3 1.33 3.47.19 3.14-1.61M277.613 34.137a1.828 1.828 0 0 0-2.71-1.39c-1.37.76-1.18 2.64.04 3.26 1.25.63 2.86-.34 2.67-1.87M247.863 19.657c1.21.55 2.55-.31 2.58-1.61.05-1.65-1.88-2.5-3.06-1.41-.92.84-.81 2.43.48 3.02M286.813 28.877c-.08-1.64-2.09-2.37-3.2-1.19-.95.99-.49 2.56.7 3.01 1.15.43 2.56-.42 2.5-1.82"
        style="fill:#c6c6c6;fill-rule:nonzero" />
    <path
        d="M253.633 11.767c-.25-2.43-3.89-2.03-3.65.37.13 1.23.99 1.22.71 1.43-2.33 1.75 1.18 5 2.72 2.45.42-.69.27-1.57-.11-2.08-.57-.76-.66-.12-.09-.81.48-.57.46-.98.42-1.36M246.543 9.197c.17.95 1.02 1.52 1.76 1.54 1.75.05 2.62-2.28 1.11-3.35-1.37-.98-3.15.22-2.87 1.81M243.503 5.747c-.26-.95-1.18-1.42-1.89-1.36-1.76.11-2.38 2.52-.79 3.43 1.45.85 3.11-.51 2.68-2.07M286.643 16.607c-.24-1.19-1.09-1.26-1.47-1.47-1.91-.38-3.11 2.19-1.42 3.36 1.36.95 3.21-.27 2.89-1.89M319.893 44.367c1.62.11 2.58-1.78 1.55-3.03-.86-1.03-2.48-.81-3.06.34-.6 1.16.18 2.59 1.51 2.69M318.203 34.107a1.806 1.806 0 0 0 2.79 1.2c1.33-.85.98-2.71-.25-3.24s-2.84.47-2.54 2.04M352.613 57.997c-.45-2.4-4.08-1.7-3.62.69.46 2.4 4.08 1.71 3.62-.69M289.953 23.167c.14-2.01-2.54-2.76-3.46-.97-1.37 2.67 3.25 3.84 3.46.97M311.283 26.607c1.37-.93.9-3.03-.71-3.31-1.24-.22-2.42.83-2.11 2.2.27 1.2 1.68 1.89 2.82 1.11"
        style="fill:#c6c6c6;fill-rule:nonzero" />
    <path
        d="M246.193 5.337c1.12-1.21.2-3.15-1.43-3.07-1.17.05-2.22 1.25-1.58 2.61.54 1.13 2.08 1.46 3.01.46M292.243 17.947c.66-.44.93-1.13.76-1.91-.39-1.79-2.86-1.93-3.52-.29-.64 1.63 1.23 3.24 2.76 2.2M276.583 11.547c.26-1.59-1.56-2.76-2.91-1.79-.09.07-.04.01-.06-.1-.24-2.04-3.04-2.2-3.63-.35-.5 1.67 1.43 3.2 2.94 1.99.38 2.54 3.35 2.2 3.66.25M256.663 6.947c.25 1.18 1.12 1.26 1.5 1.45 1.89.33 3.07-2.23 1.36-3.38-1.37-.92-3.2.31-2.86 1.93M216.753 1.547c-.36-2.29-3.66-1.9-3.68.27 0 .11.04.2.05.29-.33-.64-.88-1.05-1.77-.97-1.86.15-2.33 2.51-.8 3.42.96.57 2.54.13 2.79-1.28.05-.31-.11-.7.05-.46 1.06 1.66 3.67.7 3.36-1.27M223.113 1.287c-.03.06.03.13-.32.09-2.4-.27-2.83 3.37-.41 3.65.62.07 1.26-.21 1.59-.56.03-.04.33-.59.37-.58 2.3.58 3.27-2.91.92-3.55-.75-.2-1.73.09-2.15.95M231.593 2.557c0 .04.01.08.01.13 0 .04-.02.08-.02.13.01.06.04.11.05.18-1.65 1.6.52 4.11 2.34 2.84 1.03-.72.6-1.51.98-2.04 1.79-2.5-3.06-4.43-3.36-1.24M206.343.097c-3.48.95-1.35 4.57.83 3.56 1.85-.85 1.14-3.61-.83-3.56M187.593 3.847c.21-2.93-4.5-2.33-3.56.45.65 1.94 3.43 1.55 3.56-.45M188.823 6.397c1.47 1.96 4.42-.27 2.95-2.22s-4.43.28-2.95 2.22M195.753 3.247c.07.17.29.48.52.67 1.32 1.07 2.2-.16 2.31.23.46 1.66 2.77 1.82 3.47.29.8-1.72-1.28-3.39-2.79-2.27-.47-2.71-4.65-1.43-3.51 1.08M179.193 4.417c-.77-2.17-3.86-1.26-3.57.86.37 2.67 4.46 1.68 3.57-.86M183.113 9.397c1.98-.38 2.01-3.16.05-3.59-2.92-.65-2.88 4.12-.05 3.59M179.903 10.627c.23-1.59-1.59-2.74-2.93-1.72-.86.66-.93 1.81-.34 2.58.3.38-1.05-.41-1.8 1.11-.75 1.51.73 3.08 2.25 2.54 1.13-.4 1.73-1.87.76-2.95.83.17 1.89-.42 2.06-1.56M149.363 14.127c.03-2.63-4.01-2.38-3.69.21.27 2.26 3.66 2.09 3.69-.21M129.803 19.827c-.36-2.4-4.01-1.91-3.63.55.38 2.48 3.99 1.84 3.63-.55M153.893 12.457c2.26-.18 2.2-3.35.14-3.67-2.69-.44-2.91 3.89-.14 3.67M157.643 8.987c-.17 2.62 3.87 2.61 3.7 0-.14-2.27-3.54-2.3-3.7 0M113.763 28.937c-.46-2.4-4.07-1.72-3.6.7.48 2.48 4.06 1.66 3.6-.7M107.893 39.657c2.4-.62 1.43-4.18-.93-3.56-2.39.61-1.44 4.18.93 3.56M77.373 52.737c.23 1.31 1.73 1.93 2.82 1.21 1.09-.71 1.13-2.33.01-3.07-1.35-.89-3.11.26-2.83 1.86M143.163 19.727c-.14-2.63-4.14-2.12-3.67.43.41 2.25 3.79 1.87 3.67-.43M53.903 82.227c-.41-2.42-4.07-1.79-3.66.62.41 2.45 4.06 1.76 3.66-.62M89.643 75.407a1.835 1.835 0 0 0 2.92.94 1.84 1.84 0 0 0-.29-3.06c-1.42-.75-3.06.55-2.63 2.12M78.413 65.217c1.39.73 3-.49 2.66-2.02-.3-1.31-1.84-1.87-2.9-1.06-1.08.82-.93 2.45.24 3.08M34.093 116.957c-1.94-1.22-3.94 1.58-2.13 3.02 2.06 1.63 4.27-1.68 2.13-3.02M60.673 97.227c1.81-1.63-.65-4.27-2.34-2.86-1.01.37-1.1 2.68.47 3.25.62.22 1.38.05 1.87-.39M47.603 133.977c.12.98.77 1.52 1.69 1.64 1.62.11 2.59-1.85 1.51-3.12l-.55-.41c-.94-.63-2.85.21-2.65 1.89M26.133 158.977c-.09-1.77-2.3-2.39-3.33-1.03-.89 1.18-.09 2.94 1.42 2.99.97.04 1.97-.8 1.91-1.96M.013 213.627c-.25 2.36 3.19 2.79 3.65.57.02-.06 0-.12.01-.19 0-.06.03-.12.03-.18.01-2.33-3.46-2.53-3.69-.2M13.323 230.947c-.16-.96-1.1-1.75-2.23-1.51-1.4.3-1.96 2.03-.97 3.09 1.24 1.32 3.5.23 3.2-1.58M28.483 275.937c.01-.05-.07-.18-.08-.23-.12-.38.07-1.39-1.08-1.95-1.53-.76-3.22.78-2.51 2.41 0 .12-.03.28-.01.39 0 .05.07.18.09.23.18.59.54.97 1.12 1.18.04.02.16.09.2.09.06.02.69.04.74.03.05 0 .18-.07.23-.09.59-.18.97-.53 1.18-1.11.02-.04.1-.17.1-.21.01-.06.03-.69.02-.74M51.323 339.357c.45-2.42-3.19-3.09-3.64-.68-.46 2.43 3.19 3.07 3.64.68M64.443 362.207c-.18-1.21-1.55-2.03-2.76-1.29-1.15.7-1.17 2.28-.14 3.04 1.33.98 3.14-.13 2.9-1.75M25.843 300.587l-.03-.06c-.34-.87-1.41-1.41-2.36-1.07l-.06.02c-.87.35-1.41 1.41-1.07 2.37l.03.06c.33.84 1.39 1.41 2.36 1.07l.06-.03c.79-.32 1.43-1.35 1.07-2.36M33.413 322.557c.26-1.49-1.27-2.58-2.57-2s-1.5 2.45-.21 3.24c1.12.7 2.56.04 2.78-1.24M7.903 261.447c2.58-.59 1.39-4.36-1-3.56-2.25.74-1.25 4.08 1 3.56M90.693 384.957c-2.37 1.11-.47 4.53 1.71 3.29 1.97-1.12.51-4.34-1.71-3.29M108.403 397.517c-1.63 1.81 1.09 4.26 2.73 2.45 1.59-1.77-1.08-4.28-2.73-2.45M140.283 27.347c1.06.78 2.55.24 2.88-1.01.38-1.45-1.03-2.69-2.39-2.2-1.37.47-1.7 2.32-.49 3.21M146.773 33.587c1.13.68 2.55.03 2.77-1.27.26-1.54-1.33-2.56-2.59-1.98-1.24.57-1.52 2.44-.18 3.25M216.223 10.037c-.51-3.92-5.97-.44-3.16 1.68 1.21.91 3.25.16 3.16-1.68"
        style="fill:#c6c6c6;fill-rule:nonzero" />
    <path
        d="m424.303 235.897-.14-12.82.01-.07-.01-.04-.03-2.96-.04.16c-.08-4.01-.87-38.13-.87-38.13.04.21.56 2.84.56 2.84l1.98 29.43c-.22 5.28-.93 14.8-1.46 21.59m-2.15 17.07c-1.55 6.76-5.53 22.54-5.56 22.67 0 0-4.09 11.25-5.38 14.81l2.78-22.61 9.49-41.78.19 17.69zm-18.23 53.92c-1.38 2.77-3.2 6.39-5.6 11.2-2.02 3.28-5.37 8.35-8.55 13.08 0 0 14.42-25.72 18.24-32.52-.69 1.45-1.82 3.71-4.09 8.24m-23.93 38.4c-.31.38-1.12 1.4-1.12 1.4-13.43 15.48-24.04 25.29-24.13 25.38l-2.05 1.75 33.78-38.54c-.54.88-3.43 5.59-4.34 7.07-.81 1.27-1.2 1.77-2.14 2.94m-58.84 51.04c2.01-1.55 29.69-23.54 36.11-28.67l-8.69 9.7-22.72 16.4-5.71 3.35zm-12.84 5.71c3.93-2.18 8.87-4.92 15.15-8.39l-8.18 6.31-21.98 10.34c2.37-1.27 6.11-3.34 15.01-8.26m-62.14 21.08 21.09-6.79-1.51 3.14zm-8.3-3.86.17-.06-.07-.06 25.78-13.42c.72 1.19 3.55 6.11 3.8 9.77l-26.64 8.57zm-5.76 5.98c-.97.08-10.43.64-10.43.64l-1.33-.27 16.84-6.11 2.97 4.7c-1.38.18-8.05 1.04-8.05 1.04m-21.02.67-13.22-.54 7.88-5.29c.87.43 7.28 3.57 11.89 5.44l-4.01.51c-.38-.06-1.11-.06-2.54-.12m-22.1-1.44-5.06-.62-6.26-1.12-.04-.02-1.71-4.36c2.69 1.06 12.18 4.7 20.37 6.92l-.59-.06c-1.74-.14-1.74-.14-6.71-.74m-31.44-6.19s-4.71-2.62-5.05-2.82c4.03 1.49 10.28 3.71 16.89 5.71-1.26-.31-9.1-2.22-11.84-2.89m-9.77-2.98-20.09-7.97-10.28-9.55c5.4 3.1 18 10.15 30.29 15.85l6.68 3.7c-.56-.17-6.6-2.03-6.6-2.03m-37.83-16.85s-.1-.07-.26-.17l.43.25c-.11-.05-.17-.08-.17-.08m-30.17-20.75c-4.07-3.72-14.61-13.34-15.82-14.48 6.94 6.03 15.9 13.81 21.63 18.77zm-46.99-54.18-.86-1.4-6.56-18.35c11.03 16.41 23.69 35.21 23.8 35.39 1.6 5.49 4.32 10.83 6.46 14.54l-16.81-20.8-2.53-3.89c-2.43-3.71-2.43-3.71-3.5-5.49m-22.63-51.93-1.61-8.33 15.2 38.09 5.83 16.31c-4.7-9.1-11.36-22.88-11.42-23.01zm-7.96-57.76c1.27-6.09 4.56-21.7 5.11-24.46-.05 18.36.24 20.15 3.32 38.87l.49 3.01-3.61 25.68zm.37 8.87 1.74 14.05c-.72-4.65-1.35-9.35-1.74-14.05m1.08-26.35 1.61-18.41 4.82-21.29 4.23-10.59c-1.45 8.25-2.57 14.66-3.47 19.78-3.52 20.21-3.52 20.21-6.36 33.67-.52 2.48-1.14 5.41-1.9 9.01.22-2.56.56-6.38 1.07-12.17m9.42-49.15.99-3.15 1.91-4.27c-.35.94-1.05 2.83-1.05 2.83s-1.39 3.42-1.85 4.59m31.39-59.93c.73-.96 1.62-2.16 2.77-3.7l14.91-17.06 12.01-9.61c-5.34 5.43-14.3 14.93-22.37 25.42 0 0-15.83 17.68-16.54 18.47.49-.74 5.28-8.07 5.28-8.07 1.26-1.89 1.94-2.8 3.94-5.45m25.03-27.58c-.59.48-1.23.99-1.91 1.54l3.39-3.3 25.29-19.88 7.77-4.13c-6.43 4.21-15.94 10.77-25.07 18.21 0 0-6.36 5.06-9.47 7.56m58.6-39.25 8.8-2.7c-5.36 2.13-12.22 5.01-19.32 8.4 2.99-1.62 6.45-3.49 10.52-5.7m6.25-2.66c2.07-.85 3.76-1.48 6.34-2.33.88-.28 11.43-3.63 16.87-5.35l2.92-.7 12.12-.79c-6.68 1.04-15.86 2.7-25.16 5.16zm43.16-12.4 4.78.1c-2.78.24-6.14.6-9.85 1.1zm14.83-2.01c4.31-.47 5.05-.53 5.05-.53l1.31.53-9.88.38zm6.76-.64 5.39-.33 6.6.87-.26 1.5 1.25 2.16c.24.55.58 1.17.96 1.83-5.3-3.77-12.3-5.38-12.56-5.44 0 0-1.08-.46-1.38-.59m9.88-.46 2.29-.03-.06.33zm2.65.28-.25-.31c.43-.01.87-.02 1.26-.02zm3.51-.36c.53.01 6.96.16 6.96.16l.3.18-.11.44-6.56 3.73-.85 1.69.13-1.58-1.18-1.49a8 8 0 0 0-1.62-2.21l2.8-.92zm12.22.45-3.92.17.35-.39s2.58.15 3.57.22m8.79.73.59.07-6.99.96.51.04c-3.03.62-8.21 1.86-12.99 3.95.38-.31 1.64-1.34 1.84-1.51 1.09-.91 2.15-1.84 3-2.68.32-.31.53-.53.65-.65l10.69-.46s.85.08 2.7.28m9.06 1.15c-3.03-.25-5.68-.4-7.72-.47l2.13-.3zm45.88 12.25c3.41 1.45 6.51 2.82 9.25 4.06-1.32-.52-13.19-5.13-19.36-7.53.89.24 1.53.41 1.96.52 1.27.38 2.3.76 4.75 1.68zm27.2 12.99 1.17.8c-.59-.38-1.2-.77-1.82-1.17zm39.32 28.72c4.21 4.19 8.23 8.38 11.75 12.19-1.97-1.93-19.08-18.58-19.08-18.58.54.47 5.01 4.37 7.33 6.39m48 65.75c-.56-.9-9.63-15.58-9.63-15.58l.08.25s-15.05-23.31-18.75-29.05c0 0 3.81 4.25 4.24 4.72l18.62 28.51c1.35 2.71 3.6 7.35 5.44 11.15m11.44 29.47 4.63 20.79-10.52-23.2v-.06l-12.52-36.92s8.2 13.27 9.99 16.15l5.53 14.25zm-2.86 40.81.01-.05-.03-.05-2.87-41.1 11.13 24.55s.9 38.87.98 42.94zm-47.61 150.9 26.69-35.33c-.27 3.25-1.3 12.65-4.54 21.45-.05.09-.09.16-.14.24l-27.4 31.48zm-37.73 44.03c3.98-6.35 5.41-12.98 5.52-13.56l31.16-29.45-5.46 18.09zm-28.42 10.23.17-.09-.01-.04 32.91-23.03c-.54 2.24-2.34 8.65-6.41 14.32 0 0-30.59 16.94-33.02 18.25zm-35.98 5.69 31.46-20.57 3.86 14.41-31.5 15.98c-.37-3.79-3.11-8.51-3.88-9.79zm-27.05 13.28c-4-3.52-11.32-9.47-13.06-10.87l25.29-18.02 13.69 15.4zm-18.33 6.68-12.6-5.71 17.25-11.43 12.92 10.77zm-192.28-148.06c2.15 4.02 12.04 22.29 23.7 39.25-.19 1.27-1.85 13.09-1.42 21.19-.51-.75-12.56-18.66-24.63-36.6-.04-.94-.42-11.92 2.35-23.84m-15.16-44.49c3.85 11.34 6.69 19.67 8.77 25.77 5.59 16.41 5.74 16.85 5.89 17.7-2.39 9.78-2.62 19.09-2.6 23.02l-15.83-39.67zm-3.59-46.88c3.31-6.79 11-19.29 14.36-23.71.48-.63.99-1.31 1.52-2.01-.43 14.69.88 24.24 2.42 35.22.17 1.26.58 4.35.58 4.35-3.48 5.13-7.22 12.57-9.24 16.58-.36.72-.66 1.32-.89 1.75-1.74 3.36-3.47 7.67-4.73 10.82-.16.41-.28.7-.43 1.06l-.29-1.83c-3.26-19.79-3.38-20.58-3.3-42.23m7.61-43.08 16.47-22.32c-5.48 17.09-5.73 18.94-8.07 37.74l-.09.71s-1.61 2.13-2.12 2.81c-3.07 4.04-9.71 14.76-13.4 21.8.72-3.9 5.42-30.76 7.15-40.59zm6.95-17.35q.9-2.055 1.77-3.96c-.63 1.41-1.23 2.73-1.77 3.96m41.73-57.05c.32-.35.63-.7.94-1.04-.31.34-.62.68-.94 1.04m135.94-64.39 9.32 4.34c-4.39-1.21-11.35-2.81-19.25-3.42-.18-.02-2.36-.2-5.04-.32zm4.85 1.46c1.79.66 3.87 1.56 5.83 2.73-1.71-.8-3.82-1.79-5.83-2.73m10.51 3.18.2-.35-.22.21.66-1.31 3.24-1.84zm35.97-1.78c.71.02 7.59.2 7.59.2.09.02 8.56 2.1 12.33 3.1-7.47-1.6-14.54-2.64-19.92-3.3m79.67 32.08c-6.71-3.47-15.49-7.65-29.41-14.27-3.68-1.75-7.72-3.67-12.18-5.8l19.97 6.38c.25.11.49.22.7.31 1.37.88 20.92 13.38 20.92 13.38m36.56 31.24c-8.57-6.77-16.71-12.08-16.8-12.13l-27.68-22.09 18.77 10.16 3.54 2.44c.88.86 22.17 21.62 22.17 21.62m26.57 96.46-4.47-39.35 20.53 24.2 2.91 41.6c-7.89-12.82-17.93-25.18-18.97-26.45m-27.87 177.63c-.76-9.91-4.19-20.31-4.71-21.84l25.74-38.55 5.77 24.93zm-32.27 30.72-4.05-18.49.07-.06 30.99-33.42c.82 2.45 4.02 12.61 4.62 22.07zm-70.3 29.77c-4.22-5.31-12.17-13.78-13.74-15.45l30.84-24.59 14.55 19.39zm-149.05-16.03-.3-7.35c2.98 2.19 17.35 12.63 31.54 21.53l.15.11 1.33 9.74c-2.52-1.35-24.53-12.94-32.43-17.1zm-87.92-112.62-.11-.64 14.29-29.09 21.2 43.96-11.57 25.34c-12.66-18.5-23.21-38.44-23.81-39.57m.16-75.45c4.89 21 12.98 43.1 13.63 44.86l-.03.05-.04.05-.01.06c-1.24 2.15-9.33 16.38-14.17 28.72-.57-1.77-10.58-31.14-14.67-43.15.25-.6.54-1.3.86-2.12 1.26-3.13 2.98-7.42 4.71-10.75.22-.43.52-1.04.89-1.76 1.94-3.86 5.48-10.9 8.83-15.96m-2.5-41.45 24.4-24.58c-.62 13.33-.29 24.7 1.09 37.57 0 0 0 .12.01.24.01.06.02.14.02.21-7.27 7.67-16.58 18.76-22.62 26.28-.17-1.24-.34-2.47-.51-3.66-1.57-11.19-2.91-20.86-2.39-36.06m11.58-43.2c7.18-6.91 9.49-9.13 22.46-19.14l-.34.94c-2.39 6.54-4.28 11.71-5.53 16.66-1.38 5.55-2.84 13.02-3.72 19.09l-24.32 24.52c2.4-19.24 2.57-20.51 8.65-39.38zm-3.41 2.32-15.91 21.55c1.26-2.86 11.54-25.75 15.76-35.18 5.5-6.14 11.69-13.02 17.72-19.74zm46.93-65.82 24.64-12.68c-5.03 4.07-15.9 13.21-25.32 23.46l-24.6 17.13c11.92-13.27 22.41-24.92 24.72-27.5.19-.13.37-.27.56-.41m56.05-30.55c-6.47 3.07-17.76 8.72-28.35 15.47-1.2.63-23.96 12.35-23.96 12.35 2.79-2 21.69-15.28 28.64-20.18zm33.34-10.16c-7.14 1.58-17.63 4.15-27.9 7.66l-22 7.1 28.38-12.12zm29.34-2.57c-6-.04-13.13.12-20.37.76l-19.06 2.33 23.75-4.39zm4.47-1.02c-3.27-.33-6.35-.54-9.12-.69-3.07-.18-6.28-.31-9.49-.31-.51 0-1.61.01-1.61.01l-11.14.73 18.71-2.32zm-3.04-1.34c1.8.32 3.48.67 5.02 1.02zm85.05 9.75-31.14-6.91 20.86 1.88 20.51 7.99c-5.41-1.64-9.82-2.85-10.23-2.96m104.83 109.39-.04-.05-14.18-34.98 21.39 20.64.06.09 12.72 37.6c-8.62-11.52-18.99-22.3-19.95-23.3m-59.89 229.74c-5.3-10.06-13.24-21.12-14.53-22.91l30.76-36.53 14.85 25.98zm-80.2 33.03c-7.94-7.84-21.91-21.21-21.91-21.21l30.12-28.07 22.7 24.68zm-47.42 1.37 24.98-22.1 21.86 21.16-25.37 18.07zm3.45 29.08-21.35-12.47 17.36-16.12c1.17.94 9.79 7.87 21.4 17.06zm-.68.45-7.64 5.12-21.52-7.28 7.98-10.22c1.75 1.07 12.28 7.51 21.18 12.38m-29.85-2.43-28.08-14.6 8.53-14.93c2.13 1.55 15.38 11.15 27.57 19.16l.04.04zm-28.12-13.79c2.93 1.64 15.98 8.92 27.67 14.37l.28.14 1.74 4.46c-1.49-.47-21-6.89-28.38-9.31zm-84.25-112.41c2.14 3.07 14.54 20.74 28.51 37.42l-10.23 22.54-29.83-34.67zm-.05-73.23c1.42 3.33 9.83 22.84 20.52 42.45l-20.48 29.37-21.23-44.03c6.38-9.21 13.88-19.04 21.19-27.79m-13-83.91c2.32-1.91 4.29-3.57 6.18-5.16 5.99-5.06 11.17-9.43 24.9-19.74-1.35 15.39-1.42 19.47.31 36.86l-4.33 3.84c-4.85 4.32-8.34 7.12-11.72 9.83-4.47 3.58-8.37 6.71-14.29 12.46-1.39-13.04-1.71-24.5-1.05-38.09m9.96-37.84c.95-.66 16.99-11.71 30.94-20.3-1.5 3.7-6.81 17.39-9.72 32.28-14.13 10.6-19.39 15.03-25.46 20.15-1.71 1.45-3.52 2.97-5.57 4.67.88-5.9 2.25-12.93 3.58-18.23 1.24-4.91 3.12-10.06 5.5-16.59zm51.38-48.43c-4.37 5.95-7.73 10.55-10.35 14.12-8.02 10.94-8.92 12.17-9.59 12.87-12.16 7.45-26.22 17-30.56 19.97l18.92-30.75zm-21.2 5.75c1.75-1.65 3.46-3.2 5.08-4.65zm222.98-22.64c-7.1-2.51-15.56-5.24-24.54-8.03l-3.11-1.05.28.17c-6.89-2.14-26.33-8.03-28.93-8.82l28.11 4.27c.47.22 28.19 13.46 28.19 13.46m34.31 25.16c-11.52-6.3-26.86-13.64-27-13.71l-29.19-17.84 28.81 9.71zm19.86 83.53-.05-.05-5.59-36.39 27.68 23.35 4.44 39.36c-9.87-10.6-25-24.87-26.48-26.27m21.2 70.25 5.98-42.01 19.2 26.93-7.7 43.72c-6.97-13.64-16.39-27.06-17.46-28.58zm-42.12 85.36c-8.47-11.45-22.18-28.04-23.88-30.1l24.12-41.83 24.63 30.71zm-64.52 69.22 33.2-30.92 14.52 22.94-33.14 27.38c-4.64-7.19-13.1-17.59-14.58-19.4m-54.35 2.8-27.67-26.96 29.66-31.13c1.81 1.95 13.29 14.31 28.16 30zm-145.73-14.59c2.95 2.78 17.28 16.22 32.23 28.28l.09.08.6 14.31-33.26-24.49zm10.34-23.4c2.45 2.63 17.96 19.18 31.46 31.91l.04.05-9.28 19.05-32.47-28.52zm-8.18-68.12c2 3.17 15 23.67 27.18 39.95l-19.13 26.96c-14.46-17.3-27.23-35.62-28.56-37.54zm8.2-74.02 19.14 40.73-27.26 32.03c-11.04-20.31-19.63-40.44-20.5-42.49zm-10.29-78.5 33.33-23.61c-.36 3.56-1.75 18.76-.65 33.09l-32.47 27.38c-1.69-17.12-1.59-21.16-.21-36.86m10.1-33.35c.1-.1.35-.36.5-.52 12.6-7.3 29.79-16.78 33.78-18.97l-10.9 28.26-33.29 23.57c3.32-16.44 9.47-31.28 9.91-32.34m20.8-28.16c.97-.42 18.63-8.03 33.49-13.87-3.49 3.14-12.45 11.6-19.57 21.49-.82.45-19.25 10.57-33.16 18.59 1.21-1.62 14.47-19.71 19.24-26.21m-4.9-8.76 31.51-11.15-27.01 19.31-30.63 15.72zm61.94-23.15c-6.86 2.08-17.85 5.73-28.18 10.45l-29.58 10.47c3.13-1.66 22.53-12 29.65-15.79zm8.58-4.32 18.62-.08c-.25.02-.47.04-.71.06-5.56.45-11.88 1.12-18.21 2.14-.86.13-26.8 4.85-26.8 4.85zm167.32 58.52-.23-.16-.06-.05-23.5-25.27 28.91 14.87 22.24 29.18c-10.41-7.62-25.3-17.26-27.36-18.57m20.74 69.46c-12.16-10.45-29.53-24.38-31.24-25.74l-.05-.05-6.41-32.81 32.1 22.24zm-192.01 227.66 24.93-25.71c1.83 1.81 27.63 26.92 27.63 26.92l-25.03 22.15zm9.57 40.03-27.69-19.23 17.64-20.28c1.9 1.66 14.47 12.62 27.47 23.32zm-28.73-19.12.04.05-8.56 14.98-31.83-21.74 9.26-19.02c2.38 2.06 17.51 15.16 31.09 25.73m-30.99-231.33c1.24 2.96 8.6 20.42 18.24 38.37l-30.72 32.81-19.12-40.7zm-9.58-37.21 9.32 36.47-31.6 30.49c-6.34-19.12-9.9-37.6-10.26-39.52zm1.26-34.42 32.58-22.28-1.48 28.83-31.85 26.52c-1.11-15.36.58-31.54.75-33.07m32.19-51.98c1.94-1.04 24.1-8.67 32.61-11.58-4.25 2.74-12.89 8.69-19.83 15.91l-32.82 17.16c8.82-11.88 19.98-21.43 20.04-21.49m-6.37-6.13 33.66-8.54c-9.78 4.97-26.89 13.66-27.61 14.04-11.91 4.63-26.26 10.71-32.41 13.33zm15.15-6.14c.95-.35 1.89-.68 2.81-1-.92.33-1.86.66-2.81 1m186.4 47.77c-12.5-7.15-29.34-16-31.59-17.17l-.3-.16-24.37-20.44 32.99 12.76zm18.17 34.11-.04-.03-15.36-31.55 28.47 19.45 14.2 35.06c-10.47-9.5-25.95-21.87-27.27-22.93m-27.2 10.31c-13.97-10.72-31.43-23.73-32.94-24.85l-6.93-28.61 33.48 20.74zm27.39 67.22c-11.98-11.7-28.93-27.15-30.79-28.84l-.05-.05 4.26-36.78 31.45 25.95zm-14.7 42.95 15.1-41.51 25.63 28.99-16.13 43.18c-8.74-11.97-22.93-28.68-24.58-30.61zm-25 41.95c-11.75-13.18-28.53-30.9-30.48-32.95l23.99-40.16 30.64 31.31zm-30.59 40.31 30.65-39.13 23.92 30.15-30.83 36.56c-8.81-10.82-21.91-25.53-23.74-27.58m-135.66 82.05-31.19-25.82 18.19-23.87c2.12 2.11 16.45 16.38 30.67 29.36zm-18.14-117.85-25.99 31.47-27.2-39.98 27.25-32.02c1.85 3.07 14.22 23.49 25.94 40.53m5.29-73.93c1.79 2.92 13.77 22.47 25.21 38.94l-30 34.43-25.95-40.53zm13.25-69.72 17.71 35.44-30.82 33.09c-9.87-18.41-17.34-36.27-18.2-38.35zm-8.97-33.53c.55 3.01 3.34 17.51 8.67 32.84l-31.24 30.1-9.3-36.41zm26.35-60.6 16.23-8.18c-2.54 2.84-8.14 9.58-11.72 17.54l-28.42 19.94c4.16-11.98 11.09-22.2 11.76-23.17zm-6.75 1c3.44-3 6.91-5.63 9.81-7.68zm35.63-19.4c-5.66 1.53-12.56 3.66-18.99 6.4-.43.14-19.1 6.5-29.31 10.2 6.8-3.46 17.83-9.07 24.46-12.43zm49.71 2-.09-.01c-8.38-1.32-19.34-2.7-27.23-3.65l27.21 1.27 25.52 7.79c-12.31-2.79-25.23-5.36-25.41-5.4m33.23 13.93-29.54-12.39 32.44 7.13 27.98 17.1c-13.43-5.47-30.7-11.77-30.88-11.84m43.21 50.47-.06-.05-16.27-27.32 32.7 17.84 15.31 31.45c-12.67-9.18-30.18-20.92-31.68-21.92m-34.36-21.29-.06-.05-16.95-22.47 33.82 15.78 16.16 27.14c-13.55-8.59-32.97-20.4-32.97-20.4m52.26 164.03c-11.71-12.47-28.6-29.26-30.57-31.21l14.75-39.28 30.92 28.97zm-177.55 85.26 29.59-33.76c2 2.39 15.55 18.51 30.55 35.13l-29.69 31.15zm-25.7 29.38 25.22-28.84c1.99 2.22 15.62 17.31 30.44 32.5l-24.96 25.74zm-.97.03-18.2 23.92-31.54-31.99 19.12-26.92c2.16 2.62 16.72 20.14 30.62 34.99m42.26-240.83c1.25 2.61 8.22 16.87 17.52 31.89l-27.65 32.53-17.69-35.39zm-8.63-29.29v.07l.14-.14 8.19 28.65-27.8 29c-5.52-15.98-8.28-31.01-8.6-32.8zm22.23-22.68.01.22.14-.19c.63 2.78 3.1 12.78 7.98 23.79l-21.48 26.78-8.17-28.58zm-9.15-10.73 10.62-8.18-.24.39.99-.87c-.78 2.75-2.63 10.22-2.26 18.42l-21.56 22.06c-.5-11.65 1.86-22.62 2.14-23.9zm-7.76 2.93c2.08-3.62 4.36-6.75 6.28-9.16zm111.34 20.9c-11.43-6.78-30.96-18.24-30.96-18.24l-17.3-16.99 31.55 13.07zm-1.52 174.08-32.11-34.05 22.95-37.68 33.14 31.58zm.1 1.14 30.48 32.96-30.68 39.13-29.18-32.54zm-61.44 3.81c1.93 2.24 14.29 16.58 31.13 35.76l-31.27 36.34-30.56-35.16zm-91.62 33.64c2.05 2.73 16.12 21.37 29.91 37.62l-25.24 28.86-30.66-35.03zm30.48-35c1.91 2.57 14.65 19.74 29.51 38.3l-29.6 33.78-29.92-37.64zm30.64-36.5-30.57 35.34-25.19-38.91 30.83-33.1c1.77 2.77 13.58 21.1 24.93 36.67m3.24-69.77.03.04c1.89 2.7 13.66 19.36 25.01 33.69l-27.81 35.46-24.91-36.64zm9.09-103.23.03.52.21-.5c.75 2.49 3.17 9.87 7.88 18.36l-12.95 23.43c-5.19-11.86-7.57-22.46-7.87-23.83zm-12.61 11.62c.2-2.65.55-5.11.95-7.15zm-6.05-15.22 17.78-8.8c-1 .79-1.91 1.58-2.77 2.38-.41.36-.81.74-1.22 1.13a43.7 43.7 0 0 0-4.7 5.29c-.64.84-1.06 1.45-1.18 1.62l-20.92 16.09 11.76-17.09c.13-.06.55-.27 1.25-.62m56.12-3.73-2.69-.82.4.25c-7.91-1.95-17.09-4-23.59-5.42l28.9 3.75 25.75 10.8c-13.33-4.15-28.51-8.49-28.77-8.56m20.23 45.79-7.23-23.82 31.62 18.64 6.9 28.48zm28.08 58.05 4.07-33.23 33.12 25.01-4.25 36.74c-13.83-12.12-31.18-27.01-32.94-28.52m18.03 68.57c-10.73-10.27-31.01-29.57-33.1-31.56l14.84-36.27 33.03 28.6zm-101.95-177.99c-.45 1.11-.8 2.24-1.06 3.35l-1.15 3.05.3 5.37-12.48 17.67 2.39-18.08c.53-.47 7.06-6.2 12-11.36m45.68 24.99s-24.37-14.48-25.13-14.96c-.82-.75-5.83-5.18-13.26-9.3l21.89 8.07zm9.18 25.6-26.18-20.86-7.44-18.38 1.98 1.22-.17-.16c5.1 3.11 11.64 6.96 24.66 14.6zm13.45 95.3-30.81-31.34 14.02-32.55c2.14 1.91 14.3 12.81 31.6 27.67zm-53.31 3.94 22.14-34.63c2.14 2.25 15.84 16.63 30.84 31.37l-22.92 37.65zm2.11 72.92 28.03-37.37c2.07 2.23 15.07 16.15 32.12 34.05l-29.36 39.53-31.13-35.76zm19.53-108.09-22.11 34.58-24.99-33.71 21.7-31.04c1.94 2.42 13.85 17.28 25.4 30.17m-29.77-82.29.03-.2 17.6 22.8-13.32 28.19-17.48-27.65 12.98-23.48zm-8.04-20.5c.32-.77 2.66-6.66 2.79-12.1.7 1.44 1.53 2.92 2.4 4.35.09.14.74 1.19.98 1.55.84 1.32 1.82 2.77 2.97 4.32.64.88 1.12 1.52 1.32 1.77l-2.78 18.24zm1.18-9.37-1.05 5.13c.12-1.27.35-2.71.71-4.22zm9.02.2c-.74-.47-1.51-.97-2.33-1.5 3.55 1.95 6.55 3.97 8.83 5.67-1.89-1.21-3.97-2.54-6.5-4.17m42.74 78.56 4.03-29.02s14.98 11.21 31.53 23.46l-4.05 33.16zm-41.79-69.77c-.12-.39-1.84-6.11-6.26-11.3 1.8 1.18 16.5 10.53 16.5 10.53l7.26 17.93c-10.16-9.2-17.37-17.03-17.5-17.16m-6.36-10.23c1.99 2.46 3.39 4.95 4.29 6.91zm47.52 79.39-25.85-25.86 3.35-24.13.64.57-.04-.11c3.17 2.63 13.11 10.79 25.91 20.62zm-.17.84-13.99 32.47-25.34-30.12 13.37-28.31c2.16 2.26 14.75 15.36 25.96 25.96m-43.92-50.29 2.83-18.68.6.77-.09-.33c2.36 2.5 8.98 9.37 17.61 17.12l-3.32 23.95zm7.51 119.24c2.09 2.48 15.49 18.29 30.09 34.4l-28.34 37.8-29.59-36.71zm-58.89 71.42 30.59-35.36c1.9 2.46 14.65 18.86 29.59 36.72l-30.68 36.93zm102.5-201.88c-13.09-5.53-30.35-12.52-30.35-12.52l.09.09c-4.66-1.78-18.76-6.97-20.95-7.76l28.43 6.47zm-64.7-15.15c.51-.51 1.12-1.06 1.7-1.59.47-.41.94-.83 1.38-1.2l.45-.36c.12-.1.22-.17.33-.26l-6.31 6.04c.72-.81 1.51-1.69 2.45-2.63m69.62 17.25-.23-.1-24.72-14.9 33.55 10.13 23.79 19.95c-13.35-6.44-30.42-14.18-32.39-15.08m-74.31-18.3c.11-.06.22-.11.33-.17 1.47-.71 2.89-1.37 4.21-1.95-2.93 1.45-5.81 2.88-8.31 4.12.3-.17.61-.34.92-.51.96-.51 1.92-1.03 2.85-1.49m.35 111.11c-9.52-15.4-16.57-29.98-17.46-31.84l21.53-26.85.05.12.04-.07c1.49 2.67 8.35 14.75 17.5 27.65zm-38.29-91.93 19.53-15.29 22.82-6.77c-1.39.62-2.68 1.23-3.92 1.85-3.59 1.73-7.52 3.88-11.09 6.35 0 0-.25.17-.34.24zm126.25 269.63-32.26 33.84-28.17-30.03 31.27-36.33c1.81 2.04 29.16 32.52 29.16 32.52m-141.54-281c11.93-4.23 22.41-7.94 27.91-9.9l21.65-1.83a251 251 0 0 0-17.02 3.48zm28.57 18.07-.05.11.35-.27c-.62 3.06-2.5 13.25-1.95 23.91l-28.01 24.73 1.47-28.7zm-17.39-3.83c-2.08 3.18-7.91 12.57-11.44 23.19l-32.26 22.08 10.84-28.08zm121.32 325.83c-8.46-9.48-20.84-22.69-22.72-24.7l32.23-33.83 23.75 27.59zm112.15-194.35-5.65 39.58c-9.29-11.42-23.94-27.13-25.52-28.82l-.04-.05 4.87-39.73 26.69 26.54zm-141.4-157.77h-.05c-.15-.02-11.39-1.36-24.18-1.76 9.29-.38 17.8-.56 20.03-.61h.62l22.75 5.04c-9.6-1.46-18.65-2.6-19.17-2.67m-200.97 161.3c6.13-5.99 10.07-9.15 14.63-12.8 3.39-2.71 6.89-5.51 11.76-9.85.1-.09 2.65-2.36 3.99-3.54.64 3.37 4.19 21.19 10.31 39.53l-28.6 30.24-.68-1.95c-5.15-14.64-7.09-20.16-11.41-41.63m336.78 109.23c-5.08-10.7-14.73-26.5-15.84-28.32l16.1-43.19 17.54 28.86zm-360.02-82.24c5.92-7.39 15.28-18.55 22.64-26.36 4.26 21.1 6.22 26.67 11.34 41.24l.81 2.31c-7.3 8.71-14.8 18.53-21.21 27.74-1.36-3.74-8.98-24.94-13.58-44.93m318.93 95.85 24.83-41.25c1.73 2.83 11.08 18.24 15.87 28.49l-25.88 38.7zm47.21 12.1-5.73-24.8 17.79-42.63c1.21 3.22 5.59 15.47 7.4 27.27zm-15.75-225.49 16.63 25.76c-9.14-9.74-19.28-18.32-19.76-18.72l-.08-.08-22.21-29.13 21.42 16.17c.13.13.25.26.38.38 0 0 2.91 4.52 3.62 5.62m-129.69-73.83s-.62-.03-1.6-.06c-2.97-.12-5.94-.15-8.83-.11-3.08.01-6.63.09-10.42.29l14.2-2.05 21.56 3.27zm-2.39-2.53c-.47-.01-4.24-.12-4.24-.12s-.38.02-.85.04c-5.23.22-10.17.79-14.33 1.44-1.39.2-2.8.43-4.25.69l10.62-3.37 16.07 1.41zm-193.6 76.74 25.69-17.88-18.9 30.75c-13.85 10.67-16.08 12.81-23.45 19.91l-1.27 1.22 17.86-33.92zm-1.3 234.51 29.69 34.49.06.09-.34 18.24c-15.25-13.93-29.48-29.88-30.66-31.2-.61-7.25.83-18.58 1.25-21.62m249.29 81.56-3.86-14.43.1-.07 32.96-27.28 4.06 18.51zm-7.75 11.04-25.94 9.31 1.52-3.16 30.9-15.67-6.39 9.48zm117.5-116.44-19.61 34.98c2.91-9.51 3.49-18.69 3.53-19.39l18.98-39.17zm11.57-62.7-7.99 35.19c-2.16-12.53-6.9-25.07-7.42-26.43l-.01-.08 7.65-43.45 9.51 27.12zM211.893 4.037l1.28 1.61c.41.81.74 1.81.83 3.05l-.1-.01-1.2-2.08c-.48-1.1-.72-1.98-.81-2.57m-152.5 354.27c-.07-.09-.15-.18-.23-.28-.73-1.06-5.93-8.87-8.78-17.5 3.79 4.2 16.58 18.18 30.11 30.48l.06.06c.17.42 2.5 5.86 7.01 11.69-6.77-5.86-20.25-17.56-28.17-24.45m65.94 47.8c-1.1-.58-2.55-1.35-4.3-2.29-13.22-7.21-26.88-15.79-29.52-17.63-.11-.1-.3-.26-.56-.49-4.92-5.29-7.97-11.09-9.18-13.64 4.02 3.21 18.17 14.39 32.73 24.03l.13.09zm299.15-221.32-.06-.33c-.04-.4-.13-.99-.29-1.99l-.61-3.99c-1.65-7.09-5.79-24.97-5.79-24.97l-2.91-9.03-5.57-14.33c-.06-.12-5.91-12.26-8.46-17.41l-18.69-28.59c-2.77-3.56-12.65-14.89-24.01-26.18 0 0-8.5-7.42-9.29-8.07-.25-.2-3.54-2.76-3.91-3.06-.65-.41-5.12-3.3-7.94-5.11l-18.28-12.56s-4.12-2.29-4.69-2.59c0 0-1.23-.64-3.35-1.69l-.26-.12c-3.8-1.87-10.44-5.01-19.02-8.66l-3.42-1.28c-2.12-.79-3.18-1.19-4.26-1.53 0 0-.06-.03-.14-.05-.52-.21-1.59-.55-3.73-1.22l-7.95-2.5c-3.48-.92-11.34-2.86-12.37-3.1-.11-.07-.27-.1-.44-.13-.15-.02-.34-.05-.5-.08l-.51-.11c-1.06-.23-1.06-.23-6.38-1.17l-6.75-1.19-2.66-.36.27-.04-9.05-.97c-.22-.02-6.1-.46-8.66-.62l-4.86-.22.14.05s-2.67-.06-3.03-.07l.19-.06-12.73.23-8.91.55.13.05c-.66.07-10 1.08-10 1.08l-4.82.71c-.82.08-1.31.2-2.11.35-.36.06-15.68 3.62-15.68 3.62-1.23.23-3.75.73-3.75.73l-5.71 1.51-14.95 5.03c-.03.02-.06.06-.06.06-3 1.05-4.92 1.87-9.08 3.66l-1.73.74c-6.82 3.69-12.01 6.49-15.95 8.62-12.71 6.86-12.71 6.86-15.11 8.45l-26.27 20.55-8.84 8.58-14.99 17.15c-1.16 1.56-5.03 6.69-5.84 7.85-.05.09-8.78 13.36-8.78 13.36l-4.51 7.76-14.15 31.7-3.98 12.61-4.85 21.42s-3.09 34.99-3.09 35.99l-.01 3.49.12-.59c.28 9.37 1.76 18.77 3.26 27.88.82 4.95 1.66 10.08 2.29 15.1l2.33 12.08 8.03 23.14c.1.2 9.42 19.48 13.79 27.49l.89 1.47c1.08 1.79 1.08 1.79 3.51 5.52l2.56 3.92 15.73 20.35 8.39 9.05c1.17 1.17 3 2.79 7.47 6.86 2.33 2.13 5.39 4.92 9.48 8.67l17.77 13.12 12.5 7.69c.12.06 11.66 6.02 17.71 8.87l2.31 1.18-.35-.32 7.71 3.34 10.56 3.83 12.72 3.83-.37-.21c1.57.39 3.01.74 4.17 1.02 7.58 1.85 7.58 1.85 13 2.84l1.85.34c.36.07.82.14 1.88.3l3.04.48s10.07 1.22 11.82 1.37l.61.05s.09.02.13.02c0 0 15.1.64 16.94.72v.06l.39-.05c.18 0 5.6-.08 7.77-.13l.09-.01.06.01s9.56-.57 10.54-.66l9.19-1.18 24.01-4.5-.07.15.79-.28.15-.03 19.66-6.06 5.59-2.11 24.16-11.37 10.6-6.22 22.78-16.44 6.18-5.3c.1-.1 10.74-9.94 24.2-25.45 0 0 .82-1.03 1.13-1.41.68-.85 1.08-1.35 1.54-2.02.12-.18 12.12-17.6 16.85-25.27 0 0 9.43-18.84 10.08-20.28l.04.01c.01-.04.09-.25.24-.61.12-.29.28-.69.48-1.17l-.03.18s2.54-6.49 3.8-9.64c1.04-3.07 3.73-11.1 3.73-11.1.03-.15 4.03-15.96 5.57-22.73l1.53-9.3c.02-.2 1.73-20.73 2.1-29.49z"
        style="fill:#c6c6c6;fill-rule:nonzero" />
</svg>