<?xml version="1.0" encoding="utf-8"?>
<svg width="100%" height="100%" viewBox="0 0 504 482"
    xmlns="http://www.w3.org/2000/svg">
    <style>
        svg {
            stroke-linecap: round;
            stroke-linejoin: round
        }

        .line {
            fill: none;
            stroke: #c6c6c6;
            stroke-width: 1px
        }
    </style>
    <g id="mesh">
        <path class="line"
            d="M437.1,381.2L426.1,385.8L427.4,384.2L438.2,379.7L437.7,380.5Z" />
        <path class="line"
            d="M423.2,386.7L408,388.7L409.9,386.7L426.4,384.3L424.9,386.3Z" />
        <path class="line"
            d="M402.3,389.6L379.5,388.8L381.1,388.4L403.7,389.5Z" />
        <path class="line"
            d="M323,447.1L322.1,441.6L324.6,420.4L325.9,425.9Z" />
        <path class="line"
            d="M310.3,474.7L308.8,469.7L316.2,460.2L317.4,465.7Z" />
        <path class="line"
            d="M231.1,432.1L225.4,426.6L225.7,425.5L255.1,451.9L231.3,431.9Z" />
        <path class="line"
            d="M203.7,422.6L187.6,421.4L192.7,414.2L214.6,423.1L204.1,422.5Z" />
        <path class="line"
            d="M184.2,430.8L181.5,432.3L182.2,429.5L191,427.1Z" />
        <path class="line"
            d="M117.9,453.5L126.1,456.1L126.7,456.8L118.4,453.9Z" />
        <path class="line"
            d="M102.9,431.4L103.3,428L107.8,439.7L107.4,443L104,435Z" />
        <path class="line"
            d="M80.6,426.3L79.7,426L93,425L98.2,426.8L85.8,427.7L80.6,426.3Z" />
        <path class="line" d="M79.4,426L79.3,426.2Z" />
        <path class="line" d="M58.8,409.5L63.7,415.5L65.5,419L60.5,413.4Z" />
        <path class="line" d="M69.3,352.4L72.2,345.8L67.2,359.1L63.9,366.6Z" />
        <path class="line"
            d="M72.9,315.8L67,309.6L76.6,315.6L77.1,319.3L73.1,315.5Z" />
        <path class="line" d="M22,311L28.8,310.8L32.1,311.7L24.1,311.5Z" />
        <path class="line" d="M15.9,308.8L24.2,308.6L27.5,310.2L18.6,310.2Z" />
        <path class="line" d="M8.5,304.3L10.6,305.3L12.1,306.8L9.5,305.4Z" />
        <path class="line" d="M5.2,299.9L8.2,301.4L9.9,304.3L6.5,302.3Z" />
        <path class="line" d="M3.5,295.5L6.9,296.9L7.9,300.5L4.6,299Z" />
        <path class="line" d="M2.9,277.8L3.5,278.5L2.5,283.3L2.1,282.3Z" />
        <path class="line" d="M4.7,272L5.7,272.2L3.7,277.8L3,277Z" />
        <path class="line" d="M7.7,266.2L8.9,265.8L6,271.6L5,271.4Z" />
        <path class="line" d="M11.7,260L13,259.4L9.4,264.9L8.2,265.3Z" />
        <path class="line" d="M16.8,253.7L18.3,252.8L14.3,257.9L12.6,258.9Z" />
        <path class="line" d="M22.6,247.3L24.2,246.3L19.9,251L18.2,252.1Z" />
        <path class="line"
            d="M21.3,206.2L15.7,193.8L27.8,212.3L34.2,225.7L22.8,208.9Z" />
        <path class="line" d="M9,180.6L17.5,199.4L12.1,189.5Z" />
        <path class="line" d="M4.6,161.3L8.2,157.8L9.6,168.4L6.3,172.3Z" />
        <path class="line" d="M6.4,153.2L9.7,149.8L8.1,156.9L4.8,160.2Z" />
        <path class="line" d="M16,143.4L23.7,143.5L19.1,148.5L11,148.4Z" />
        <path class="line" d="M24.2,141.2L30.7,141.1L24.4,142.8L18.4,142.8Z" />
        <path class="line"
            d="M47.9,142.3L48.5,142.1L59.3,146L49.7,145.1L37.3,141.3L47.4,142.1Z" />
        <path class="line" d="M58.2,125L58.4,124.9Z" />
        <path class="line" d="M54.9,108.9L58,122.9Z" />
        <path class="line" d="M58.5,58.5L64,53.5L62.4,56.6L56.8,61.5Z" />
        <path class="line"
            d="M65.7,52L74.9,50.1L73,55.2L63.3,56.4L65.3,52.3Z" />
        <path class="line" d="M69.4,50.4L76.6,48.6L75.3,49.3L68.9,50.6Z" />
        <path class="line"
            d="M123.3,60.6L123.1,61.1L123.7,61.4L130.8,41.5L129.8,46.1L122.5,70L123.3,62.1L123.7,61.5L117.4,58.4L119.3,58.8Z" />
        <path class="line"
            d="M207.1,31.6L208.8,33.8L206.8,34.2L193.7,16.8L195.1,17.4Z" />
        <path class="line"
            d="M207.9,31.2L216.2,18.7L214.5,26.7L209.6,33.8L207.8,31.4Z" />
        <path class="line"
            d="M257.1,4.7L266,7.7L263.8,8.2L253.9,4.5L255.1,4.4Z" />
        <path class="line" d="M278,15.7L275.6,17.4L264.5,8.7L267.1,8.1Z" />
        <path class="line"
            d="M279,16.5L289.8,29L288.8,30.2L287,31.4L276.1,17.9L278.6,16.1Z" />
        <path class="line" d="M315.9,12.3L316.5,12.4L289.8,30.4L291.3,29.2Z" />
        <path class="line" d="M420.3,158L412.6,154L406.5,143.4L414.4,149.6Z" />
        <path class="line" d="M426.3,163.3L426.4,163.1Z" />
        <path class="line" d="M432.1,166.2L432.2,165.9Z" />
        <path class="line" d="M432.9,166.6L429.6,165.3L431.8,166.1Z" />
        <path class="line"
            d="M487.2,188.8L477.8,184.9L475.6,183.3L485.5,187.4Z" />
        <path class="line" d="M490.2,191.3L490.4,191.1Z" />
        <path class="line" d="M491,192.3L480.9,188.2L479,186.1L489.4,190.5Z" />
        <path class="line"
            d="M499.4,202.9L496,199.8L495.4,198.1L498.8,201.5Z" />
        <path class="line" d="M488.1,240L481.8,242.3L485.1,238.7L490.9,237Z" />
        <path class="line" d="M484.2,243.9L476.8,247L480.5,243.5L487,241.1Z" />
        <path class="line" d="M479.2,248L471.2,251.7L475.3,248L482.4,245.4Z" />
        <path class="line"
            d="M473.8,252.1L465.4,256.1L469.2,252.9L476.8,249.8Z" />
        <path class="line"
            d="M467.4,256.4L459.1,260.5L462,258.3L470.2,254.5Z" />
        <path class="line"
            d="M460.7,260.8L453.2,264.8L455.2,263.2L462.5,259.6Z" />
        <path class="line" d="M444.9,271.1L445,271.3Z" />
        <path class="line" d="M438.2,276.2L438.3,276.3Z" />
        <path class="line" d="M423.7,288.8L424,288.9Z" />
        <path class="line"
            d="M423.4,289.6L419.5,298L418.7,293.2L425.7,284.9L424.7,286.6Z" />
        <path class="line" d="M423.5,290.4L423.4,290.4Z" />
        <path class="line" d="M447.5,348.3L446.4,345.1L446.8,345.8Z" />
        <path class="line" d="M447.9,367.8L450.1,361.3L447.9,368.3Z" />
        <path class="line"
            d="M446,372.3L439.7,377.9L439.9,375L447.2,368.6L446.9,371.2Z" />
        <path class="line" d="M439.2,378.9L439.3,379Z" />
        <path class="line"
            d="M427.8,379.9L439.3,375.3L439,378.5L427.5,383.4Z" />
        <path class="line" d="M410,386L409.9,382L427.1,380L426.8,383.6Z" />
        <path class="line"
            d="M381.1,387.7L351.8,386.6L351.6,382.4L383.3,385.4L381.5,387.7Z" />
        <path class="line" d="M349.3,390.5L353.2,390.4L348.2,391.1Z" />
        <path class="line" d="M331.7,400.1L341.5,394.7L331.6,403.5Z" />
        <path class="line"
            d="M321.6,439.8L316.4,426.3L319.4,407.8L324.2,418.6Z" />
        <path class="line"
            d="M316.7,459.1L321.7,443L322.7,449.3L317.9,464.6L316.7,459.4Z" />
        <path class="line"
            d="M308.5,468.9L305.1,456.4L312.4,445.2L316,459.3Z" />
        <path class="line"
            d="M300.1,478.5L298.3,473.8L308.2,470.1L309.8,475.1Z" />
        <path class="line" d="M255.6,452.4L265.2,462.7L255.5,452.8Z" />
        <path class="line"
            d="M194.8,406L191.3,401.3L219.2,415.8L224.4,423.6Z" />
        <path class="line"
            d="M192.4,413.5L167.8,418L170.7,405.1L194.1,406.6Z" />
        <path class="line"
            d="M186.8,421.5L161.6,434.6L167.6,418.7L191.9,414.2Z" />
        <path class="line" d="M140.4,454.6L157.8,446.2L158,448.8L141,456.3Z" />
        <path class="line"
            d="M139.8,454.8L140.4,456.4L127.9,457.2L126.9,456.1Z" />
        <path class="line"
            d="M108.3,440.3L115.7,447.5L115.5,451.6L108,444.2Z" />
        <path class="line"
            d="M103.5,426.5L110.2,424.8L111.2,427.9L108.1,438.6L103.5,426.6Z" />
        <path class="line" d="M102.9,426.7L102.6,428.4L102.5,426.8Z" />
        <path class="line"
            d="M119,420.5L123.4,419.4L110.3,424.1L103.9,425.8Z" />
        <path class="line"
            d="M138.7,403.3L143.8,406.4L119.4,419.6L113.5,417.6Z" />
        <path class="line"
            d="M90.1,417.9L109.9,410.1L112.4,417.4L93.2,424.3Z" />
        <path class="line" d="M64.2,405L74.4,407.9L74.5,418.5L64.3,415.1Z" />
        <path class="line" d="M58.1,396.9L63.6,404.7L63.7,414.4L57.6,406.8Z" />
        <path class="line" d="M57.5,396L57.2,401.9L56.6,391.6L57.8,385.1Z" />
        <path class="line" d="M64.5,378.2L69,387L63.8,403.9L58.2,395.9Z" />
        <path class="line" d="M78.4,324.9L77.6,327.7L77.8,321.9Z" />
        <path class="line"
            d="M77.2,315.3L74.6,301.8L80.6,311.7L78.7,323.1L77.7,318.3Z" />
        <path class="line" d="M65.1,307.7L61.5,303.5L75.3,308.4L76.4,314.7Z" />
        <path class="line" d="M51.7,310.6L46.7,308.5L64.3,307.8L68,311.5Z" />
        <path class="line" d="M45.3,308.6L49.5,310.6L35.4,311.7L30.9,310.7Z" />
        <path class="line" d="M17.8,301.1L20,304.7L11.3,305L9.3,301.7Z" />
        <path class="line" d="M16.4,296L17.6,300.4L8.8,301.1L7.6,297Z" />
        <path class="line" d="M2.1,287.8L2.1,284L2.3,284.5Z" />
        <path class="line" d="M4.1,278.7L8.8,278.5L7.2,284.6L3,284.1Z" />
        <path class="line" d="M6.4,272.3L11.8,270.9L9,277.8L4.3,278Z" />
        <path class="line" d="M9.8,265.5L15.7,263.3L12.1,270.1L6.8,271.5Z" />
        <path class="line" d="M19.9,251.9L26.6,248L22.1,254L15.7,257.2Z" />
        <path class="line" d="M26.3,244.9L33.3,240L27.7,246.7L21.7,250Z" />
        <path class="line" d="M29.7,239.7L31.7,238.3L27.1,243.4L24.3,245.4Z" />
        <path class="line" d="M34.9,234.7L31.6,237.6L34.7,234.1Z" />
        <path class="line" d="M37.2,234.5L37.1,238.5L32.9,227.3Z" />
        <path class="line" d="M36.1,229.5L38.4,235.7L28,217.6Z" />
        <path class="line" d="M30.1,206.7L52.3,236L49.3,239.3L28.4,212.1Z" />
        <path class="line" d="M17.1,158.3L18.9,170L10.2,168.3L8.8,157.4Z" />
        <path class="line" d="M17.1,157.7L8.8,156.8L10.5,149.1L18.8,149.2Z" />
        <path class="line" d="M62.1,146.9L84.3,157L72.9,156.2L51.4,145.9Z" />
        <path class="line" d="M62.9,146.1L68.5,147.8L58.3,145Z" />
        <path class="line" d="M63.8,145.7L63.3,145.5L62.4,140.8Z" />
        <path class="line" d="M63.1,118.8L62.7,129.7L56.8,113.4L55.8,99.4Z" />
        <path class="line" d="M54.9,71.8L51.9,79.8L52.2,72.9L55.2,64.9Z" />
        <path class="line" d="M62.2,66.5L55.6,71.2L56,63.1L62.2,57.8Z" />
        <path class="line" d="M73,55.9L74,66.5L62.9,66.4L62.9,57.1Z" />
        <path class="line" d="M88.9,60.3L73.7,55.3L75.6,50L89.6,53.5Z" />
        <path class="line" d="M109.5,63.1L90.5,53.2L93.3,50.6L110.8,59Z" />
        <path class="line"
            d="M121.8,73.5L114,100L114,89.8L122.4,65.6L121.5,73.4Z" />
        <path class="line" d="M128.1,66.1L128.4,66.1Z" />
        <path class="line" d="M128.1,66.6L121.1,90.6L122.1,73.5L129.4,50Z" />
        <path class="line" d="M152.9,10.5L144.9,16.8L153.6,9.5Z" />
        <path class="line" d="M164.4,7.7L153.9,10.2L155.8,7.7L166.5,4.6Z" />
        <path class="line" d="M176.7,10.3L165.1,7.7L167.4,4.4L179,6.7Z" />
        <path class="line" d="M192.9,15.9L184.4,9.6L193.3,16Z" />
        <path class="line" d="M204,40.9L190.2,21.1L192.6,16.5L206.2,34.6Z" />
        <path class="line" d="M209.3,34.4L226.7,53.1L223.8,56.5L207.2,34.8Z" />
        <path class="line" d="M212.8,37.2L210.1,34.3L214.2,28.2Z" />
        <path class="line" d="M225,16.1L215.3,25.8L217.1,17.6L227.7,9.2Z" />
        <path class="line" d="M236.5,11.4L225.9,15.7L228.7,8.5L239.7,4.8Z" />
        <path class="line" d="M252,4.3L252,4.3Z" />
        <path class="line" d="M260.7,16.2L249,11.6L252.2,4.7L263.3,8.8Z" />
        <path class="line" d="M273.2,26.2L261.3,16.5L263.9,9.1L275.3,17.9Z" />
        <path class="line" d="M280.4,35.4L273.7,26.7L275.8,18.5L286.4,31.7Z" />
        <path class="line" d="M290.4,28.7L289.3,27.4L290.5,28.8Z" />
        <path class="line" d="M314.9,18.9L287.6,36.7L290.1,31L316.7,13.1Z" />
        <path class="line" d="M337,3.5L317.3,11.9L336.4,3.2Z" />
        <path class="line" d="M352.4,2.4L337.8,3.3L352,2.1Z" />
        <path class="line" d="M372.5,21.8L364.4,12.6L365.5,7.9L373.4,17.1Z" />
        <path class="line" d="M376.9,37.4L373,22.5L373.8,18.5L377.8,33.2Z" />
        <path class="line" d="M376.8,58.5L377.2,38.8L377.8,36.2L377.7,55.4Z" />
        <path class="line" d="M374.7,81.5L374.4,82.4L377.2,59.6Z" />
        <path class="line" d="M373.9,87.6L373.6,87.5Z" />
        <path class="line" d="M374,86.8L374.4,85L373.6,96.1Z" />
        <path class="line"
            d="M376.6,108.5L378.5,111.1L367.3,98.8L364.1,84.4L370.8,99.6L376,107.5Z" />
        <path class="line" d="M387.2,117.5L387.2,117.5Z" />
        <path class="line" d="M388.5,118.9L388.6,118.9Z" />
        <path class="line" d="M405.7,141.9L400.7,135.8L410.7,145.9Z" />
        <path class="line"
            d="M398.9,149.7L391.8,135.7L404.9,142.1L411.6,153.7Z" />
        <path class="line"
            d="M421.3,159.5L424.7,168.5L416.3,165.1L412.9,154.9L421.1,159.2Z" />
        <path class="line" d="M422.7,161.4L422.9,161.2Z" />
        <path class="line" d="M425,163.6L424.7,163.1L427.3,164.5Z" />
        <path class="line"
            d="M450.3,177L429.2,174.2L428.2,171.4L446.6,174.7Z" />
        <path class="line" d="M492,193.3L493.4,195.7L484,192.1L482,189.3Z" />
        <path class="line" d="M494.7,196.5L494.2,195.6L497.2,199Z" />
        <path class="line" d="M485.9,196L484.5,193L494,196.6L495.2,199.4Z" />
        <path class="line" d="M497,203.5L496.3,200.9L500,204.4L500.5,206.4Z" />
        <path class="line"
            d="M497.3,207.4L497.1,204.4L500.7,207.4L500.9,209.8Z" />
        <path class="line" d="M497.3,211.6L497.3,208.2L501,210.6L501,213.5Z" />
        <path class="line"
            d="M500.8,217.1L496.8,215.8L497.3,212.3L501,214.2L500.8,217Z" />
        <path class="line"
            d="M480.4,242.8L465.7,246.8L470.4,242.1L483.9,239Z" />
        <path class="line"
            d="M449.7,266.6L434,274.9L437.5,271.1L452.6,264.3Z" />
        <path class="line" d="M444.1,271.6L444.2,271.8Z" />
        <path class="line" d="M427.9,282.3L438.3,275.4L426.2,285.4Z" />
        <path class="line" d="M419.1,286.6L430.1,278.2L418.8,291.9Z" />
        <path class="line"
            d="M418.1,292.8L416.3,303.9L412.3,296.8L418.4,287.6Z" />
        <path class="line" d="M421.3,304.5L421.8,301.6L422.2,306.3Z" />
        <path class="line" d="M422.4,306.8L422.5,306.8Z" />
        <path class="line" d="M428.6,319.3L428.9,319.6Z" />
        <path class="line" d="M429.8,321.3L429.9,321.2Z" />
        <path class="line" d="M430.1,321.7L430.2,321.6Z" />
        <path class="line"
            d="M444.5,346.4L440.5,336.4L443.4,339.4L444.5,341.7L447.7,350.8Z" />
        <path class="line" d="M448.7,352.8L448.8,352.8Z" />
        <path class="line"
            d="M446,361.7L442.3,355.4L444.3,347.3L448.5,353.3Z" />
        <path class="line"
            d="M439.8,374.2L438.5,369.4L445.9,363.1L447.2,367.7Z" />
        <path class="line"
            d="M427.6,379.2L425.8,373.8L437.9,369.7L439.2,374.6Z" />
        <path class="line" d="M409.8,381.3L406.8,375.4L425.1,374L427,379.4Z" />
        <path class="line" d="M384.2,384.8L383.3,380.4L409.3,382L409.4,386Z" />
        <path class="line"
            d="M351.5,381.8L349,376.2L382.6,380.4L383.5,384.7Z" />
        <path class="line" d="M329.8,392.1L326.2,384L351,382.4L351.1,386.7Z" />
        <path class="line"
            d="M315.9,425.4L304.3,405.9L311.1,393L318.9,406.7Z" />
        <path class="line"
            d="M304.8,455.6L295.4,431.9L300.7,421.5L312.2,444.4Z" />
        <path class="line"
            d="M294.6,460.8L304.5,456.7L308,469.4L298.1,473.1Z" />
        <path class="line"
            d="M287.5,477.5L285.7,472.3L297.7,473.9L299.4,478.5Z" />
        <path class="line" d="M240.3,426L264.6,445.3L269.8,461.1L251,441.5Z" />
        <path class="line"
            d="M220,415.5L210.9,406.3L238.2,424.2L249.1,439.9Z" />
        <path class="line" d="M207.6,404.1L217.7,414.3L191.7,400.8Z" />
        <path class="line"
            d="M170.5,404.5L167.2,401.3L169.8,400.7L189.1,400.5L190,400.7L193.9,405.9Z" />
        <path class="line"
            d="M167.1,418.2L147.8,429.7L151.9,411.7L170,405.3Z" />
        <path class="line"
            d="M160.8,435.1L142.4,446.3L147.6,430.6L166.7,419.2Z" />
        <path class="line"
            d="M127.4,450.5L141.3,447.5L139.7,454.2L126.7,455.4Z" />
        <path class="line"
            d="M119.9,436.1L131,437.1L126.9,449.8L116.5,447.1Z" />
        <path class="line"
            d="M111.7,428.5L119.3,435.9L115.9,446.7L108.5,439.5Z" />
        <path class="line" d="M111.5,426.7L110.8,424.6L112.1,424.2Z" />
        <path class="line"
            d="M119.4,435.1L111.9,427.8L112.8,423.9L123,420.3Z" />
        <path class="line"
            d="M144.6,406.7L152.3,405.5L144.4,409.7L144.6,410.3L148.6,408.6L151,411.3L136.4,416.3L135.7,414.8L143.9,410.7L144.5,410.3L144.2,409.7L127.1,418.1L127.3,418.7L131.9,416.8L135.8,417L131.2,436.5L120,435.5L123.8,420L127.2,418.7L127,418.1L121.6,419.1Z" />
        <path class="line"
            d="M168.1,384.7L173.1,389.5L144.6,406L139.3,402.9Z" />
        <path class="line"
            d="M137.3,394.2L138.3,402.7L113,417.1L110.5,409.8Z" />
        <path class="line" d="M91,405.4L112.6,395.7L109.9,409.4L90,417.2Z" />
        <path class="line" d="M90.3,405.6L89.3,417.4L75.2,418.6L75.1,408Z" />
        <path class="line" d="M69.6,387.4L80.3,389.5L74.5,407.3L64.3,404.4Z" />
        <path class="line" d="M81.6,346.9L84.7,357.6L69.4,386.3L64.9,377.3Z" />
        <path class="line" d="M84.1,328.6L94.2,300L99.3,311L82.2,344.3Z" />
        <path class="line"
            d="M85.7,310.5L87.6,289.7L93.8,299.2L84.4,325.8L86,310.6Z" />
        <path class="line" d="M74.2,299.8L72,291.8L81.7,297.8L80.7,310.6Z" />
        <path class="line" d="M57.7,297.8L73.6,300.3L75.2,307.6L60.8,302.6Z" />
        <path class="line" d="M36.6,301.6L39.9,305L24.4,307.9L21.3,305.1Z" />
        <path class="line" d="M34,296.8L36.2,301L20.8,304.6L18.5,301Z" />
        <path class="line" d="M32.4,290.8L33.7,296.2L18.3,300.3L17.1,295.8Z" />
        <path class="line" d="M7.1,291.4L16.1,289.8L16.3,295.3L7.5,296.3Z" />
        <path class="line" d="M9.5,278.4L19.5,274.6L17.3,282L7.9,284.5Z" />
        <path class="line" d="M12.6,270.6L23,265.8L19.7,273.8L9.8,277.6Z" />
        <path class="line" d="M16.6,262.9L27.3,257L23.4,264.9L13.1,269.7Z" />
        <path class="line" d="M22.1,254.8L32.1,248.1L28.1,255.6L17.7,261.5Z" />
        <path class="line" d="M35,238.5L34.8,240.3L31.8,242.9L35.2,238.7Z" />
        <path class="line"
            d="M36.9,243.6L30.9,251.8L33.3,247.3L36.1,238L37,240Z" />
        <path class="line" d="M67.4,264.2L61.9,267.8L52.1,250.9L50,241.6Z" />
        <path class="line" d="M52.7,236.6L74.5,265.2L68.1,263.9L49.6,239.9Z" />
        <path class="line" d="M41.2,210.9L64.2,241.4L52.9,235.8L30.9,206.7Z" />
        <path class="line" d="M26.3,187.3L40.6,209.9L30.2,205.7L16.8,184.6Z" />
        <path class="line" d="M19,170.7L25.9,186.5L16.3,183.8L10.4,169Z" />
        <path class="line" d="M32,163.9L34.9,176.9L19.6,170.1L17.8,158.5Z" />
        <path class="line" d="M32,163.2L17.8,157.8L19.5,149.3L33.4,154Z" />
        <path class="line" d="M55.3,176L32.6,163.5L34.1,154.3L56.1,165.6Z" />
        <path class="line" d="M93.9,177.6L89,185.2L56.9,165.3L62.5,159.3Z" />
        <path class="line" d="M86,157.7L113.1,171L103.5,173.2L74.3,157Z" />
        <path class="line"
            d="M76.1,150.2L80.7,151.5L98.6,158.8L86.1,157.1L66.5,147.9Z" />
        <path class="line" d="M63.3,131.8L63.7,120.4L71.2,140.3L68.4,147Z" />
        <path class="line" d="M58.8,88.4L67.8,111.6L63.5,118.1L55.6,97.2Z" />
        <path class="line" d="M62.3,67.2L66.8,83.7L59,87.1L55.6,72Z" />
        <path class="line" d="M74.2,67.1L79.7,85.6L67.4,83.6L63,67Z" />
        <path class="line" d="M88.9,60.9L91.4,72.9L74.7,66.6L73.6,56Z" />
        <path class="line" d="M109.3,63.8L110,70.3L89.6,60.5L90.2,53.8Z" />
        <path class="line" d="M120.8,65.6L110.1,63.3L111.4,59.3L121.5,64.1Z" />
        <path class="line" d="M113.8,88.2L113.3,82.6L122.1,64.5Z" />
        <path class="line"
            d="M120.5,93.5L113.4,116.6L114,102.3L121.3,77L120.2,93.5Z" />
        <path class="line" d="M127.6,95.3L120,116.4L120.9,93.6L128.1,69.1Z" />
        <path class="line" d="M148.1,36.3L138.2,45.6L139.9,29.3L149.9,20.7Z" />
        <path class="line" d="M174.2,20.9L162.4,17.1L164.8,8.3L176.4,10.9Z" />
        <path class="line" d="M187.5,33.4L174.8,21.2L177,11.3L189.5,21.3Z" />
        <path class="line" d="M201.9,55.8L188.1,34L190.1,22L203.8,41.7Z" />
        <path class="line" d="M227.3,53.4L254,54.5L249,63L224.4,56.8Z" />
        <path class="line" d="M220.8,45.5L229.8,52.5L227.6,52.8L220,44.9Z" />
        <path class="line" d="M223.4,33.2L220.8,44.6L217.8,42.5L215.4,39.9Z" />
        <path class="line" d="M235.2,26.6L224.4,31.5L225.5,16.6L236.4,12.2Z" />
        <path class="line" d="M246.9,26.4L235.8,26.5L237,12L248.2,12.1Z" />
        <path class="line" d="M258.9,31.6L247.5,26.6L248.9,12.3L260.6,16.8Z" />
        <path class="line" d="M270.4,41L259.5,32L261.2,17.3L273,26.9Z" />
        <path class="line" d="M274.6,39.3L270.9,41.5L273.5,27.6L279.9,35.8Z" />
        <path class="line" d="M255.6,53.2L257.9,50L289.1,31.6L286.6,37.3Z" />
        <path class="line" d="M307.9,33.6L280.2,50.9L287.1,37.8L314.4,20Z" />
        <path class="line" d="M351.6,8.2L336.6,9.4L338,3.9L352.8,3.1Z" />
        <path class="line" d="M368.6,32.5L360.4,23.1L364.2,13.3L372.3,22.6Z" />
        <path class="line" d="M372.9,48.2L369,33.1L372.6,23.6L376.5,38.7Z" />
        <path class="line" d="M376.1,61L373.1,69.9L373.2,49.3L376.5,40.6Z" />
        <path class="line" d="M372.1,96.4L373.1,91.3L372.7,101.2Z" />
        <path class="line"
            d="M363.3,81.2L367.1,66.3L369.2,87.6L369.8,87.5L369.5,84.9L372.3,75.2L371.5,96.4L369.8,87.6L369.2,87.7L370.5,97.2Z" />
        <path class="line" d="M353.4,87.1L355.5,67.8L362.6,80.8L366.5,98Z" />
        <path class="line" d="M380.1,113.9L380.4,113.7Z" />
        <path class="line" d="M380.2,114L391.7,126.4L379,117.2L369.8,102.6Z" />
        <path class="line" d="M385.2,116.4L378.7,110.2L385.2,116.4Z" />
        <path class="line" d="M402.8,137L402.2,136.1L402.9,137.1Z" />
        <path class="line" d="M399.8,134.7L399.9,134.5Z" />
        <path class="line" d="M384.4,117.7L384.3,117.8Z" />
        <path class="line"
            d="M392.4,125.7L384.7,117.7L385.1,117.3L392.6,125.3Z" />
        <path class="line" d="M393.5,125.3L398,130.6Z" />
        <path class="line" d="M396.2,130.2L392.8,126.2L399.9,134.1Z" />
        <path class="line"
            d="M380.9,113.9L380.2,112.7L384.6,116.9L383.1,116.1Z" />
        <path class="line"
            d="M391.3,134.7L380.6,119.4L393.5,128.5L395.7,130.6L404,140.9Z" />
        <path class="line"
            d="M379.9,146.5L372.5,129.9L390.8,135.2L398.1,149.5Z" />
        <path class="line"
            d="M402.6,162.7L399.1,150.4L412.1,154.5L415.6,165Z" />
        <path class="line" d="M425.6,180L417.2,177L416.4,165.9L424.9,169.3Z" />
        <path class="line"
            d="M434.4,182.6L431.3,178.8L457,181.5L460.3,184.6Z" />
        <path class="line"
            d="M467.7,193.6L465.5,189.7L483.6,192.7L485.1,195.9Z" />
        <path class="line"
            d="M487.2,200.4L486.2,196.8L495.5,200.2L496.2,203.2Z" />
        <path class="line"
            d="M487.6,204.9L487.3,201.1L496.4,203.9L496.6,207.1Z" />
        <path class="line"
            d="M496.1,215.7L486.8,214.8L487.5,210.4L496.7,212.1Z" />
        <path class="line"
            d="M495.8,220.1L496.7,216.5L500.6,217.7L500,220.9Z" />
        <path class="line"
            d="M498.6,224.5L494.2,224.4L495.6,220.7L499.8,221.5Z" />
        <path class="line" d="M497,228.2L492.1,228.8L493.9,225L498.4,225.1Z" />
        <path class="line"
            d="M491.8,229.5L496.6,228.9L494.8,232.1L489.4,233.3Z" />
        <path class="line"
            d="M475.4,236.5L487.6,234.3L484.7,238.1L471.4,241.1Z" />
        <path class="line"
            d="M464.5,247.1L442.2,252.3L447.8,246.6L469.2,242.3Z" />
        <path class="line"
            d="M437.5,270.4L421.3,278.9L424.3,273L442.2,265.8Z" />
        <path class="line" d="M409.5,288.8L420,280.6L418.5,286.3L412,296Z" />
        <path class="line"
            d="M416.2,305L419.4,315.8L410.3,307.1L412.1,297.7Z" />
        <path class="line"
            d="M422.1,312.7L429.2,324.6L420.6,317.1L417.5,306.9Z" />
        <path class="line"
            d="M436.1,337.8L431.8,327.8L439.1,334.9L443.2,344.8Z" />
        <path class="line"
            d="M441.8,354.8L434.4,346.6L436,338.7L443.9,346.6Z" />
        <path class="line" d="M438.2,368.7L434.4,362L441.8,356L445.7,362.4Z" />
        <path class="line"
            d="M425.5,373.3L420.5,365.9L433.8,362.3L437.7,369.1Z" />
        <path class="line"
            d="M406.4,374.7L399.2,366.6L419.8,366.1L424.8,373.4Z" />
        <path class="line" d="M383,379.8L378.2,373.1L406.1,375.4L409,381.3Z" />
        <path class="line"
            d="M348.6,375.5L343.5,368.5L377.3,373.1L382.1,379.7Z" />
        <path class="line"
            d="M325.9,383.4L320.9,374.8L348.2,376.1L350.8,381.8Z" />
        <path class="line"
            d="M303.9,405.2L291.7,385.7L302.5,378.6L310.7,392.3Z" />
        <path class="line"
            d="M295,431.2L275.3,401.9L283.3,395.1L300.3,420.8Z" />
        <path class="line"
            d="M294.4,460.2L285.3,435.9L294.8,432.3L304.3,456.1Z" />
        <path class="line"
            d="M281.9,457.9L294,460.9L297.5,473.2L285.5,471.6Z" />
        <path class="line" d="M281,457.4L284.7,471.2L271,462.4L265.7,446.2Z" />
        <path class="line"
            d="M239.1,424.1L223.3,404.3L246.9,418.9L263.3,443.5Z" />
        <path class="line" d="M154.2,405.2L158,404L151.6,406.6Z" />
        <path class="line" d="M173.7,390L181.4,391.8L154,404.6L146.4,405.7Z" />
        <path class="line"
            d="M193.5,371.1L197.9,378.4L173.7,389.2L168.7,384.4Z" />
        <path class="line"
            d="M167.4,374.8L167.8,384.2L138.9,402.4L137.9,393.8Z" />
        <path class="line"
            d="M113.3,395.4L141.5,378.4L137.3,393.4L110.6,409Z" />
        <path class="line"
            d="M98.7,384.9L122.4,373.2L112.8,394.9L91.2,404.6Z" />
        <path class="line" d="M80.9,389.6L98,385.1L90.4,404.9L75.2,407.3Z" />
        <path class="line" d="M85.2,358L95.9,360.7L80.5,388.9L69.8,386.8Z" />
        <path class="line" d="M99.7,311.7L105.8,320.9L85.2,356.8L82,346.1Z" />
        <path class="line" d="M94.5,299L87.6,273.8L100.9,282.9L99.4,309.7Z" />
        <path class="line" d="M71.7,290.9L68.3,281.6L78.3,282.8L81.5,296.9Z" />
        <path class="line" d="M54.9,291.4L71.2,291.4L73.4,299.6L57.3,297.1Z" />
        <path class="line" d="M54.2,291.5L56.6,297.1L36.9,300.9L34.6,296.7Z" />
        <path class="line" d="M52,284.2L54,290.8L34.4,296.1L33.1,290.6Z" />
        <path class="line" d="M16.8,289.6L32.1,283.7L32.3,290.1L17,295.2Z" />
        <path class="line" d="M20.2,274.3L34.7,265.5L33.2,274.5L18.1,281.7Z" />
        <path class="line" d="M32.8,283.4L50.1,275.4L51.8,283.6L33,289.9Z" />
        <path class="line" d="M67.3,280.9L52.5,283.5L50.7,275.1L61.7,268.8Z" />
        <path class="line" d="M47.8,264.3L50,274.8L32.8,282.6L33.8,274.9Z" />
        <path class="line" d="M17.9,282.5L33.1,275.2L32.1,282.9L16.8,288.9Z" />
        <path class="line" d="M52.6,284.1L67.6,281.5L71,290.7L54.6,290.7Z" />
        <path class="line" d="M77.8,282.1L68,280.9L62.3,268.4L67.8,264.7Z" />
        <path class="line" d="M78.9,282.4L68.6,264.7L75.1,266L86.2,287.3Z" />
        <path class="line" d="M65.1,242.5L85.6,271.6L75.5,265.5L53.8,237Z" />
        <path class="line" d="M62.3,224.1L83.9,253.8L65.8,242.3L43.1,212.1Z" />
        <path class="line" d="M44.4,196.9L61.4,222.8L41.6,210.4L27.4,187.9Z" />
        <path class="line" d="M35.1,177.8L43.8,195.9L26.7,186.8L19.9,171Z" />
        <path class="line" d="M55.3,176.7L60.1,191.9L35.6,177.3L32.7,164.3Z" />
        <path class="line" d="M88.7,185.8L88.9,197.8L55.9,176.3L56.7,165.9Z" />
        <path class="line" d="M94.5,178L126.8,196.6L123.3,206.2L89.5,185.5Z" />
        <path class="line"
            d="M103.4,173.9L132.8,188.3L127.1,196.1L95.1,177.6Z" />
        <path class="line"
            d="M114,171.5L138.6,180.3L133.1,187.7L104.4,173.7Z" />
        <path class="line" d="M101,159.7L123.8,167.9L114.4,170.9L88.5,158.1Z" />
        <path class="line"
            d="M86.9,152.7L112.5,158.2L101.1,159.1L83.3,151.8Z" />
        <path class="line"
            d="M76.3,149.6L74.1,148.8L71.9,140.4L77.3,136.1L80.7,150.8Z" />
        <path class="line" d="M69.1,147.3L71.5,141.3L73.4,148.5Z" />
        <path class="line" d="M68.1,112.4L77.1,135.4L71.7,139.7L63.8,118.8Z" />
        <path class="line" d="M67,84.4L76.8,109.6L68.4,111.3L59.2,87.7Z" />
        <path class="line" d="M79.9,86.3L88.9,110.2L77.5,109.6L67.7,84.3Z" />
        <path class="line" d="M91.6,73.7L96.7,90.1L80.4,85.7L74.9,67.4Z" />
        <path class="line" d="M110,71.1L111.4,77L92.1,73.2L89.7,61.3Z" />
        <path class="line" d="M119.9,67.4L110.6,70.5L110,64L120.5,66.2Z" />
        <path class="line" d="M113.1,81.6L112.1,77.5L118.7,70.1Z" />
        <path class="line" d="M102.3,105.7L97.6,90.7L112.7,83.1L113.3,89.6Z" />
        <path class="line"
            d="M113.4,102.3L104.9,120.6L102.5,106.5L113.3,90.8Z" />
        <path class="line"
            d="M113,119.2L105.3,134.5L105,121.7L113.3,104.4L112.7,119.2Z" />
        <path class="line"
            d="M111.9,134.2L113.3,119.6L120.1,96.7L119.2,118.4Z" />
        <path class="line"
            d="M127.3,127.4L117.9,139.1L119.9,118.5L127.6,97.6Z" />
        <path class="line" d="M147.2,64.4L137.4,75L138.1,46.6L148.1,37.3Z" />
        <path class="line" d="M159.8,34.1L148.8,36.1L150.6,20.1L161.6,17.8Z" />
        <path class="line" d="M172.5,39.9L160.4,34.2L162.3,17.8L174.1,21.6Z" />
        <path class="line" d="M186.2,55.1L173.1,40.3L174.8,22.1L187.4,34.2Z" />
        <path class="line" d="M200.8,77.7L186.8,55.8L188,35.1L201.8,56.8Z" />
        <path class="line" d="M295.3,57.6L269,72.5L279.6,52L307.3,34.8Z" />
        <path class="line" d="M347.3,19L331.3,21.7L336.4,10L351.4,8.8Z" />
        <path class="line" d="M359.9,22.8L348,19.1L352.1,8.9L363.6,12.9Z" />
        <path class="line" d="M362.5,47.6L353.7,38.9L360.1,23.8L368.3,33.2Z" />
        <path class="line"
            d="M372.5,49.7L367.3,62.9L362.9,48.2L368.6,34.2L372.6,49.3Z" />
        <path class="line" d="M352.8,86.9L337.5,82.7L344.3,60.4L354.9,66.9Z" />
        <path class="line"
            d="M353.1,145.5L347.6,128.1L371.7,129.7L379.2,146.5Z" />
        <path class="line"
            d="M383.3,161L380.1,147.2L398.4,150.2L401.9,162.6Z" />
        <path class="line"
            d="M403.3,174.7L402.7,163.4L415.8,165.7L416.6,176.9Z" />
        <path class="line"
            d="M422.7,191.8L414.5,189.5L417.1,177.7L425.5,180.6Z" />
        <path class="line"
            d="M428.5,174.1L428.7,183.8L426.3,180.3L425.6,170.2Z" />
        <path class="line" d="M429.4,177.9L429.6,177.9Z" />
        <path class="line"
            d="M429.4,182L429.4,178.6L430.4,178.7L433.5,182.5Z" />
        <path class="line"
            d="M440.2,192.7L438.1,188.2L464.7,189.6L466.9,193.6Z" />
        <path class="line"
            d="M469.4,198.5L468,194.3L485.4,196.6L486.4,200.2Z" />
        <path class="line" d="M470,203.6L469.5,199.2L486.6,200.9L487,204.8Z" />
        <path class="line"
            d="M486.1,214.7L468.6,214.8L469.7,209.7L486.8,210.3Z" />
        <path class="line" d="M495.1,220L485.3,219.8L486.7,215.4L496,216.4Z" />
        <path class="line"
            d="M493.5,224.4L483.1,224.9L485.1,220.4L494.9,220.6Z" />
        <path class="line"
            d="M491.4,228.8L480.1,230.3L482.8,225.6L493.2,225Z" />
        <path class="line" d="M441,252.5L417.1,258L421.1,251.8L446.7,246.8Z" />
        <path class="line"
            d="M434.7,259.1L413.4,265.1L416.6,258.8L440.2,253.4Z" />
        <path class="line"
            d="M428.9,265.8L410.3,272.6L412.7,266L433.7,260.1Z" />
        <path class="line"
            d="M423.9,272.5L408.8,280.2L410.1,273.4L428.1,266.7Z" />
        <path class="line"
            d="M402.4,297.1L409,289.3L411.6,296.8L409.7,306.4Z" />
        <path class="line"
            d="M419.8,317.1L422.6,326.7L409,315.8L410.1,307.8Z" />
        <path class="line"
            d="M433.8,346.1L421.1,335.5L423.4,328.1L435.5,338.1Z" />
        <path class="line" d="M434,361.5L425.8,352.6L434,347.1L441.5,355.4Z" />
        <path class="line"
            d="M420.1,365.4L410.1,355.6L425.2,352.9L433.4,361.8Z" />
        <path class="line"
            d="M398.6,366L386.1,355.3L409.2,355.7L419.2,365.4Z" />
        <path class="line"
            d="M377.6,372.4L368.5,363.6L398.4,366.6L405.5,374.7Z" />
        <path class="line"
            d="M342.9,367.7L336,359.4L367.4,363.5L376.5,372.3Z" />
        <path class="line"
            d="M320.5,374.1L315.9,365.9L342.6,368.3L347.8,375.4Z" />
        <path class="line"
            d="M291.4,385.1L283.8,370.1L296.4,366.8L302.2,378Z" />
        <path class="line"
            d="M274.9,401.4L260.9,378.5L271.8,374.9L282.9,394.5Z" />
        <path class="line"
            d="M285,435.3L263.6,404.2L274.7,402.2L294.5,431.7Z" />
        <path class="line"
            d="M281.6,457.2L270.1,431.8L284.6,436L293.7,460.2Z" />
        <path class="line"
            d="M222.1,402.8L208.7,388.4L228.5,392.8L245.9,417.5Z" />
        <path class="line"
            d="M212.5,365.3L217.3,375.4L198.5,378.2L194.1,370.9Z" />
        <path class="line"
            d="M168.1,374.4L191.8,361.4L193.2,370.5L168.5,383.8Z" />
        <path class="line"
            d="M142.4,377.9L170.2,360.8L167.5,374.1L138.1,392.9Z" />
        <path class="line"
            d="M123.4,372.7L150.3,357.1L141.8,377.5L113.8,394.4Z" />
        <path class="line" d="M115.4,355L137.1,345.2L122.8,372.3L99.3,383.9Z" />
        <path class="line" d="M96.6,360.8L114.5,355.3L98.3,384.4L81.3,388.8Z" />
        <path class="line"
            d="M106.4,321.3L116.2,325.8L96.2,360.1L85.6,357.4Z" />
        <path class="line"
            d="M101.5,283.3L113.9,292.7L106.1,320.1L100,310.9Z" />
        <path class="line" d="M90.5,243.3L105.4,267.8L85.3,254.8L64.3,225.6Z" />
        <path class="line" d="M72.8,215.7L89.5,241.9L62.8,223.6L46,198.1Z" />
        <path class="line" d="M60.4,192.9L72.1,214.5L45.1,196.7L36.1,178.3Z" />
        <path class="line" d="M89,198.6L94.9,216L61.2,192.8L56.2,177.3Z" />
        <path class="line" d="M123,219.7L89.6,198.2L89.4,186.2L123.2,206.9Z" />
        <path class="line"
            d="M127.4,196.9L150.9,205.4L148.7,217.7L123.9,206.5Z" />
        <path class="line" d="M133.4,188.5L152.1,192L151,204.7L127.7,196.3Z" />
        <path class="line"
            d="M139.3,180.4L152.4,178.4L152.1,191.3L133.8,187.9Z" />
        <path class="line" d="M124.8,168.2L144,171L139,179.7L115.3,171.3Z" />
        <path class="line"
            d="M114.6,158.7L132.4,160.2L124.7,167.5L103.4,159.8Z" />
        <path class="line"
            d="M108,152.9L107.9,152.3L98.6,153.2L106.9,148.9L116.2,141.7L110.2,151.9L108.5,152.2L108.2,152.9L123.2,149.3L115.1,158L99.3,154.8Z" />
        <path class="line" d="M88,149.1L87.6,152L83.1,151.1Z" />
        <path class="line"
            d="M85.3,133.7L88.1,148.3L81.9,150.9L81.3,150.8L77.9,135.7Z" />
        <path class="line" d="M77,110.3L85.2,133.1L77.7,135.1L68.7,111.9Z" />
        <path class="line" d="M94.7,130.1L85.8,132.9L77.7,110.2L89.1,110.9Z" />
        <path class="line"
            d="M95.3,129.7L89.8,110.8L101.9,106.9L104.3,121.5Z" />
        <path class="line"
            d="M111.1,136L103.1,146.1L105.1,136.4L112.5,121.4Z" />
        <path class="line" d="M102.3,148.1L102,147.9Z" />
        <path class="line"
            d="M102.7,147.6L110.2,138.4L106.4,148.4L97.6,152.9Z" />
        <path class="line" d="M88.8,148.8L96,145.1L94.3,152.9L88.2,152.1Z" />
        <path class="line" d="M96.1,144.3L88.7,148L86,133.5L94.9,130.7Z" />
        <path class="line"
            d="M104.7,135.8L96.8,143.8L95.5,130.4L104.4,122.4Z" />
        <path class="line"
            d="M101.8,147.6L95,152.5L96.8,144.7L104.3,137.3L102.2,147.2Z" />
        <path class="line" d="M95.4,153.1L99.3,150.3L96.4,153.3Z" />
        <path class="line"
            d="M117.2,140L107.4,147.6L111.7,136.2L119.1,120.3Z" />
        <path class="line"
            d="M123.9,148.5L111.1,151.6L117.7,140.3L127.1,128.7Z" />
        <path class="line" d="M147.2,65.4L148.1,102.2L137.9,112.2L137.4,76Z" />
        <path class="line" d="M159,62.2L147.8,64.1L148.8,36.7L159.7,34.8Z" />
        <path class="line" d="M172,69.2L159.6,62.3L160.4,34.9L172.5,40.6Z" />
        <path class="line" d="M186.1,56L186.5,84.2L172.6,69.6L173.1,41.3Z" />
        <path class="line" d="M200.8,78.9L202.6,102.1L187.2,84.8L186.8,57Z" />
        <path class="line" d="M279.8,86.8L257.4,96.3L268.4,73.6L294.7,58.8Z" />
        <path class="line" d="M295.9,57.9L319.3,43.8L305.3,71L280.9,86.2Z" />
        <path class="line" d="M339,36.7L320.8,42.4L330.9,22.4L347,19.8Z" />
        <path class="line" d="M353.1,38.6L339.7,36.7L347.7,19.7L359.6,23.4Z" />
        <path class="line" d="M336.8,82.6L317.4,87.5L327.7,61.5L343.6,60.2Z" />
        <path class="line"
            d="M347.4,127.4L340.2,106.6L360.5,109.2L371.4,129Z" />
        <path class="line"
            d="M316.3,146.7L315.1,131.9L346.9,128.1L352.4,145.5Z" />
        <path class="line"
            d="M355.2,160L353.2,146.1L379.5,147.1L382.6,160.9Z" />
        <path class="line"
            d="M413.8,189.3L399.9,187.8L403.2,175.4L416.5,177.5Z" />
        <path class="line"
            d="M414.2,204.1L406.3,202.3L414.2,190.1L422.4,192.4Z" />
        <path class="line"
            d="M426.8,191.9L428.5,187.3L437.3,188.1L439.4,192.7Z" />
        <path class="line"
            d="M441.9,198.1L440.4,193.4L467.2,194.2L468.7,198.5Z" />
        <path class="line"
            d="M442.3,203.9L442,198.8L468.9,199.1L469.4,203.6Z" />
        <path class="line"
            d="M467.9,214.8L440.5,216.6L441.8,210.7L469,209.7Z" />
        <path class="line"
            d="M484.6,219.8L466.5,220.7L468.4,215.5L486,215.4Z" />
        <path class="line"
            d="M482.4,225L463.3,226.7L466.2,221.3L484.4,220.5Z" />
        <path class="line" d="M479.3,230.4L459.2,233L462.9,227.4L482,225.6Z" />
        <path class="line"
            d="M416.2,258.2L397.2,262.6L399.1,255.8L420.2,251.9Z" />
        <path class="line" d="M412.5,265.4L396,270.4L397,263.3L415.8,259Z" />
        <path class="line"
            d="M409.5,272.9L395.6,278.5L395.9,271.1L411.9,266.3Z" />
        <path class="line"
            d="M408,280.6L397.5,287.2L395.7,279.2L409.4,273.7Z" />
        <path class="line"
            d="M397.7,287.9L408.1,281.4L408.8,288.6L402.1,296.5Z" />
        <path class="line"
            d="M396.9,304.2L402,297.7L409.6,307.3L408.5,315.3Z" />
        <path class="line"
            d="M420.5,335.1L404.1,322.7L408.8,316.4L422.8,327.7Z" />
        <path class="line"
            d="M425.3,352.2L411.2,340.7L420.6,336L433.5,346.6Z" />
        <path class="line" d="M409.5,355L393.7,342.9L410.5,341L424.5,352.4Z" />
        <path class="line" d="M385.3,354.6L369.4,342.1L392.8,343L408.4,355Z" />
        <path class="line"
            d="M367.7,362.9L355.8,352.3L385.1,355.3L397.5,365.9Z" />
        <path class="line"
            d="M328.4,349.2L354.5,352.1L366.6,362.7L335.3,358.7Z" />
        <path class="line" d="M311.5,356.9L335,359.3L342,367.6L315.5,365.2Z" />
        <path class="line"
            d="M283.1,368.6L289.8,365.2L294.5,361.5L296.2,366.1L283.6,369.5Z" />
        <path class="line"
            d="M258.6,373L261.6,373.7L270.8,372.6L271.5,374.3L260.6,377.9Z" />
        <path class="line"
            d="M248.2,379.5L260.3,378.6L274.3,401.6L263.2,403.6Z" />
        <path class="line"
            d="M227.2,364.2L232.8,377.3L218,375.3L213.1,365.1Z" />
        <path class="line"
            d="M192.3,350.1L191.8,360.7L168.2,373.6L170.9,360.4Z" />
        <path class="line"
            d="M151.3,356.6L174.5,344.7L170.4,360L142.8,376.9Z" />
        <path class="line"
            d="M138.1,344.7L159.2,335.2L150.7,356.1L124.1,371.4Z" />
        <path class="line"
            d="M132,324.6L148.1,320.3L137.6,344.2L115.9,354.1Z" />
        <path class="line"
            d="M116.9,325.9L131.2,324.7L114.9,354.5L97.1,359.9Z" />
        <path class="line"
            d="M114.5,293.1L126.2,299.2L116.5,325.2L106.6,320.7Z" />
        <path class="line" d="M116.8,260L124.4,278.5L106.9,268.8L92,244.4Z" />
        <path class="line"
            d="M105.8,238.9L116.2,258.9L91.2,243.1L74.5,217.1Z" />
        <path class="line" d="M95.2,217L105.2,237.7L73.5,215.7L61.9,194.1Z" />
        <path class="line" d="M123.1,220.5L126.3,236L95.8,216.6L89.9,199.2Z" />
        <path class="line"
            d="M147.6,231.5L123.7,220.1L123.8,207.2L148.7,218.4Z" />
        <path class="line"
            d="M151.5,205.5L166,205.7L166.9,221.8L149.4,217.9Z" />
        <path class="line"
            d="M152.8,191.9L162.8,188.1L165.9,205L151.6,204.8Z" />
        <path class="line"
            d="M153.1,178.2L161.9,172.7L162.7,187.4L152.8,191.2Z" />
        <path class="line"
            d="M144.7,171L153.6,165.2L152.4,177.8L139.8,179.7Z" />
        <path class="line"
            d="M133.3,160.2L148.1,158.1L144.2,170.4L125.5,167.7Z" />
        <path class="line" d="M124.4,149L137,143.7L132.9,159.6L115.9,158.1Z" />
        <path class="line" d="M148.1,103L150,135.9L137.8,142.6L137.9,113.1Z" />
        <path class="line" d="M159,62.8L160.3,98.9L148.7,101.9L147.8,64.8Z" />
        <path class="line" d="M172,70L174.5,103.1L161,98.9L159.6,63Z" />
        <path class="line"
            d="M186.5,85.1L188.6,111.4L175.1,103.4L172.7,70.6Z" />
        <path class="line"
            d="M200.2,118.8L189.3,111.9L187.3,85.9L202.6,103.1Z" />
        <path class="line"
            d="M217.1,100.7L217.5,116.3L203.3,102.8L201.6,80.1Z" />
        <path class="line" d="M267.9,111.2L249.9,116.4L257,97.2L279.4,87.7Z" />
        <path class="line" d="M292,99.6L268.8,110.8L280.3,87.3L304.5,72.4Z" />
        <path class="line" d="M316.6,87.8L292.9,99.1L305.5,71.7L326.9,61.9Z" />
        <path class="line"
            d="M315.1,131.2L314.1,112.7L339.5,106.6L346.7,127.4Z" />
        <path class="line"
            d="M281.5,149.3L282.4,137.8L314.5,132L315.6,146.8Z" />
        <path class="line"
            d="M316.2,159.4L316.3,147.4L352.5,146.1L354.6,160Z" />
        <path class="line"
            d="M382.6,173.7L353.7,172.6L355.2,160.7L382.7,161.6Z" />
        <path class="line"
            d="M399.3,187.8L378.3,186.7L383.2,174.4L402.6,175.3Z" />
        <path class="line"
            d="M405.6,202.1L390.4,200.9L399.7,188.4L413.5,189.9Z" />
        <path class="line"
            d="M396.7,214.9L388.8,213.7L405.8,202.8L413.5,204.6Z" />
        <path class="line"
            d="M418.4,203.5L423.5,198L441.3,198.8L441.7,203.9Z" />
        <path class="line" d="M439.8,216.7L413,217.4L415,211L441.1,210.8Z" />
        <path class="line"
            d="M465.7,220.7L437.9,223.3L440.3,217.3L467.7,215.5Z" />
        <path class="line" d="M462.5,226.8L434.7,230L437.7,224L465.4,221.4Z" />
        <path class="line"
            d="M458.4,233.1L430.6,237L434.4,230.7L462.1,227.5Z" />
        <path class="line"
            d="M396.5,262.8L382.7,265.9L383.2,258.5L398.4,256Z" />
        <path class="line"
            d="M395.3,270.6L383,274.4L382.7,266.6L396.3,263.5Z" />
        <path class="line" d="M395,278.8L384.4,283.3L383,275.1L395.2,271.3Z" />
        <path class="line"
            d="M388.6,292.9L384.6,283.9L395.1,279.5L396.9,287.6Z" />
        <path class="line"
            d="M388.9,293.5L397.2,288.2L401.6,297.1L396.5,303.7Z" />
        <path class="line"
            d="M403.6,322.3L389.2,309.7L396.4,304.7L408.3,316Z" />
        <path class="line"
            d="M410.7,340.3L392.7,327.1L403.5,323.2L420.1,335.6Z" />
        <path class="line" d="M393,342.3L375.5,328.7L392,327.3L409.8,340.4Z" />
        <path class="line"
            d="M355.1,328.7L374.5,328.8L391.9,342.3L368.6,341.4Z" />
        <path class="line"
            d="M355,351.6L343.8,340.1L368.3,342.1L384.1,354.5Z" />
        <path class="line"
            d="M327.8,348.5L322.1,338.6L342.8,340L353.7,351.3Z" />
        <path class="line"
            d="M311.1,356.2L308.3,349.7L310.3,347.9L327.3,349L334.5,358.6Z" />
        <path class="line" d="M282.7,368.4L282.6,368.3Z" />
        <path class="line"
            d="M258.1,372.2L247.8,369.4L248.4,368.6L263.1,371.9L261.6,373Z" />
        <path class="line"
            d="M242.2,366.3L247,369.8L257.8,372.8L260,378L247.8,378.9Z" />
        <path class="line"
            d="M247.6,400.1L234,378.1L247.4,379.5L262.4,403.5Z" />
        <path class="line"
            d="M239.6,364.3L241.1,365.5L247.1,378.8L233.6,377.3L227.9,364.2Z" />
        <path class="line"
            d="M209.3,346L209.9,354.6L192.4,360.4L192.9,349.9Z" />
        <path class="line"
            d="M193.8,338.5L192.3,349.4L171.2,359.6L175.3,344.3Z" />
        <path class="line"
            d="M178.5,329.2L174.7,343.8L151.6,355.7L160,334.9Z" />
        <path class="line"
            d="M164.8,316.8L159.5,334.4L138.5,343.8L148.9,320.1Z" />
        <path class="line"
            d="M139.8,301.8L152.8,301.8L148.4,319.5L132.3,323.8Z" />
        <path class="line"
            d="M126.8,299.5L139.1,301.7L131.6,324L117.2,325.2Z" />
        <path class="line"
            d="M136.7,270L139.8,284.4L125.3,278.9L117.7,260.5Z" />
        <path class="line"
            d="M131.7,254.2L136.4,269.2L117.3,259.5L106.8,239.5Z" />
        <path class="line"
            d="M126.5,236.9L131.4,253.2L106.3,238.4L96.3,217.7Z" />
        <path class="line"
            d="M147.6,232.2L148.7,246.7L127.1,236.5L123.8,220.9Z" />
        <path class="line"
            d="M176.9,203.5L180.8,223.4L167.6,221.9L166.7,205.6Z" />
        <path class="line"
            d="M173.7,184.7L176.8,202.8L166.6,205L163.5,187.9Z" />
        <path class="line"
            d="M173.7,169.5L173.7,184L163.4,187.2L162.6,172.4Z" />
        <path class="line"
            d="M154.3,164.8L162.8,158.9L161.9,172L153.1,177.4Z" />
        <path class="line"
            d="M148.8,157.9L156.4,150.6L153.7,164.4L145.1,170Z" />
        <path class="line"
            d="M160.4,99.5L161.6,130.4L150.6,135.6L148.7,102.6Z" />
        <path class="line" d="M171.3,127.1L162.2,130.1L161,99.6L174.5,103.8Z" />
        <path class="line" d="M181.1,127L172,127L175.1,104.1L188.6,112.2Z" />
        <path class="line"
            d="M193.3,129.7L181.8,127.1L189.1,112.5L200,119.4Z" />
        <path class="line"
            d="M231.6,126L218.2,116.9L217.7,101.3L233.2,113.2Z" />
        <path class="line"
            d="M262.3,128.4L246.9,130.9L249.7,117.2L267.6,112Z" />
        <path class="line"
            d="M284.9,121.4L263.1,128.1L268.4,111.7L291.6,100.6Z" />
        <path class="line"
            d="M313.5,112.2L285.7,121.2L292.4,100.1L316.4,88.6Z" />
        <path class="line"
            d="M285.4,121.9L313.5,112.9L314.5,131.3L282.5,137.1Z" />
        <path class="line"
            d="M280.9,149.3L259.5,149.4L260.6,141.3L281.7,137.9Z" />
        <path class="line"
            d="M315.5,159.4L281.2,159.5L281.5,149.9L315.6,147.4Z" />
        <path class="line"
            d="M353,172.6L313.2,170.8L316.1,160.1L354.6,160.7Z" />
        <path class="line"
            d="M377.6,186.6L345.7,184.8L353.5,173.3L382.5,174.4Z" />
        <path class="line"
            d="M389.6,200.8L365.4,199.1L377.9,187.3L398.9,188.4Z" />
        <path class="line"
            d="M387.8,213.6L370.6,212L389.9,201.5L404.7,202.7Z" />
        <path class="line"
            d="M372.1,223.9L362.6,222.9L387.9,214.2L395.5,215.4Z" />
        <path class="line"
            d="M414.5,206.6L397.4,215.9L397.2,215.4L414.1,204.9Z" />
        <path class="line" d="M415,207L414.9,206.8Z" />
        <path class="line" d="M414.5,210.2L410.8,209.4L415,207.1Z" />
        <path class="line"
            d="M399.9,215.4L410,209.9L414.3,210.9L412.3,217.4Z" />
        <path class="line"
            d="M437.2,223.3L410.3,224.9L412.8,218.1L439.6,217.3Z" />
        <path class="line" d="M434,230.1L407.5,232.6L410.1,225.5L436.9,224Z" />
        <path class="line"
            d="M429.8,237.1L404.5,240.3L407.2,233.3L433.6,230.8Z" />
        <path class="line" d="M382,266L371.6,268.2L371.9,259.9L382.5,258.6Z" />
        <path class="line"
            d="M374.4,286.7L372.6,277.9L382.4,275.3L383.8,283.5Z" />
        <path class="line" d="M379.3,297.3L374.6,287.3L384,284.1L388,293.2Z" />
        <path class="line"
            d="M379.7,297.9L388.3,293.8L396,304.2L388.7,309.2Z" />
        <path class="line" d="M377.3,313.4L388.6,310L403,322.7L392.1,326.6Z" />
        <path class="line"
            d="M362.4,315.2L376.6,313.6L391.3,326.7L374.8,328.1Z" />
        <path class="line"
            d="M345.9,316.1L361.6,315.3L373.9,328.1L354.4,328Z" />
        <path class="line"
            d="M335.2,328L354.1,328.7L367.5,341.3L343.1,339.4Z" />
        <path class="line"
            d="M295.2,345.3L308.8,334.7L306.5,345.1L294.1,355.9Z" />
        <path class="line"
            d="M281.3,351.3L294.5,345.6L293.4,356.4L280.6,362.3Z" />
        <path class="line" d="M250,361.8L265.1,364.8L263.6,371.4L248.7,368Z" />
        <path class="line"
            d="M209.7,338.6L209.3,345.3L193,349.2L194.5,338.4Z" />
        <path class="line"
            d="M195.2,328.8L193.9,337.8L175.4,343.6L179.2,329.1Z" />
        <path class="line"
            d="M180.5,316.5L178.7,328.5L160.3,334.1L165.5,316.7Z" />
        <path class="line"
            d="M153.5,301.8L166.6,302.6L164.9,316.1L149.1,319.4Z" />
        <path class="line"
            d="M140.6,285.3L153.2,287.8L152.9,301.1L139.9,301.1Z" />
        <path class="line"
            d="M152.4,275.4L153.2,287.2L140.5,284.7L137.4,270.3Z" />
        <path class="line"
            d="M150.8,262.2L152.4,274.7L137.2,269.6L132.5,254.5Z" />
        <path class="line"
            d="M148.8,247.4L150.7,261.5L132.3,253.7L127.3,237.3Z" />
        <path class="line"
            d="M165.6,252.5L149.4,247L148.3,232.5L165.8,237.8Z" />
        <path class="line"
            d="M190.1,204.4L195.1,227.3L181.5,223.5L177.6,203.5Z" />
        <path class="line"
            d="M186.8,184.1L190,203.7L177.5,202.8L174.4,184.6Z" />
        <path class="line"
            d="M174.7,155.9L173.7,168.9L162.6,171.7L163.5,158.6Z" />
        <path class="line"
            d="M157.2,149.8L164.9,144.2L162.8,158.1L154.4,163.9Z" />
        <path class="line"
            d="M165,143.3L157.6,148.5L162.2,130.8L171.1,127.8Z" />
        <path class="line"
            d="M176.8,141.6L165.8,143.1L171.8,127.6L180.9,127.7Z" />
        <path class="line" d="M190,142L177.5,141.6L181.6,127.7L193,130.3Z" />
        <path class="line"
            d="M260.1,140.6L244.1,138.8L246.7,131.6L262.2,129Z" />
        <path class="line"
            d="M240.6,144.4L243.8,139.4L260,141.3L258.8,149.3Z" />
        <path class="line" d="M280.5,159.5L258,158.1L259.4,150.1L280.8,150Z" />
        <path class="line"
            d="M312.5,170.7L279.2,170.6L281.1,160.1L315.4,160.1Z" />
        <path class="line"
            d="M345,184.7L305.3,182.6L312.9,171.4L352.7,173.2Z" />
        <path class="line"
            d="M364.4,199.1L329.9,196.1L345.2,185.4L377,187.3Z" />
        <path class="line"
            d="M369.4,211.9L343.2,209.4L364.7,199.7L388.7,201.4Z" />
        <path class="line"
            d="M361,222.7L344.7,221.7L369.1,212.5L386.3,214.1Z" />
        <path class="line"
            d="M353.3,235.1L342.5,235L360.8,223.5L370.7,224.5Z" />
        <path class="line"
            d="M372.1,224.6L375.7,225.7L362.1,236.3L354.3,235.3L371.8,224.6Z" />
        <path class="line"
            d="M396.8,216.2L376.4,225.3L373.2,224.2L396.6,215.7Z" />
        <path class="line"
            d="M390.5,232.1L394.3,224.2L409.4,225.5L406.8,232.6Z" />
        <path class="line"
            d="M387.3,240.9L390.2,232.7L406.5,233.3L403.8,240.4Z" />
        <path class="line"
            d="M363.6,289.4L361.9,280.2L372,278.1L373.8,286.9Z" />
        <path class="line" d="M367.9,300.4L363.7,290L374,287.5L378.7,297.5Z" />
        <path class="line" d="M368.2,301L379,298.1L388.1,309.5L376.8,312.9Z" />
        <path class="line" d="M355,303.1L367.5,301.2L376.1,313L361.9,314.6Z" />
        <path class="line"
            d="M341.5,305L354.3,303.2L361.2,314.6L345.5,315.4Z" />
        <path class="line"
            d="M330.9,318.2L345.1,316.1L353.6,328L334.7,327.4Z" />
        <path class="line"
            d="M324.8,321.6L330.3,318.4L334,327.4L322.5,329.1Z" />
        <path class="line"
            d="M297.7,327.9L313.6,314.8L309.1,333.7L295.3,344.4Z" />
        <path class="line" d="M282,334.8L297,328.2L294.5,344.9L281.3,350.6Z" />
        <path class="line"
            d="M266.3,352.7L280.6,351.5L280,362.5L265.8,364.2Z" />
        <path class="line"
            d="M250.7,349.6L265.7,352.7L265.1,364.1L250.1,361.1Z" />
        <path class="line"
            d="M235.4,359.4L235.8,353.2L249.4,361.6L248.1,367.7Z" />
        <path class="line"
            d="M224.9,346.3L224.4,346.1L221.1,341.4L223.1,341.8L231.3,354.5Z" />
        <path class="line"
            d="M220.6,342.1L223.6,345.7L210,345.3L210.3,338.8Z" />
        <path class="line"
            d="M211.2,335.4L209.8,338L194.6,337.8L195.8,328.9Z" />
        <path class="line"
            d="M196.6,322.5L195.3,328.2L179.4,328.4L181.2,316.6Z" />
        <path class="line"
            d="M181.2,306.5L180.6,315.8L165.6,316L167.2,302.8Z" />
        <path class="line" d="M153.9,288L166.7,291L166.6,302L153.6,301.2Z" />
        <path class="line"
            d="M166.4,279.6L166.7,290.4L153.9,287.3L153.1,275.6Z" />
        <path class="line"
            d="M165.9,267.3L166.4,278.9L153.1,274.9L151.4,262.5Z" />
        <path class="line"
            d="M165.6,253.2L165.9,266.6L151.4,261.8L149.5,247.7Z" />
        <path class="line"
            d="M196,248.6L181.1,241.3L181.5,224.2L195.2,228.1Z" />
        <path class="line"
            d="M206.1,209.8L210.6,235.7L195.8,227.6L190.8,204.6Z" />
        <path class="line"
            d="M201.1,186.3L205.9,209.1L190.7,203.8L187.5,184.1Z" />
        <path class="line"
            d="M187,168.4L186.8,183.4L174.3,183.9L174.4,169.4Z" />
        <path class="line"
            d="M188.2,155.1L187,167.7L174.4,168.8L175.4,155.8Z" />
        <path class="line"
            d="M174.8,155.2L163.5,157.9L165.6,143.8L176.7,142.3Z" />
        <path class="line"
            d="M188.2,154.4L175.5,155.2L177.3,142.3L189.9,142.7Z" />
        <path class="line"
            d="M204,143.2L190.7,142.1L193.7,130.5L206.6,134.1Z" />
        <path class="line"
            d="M222.7,138.1L227.2,133.4L243.2,139.2L240,144.2Z" />
        <path class="line" d="M237,151.3L240.3,145L258.7,150L257.4,157.9Z" />
        <path class="line"
            d="M278.3,170.3L255.6,168.2L257.9,158.7L280.5,160.1Z" />
        <path class="line"
            d="M328.8,196.1L295.4,195.9L304.9,183.3L344.2,185.4Z" />
        <path class="line" d="M341.8,209.3L312.3,209.1L329,196.7L363,199.7Z" />
        <path class="line"
            d="M343.1,221.6L322.4,222.9L341.6,210L367.6,212.4Z" />
        <path class="line"
            d="M341.2,235.1L328.2,237.8L342.8,222.2L359.6,223.4Z" />
        <path class="line"
            d="M343.9,249.2L334.2,252.3L341.3,235.7L352.8,235.8Z" />
        <path class="line"
            d="M354.4,248.7L344.7,249.1L353.5,235.8L361.6,236.9Z" />
        <path class="line" d="M376.5,225.9L378,227.5L369,238L362.9,236.4Z" />
        <path class="line" d="M378.5,227.1L377.2,225.6L386.2,221.6Z" />
        <path class="line"
            d="M389.2,220.8L381.5,229.7L379,227.5L388.9,220.6Z" />
        <path class="line" d="M382.1,230L389.2,221.2L393.7,224L389.8,232Z" />
        <path class="line"
            d="M376.7,239.8L381.7,230.6L389.6,232.6L386.6,240.9Z" />
        <path class="line" d="M371.3,259.3L362.2,260L364.4,250L372.7,250.6Z" />
        <path class="line" d="M371,268.3L361.3,269.9L362.1,260.7L371.3,260Z" />
        <path class="line"
            d="M361.2,270.6L371,268.9L371.9,277.4L361.8,279.6Z" />
        <path class="line"
            d="M351.6,291.6L350.4,282.3L361.2,280.3L362.9,289.5Z" />
        <path class="line"
            d="M351.8,292.3L363.1,290.2L367.2,300.6L354.7,302.5Z" />
        <path class="line"
            d="M340.1,295.6L351.1,292.4L354.1,302.6L341.3,304.4Z" />
        <path class="line"
            d="M330.1,310.6L340.9,305.2L344.8,315.5L330.7,317.5Z" />
        <path class="line" d="M326.9,315.1L326.6,315Z" />
        <path class="line"
            d="M327,314.5L329.5,311.3L330.1,317.7L325.1,320.7Z" />
        <path class="line" d="M326.7,311.6L326.4,314.3L323.6,323.4Z" />
        <path class="line"
            d="M323.5,316L326.8,292.8L327.4,306.6L322.6,324.4L323.8,316.1Z" />
        <path class="line" d="M314.4,314L320.6,289.1L323.2,315.5L310,332.5Z" />
        <path class="line"
            d="M302.3,300.4L308.8,275.1L313.8,313.8L297.9,326.9Z" />
        <path class="line"
            d="M286.8,312.9L301.5,301.1L297.1,327.5L282.1,334.1Z" />
        <path class="line"
            d="M252.8,332.8L266.2,336.2L265.7,352L250.8,348.9Z" />
        <path class="line"
            d="M237.9,341.4L250.1,349.3L249.4,360.8L235.9,352.5Z" />
        <path class="line"
            d="M225,336.6L235.2,352.7L234.8,358.5L223.7,341.5Z" />
        <path class="line" d="M220.6,340.6L199.2,318L200.8,313.7L222.5,341Z" />
        <path class="line"
            d="M211.8,335.6L217.7,339.4L219.4,341.1L210.5,338.1Z" />
        <path class="line" d="M213.2,335.5L196,328.3L197.2,322.9Z" />
        <path class="line"
            d="M198.4,318.2L196.8,321.9L181.3,315.9L181.8,306.9Z" />
        <path class="line"
            d="M167.3,291.3L181.5,297.1L181.2,305.8L167.3,302.1Z" />
        <path class="line"
            d="M181.5,286.4L181.5,296.4L167.3,290.6L167.1,279.8Z" />
        <path class="line"
            d="M181.1,273.8L181.4,285.6L167.1,279.1L166.6,267.6Z" />
        <path class="line"
            d="M180.4,258.4L181.1,273.1L166.6,266.8L166.3,253.5Z" />
        <path class="line"
            d="M210.8,236.5L215.1,265.6L196.7,249L195.9,228.4Z" />
        <path class="line"
            d="M223.1,218.5L228.8,250.5L211.4,236.1L206.8,210.2Z" />
        <path class="line"
            d="M217,191.6L222.9,217.6L206.6,209.3L201.8,186.5Z" />
        <path class="line" d="M187.6,168.4L201,169.2L201,185.6L187.4,183.5Z" />
        <path class="line" d="M202,155.5L201,168.6L187.7,167.7L188.8,155.1Z" />
        <path class="line"
            d="M236.4,151.1L219.2,146L222.3,138.6L239.7,144.8Z" />
        <path class="line"
            d="M234,161.6L236.8,151.9L257.2,158.6L254.9,168.1Z" />
        <path class="line" d="M253.7,182L255.4,168.8L278.1,170.9L274.2,183Z" />
        <path class="line"
            d="M294.5,196L271.4,199.7L274.7,183.6L304.1,183.3Z" />
        <path class="line"
            d="M311.2,209.1L288.4,214.8L294.7,196.6L328,196.7Z" />
        <path class="line"
            d="M321.1,223L303.6,230.9L311.6,209.8L340.4,210.1Z" />
        <path class="line"
            d="M327,238.1L315.9,248.4L321.5,223.6L341.9,222.3Z" />
        <path class="line"
            d="M333.3,252.7L325.5,262.6L327.6,238.6L340.5,235.9Z" />
        <path class="line"
            d="M340.7,263.5L332.6,270.8L333.9,253.1L343.6,250Z" />
        <path class="line" d="M351,261L341.5,263.3L344.4,249.8L354.2,249.4Z" />
        <path class="line" d="M364,249.3L355.2,248.7L362.3,237L368.6,238.6Z" />
        <path class="line"
            d="M361.6,260.1L351.7,260.9L354.8,249.4L363.8,249.9Z" />
        <path class="line"
            d="M360.6,270L350.3,271.6L351.6,261.6L361.5,260.8Z" />
        <path class="line"
            d="M350.2,272.3L360.6,270.7L361.2,279.7L350.3,281.7Z" />
        <path class="line" d="M339.6,286.3L349.7,282.5L351,291.8L340,294.9Z" />
        <path class="line" d="M330.6,304L339.5,296L340.7,304.6L330.1,309.9Z" />
        <path class="line"
            d="M328.3,309.5L329.8,305.9L329.4,310.3L327.5,312.7Z" />
        <path class="line" d="M327.3,288.8L331.8,274L331.4,286.1L328,303.3Z" />
        <path class="line"
            d="M302,298.9L291.8,250.2L302.6,232.7L308.6,273.4Z" />
        <path class="line"
            d="M286.7,312.1L281.8,269.7L291.3,251.1L301.6,300.2Z" />
        <path class="line"
            d="M257.6,310.7L270.5,315.6L266.3,335.5L252.9,332.2Z" />
        <path class="line"
            d="M200.3,290.5L201.2,303.8L182.2,286.2L181.8,274.4Z" />
        <path class="line"
            d="M198.2,271.3L200.2,289.6L181.7,273.5L181.1,258.8Z" />
        <path class="line" d="M215.3,266.6L220.9,296.1L198.8,271L196.8,250Z" />
        <path class="line" d="M229,251.5L238,290.9L215.9,266.3L211.5,237.1Z" />
        <path class="line"
            d="M239.7,227.6L248.8,267.4L229.6,251.2L223.8,218.9Z" />
        <path class="line"
            d="M235.3,199.2L239.6,226.7L223.7,218L217.7,191.9Z" />
        <path class="line"
            d="M201.6,169.3L215.3,172L216.9,190.9L201.7,185.8Z" />
        <path class="line"
            d="M216.2,157.7L215.3,171.3L201.6,168.6L202.6,155.6Z" />
        <path class="line"
            d="M216.3,157.1L202.7,154.9L204.5,143.9L218.4,146.5Z" />
        <path class="line" d="M233.4,161.5L217,157.2L219,146.6L236.1,151.7Z" />
        <path class="line"
            d="M233.2,176.6L233.9,162.3L254.8,168.7L253.1,181.9Z" />
        <path class="line"
            d="M270.7,199.8L253.6,202.1L253.7,182.7L274.1,183.6Z" />
        <path class="line"
            d="M287.6,215.1L272,224.9L271.3,200.4L293.9,196.8Z" />
        <path class="line"
            d="M281.6,268.6L272.1,225.6L287.6,215.8L291.1,250Z" />
        <path class="line"
            d="M271.2,315L267.9,276.9L281.2,270.1L286.1,312.5Z" />
        <path class="line"
            d="M257.6,310L249.7,268.8L267.3,276.9L270.5,314.9Z" />
        <path class="line" d="M221.1,297.4L224.5,320.7L201,290.2L199,272.1Z" />
        <path class="line"
            d="M238.3,292.2L241,322.4L221.8,297.5L216.1,267.6Z" />
        <path class="line" d="M249,268.4L256.7,309.1L239,292.3L229.8,252.2Z" />
        <path class="line"
            d="M256.2,231.2L267.1,276.1L249.6,268L240.4,227.8Z" />
        <path class="line" d="M253,202.7L256.1,230.5L240.3,227.1L236,199.4Z" />
        <path class="line"
            d="M232.5,176.4L216,171.5L216.9,157.9L233.3,162.1Z" />
        <path class="line" d="M253,202L235.9,198.7L233.2,177.3L253,182.6Z" />
        <path class="line"
            d="M267.8,276.2L256.8,231.1L271.5,225.9L281.1,269.4Z" />
        <path class="line"
            d="M270.7,200.5L271.4,225.3L256.7,230.5L253.6,202.7Z" />
        <path class="line"
            d="M216,172.2L232.5,177.1L235.2,198.4L217.6,191.1Z" />
        <path class="line" d="M201.9,304.5L201,291.4L224.7,322L224.5,334.8Z" />
        <path class="line"
            d="M200.4,312.4L182.2,296.8L182.2,287.2L201.2,304.7Z" />
        <path class="line" d="M225.3,321.8L222,298.9L241,323.6L237.5,340.1Z" />
        <path class="line"
            d="M241.7,323.4L239.2,293.3L256.9,310.2L252.3,331.8Z" />
        <path class="line"
            d="M302.7,231.3L291.7,249.1L288.2,215.5L310.8,209.9Z" />
        <path class="line" d="M315,249.3L309,271.1L303.2,231.8L320.8,223.8Z" />
        <path class="line" d="M331.9,271.5L327.2,287L325.4,264L333.2,253.9Z" />
        <path class="line"
            d="M339.4,275.7L332.1,284.9L332.6,271.7L340.6,264.5Z" />
        <path class="line"
            d="M349.6,271.8L340.1,275.3L341.3,264L350.9,261.7Z" />
        <path class="line"
            d="M331.6,287.1L339.2,277L338.9,286L331.5,295.1L331.9,287.1Z" />
        <path class="line" d="M331.3,297L331,297Z" />
        <path class="line" d="M331.3,296.5L338.9,287L339.4,295.2L330.7,303Z" />
        <path class="line" d="M330,303.8L329.3,305.5L330.2,301.7Z" />
        <path class="line" d="M327.7,309.4L328,309.4Z" />
        <path class="line"
            d="M349.7,281.8L339.6,285.6L339.9,276.2L349.6,272.5Z" />
        <path class="line"
            d="M325.1,263.6L320.8,284.5L315.7,249.5L326.9,239.2L324.7,263.6Z" />
        <path class="line"
            d="M198.6,317.6L181.9,306.1L182.2,297.6L200.3,313.2Z" />
        <path class="line" d="M215.2,336.2L214.9,336.4Z" />
        <path class="line" d="M197.4,322.2L198.9,318.7L215.9,336.8Z" />
        <path class="line" d="M223.2,340.8L201,313L201.8,305.4L224.5,335.8Z" />
        <path class="line"
            d="M225.2,335.7L225.3,322.9L237.3,341L235.4,351.8Z" />
        <path class="line"
            d="M238,340.7L241.6,324.1L252.2,332.6L250.2,348.6Z" />
        <path class="line" d="M267,335.5L271.1,315.7L286,313.1L281.4,334.3Z" />
        <path class="line"
            d="M314.2,312.2L309.2,273.4L315.2,251L320.5,287.1Z" />
        <path class="line"
            d="M323.6,312.6L321.1,287.1L324.9,266.5L326.6,289.1Z" />
        <path class="line" d="M327.9,307.2L331,291.4L331,296.4L327.7,309.3Z" />
        <path class="line"
            d="M364.7,249.3L369.3,238.7L375.8,240.3L372.9,250Z" />
        <path class="line" d="M378.5,228L381.1,230.3L376,239.7L369.7,238.1Z" />
        <path class="line"
            d="M207.2,134.2L221.6,138.4L218.6,145.8L204.7,143.3Z" />
        <path class="line"
            d="M190.6,142.7L203.9,143.8L202.1,154.8L188.9,154.4Z" />
        <path class="line" d="M196.1,249.4L198.1,270.5L181,258L181.1,242Z" />
        <path class="line"
            d="M266.3,352.1L266.9,336.2L281.3,335L280.6,350.8Z" />
        <path class="line"
            d="M384.3,249.7L373.6,250L376.4,240.4L386.4,241.5Z" />
        <path class="line"
            d="M312.1,171.4L304.6,182.6L274.9,183L278.7,171.1L279.1,171.2Z" />
        <path class="line"
            d="M232,126.9L246.1,131.5L243.5,138.6L227.6,132.8Z" />
        <path class="line"
            d="M212.7,126.5L226.6,133.1L222,137.8L207.5,133.7Z" />
        <path class="line"
            d="M180.5,241.8L180.4,257.7L166.3,252.8L166.5,238Z" />
        <path class="line" d="M224.3,346.6L229.5,353.3L225,353.2Z" />
        <path class="line"
            d="M321.5,329.9L307.4,344.2L309.7,334L323,317.2L321.2,329.7L321.5,329.7Z" />
        <path class="line"
            d="M382,266.7L382.3,274.6L372.5,277.3L371.7,268.8Z" />
        <path class="line"
            d="M382.6,257.9L372,259.2L373.4,250.6L384.1,250.3Z" />
        <path class="line" d="M401,247.9L385,249.6L387.1,241.6L403.5,241.1Z" />
        <path class="line"
            d="M399,216L412.1,218L409.6,224.9L394.6,223.6L398.5,216.1Z" />
        <path class="line"
            d="M397.3,216.7L393.9,223.4L389.7,220.7L390.6,219.8Z" />
        <path class="line"
            d="M281.8,137.3L260.7,140.6L262.8,128.9L284.7,122.1Z" />
        <path class="line"
            d="M233.8,113.5L249,117.2L246.2,130.9L232.2,126.3Z" />
        <path class="line" d="M218,117.6L231.4,126.6L227,132.6L213.1,125.9Z" />
        <path class="line"
            d="M200.6,119.7L212.1,126.1L206.9,133.5L194,129.9Z" />
        <path class="line"
            d="M161.4,131.2L156.7,149.2L149,156.8L150.6,136.3Z" />
        <path class="line"
            d="M167.6,222.6L180.9,224L180.5,241.1L166.5,237.3Z" />
        <path class="line"
            d="M126.9,298.8L125.4,279.7L139.9,285.2L139.3,301.1Z" />
        <path class="line"
            d="M210,345.9L223.6,346.4L224.4,353.2L210.5,354.5Z" />
        <path class="line"
            d="M225.2,353.9L230,353.9L235.1,360.2L238.9,363.6L227.7,363.5Z" />
        <path class="line"
            d="M241.6,365L237.8,361.7L247.8,368.3L247.1,369.1Z" />
        <path class="line"
            d="M278.2,369.7L264.3,371.4L265.7,364.8L279.8,363.2Z" />
        <path class="line"
            d="M320.6,334.7L320,334.4L318.4,338.2L305.5,350.7L307,345.6L320.7,331.7L320,334.1L320.6,334.3L322.2,329.8L334.4,328L342.3,339.3L321.8,338Z" />
        <path class="line"
            d="M315.6,342.3L318.8,338.8L321.4,338.6L326.9,348.3L310.8,347.3Z" />
        <path class="line" d="M307.9,349.7L307.7,349.4Z" />
        <path class="line" d="M303.7,354.3L303.5,354.1Z" />
        <path class="line" d="M307.8,350.2L310.4,356.2L301.4,356.3Z" />
        <path class="line" d="M303.3,353.9L300.2,356.5L303.3,353.8Z" />
        <path class="line" d="M305.1,352L307.2,349.9L304.9,352.3Z" />
        <path class="line"
            d="M319.3,337.6L320.2,335.5L321.1,338L319.5,337.9Z" />
        <path class="line"
            d="M398.6,255.3L383.3,257.8L384.8,250.3L400.7,248.6Z" />
        <path class="line"
            d="M425.3,244.2L401.7,247.8L404.3,241L429.3,237.9Z" />
        <path class="line"
            d="M417.8,204.2L441.7,204.6L441.2,210.1L415.1,210.3L415.8,206.4Z" />
        <path class="line" d="M237,95.6L256.3,97.2L249.2,116.5L233.9,112.8Z" />
        <path class="line"
            d="M203.2,103.7L217.5,117.2L212.5,125.6L200.8,119.1Z" />
        <path class="line"
            d="M137.8,143.3L150,136.7L148.2,157.4L133.6,159.5Z" />
        <path class="line"
            d="M149.3,218.6L166.9,222.5L165.9,237.1L148.3,231.8Z" />
        <path class="line"
            d="M114.6,292.4L107.3,269.8L124.8,279.4L126.2,298.5Z" />
        <path class="line"
            d="M210.6,355.2L224.5,353.9L227,363.5L212.9,364.5Z" />
        <path class="line" d="M229.1,392.4L218.4,376L233.2,378L246.6,399.7Z" />
        <path class="line"
            d="M270.9,372L262.9,372.9L264,372.1L277.2,370.6L275.5,371.6Z" />
        <path class="line"
            d="M272.1,374.1L271.5,372.6L275.6,372.2L282.5,368.8L282.9,369.8Z" />
        <path class="line" d="M285.4,367L285.4,366.9Z" />
        <path class="line"
            d="M290.7,363.6L279,369.3L280.5,363L293.2,357.2L291.5,363Z" />
        <path class="line"
            d="M294.3,361.2L292.4,362.3L294,356.8L306.1,346.5L304.1,352.2L294.2,360.9Z" />
        <path class="line"
            d="M295.2,361.1L300.7,356.9L310.7,356.8L314.8,365.2L296.8,366Z" />
        <path class="line"
            d="M420.7,251.2L399.3,255.1L401.4,248.5L424.8,244.9Z" />
        <path class="line"
            d="M453.3,239.5L426.2,244L430.2,237.7L457.8,233.9Z" />
        <path class="line"
            d="M469.1,209.1L441.9,210.1L442.3,204.6L469.4,204.2Z" />
        <path class="line"
            d="M425.3,195.8L426.5,192.5L439.7,193.3L441.2,198.1L424,197.4L425.2,195.9L425,195.7Z" />
        <path class="line"
            d="M424.6,195.7L415.3,206L414.7,204.5L422.9,192.8Z" />
        <path class="line" d="M336.8,83.3L339.3,106L314.1,112L317.1,88.3Z" />
        <path class="line" d="M343.9,59.5L328,60.9L339.4,37.3L352.8,39.2Z" />
        <path class="line" d="M338.6,37.5L327.2,61L306.2,70.6L320.4,43.2Z" />
        <path class="line" d="M243,77.9L267.6,73.8L256.6,96.6L237.2,95Z" />
        <path class="line"
            d="M218.5,82.4L236.4,95.4L233.3,112.5L217.7,100.4Z" />
        <path class="line"
            d="M127.9,127.6L137.2,114L137.1,142.9L124.6,148.2Z" />
        <path class="line"
            d="M101.5,282.5L86.5,256.4L106.2,269.1L113.7,291.7Z" />
        <path class="line"
            d="M192.4,361.1L210,355.3L212.3,364.6L193.8,370.3Z" />
        <path class="line" d="M207.9,387.5L199,378.8L217.6,376L227.9,392Z" />
        <path class="line"
            d="M247.6,418.6L229.8,393.4L247.2,400.7L268.1,430.2Z" />
        <path class="line"
            d="M269.6,431L248.1,400.9L262.9,404.3L284.1,435.1Z" />
        <path class="line"
            d="M283.4,394L272.4,374.7L283.2,370.4L290.8,385.6Z" />
        <path class="line"
            d="M302.8,377.8L297.1,366.7L315.1,365.8L319.8,374.2Z" />
        <path class="line" d="M447.5,246L421.6,251L425.7,244.8L452.4,240.3Z" />
        <path class="line"
            d="M475.3,235.8L454.3,239.3L458.7,233.7L478.8,231.1Z" />
        <path class="line" d="M486.9,209.7L469.8,209.1L470,204.3L487,205.5Z" />
        <path class="line"
            d="M429.3,184.8L429.4,182.7L434,183.2L436.9,187.4L428.7,186.7L429.3,184.9L429,184.8Z" />
        <path class="line"
            d="M428.6,184.9L424.9,194.9L423.3,192.1L426.1,181.2Z" />
        <path class="line"
            d="M402.6,174.7L383.3,173.7L383.4,161.6L402,163.3Z" />
        <path class="line" d="M352.8,87.5L360.2,108.5L340,106L337.5,83.3Z" />
        <path class="line" d="M355.1,66.2L344.5,59.7L353.4,39.5L362.2,48.3Z" />
        <path class="line" d="M330,22.8L319.9,42.7L296.5,56.8L308.4,34.1Z" />
        <path class="line" d="M249.4,63.6L278.5,52.7L268,73L243.3,77.2Z" />
        <path class="line" d="M220.9,66.9L242.4,77.8L236.6,94.8L218.5,81.6Z" />
        <path class="line" d="M202.4,57.7L217.8,81.8L217.1,99.6L201.4,78.6Z" />
        <path class="line" d="M128.2,95.7L136.8,77.3L137.2,112.9L128,126.4Z" />
        <path class="line" d="M96.9,90.8L101.8,106.2L89.6,110.1L80.7,86.5Z" />
        <path class="line" d="M111.5,77.7L112.6,82.4L97.4,90.1L92.3,73.9Z" />
        <path class="line" d="M112,76.7L110.7,71.1L119.4,68.2Z" />
        <path class="line" d="M93.4,153.5L96.9,154L102.3,153.5L97.7,154.4Z" />
        <path class="line" d="M87.3,272.7L66.8,243.7L85.3,255.7L100.2,281.6Z" />
        <path class="line"
            d="M182.4,391.4L174.7,389.5L198.3,379L206.8,387.5L182.8,391.4Z" />
        <path class="line"
            d="M195.1,395.2L184.2,391.8L207.4,388L220.9,402.4Z" />
        <path class="line"
            d="M265.3,445.1L248.4,419.8L269,431.5L280.5,456.2Z" />
        <path class="line"
            d="M300.6,420L283.7,394.6L291.2,386.2L303.6,405.9Z" />
        <path class="line"
            d="M311.2,391.9L303.1,378.4L320.2,374.8L325.2,383.6Z" />
        <path class="line"
            d="M430.3,326.4L434.9,336.7L423.5,327.4L421,318.2Z" />
        <path class="line"
            d="M420.3,279.5L409.4,288.1L408.7,281L423.4,273.5Z" />
        <path class="line"
            d="M470.3,241.4L448.5,245.8L453.4,240.1L474.4,236.6Z" />
        <path class="line"
            d="M488.5,233.5L476.3,235.6L479.7,231L490.9,229.6Z" />
        <path class="line"
            d="M496.7,207.8L496.7,211.4L487.5,209.7L487.7,205.6Z" />
        <path class="line"
            d="M461.1,185.4L464.2,188.9L437.7,187.5L434.9,183.3Z" />
        <path class="line"
            d="M379,118.2L390.3,134.4L372.1,129.1L361.5,109.6L378.5,117.7Z" />
        <path class="line" d="M366.8,99.1L377.8,116.7L361,108.6L353.8,88.3Z" />
        <path class="line" d="M362.8,79.8L355.6,66.7L362.5,49.2L366.9,64.4Z" />
        <path class="line" d="M372.4,71.8L369.3,83.2L367.5,64.5L372.5,51.5Z" />
        <path class="line" d="M335.5,10.4L330.5,21.8L308.8,33.1L315.4,19.3Z" />
        <path class="line" d="M254.7,54.4L286.1,38.3L279,51.8L249.9,62.7Z" />
        <path class="line" d="M242.3,51.7L257,50.1L254.3,53.8L232,53Z" />
        <path class="line" d="M231.6,46.9L229.9,51.7L226,48.8Z" />
        <path class="line" d="M243.5,45.9L232.5,46.1L235.8,27.1L246.8,27.1Z" />
        <path class="line" d="M255.2,49.1L244.2,46L247.4,27.2L258.8,32.3Z" />
        <path class="line" d="M244,46.6L254.8,49.7L242.7,51Z" />
        <path class="line" d="M230.7,52.5L232.3,46.7L243.4,46.6L242,51.1Z" />
        <path class="line"
            d="M270.1,41.9L257.6,49.4L255.8,49.3L259.4,32.7L270.2,41.7Z" />
        <path class="line"
            d="M221.4,45.1L224.2,32.5L235,27.4L231.8,46.1L225.4,48.3Z" />
        <path class="line" d="M224,57.4L248.7,63.6L242.6,77.1L221,66.2Z" />
        <path class="line" d="M204.3,42.5L220.3,66.5L218,80.8L202.4,56.6Z" />
        <path class="line" d="M128.7,66.7L137.4,48.4L136.8,75.8L128.3,93.8Z" />
        <path class="line" d="M52,252.1L61.4,268.2L50.6,274.4L48.3,263.7Z" />
        <path class="line" d="M47.6,263.6L33.9,273.9L35.5,264.9L44.1,250.9Z" />
        <path class="line" d="M23.9,265.3L36.4,254.8L34.9,264.6L20.6,273.3Z" />
        <path class="line"
            d="M28.3,256.4L28.3,255.8L36.9,244.7L36.6,253.8L24.6,263.9Z" />
        <path class="line" d="M7.7,285.2L17.2,282.7L16.1,289.1L7.1,290.7Z" />
        <path class="line" d="M37.4,301.4L56.9,297.7L60,302.6L40.7,304.9Z" />
        <path class="line" d="M85.5,308.3L82.3,297.5L79.2,283.4L87,288.8Z" />
        <path class="line" d="M87.6,288.5L87.3,288.7Z" />
        <path class="line" d="M87.3,288.1L76.1,266.6L86.6,273L93.3,297.2Z" />
        <path class="line" d="M135.1,415.1L135.7,416.4L132.8,416.2Z" />
        <path class="line" d="M131.9,436.3L136.5,417L151.2,412L147.1,430.1Z" />
        <path class="line"
            d="M127.6,449.7L131.7,437.1L146.8,430.9L141.5,446.8Z" />
        <path class="line" d="M167.6,400.5L168.2,400.4L167.4,400.6Z" />
        <path class="line" d="M169.8,400.4L169.7,400.2Z" />
        <path class="line"
            d="M186.9,399.1L186.8,399.7L171.7,400L174,399.4L173.9,398.8L167.5,399.8L164.8,401L164.8,401.7L164.4,401.2L164.6,401.8L166.5,401.4L169.8,404.7L151.7,411.1L149.2,408.3L164.4,401.9L164.2,401.2L160.5,402.4L182.5,392L193,395.4L180.7,398L174.8,398.5L174,398.8L174.1,399.4L180.7,398.3L186.2,399.6L186.8,399.1L182.6,398L194.9,395.9L206.1,403.1Z" />
        <path class="line" d="M208.8,404.1L208.6,404.4Z" />
        <path class="line" d="M197,396.4L221.7,403.3L236.9,422.6Z" />
        <path class="line" d="M273,470L271.3,463.4L284.9,472.1L286.7,477.1Z" />
        <path class="line"
            d="M312.4,443.4L301.1,420.7L304.1,406.8L315.7,426.4Z" />
        <path class="line"
            d="M319.3,406.1L311.5,392.5L325.5,384.2L329.3,392.5Z" />
        <path class="line" d="M428.1,319.7L436.6,331.5L430.8,326L425,316.2Z" />
        <path class="line"
            d="M432.3,275.8L419.4,285.6L420.8,279.9L435.8,272Z" />
        <path class="line"
            d="M443.6,271.1L429.4,280.3L432.7,276.4L445.4,269.6Z" />
        <path class="line" d="M442,272.9L442.7,272.5L441.8,273.1Z" />
        <path class="line"
            d="M443.6,264.6L425.1,272.1L429.3,266.3L449.2,259.9L444,264.5Z" />
        <path class="line"
            d="M450.9,258.6L450.6,259.1L430,265.4L434.8,259.8L456.4,253.9Z" />
        <path class="line"
            d="M458.1,252.8L435.9,258.7L441.4,253.1L463.2,248.1Z" />
        <path class="line"
            d="M480.6,188.7L483.1,191.9L465.1,189L462.3,185.7Z" />
        <path class="line"
            d="M451.6,177.9L455.9,180.7L430.7,178.1L429.3,176.7L429.3,174.8Z" />
        <path class="line"
            d="M423.4,162.1L425.5,165.8L427.8,172L425.5,169L422.7,161.5Z" />
        <path class="line" d="M425,162.8L425,162.9Z" />
        <path class="line" d="M393.2,124.8L385.7,116.9Z" />
        <path class="line"
            d="M373.6,86.7L372.3,92L373.1,71.9L375.8,64.4L373.3,86.7Z" />
        <path class="line" d="M364.7,7.3L363.8,12.3L352.3,8.2L353.5,3.2Z" />
        <path class="line" d="M337.2,4.1L335.9,9.5L315.7,18.5L317.6,12.5Z" />
        <path class="line"
            d="M224.8,17.4L223.7,32L215,39.5L213.4,37.8L215.1,27Z" />
        <path class="line" d="M206.7,35.2L223.5,57.1L220.5,65.7L204.5,41.6Z" />
        <path class="line"
            d="M153.2,11L164.1,8.4L161.7,17.1L150.8,19.4L153,11.1Z" />
        <path class="line" d="M130.3,47.1L139.1,30.7L137.4,46.4L128.9,64.4Z" />
        <path class="line" d="M64.2,145.8L63.6,134.6L67.6,146.8L64.5,145.8Z" />
        <path class="line" d="M72.4,156.7L102.7,173.5L94.4,177.1L63.3,159Z" />
        <path class="line"
            d="M42.9,247.6L43.5,247.3L37.9,232.5L51.5,251.2L48,262.6L44.5,250L43.5,247.5L42.9,247.7L43.8,250.1L35.8,263.2L37.2,254L37.8,235.9Z" />
        <path class="line"
            d="M34.1,236.6L35.1,235.6L35.7,237L34.8,238.3L29.3,241.9Z" />
        <path class="line" d="M28.1,247.2L34.4,241.5L32.7,246.9L23.7,252.8Z" />
        <path class="line" d="M2.9,284.8L7.1,285.3L6.5,290.7L2.7,289.7Z" />
        <path class="line" d="M41.5,305.4L60.4,303.2L63.7,307.2L45.4,307.9Z" />
        <path class="line"
            d="M78.3,326.7L78.8,326.3L81.3,311.7L82.2,299.4L85.4,310.2L78.2,329.4L78.7,326.7Z" />
        <path class="line"
            d="M140.5,453.9L142.1,447.3L160.5,436L157.8,445.5Z" />
        <path class="line"
            d="M255.7,451.6L252.4,444L270.3,462.5L272.1,469.1Z" />
        <path class="line"
            d="M321.5,441.5L316.4,457.8L312.9,444.4L316.2,427.6L321.5,441.2Z" />
        <path class="line"
            d="M331.4,400L324.5,417.7L319.7,406.7L329.5,393.3L331.1,399.9Z" />
        <path class="line"
            d="M425.9,315.1L427.1,317.5L422.7,312.4L421.2,305.7L422.4,308.1Z" />
        <path class="line"
            d="M419.3,299.1L419.4,300.7L420.1,300.9L419.6,299.1L422.5,293.2L420.8,303.2L420.1,301.1L419.5,301.2L421.7,311.2L416.9,305.2L418.4,295.4L419,299.1Z" />
        <path class="line"
            d="M452.6,265.9L447.2,269L453.3,265.4L452.7,265.8Z" />
        <path class="line"
            d="M455.9,262.1L439.3,269.6L444.2,264.8L459.8,259.2Z" />
        <path class="line" d="M462.6,257.4L445.7,263.8L451,258.9L467,254Z" />
        <path class="line" d="M468.6,252.7L468.7,253Z" />
        <path class="line"
            d="M452.5,258.1L458.2,253.1L473.4,248.9L469,252.6Z" />
        <path class="line" d="M474.7,247.8L474.8,248.1Z" />
        <path class="line"
            d="M459.5,252.4L464.5,247.8L479.2,243.9L475.1,247.7Z" />
        <path class="line"
            d="M491.8,236L485.8,237.8L488.6,234.1L494.2,232.9L492.5,235.3Z" />
        <path class="line"
            d="M477.5,185.4L479.8,187.9L461.6,184.9L458.1,181.7L477.1,185.3Z" />
        <path class="line"
            d="M475.9,184.4L457.2,180.9L453.8,178.5L473.3,182.4Z" />
        <path class="line"
            d="M467.3,179.4L471,181.2L452.4,177.5L448.5,175.1Z" />
        <path class="line"
            d="M444.4,173.7L428,170.7L427.2,168.5L441.2,171.9Z" />
        <path class="line"
            d="M438.2,170.4L426.9,167.8L426.3,166.2L436.1,169.2Z" />
        <path class="line"
            d="M431.3,166.7L432.3,167.4L426,165.4L425.5,164.5Z" />
        <path class="line"
            d="M241.4,4.5L251.5,4.7L248.4,11.5L237.3,11.4L240.5,4.5Z" />
        <path class="line" d="M179.7,6.9L192.1,16.1L189.8,20.7L177.3,10.6Z" />
        <path class="line" d="M142.3,19.9L152.2,11.8L150.1,19.7L140.1,28.2Z" />
        <path class="line"
            d="M132.1,36.8L141.1,21.9L139.2,29L130.9,44.1L132.5,36.8Z" />
        <path class="line" d="M114.4,57.7L122.7,61.9L121.8,63.5L112,58.8Z" />
        <path class="line" d="M51.9,82.4L55.1,73L58.5,87.5L55.4,96L52,82.4Z" />
        <path class="line" d="M58.1,123.2L58.1,123.1Z" />
        <path class="line"
            d="M60.4,132.5L57.6,117.7L62.7,131.5L63.6,142.7L60.7,132.4Z" />
        <path class="line" d="M49,145.6L71.4,156.3L62.4,158.5L40.6,147.8Z" />
        <path class="line" d="M39.5,148.1L39.6,147.8Z" />
        <path class="line" d="M61.9,158.9L56.3,165L34.3,153.7L39.4,148Z" />
        <path class="line" d="M24.6,143.4L38.8,147.8L33.7,153.4L19.8,148.7Z" />
        <path class="line"
            d="M6.8,174.1L6.5,173.2L9.8,169.2L15.7,184L13.5,188.8Z" />
        <path class="line" d="M14,190L16.1,184.7L29.6,206L28,211.3Z" />
        <path class="line"
            d="M36.6,229.2L30,215.2L48.9,240L51.1,249.6L37.1,230.1Z" />
        <path class="line" d="M14.2,258.8L20.9,255.4L16.4,262.2L10.4,264.6Z" />
        <path class="line"
            d="M3.1,293.6L2.8,290.4L6.5,291.4L6.8,296.2L3.3,294.6Z" />
        <path class="line"
            d="M14.8,308.2L13.9,307.8L11.9,305.6L20.5,305.3L23.5,307.9Z" />
        <path class="line"
            d="M28.9,310.2L25.3,308.4L40.5,305.6L44.4,308.1L29.4,310.3Z" />
        <path class="line"
            d="M39.3,312.5L37.7,312.2L50.7,311.1L55.3,312.6L44.7,312.9Z" />
        <path class="line"
            d="M59.1,313.4L60.6,314.3L50.7,313.4L58.5,313.6L59.1,313.1L58.5,313.2L53.8,311.4L68.6,312.2L71.9,315.3L59.2,313.1Z" />
        <path class="line"
            d="M76.5,335L77.5,333.2L77.1,332.6L77.2,333.1L72.5,343.5L77.6,329.3L77.1,332.5L77.7,332.7L85.1,313.1L83.4,328.4L69.9,353.8L76.8,335.1Z" />
        <path class="line" d="M67.8,359.3L83.2,330.2L81.3,346L65.1,375.5Z" />
        <path class="line" d="M78.6,425.4L75.4,419.3L89.4,418L92.6,424.4Z" />
        <path class="line"
            d="M116.3,452.3L116.4,447.8L126.7,450.4L126,455.4Z" />
        <path class="line"
            d="M181.7,429L158.7,444.9L161.3,435.5L185.8,422.7Z" />
        <path class="line"
            d="M225.8,424.7L221.2,417.4L250.5,442L254.5,450.5Z" />
        <path class="line" d="M224.9,427L225.7,427.7L224.5,426.8Z" />
        <path class="line" d="M326.3,424.4L324.9,418.5L331,402L330.9,404.2Z" />
        <path class="line"
            d="M346.4,391.4L331.8,399.1L330,392.8L350.7,387.4L349,389.9Z" />
        <path class="line"
            d="M377.2,388.7L349.8,389.8L351.6,387.2L378.8,388.3Z" />
        <path class="line" d="M407,388.9L382.3,387.7L384.1,385.4L409,386.6Z" />
        <path class="line"
            d="M451,357.9L450.7,357.3L450.1,357.5L450.5,357.8L450.3,358.6L447.6,366.7L446.5,362.5L448.9,354.3L450.1,357.4L450.7,357.2L447.4,345.6L445.1,341.3L433,324.7L426.5,314.8L423.4,308.7L422.2,299L422.6,296.2L424.5,292.2L424.2,291.6L424.5,292.2L424,291.9L423.1,292.9L423.4,291.5L425.4,289.3L424.3,291.1L424.7,291.7L427.9,286.7L427.4,286.3L424,289.9L425.3,286.9L430.3,282.9L427.9,285.5L428.3,285.9L429.4,284.4L444.4,272.1L467.7,257L479.6,248.6L484.6,244.4L493,235.7L497.8,228.8L500.5,222.1L501.7,214L501.7,210.4L500.6,204.2L497.4,198.2L489.9,190L485.9,186.8L481.9,184.5L479.7,183.4L479.4,184L481.6,185L472.9,181.5L472.4,181.3L479.3,184L479.5,183.4L465.8,177.7L465.6,178.3L465.7,177.7L464.3,177.1L464.1,177.7L465.3,178.2L446.7,174L443.5,172.4L463.6,177.6L464.2,177.1L453.9,173.3L453.8,174L456.2,174.8L440.5,171L438.7,169.9L453.6,173.9L453.8,173.3L440.7,168.9L440.5,169.5L442.5,170.3L435,168.2L433.9,167.5L440.3,169.5L440.6,168.9L432,165.5L423.1,160.9L414.9,149.2L408,142.2L394.7,124.9L389.6,119.9L387.2,116.8L376.5,107.1L374,103.3L373.8,102L375.3,81.5L378.3,55.5L378.5,33.2L374.1,16.9L365.5,7L364,5.8L352.2,1.4L336.4,2.5L315.7,11.7L291.1,28.5L278.8,15.5L267.3,7.5L255.1,3.7L243.5,3.5L240.3,3.9L228.4,7.9L216.6,17.1L207.4,30.8L195.6,16.9L183.5,8.2L180,6.4L167.4,3.7L155.5,7.1L144.6,16.1L141.9,19.3L131.9,36.3L123.6,60L106.1,53.4L105.9,54L113.6,57.4L111.2,58.4L94.6,50.5L98.1,50.7L105.3,53.8L105.5,53.2L98.4,50.1L78.8,47.4L78.9,48L92.5,50.4L89.8,52.9L76.3,49.5L78.9,48L78.6,47.4L69.2,49.8L65.5,51.4L58,58.1L55.4,62.7L51.5,72.7L51.1,90.2L52.4,100.5L53.1,100.3L52.5,96.4L52.1,85.6L55,97.2L55.8,109.6L53.1,100.4L52.4,100.6L57.3,123.1L58,125.5L58.5,125.3L58,125.6L62.6,145.3L48,142L47.5,141.5L34.4,140.4L34.3,141L47.8,145.3L39.7,147.4L26,143L33.4,141L33.3,140.3L24.2,140.6L15.8,142.8L5.9,152.8L3.9,161.1L5.8,173.1L11.5,189.8L31,224.2L34.5,233.3L16.3,253.2L11.2,259.6L7.2,265.8L4.2,271.5L2.4,277L1.4,282.2L1.4,287.5L2.7,295L4.1,299.3L6,302.7L9.1,305.9L18.3,310.8L24,312.1L59.8,314.8L68.8,316.7L68.8,316L63,314.4L72.8,316.1L74.3,317.6L69.5,316.2L68.8,316.6L69.4,316.5L73.6,318.2L77.2,320.3L76.9,329.4L59.2,377.2L59.8,377.4L66.8,361.7L64.2,377.3L58.2,393.9L58.6,381L59.8,377.6L59.2,377.3L58,380.9L55.9,391.5L57.1,407.5L60,413.7L66.7,421.4L70.9,423.6L71.6,423.1L67.4,421.2L64.7,415.9L74.6,419.3L77.7,425.2L73,423.6L72.7,424.2L85.3,428.5L101,427.1L101.2,426.6L99.2,426.7L94,424.7L112.8,418L118,420.1L102.2,425.6L101.5,426.2L102.3,431.5L103.4,435.2L107.3,444.4L115.5,452.5L118.1,454.4L127.6,457.8L140.9,457L160.3,448.3L160.8,447.8L160.4,447.3L158.6,448.5L158.4,445.9L181.3,430.1L180.3,432.9L160.6,447.3L161,447.8L184.1,431.6L194.6,425.9L194.2,425.4L182.7,428.7L186.9,422.1L201.9,423.2L194.4,425.4L194.6,426L204.2,423.2L216.5,423.8L221.6,425.8L221.9,425.2L193,413.6L194.8,406.8L225.2,424.9L224.8,426.3L222.1,425.2L221.8,425.8L230.9,432.4L254.9,453.1L272.5,471L287.3,478.5L299.8,479.7L309.7,476.3L318.1,466L323.4,449.4L326.6,425.9L331.5,404.5L344,393.4L346.7,392L360.1,390L377.2,389.3L402.3,390.3L419.9,388.3L425.2,386.9L437.4,381.8L445.7,374L447.5,371.5L450.7,362L451,358.1L450.7,358.1Z" />
    </g>
</svg>