<svg xmlns="http://www.w3.org/2000/svg" xml:space="preserve"
    style="fill-rule:evenodd;clip-rule:evenodd;stroke-linejoin:round;stroke-miterlimit:2"
    viewBox="0 0 524 428">
    <path
        d="M211.856.302c-2.07 1.34.19 4.19 1.99 2.78 1.64-1.3-.15-3.98-1.99-2.78M163.796 7.012c-.48-1.96-3.37-1.59-3.35.44.03 2.64 3.94 1.94 3.35-.44M154.566 15.422c-1.94 1.42-.58 3.53 1.08 3.21a1.752 1.752 0 0 0-1.08-3.21M203.046 2.902c.76 2.15 3.93 1 3.19-1.11-.75-2.16-3.93-1.01-3.19 1.11M196.336 12.252c.65 2.14 3.91 1.18 3.23-1-.67-2.12-3.89-1.16-3.23 1M219.716 7.832c-.84-1.87-3.91-.95-3.13 1.42.91 2.18 4.08.68 3.13-1.42M190.126 32.782c.74 1.37 2.94 1.07 3.21-.54.13-.78-.35-1.72-1.32-1.95-1.54-.35-2.54 1.29-1.89 2.49M150.226 36.632c-.38-2.67-4.16-1.55-3.3.75.71 1.92 3.48 1.16 3.3-.75M225.566 20.962c-.68-1.86-3.52-1.24-3.28.79-.19 2.79 4.41 2.23 3.28-.79M227.606 39.632c-.02 2.48 3.64 2.12 3.41-.16-.21-2.09-3.4-2.03-3.41.16M194.836 43.062c-.25-2.5-4.11-1.71-3.36.69.61 1.95 3.56 1.35 3.36-.69M124.426 19.552c-.16-1.07-1.23-1.78-2.34-1.3-1.31.55-1.35 2.22-.34 2.95 1.24.89 2.91-.19 2.68-1.65M88.536 37.052c-1.54-.58-2.97 1.15-2.01 2.55.47.71 1.3.89 1.95.67 1.53-.52 1.53-2.66.06-3.22M86.516 45.102c-.2-1.5-2.14-2.19-3.37-.35-.61 1.3 0 2.33.95 2.61 1.32.39 2.59-1.07 2.42-2.26M117.086 26.912c-2.24-.06-2.39 3.34-.08 3.4 2.27.05 2.35-3.34.08-3.4M142.776 67.912c-.28-2.17-3.62-1.84-3.41.38.21 2.26 3.71 1.92 3.41-.38M188.026 63.762c-.2-2-3.16-2.05-3.42-.06-.32 2.5 3.65 2.57 3.42.06M132.556 108.842c-.26 2.55 3.58 2.43 3.43.07-.13-2.09-3.23-2.13-3.43-.07M112.076 47.132c-.09-2.55-4.05-1.91-3.38.52.52 1.93 3.46 1.52 3.38-.52M59.596 66.372c-1.79-1.99-4.51 1.46-2.31 2.83 1.18.75 2.63-.16 2.74-1.55.03-.36-.15-.96-.43-1.28M60.436 72.482c-2.01 1.16-.11 4.22 1.82 2.9.05-.01.1-.1.16-.16 1.56-1.4-.27-3.73-1.98-2.74M203.416 91.002c.2.56.36.72.85.96.07.03.14.09.22.11l.08.02.08.03c.09.02.18 0 .26.01.06 0 .21.04.25.02l.09-.02s.05.01.09 0c.05 0 .18-.08.24-.1.38-.13.7-.31.96-.85.04-.07.09-.13.11-.21.09-.25.09-.8.06-.85 0-.06-.08-.19-.09-.24-.27-.76-.85-1.09-1.5-1.13-.05-.01-.2-.05-.25-.03l-.08.02s-.05-.01-.09.01c-.06-.01-.18.07-.24.09-.52.18-.7.31-.96.85-.04.07-.09.14-.12.21l-.01.09-.03.08c-.02.09-.01.17-.01.26 0 .05-.04.21-.03.25l.02.09s-.01.05.01.08c-.01.06.07.19.09.25M201.616 64.552c0-.05-.02-.04-.03-.08-.54-2.05-3.55-1.45-3.37.59l.03.1c.01.05-.02.07.01.11-.01.05.02.05.03.09.52 1.93 3.34 1.55 3.35-.44 0-.06.02-.1.01-.16l-.02-.09c-.01-.05.01-.07-.01-.12M235.346 61.702c-.33-2.33-3.78-1.67-3.4.52.22 1.41 2.09 1.97 3.03.79.46-.58.31-.92.37-1.31M237.736 89.572c1.35-.43 1.6-2.08.61-2.92-.94-.78-2.4-.3-2.75.77-.39 1.17.65 2.62 2.14 2.15M71.106 86.552c-.55-1.52-2.69-1.55-3.25-.06-.24.67-.03.79-.01 1.18.74 2.08 3.97 1.02 3.26-1.12M78.186 61.382c.17 1.57 2.09 2.02 3.01.88.89-.72.85-2.12-.21-2.76-1.37-.83-2.95.58-2.8 1.88M102.886 76.542a1.702 1.702 0 0 0-2.15-1.63c-1.41.38-1.71 2.23-.53 3.06 1 .7 2.7.12 2.68-1.43M91.526 113.392c-1.92.52-1.91 2.62-.18 3.37.1.07.32.02.41.02 2.35.02 2.23-3.74-.23-3.39M129.216 155.262c-.07-.02-.14.03-.22.05-.78.14-1.56.88-1.35 1.97.22 1.21 1.47 1.7 2.42 1.23 1.92-.94.58-3.74-.85-3.25M182.206 104.222c-2.37.01-2.13 3.57.12 3.42 1.09-.06 1.68-1.2 1.6-1.59.19-.51-.4-1.84-1.72-1.83M238.206 118.032c.19.66.67 1.12 1.41 1.22 2.01.26 2.55-2.28 1.06-3.15-1.5-.86-2.8.77-2.56 1.6-.02.07.07.25.09.33M60.106 63.062a1.694 1.694 0 0 0-2.93-.77c-.74.82-.51 2.03.36 2.57 1.27.8 2.9-.26 2.57-1.8M181.456 155.182c-.03-1.04-1.17-1.82-1.73-1.66-1.63.03-2.37 2.13-.95 3.11 1.15.8 2.73-.05 2.68-1.45M55.756 122.382c.17 1.3 1.63 1.92 2.68 1.18 1.26-1.2.65-2.66-.43-3.03-1.16-.41-2.42.55-2.25 1.85M32.246 129.242c1.97 1.04 3.57-1.96 1.59-3.02-2.05-1.07-3.53 2-1.59 3.02M38.466 95.632c0-.87-.64-1.51-1.36-1.66s-.58.19-.78-.26c-.6-1.35-2.35-1.27-3.01-.22-.64 1.02.01 2.67 1.52 2.61.35-.01.23-.09.35.2.72 1.72 3.29 1.2 3.28-.67M45.746 94.762c-.45 2.81 3.95 2.45 3.6-.09-.28-2.06-3.29-1.87-3.6.09M206.116 119.892c.26.93 1.35 1.4 1.75 1.25 1.23.25 2.4-2.22.71-3.18-1.34-.77-2.87.48-2.46 1.93M240.516 151.042c1.49.96 2.66.15 2.84-.99.03-.19.08-.26.05-.35 0 0-.14-.62-.17-.66-1.14-2.38-4.74.12-2.72 2M49.296 162.702c-1.14-.7-2.51.13-2.61 1.32-.09 1.11.97 2.1 2.15 1.79 1.44-.38 1.78-2.29.46-3.11M86.286 160.312c0-.06.03-.1.01-.15.01-.05-.03-.08-.04-.14-.32-1.9-3.08-1.85-3.38.03-.38 2.36 3.28 2.69 3.43.37 0-.04-.02-.07-.02-.11M128.926 208.752c-.41-2.04-2.35-2.08-3.12-.94-1.61 2.37 2.79 4.03 3.12.94M45.016 211.662c1.99-.4 1.75-3.3-.28-3.37-2.2-.06-2.41 3.25-.19 3.43l.09-.01.1.01c.07.02.24-.05.28-.06M15.356 130.392c.07 1.82 2.62 2.31 3.29.55.19-.27.01-.57.19-.3.89 1.39 3.22.82 3.14-1-.09-2.09-3.2-2.2-3.4-.09-.84-1.64-3.29-.96-3.22.84M21.186 167.402c.02 2.19 3.21 2.25 3.41.14.22-2.31-3.46-2.55-3.41-.14M18.956 209.152c-.84-.07-1.54.49-1.78 1.13-.91 2.54 3.24 3.25 3.32.64.03-.99-.84-1.7-1.54-1.77M86.166 258.442c0-2.08-3.05-2.35-3.39-.26 0 .04-.04.12-.03.16l.01.11-.02.1c.13 2.19 3.44 2.12 3.43-.11M83.316 209.302c.05-2.29-3.3-2.27-3.43-.15-.15 2.33 3.39 2.39 3.43.15M50.106 255.952c-.01-2.18-3.12-2.26-3.39-.2l-.03.11s.01.08.01.12c.02 2.06 3.11 2.37 3.4.21 0-.04.03-.11.03-.11s-.02-.08-.02-.13M5.176 172.062c2.27.89 3.28-2.62 1.07-3.24-2.04-.58-3.12 2.46-1.07 3.24"
        style="fill:#c6c6c6;fill-rule:nonzero" />
    <path
        d="M7.426 169.612c0 .04.03.08.04.13s.01.1.02.15c.01.04.07.11.08.15.92 2.1 3.82.7 3.2-1.21 0-.04-.07-.11-.08-.15-.48-1.09-1.15-.92-1.81-1.02-.04 0-.08.03-.12.04-.06.01-.11.01-.16.03-.04 0-.11.06-.15.08-.06.02-.13.03-.18.07-.05.02-.08.06-.12.09-.05.03-.09.05-.13.08-.05.04-.08.09-.12.14-.04.04-.09.07-.13.12-.03.04-.05.09-.07.13-.03.05-.07.08-.09.13-.03.06-.04.12-.07.18-.01.04-.07.12-.07.16-.01.05 0 .1-.01.15s-.04.09-.04.14c.02.1.02.3.01.41M208.796 149.302c-2 .39-2.03 2.41-.84 3.16 2.28 1.43 4.01-2.83.84-3.16M244.246 182.662c-.45-1.01-1.91-1.41-2.8-.5-.92.95-.41 2.4.59 2.8l.67.12c.07.02.26-.05.34-.07 1.18-.23 1.63-1.51 1.2-2.35M210.696 183.942c.05-.15-.19-.93-.51-1.19-.32-.33-1.04-.54-1.21-.49-1.69.02-2.23 2.11-1.2 2.95 1.03 1.11 2.99.23 2.92-1.27M3.966 255.072c-.05 2.41 3.63 2.24 3.41-.13-.2-2.1-3.37-2.04-3.41.13M1.536 211.012c-2.25.21-1.93 3.65.32 3.43 2.24-.21 1.91-3.64-.32-3.43M21.706 293.862c-.35-2.23-3.7-1.69-3.35.54.17 1.08-.23-1.44-2.11-.78-2.15.74-.99 3.98 1.13 3.25 1.79-.62.79-2.52 1.21-1.84.98 1.56 3.41.68 3.12-1.17M32.766 296.202c2.01.18 2.64-2.77.6-3.33-.97-.27-1.99.37-2.15 1.35.02.1-.02.26-.02.26-.01.77.53 1.57 1.43 1.72a.3.3 0 0 1 .14 0M7.416 254.522c.19 2.08 3.43 2.04 3.43-.16 0-2.41-3.66-2.16-3.43.16M24.476 254.202c-.21-2.31-3.64-1.9-3.44.31.21 2.31 3.64 1.91 3.44-.31"
        style="fill:#c6c6c6;fill-rule:nonzero" />
    <path
        d="M4.216 213.252c1.23.66 2.51-.34 2.52-1.49 0-.04.02-.08.02-.13v-.06c-.08-.8-.71-1.52-1.69-1.53-.05-.01-.09-.03-.14-.02h-.05c-1.54.15-2.2 2.39-.66 3.23M210.646 251.082c-.34-1.86-2.92-1.9-3.32-.05-.58 2.66 3.8 2.72 3.32.05M210.506 217.462c-.22-1.02-1.13-1.48-1.99-1.31-.86.18-.92.61-1.25.99-.07.17-.11.64-.13.72-.01 2.56 3.91 2.09 3.37-.4M244.706 217.352c-.25-1.22-1.65-1.91-2.88-.88-.4.41-.39.66-.43.88-.42 2.04 2.44 2.88 3.24 1.01l.14-.67c.02-.08-.03-.16-.07-.34M244.346 251.722c-.35-2.02-3.21-1.89-3.39.27-.02 1.79 2.51 2.46 3.29.72 0 0 .17-.63.15-.67.03-.07-.02-.14-.05-.32M208.796 282.372c-1.66.03-2.42 2.09-1.06 3.09 2.34 1.72 4.09-2.7 1.06-3.09M178.686 263.452c1.13.75 2.94-.12 2.58-1.77-.26-1.21-1.45-1.58-2.31-1.23-1.1.45-1.55 2.16-.27 3M182.266 282.462c.01-.08.05-.14.06-.23l-.01-.1.01-.11c.01-.05-.04-.14-.06-.23-.12-.64-.31-.81-.7-1.08-1.75-1.2-3.7 1.25-2.11 2.68.92.83 2.5.51 2.81-.93M177.916 209.912c.99.68 2.15.18 2.54-.72.7-1.26-.84-2.85-2.25-2.26-1.02.29-1.59 2.09-.29 2.98M130.906 260.742c-.03-.98-1.11-1.79-1.65-1.66-1.5.07-2 1.51-1.72 2.1.47 2.09 3.45 1.53 3.37-.44M93.216 304.382c-.04-2.23-3.43-2.2-3.39.06.04 2.22 3.44 2.28 3.39-.06M102.746 343.792c-.35-2.23-3.73-1.68-3.37.54.36 2.25 3.72 1.66 3.37-.54M56.096 299.872c1.26 1.09 2.89-.09 2.8-1.07.15-1.16-.83-1.96-1.8-1.9-1.72.11-2.03 2.09-1 2.97M48.996 327.772c-.05-1.51-1.98-2.29-3.02-1.05-.77.91-.41 2.43.88 2.77 1.18.31 2.18-.67 2.14-1.72M38.226 328.472c.19-.8-1.29-2.24-2.67-1.31-2.91 1.96 2.37 5.18 2.67 1.31M209.416 314.992c-.12-1.01-1.16-1.59-1.54-1.51-1.12-.42-2.76 1.79-1.19 3.04 1.21.96 2.92-.04 2.73-1.53M243.356 285.072c-.19-1.18-1.48-1.98-2.84-.99-.41.38-.41.64-.47.85-.49 2 2.3 3 3.19 1.15.03-.04.18-.63.17-.66.03-.08-.04-.27-.05-.35M241.516 316.932c-.08-1.05-.69-1.31-1.59-1.6-1.03-.06-1.86.97-1.82 1.62 0 1.64 1.81 2.3 2.85 1.4.16-.07.65-.89.59-1.17.02-.07-.02-.18-.03-.25M182.526 313.772c2.51-.47 1.22-4.37-1.09-3.2-1.03.52-1.32 1.97-.34 2.82.41.36 1.07.48 1.24.42.07.01.13-.03.19-.04M184.296 341.632c.99.24 1.83-.34 2.05-1.25l.05-.11c.01-.07-.01-.15-.01-.22 0-.09.04-.19.02-.24l-.03-.11c-.12-.73-.58-1.21-1.28-1.38-2.24-.54-2.97 2.78-.8 3.31M134.606 307.842c-.83-.23-1.72.21-2.05 1.03-.99 2.48 3 3.29 3.3.83l-.01-.06.02-.05c.05-.87-.61-1.57-1.26-1.75M81.436 361.492c-.11-1.21-1.38-1.9-2.47-1.34-1.26.65-1.16 2.29-.17 2.94 1.15.76 2.79-.13 2.64-1.6M111.926 374.792c-.13-1.77-2.44-2.16-3.22-.67-1.38 2.65 3.44 3.62 3.22.67M70.146 332.982c-.07-.04-.12-.1-.2-.14-.04-.02-.09-.02-.14-.04l-.09-.05s-.12-.01-.18-.02c-.08-.01-.15-.04-.22-.05-.06 0-.11.01-.16.02-.04 0-.08-.02-.12-.01-.07 0-.13.04-.19.05-.08.02-.14 0-.21.04-.08.01-.06.04-.13.07l-.1.03c-.06.03-.11.09-.16.13-.07.05-.14.08-.19.13-.03.03-.06.06-.09.1l-.07.06c-.04.05-.06.12-.1.17-.04.07-.1.13-.13.2-.02.04-.03.09-.05.14l-.05.09s-.01.14-.01.18c-.22 1.1.61 1.98 1.57 2.03.05 0 .1-.01.16-.01.04 0 .08.02.12.01.06-.01.12-.04.18-.06.08-.01.15.01.22-.04.07 0 .06-.03.12-.06l.11-.03c.06-.04.1-.1.16-.13.06-.05.13-.08.19-.13.03-.03.05-.07.08-.1l.08-.06c.04-.05.06-.12.09-.17.05-.07.1-.13.14-.2.02-.05.03-.09.04-.14l.05-.09s.01-.14.02-.18c.01-.08.04-.15.05-.23.03-.7-.27-1.17-.79-1.51M61.706 347.682c-1.95-.82-3.41 2.05-1.46 3.08 2.13 1.15 3.59-2.2 1.46-3.08"
        style="fill:#c6c6c6;fill-rule:nonzero" />
    <path
        d="M36.106 331.252c-.27-2.65-4.43-1.49-3.25.93.79 1.64 3.44 1.06 3.25-.93M187.856 355.612c.37-2.28-3-2.75-3.35-.54-.18 1.08.7 1.92 1.54 1.99.83.06 1.67-.55 1.81-1.45M237.746 344.442c-2.36-.77-3.18 3.01-.72 3.31 2.03.23 2.68-2.68.72-3.31M206.706 343.472c-.08-1.3-1.36-1.95-2.43-1.43-1.92.93-.68 3.8 1.27 3.16.52-.16 1.29-.97 1.18-1.49.02-.04-.02-.19-.02-.24M85.996 379.682c.75-1.12-.08-2.51-1.02-2.81-1.46-.46-2.85 1.15-1.96 2.56.5 1.16 2.17 1.51 2.98.25M118.626 395.092c0-.05.01-.1.01-.16-.01-.06-.04-.12-.06-.18-.01-.06 0-.13-.02-.18-.29-.5-.35-.95-1.32-1.13-1.55-.3-2.57 1.38-1.72 2.63.98 1.43 3.01.66 3.12-.83.01-.05-.01-.1-.01-.15M142.526 351.682c-.04-1.34-1.44-1.94-2.42-1.47-1.24.59-1.3 2.26-.21 2.98 1.12.72 2.69-.11 2.63-1.51M59.176 361.082c-1.47-1.23-3.59.56-2.54 2.23 1.43 2.29 4.45-.61 2.54-2.23M56.266 357.002c.39 2.27 3.74 1.59 3.35-.59-.38-2.22-3.74-1.63-3.35.59M233.996 369.392c-2.22-.46-2.93 2.9-.72 3.37l.16.02c2.19.25 2.6-2.96.56-3.39M193.746 388.822c-.3-1.68-2.7-1.92-3.31-.3-.46 1.24.65 2.58 1.98 2.27.88-.18 1.49-1.1 1.33-1.97M199.616 366.412c-1.38.26-1.98 2.17-.67 3.1 3.16 1.65 3.67-3.68.67-3.1M88.786 385.862c-1.75-1.47-3.91 1.22-2.21 2.64 1.79 1.5 3.87-1.24 2.21-2.64M148.986 383.112c-1.65-.62-2.98 1.31-1.95 2.64 1.8 2.32 4.68-1.61 1.95-2.64M155.956 404.812c-2.13-.85-3.38 2.31-1.25 3.15 1.12.45 2.29-.55 2.28-1.12.01-.05.01-.1.02-.15.01-.04.03-.07.04-.11-.13-.65 0-1.34-1.09-1.77M227.606 391.492c-.97 2.32 2.75 3.36 3.25 1 .01-.03.01-.11.01-.11l.03-.1c.15-1.93-2.54-2.61-3.29-.79M199.526 411.202c-.02-1.82-2.36-2.28-3.19-.84-1.32 2.28 2.82 3.87 3.2 1.08.02-.06-.01-.18-.01-.24M133.376 409.252c-.11-1.52-1.98-2.14-2.98-1.04-.86.95-.38 2.39.71 2.76 1.07.38 2.35-.43 2.27-1.72M124.476 404.692c-.05-.04-.18-.15-.24-.16-.07-.05-.43-.02-.68-.19-1.56-1.01-3.39.8-2.35 2.36.59.9 1.05.6 1.54.89 1.95 1.17 3.68-1.74 1.73-2.9M164.066 417.642c-.36-2.23-3.92-1.96-3.63.35.27 2.22 4.01 2.09 3.63-.35M166.426 419.922c-.46 2.23 2.87 2.89 3.33.69.01-.05.04-.09.05-.15l-.01-.1c.12-2.15-2.95-2.48-3.37-.44M219.586 420.122c-.18-2.17-3.67-2.18-3.33.64.55 1.85 3.51 1.54 3.33-.64M225.496 408.072c-.69-1.45-2.68-1.27-3.17.28-.64 2.04 2.38 3.15 3.21 1.17.02-.05.06-.09.08-.15s.01-.12.02-.18c.08-.43.01-.81-.14-1.12M202.936 422.542c-.27 2.3 3.32 2.65 3.41.27.09-2.22-3.17-2.4-3.41-.27M211.956 423.742c-.06-.03-.13-.02-.2-.04s-.14-.06-.21-.07l-.67.06c-1.3.36-1.73 2.11-.57 3 2.06 1.58 4.02-2.02 1.65-2.95M322.866 10.522c-.14 1.32.76 1.34 1.05 1.96 1.3 2.76 4.97-.51 2.32-2.25-.53-1.81-3.16-1.57-3.37.29M303.606 8.942c.54 2.18 3.83 1.37 3.29-.81-.53-2.18-3.83-1.36-3.29.81M312.296 2.012c.42-2.44-3.22-2.7-3.39-.42-.16 2.09 3.03 2.59 3.39.42M320.446 2.252c-.12-2.24-3.51-2.04-3.38.19.14 2.45 3.71 1.67 3.4.07.03-.07-.01-.18-.02-.26M359.616 6.912c-.67 2.13 2.72 3.25 3.3.92l.05-.2c.01-.07-.01-.12-.01-.18.02-2.01-2.77-2.38-3.34-.54M402.316 19.422c-.37-1.57-2.58-1.79-3.22-.27-.56 1.31.56 2.53 1.79 2.36.86-.12 1.69-.97 1.43-2.09M366.836 15.432l-.1.08c-1.83 1.49.54 4.05 2.29 2.86 1.99-1.36-.36-4.22-2.19-2.94M329.356 26.792c2.27.24 2.63-3.18.37-3.42-2.27-.25-2.64 3.18-.37 3.42M373.336 37.482c.93 2.07 4.02.65 3.1-1.39-.92-2.05-4.03-.67-3.1 1.39M301.076 21.152a1.69 1.69 0 0 0-2.64-.98c-1.15.83-.81 2.53.4 2.98 1.21.44 2.58-.62 2.24-2M293.696 41.302c2.24.54 2.95-2.71.89-3.32-2.24-.65-3.14 2.77-.89 3.32M332.036 39.472c2.06.96 3.52-2.17 1.45-3.13s-3.52 2.16-1.45 3.13M435.576 40.362c2.26-.13 2.03-3.56-.21-3.43-2.26.14-1.99 3.56.21 3.43M404.736 29.192c.56 1.54 2.96 1.29 3.16.18.52-1.05-.3-2.22-.78-2.3-1.24-.62-2.72.34-2.38 2.12M412.596 48.862c1.49.4 2.83-1.19 1.72-2.83-1.46-1.16-2.69-.18-2.93.71-.24.87.3 1.87 1.21 2.12M380.666 68.592c.44 1.58 2.63 1.7 3.23.16.41-1.05-.3-2.22-1.42-2.33-1.15-.11-2.14.98-1.81 2.17M338.816 63.772c-.2-2.24-3.63-1.94-3.44.3l.02.07v.07c.37 2.14 3.6 1.7 3.42-.44M330.126 32.472c.7 2.26 4.2.97 3.18-1.23-.63-1.35-2.4-1.3-3.05-.1-.33.61-.13.94-.13 1.33M335.426 44.522c.55-2.22-2.79-3.05-3.35-.84-.55 2.21 2.79 3.05 3.35.84M329.316 44.632c1.01.7 2.39.12 2.63-1.06.24-1.17-.79-2.25-2.01-2-1.46.3-1.85 2.21-.62 3.06M321.896 64.262c-.98 2.34 2.79 3.37 3.26.99v-.09l.03-.1c.17-1.91-2.52-2.63-3.29-.8M289.276 60.292c-2.2.66-1.14 3.91.98 3.29 2.17-.64 1.19-3.93-.98-3.29M339.526 106.292c.44 1.98 3.26 1.66 3.38-.25.13-1.94-2.7-2.58-3.35-.67-.02.08-.02.16-.04.24-.01.07-.05.13-.05.2l.01.1c0 .07-.03.07 0 .14-.02.08.04.16.05.24M388.956 110.722c1.22.13 2.32-1.09 1.73-2.39-.64-1.43-2.58-1.31-3.13.06-.47 1.15.36 2.23 1.4 2.33M421.766 78.212c1.87.51 3.26-2.19.99-3.29-2.22-.72-3.18 2.7-.99 3.29M436.916 45.752c.53 2.1 3.11 2.18 3.56.37.2-.78-.14-1.13-.42-1.62-.97-1.72-3.62-.67-3.14 1.25M463.286 63.712c.43 2.58 4.34 1.27 3.22-1.03-.85-1.74-3.55-.96-3.22 1.03M461.546 75.552c2.09.75 3.29-2.43 1.14-3.19-2.14-.75-3.28 2.44-1.14 3.19M445.156 60.722c-.13-.75-1.27-1.75-2.36-1.43-2.07.61-1.28 3.61.72 3.63 1.08.01 1.99-.99 1.64-2.2"
        style="fill:#c6c6c6;fill-rule:nonzero" />
    <path
        d="M463.456 67.982c.68 2.33 3.47 1.64 3.46-.22.01-2.91-4.18-2.3-3.46.22M337.086 69.812c2.22.51 2.99-2.84.77-3.35-2.22-.52-3 2.84-.77 3.35M318.726 88.752c-1-.2-1.87.53-2.03 1.35-.26 1.32 1.03 2.36 2.22 1.97 1.68-.54 1.47-2.99-.19-3.32M287.816 87.472c-.65-2.17-3.93-1.19-3.29.98.67 2.18 3.93 1.17 3.29-.98M455.646 86.972c-.16-2.32-3.57-1.93-3.43.24.17 2.37 3.59 1.86 3.43-.24M429.966 115.522c.74 1.72 2.45 1.59 3.14.46.62-1.02.01-2.59-1.49-2.58-1.18.01-1.83 1.06-1.69 1.96.02.04.04.16.04.16M394.406 155.312c-2.06-.39-2.78 2.37-1.07 3.2 2.32 1.14 3.61-2.73 1.07-3.2M339.766 95.972c2.25.4 2.85-2.99.6-3.39-2.24-.4-2.84 3-.6 3.39M342.876 208.192c-.46 2.3 2.9 2.77 3.31.64.41-2.12-2.87-2.9-3.31-.64M397.786 208.102c-.7-1-1.04-1.15-2.25-.93-1 .42-1.69 2.04-.02 3.17.89.17.38.2 1.34.01.98-.69 1.18-1.07.93-2.25M467.596 121.702c-.59-2.16-3.92-1.36-3.29.91.62 2.21 3.89 1.24 3.29-.91M476.416 93.332c-.78-.33-1.58-.03-2.01.51-.95 1.2.21 2.68.76 2.68 2.01 1.12 3.84-2.09 1.25-3.19M501.466 130.162c-.02.68 1.28 1.65 2.41 1.1.76-.36.62-1 .88-.32.5 1.31 2.29 1.5 3.05.29 1.07-1.75-1.24-3.48-2.64-2.12-.53.51-.27.57-.38.16 0-.05-.05-.11-.07-.16-.78-2.05-3.81-1.01-3.25 1.05M488.156 96.442c.02-.04.17-.36.17-.36 1.46.27 2.54-1.35 1.76-2.59-.75-1.19-2.68-1.05-3.1.44-.06.11-.55-.19-1.25.25-2.44 1.97 1.17 4.64 2.42 2.26M341.846 124.242c2.27.26 2.67-3.16.41-3.42-2.27-.27-2.67 3.15-.41 3.42M317.336 119.202c-.17-1.23-1.32-1.7-2.22-1.4-2.21.75-.86 4.42 1.4 3.09.19-.11.42-.19.67-.67.03-.06.2-.62.19-.66.03-.1-.03-.26-.04-.36M282.106 118.422c.33.57.92.93 1.68.83.97-.13.98-.53 1.33-.92 1.04-3.64-4.7-2.83-3.01.09M437.116 160.312c-.02 2.43 3.56 2.15 3.42-.1-.14-2.21-3.41-2.08-3.42.1M443.506 209.222c-.06-2.41-3.58-2.03-3.43.14.13 2.21 3.48 2.07 3.43-.14M437.236 258.192c-.32 2.13 2.84 2.77 3.36.66.01-.05.04-.09.05-.14v-.08l.02-.08-.02-.1c.02-2.11-3.09-2.32-3.41-.26M473.276 164.302c.19 2.26 3.62 1.98 3.44-.28-.19-2.27-3.61-1.96-3.44.28M500.496 169.072c2.49.05 2.16-3.8-.27-3.37-2 .34-1.84 3.34.27 3.37M489.336 126.352c-1.64 1.62-.02 3.53 1.56 3 2.62-1.36.29-4.37-1.56-3M506.326 210.712c-.22-2.32-3.87-1.89-3.38.5.43 2.12 3.58 1.63 3.38-.5M480.426 209.952c-.07-2.24-3.49-2.16-3.42.1.07 2.2 3.49 2.21 3.42-.1M474.116 257.432c2.34 1.42 4.06-2.83.76-3.18-1.64.11-2.2 2.31-.76 3.18M512.556 169.512c-.01.07.06.1.06.32.43 1.54 2.5 1.78 3.29.08 0-.18.08-.26.07-.32.01-.06-.01-.12 0-.19 0-.06.02-.13.01-.19.02-.06-.06-.1-.05-.31-.86-2.11-3.31-1.31-3.36.42 0 .07-.02.13-.02.19M345.256 152.992c.15-2.27-3.29-2.49-3.44-.22-.03.53.19 1 .55 1.34-.38.44-.56 1.12-.29 1.78.69 1.65 3.27 1.28 3.3-.64.06-.2-.14-.89-.54-1.27-.04-.07.38-.3.42-.99M315.806 149.852c-.06-.04-.49-.38-.56-.39-1.34-.61-2.86.74-2.31 2.18 1.85 2.64 4.39-.15 2.87-1.79M283.376 149.522c-.08-.54-.17-.82-.94-1.3l-.64-.15c-.08-.03-.16.02-.34.05-1.07.16-1.55 1.2-1.46 1.58-.03.08.03.26.05.35.36 2.24 3.69 1.68 3.33-.53M342.436 184.802c-.07 2.28 3.38 2.38 3.44.1.07-2.28-3.37-2.38-3.44-.1M312.766 184.302c.44 2.34 4 1.59 3.24-.99-.73-1.73-3.65-1.15-3.24.99M316.206 217.472c-.35-1.69-2.6-1.87-3.25-.33-.51 1.21.49 2.61 1.92 2.32 1.02-.2 1.5-1.13 1.33-1.99M344.396 216.022c-2.28.01-2.26 3.46.02 3.45s2.26-3.46-.02-3.45M523.406 212.722c0-2.05-2.97-2.35-3.36-.31-.17.87.34 1.6 1 1.88.1.04.1.04.17.09.06.02.12 0 .17.01.06.02.1.05.16.05.06.01.11-.01.17-.01.05 0 .1.02.16.01.07-.03.07-.03.19-.05.66-.15 1.34-.72 1.34-1.67M516.056 254.842c-.34 2.23 2.93 2.71 3.37.62v-.1l.03-.1c.21-2.24-3.08-2.56-3.4-.42M502.366 254.512c.22-2.44-3.52-2.41-3.43-.1.05 2.18 3.24 2.17 3.43.1"
        style="fill:#c6c6c6;fill-rule:nonzero" />
    <path
        d="M515.966 254.082c-.31-1.91-3-1.87-3.38-.08-.58 2.72 3.8 2.7 3.38.08M519.546 210.512c-.03-.03-.05-.07-.09-.1-.18-.1-.3-.2-.3-.2-.14-.07-.11 0-.3-.13-.06-.01-.11 0-.17-.01-.05-.01-.1-.04-.16-.05h-.05c-2.1-.14-2.53 2.99-.44 3.38.06.01.1.05.16.05l.06.01c1.55.09 2.43-1.85 1.29-2.95M516.096 171.272c.93 1.79 3.74.72 3.18-1.26-.7-2.48-4.29-.87-3.18 1.26M343.856 248.672c-2.28.08-2.17 3.52.11 3.45 2.28-.08 2.16-3.53-.11-3.45M280.736 181.642c-2.09-.02-2.45 3.29-.03 3.45 2.12.02 2.41-3.27.03-3.45M278.696 218.022c.47 2.31 3.65 1.34 3.37-.34l-.13-.67c-.8-1.86-3.65-1.02-3.24 1.01M312.766 251.742c.4 1.84 2.96 1.81 3.32-.04.51-2.72-3.89-2.62-3.32.04M314.726 285.822c1.91-.44 2.24-2.34.56-3.33-3-.47-2.95 3.28-.56 3.33M344.496 282.092c-.01-1.84-2.47-2.33-3.25-.73-.85 2.67 2.75 3.4 3.21 1.07.02-.08.07-.18.06-.23zM345.506 262.032c.01-.04-.11-.61-.14-.67-.2-.46-.41-.57-.62-.71-2.07-1.44-3.91 2.02-1.62 2.98.87.36 2.05-.03 2.31-1.24.03-.1.1-.25.07-.36M393.556 259.222c-2.14.88-.7 4.14 1.39 3.14 2.02-.95.67-4-1.39-3.14M389.716 311.152c2-.56 1.42-3.49-.55-3.38-2.56.16-1.83 4.04.55 3.38M430.176 304.152c-.36 2.36 3.36 2.75 3.4.29.04-2.19-3.09-2.32-3.4-.29M424.036 344.062c0-1.2-1.16-1.97-2.2-1.65-1.23.38-1.61 1.95-.7 2.86 1.07 1.06 2.9.38 2.9-1.21M467.896 298.382c.03-.28-.42-1.08-.71-1.2-1.32-.92-3.13.38-2.59 1.96.66 1.94 3.56 1.26 3.3-.76M492.206 294.482c-.75-3.49-4.99-.81-2.93 1.24.91.9 2.71.53 2.89-1.01.01-.08.04-.15.04-.23M476.986 326.362c-1.76-1.04-3.6 1.42-1.95 2.78 1.94 1.6 3.96-1.61 1.95-2.78M316.126 316.822c.95-.27 1.39-1.37 1.25-1.76.25-1.18-2.2-2.43-3.19-.7-.77 1.34.5 2.87 1.94 2.46M281.956 253.202c1.29-1.32-.24-3.54-1.94-2.76-2.51 1.13.09 4.67 1.94 2.76M282.126 286.972c1.7-.42 1.76-3.01-.16-3.31-.18-.03-.25-.07-.34-.04-.03-.01-.66.16-.66.16-1.8.87-.87 3.7 1.16 3.19M316.956 344.522c1.06 1.58 3.36.51 3.13-1.18-.41-2.91-4.63-1.04-3.13 1.18M340.396 339.902c-.1-2.51-3.7-1.71-3.4-.08-.02.04.02.14.02.23.09 2.31 3.48 2.1 3.38-.15M342.886 311.952c-.17-2.13-3.41-2.12-3.41.15 0 2.43 3.6 2.19 3.41-.15M414.886 374.752c-.22-2.29-3.64-1.89-3.43.33.22 2.28 3.64 1.89 3.43-.33M445.366 361.622c-.05-2.11-3.2-2.28-3.41-.13-.21 2.25 3.09 2.73 3.41.13M455.156 333.012c-.05-.04-.1-.1-.16-.13l-.11-.03-.08-.06-.08-.02c-3.55-1.2-2.49 4.93.39 3.05.05-.04.12-.06.17-.1l.06-.07c.03-.03.07-.05.1-.09.05-.05.08-.12.12-.19.04-.05.1-.1.13-.16.03-.05.02-.12.12-.26.02-.06.01-.12.02-.18.02-.06.05-.12.06-.19 0-.04-.01-.08-.01-.12.02-.59-.18-1.07-.73-1.45M463.856 348.472c-1.03-1.96-3.89-.48-3.09 1.46.9 2.16 4.22.65 3.09-1.46M467.156 356.592c-.1-1.52-1.88-2.12-2.91-1.11-.68.68-.67 1.86.1 2.51 1.14.99 2.91.17 2.81-1.4M488.266 329.622c1.19-1.57-.84-3.66-2.44-2.38-1.98 1.59.89 4.39 2.44 2.38"
        style="fill:#c6c6c6;fill-rule:nonzero" />
    <path
        d="M490.696 331.362c-.05-1.16-1.04-1.8-2.01-1.61-1.27.23-1.94 1.89-.85 2.91 1.14 1.08 2.93.17 2.86-1.3M507.156 293.622c-1.63-.57-2.19 1.25-2.11.78.15-.97-.44-1.68-1.17-1.91-1.96-.6-3.23 2.25-1.25 3.19.54.26 1.37.22 1.93-.32.23-.22.41-.67.36-.39-.11.73.22 1.52 1.02 1.85 2.19.92 3.37-2.46 1.22-3.2M335.236 363.692c-2.23.5-1.47 3.86.75 3.36 2.22-.49 1.47-3.86-.75-3.36M323.216 366.412c-2.3.34-1.66 3.85.6 3.38 2.17-.45 1.54-3.7-.6-3.38M287.816 346.532c.32-1.07-.56-2.34-1.84-2.19-1.78.21-2.09 2.77-.34 3.34.8.27 1.89-.15 2.18-1.15M285.286 316.902c-.16-1.79-2.74-2.19-3.34-.4-.7 2.07 2.66 3.65 3.34.4M439.556 376.922c-1.92-.74-3.44 2.11-1.66 3.26 2.16 1.41 3.98-2.37 1.66-3.26M408.196 394.982c-.02-.33-.2-.75-.49-1.05a1.69 1.69 0 0 0-2.88.82c-.51 2.3 3.32 3.04 3.37.23M380.886 351.362c-.09 1.01.29 1.6.95 1.92.69.32.67.12 1.06.16 3.58-1.89-.75-5.28-2.01-2.08M337.086 353.622c-.98.08-1.72 1.15-1.57 1.7-.02 2.22 3.21 2.31 3.42.18 0-.05-.02-.1-.02-.15s.03-.1.02-.15c-.07-.85-.91-1.66-1.85-1.58M467.036 362.312c-.08-1.5-1.95-2.19-2.97-1.04-.69.77-.54 1.8.14 2.4 1.16 1.04 2.9.1 2.83-1.36M289.566 369.372c-2.26.26-1.85 3.67.4 3.41 2.23-.26 1.86-3.67-.4-3.41M330.656 387.572c-1.09.48-1.42 1.8-.41 2.88 1.06.88 2.65.19 2.8-1.14.15-1.34-1.21-2.27-2.39-1.74M437.436 387.062c-.2-2.88-4.51-1.47-3.24.93.88 1.64 3.36.9 3.24-.93M368.956 404.912c-.17-.05-.38-.17-.38-.17-.98-.3-2.08.41-2.21 1.43-.27 2.11 2.89 2.75 3.37.57.01-.04.03-.09.04-.14.01-.06-.01-.13-.01-.2.01-.65-.3-1.19-.81-1.49M375.056 383.012c-.81-.02-1.71.54-1.74 1.64-.05 1.58 1.77 2.32 2.86 1.29 1.17-1.1.34-2.89-1.12-2.93M292.526 392.122c-.02 2.45 3.6 2.15 3.42-.12-.17-2.12-3.4-2.07-3.42.12M326.756 404.242c-2.27.23-1.91 3.66.36 3.42 2.26-.23 1.91-3.66-.36-3.42M325.356 409.512c-1.32.18-1.82 1.61-1.27 2.56.55.97 2.13 1.23 2.89.11 1.03-1.49-.77-3.06-1.62-2.67M402.486 405.732c-.02-1.21-1.29-2.02-2.41-1.52-.9.41-1.45.3-1.86 1.23-.23.52-.17 1.37.34 1.89 1.05 1.09 3.97.13 3.93-1.6M393.416 409.132c-.3-2.22-3.67-1.81-3.35.46.31 2.29 3.65 1.74 3.35-.46M357.016 420.172c-.13-2.51-3.85-1.9-3.37.44.42 2.07 3.48 1.66 3.37-.44M362.936 417.532c-.38-2.47-4.16-1.5-3.57.8.56 2.18 3.89 1.3 3.57-.8M301.096 408.532c-.44-2.22-3.77-1.56-3.33.66.45 2.27 3.76 1.54 3.33-.66M320.926 416.812c-2.27.26-1.89 3.68.38 3.43 2.26-.25 1.88-3.68-.38-3.43M313.676 424.722c-.85-2.18-4.16-.8-3.15 1.35.92 1.97 3.94.68 3.15-1.35M320.456 422.672c-.06-1.68-2.34-2.31-3.2-.77-.64 1.14.24 2.6 1.58 2.54 1.03-.04 1.66-.87 1.62-1.77M307.186 420.412c.11-1.34-1.18-2.14-2.27-1.73-1.49.54-1.38 2.41-.26 3.05 1.04.59 2.42-.02 2.53-1.32M241.376 284.992l-32.31-1.21.24-32.06 33.04.6zm-1.85 31.72-31.45-1.82.97-30.46 32.3 1.22zm-222.26-21.28 2.59-.89 16.27 34-1.67 2.26zm-11.2-40.08 2.83-.61 10.74 39.18-2.61.9zm-4.02-42.39 2.7-.8 4.03 41.94-2.83.6zm4.04-42.24 2.66-.89-4.01 41.66-2.67.79zm28.82-75.85 1.43.89-16.28 33.66-2.42.47zm204.57 22.39-31.44 1.82-2.66-28.34 31.55-2.43zm1.87 32.21-32.17 1.21-1.1-30.94 31.44-1.82zm1 33.57-33.04.61-.12-32.31 32.19-1.21zm-34.92 131.79-24.9-3.02-1.57-29.35 27.44 1.94zm29.5 30.86-31.55-2.43 2.66-27.72 31.44 1.82zm-3.57 25.03-33.03-2.92 4.95-23.89 31.58 2.44zm-4.44 21.07-36.4-2.96 7.64-20.38 33.08 2.92zm-5.16 16.66-27.05-2.8c-1.24-4.75-2.99-11.46-4.22-16.16l36.25 2.94zm-6.04 11.46-15.24-1.69c-.44-.74-4.34-7.13-4.34-7.13-.16-.61-.63-2.39-1.25-4.76l26.6 2.75zm-6.44 5.06-6.41-2.49s-1.71-3.08-1.98-3.55l14.17 1.57zm-43.1-5.03-3.51-1.44 39.9 4.56 4.26 1.66zm-50.59-24.29 37.53 11.01 6.31 10.57-38.57-11.72zm-32.41-16.22 31.51 15.93 5.14 9.61-33.88-18.02zm-26.89-22.02 25.91 21.3.08.16 2.67 7.27-28.56-23.9zm-21.77-28.29 21.1 27.7.1 4.59-22.9-29.99zm-3.82-34.29 14.11 32.71-10.1.69-16.15-33.76zm-10.19-40.15 9.99 39.48-12.21-.35-10.73-39.13zm-4.01-43.46 3.9 42.81H9.426l-4.03-41.99zm4.02-43.46-4.02 42.8-13.09.83 4.02-41.74zm14.45-71.8 9.93-.58-14.09 32.06-11.96 1.85zm21.02-28.53-.08.16-21.23 27.62-1.42-.9 22.83-29.88zm26.55-22.24-.19.29-25.68 21.32.1-3.22 28.24-23.74zm32.28-16.83-31.29 16.25 2.65-5.73 33.6-18.17zm38.54-11.78-.16.08-37.39 11.38 5.15-7.95 38.37-12.07zm45.63-9.59c-2.42 3.45-2.42 3.45-3.03 4.23l-.18.23-41.52 4.98 6.07-8.7 41.63-4.98zm-6.75 17.72 4.01-12.8s.54-.69.69-.89l19.04-2.07 5.64 12.61zm-.92 18.17-2.33-5.01c.2-1.26.5-3.05.97-5.84.31-1.02 1.11-3.56 2.07-6.64l29.79-3.19 5.05 17.15zm6.85 21.68-6.61-21.04 35.48-3.53 4.21 21.65zm5.11 25.53-4.95-24.88 33.03-2.92 3.5 25.37zm-23.54 32.07c.07-1.35.81-16.2.81-16.2.09-1.02.97-9.73 1.14-11.41l21.03-3.73 2.67 28.32zm-1.53 30.37c.47-8.97 1.03-20.24 1.5-29.72l25.72-3.02 1.09 30.93zm-45.76 156.65-4.89-48.04 49.75 1.22 2.57 49.39zm50.55 30.52-2.42-27.23 24.81 3.01-2.67 27.7zm3.09 25.4c-.29-1.71-1.58-9.79-1.58-9.79l-1.44-14.94 19.56 3.46-4.94 23.88zm2.13 11.92c-1.1-6.08-1.63-9.05-2.01-11.22l11.29 2.53-7.33 19.56zm-79.49-1.64 37.41 9.59 6.69 20.92-37.65-11.05zm-25.9 3.13-.06-.11-4.52-16.17 29.72 12.93 6.39 19.3zm-23.64-28.75 18.28 12.1 4.4 15.74-25.53-21zm-14.07-21.59 13.56 21.13-2.82 6.75-20.72-27.19zm9.84-29.29 11.75 35.03-21.18-6.35-14.07-32.63zm-8.82-42.6 8.65 41.91-23.61-3.97-10-39.51zm-3.75-45.94 3.66 45.28-24.99-1.57-3.91-42.87zm-21.2-42.67 24.86-3.14-3.66 45.16-25.23.84zm24.48-72.41.13-.06 21.14-7.57-11.74 34.25-23.6 5.39zm10.47-26.88 2.78 5.56-13.48 20.7-.11.06-9.87.57zm21.69-7.61-.17.18-18.24 12.53-2.86-5.72.02-.04 25.39-21.07zm30.27-13.82-29.46 13.4 4.25-14.51.17-.25 31.4-16.31zm38.17-10.43-37.39 10.19 6.42-17.84 37.52-11.41zm41.61 4.07c-.31 1.99-.55 3.44-3.85 23.03l-44.52 4.15 7.28-30.68 42.45-4.76c-.93 5.61-1.17 7.06-1.36 8.26m.17 3.07c.25-1.56.63-3.91.75-4.64l1.86 3.99zm-3.75 24.06c.12-1.31.23-2.58.34-3.77 1.93-11.45 2.82-16.75 3.29-19.59l2.98-.74 6.61 21.05zm-.07.68 13.45-3.09 4.95 24.86-20.87 3.7a3903 3903 0 0 0 2.47-25.47m-4.31 37.22-47.26 3.05 6.71-40.23 44.58-4.16c-.77 8.62-1.96 20.66-2.87 29.8-.06.07-.08.16-.07.25-.17 1.73-.98 10.16-1.09 11.29m26.61 45.75.13 32.29-29.07.85c.16-9.83.55-30.63.59-31.32zm-28.89 88.03c-.1-6.93-.21-14.49-.3-21.33l29.19.12.13 32.85-28.87-.96c-.05-3.21-.1-6.83-.15-10.68m-50.13 21.08-1.96-51.39 51-.25c.04 2.7.71 50.38.74 52.86zm-37.7 43.64-6.96-45.32 44.04 2.31 4.89 48.01zm18.68 70.52-8.96-30.16 39.04 7.54 7.39 32.23zm-30.48-13.23-10.24-26.51 31.03 9.42 8.92 30.01zm11.25-56.71 9.35 38.88-31.13-9.44-11.79-35.13zm42.6 5.09 6.58 41.54-39.11-7.55-9.38-38.99zm-49.68-51.03 6.95 45.26-33.65-5.72-8.66-41.97zm-2.87-49.17 2.81 48.51-35.41-2.44-3.67-45.34zm-32.6-45.14 35.52-3.76-2.92 48.25-36.26.73zm21.02-77.1 31-10.29-9.23 37.75-33.56 6.91zm31.2-11.05-30.89 10.26 10.11-25.18.17-.16 29.51-13.43zm39.88-8.44-39.14 8.27 8.95-28.67 37.45-10.21zm-6.82 40.87-41.78 5.97 9.25-37.86 39.22-8.29zm-4.97 47.94-44.05 3.29 7.09-44.58 41.84-5.97zm-44.13 3.95 44.08-3.29-2.08 51.11-44.93.49zm-27.17-38.19 33.66-6.92-7.08 44.51-35.48 3.76zm24.24 87.15 44.93-.49 1.96 51.37-44.08-2.32zm96.97-24.72s-.31 19.16-.38 23.33l-51 .24 2.08-51.14 49.78-1.71c-.15 8.61-.33 19.48-.48 29.28m.4 32.56c-.05-3.18-.09-6.21-.13-8.91.07-3.99.21-13.06.38-23.34l29.08-.85-.13 33.22zm-117.8-143.23 17.64-12.11-9.95 24.75-20.75 7.43zm-28.22 53.82 23.71-5.42-8.88 41.27-24.82 3.14zm27.97 221.02-13.24-20.63 20.94 6.27 10.1 26.15zm128.29 28.11 2.09 11.61-43-4.35-7.4-32.29 44.64 3.53s1.53 9.6 3.67 21.5m-7.65-64.73 3.9 42.57-44.7-3.54-6.59-41.6zm-.64-194.2c-.06 1.34-.13 2.75-.21 4.2-.02.05-.05.1-.04.16-.51 10.37-1.11 23.01-1.6 32.35l-49.75 1.71 4.89-47.3 47.31-3.05c-.11 2.09-.33 6.43-.6 11.93m10.11-86.56-42.39 4.75 6.6-19.2.08-.05 41.81-5.01c-2.08 6.63-5.29 16.89-6.1 19.51m-170.85 98.35 12.06-1.87-9.98 38.96-13.04 1.88zm182.74 290.96.77 1.38-41.55-4.75-.12-.06-6.42-10.74 41.68 4.74 2.14 3.5c2.27 3.72 2.27 3.72 3.5 5.93m-5.88-10.12-41.82-4.76-6.72-21 42.94 4.35c1.81 6.92 4.84 18.54 5.6 21.41m11.01-127.1-27.49-1.93-.97-19.79c-.02-1.28-.08-5.53-.16-11.29l28.86.97zm33.95-100.05.36 33.67-33.53.12.12-33.18zm-24.79-175.36-18.11 1.98c.39-.55 5.36-7.65 5.36-7.65l7.82-.6zm-200.25 122.28 2.5-.48-10.96 38.97-2.59.87zm114.47 278.44-1.06-.42 31.29 9.45.08.05zm110.57-157.38-33.05-.61-.12-32.93 33.53-.12zm.65-68.32-.99-33.58-1.86-32.22-2.61-29.63-3.59-26.02-4.34-22.35-5.34-18.1-5.83-13.05-5.41-6.88c-.03-.04-.09.01-.14-.02-.05-.02-.05-.1-.11-.1l-8.18.62-42.5 5.08-39.46 12.4-34.87 18.85-.02.05-.04-.01-29.48 24.78-23.73 31.06-17.74 35.97-11.3 40.19-4.1 42.32 3.97 42.44 11.16 40.19 17.61 36.23 23.7 31.03 29.66 24.83 35.02 18.63 9.07 3.61 36.44 10.9 43.32 5.1c.07 0 .16-.03.22-.07l6.56-5.08.01-.06.08-.05 6.07-11.41.03-.04 5.2-16.74 4.47-21.11 3.59-25.03 2.61-29.01 1.86-31.72 1.36-67.67z"
        style="fill:#c6c6c6;fill-rule:nonzero" />
    <path
        d="m517.446 254.702-2.82-.6 4.03-41.94 2.7.8zm-11.08 40.12-2.6-.9 10.74-39.18 2.83.61zm-17.42 35.98-1.67-2.26 16.27-34 2.59.89zm-205.02-13.44 31.44-1.82 2.66 27.72-31.56 2.43zm-1.87-31.71 32.3-1.22.97 30.46-31.45 1.82zm-1-33.33 33.04-.6.25 32.06-32.32 1.21zm.97-102.19 32.19 1.21-.12 32.31-33.04-.61zm1.85-32.21 31.45 1.82-1.09 30.94-32.18-1.21zm221.89 11.97-2.42-.47-16.28-33.65 1.43-.9zm8.21 124.14h-12.97l3.9-42.81 13.1.82zm-10.86 39.78-12.21.35 9.99-39.48h12.95zm-16.43 34.42-10.09-.69 14.11-32.71 12.13-.36zm-20.9 28.59 21.1-27.7 1.7 2.3-22.9 29.99zm-26.66 22.06.08-.17 25.91-21.3-.11 4.83-28.55 23.9zm-32.4 16.48 31.5-15.93-2.77 7.52-33.88 18.02zm-7.06 10.47-37.69 11.4 6.31-10.57 37.54-11.01-5.27 9.85zm-80.84 17.23 39.91-4.56-3.51 1.44-40.66 4.78zm1.69-4.13c-.27.46-1.99 3.55-1.99 3.55l-6.4 2.49-5.78-4.47zm6-12.61-1.25 4.77s-3.9 6.38-4.34 7.13l-15.24 1.69-5.77-10.83zm4.4-16.83s-2.75 10.54-4.22 16.16l-27.05 2.8-4.99-16.02zm-7.67-21.04 7.64 20.38-36.4 2.96-4.32-20.42zm-5.12-24.54 4.94 23.89-33.02 2.92-3.5-24.37zm22.7-31.44-2.42 27.23-19.73 3.48-2.66-27.7zm1.62-30.01-1.57 29.35-24.9 3.02-.97-30.43zm-61.4-30.79-.37-33.66 33.54.12-.12 32.93zm34.93-131.88 25.74 3.03c.57 11.26 1.47 29.44 1.49 29.71l-28.32-1.81zm-29.51-31.48 31.56 2.43-2.66 28.34-31.44-1.82zm3.58-26.02 33.03 2.92-4.95 24.88-31.58-2.43zm4.32-22.3 35.48 3.53-6.61 21.04-33.08-2.92zm5.21-17.79 29.8 3.19c.72 2.3 1.43 4.58 2.07 6.64.47 2.83.77 4.61.97 5.84l-2.33 5.01-35.56-3.53zm5.85-13.25 19.04 2.07c.13.18.69.9.69.9s2.71 8.63 4.01 12.79l-29.39-3.15zm55.65-1.22 6.06 8.7-41.51-4.98-.24-.3c-.54-.7-.54-.7-2.89-4.04l-3.05-4.36zm39.37 12.36 5.15 7.95-37.38-11.38-.17-.08-5.97-8.56zm34.77 18.79 2.65 5.73-31.28-16.25-4.96-7.65zm29.52 27.92-25.68-21.32-.19-.29-2.48-5.35 28.25 23.74zm21.98 28.41-21.23-27.62-.08-.16-.09-3 22.83 29.88zm3.87 32.23-14.08-32.06 9.93.58 16.12 33.33zm14.33 83.12-4.03-42.8 13.08 1.89 4.03 41.74zm-4.57 43.49-24.99 1.57 3.66-45.28 25.24.84zm-10.12 40.17-23.61 3.97 8.65-41.91 24.95-1.57zm-14.35 33.34-21.18 6.35 11.75-35.03 23.5-3.95zm-10.34 28.49-2.81-6.75 13.55-21.13 9.99.69zm-21.6 5.81 18.27-12.1 2.86 6.84-25.53 21zm-30.5 13.3 29.71-12.93-4.51 16.16-.06.12-31.53 15.95zm-38.17 9.81 37.4-9.59-6.44 19.46-37.65 11.05zm-40.07-19.17c-.39 2.23-3.96 22.09-3.96 22.09l-7.33-19.56zm1.7-10.49s-1.3 8.12-1.58 9.79l-11.6 2.61-4.94-23.88 19.56-3.46zm4.59-42.9 47.38-2.57-6.58 41.6-44.7 3.54zm1.63-30.28.98-19.77 49.75-1.22-4.89 48.04-47.42 2.57zm-28.12 1.61-.24-32.04 28.84-.97c-.05 4.09-.1 7.96-.14 11.29l-.97 19.79zm27.36-161.24c-.3-5.92-.59-11.65-.82-16.22l47.3 3.05 4.89 47.3-49.75-1.71c-.03-.51-1.61-32.35-1.61-32.35zm-2.6-27.94c.33 3.35 1.1 11.4 1.1 11.4.24 4.53.53 10.26.83 16.2l-25.67-3.02 2.66-28.32zm-2.58-26.15c.28 2.91 1.87 18.81 2.51 25.47l-20.92-3.71 4.95-24.86zm-6.67-24.79 2.97.74c.48 2.92 1.39 8.3 3.29 19.59.11 1.28.23 2.52.35 3.77l-13.23-3.05zm2.33-3.14c.13.77.24 1.49.52 3.18l-2.61-.65 1.86-3.99c.09.6.17 1.04.23 1.46m41.79-3.39 7.27 30.68-44.52-4.15c-3.31-19.61-4.31-25.86-5.21-31.29zm37.9 9.62-37.39-10.19-6.55-19.06 37.52 11.41zm25.82-1.12.17.25 4.25 14.51-29.46-13.4-6.36-17.67zm26.48 22.13.02.04-2.86 5.72-18.24-12.53-.18-.18-4.13-14.12zm11.25 26.98-.11-.06-13.48-20.7 2.78-5.56 20.68 26.89zm-9.87 27.18-11.74-34.25 21.14 7.57.13.06 14.06 32.01zm12.81 87.81-3.66-45.16 24.86 3.14 4.03 42.86zm-4.32 45.97-35.4 2.44 2.8-48.51 36.26.73zm-8.77 42.64-33.65 5.72 6.95-45.26 35.37-2.43zm-12 35.84-31.13 9.44 9.35-38.88 33.57-5.69zm-31.32 10.18 31.03-9.42-10.24 26.51-29.71 12.92zm-39.77 7.7 39.04-7.54-8.97 30.16-37.46 9.61zm6.71-42.23 41.91-5-9.39 38.99-39.1 7.55zm4.97-48.68 44.04-2.31-6.96 45.32-41.97 5zm-49.8-43.33.02-.04c.02-1.58.12-8.9.12-8.9l51 .25-1.96 51.39-49.78 1.22c.13-12.58.43-32.37.6-43.92m-.66.29c-.12 8.4-.31 20.97-.45 32.01l-28.85.96.12-32.85zm.15-9.56s-.11 7.44-.14 8.91l-29.19.12-.12-33.22 29.07.85c.13 8.04.27 16.31.38 23.34m49.57-51.22 2.08 51.14-51-.24c-.12-7.05-.76-46.62-.86-52.61zm37.57-41.91 7.08 44.58-44.04-3.29-4.88-47.26zm-9.61-39.25-39.14-8.27-7.26-30.61 37.45 10.21zm21.34-14.91.17.16 10.12 25.18-30.89-10.26-8.9-28.51zm-11.17 53.59-9.23-37.75 31 10.29 11.78 34.37zm10.19 94.13-2.93-48.25 35.53 3.76 3.66 45.22zm-.65-.01-44.93-.49-2.09-51.11 44.08 3.29zm33.14-45.15-35.48-3.76-7.08-44.51 33.65 6.92zm-85.17-55.05-6.69-40.18 39.22 8.29 9.25 37.86zm49.22 149.41-44.08 2.32 1.96-51.37 44.93.49zm61.45-91.14-24.82-3.14-8.89-41.27 23.72 5.42zm-38.21-92.81 13.06 20.07-20.75-7.43-9.95-24.75zm-120.39 31.43c-1.26-13.14-3.65-37.01-4.03-41.34l44.58 4.16 6.71 40.23zm-4.68 254.37.7-4.35 44.64-3.53-7.4 32.29-43 4.35s4.21-23.43 5.06-28.76m125.32-10.96-17.8 11.79 10.1-26.15 20.94-6.27zm51.69-180.06-13.03-1.88-9.99-38.96 12.07 1.87zm-187.55-155.71-.35-1.12 41.8 5.01.09.05 6.6 19.2-42.39-4.75c-1.85-5.97-4.28-13.72-5.75-18.39m-11.39 138.11 28.36 1.82c.06 1.22.39 19.32.58 31.32l-29.06-.85zm16.56 238.72.17-.66 42.94-4.35-6.72 21-41.81 4.76c1.8-6.91 3.97-15.21 5.42-20.75m29.59 27.44-.12.06-41.55 4.75.78-1.4c1.25-2.25 1.25-2.25 3.5-5.92l2.13-3.49 41.68-4.74zm156.11-247.56-2.59-.87-10.97-38.97 2.51.48zM310.766 2.062l7.81.6s4.99 7.12 5.37 7.65l-18.11-1.98zm-29.72 181.63 33.05.61.12 33.18-33.54-.12zm110.57 225.36-30.31 9.08.08-.05 31.29-9.45zm129.72-196.77-2.67-.79-4.02-41.66 2.67.89zm-3.4-41.84v-.05l-11.29-40.15-17.74-36-23.74-31.07-29.5-24.78-34.87-18.87-39.45-12.41-42.56-5.09-8.16-.62c-.07 0-.07.08-.12.1-.05.03-.11-.02-.14.02l-5.41 6.88-5.83 13.05-5.35 18.14-4.33 22.31-3.6 26.02-2.6 29.63-1.86 32.22-1.36 67.91 1.36 67.67 1.86 31.72 2.6 29.01 3.6 25.04 4.47 21.1 5.2 16.74.03.04 6.07 11.41.08.05.01.06 6.56 5.08c.06.04.15.07.22.07l43.32-5.1 36.43-10.9 9.08-3.61 35.02-18.63 29.66-24.83 23.7-31.03 17.6-36.23 11.16-40.16 3.98-42.44z"
        style="fill:#c6c6c6;fill-rule:nonzero" />
</svg>