<svg xmlns="http://www.w3.org/2000/svg" xml:space="preserve"
    style="fill-rule:evenodd;clip-rule:evenodd;stroke-linejoin:round;stroke-miterlimit:2"
    viewBox="0 0 431 430">
    <path
        d="m2.92 229.066 1.07 4.254.14 1.435.32-.032-.31.104.13.397.75 8.696-1.1-4.785zm4.47-54.157 2.2 7.353v.354l-3.3 15.461-2.08-7.846v-1.571l.36-.49-.26-.197.32.067zm1.55-20.501 3.01-9.141-.33 2.321-.12.245.29.149-.32-.04-.14 1.117-3.38 9.927zm13.51-36.063 3.25-5.698-.98 2.697-.56 1.131-3.39 6.022zm11.34-20.242 2.85-3.999.27-.265-.23-.233.26.196.25-.336-3.96 6.744.28.156-.28-.156-.28.548-1.97 2.431zm22.69-29.306 3.44-3.438 1.98-1.616-7.18 8.477-.7.56.21.255-.21-.255-2.69 2.182zm21.08-19.508.26-.13-.14-.292.14.292 5.78-2.993-10.29 9.911-6.05 2.974 7.61-7.498zm11.23-8.921 2.72-1.717.27-.136-.15-.292.15.292 3.92-2.082-9.85 7.838-.56.277.15.292-.15-.292-4.84 2.512zm12.94-8.339 2.17-1.182-4.51 2.914-.86.43.15.291-.15-.291-.62.329zm26.41-13.638 1.56-.426-.09-.313.09.313.44-.146-.1-.31.1.31 1.3-.434 4.04-1.217-10.6 5.353-.84.28.2.62.83-.276 10.33-1.133-13.96 8.693-9.97.884 12.7-8.204-.17-.274-.1-.314-6.25 1.838zM170.5 5.893l6.19-.843-7.99 1.918h-.4v.328l-.15-.294-.28.143.29.587.22-.109 12.35.124-14.5 5.261-11.62-.375 13.37-4.886-.11-.308-.04-.326-5.2.666zm13.05-1.757.23-.114 1.81-.14 10.55.115-13.06 3.114-11.7-.115 11.77-2.827h.26v-.327zm15.71-1.98 9.5-.092-9.99 1.308-8.41-.092zm39.12.984-9.2.087-9.73-1.216h8.96zm6.81.732.07-.317zl12.03 2.861-11.92.235-12.57-3.113 11.92-.116zm21.01 3.526-5.96-.716-.02.326.02-.326-.41-.001-8.66-2.057 6.69.836zm19.39 5.103 4.38 1.553-.58-.162-.25-.128-.15.292.07-.322-.7-.139-4.06-1.457zm47.62 22.506-4.22-2.111-7.86-5.068 4.39 2.198zm26.33 19.849 6.29 6.118-1.83-1.428-.98-.846-6.03-5.862zm18.43 19.389-4.45-3.462-7.42-8.764 4.09 3.199zm12.54 15.559-.99-1.144-4.3-6.03 1.34 1.55zm21.46 38.005 1.03 2.911-2.45-5.036-.29.143.29-.143-.13-.271-.42-1.414-.31.103.31-.103-.42-1.166zm8.79 23.912-.29.144.11.22v.211h.33l-.33.047.7 4.832-3.8-10.29-.14-1.104-.32.043.32-.043-.67-4.756 3.78 10.805zm-.9 106.75.94-14.794.13-.803 4.15-9.02-.76 12.768-.42 1.949zm-3.14 19.43-2.41 5.946 2.02-6.883.56-1.555 2.07-4.797zm-10.93 26.302-4.22 7.525 3.52-8.244 3.88-6.669zm-15.08 26.291-4.65 6.315 3.34-5.83.71-1.137 4.7-6.326zm-8.49 11.649-.27.416-.4.397.23.231-.3-.145-.12.245-7.92 8.618 5.01-9.107.41-.546 8.56-9.149-4.78 8.347.29.154-.29-.154-.14.284zl.28.181zm-8.61 11.055-4.45 4.852 2.09-2.725.84-.983 4.18-4.552zm-28.17 27.59-.69.551.2.256-.23-.231-.58.577-1.4 1.267-9.91 6.996 4.41-4.322 10.55-7.339-.88.914-.23.119.14.293-.23-.231zm-29.98 20.236 3.72-2.018zm-8.49 4.591-.29.142.15.293-.18-.272-.42.28-11.46 4.897 4.16-2.742.69-.277-.13-.303.13.303 10.94-4.64-3.32 2.187zm-74.55 20.68h-.39v.327l-.08-.318-.54.133h-.68v.328l-.14-.292-.24.121-.93.131-6.28.082 2.87-.434 6.87-.169zm-15.25.718h-.23l-5.47-.627 5.32-.444 5.87.276-4.32.652h-.55v.327l-.08-.318zm-14.34-.352h5.3l1.81.208-6.92-.143zm-.21 0-.08.248v-.248zm-1.38 0v.104zm-5.66-.79-.25-.125-.02.094.02-.094-4.42-1.611 11.56.366 3.61 1.506h-9.27zm-6.37-.725-.05.324v-.328h-.4l-.84-.139-.05.324v-.328h-.54l-.54-.133-.08.317v-.326h-.67l-.56-.139-.06.321.06-.321-1.17-.147-.04.325.04-.325-2.84-.284-4.7-1.625 11.47 1.262.53.131 3.97 1.446-2.41-.213-.02.326.02-.326-.27-.001zm-25.8-4.845 9.58 1.894.06-.322-.06.322.84.141 3.03 1.05-9.34-1.831zm-40.13-15.119-.2-.101 10.58 4.294.12-.304-.12.304.72.288 3.93 2.38-6.71-2.701zm-1.37-.574-.07.147zm-34.25-22.121 8.09 5.561 3.53 3.174-7.31-4.993zm-20.53-18.521-.24.223zl-.28-.277-.42-.563-.26.2.26-.2-2.31-2.903 8.72 7.505 5.55 6.859-8.39-7.312zm-26.88-33.562 1.77 2.329.71.985 1.9 3.177-1.36-1.811zm-13.21-22.048-2.49-5.295 1.91 3.302.58 1.151 1.95 4.244zm-8.47-18.504-2.36-7.303 5.49 9.548 3.73 11.185-4.14-7.13zM4.13 216.634l.14 1.289-.24 12.895-1.55-6.197v-.254h-.33l.3-.145-.12-.227-.28-6.544.11-8.578zm1.88-17.092.13.815-1.8 14.481-2.15-8.49v-.527l1.8-13.862zm4.04-15.947 4.32 8.099.11.332-3.4 17.083-4.29-8.86-.13-.764zm-2.39-11.104 4.58-14.012 2.51 6.916-4.83 15.702-2.26-7.553zm10.3-38.416.68-.679-.23-.232.29.149 5.28-10.42 1.41 3.636-6.82 13.642-.84-5.002.13-.897zm11.74-24.893.8.618-6.03 10.289.3-3.378.54-1.076zm3.82-8.094.25-.503 2.96-2.039-5.91 10.677-.78-.613zm115.72-79.701-14.83 9.165-11.82-.788 14.3-8.902zm62.64-15.708L198.03 9.27h-.36l-12.83-1.907 13.97-3.331zm2.42-.438h-.66l-12.27-1.548 12.82-1.678 12.42 1.553zm31.33 2.382 14.19 5.169-13.66 2.363-14.83-5.56 13.95-1.972zm71.01 22.265-10.34-.765-.49-.124-13.45-8.576 10.96 1.147.5.127zm57.12 41.93 7.89 10.961-5.28-1.68-9.28-12.325 6.04 2.535zm43.07 75.144-.72 6.505-6.08-14.278 1.2-5.163 5.47 11.893zm8.35 40.535-2.38 8.822-3.73-16.012v-.336l2.51-7.654 3.6 14.252zm2.49 12.165-1.84-12.146v-.963l.38-6.281 1.85 12.887zm.32 4.439.15-1.285-.33-.028.33.028.2-3.366.29 6.65-.19 5.683zm-7.11 37.309-.65-15.298.12-.624 4.31-9.01.66 14.339-.13 1.235zm-62.33 124.11-12.57 8.736 5.14-10.164.22-.222 13-9.014-5.27 10.139zm-36.47 28.008-14.53 6.323 5.11-7.927 15.68-6.969-5.63 8.194zm-39.2 19.108-15.07 3.394 4.13-5.259.19-.093 16.35-3.784-5.13 5.624zm-65.8 12.665-.08-.805 12.15-.248-3.23 1.468zm-112.81-38.192 15.11 6.285.36.236 5.36 7.667-14.32-5.891-.5-.379zm-22.46-20.088 14.65 7.934.22.219 5.37 10.073-14.14-7.674-.49-.368zm-45.55-48.286-4.31-13.453 10.21 10.477.11.222 4.06 13.619-9.67-10.197zm-10.81-49.472.12.341 1.47 16.136-8.48-10.607-.12-.343-1.48-15.739zM9.66 246.261l-.13-.777.13-15.743 6.43 9.579.12.351-.13 16.676zm5.33-53.495 6.55 8.41v.279l-3.45 18.479-6.55-9.483v-.3zm10.82-65.617 3.29 4.05-7.54 16.167-2.82-5.787v-.28zm12.25-29.481 3.77-.243-8.14 13.702-2.33-1.518 6.56-11.87zm24-28.113.18-.089 6.92-1.024-10.64 13.907-6.21.126zm56.8-27.212-11.41-1.195 14.2-10.789 11.95.796zm45.09-18.477-15.56 9.694-13.03-2.821 15.03-9.29zm.85-.513-13.43-2.393 14.97-7.283 13.69 2.126zm16.83-7.387 14.54 4.211-15.96 7.912-14.48-4.466 15.45-7.657zm79.41-2.72 14.84 7.286-13.6 2.533-15.11-7.42zm45.07 16.504 13.56 10.541-11.45 1.33-14.6-11.05 12.03-.936zm28.75 23.249L321.4 40.897l10.47.523 12.26 11.447zM369 80.911l-10.78-13.772 7.49 1.032.17.087 9.62 12.779zm40.57 57.335-7-13.993 1.8-3.348 6.3 11.511.12.594zm6.41 16.871-2.71 7.075-6.53-16.063 3.06-5.735 6.18 14.416zm6.32 42.699-4.44 8.758-3.8-16.973 4.56-8.344 3.68 15.818zm-2.09 26.436-2.28-16.25.11-.339 4.42-8.702 2.29 15.192-.13.903zm-64.19 126.309.22-.22 13.79-9.461-4.64 12.333-.37.368-13.24 9.19zm-38.44 30.42 16.62-7.493-4.91 10.211-.21.215-16 7.108zm-41.59 21.752 17.79-4.516-4.56 7.832-16.62 3.845zm-42.49 18.018 15.47-1.2-4.12 3.296-13.44.679zm-16.55 3.092-.11-2.657 15.81-.407-2.08 2.786zm-37.2-9.363 17.53 1.234 1.88 4.65-16-.964zm-36.23-7.157-.16-.085-4.84-7.588 17.77 4.238 3.76 7.017zm-62.33-41.38-.36-.357-4.82-12.179 15.47 8.484.15-.291-.15.291.17.089 4.41 12.013zm-14.5-9.902-.23-.349-5.18-12.203 13.7 9.129 4.88 12.292zm-11.15-29.049.11.207 4 14.026-12.33-10.586-4.13-13.85zm-24.04-23.11-.12-.333-3.22-15.31 10.55 10.552.1.201 3.09 15.56zm5.47-23.38.1.323 1.5 16.898-10.67-10.671-.1-.323-1.5-16.357zm-14.9-78.33 8.64 8.78-3.44 19.041-8.65-9.323zm7.52-70.47 5.11 4.849-8.02 17.704-4.73-6.171zm4.33-19.647 3.91 2.52-8.4 15.983-3.29-4.048zm13.46-13.621-9.23 15.571-3.91-2.521 8.35-14.058zm22.74-30.177.14-.067 8.22.664-11.87 15.042-7.34-1.443zm33.78-12.546-10.55-1.735 13.35-12.249 11.49 1.203zm28.22-10.218-12.41-2.968 14.87-11.287 13.09 2.834zm31.11-7.197-14.01-4.485 15.68-9.76 14.55 4.486zm49.29-11.833-16.32 8.093-15.16-6.145 16.05-7.956zm65.89 6.522-15.28-9.413 13.72-2.555 15.01 9.144zm16.12 11.932-15.4-11.415 13.52-2.84 14.73 11.145zm28.51 9.932-14.15-12.646 11.5-1.337 13.62 12.245zm37.44 27.609-12-14.753 8.84-.66 10.92 13.967zm19 13.802-10.02-14.686 6.53.127 8.85 13.412zm28.56 73.898-6.76-17.369 5-6.046 6.63 16.304zm9.26 37.667-6.73 9.554-3.84-18.249 6.82-8.825 3.85 17.212zm-13.22 57.689-.68-17.241.11-.442 8.89-9.978.55 16.838-.11.446zm-44.29 69.583.09-.173 14.33-9.69-3.52 14.337-.2.198-13.96 9.578zm-38.27 32.968.08-.173 17.05-7.564-4.04 12.254-16.76 7.555zm-22.64 19.542 17.84-6.313-4.52 10.106-17.17 5.77zm-19.7 5.191 18.9-4.967-3.86 9.6-17.97 4.56zm-62.38 27.734-.25-4.527 18.04-.55-1.51 4.659zm-37.62-6.749-.12-.058-2.64-6.731 19.09 1.522 1.57 6.526zm-41.26-14.945-.15-.076-4.15-9.499 18.76 4.551 3.6 9.329zm-46.01-37.462-3.4-14.026 17.6 7.76.18.181 3.01 13.664zm-16.29-8.933-.08-.162-3.96-14.19 15.97 8.672.19.185 3.39 14.007zm-24.87-60.729 1.5 17.499-12.87-10.54-.08-.166-1.51-17.022zm-24.57-22.357-.11-.309.14-17.75 10.86 10.182-.14 18.088zm5.11-57.895 10.79 9.148-3.32 20.081-10.88-9.911-.07-.129zm-4.4-55.991 6.82 6.553-6.65 18.983-6.7-7.632zm8.33-18.478 6.95 5.619-8.19 18.76-6.83-6.562zm3.16-22.066 5.64 3.537-9.01 17.473-5.12-4.853zm16.22-13.955-10.26 16.923-5.64-3.538 9.34-15.749zm34.57-29.751L76.13 86.898l-8.84-2.811 11.95-15.146zm57.36-20.704-13.64-4.775 15.62-11.471 14.05 4.5zm32.68-5.469-15.22-6.445 16.28-9.798 15.22 6.17zm50.36-10.132-16.39 8.263-16.24-8.26 16.39-8.125zm.74-.362-16.17-8.09L230 20.31l15.77 7.817zm32.97 3.453-15.93-9.752 14.84-4.492 15.39 9.48zm16.56 12.077-15.89-11.608 14.34-4.779 15.48 11.47zm57.31 19.425-13.54-14.087 11.01-1.744 12.58 13.553zm13.52 16.233L337.63 70.07l10.07-2.28 12.09 14.867zm50.32 66.379-8.17-17.439 5.39-4.865 7.78 16.248zm.11 75.723-3.86-19.192 8.94-8.944 3.87 18.375zM377.83 306.5l.96-17.238 12.83-10.376-.95 17.101zm-15.74 11.847 14.65-10.002-2.31 15.95-14.39 9.729zm-37.83 35.017.08-.142 17.58-7.894-2.74 13.95-.18.18-17.21 7.635zm-22.31 21.782.17-.172 18.6-6.523-3.65 12.027-17.98 6.36zm-20.3 5.562 19.55-5.268-2.84 11.643-19.01 4.996zm-65.13 34.643-.26-6.395 19.69-.694-1.18 6.532zm-42.88-17.993 20.41 1.945 1.34 8.545-19.21-1.531zm-.71-.082 2.54 8.948-18.73-2.914-3.61-9.356zm-39.62-8.761-3.51-11.633 19.67 5.124 2.71 11.085zm-4.26-11.841 3.51 11.601-17.95-6.075-4.18-11.872zm-2.89-14.393 2.73 13.644-18.76-6.391-.06-.131-3.04-13.776zm-37.94-15.772-.17-.169-2.34-15.84 18.28 8.309 1.92 15.499zm-16.92-9.316-.07-.148-2.61-15.973L85 330.16l2.33 15.734zm-5.02-35.107 1.38 17.441-14.7-9.753-1.51-17.58zm-28.6-21.525-.1-.294.14-18.266 12.87 9.998.14 18.866zm4.99-59.507 12.93 9.215-3.34 20.417-12.92-9.491zm-6.09-30.07 10.81 8.48-5.15 20.429-10.81-9.165zm-2.34-28.496 8.82 7.324-6.81 20.018-8.69-8.278zm8.48-19.474 9.09 6.377-8.5 19.778-8.82-7.329zm1.86-24.206 7.63 4.555-9.74 18.646-6.96-5.624zm10.64-17.592 8.18 3.753-10.86 17.822-7.64-4.558zm8.54 3.199-8.18-3.75L66.87 84.64l8.84 2.813zM101 75.203 87.22 91.486l-10.45-4.341 13.1-15.741zm.47-.532-11.12-3.795 13.75-14.449 11.94 3.392zm28.93-10.067-13.12-5.06 14.99-13.326 13.67 4.788zm65.37-10.933-15.87-8.279 16.33-10.103 16.28 8.28zm50.69-8.426-16.15 8.283-16.45-9.958 16.42-8.281zm.7-.342-16.14-9.932 15.51-6.452 16 9.796zm16.99 12.22-16.36-11.78 15.41-6.603 15.94 11.641zm60.75 16.543-14.42-14.705 12.36-3.397 13.61 14.161zm14.25 16.671-13.78-16.14 11.56-3.945 13.09 15.735zm53.36 43.747-9.43-17.34 6.05-3.554 8.78 16.021zm1.02 25.282-8.61-18.76 7.37-5.5 8.22 17.549zm-2.12 28.036-7.23-19.605 9.1-7.333 6.96 18.926zm5.64 20.513-5.57-19.625.05-.113 8.92-8.096 5.56 18.874zm-7.44 30.213-3.88-19.678 10.94-9.3 3.88 19.267zm-10.83 50.302-.55-18.594 13.02-10.281.41 18.459zm-52.94 48.644 18.29-8.588-1.8 15.847-.16.163-17.7 7.945zm-42.59 29.815 20.31-5.843-1.93 13.49-.15.151-19.73 5.315zm-23.16 18.147 20.86-4.174-2.3 11.384-19.92 3.622zm-22.58 13.974 20.43-2.363-1.87 8.959-19.36 1.949zm-21.27 9.292-.14-8.41 20.74-.835-.8 8.547zm-44.66-22.451 21.31 2.228 1.08 10.561-20.5-1.954zm-.79-.199.09.044 1.91 10.891-19.9-3.338-2.7-11.102zm-23.49-17.605 2.05 13.249-19.75-5.145-2.74-13.664zm-61.69-38.312-1.24-17.664 18.31 8.46 1.24 17.527zM56.2 230.663l14.79 9.402-3.2 20.723-14.93-9.679zm-8.24-30.794 12.8 8.674-5.01 21.026-12.95-9.227zM43.6 170.23l10.81 7.939-6.82 20.621-10.82-8.488zm8.76-20.462 10.81 7.256-8.51 20.512-10.82-7.944zm.42-26.068 9.36 5.702-10.04 19.39-9.1-6.381zm11.21-18.447 9.77 4.885-11.3 18.692-9.36-5.701zm10.13 4.333-9.77-4.884 12-17.023 10.45 4.342zm39.99-28.801L99.89 97.518l-12.06-5.753 13.82-16.322zm.46-.513-12.45-5.336 14.62-14.899 13.14 5.065zm30.81-8.632-14.32-6.745 15.58-13.63 14.87 6.609zm33.25-5.464-15.89-8.432 16.52-11.946 15.9 8.294zm102.07 4.891-15.98-13.482 15.01-6.75L295.3 64.18zm30.81 8.339-15.03-15.025 13.29-5.205 14.48 14.755zm14.83 17.104-14.36-16.592 12.74-5.481 13.81 16.18zm26.05 11.783-12.82-17.418 10.88-4.351 11.99 16.742zm22.02 12.916-11-17.676 8.46-3.76 10.32 16.739zm10.21 18.803-9.88-18.238 7.78-4.696 9.48 17.43zm-.71 27.155-8.78-19.507 9.25-6.66 8.64 18.825zm6.96 20.88-10.95 8.452-7.25-20.347 10.96-7.944 7.28 19.747zm-5.32 29.696-5.58-20.384.06-.114 10.91-8.43 5.57 19.615zm3.45 21.079-13.04 9.708-3.75-20.281 12.94-9.36 3.91 19.815zm-10.84 30.231-2.08-19.794L389 239.64l2.22 19.105zm-15.06 30.086-.55-18.931 15.03-9.932.56 18.653zm-36.53 19.659 18.46-8.744-.83 17.672-18.32 8.606zm-42.44 32.263 20.89-6.129-1.37 15.409-20.35 5.852zm-45.9 36.581 21.19-2.507-1.36 10.838-20.5 2.372zm-22.14 11.595-.27-10.567 21.75-.977-.67 10.706zm-44.82-14.075-.07-.035-1.38-12.941 22.05 2.511.96 12.718zm-25.57-32.945 1.51 15.129-20.47-5.572-1.79-15.405zm-61.37-59.869 18.34 8.613v18.841l-18.34-8.471zm-17.4-9.599 16.75 9.275v18.963l-16.75-9.276zm4.67-42.332 16.65 9.298-3.06 20.744-16.8-9.297zm-10.25-31.498 14.66 9.128-4.88 21.329-14.8-9.408zm-6.37-30.368 12.81 8.264-6.83 21.069-12.81-8.679zm8.75-21.174 12.82 7.854-8.52 20.957-12.82-8.268zm-1.03-27.639 11.09 6.572-10.33 20.112-10.82-7.258zm11.65-19.299 11.5 6.164-11.74 19.137-11.08-6.571zm40.38-29.372 14.06 7.032-14.65 16.892-13.66-7.17zm149.7-1.233-16.28-13.501 15.92-8.441 16 13.5zm47.51 24.152-14.79-16.75 14.2-7.035 14.38 16.614zm28.07 10.918-13.26-17.866 12.2-5.897 12.85 17.457zm34.83 32.16-10.18-19.245 9.51-5.706 9.91 18.293zm-2.42 28.464-8.93-20.231 11.1-7.264 8.8 19.546zm6.94 21.571-13.09 8.918-7.12-20.931 12.97-8.552 7.29 20.474zm-7.32 30.463-5.57-20.893 12.95-8.819 5.58 20.343zm-11.75 31.213-3.61-20.584 14.94-9.545 3.75 20.307zm2.2 20.69-2.09-19.978 15.06-9.81 2.09 19.841zm-16.8 29.509-.55-18.826 16.76-9.559.56 18.966zm-19.12 9.106-.56-18.852 18.49-8.757.55 18.852zm-42.14 15.283 21.05-6.416-.41 17.288-20.92 6.137zm-68.62 54.651-.28-12.581 22.35-1.117-.28 12.72zm-46.05-16.495-.96-14.869 22.35 2.654.68 14.73zm-66.44-70.293 19.92 7.521v18.723l-19.92-7.383zm-17.58-29.749 18.35 8.759-1.39 20.016-18.35-8.621zm3.13-21.447 17.94 8.764-2.65 20.752-18.36-8.765zM76.6 218.391l16.38 9.162-4.6 21.487-16.66-9.303zm-8.23-31.218 14.53 8.857-6.71 21.361-14.67-9.134zm8.75-21.595 14.53 8.719-8.52 21.105-14.54-8.858zm-2.77-28.932 12.96 7.72-10.48 20.273L64 156.781zm12.07-19.73 13.38 7.448-12.16 19.43-12.96-7.722zm42.97-28.507 15.24 8.309-14.95 17.042-14.96-8.448zm151.45 7.236-15.9-15.343 15.65-8.448 15.49 15.206zm15.56 17.253-15.09-16.763 15.24-8.588 14.8 16.764zm29.79 9.771-13.83-18.164 13.8-7.17 13.27 17.888zm37.01 32.034-10.62-19.833 11.52-6.718 10.2 19.286zm-4.29 29.76-8.94-20.815 12.96-7.997 8.94 20.26zm-8.02 31.204-6.98-21.081 14.67-9.139 7.13 20.941zm5.63 21.846-5.44-21.195 14.82-9.276 5.57 20.916zm-13.62 31.218-3.48-20.745 16.65-9.441 3.62 20.607zm2.18 20.698L343 269.424l16.78-9.57 2.09 20.005zm-19.12 9.1-1.81-19.881 18.22-8.901 2.09 20.02zm-19.82 27.501-.56-18.73 19.78-7.8.56 18.868zm-21.72 6.65-.56-18.458 21.07-6.699.56 18.737zm-68.9 42.099-.28-14.595 22.79-1.258-.14 14.734zm-46.76-18.793-.69-16.741 22.64 2.795.42 16.602zm-44.87-47.026 20.92 6.276v18.455l-20.92-5.998zm-19.16-28.454 19.64 7.804-1.11 19.745-19.92-7.523zm2.7-21.438 19.38 7.943-2.37 20.621-19.65-7.807zm-13.85-31.196 17.67 9.044-4.32 21.209-17.95-8.765zm-10.1-31.505 16.1 9.167-6.42 21.369-16.39-9.165zm8.74-21.735 15.97 9.166-8.38 21.11-16.11-9.167zm-4.34-29.935 14.53 8.447-10.48 20.555-14.54-8.722zm12.49-20.01 14.68 8.445-12.31 19.441-14.54-8.446zm44.84-27.641 16.11 9.724-15.23 16.911-15.84-9.583zm134.49 25.917-15.22-16.627 16.25-9.866 15.09 16.768zm69.98 40.092-10.62-20.129 12.96-7.72 10.62 19.851zm-6.01 30.91-8.95-21.108 14.68-8.866 8.95 20.831zm-9.75 31.498-6.85-21.229 16.26-9.306 6.98 21.09zm5.35 21.854-5.16-21.209 16.39-9.444 5.44 21.207zm-15.21 30.651-3.34-20.762 18.08-8.904 3.49 20.76zm-18.52 28.645-1.67-19.747 19.65-7.942 1.8 19.886zm-21.72 6.934-1.39-19.614 20.8-6.84 1.67 19.755zm-21.99 24.2-.55-18.324 21.93-5.03.56 18.464zm-23.15 20.459-.14-16.601 22.65-3.076-.14 16.741zm-23.45 1.323-.42-16.607 23.08-1.258.14 16.605zm-47.18-39.272 22.51 2.936.14 18.185-22.65-2.795zm-22.58-4.859 21.93 4.749v18.323l-21.93-4.611zm-20.45-26.868 20.65 6.418-.84 19.61-20.92-6.278zm2.42-21.289 20.23 6.837-1.95 20.2-20.65-6.417zM111.86 237.2l18.82 8.221-3.77 20.924-19.37-7.942zm-11.69-31.351 17.39 9.045-6.14 21.369-17.67-9.045zm8.6-21.726 16.98 9.322-7.97 20.826-17.4-9.046zm-5.79-30.648 15.84 9.304-10.35 20.422-15.98-9.168zm12.64-20.012 15.83 9.305-12.31 19.443-15.83-9.305zm46.26-26.335 16.56 11.135-15.23 16.348-16.56-10.577zm17.03 10.659-16.56-11.136 16.05-15.216 16.71 11.415zm83.67 16.251-15.38-16.209 16.71-11.138 15.23 16.627zm71.85 38.225-10.62-20.275 14.68-8.728 10.63 20.137zm-7.59 31.352-8.67-20.972 15.98-9.449 8.95 21.112zm-11.18 31.214-6.56-21.087 17.39-9.187 6.84 21.228zm4.92 21.716-4.74-21.07 17.67-9.045 5.16 21.209zm-16.79 29.648-2.93-20.483 19.24-8.224 3.34 20.764zm-21.43 7.075L280 273.209l20.24-7.258 2.92 20.478zm-21.11 25.49-.97-19.194 21.51-5.448 1.39 19.612zm-22.71 22.185-.28-18.045 22.37-3.356.55 18.325zm-23.74 1.323-.13-18.045 22.93-1.258.28 18.045zm-23.45-.833-.13-18.186 22.79.977.14 18.048zm-22.87-41.027 22.22 3.074-.14 19.052-22.5-2.935zm-22.16-5.285 21.51 5.167-.42 19.193-21.93-4.749zm1.99-20.856 20.8 5.443-1.25 19.916-21.5-5.164zm-17.01-28.593 19.38 7.391-2.93 20.352-20.21-6.833zm-13.14-30.478 18.11 8.774-5.44 20.803-18.81-8.22zm8.17-21.441 17.55 9.191-7.41 20.392-18.1-8.772zm-6.95-30.64 16.56 9.598-9.93 20.132-16.97-9.321zm12.63-20.006 16.56 10.155-12.31 18.878-16.55-9.599zm46.98-24.467 16.58 11.978-15.23 15.644-16.57-11.282zm17.05 11.516-16.58-11.982 16.19-14.935 16.59 12.681zm49.4 15.816-15.36-15.364 16.58-12.4 15.37 16.2zm72.45 36.077-10.48-20.277 15.83-9.447 10.63 20.275zm-9.02 31.069-8.25-20.686 16.98-9.462 8.67 20.962zm-12.61 30.5-5.87-20.662 18.11-8.916 6.56 21.079zm4.48 21.433-4.32-20.786 18.81-8.502 4.74 21.064zm-20.84 7.498-3.49-20.356 19.39-7.672 4.32 20.775zm-19.67 26.352-1.81-19.914 20.94-5.586 2.37 20.055zm-21.99 23.338-.7-19.052 22.09-3.494.97 19.192zm-23.58 1.326-.28-18.911 22.51-1.398.7 19.052zm-23.31-20.025 22.37 1.118.28 18.911-22.78-.978zm-21.59-23.698 21.51 3.492-.56 19.489-22.21-3.073zm-18.45-26.572 19.94 5.858-2.09 19.92-20.78-5.439zm-14.43-29.03 18.53 7.943-4.61 20.225-19.36-7.386zm7.58-20.994 17.54 8.771-6.42 19.531-18.51-7.936zm-7.96-30.207 17.13 9.886-9.5 19.418-17.54-9.189zm12.62-19.43 16.71 10.583-11.87 18.162-17.13-9.886zm63.28-9.35-15.21 14.372-16.31-11.987 15.21-15.628zm16.2 14.229-15.21-14.23 16.17-13.242 15.35 15.347zm71.75 33.35L290 171.846l16.84-9.744 10.49 20.272zm-10.17 30.495-7.69-20.253 17.55-9.332 8.25 20.672zm-13.9 29.21-4.89-20.085 18.4-8.22 5.86 20.641zm-17.94 26.788-2.51-19.783 19.95-6.139 3.49 20.341zm-20.82 24.197-.98-19.489 21.23-3.91 1.81 19.908zm-23.15 1.471-.28-19.484 21.8-1.397.97 19.484zm-22.45-20.598 21.52 1.118.27 19.483-22.34-1.117zm-20.02-24.12 20.23 3.905-.84 19.489-21.48-3.488zm-15.88-26.859 18.67 6.688-3.34 19.363-19.92-5.851zm6.58-20.126 17.25 7.652-5.01 18.519-18.64-6.677zm-8.4-29.046 16.84 9.602-8.79 18.555-17.53-8.767zm12.18-18.703 16.42 10.857-11.43 16.881-16.85-9.603zm115.85 36.931-9.78-19.28 16.99-10.024 10.33 19.975zm-11.03 29.347-6.83-19.389 17.54-9.052 7.68 20.226zm-15.47 27.07-3.62-19.363 18.67-6.827 4.87 20.06zm-19.23 24.487-1.39-19.491 20.09-4.183 2.5 19.769zm-22.41 1.476-.15-19.198 20.52-1.676 1.39 19.479zm-21.31-20.59 20.51 1.396.14 19.198-21.48-1.115zm-17.46-23.971 18.52 4.595-1.67 18.635-20.18-3.897zm5.14-19.099 16.1 6.107-2.63 16.932-18.47-4.579zm-8.85-27.019 15.98 9.17-7.52 16.983-17.23-7.643zm11.74-17.406 15.28 10.837-10.71 15.171-15.98-9.169zm80.76 35.058-8.93-18.415 16.7-9.883 9.77 19.25zm-12.16 27.059-5.29-18.38 17.11-7.789 6.82 19.352zm-16.9 24.347-2.09-18.64 18.52-4.872 3.61 19.337zm-21.11 1.765-.28-18.198 18.65-2.088 2.09 18.615zm-19.45-20.003 18.52 1.81.27 18.197-20.45-1.393zm2.71-17.531 15.8 2.493v16.191l-18.43-1.802zm-9.04-23.791 13.98 8.025-5.41 14.966-16.05-6.088zm10.99-15.67 13.43 10.797-10.12 12.331-13.98-8.027zm47.28 31.892-7.65-16.841 15.84-9.31 8.91 18.369zm-13.56 24.048-2.92-16.935 16.1-6.247 5.28 18.324zm-19.21-13.992 15.65-2.771 2.91 16.883-18.56 2.079zm-10.95-17.924 10.15 5.758.14 11.509-15.63-2.467zm20.48-.703-10.01 5.892-10.14-5.758 10-12.196zm.57-.338-10.26-12.193 13.44-10.936 10.94 14.962zm6.01 15.393-5.68-14.825 14.12-8.168 7.62 16.762zm-16.12 2.91-.14-11.51 10.01-5.893 5.62 14.663zm28.95-52.807 11.69 16.698-15.84 9.309-11-15.031zm-29.7-2.728 13.61 13.607-13.47 10.967-13.47-10.83zm58.65 9.21-16.7 9.884-11.72-16.74 16.43-10.997zm-43.01-22.594 13.65 15.598-15.16 10.988-13.65-13.649zm-31.29.143 15.17 12.798-13.37 13.79-15.31-10.85zm91.86 12.094-16.99 10.025-12.02-17.881 16.71-10.862zm-29.94-8.02-16.44 11.002-13.67-15.629 16.29-12.117zM212.9 144.69l15.18 14.211-15.19 12.962-15.18-12.818zm-32.46 2.446 16.3 11.977-13.54 15.769-16.43-10.863zm126.07 14.4-16.84 9.741-12.3-18.734 16.56-10.157zm-30.08-9.172-16.71 10.865-13.83-16.764 16.57-11.561zm-63.68-36.029 16.33 14.231-16.19 13.252-16.32-13.255zm-49.42 19.142 16.58 11.279-13.69 16.903-16.71-10.584zm159.58 16.279-15.83 9.447-12.59-19.159 15.98-9.587zm-29.37-9.904-16.55 10.158-13.98-17.473 16.56-10.717zm-63.4-38.757 16.05 14.653-16.59 12.407-16.33-14.235zm-83.91 21.445 16.56 10.578-13.84 17.61-16.56-10.16zM326 123.532l12.17 19.161-14.69 8.731-12.45-19.298zm-29.75-9.788 13.84 18.177-15.98 9.588-13.98-18.038zm-48.86-22.595 16.05 15.072-16.71 11.136-16.05-14.655zm-34.49-1.872 16.72 13.382-16.87 12.83-16.59-12.684zm-83.07 25.331 15.84 9.584-13.85 18.038-15.83-9.307zm61.95 244.088-.42-16.607 22.8.838.42 16.608zm159.91-224.059-12.96 7.721-12.16-19.146 13.23-7.446zm-26.07-11.641-14.96 8.592-13.85-18.177 14.97-8.59zm-61.27-42.357 15.91 15.351-16.25 9.864-16.05-15.073zm-34.07-3.454 16.6 13.521-16.71 11.553-16.73-13.382zm-34.63.143 16.7 11.551-16.73 13.525-16.7-11.412zm-34.06 3.744 16.25 10-16.06 15.215-16.11-9.722zm-47.29 24.757 14.96 8.449-13.84 18.315-14.68-8.446zm32.02 245.861-.83-17.159 21.92 4.609.69 16.739zm46.17 22.395-.68-14.733 22.78.838.27 14.594zm46.05-.485.14-14.732 22.36-2.934-.42 14.87zm23.16-18.445.14-16.739 21.93-4.888-.28 17.018zm90.47-246.012 11.6 18.444-11.52 6.718-11.87-18.856zm-88.34-28.954-16.38 10.138-16.58-13.513 16.66-10.14zm-50.93-15.24 16.83 11.824-16.83 11.686-16.69-11.545zm-34.21 2.013 16.38 9.995-16.73 13.658-16.24-9.995zm-33.2 5.467 15.5 8.307-15.9 15.485-15.23-8.304zM100.07 98.34l13.65 7.172-13.55 18.309-13.38-7.447zM68.33 261.871l16.77 9.286-1.39 20.14-16.77-9.287zm56.56 83.797-.97-17.288 20.91 5.993.83 17.15zm23 21.842-1.51-15.143 21.75 4.185.97 14.864zm45.6 19.952-.96-12.721 22.35.699.27 12.581zm44.77-.482.28-12.719 22.04-2.791-1.09 12.997zm23.02-16.289.41-14.866 21.78-4.605-.83 15.144zm44.45-26.688.41-17.277 19.77-7.653-.7 17.554zm68.12-222.456-9.52 5.705-11.57-18.411 10.05-5.027zm-62.97-41.843-14.2 7.031-15.47-15.188 14.62-6.894zm-80.6-25.408 16.69 11.955-16.66 10.134-16.82-11.819zm-34.49.144 16.51 10.127-16.68 11.959-16.37-9.988zm-33.63 3.741 15.91 8.442-16.57 13.646-15.49-8.303zm-31.62 7.192 14.33 6.751-15.62 15.473-14.05-7.027zM87.42 92.292l12.05 5.754-13.26 18.011-11.5-6.163zM52.79 251.84l14.91 9.665-1.39 20.107-15.05-9.94zm51.81 86.509-1.24-17.552 19.89 7.374.97 17.272zm45.43 43.107-2.05-13.264 21.17 3.899 1.37 12.848zm44.61 17.227-1.09-10.565 21.62.558.27 10.565zm65.52-14.33 1.09-12.987 21.33-4.321-1.51 13.125zm63.61-31.477-.06.12-19.38 7.112 1.37-15.392 19.46-7.366zm21.11-25.513.82-17.639 16.73-9.401-.96 17.64zM263.49 57.457l-15.9 8.43-16.66-11.938 16.17-8.295zm-50.31-13.53 16.49 9.977-16.77 10.259-16.49-10.115zM39.26 241.954l12.9 9.469-1.52 19.783-12.9-10.019zm12.13 49.415-.14-18.92 15.02 9.921v18.922zm17.04 28.855-.07-.145-1.39-17.595 16.72 9.256 1.24 17.634zm38.34 34.619-.16-.16-1.93-15.608 19.59 7.086 1.79 15.392zm89.29 53.044-1.34-8.547 20.73.556.13 8.41zm124.99-40.351-.07.13-18.64 6.539 1.91-13.373 19.27-7.071zm38.26-32.933-.08.148-16.18 9.129 1.78-15.74 16.54-9.375zm17.83-27.487-.2.306-14.79 10.092.96-17.59 14.99-10.182zm25.64-59.047-10.97 10.146-2.22-19.114.08-.145 10.99-9.759 2.22 18.453zM379.2 97.025l9.61 15.6-6.06 3.553-10.27-16.652zm-18.98-13.821 11.28 16.018-8.46 3.758-11.95-16.687zm-65.83-37.561 14.84 13.041-13.27 5.199-15.53-13.314zm-131.08-6.617 15.26 6.464-16.49 11.922-14.85-6.6zM26.15 250.345l-.07-.145 1.8-18.531 10.76 9.806-1.52 19.156zm30.06 76.509-.09-.172-3.01-16.022 14.67 9.735.09.171 2.6 15.884zm139.99 81.691 19.4.416.26 6.395-18.1-.278zm57.17 4.536-17.92 1.667 1.17-6.527 19.23-1.936zm22.14-10.914-18.75 3.334 1.87-8.949 19.82-3.605zm80.22-52.241-.19.194-15.6 8.694 2.72-13.88.19-.188 16.15-9.107zm32.35-37.191-.09.181-12.82 10.767 2.32-15.904.22-.335 12.82-10.5zm15.28-46.112-11.06 10.783-.41-18.375 10.88-10.063.69 17.353zm9.02-29.724-8.93 10.013-2.2-18.262 8.92-9.728 2.21 17.683zm.97-47.413-6.84 8.854-5.52-18.773 6.97-7.775zm-5.39-18.632-.3.132.05.102-6.97 7.772-6.93-18.852 6.97-6.704 6.88 17.682zm-6.04-46.449.04.082-3.58 4.22-8.68-15.848 4.33-2.548zM385.21 95.7l8.49 14.046-4.33 2.548-9.52-15.446zm-16.53-14.105 10.15 14.87-6.71 2.5-11.22-15.921zM308.04 42.32l14.23 12.72-12.34 3.391-14.78-12.991zm-176.53 3.697-14.93 13.275-11.92-3.384 14.39-12.868zm-28.17 10.265L89.65 70.66l-9.91-2.276 13.01-13.842zM66.19 84.48l-11.22 15.926-6.56-2.362 10.42-15.008zm-44 116.627 5.16-18.849 8.68 8.265-5.13 19.682-8.71-8.844zm-5.36 38.344-.1-.305 1.79-17.62 8.68 9.359.08.158-1.79 18.422zm26.01 76.199-.1-.193-3.12-15.745 12.73 10.422 2.97 15.827zm17.95 26.725-.22-.328-4.05-14.198 14.14 9.52.09.177 3.93 14.087zm36.35 32.329-.19-.191-4.46-12.161 17.03 7.415.08.161 4.2 11.937zm22.97 18.387-.32-.211-4.8-9.859 17.82 6.031 4.12 9.417zm40.95 18.108-.14-.072-3.81-7.098 18.58 2.89 2.6 6.642zm36.93 4.536 17.9.276.26 4.526-16.27-.139zm51.83 3.092-16.03 1.243 1.5-4.652 17.69-1.644zm21.95-8.703-.14.07-17.52 2.782 2.47-6.781 18.61-3.309zm79.09-46.69-.21.205-15.19 8.487 4.03-12.22.2-.204 15.46-8.62zm32.91-35.179-.1.197-12.12 10.371 3.47-14.158 12.64-10.618zm15.68-27.467-.11.203-10.46 10.869 2.41-15.554 10.84-10.844zm3.19-16.724-.33-.009v.303l-10.95 10.951.95-16.995 10.96-10.686-.96 16.427zm16.95-58.104-6.67 9.738-2.18-17.432 6.65-9.436 2.32 16.535zm-1.17-45.695-4.62 8.451-5.38-17.67-.32.096.3-.145-.06-.116 4.83-7.061 5.25 16.15zm-9.04-40.938.09.281-3.08 5.776-7.68-16.055 3.57-4.205zm-5.46-19.409.09.27-1.81 3.376-7.62-13.6 2.48-1.654zm-13.94-23.979.16.165 6.59 11.64-2.48 1.653-8.27-13.7zM344.9 53.511l.29.099 11.58 12.818-8.81.659-12.48-13.442zm-98.81-37.669 15.26 7.491-14.76 4.469-15.66-7.762zm-32.56-1.747h.31l15.27 5.86-15.78 6.121-15.35-5.978zM91.87 54.529 78.98 68.236l-8.1-.654 11.69-12.924zM58.05 83.013l-10.3 14.83-4.78-1.007 8.85-13.697zM15.4 165.262l-.05-.174.22-.148-.18-.273.31.115 5.97-15.988 4.71 6.148-6.47 17.749zm-.29 26.581-.06-.187.28-.288-.23-.232.31.087 4.73-17.11 6.68 7.612-5.1 18.619zM9.67 228.14l1.78-16.668 6.47 9.385-1.76 17.389-6.49-9.663zm7.17 29.732-.12-.451.14-16.935 8.61 9.958.09.178-.13 17.585zm5.44 33.927-.4-.798-3.02-14.437 8.32 10.391.12.377 3.15 14.975zm31.75 53.174-.52-.662-5.18-11.892 11.7 9.986.24.361 5.05 11.918zm49.4 41.08-.33-.222-5.42-10.183 16.44 7.064 4.75 9.758zm23.28 15.955-.48-.242-5.44-7.767 16.6 5.309.19.092 4.79 7.509zm35.08 9.954 16.92 2.319.16.081 3.42 4.935-15.84-2.048zm38.58 9.094 15.81.136.12 2.657h-13.61zm66.4-4.766-.18.09-15.93 2.335 3.15-5.028 17.15-2.723zm39.38-15.872-16 5.335 4.53-7.774 16.98-5.706-5.18 8.036zm38.67-25.338-.35.348-14.18 7.699 4.84-10.07 14.94-8.347zm33.5-33.206-.38.513-11.52 9.929 4.56-12.109 12.16-10.436zm16.43-25.353-10.01 10.666 3.82-13.95.1-.208 10.29-10.682-3.8 13.645zm14.18-28.368-.26.789-8.36 10.714 2.65-15.105-.32-.056h.32v-.311l8.62-10.573zm3.18-16.172-.31-.01v.328l-8.78 10.776.95-16.207.11-.334 8.67-10.272-.95 15.709zm8.05-28.46-6.59 10.146-.54-16.971 6.58-9.608.68 15.669zm5.26-54.39 2.06 13.655-.14 1.26-2.18 8.468-2.2-14.64v-.706l.33-.334-.23-.231.32.085zm-6.67-10.274-5.12-15.767 2.66-6.962 5.01 14.49v.468zm-14.93-60.398-6.19-10.477 1.16-.579 4.69 6.621.12.613zm-9.32-19.717.37.498 3.59 7.594-1.16.58-5.99-10.586zm-12.18-15.064.21.213 6.98 11.363-3.95-.239-8.61-13.045zM354.49 55.51l.18.09 10.31 11.812-7.35-1.013-11.34-12.551zm-36.63-24.874.47.12 12.66 9.965-10.38-.519-13.3-10.347zM290.91 20.28l13.77 8.772-11.87.924-14.83-9.032zm-15.65-7.478 14.04 6.89-12.33.649-14.56-7.149zm-45.31-3.023 15.12 5.668-15.04 4.161-15.08-5.789 14.68-4.04zm-16.29-3.884h.63l14.01 3.569-14.44 3.977h-.34l-14.16-3.837zm-15.95 4.029h.32l14.39 3.899-15.36 5.931-14.35-4.156zM95.68 42.396l.33-.109 9.68-.524-13.18 12.102-9.25.13zM73.43 56.75l.18-.092 7.87-1.777-11.49 12.714-.18.089-6.83 1.013zM45.91 85.118l4.94-1.687-8.6 13.31-3.67.237 6.99-11.514zm-21.56 36.483 6.68-11.424 2.34 1.519-7.58 14.069-1.44-3.737zm-11.8 35.223 5.89-14.372 2.78 5.687-6.1 16.308-2.57-7.033zm-2.3 25.441 4.95-16.088 4.44 7.313-4.83 17.475-.06.056-4.5-8.456zm-3.59 19.213 4.23 8.72v.324l-1.75 16.374-4.22-9.087-.14-1.224zM4.9 235.034l-.12-.38-.14-1.395.26-13.943 4.12 8.863-.13 15.817zm10.34 44.549-.28.166.23-.232-.23-.227-.41-1.497-2.62-12.502 5.89 9.694.13.407 2.89 13.814zm12.37 27.612-.55-1.098-4.14-12.404 7.86 10.1 4.27 13.328zm15.65 26.14-.69-.962-5.07-11.135 9.3 9.806.23-.229-.23.229.39.394 4.97 11.428zm18.68 24.145-1.11-1.248-5.69-9.445 10.78 9.282 5.86 9.888zm12.08 10.637-.68-.814-5.87-9.945 12.87 8.665.38.385 5.51 9.981zm22.1 19.387-.95-.683-6.2-7.924 14.09 7.689 5.83 7.691zm23.27 15.376-.81-.41-6.35-5.761 14.17 5.873 5.87 5.526zm3.12 1.971-.1.194zm12.39 4.345-.27-.135-.13.298.13-.298-.67-.27-6.11-5.741 15.16 4.744.21.103 5.51 5.512zm15.16 4.615-5.62-5.623 16.12 3.496.21.1 4.63 5.254zm23.9 7.883-.79-.133-5.47-3.489 15.15 1.959 4.26 3.11zm14.96 1.724-.48-.119-4.37-3.188 15.43.93 2.32 2.785zm19.2 2.589h-.34l-3.61-1.504h12.17l.08.812zm25.06.189v.281l-.06-.279zm1.12-.027.03.165zm4.41-.875-1.1.138-10.02.248 3.22-1.468 12.19-.616zm21.22-4.139-.04-.325-13.79 1.856 4.04-3.233 15.26-2.237-4.92 3.515-.19.097h-.36zm15.97-3.749-.82.273.06.174-.12.039-.05-.222-12.85 2.699 4.75-3.394.23-.113 14.27-3.214zm22.77-9.797-14.08 4.516 5.02-5.502 15.46-5.156-5.76 5.888zm16.44-7.138-1.4.84.3.5-.09.051-.18-.271-.13-.301-12.74 5.404 5.56-5.68.38-.125-.12-.305.12.305 13.96-6.074zm21.75-15.123L324 392.434l5.53-8.039.23-.232 13.8-7.493-5.75 8zm14.89-10.586-1.37 1.235-.25.127.13.271-.17-.246-10.66 7.399 5.5-7.651.37-.369 12.03-8.365zm19.83-20.829-.82.956-10.35 8.946 5.09-9.801 11.52-9.988zm17.96-24.42-.69 1.101-9.29 9.931 4.79-11.991 9.71-10.35zm14.94-26.272-.41.946-7.85 10.386 3.7-13.267.12-.235 8.13-10.415zm11.79-28.031-.55 1.52-5.82 9.774 2.55-14.033-.32-.057.33-.001v-.337l6.23-9.968zm2.87-15.764-.13.909-6.48 10.36.93-15.382.12-.476 6.49-9.988zm9.06-39.617-.11.22.3.145h-.33v.247l-2.18 8.252-.62-13.521.14-.963 2.06-8.017zm-6.46-59.532.28 1.927-.59 6.779-4.8-13.882v-.343l.71-6.386zm.93 1.858-.55-3.79 1.91 7.506.52 3.351zm-12.86-36.521.31-.094-.29.145.11.231.53 4.775-5.8-10.593-.13-.379-.21-3.823 5.06 8.338zm-9.89-20.336.7 1.253 1.92 5.017-3.36-4.749-2.63-5.56zm-10.93-16.255 4.84 8.531-3.22-1.927-.23-.233-6.47-10.521 4.25 3.047zm-8.86-12.302.38.375 6.5 9.197-4.01-2.879-.25-.255-7.16-9.946zm-17.52-17.524.96.825 8.59 10.149-6.14-2.599-9.9-11.324zm-9.07-4.568-8.07-1.639-.35-.116-11.98-11.183 8.82 2.143.5.251zM329.53 33.9l11.19 8.98-8.57-2.082-12.23-9.624 8.8 2.318zm-14.75-9.176.69.275.27.137 11.19 7.211-8.37-2.208-.08.317.08-.317-.52-.132-12.08-7.719zm-26.56-10.488.67.133.24.123.15-.292-.15.292 12.49 6.243-10.59-1.109-.02.327.02-.327h-.38l-13.5-6.621zM259.8 7.335h.36l13.44 4.863-12.46.378-13.69-4.989zm-29.68-3.453 13.43 3.326L230 9.125h-.38l-13.57-3.459 13.13-1.784zM182.6 7.765h.49l13.26 1.97-14.73 5.576h-.49L167.6 13.21zm-17.64 5.857-14.71 7.153-12.14-.517 14.44-7.026zm-25.89 1.463 1.09-.274 10.38-1.327-13.84 6.727-9.94 1.091zm-.14-.405.03.095zm-29.17 16.794.49-.12 10.19-.905-13.97 10.616-9.51.514zm-10.09 2.882 8.44-2.412-12.32 9.726-8.37 2.181 11.43-9.088zM85.63 45.114l.5-.252 8.22-2.117-12.08 11.288-7.7 1.737zM64.67 61.472l1.11-.968 6.11-3-9.96 11.383-5.79 2.666zm-9.55 11.267 5.69-2.609-9.37 12.407-4.83 1.652 7.86-10.932zM39.54 90.757l.7-1.103 3.86-3.027-6.35 10.465-.21.105.14.293-.18-.269-2.96 2.039zM18.87 127.64l.69-1.659 4.43-7.874-.3 3.392.33.014-.33-.014v.507l-5.55 10.957zm-6.64 20.194 5.03-11.512.82 4.93v.331l-5.64 13.762-.46-6.216.12-1.042zl-.29-.14zm-5 16.386v-1.085l4.21-12.383.46 6.028v.64l-4.33 13.24zm.31-4.012h-.06zm-5.49 35.967 1.29-11.28.21 3.672v1.694l-1.49 11.492zm3.84 52.933.3-.148-.11-.222v-.219l-.33.014.33-.014-.99-11.441 3.8 8.535 1.38 14.372-3.49-8.242-.57-2.702zm-.3.118.56 2.684.32-.069-.32.069 3.17 14.531.32-.07-.31.109 1.57 4.454.31-.104-.31.104.15.432.31-.105-.29.145.13.258.13.42.32-.103-.3.145.15.289.29-.147-.29.147.14.29.59-.298-.27-.54-.14-.42-.32.103.3-.144-.14-.28-.28-.834-.31.106.31-.106-1.43-4.011-2.41-11.071 2.95 6.973.3-.128.32-.03-1.31-14.336 6.29 9.894.12.479 1.45 15.413-6.14-10.108-.42-1.271-.63.207.43 1.293 2.38 11.32-1.04-2.349-.3.134-.31.113 6.33 17.269.3-.121-.3.121 2.74 6.343.3-.135-.3.135 5.76 12.245.29-.151-.29.151 8.07 14.118.28-.172-.28.172.3.441.27-.182-.24.231.29.288.47-.463-.28-.273-.25-.375-2.44-4.318-3.74-8.109 6.77 9.023.43.713 4.68 10.265-5.15-6.749-.26.199-.27.179 7.63 11.804.27-.187-.27.187 5.18 6.914.26-.196.29-.169-3.59-5.973 8.64 9.344 5.24 8.686-4.71-4.91-.27-.4-.27.182.23-.231-.56-.563-4.16-5.304-.26.201.23-.233-.26-.266-.27-.403-.55.364.29.433.27-.182-.23.232.27.266 4.16 5.312.26-.201-.23.231.56.561.27.398.27-.182-.25.218 12.79 14.507.26-.198-.23.231.28.286 2.87 3.296.25-.215-.22.247 11.22 9.784.21-.249-.21.249 1.73 1.44.27.27.46-.467-.3-.297-.22.243.22-.243-1.71-1.429-5.8-7.186 12.09 8.225 5.87 7.515-10.05-6.865-.19.27-.21.249 8.64 7.491.2-.26-.2.26 11.39 7.786.18-.276-.18.276 5.2 3.03.15-.287-.15.287.29.149.71.428.16-.287-.16.287.59.293.15-.292-.15.292.27.134.55.41.19-.261-.14.293.57.288.29-.587-.55-.278-.55-.41-.19.261.14-.293-.57-.286-.15.292.15-.292-.29-.143-.71-.427-.16.287.16-.287-5.43-3.145-5.19-4.673 11.74 6.229.52.392 5.76 5.229-4.52-2.448-.32.571 9.07 5.035.15-.273.11.045-.14.215.86.575.18-.273-.15.294.58.286.14-.292-.14.292.28.14.41.273.18-.273-.15.293 8.64 4.32.13-.299-.13.299 10.37 4.177.12-.304.17-.28-4.85-2.972 12.65 3.855.09-.316-.09.316.54.135 5.71 3.474-1.61-.496-.09.313.09-.313-.99-.285-.44-.145-.1.31.1-.31-.44-.147-.09.314.09-.314-.57-.145-.86-.283-.1.31.1-.31-.41-.136-.26-.133-.15.291.1-.31-.86-.288-.1.31.1-.31-.44-.144-.1.312.1-.312-1-.286-6.04-2.015-.21.62 6.05 2.017.1-.312-.1.312 1.01.29.86.283.1-.31-.1.31.41.136.26.133.15-.291-.1.31 1.3.434.09-.313-.09.313.59.149.84.282.1-.312-.1.312 1.02.289.42.141.1-.312-.1.312 1.44.435.17-.561.11.066-.04.181-.1.31 1.72.575.11-.31.23-.233-.29-.288-.12.117.06-.164-5.71-3.469 13.9 2.905 5.25 3.349-12.09-2.39-.41-.137-.04.129-.06-.02v-.126h-.43v.327l-.11.31 1.3.433.06-.187.13.026-.05.161.87.291.08-.274-.08.274.56.137.54.273.15-.294-.11.311.44.146.1-.312-.1.312 5.2 1.587.08-.318-.08.318 13.98 2.741.05-.324-.05.324 4.02.43.56.139.07-.318v.328h.68l.54.133.08-.317v.327h.55l.84.139.05-.323v.326h.4l.84.141.06-.323v.327h.26l6.48.719.02-.326-.02.326.13.001 2.29.286.03-.286.01.288h.54l.69.137.07-.321v.327h.66l.38.128.11-.311v.327h.81l.38.127.1-.311-.01.328 13.96.287v-.327.327h.29v-.327l.08.318.54-.134h.53v-.327.327l11.08-.144v-.328l.04.324 1.01-.143-.04-.324.14.292.22-.109h.64v-.327l.08.317.54-.133h.39v-.327l.06.321.7-.139h.39v-.327l.07.322.69-.138h.25v-.327l.04.325 11.07-1.438-.04-.325-.03-.325-4.53.472 3.92-1.554 12.19-1.64-4.87 1.865-.67.135h-.83v.327l-.14-.293-.22.109h-.64v.327l-.11-.31-.38.128h-.52v.327l-.08-.318-.54.135h-.53v.327l-.05-.323-1.01.143.05.323-.05-.323-.86.145.1.646.86-.144.98-.139h.55v-.328l.08.318.54-.135h.53v-.327l.11.31.38-.128h.66v-.327l.15.293.22-.109h.78v-.327l.07.321.72-.144-.06-.322.1.31.42-.138 14.21-3.016-.06-.319.23.233.09-.091 1.22-.408-.1-.31.1.31.42-.141.56-.139-.15-.635-.59.147.09.313-.09-.313-.88.291.1.31-.1-.31-.86.288.1.31-.23-.233-.07.078-10.19 2.161 3.21-1.247h.38v-.327l.14.293.26-.128 10.21-2.144-1.38.522.12.306.1.311 18.13-6.042-.11-.31-.09-.313-9.71 3.075 5.05-3.467.53-.131-.09-.315.09.315 12.99-4.165-5.18 3.417-.85.422-.4.131.11.311-.11-.311-1.67.559h-.23v.327l-.15-.293-.29.144.29.587.22-.111h.21v-.327l.1.31.44-.143-.11-.31.11.31 1.72-.575-.1-.31.15.293 15.38-6.614-.14-.297.14.297.29-.15-.14-.291.18.272.41-.272.28-.138-.15-.293.15.293.29-.148-.15-.289.15.289 11.95-6.48-.16-.282.16.282 7.92-5.04-.17-.276-.16-.288-9.96 5.399 5.29-5.286 12.67-7.015-5.6 5.495-.83.55-.72.432.34.561.72-.437-.17-.276.17.276.88-.581-.19-.27.19.27 13.24-9.354-.19-.267.22.243 1.44-1.299-.22-.237.22.237.58-.58.7-.552-.21-.256.24.232 1.11-1.115.23-.118-.14-.294.22.241 11.94-10.933-.22-.241-.22-.246-4.79 4.211 4.96-6.764 9.79-8.53-4.68 6.095.26.2-.29-.149-.13.249-.39.386.23.232-.23-.232-1 1.008-1.14 1 .22.239-.22-.239-.71.707-.56.421.19.261-.23-.231-1.15 1.151.47.462 1.14-1.143.54-.41-.19-.261.23.231.7-.703 1.16-1.015-.22-.239.22.239 1.45-1.446-.23-.231.29.148.13-.251 9.47-10.331-.25-.212.25.212 7.77-9.936-.26-.201.3.144.12-.242.39-.389-.23-.231.27.18.58-.861-.28-.182.3.144.13-.265 8.05-10.921-.28-.179.28.179 7.2-12.241-.28-.165-.27-.196-6.84 9.198 4.23-10.565 7.72-10.214-4.83 11.15-.25.251.47.462.29-.287-.24-.232.3.147 7.62-13.669-.29-.144.29.144 5.33-12.384-.3-.13-.28-.165-5.26 9.038 3.69-12.48 5.41-9.095-3.16 10.74.32.092.3.122 4.9-12.097-.31-.109.31.109 4.03-13.103-.31-.096-.3-.13-3.31 7.678 2.21-11.956-.33-.053.33.053.12-.902.5-.501-.23-.231.3.124 3.02-7.371-1.63 9.204.33.056h-.33v.211l-.11.22.29.145h-.32v.355l-.11.22.29.144-.32-.08-.14.576.25.064-.25-.064-.29 1.145-.14.414.63.207.14-.444-.31-.09.31.09.43-1.699.13-.261-.3-.145h.33v-.356l.11-.219-.29-.145h.32v-.242l2.44-10.19-.32-.069.32.069 2.16-11.66-.32-.061-.32-.082-1.17 4.451.66-11.236.15-1.291 1.82-6.884-.89 11.994-.14.682.32.064h-.33v.399l-.13.537.32.071-.32-.071-.14.708-.14.409.62.21.14-.43-.31-.106.32.064.15-.72.14-.56-.32-.079h.33v-.406l.13-.68-.32-.064.33.024 1.15-15.549-.32-.013.32.013v-.224l.11-.219-.29-.145h.33l.43-13.811-.33.002.33-.002-.58-12.976-.32.031.32-.031-2.3-16.13-.33.05.33-.05-.14-.843v-.402h-.33l.31-.104-.14-.43-.63.207.13.385v.374h.33l-.32.053.13.827-.44 7.353-3.36-13.303v-.513l.56-6.48 2.97 11.14.32-.084.32-.051-1.44-9.366-.32.066.32-.066-3.45-13.493v-.25h-.32l.29-.145-.14-.271-4.88-13.94-.31.115.31-.115-.29-.709-.14-.431-.31.103.29-.145-.14-.287-.59.289.13.257.14.431.31-.113-.31.113.28.699.83 5.792-4.95-10.739-.13-.647-.5-4.589 4.2 8.651.3-.142.3-.109-3.03-8.504-.3.125.3-.125-5.16-10.77-.31.106.29-.144-.14-.29-.3.146.3-.146-.15-.289-.28-.705-.3.133.3-.133-.3-.589-.29.147.23-.231-.11-.109-.11-.236-.29.145.27-.182-.28-.41-.28-.572-.29.157.29-.157-.44-.733-.56.339.43.72.27.551.3-.145-.28.182.28.41.13.273.3-.145-.24.231.11.108.26.518.29.716.3-.135-.3.135.28.564 1.48 4.107-4.03-6.651-.13-.665-.32.063.3-.115-1.71-4.443 2.27 3.567.57-.316-5.04-9.218-.28.168.28-.168-3.44-5.31-.58.312 2.17 4.01-2.91-3.498-.42-.557-3.79-6.695 3.1 3.609.85 1.418.13.264.3-.145-.27.182.27.41.14.273.29-.145-.26.197.43.576.52-.395-.42-.56-.12-.25-.29.144.27-.182-.28-.41-.14-.285-.29.157.29-.157-.88-1.459-.27.178.27-.178-7.78-11.099-.26.201.26-.201-6.04-7.046-.26.197.23-.231-10.35-11.932-.24.224.24-.224-10.67-10.379-.21.245.21-.245-8.35-6.628-.41.512.69.554 9.3 9.046-6.43-2.931-10.39-9.891 6.75 3.261.14-.295.2-.258-12.8-10.068-.4.515 10.43 8.202-6.46-3.131-9.95-7.978 5.89 2.942.14-.293.18-.274-12.67-8.209-.17.284.17-.284-10.1-5.05-.13.3.13-.3-15.96-7.621-.14.296.1-.311-.43-.143-.21.621.4.132 11.95 5.749-7.41-2.049-.09.317.09-.317-.54-.136-11.02-5.504 6.5 1.813.08-.315.11-.309-13.39-4.752-.1.312.1-.312-10.22-2.88-.09.316-.11.308 10.19 3.663-10.14-1.128-12.37-4.476 9.08 1.095.04-.325.08-.319-14.26-3.312-.06.322.06-.322-12.66-1.584-.55-.137-.08.318v-.327h-.99l-15.25-1.727-.02.326.02-.326-14.26-.001v.327-.327l-14.98.146.02.326-.02-.326-13.67 1.724-1.87.145.02.327-.14-.293-.22.109h-.21v.327l-.05-.325-12.67 1.729.06.322-.06-.322-13.79 3.303h-.25v.328l-.1-.311-.43.145-2.01.574.1.311-.1-.311-1.73.577.2.62.44-.143-.11-.31.11.31 1.29-.432 2.01-.574-.1-.312.1.312.39-.129h.23v-.327l.04.325L165 8.136l-12.15 4.442h-.37v.327l-.04-.325-9.42 1.205 9.14-3.305-.11-.308-.1-.314-8.78 2.591.1.311-.1-.311-13.65 4.888-1.58.431.08.316-.14-.293-16.11 8.055.14.294-.18-.273-.43.288.36.545.41-.273 2.26-1.132 7.59-2.232-11.86 7.663-.53.132.08.316-.08-.316-7.97 2.277 9.94-6.42-.32-.575-9.79 5.328.16.281-.16-.281-9.93 6.472-.28.141.16.285-.16-.285-2.76 1.746.19.266-.19-.266-10.92 8.759-.26.132.15.294-.21-.25-2.74 2.302.21.249-.21-.249-7.92 6.914.22.239-.22-.239-7.06 6.912.23.232-.23-.232L56 68.355l.24.221-.24-.221-7.35 8.788.26.208-.26-.208-3.01 3.723-.28.28.24.232-.3-.149-.13.272-.27.399-.4.397.46.462.43-.43-.22-.231.27.18.29-.448-.28-.165.28.165.14-.258.26-.264-.25-.218.25.218 3.01-3.726 3.39-2.746-7.05 9.796-.37.372-3.58 2.806L45 82.868l-.53-.391-7.63 10.214.27.195.24.224.14-.151-.14.246-.51-.372-.41.562-.27.266.23.233-.27-.19-2.88 4.043.27.173-.27-.173-4.9 8.778.28.171-.28-.171-1.16 2.031.29.153-.29-.153-.14.296.58.29.14-.272 1.14-2 .27-.409 2.65-3.269-2.48 5.354-3.11 4.573 1.41-3.865-.31-.112-.29-.162-5.18 9.063.29.161-.31-.123-6.75 16.399.3.123-.3-.123-2.45 6.189.3.12h-.32v.348l-.12.222.59.297.15-.288-.3-.148h.33v-.367l2.42-6.13 2.23-4.972-.55 4.034-.12.242.3.145-.33-.045-.13.954-4.49 10.274.52-3.656-.32-.047-.31-.101-4.18 12.675.32.085-.32-.085-1.15 5.338.32.069h-.33v.493l-.11.222.29.148H7v.382l-.13.554.23.051-.23-.051-.14.686-.14.433.13.044-.02.059h-.13v.387l-.71 2.989.32.076.3.118.18-.44.34 6.668v1.104l-2.87 13.683-.35-6.159 1.28-8.147-.32-.065.32.065.15-.721.13-.545.14-.42-.3-.105.32.064 1-4.89-.64-.131-.72 3.452.32.065-.32-.065-.28 1.421-.14.422.31.092-.31-.092-.15.596.32.072-.32-.072-.29 1.454.32.058-.32-.058-1.16 7.495.33.043-.33-.043-1.72 15.127.32.019-.32-.019-.01 21.318.33-.008-.33.008.29 6.623.33-.015-.29.144.11.221v.227l.32-.015-.32.015 1.44 14.544.32-.032-.32.074 2.15 9.318v.247h.33l-.3.148z"
        style="fill:#c6c6c6;fill-rule:nonzero" />
    <g stroke="red" stroke-width="2" fill="none">
        <line x1="215.34" y1="427.67" x2="215.34" y2="215" />
        <line x1="31.16" y1="108.66" x2="215.34" y2="215" />
        <line x1="399.52" y1="108.66" x2="215.34" y2="215" />
        <circle cx="215.34" cy="215" r="212.67" />
        <polyline
            points="236.7,202.1 246.4,218.9 250.4,239.4 255.7,257.9 257.9,277.0 258.2,299.4 261.2,318.8 261.8,337.7 261.7,355.2 260.2,384.4 256.5,407.6" />
    </g>
</svg>