<svg xmlns="http://www.w3.org/2000/svg" xml:space="preserve"
    style="fill-rule:evenodd;clip-rule:evenodd;stroke-linejoin:round;stroke-miterlimit:2"
    viewBox="0 0 421 420">
    <path
        d="M250.967 8.302c.047 0 .087-.02.133-.02 2.917.96 3.709-2.56 1.495-3.14l-.078-.03c-.051-.01-.098.01-.149 0-4.183-1.71-5.202 3.19-1.401 3.19M242.906 4.622c.084.44.317.8.681 1.06 2.117 1.53 4.002-.38 3.139-1.97-.887-1.65-4.256-1.38-3.82.91M224.347.292c-.066-.02-.119-.06-.188-.07-.049-.01-.094.01-.143.01-.049-.01-.091-.03-.14-.03-.039 0-.109.02-.109.02s-.07-.02-.108-.02c-.067 0-.123.03-.188.03-.385.05-.253-.07-.639-.02-1.018.1-1.571 1-1.529 1.8.075 1.38.957 1.52 2.23 1.61.949.07.581.12 1.221.2.07.01.132.04.205.04.796-.2 1.94-.16 1.94-1.72 0-1.9-2.166-1.74-2.552-1.85M173.316 6.472c.147 1.15 1.523 1.77 2.07 1.46 1.101-.31.934-.17 1.118-.22.045-.01.077-.04.121-.06.106-.03.169 0 .245 0 .943-.08 1.683-.97 1.56-1.94-.161-1.26-1.135-1.14-1.07-1.53-.127-.93-1.095-1.67-2.081-1.45-.388.09-.349.27-1.02.23-3.074.76-2.43 3.05-.943 3.51M150.476 12.162a1.698 1.698 0 0 0 1.11-2.45c-.807-1.59-2.972-1.01-3.207.51-.516.1-.466.12-.852.3a1.6 1.6 0 0 0-.82.15l-.08.07-.218.02c-.063.01-.104.07-.347.12-.302.06-.195-.04-.647.28-.099.06-.379.03-.461.09-.069 0-.083.04-.142.07-2.114.5-2.017 2.71-.626 3.34.12.05.224.01.11.05-.748.55-1.294.86-1.079 1.95.232 1.18 1.408 1.56 2.235 1.33 2.035-.58 1.945-2.65.627-3.31-.465-.23-.345.06.43-.43.387-.13 3.184-.35 3.801-1.61.191-.38.104-.49.166-.48M204.791 5.412c1.878-.92.872-4.16-2.148-3.16-.742.25-1.32 1.02-1.143 1.94.314 1.63 2.502 1.6 3.291 1.22M228.669 6.782s.045-.01.083.01c2.957 0 2.88-2.77 1.189-3.34-3.212-1.07-3.86 3.21-1.272 3.33M207.272 7.562c-2.403-.77-3.565 2.39-1.48 3.21 2.508 1.02 3.743-2.48 1.48-3.21"
        style="fill:#c6c6c6;fill-rule:nonzero" />
    <path
        d="M200.019 3.482c.647-.16 1.681-.1 2.007-1.34.198-.75-.209-1.84-1.228-2.1-.491-.13-1.061.08-1.187.08-.85-.01-1.629.24-2.039.98-.648 1.16.11 2.97 2.447 2.38M175.793 11.982c.573.22.626.01 1.012.11.82-.03 1.782-.78 1.611-1.96-.152-1.08-.832-1.41-1.924-1.46-1.534-.08-2.834 2.13-.699 3.31M277.304 10.912l-.22-.05c-.036-.02-.058-.06-.097-.08-.038-.02-.08-.01-.118-.03s-.06-.06-.098-.08-.081-.01-.12-.03c-.036-.02-.059-.06-.097-.07l-.069-.02-.062-.04c-.084-.04-.171-.03-.257-.05-.665-.43-.295-.07-.804-.33-.52-.26-.633-.26-1.163-.27-.711-.39-.606-.27-.79-.3-1.288-.17-2.745-1.12-3.896-.18-.485.39-.58.78-.619 1.14-.15 1.4 1.082 1.94 2.489 2.08 1.156.45 1.681.17 2.593.67l.062.05c.058.03.121.03.182.05 1.82.68 1.48.72 2.38.93 0 0 .195.13.264.16.052.04.272.05.338.06 1.923.37 3.669-2.43.102-3.61M220.406 20.622c2.054 1.22 3.967-1.72 1.968-2.93-2.034-1.24-3.997 1.73-1.968 2.93M196.412 17.202c-.257-2.04-3.302-2.02-3.4.15l-.006.14.031.14c.107.84.663 1.43 1.759 1.5 1.19-.15 1.734-1.03 1.616-1.93M167.8 18.592c-.04-.13-.005-.16-.031-.25-.188-.65-.908-1.36-1.928-1.19-1.33.22-1.792 1.69-1.182 2.69.709 1.14 2.558 1.19 3.13-.51.015-.16.078-.61.011-.74M235.449 10.952c-.851-2.23-4.168-1.01-3.31 1.15 1.308 2.38 4.015.71 3.31-1.15M282.461 18.052c1.73-.07 2.689-2.8-.163-3.57-3.578-.97-3.652 3.72.163 3.57M252.832 22.442c.499.07.258.28 1.627.03 1.425-.9 1.218-2.4.277-3.02-1.585-1.05-4.322.81-1.904 2.99M257.82 10.372c-2.182-.63-3.158 2.37-1.255 3.2 2.264.98 3.63-2.54 1.255-3.2M138.981 23.562c-.753-1.74-3.835-1.15-3.72.89.143 2.76 4.783 1.57 3.72-.89M157 31.242c-.131-1.3-1.369-2.2-2.779-1.28-3.003 1.95 2.327 5.21 2.779 1.28M130.073 18.342c-.348-2.19-3.651-1.67-3.985.19-.013.07.018.11-.261-.06-1.489-.92-3.1.69-2.445 2.14.669 1.5 3.018 1.28 3.241-.49 1.083.95 3.748.03 3.45-1.78M273.884 21.822c.137 1.25 1.471 1.82 2.357 1.58 1.592-.44 1.664-2.67.172-3.25-1.11-.64-2.695.15-2.529 1.67M206.969 33.822c1.483-.29 1.942-2.21.61-3.08-1.971-1.31-4.049 1.26-2.391 2.71.454.4 1.494.52 1.781.37M241.323 30.952c1.51 0 2.103-1.76 1.419-2.7-2.695-2.88-5.13 2.7-1.419 2.7M182.299 28.982c-1.903-1.2-3.61 1.63-1.96 2.91 1.913 1.49 4.017-1.63 1.96-2.91M120.03 24.452c.113-.06.386-.37.532-.4 2.384-.56 1.187-4.23-1.091-3.21-.042.02-.085.01-.118.05-.059.01-.137.11-.187.15-.477.35-1.239.26-1.657 1.22-.733 1.66 1.225 2.91 2.521 2.19M111.232 33.922c.058-.38-.025-.77-.082-.86l-.055-.09c-.022-.05-.022-.1-.049-.15-.155-.14-.121-.19-.204-.28-.295-.34-.671-.5-1.04-.55-.048-.01-.092-.03-.141-.04-.056 0-.108.02-.163.02-.063 0-.123-.01-.186 0-.061.01-.114.04-.173.05-.047.01-.098 0-.144.02l-.065.04c-.666.26-.447.34-.777.58-1.769 2.45 2.671 3.98 3.079 1.26M294.382 20.212a1.672 1.672 0 0 0 2.569 1.13c1.213-.76.95-2.48-.215-2.99-1.159-.51-2.614.45-2.354 1.86M302.963 24.642c.174.72.804 1.22 1.085 1.23 0 0 .134.01.235.06.576.34.215.03.836.36 1.525.81 1.552 1.16 2.57.93 1.16-.26 2.538-2.16-.448-3.72-.054-.03-.092-.07-.15-.1-.107-.04-.246 0-.433-.15-.407-.33-.488-.23-1.072-.47-1.774-.74-2.932.58-2.623 1.86M296.208 26.112c.534 2.51 4.777 1.4 3.535-1.03-.841-1.64-4.02-1.24-3.535 1.03M262.144 45.292c2.404 1.6 4.577-2.04 1.505-3.07-1.856-.62-3.148 1.97-1.505 3.07M277.759 35.202c-.517-2.03-3.791-1.77-3.557.48.239 2.38 4.211 2.06 3.557-.48M328.594 39.052c2.237-1.64-1.105-4.55-2.677-2.51-.561.42-.507 1.93.451 2.51.618.37 1.589.47 2.226 0M319.499 35.762c1.618 1.06 3.72-1.09 2.041-2.77-.03-.03-.071-.04-.103-.06-.097-.07-1.536-1.02-1.536-1.02l-.095-.02c-.184-.06-.249-.14-.307-.16-.625-.23-1.435-.05-1.921.56-1.269 1.6.34 2.44 1.921 3.47M313.009 39.512c.382 2.04 3.789 2.41 3.829.04.019-1.06-1.291-2.03-1.698-2.01-1.413-.27-2.347.81-2.131 1.97M131.188 35.112c-.301-2.73-4.647-1.31-3.458 1.07.885 1.77 3.655.8 3.458-1.07M142.684 48.732c.362 1.39 2.334 1.81 3.128.42.715-1.24-.187-2.72-1.532-2.67-1.082.04-1.907 1.03-1.596 2.25M107.346 42.102c-.018-1.28-1.312-2.01-2.389-1.53l-.184.03c-.885.3-1.549 1.1-1.333 2.1.485 2.23 3.934 1.41 3.906-.6M89.007 41.692c-.026-.06-.027-.13-.061-.19-.024-.04-.064-.07-.091-.11l-.066-.12s-.119-.1-.156-.14c-.757-.74-1.792-.59-2.396.02-.831.84-2.078 1.07-1.886 2.51-1.043-.39-2.128.42-2.85 1.26-.04.05-.222.11-.295.16 0 0-.198.21-.233.23-1.114.62-1.292 2-.493 2.8.058.06.133.08.197.13.219.17.11.17.594.29.451.12.218-.02.229.46.033 1.49 1.881 2.23 2.934 1.18.2-.37.224-.22.542-.54.086-.09-.02-.08.249-.18 1.268-.48 1.567-2.2.351-3.01-.537-.36-.479.02-.255-.5.075-.18.133-.44.137-.64.012-.55.155.01 1.019-.22.153-.04.61-.28.726-.39.064-.06.095-.14.148-.21.086-.1.51-.28.625-.36.064-.05.202-.24.202-.24.757-.36 1.224-1.23.829-2.19M112.685 29.112c1.465 1.03 2.018-.36 3.079-.54 2.16-.78.932-4.08-1.227-3.2l-.076.02c-.052.02-.085.07-.134.1-2.156.27-3.165 2.56-1.642 3.62M96.856 36.892c.305 0 .727-.13 1.076-.33 2.339-.91.455-4.82-2.137-2.68-.633.53-.067.37-.77.5-3.155.62-.375 5.37 1.831 2.51M297.532 36.442c.264-1.61-1.802-2.64-3.019-1.77a1.695 1.695 0 0 0-.121 2.67c1.209 1.05 2.921.46 3.14-.9M75.146 53.122c-.136-1.43-1.806-1.96-2.778-1.15-.775.64-.832 1.93.025 2.62 1.132.92 2.91.11 2.753-1.47M64.524 64.692c-.164-1.49-2.037-2.1-3.011-.85-.165.21-.132.04-.405-.05-.707-.23-1.465.08-1.822.48-.312.68-.347.4-.678.79-.041.05-.8.96-.848 1-.046.04-.103.05-.145.09-.042.05-.058.1-.095.15-.037.04-.088.07-.121.12-.637.95-.718.53-1.023 1.27-.826 2 1.898 3.45 3.02 1.67.302-.47.388-.3.654-.71.909-1.36 1.393.12 2.524-1.06.049-.06.269-.41.323-.46 1.205-1.08 1.747-1.36 1.627-2.44M165.274 49.582c.786 1.97 3.54 1.25 3.54-.63 0-2.74-4.554-1.91-3.54.63M103.641 53.552c.569-2.55-3.488-2.86-3.699-.41-.199 2.34 3.255 2.4 3.699.41M81.798 55.072c-2.076 0-2.458 2.24-1.209 3.16 2.414 1.76 4.053-2.81 1.209-3.16M133.806 67.522c-1.7.12-2.059 2.26-.96 3.14a1.71 1.71 0 0 0 2.364-.2c1.196-1.34-.333-3.38-1.404-2.94M191.192 51.122c-.41-1.58-2.543-1.64-3.3-.55-.545.78-.317 1.75.328 2.29 1.297 1.08 3.421.01 2.972-1.74M225.027 43.482c.826.62 2.251.42 2.794-.43.681-1.06.03-2.93-2.036-2.6-1.475.22-1.968 2.13-.758 3.03M100.962 66.442c-.063-1.7-2.261-2.27-3.16-.85a1.8 1.8 0 0 0-.213 1.34c.179 1.81 3.469 2.02 3.373-.49M123.894 50.312a1.692 1.692 0 0 0-1.914-2.37c-.703.15-.586.34-.971.55-1.776 2.44 1.831 4.16 2.885 1.82M363.526 70.852c1.58 1.43 3.387.04 2.997-1.51-.165-.87-.28-.56-.77-1.3-.033-.05-.084-.07-.121-.12-.037-.04-.053-.1-.094-.14-.044-.04-.1-.06-.146-.1-.183-.15-.259-.3-.288-.33-.057-.06-.131-.08-.193-.13-.276-.21-.891-.94-.933-.98-.432-.41-.433-.12-.772-.6-.169-.24-.034-.18-.488-.46-.146-.09-.448-.58-.616-.7-.062-.05-.136-.06-.202-.1-.055-.09-.4-.36-.74-.47-.16-.05-.371-1.34-1.772-1.28-.776-.03-.93.31-1.315.54-.129.13-.09.32-.243.05-.029-.03-.149-.1-.19-.13-.059-.04-.099-.1-.165-.14-.311-.18-.107-.04-.27-.24-.576-.71-1.745-.8-2.424-.25-.684.55-.809 1.75-.439 2.13.386.74.69.83 1.076 1.16.863.72 2.116.43 2.562-.29.115-.15.047.35 1.023.54.11.38.334.74.797 1l.05.07c2.119 2.12.771.2 3.676 3.78M352.813 60.582c.667.41.206.37.954.85 1.551.98 3.351-.86 2.297-2.39-.504-.73-.707-.49-.989-.88a3 3 0 0 0-.374-.46c-.232-.23-.515-.25-.712-.52-.439-.62-.917-.79-.978-.87-.055-.08-.085-.17-.152-.23l-.056-.04-.041-.05c-.035-.03-.078-.04-.114-.07-.043-.05-.064-.12-.114-.17-.221-.22-.193-.04-.396-.32-.053-.07-.081-.16-.146-.22l-.066-.04-.049-.07c-.071-.05-.156-.07-.232-.12-.06-.04-.111-.09-.173-.12-.048-.06-.072-.13-.131-.19l-.065-.04-.05-.07c-.03-.02-.068-.03-.099-.05-.177-.4-.511-.3-.714-.58-.361-.51-.709-.74-1.058-.85-.026-.04-.033-.09-.061-.12l-.07-.06-.05-.07c-.03-.03-.07-.04-.102-.07-.088-.08-.048-.1-.212-.24-.147-.13-.431-.16-.603-.48-.026-.05-.029-.1-.06-.14-.105-.16-.081-.01-.215-.27-1.071-.74-.371-.71-1.616-1.36-.152-.08-.326-.47-.443-.59l-.765-.51c-.218-.44-1.672-1.67-1.922-1.78-.048-.07-.072-.14-.131-.2l-.065-.04-.05-.06c-.046-.04-.104-.05-.154-.09-.183-.36-.3-.34-.501-.47-.386-.23-.716-.89-1.362-1.14-.141-.05-.411-.53-.528-.64-.055-.03-.482-.31-.591-.35-.269-.1-.098.03-.243-.25-.192-.37-.598-.72-.997-.84-2.217-3.14-5.624 1.18-2.216 2.48.221.12.247.05.383.22.056.06.087.15.154.21.102.09.585.35.754.39.207.56.657.92 1.093 1.05.306.39.06.25.695.88.076.08.551.35.606.42.121.17.164.33.415.42.213.38.33.37.519.48.058.03.11.08.171.11.048.07.073.14.131.2.226.23.215.08.405.34.464.62.183.14.679.63l.08.06.062.07c.093.08.251.1.329.2.149.29.243.44.55.65.076.05.122.03.205.09.044.04.071.09.12.13.05.03.108.03.16.06.18.1.301.44.444.59.042.04.097.05.142.09s.072.09.121.12c.133.09.188.01.324.23.152.42.445.74.764.92.031.03.036.01.074.03.032.03.046.08.081.11 0 0 .002-.01.134.09.059.04.271.14.311.15.452.72.787.62 1.614 1.49.082.07.419.2.509.33.054.07.085.16.153.23l.056.04.041.05c.034.03.078.04.114.06.043.06.063.12.114.17l.065.05.05.06c.071.06.157.08.234.13.058.03.109.08.17.11.048.06.073.14.131.2l.066.04.05.06c.064.06.142.07.212.12.291.46.142.25.41.45.047.06.072.14.129.19l.056.04.041.05c.073.07.162.09.242.14s.149.12.235.15c.485.72.829.62 1.113 1.02.206.28.149.33.704.67M316.892 54.262c-2.173-1.38-3.861 1.32-2.068 2.74 2.279 1.81 4.202-1.77 2.068-2.74M329.407 56.992c.223.82 1.142 1.62 2.143 1.45 1.348-.23 1.782-1.76 1.119-2.69-1.326-1.85-3.774-.6-3.262 1.24M301.401 56.142c-.378-2.21-3.782-1.69-3.468.53.363 2.54 4.206 1.33 3.468-.53M288.062 64.532c1.086-2.28-3.274-4.02-3.564-1.12-.236 2.3 3.331 2.6 3.564 1.12M210.991 59.902c-.22-.83-1.016-1.29-1.636-1.29-.088.02-.235.01-.326 0-1.022 0-1.742.96-1.711 1.77-.099 2.66 4.372 2.16 3.673-.48M246.244 56.152c.23 1.45 2.037 2.04 3.016 1.06.925-.92.482-2.64-.919-2.98-1.23-.31-2.282.73-2.097 1.92M66.108 60.582a1.7 1.7 0 0 0-1.497-1.2c-1.556-.14-2.534 1.88-1.296 2.99 1.298 1.17 3.291-.2 2.793-1.79M71.028 57.652c1.099-1.49-.58-3.97-3.017-1.86-.031.03-.072.04-.102.07-.036.04-.074.14-.183.23-.082.07-.128.05-.204.1-.05.03-.077.08-.122.12-.762.62-.576.34-.887.82-1.121 1.74 1.25 3.64 2.858 2.03 0 0 .12-.18.182-.23.082-.06.129-.04.205-.09.036-.03.485-.47.485-.47.56-.49.242.02.785-.72M343.287 60.472c1.767 2.07 4.229.02 3.075-1.74-.033-.05-.085-.07-.123-.12s-.055-.11-.099-.15c-.128-.09-.239-.15-.325-.32-1.519-1.52-3.935.68-2.528 2.33M172.127 75.962c-2.021-1.1-3.693 1.97-1.83 3.15 1.949 1.24 4.012-1.97 1.83-3.15M292.3 95.842c.588.33 1.573.32 2.162-.43 1.031-1.3-.28-3.18-1.818-2.84-.779.17-1.537 1.04-1.313 2.05.025.11.078.08.111.33.385.39.106.48.858.89M269.283 74.542c1.881 2.23 4.666-1.32 2.063-2.62-.663-.33-1.378-.16-1.763.12-1.017.72-.727 2.22-.3 2.5M251.96 87.432l.62.26c1.217.25 2.464-.95 1.908-2.31-.746-1.84-3.492-1.11-3.283.82.1.46.244.88.755 1.23"
        style="fill:#c6c6c6;fill-rule:nonzero" />
    <path
        d="M333.609 46.692c1.467-.96.785-2.96-1.109-3.5a1.67 1.67 0 0 0-1.634.4c-1.74 1.62 1.019 4.23 2.743 3.1M61.027 75.362c1.058-.14.9-.65 1.479-1.11.748-.6.879-1.73.2-2.49-1.495-1.68-3.827.75-3.629 2.14.13.9 1.055 1.59 1.95 1.46M64.003 84.172c-.003-.04.019-.08.002-.12.008-.04-.038-.11-.049-.16-.405-1.75-2.861-1.73-3.313-.07-.736 2.67 3.543 3.16 3.36.35M98.068 84.352c-.919-.25-1.943.37-2.115 1.37-.407 2.37 2.589 3.02 3.291 1.09.329-.45.109-2.12-1.176-2.46M83.677 81.502c-.353-1.49-2.295-1.8-3.098-.5-.297.49-.207.47-.231.62-.474 2.9 3.99 2.62 3.329-.12M117.331 66.052c-1.573-2.19-4.516.87-2.411 2.46 1.65 1.25 3.516-.93 2.411-2.46M362.994 78.302c1.299 1.95 4.08-.1 2.867-1.91-.064-.1-.102-.01-.433-.65a1.718 1.718 0 0 0-2.545-.32c-1.041.9-.586 1.83.111 2.88M357.863 76.542c-.462-2.99-4.731-2.09-3.447.75.956 2.1 3.761 1.26 3.447-.75M152.55 71.102c-1.776.02-2.393 2.52-.636 3.25 1.102.47 2.132-.29 2.328-1.18.258-1.15-.662-2.09-1.692-2.07M136.057 99.392c-.265-1.62-2.507-1.96-3.234-.49-1.584 3.2 3.749 3.65 3.234.49M116.299 90.752c-1.343-.84-2.897.23-2.697 1.67.13.95 1.048 1.55 1.808 1.49 1.572 0 2.425-2.2.889-3.16M347.99 77.312c-.03-.04-.03-.05-.045-.09-1.019-2.99-4.806-1.24-3.287 1.23 1.168 1.91 3.898.89 3.332-1.14M335.87 78.382c-.873-.55-2.137-.14-2.506.87-.752 2.03 2.08 3.16 3.073 1.45.466-.48.254-1.79-.567-2.32M375.635 85.212c.143 1.47 1.788 1.91 2.723 1.19.865-.65.847-1.9.197-2.57-1.053-1.08-3.095-.35-2.92 1.38M374.115 79.702a1.82 1.82 0 0 0-.635-1.03c-.857-.64-.584-1.15-1.665-1.45-.65-.18-1.337.08-1.684.44-.987 1-.335 1.83.124 2.55.023.04.028.08.055.12.04.05.097.08.141.12.098.13.097.19.184.31 1.319 1.76 3.898.93 3.48-1.06M49.361 79.962c.203-2.64-4.026-2.24-3.332.32-.216.07-.299.04-1.202.94-.279.54-.95.6-1.265 1.54-.309.24-.595.53-.708 1.02-.308.56-.414-.09-.779 1.33-.343 1.64 2.025 2.77 3.101 1.25.506-.72-.121-.28.585-1.03.142-.15.228-.15.384-.63.071-.05 1.087-.88 1.119-.99.534-.8 1.31-1 .958-2.27a1.65 1.65 0 0 0 1.139-1.48M320.807 83.302c-.047.52.69 1.6 1.527 1.79 1.719.38 2.903-1.69 1.374-3.22-1.025-1.03-3.125-.37-2.901 1.43M79.119 67.972c-.087 2.37 3.623 2.32 3.53-.01-.09-2.23-3.466-2.16-3.53.01M231.458 70.452c-1.852-1.09-3.623 1.6-1.856 2.86 1.939 1.39 3.889-1.69 1.856-2.86M213.518 91.702c.169-1.08-.723-2.27-2.265-1.92-1.545.37-1.858 2.47-.448 3.24 1.174.66 2.542-.23 2.713-1.32M191.199 81.982c-1.96-.58-3.265 2.48-.968 3.3 2.046.59 3.23-2.51.968-3.3M82.827 106.392c-.448-2.34-3.861-1.49-3.343.8.49 2.2 3.794 1.53 3.343-.8M44.359 88.982c-1.874-.17-3.371 2.8-1.597 3.89 1.432.9 1.959-.26 2.675-1 .888-.91.498-2.74-1.078-2.89M151.829 108.742c-.037 2.42 3.656 2.12 3.656-.08 0-2.35-3.611-2.25-3.656.08M119.472 130.132c1.074-1.79-1.431-3.71-2.91-1.82-1.495 1.88 1.57 4.06 2.91 1.82M386.375 94.972c-.191-.17.012-.05-.636-.95-1.781-2.49-3.995-.39-3.287 1.32.217.52.355.41.549.74 1.869 3.22 4.4.55 3.374-1.11M376.513 93.412c1.378 2.28 3.849.75 3.315-1.05-.95-3.24-4.848-1.46-3.315 1.05M304.005 121.442c.266 2.22 3.654 1.83 3.375-.42-.268-2.23-3.659-1.88-3.375.42M310.597 87.582c-.525-2.28-3.808-1.4-3.307.77.516 2.24 3.808 1.39 3.307-.77M276.455 103.692c1.774-1.49-.498-3.84-2.146-2.92-2.259 1.23.216 4.57 2.146 2.92M365.918 101.552c.297-.23.485-1.38.088-2.02-.394-.65-1.281-1-2.044-.73-2.601.92-.316 5.12 1.956 2.75M373.827 94.722c-.8-2.1-4.234-1.06-3.043 1.62.028.07.02.13.072.18.024.1.099.13.13.17.589.77 1.146 1.33 2.252.84 1.837-.81.737-2.42.589-2.81M100.429 117.082c.071-.25-.253-1.06-.763-1.4-.867-.58-2.012-.18-2.521.62-.075-.01-.327.9-.199 1.37.539 1.95 3.521 1.47 3.483-.59M51.29 115.642c.223 1.44 2.015 1.94 2.963.9.866-1.19.219-2.44-.524-2.68-1.204-.59-2.656.34-2.439 1.78M48.305 101.162c-.022-1.16-1.301-2.03-2.39-1.56-.81.35-1.69 1.54-1.229 2.67.826 2.03 3.647.79 3.619-1.11M356.048 106.062c-.303-.37-.421-.7-.832-.94-1.407-.83-3.176.71-2.408 2.25 1.524 3.01 4.521-.07 3.24-1.31M342.653 112.492c-2.364.29-1.68 4.22.696 3.68 2.233-.51 1.394-3.93-.696-3.68M379.16 126.552c.571.19 1.25.08 1.744-.33 1.467-1.22.056-3.49-1.585-3.22-1.863.3-1.841 2.98-.159 3.55M397.446 125.462c-.003.08.041.09.067.16.766 2.05 4.387 1.17 2.92-2.05-.306-.68-1.242-1.3-2.243-.85-.8.36-1.231.9-.744 2.74M388.512 110.122c1.358 1.53 3.822-.22 2.754-2.02-.042-.07-.14-.1-.116-.21-1.109-3.03-5.082-.5-2.638 2.23M30.207 103.432c.727 1.1 2.372.97 2.952-.15.424-.81.139-1.99-.947-2.39-1.606-.58-2.882 1.23-2.005 2.54M28.55 109.682a1.69 1.69 0 0 0 2.159 1.27c1.1-.32 1.113-1.29 1.665-1.93 1.506-1.72-1.083-3.94-2.565-2.24-.34.39-.684.53-.827 1.21-.08.38-.632.78-.432 1.69M257.664 111.862c-.045-1.44-1.637-1.98-2.663-1.49-1.037.49-1.227 1.71-.658 2.51.952 1.38 3.386.76 3.321-1.02M235.302 100.642c-.517-2.68-4.622-1.01-3.092 1.27 1.038 1.56 3.433.54 3.092-1.27M385.459 117.282c1.54.91 3.319-.88 2.275-2.42-.325-1.02-1.524-1.46-2.404-1.02-1.43.72-1.033 2.76.129 3.44M166.397 143.912c-.378-2.22-3.303-1.83-3.402.04-.016.03.004.04.002.08-.104 2.56 3.689 2.47 3.4-.12M368.737 136.062c.912 1.37 2.254 1.31 2.979.58.93-.93.445-2.49-.842-3.08-1.592-.72-3.058 1.11-2.137 2.5M281.364 126.182c-.034.04-.135.12-.148.18-.031.03-.018.05-.037.09-1.199 2.48 3.148 3.58 3.346.86.142-1.83-2.179-2.44-3.161-1.13M34.462 116.662c-1.664-.83-3.419 1.46-2.552 2.94.537.91 1.816 1.22 2.783.25.888-.89 1.016-2.57-.231-3.19M18.929 123.382c-.842.84-.61 2.58.892 2.87.096.02.19.06.286.06 1.853-.36 1.42-1.08 2.007-1.94 1.369-2.02-2.264-4.38-3.185-.99M175.598 113.142c.633 2.31 3.281 1.64 3.474-.17.288-2.55-3.885-2.53-3.474.17M395.581 136.512c1.104 2.71 4.558 1.1 2.979-1.8-.951-1.75-4.054-.77-2.979 1.8M201.346 118.522c0 1.8 2.375 2.26 3.303 1.05l.3-.6c.021-.08.008-.16.018-.24.009-.07.042-.13.042-.21l-.021-.1c-.002-.04.011-.08.005-.12-.28-2.15-3.647-1.88-3.647.22M259.386 134.722c.064-2.12-3.143-2.44-3.406-.26-.294 2.37 3.335 2.61 3.406.26M228.486 151.942c-.415-2.49-4.24-1.41-3.247.94.763 1.82 3.59 1.1 3.247-.94M228.699 125.582l-.029.08.012.2c-.023 1.09.837 1.71 1.66 1.73 1.044.02 1.812-1.02 1.743-1.47l-.012-.19c.003-.14.032-.09.011-.24-.017-1.81-3.01-2.12-3.385-.11M194.769 145.742c-.386-.12-1.304.19-1.684.96-.518 1.05.115 2.43 1.596 2.47 2.548.08 2.666-3.37.088-3.43M68.205 98.242c-.333-2.42-4.134-1.67-3.44.72.425 1.45 2.521 1.68 3.263.36.239-.43.223-.75.177-1.08M66.948 126.232c-2.451.4-2.244 3.18-.389 3.51 2.191.38 3.21-3.17.389-3.51M21.75 130.272c.197-2.36-3.342-2.46-3.429-.21-1.943 2.38 1.802 4.18 2.747 1.91.317-.75.707-.96.682-1.7M25.208 138.052c-1.163-3-5.292.61-2.676 2.45 1.609 1.13 3.302-.86 2.676-2.45M404.769 130.062c-.904-3.99-4.544-2.85-3.614-.05 1.409 4.21 4.534 2.05 3.614.05M404.126 139.682c.096.13.109.31.109.31.233.56.401.38.459.9-.337.8.693 1.62.768 2 .175.95.98 1.41 1.675 1.4 1.179 0-.597-.26-.272 1.71.402 2.51 2.967 3.03 3.599 1.12.313-.94-.344-3.18-1.884-3.22-1.352-.04.553.41.169-1.89-.071-.15-.063-.16-.063-.16-.037-.08-.104-.13-.152-.2-.278-.42-.09-.41-.243-.79-.496-.61-.073-.82-.712-1.45-.057-.06.011-.48-.239-.97-.018-.03-.018-.07-.039-.11-.024-.04-.065-.06-.092-.1-.037-.05-.065-.1-.107-.15-1.242-3.36-4.898-1.03-2.976 1.6M9.365 148.912c-1.123 1.02-.512 2.65.758 2.94 1.131.25 2.263-.68 2.073-1.94.511-.47.682-.99.825-1.66.654-3.06-4.151-2.49-3.656.66M392.23 147.702c-1.885-1.04-3.66 1.72-1.659 3.04 1.995 1.3 3.838-1.86 1.659-3.04M396.902 112.232c-1.447-3.51-4.981-1.85-3.114 1.86l.09.2.016.11.026.05.01.06c.836 2.08 4.363 1.09 2.972-2.28M10.01 153.332c-.333.6-.569 1.8-.571 1.88-.053.17-.134.2-.187.44-.506 2.29 3.075 2.98 3.368.58.061-.1.113-.16.166-.32 0 0 .013-.13.047-.22 1.104-2.65-1.653-3.86-2.823-2.36M138.798 140.562c-1.25-.73-2.652.29-2.575 1.68.063 1.13 1.127 1.76 2.076 1.56 1.667-.37 1.771-2.5.499-3.24M44.083 166.812c-.996-2.75-4.314-1.17-3.318 1.42.406 1.05 1.809 1.53 2.764.63.617-.58.805-1.7.554-2.05M53.555 149.842c.512 1.24 2.13 1.42 2.933.41.881-1.12.121-3.03-1.516-2.86-.825-.13-1.918 1.21-1.417 2.45M33.523 149.392a1.714 1.714 0 0 0-2.126-1.32c-.7.19-.746.52-1.051.82-1.644 2.9 3.795 3.58 3.177.5M33.13 186.732c.1-.4-.466-1.21-.86-1.43-1.453-.84-3.206.75-2.372 2.38.864 1.7 3.476.84 3.232-.95M25.112 168.322c.029-1.2-.91-2.05-2.042-1.83-1.428.29-1.675 2.05-1.234 2.6.755 1.64 3.334 1.13 3.276-.77M86.203 142.632c-.376-2.33-3.92-1.6-3.348.69.517 2.09 3.707 1.49 3.348-.69M357.306 146.972c.244 2.39 3.745 1.78 3.404-.41-.342-2.38-3.817-1.53-3.404.41M314.926 149.892c-.006 1.97 2.638 2.46 3.315.65 1.012-2.71-3.415-3.33-3.315-.65M324.16 116.672c-.267 1.33 1.164 2.59 2.48 2.02.385-.05 1.098-1.06.975-1.1.021-.08.007-.15.017-.23.358-2.44-3.164-3.03-3.472-.69M348.851 178.102c.344 2.89 4.45 1.46 3.229-.96-.794-1.57-3.34-1.1-3.229.96M369.192 179.462c1.992 1.62 4.131-1.58 2.079-2.81-.068-.09-.778-.25-.883-.25-2.049.25-2.235 2.22-1.196 3.06M338.222 147.932c.283 2.61 4.224 2.11 3.281-1.08-1.494-2.21-3.696-.23-3.281 1.08M260.899 158.052c-.16-2.09-3.516-2.15-3.712-.02-.235 2.48 3.911 2.5 3.712.02M223.36 177.092c-1.884-.28-2.807 1.69-1.707 2.86 1.023 1.09 3.187.48 3.187-1.18 0-.81-.604-1.56-1.48-1.68M410.308 156.852c.117 2.95 3.766 2.52 3.483.16-.008-.08.012-.18-.01-.21l-.058-.13c-.035-.1-.047-.37-.123-.46.027-.6-.153-.65-.398-1.39-1.005-3.03-4.367-1.38-3.182 1.24.012.06.002.12.021.18s.062.1.087.15c-.005.18.1.32.18.46M76.535 205.132c-.41-2.28-3.809-1.58-3.319.76.461 2.18 3.752 1.58 3.319-.76M58.565 185.192c-1.113-1.42-3.495-.34-3.004 1.59.686 2.75 4.744.64 3.004-1.59M72.593 169.472c1.504.74 3.444-1.05 1.9-2.82-1.884-1.66-4.204 1.68-1.9 2.82M106.272 158.742a1.76 1.76 0 0 0-1.205-1.44c-1.757-.55-3.124 1.59-1.81 2.88.961.93 3.063.51 3.015-1.44M7.96 182.902s-.031.07-.036.1c-.022.19.049.36-.014.55-.998 3.06 3.339 3.62 3.339.97l-.019-.1.007-.11c.03-.23-.028-.41-.01-.51.867-2.33-2.812-3.29-3.267-.9M13.763 161.622c.766 2.41 4.366.74 3.274-1.57-.624-2.25-4.16-1.23-3.274 1.57M383.874 163.362c0-1.46-2.421-2.16-3.278-.56-.397.73-.181 1.56.279 2.02 1.14 1.14 3.255.27 2.999-1.46M39.817 132.742c.213 1.46 2.032 2.25 3.305.42.724-.59.212-2.76-1.465-2.7-1.396-.05-1.965 1.44-1.84 2.28M403.861 156.442c.554 2.14 3.531 1.61 3.458-.37.11-2.96-4.237-2.63-3.458.37M400.31 170.862c-.035-.03-.178-.02-.223-.03-.768-.15-1.316.09-1.736.71-1.598 2.36 1.647 4.11 2.788 2.14.777-1.35-.073-2.8-.829-2.82M155.544 175.172c-.2-1.38-1.932-1.8-2.558-1.29-1.364.96-1.107 2.35-.128 2.97 1.205.76 2.912-.16 2.686-1.68M188.516 176.502a1.703 1.703 0 0 0-3.313-.45c-.805 2.33 2.881 3.51 3.304.82.006-.07.05-.14.024-.23.019-.06-.011-.08-.015-.14M291.003 153.042c.015-.38-.557-1.17-1.365-1.31-1.89-.35-2.93 2.36-1.011 3.23.386.13.069.16.944.16.279.04 1.373-.69 1.236-.82.13-.12.318-1.03.196-1.26M325.693 180.132c2.156-.49 1.559-3.91-1.023-3.42-2.104.75-1.07 3.9 1.023 3.42M261.865 204.382c-.192-1.77-2.512-1.95-3.315-.8-.779 1.11.075 2.67 1.364 2.79 1.118.1 2.078-.84 1.951-1.99M294.531 181.472c2.115 0 2.37-3.27.19-3.52-2.526-.44-2.667 3.52-.19 3.52M259.685 183.412c2.261.08 2.353-3.25.197-3.43-1.02-.08-1.812.73-1.845 1.66-.035.98.784 1.74 1.648 1.77M7.084 181.432c.034-.43.082-.67-.13-1.11.05-.03-.471-.64-.537-.66-1.074-.56-.739.03-.62-.88.037-.28.008-.48-.048-.68-.024-.09.021-.09.078-.17.263-.36.385-1.16.462-1.23a1.694 1.694 0 0 0-.872-2.03c-.052-.03-.183-.13-.241-.13l-.084-.02-.065-.03c-.086-.02-.168 0-.254 0-1.465-.11-1.612 1.07-1.904 1.59-.019.08-.001.15-.01.23-.351.88.058.98-.119 1.22-.84 1.12-.066 2.56 1.147 2.72.219.07-.385.1-.514.14-1.07.34-1.153 1.13-1.301 2.29-.3 2.4 2.396 3.14 3.249 1.4a8 8 0 0 0 .147-.44c2.143-.44 1.527-1.82 1.616-2.21M17.013 186.002c-1.061-.21-2.058.44-2.058 1.99 0 1.99 2.914 2.34 3.396.41.227-.92-.133-2.16-1.338-2.4M92.337 186.942c.036 1.88 2.763 2.53 3.435.64.305-.86-.016-1.57-.773-2.08-1.195-.8-2.68.14-2.662 1.44M116.455 203.482c-2.531-1.68-3.908 3.02-1.008 3.12 1.727.07 2.446-2.16 1.008-3.12M126.48 173.762c-.889-.89-2.097-.71-2.689.06-.784 1.01-.126 2.71 1.3 2.85 1.695.17 2.433-1.86 1.389-2.91M409.834 189.022c-.572-1.93-3.667-1.64-3.306 1.13.362 2.77 3.825 2.07 3.455-.16-.138-.87.021-.39-.149-.97M413.845 172.232c-.158-.54.278-1.44-.917-2.1-.367-.2-.807-.28-1.304-.13-.742.22-1.298 1.12-1.16 1.16-.457 1.07.03 1.18.03 1.87 0 2.88 4.386 2.77 3.351-.8M391.039 222.082c-2.184-1.04-3.322 1.64-2.433 2.63 1.591 2.31 4.73-1.16 2.433-2.63M388.264 190.402c.531 1.86 3.113 1.55 3.315-.28.009-.07.05-.15.037-.19l-.016-.08c-.011-.07.017-.07.017-.13 0-2.58-4.148-2.1-3.353.68M417.949 174.602c-.014-.39-.149-.35-.139-.78.045-2.32-3.342-2.31-3.383-.06-.001.07-.017.25-.017.25l.03.09.004.09c.02.09.08.15.105.24-.561 2.23 3.496 2.76 3.4.17M220.27 203.202c-1.026-.95-3.249-.43-2.751 1.93 1.155 2.74 4.966.14 2.751-1.93M223.384 228.552c-2.408-.38-2.981 2.81-.876 3.44 1.125.35 2.332-.59 2.332-1.74 0-.82-.606-1.56-1.456-1.7M261.572 227.412c-.17-2.34-3.868-1.96-3.379.46.435 2.14 3.535 1.64 3.379-.46M146.582 204.582c-.139-2.37-3.673-1.96-3.515.32.166 2.38 3.639 1.87 3.515-.32M299.533 206.192c.224-.14.534-.6.602-1.04.357-2.28-3.215-2.74-3.4-.4l-.025.12.026.15c.003.05-.014.09-.006.14.195 1.26 1.728 1.94 2.803 1.03M333.179 205.192c-.246-1.74-2.126-2-3.001-.95-2.246 2.68 3.286 4.36 3.001.95M294.725 228.442a1.65 1.65 0 0 0-1.484.59c-1.256 1.45.493 3.57 2.157 2.74 1.685-.84.905-3.16-.673-3.33M325.796 230.522c-1.281-.29-2.361.96-2.014 2.23.487 1.8 2.984 1.64 3.302-.14.223-1.08-.467-1.9-1.288-2.09M259.049 249.662h-.063c-1.699 0-2.368 2.33-.874 3.2 1.079.64 2.814-.01 2.814-1.48 0-.9-.65-1.67-1.877-1.72M226.365 258.902c3.145.39 2.649-4.37-.453-3.14-1.397 1.07-.796 2.82.453 3.14M188.417 232.472c.073-1.95-2.675-2.41-3.33-.64-.679 3.04 3.422 3.11 3.33.64M94.539 225.142c2.697-1.54.053-4.55-1.718-3.02-1.633 1.41.479 3.95 1.718 3.02M359.519 205.652c-.302-2.37-3.492-1.95-3.414.16-.085 2.31 3.576 2.4 3.414-.16M43.33 204.362c-.043-.02-.08-.05-.124-.06-.074-.01-.15 0-.225-.01l-.196-.04-.114.02c-2.966.22-1.3 4.98 1.123 3.48 1.325-.81.915-2.94-.464-3.39M22.547 205.012c-.562-.16-1.55.68-1.593 1.04-1.082 2.48 2.822 3.84 3.246 1.17.009-.06.091-.38.038-.38l.014-.16c-.031-.98-.877-1.66-1.705-1.67M399.988 205.172c-2.989.75-.17 5.78 1.869 3.15.931-1.21-.106-3.59-1.869-3.15M420.204 191.312a1.663 1.663 0 0 0-1.615-1.55c-.183-.01-.097-.07-.121-.22-.151-.9-1.074-1.56-1.982-1.41-2.127.35-1.829 4.32.257 4.48.644.05.411-.06.657.15 1.163.98 2.932.05 2.804-1.45M415.929 208.332c.815-3.36-3.784-4.04-3.478.05.001.04.027.11.027.11v.1c.015.07.06.13.083.19.034.11.026.32.026.32-.018.18.302.82.713 1.11.546.37.929.23 1.314.27.878-.17 1.587-1.05 1.315-2.15M417.342 207.852c.04.49-.019.31-.01.56.007.23.083.2.045.43-.496 3 3.107 3.28 3.378 1.03l-.007-.09c.054-.77.128-.93.128-.99 0-4.07-3.712-3.11-3.534-.94M4.637 208.192l-.025-.1c.029.04.033.32.025.1m3.285.2c-.091-.37.218-.76-.006-1.12.586-2.22-2.713-3.01-3.283-.86-.016.07-.054.12-.063.18.105 1.9-.016.73-.636.27 1.241-.78 1.118-2.74-.851-3.15-1.571-.05-2.482 1.98-1.096 3.06.073.06-.159.1-.251.1-1.075-.01-1.793.93-1.732 1.82.059.89.977 1.7 1.709 1.59-.997 1.66.198 2.9 1.414 2.82 1.834-.11 2.179-2.65.54-3.31.364-.17.724-.54.875-1.03.04-.07-.001.06.033.14.162 2.5 3.928 1.82 3.347-.51M13.645 206.372c-.531-1.82-3.085-1.58-3.308.27-.543 4.29 4.426 3.5 3.308-.27M406.723 224.302c-.219.53-.058.87-.097 1.06.034.38-.185 1.17.764 1.78 1.013.65 2.571.24 2.723-1.86.162-2.11-2.636-2.84-3.39-.98M418.753 224.732c-.085 0-.184.05-.284.05-.945-1.26-2.983-.66-3.077.92-.015.23.016.2.001.43-.002.04-.022.07-.022.11s.019.04.011.08c-.626 1.77 1.573 3.02 2.878 1.76 2.44.7 3.087-3.29.493-3.35M23.017 243.922c-1.726-.05-2.339 2.29-1.277 3.36 3.226 2.28 4.027-3.27 1.277-3.36M30.988 228.052c2.12.13 2.517-2.97.427-3.38-2.362-.45-2.829 3.24-.427 3.38M14.85 225.992l-.035.07-.008.08c-.009.03-.026.07-.033.11-.012.05-.002.11-.007.17a3 3 0 0 1-.026.16c-.628 2.07 2.778 3.09 3.358.84.173-.67.022-.33.056-.71.173-2.02-2.646-2.58-3.305-.72M6.79 235.192c-.014-.63-.231-.17-.099-1.41-.124-1.41-1.929-2.08-2.94-1.03-.094.09-.151 0-.294 0-1.42.25-1.859 1.37-1.713 1.8 0 0 .154.5.076.8-.196.75.191 1.61.529 1.95.158.16-.996.83.077 2.37-.492 1.16.47 3.07 2.115 2.64.898-.24 1.574-1.09 1.093-2.53-.092-.27-.41-.53-.327-.81.053-.17.092-.41.061-.67-.107-.96-.781-.96-.147-1.05 1.013-.15 1.591-1.21 1.569-2.06M352.471 233.372c-.158-2.07-2.894-1.85-3.266-.57-1.293 2.87 3.505 3.79 3.266.57M126.87 234.882c.332-1.15-1.884-2.38-3.059-1.17-.44.46-.622 1.25-.336 1.9.835 1.89 3.841.67 3.395-.73M178.864 205.932c1.311.97 3.064-.24 2.688-1.77-.439-1.79-3.005-1.88-3.452-.13-.208.83.378 1.74.764 1.9M152.923 232.372c-1.429.48-1.321 3.36.696 3.39.244.07.994-.26 1.185-.43 1.109-1.01.601-3.61-1.881-2.96M376.484 207.832c1.404.93 3.079-.46 2.572-2.05-.392-1.23-1.954-1.69-2.91-.6-.676.78-.569 2.04.338 2.65M358.992 264.022c-.389.24-1.128.36-1.255 1.47-.359.86 1.082 2.55 2.639 1.68 1.786-.99.61-3.69-1.384-3.15M401.903 242.002c-.105-2.97-4.353-2.41-3.349.61.627 1.86 3.416 1.38 3.349-.61M369.058 235.272c.616.98 1.823 1.03 2.567.38 1.05-.93.642-2.85-.889-3.07-1.545-.22-2.458 1.44-1.678 2.69M383.971 250.662c.569-.91.189-2.11-.809-2.5-.795-.32-1.159.03-1.545.13-2.6 1.61.772 4.91 2.354 2.37M418.337 242.482c-.28-2.02-3.133-1.96-3.386.01-.035.28.057.33-.027.62-.798 2.74 3.268 3.3 3.342.73.006-.24-.017-.43.094-.63.008-.05-.009-.09-.005-.14s.028-.09.028-.14l-.019-.1.016-.1c.016-.06-.035-.19-.043-.25M414.35 243.132c-.179-2.61-3.391-2.34-3.523-.31 0 0 .091.53.004.67-.314.79.095 2.36 1.24 2.69.063.02.113.06.18.07.05.01.098-.01.149 0 .054 0 .148.02.148.02s.612-.11.67-.13c1.058-.45 1.217-1.86 1.132-3.01M57.38 227.032c1.374-.32 1.671-2 .991-2.91-.373-.49-1.174-.75-1.419-.68-2.404.06-2.176 4.2.428 3.59M55.636 261.842c-.517-.39-1.196-.51-1.875-.12-1.434.82-.985 3.01.55 3.28 1.772.31 2.771-2.06 1.325-3.16M85.294 267.292c-1.294-1.55-4.191-.01-2.711 2.25 1.503 1.67 4.184-.5 2.711-2.25M73.71 244.942c.593-.04 1.564-1.42.669-2.6-.944-1.26-2.836-.71-3.117.68-.298 1.44 1.203 2.44 2.448 1.92M412.639 258.652c-2.101.01-3.031 4.75-.313 4.75 1.768 0 1.808-2.22 2.002-2.63.016-.07-.001-.14.007-.2.007-.07.039-.14.039-.21a1.75 1.75 0 0 0-1.735-1.71M41.244 247.102c2.208.96 3.612-2.72 1.346-3.51-2.174-.74-3.316 2.65-1.346 3.51M30.178 265.622c1.934 1.21 3.86-1.94 1.649-2.99-1.972-.95-3.404 1.88-1.649 2.99M16.535 254.242c-.719-4.19-4.897-1.38-3.115 1.25 1.023 1.5 3.414.56 3.115-1.25M290.832 255.692c-.927-1.3-2.978-.66-3.092.87-.09 1.21.392 1.37 1.294 1.91 1.546.38 2.726-1.49 1.798-2.78M318.559 260.722c-.112-2.13-3.244-2.15-3.402-.04-.22 2.77 3.542 2.75 3.402.04M328.219 294.962c.017-2.29-3.277-2.26-3.522-.06-.356 2.39 3.486 2.78 3.522.06M407.829 259.812c.317-2.31-3.721-2.69-3.472-.04.046.53-.225.69.272 1.44 1.078 1.62 3.463.46 3.2-1.4M391.239 263.652c-2.171 1.18-.467 4.13 1.489 3.12 2.251-1.16.458-4.2-1.489-3.12M409.139 275.542c-.307-2.35-3.536-1.64-3.709.4-.099 1.13-1.101 1.7-.689 2.88.43 1.22 2.163 1.61 3.008.41.038-.06.153-.16.164-.23.031-.03.012-.04.029-.08l.035-.05c.031-.09.022-.17.04-.26.207-.27.379-.57.395-.62.103-.27-.004-.32.155-.57.301-.48.137-.27.236-.62.303-.4.389-.88.336-1.26M10.981 231.672c-.052-.21-.105-.02-.057-.34 0-.05-.026-.09-.03-.15-.045-.53.034-.2.007-.61-.138-2.12-3.281-2.11-3.402.01-.036.55.015 1.82.243 2.32.869 1.94 3.763.88 3.239-1.23M11.959 260.372c-.151-1.15-.804-2.02-1.96-1.9-2.549.27-1.085 3.09-1.1 3.47-.023.69.467 1.59 1.415 1.76 1.72.29 2.616-1.72 1.645-3.33M196.222 261.962c-.054-2.01-2.801-2.22-3.349-.48-.828 2.59 3.436 3.34 3.349.48M228.697 284.522c.011.06.008.14.035.19.001.07.064.12.095.19.694 1.58 2.821 1.17 3.21-.22l.009-.11c.016-.07.029-.05.039-.14.014-.13-.01-.13-.012-.25-.001-.06.012-.19.012-.19l-.027-.08c-.011-.06-.008-.14-.035-.18-.001-.08-.064-.13-.095-.2-.026-.06-.032-.13-.063-.18 0 0-.05-.05-.128-.19-.895-1.15-2.671-.65-3.019.59l-.009.11c-.019.08-.025.04-.039.14-.014.11.01.15.012.25.001.06-.012.19-.012.19zM105.816 250.912c-2.03-3.11-5.076.89-2.336 2.23 1.178.58 2.901-.34 2.336-2.23M119.27 281.592c-.016-1.71-2.657-2.64-3.48-.78-1.146 2.56 3.523 3.66 3.48.78M139.323 267.892a1.7 1.7 0 0 0-1.111-1.53c-1.715-.64-2.993 1.47-1.91 2.79 1.011 1.23 3.105.61 3.021-1.26M17.227 286.472c.202.38-.02 1.07 1.109 1.51 1.488.58 2.873-1.04 2.144-2.47-.061-.12-.17-.22-.191-.32-.219-1.12-1.342-1.6-2.216-1.3-1.157.39-1.467 1.96-.846 2.58M23.953 275.082c-.617-.4-1.123-1.04-2.249-.3-.685.45-1.025 1.3-.537 2.42 1.491 2.55 4.505-.1 2.786-2.12M401.678 291.872c-.036-1.74-2.289-2.33-3.173-.82-.367.63-.045.26-.294.81-1.184 2.58 3.553 3.71 3.467.01M399.685 279.252c-.478-2.67-4.172-1.21-3.538 1.26.544 2.16 4.025 1.39 3.538-1.26M382.168 289.472c-.062-2.07-3.061-2.32-3.501-.05-.541 2.77 3.605 3.18 3.501.05M372.148 279.262s.874-.67.479-1.99c-.381-.92-1.605-1.34-2.482-.81-2.353 1.43.218 4.58 2.003 2.8M259.386 274.562c-.901-1.52-3.507-.84-3.274 1.08.342 2.77 4.684 1.3 3.274-1.08M345.337 298.252c-.096-1.02-1.045-1.63-1.878-1.55-1.222.11-2.159 1.6-1.375 2.78 1.1 1.64 3.403.39 3.253-1.23M388.704 300.742c1.537-2.88-3.564-3.49-3.445-.52.059 1.35 1.828 2.6 3.445.52M341.815 264.832c1.461-2.37-2.517-3.94-3.098-1.37-.465 2 2.068 3.05 3.098 1.37M53.249 297.342c-.559-.7-1.604-.83-2.305-.36-1.441.96-.689 3.14.929 3.15 1.447.02 2.236-1.69 1.376-2.79M40.735 283.342c1.502 0 2.432-1.96 1.029-3.22-.038-.03-.034-.05-.08-.08l-.151-.08c-.075-.03-.112-.09-.209-.13-.04-.02-.085-.02-.127-.04l-.101-.05-.228-.02c-.061-.01-.115-.04-.178-.04h-.063c-2.347 0-2.26 3.66.108 3.66M201.27 291.752c.113 2.91 4.717 1.65 3.038-1.13-1.048-1.25-3.093-.54-3.038 1.13M175.334 297.142c-.489 1.52.8 2.79 2.149 2.35.051-.02.108-.02.157-.04.044-.01.103-.08.143-.1.351-.19.574-.37.763-.84.026-.06.029-.13.047-.2.014-.05.048-.09.058-.15-.029-.21.044-.23.021-.31l.004-.2c0-2.01-2.776-2.29-3.342-.51M257.624 298.422c-.516-2.71-4.622-1.04-3.102 1.34 1.026 1.6 3.481.65 3.102-1.34M282.557 281.722c-.953.29-1.356 1.37-1.227 1.78.464 2.62 3.498 1.85 3.426-.1a1.688 1.688 0 0 0-2.199-1.68M67.324 283.342c-1.829-1.89-4.403.95-2.257 2.56 1.722 1.3 3.697-1.08 2.257-2.56M33.322 295.142c-1.649-1.08-3.411.96-2.355 2.58 1.551 2.38 4.727-1.03 2.355-2.58M11.401 267.432c-.024-.03.147-.37.008-.86.006-.14-.346-.78-.731-1.03-.198-.07-.579-.22-.64-.25l-.668.02c-.763.17-1.374 1.02-1.324 1.41-.089.55.108.87.287 1.26.277.22.163.15.147.56-.172 3.9 5.852 1.93 2.921-1.11M411.319 271.792c-.261-2.51-4.198-1.65-3.295.77.699 1.88 3.501 1.2 3.295-.77M403.878 287.312c-1.078-.15-1.953.82-1.9 1.45-.05.38-.95 1.66.385 2.58 2.508 1.76 4.497-3.65 1.515-4.03M307.693 290.682c.984-2.17-2.306-3.43-3.149-1.37l-.033.05-.01.06s-.044.07-.047.14c-.015.06-.005.12-.013.19-.236 1.88 2.444 2.7 3.252.93M21.203 294.152c-.008-.48-.19-.89-.545-1.22.203-2.02-2.851-2.65-3.35-.54a1.67 1.67 0 0 0 .487 1.65c-.213 2.4 3.457 2.48 3.408.11M277.267 308.802c-.442-3.26-5.165-.58-3.027 1.56 1.191 1.19 3.247.04 3.027-1.56M391.464 306.302c-2.167-1-3.723 2.74-1.646 3.72.788.38 1.738.2 2.227-.75.596-1.15.7-2.39-.581-2.97M152.75 303.862a1.733 1.733 0 0 0 1.985-2.48c-.548-1-2.208-1.29-3.013-.15-.684.97-.217 2.37 1.028 2.63M166.203 265.632c.063-1.72-2.206-2.41-3.142-1.01-1.509 2.93 3.248 3.88 3.142 1.01M398.11 304.492c-.127-2-3.125-2.23-3.392-.12-1.468 2.47.322 3.9 1.77 3.34 1-.4 1.663-2.52 1.622-3.22M80.996 307.492c1.596-.86.926-3.25-.858-3.22a1.73 1.73 0 0 0-1.658 1.65 1.689 1.689 0 0 0 2.516 1.57M321.81 329.292c-1.331 1.61.879 3.63 2.384 2.47 2.398-1.34-.375-5.26-2.384-2.47M311.202 324.682c-.39-2.17-2.563-1.93-3.212-.79-.368.64-.31 1.64.5 2.23 1.256.91 2.756-.14 2.712-1.44M287.302 347.992c-1.016-.15-2.392.77-2.264 2.06.134 1.39 1.581 1.88 2.596 1.34 1.802-.95 1.251-3.16-.332-3.4M356.099 308.562c1.713-1.02.902-3.74-1.076-3.38-2.82.49-1.251 4.76 1.076 3.38M336.232 336.002c1.674-.54 1.46-2.8-.03-3.25-.725-.22-1.719.23-1.875.62-.899.69-.016 3.25 1.905 2.63M346.456 335.712c-3.044 1.73.358 5.23 1.946 2.9.063-.19.262-.35.262-.35 1.121-1.43-.536-3.49-2.208-2.55M365.138 312.532c-1.499.23-2.227 2.39-.694 3.27 2.48 1.44 4.122-3.27.694-3.27M375.224 319.452c-.249-1.35-2.251-2.31-3.377-.07-.659.86-.298 2 .403 2.46 1.498 1 3.252-.92 2.974-2.39M47.058 313.702c-.52-2.79-3.816-2.31-3.686-.13.165 2.95 4.167 2.67 3.686.13M43.064 327.632c1.443-.13 1.907-1.71 1.269-2.65-.031-.05-.078-.07-.113-.12l-.095-.14c-1.23-2.45-4.236-.86-3.311 1.16-.015.56 1.133 1.86 2.25 1.75M61.403 329.072c-2.689-.54-2.92 3.11-.677 3.34 2.031.21 2.627-2.74.677-3.34M30.27 306.322c-1.654-1.44-4.291.9-1.806 3.39 1.48 1.48 4.498-.47 1.806-3.39M232.052 341.242c.434-.7.291-1.55-.228-2.09-1.047-1.09-2.923-.37-2.944 1.17-.019 1.76 2.284 2.39 3.172.92M234.387 308.372c-.819-.4-1.792-.11-2.24.65-.708 1.2.346 2.81 1.732 2.7 1.76-.15 2.174-2.52.508-3.35M254.083 324.302c-1.759-1.16-3.727 1.29-2.275 2.75 1.772 1.77 4.344-1.37 2.275-2.75M210.622 318.152c-1.036.55-1.317 1.99-.268 2.82.541.72 2.247.67 2.809-.43.033-.03.183-.66.183-.66.016-1.55-1.91-2.4-2.724-1.73M192.072 327.672c-.286-2.24-3.656-1.79-3.364.44.283 2.24 3.657 1.78 3.364-.44M132.998 310.032c-2.29.84-.628 4.48 1.521 3.32 1.957-1.05.473-4.08-1.521-3.32M116.227 319.922c-.121-1.31-1.472-1.89-2.505-1.33-1.054.57-1.1 1.96-.543 2.67.998 1.26 3.227.56 3.048-1.34M99.569 294.032c-.018-.05-.286-.58-.286-.58s-.12-.11-.162-.16c-1.118-1.3-3.269-.27-2.97 1.43.014.07.066.15.091.23.026.07.03.19.083.26.109.12.087.18.087.18.916 1.83 3.902.69 3.157-1.36M67.138 315.292c-.148-1.9-2.931-2.17-3.458-.35-.749 2.59 3.684 3.05 3.458.35M171.693 335.992c.964-.51 1.127-1.69.628-2.44-.291-.44-1.16-.89-1.378-.86-3.48-.05-1.82 4.7.75 3.3M81.917 330.732c-2.249-1.58-4.151 2.4-1.473 3.03 2.05.49 2.932-2.01 1.473-3.03M31.859 314.772c-.692-2.57-4.531-.7-3.069 1.5 1.079 1.63 3.595.47 3.069-1.5M36.474 321.492c-.223-.54-.336-.36-.525-.68-.027-.06-.032-.11-.065-.16-.039-.06-.097-.09-.141-.14-.031-.06-.037-.13-.076-.19-.038-.06-.097-.09-.141-.14-.031-.06-.044-.16-.096-.2-.015-.05-.337-.3-.405-.46-.03-.07-.077-.25-.136-.3-.019-.06-.086-.09-.127-.13-1.171-2.26-4.448-.06-2.796 1.87.03.06.045.17.096.21.014.04.337.3.403.45.031.07.076.26.138.31.018.06.086.08.126.13.493.95 1.15 1.92 2.155 1.92.793 0 1.752-.72 1.712-1.78.007-.19-.091-.64-.122-.71M271.464 340.822c2.847-.77.42-4.87-1.637-2.91-1.277 1.22-.066 3.38 1.637 2.91M295.081 316.722c-1.066-1.54-3.884-.55-3.269 1.56.751 2.64 4.767.6 3.269-1.56M356.502 337.402c-1.711.85-1.483 3.7.557 3.7 1.16 0 2.008-1.34 1.932-2.3-.09-1.17-1.433-1.93-2.489-1.4M380.868 323.972c-.022-1.92-2.56-2.3-3.268-.67-.081.13-.084.13-.084.13-.019.04-.016.08-.032.12-1.25 1.12 1.195 3.75 2.746 2.02.284-.31.645-1.11.638-1.6M387.697 322.022c-.016-1.82-2.506-2.35-3.261-.7-2.081 3.39 3.299 4.39 3.261.7M372.04 336.742c-.852.68-1.649 2.3-.466 3.28.048.04.139.14.139.14s.093.03.144.06c.379.2.582.23.954.19 1.166-.1 1.118-.73 1.503-1.06 1.794-.92.006-4.41-2.274-2.61M53.57 345.092c-.168-1.14-1.421-1.85-2.515-1.22-1.118.64-1.105 2.14-.148 2.83 1.235.89 2.878-.14 2.663-1.61M47.001 337.652c-.114-.05.19-.51-.49-1.38-.33-.68-.15-.36-.574-.84.092-.38.188-.76-.172-1.36-.045-.08-.064-.16-.121-.23l-.051-.04-.035-.06c-.58-.33-.587-.44-.888-.83-.117-.15-.049-.24-.394-.62-.145-.82-1.478-1.55-2.537-.84-.862.57-.949 1.75-.442 2.44.631.86.457.82.548.91.041.17.903.81 1.014 1 .044.07.064.15.12.22.164.2.272.12.215.35-.258 1.06.674 2.37 1.363 2.69.498.24-.018 1.37 1.402 1.82 2.187.7 3.138-2.55 1.042-3.23M367.227 339.312c-.053-1.52-1.988-2.23-2.997-1.09-.054.06-.074.14-.118.2-.528.77-.797 1.24-.565 2 .698 2.29 3.752.95 3.68-1.11M380.18 333.442c-.328-1.35-2.098-1.78-2.995-.69-.784.96-.328 2.47.945 2.76 1.214.28 2.37-.79 2.05-2.07M356.409 351.892c-2.088 2-.167 3.95 1.443 3.23 3.036-1.33.576-5.17-1.443-3.23M152.579 341.262c.608-.12 1.199-1.04 1.025-1.9.104-1.12-2.144-2.08-3.122-.6-1.058 1.6.976 3.28 2.097 2.5M61.037 344.452c.765-.8.52-1.99-.16-2.53-.316-.24-.301-.42-.541-.64-.826-.78-2.083-.55-2.631.37-1.088 1.83 1.736 4.47 3.332 2.8M94.976 327.292c.428 2.72 4.609 1.15 3.107-1.18-.993-1.57-3.405-.64-3.107 1.18M78.344 348.422c.625.6 1.88.7 2.594-.15a1.678 1.678 0 0 0-1.054-2.78c-1.982-.21-2.616 1.89-1.54 2.93M116.603 346.102c-.132-.41-.413-.61-.485-.75-1.73-1.62-4.004.76-2.519 2.35 1.747 1.61 3.475-.16 3.004-1.6M134.054 345.232c.904-.64.972-2.02.075-2.87-1.38-1.31-3.654.36-2.648 2.1a1.716 1.716 0 0 0 2.573.77M168.038 364.642c.15-.97-1.349-2.1-2.565-1.4-.447.26-.846.85-.843 1.39-.151 2.49 3.544 2.54 3.408.01M99.348 348.942c1.129-1.3-.16-3.22-1.749-2.88-.252.13-.014-.05-.326.08-2.593 1.12.225 4.94 2.075 2.8M348.374 362.902c-.053.03-.208.07-.244.12l-.064.06-.063.04c-.03.03-.042.06-.07.09-.056.03-.106.06-.158.1l-.095.04-.042.04c-.058.04-.087.11-.137.16-.193.2-.327.21-.405.27-1.283 1.03-1.235 1.88-.844 2.6.031.05.037.11.075.17.03.04.076.06.109.1.039.05.09.13.09.13s.11.07.159.11c1.404 1.11 2.545-.45 3.255-1.03 1.969-1.03.413-4.01-1.566-3M354.819 358.272c-.518.09-1.329 1.42-.57 2.48.664.92 2.365.9 2.742.19 2.144-2.2-.725-4.24-2.172-2.67M363.749 349.042c-2.049 2.55 1.768 4.07 2.432 2.46.035-.05.083-.07.114-.12.024-.03.026-.07.047-.11.024-.04.061-.08.081-.12 2.017-1.5-.611-4.71-2.674-2.11M209.156 350.662c-3.506-.28-1.956 4.95.808 3.14 1.327-.87.886-2.92-.808-3.14M187.912 360.492c-1.597 1.3.049 3.79 1.936 2.84 2.298-1.13.054-4.46-1.936-2.84M247.373 355.782c-1.314.55-1.372 2.36-.218 3.06.038.02.082.03.122.05.041.02.074.05.116.07.057.02.116.02.174.04.044.01.187.07.232.06.05.03.081 0 .134 0 3.234.23 2.235-4.45-.56-3.28M317.291 357.682c-1.954-.43-2.633 1.58-2.257 2.57.384 1 1.115.97 1.5 1.11 1.956.12 2.737-3.02.757-3.68M331.039 360.872c.642.39 1.194.32 1.866-.01.04.05.595-.53.651-.57.343-.72.447-1.4-.076-2.05-1.598-1.99-4.906 1.14-2.441 2.63M301.375 356.582c-.035-.03-.08-.04-.117-.06-.038-.03-.06-.07-.101-.09-.04-.01-.049-.02-.149-.06-2.235-1.07-3.755 2.6-1.3 3.28 1.775.5 3.125-1.85 1.667-3.07M265.364 370.582c.059-.87-.659-1.86-1.772-1.82-1.899-.07-2.456 2.6-.692 3.31.791.32 2.129.12 2.464-1.49M65.777 359.182c.238-.76-.167-1.55-.564-1.87 0 0-.609-.35-.625-.31-.349-1.23-1.445-1.1-1.47-1.33-.066-.66-.596-1.35-1.112-1.73-.251-.18.045-.17.241-.37 1.492-1.55-1.067-3.88-2.202-3.89-1.236-.01-2.313 1.41-1.45 2.68.037.06.715.83.787.93 0 0 .131.08.315.17.237.29.206.23.247.28.284.22.207.03-.065.27-1.133.96-.413 2.75.778 3.36.524.27.559 0 .628.4.136.77.636 1.18 1.222 1.34.462 1.71 2.779 1.63 3.27.07M76.848 367.852c-3.256-2.18-4.39 2.75-1.264 3.02 1.539.14 2.565-1.72 1.264-3.02M80.124 361.232c.628.02 1.161-.22 1.514-.79.935-.88-.469-3.58-2.32-2.67-1.386.2-1.328 3.39.806 3.46M101.823 363.252c1.332-1.5-.556-3.53-2.201-2.77-2.695 1.25.421 4.78 2.201 2.77M346.156 359.102c1.017-.29 2.222-1.9 1.378-3.14-.56-.82-1.647-1.03-2.483-.37l-.084.05c-.057.06-.083.12-.132.18-.044.05-.146.12-.164.18-.044.04-.029.06-.054.11-.064.12-.099.09-.155.14-1.195 1.2-.066 3.36 1.694 2.85M338.385 372.632c-.271.27-.094.34-.504.5-.062.03-.128.03-.188.06-.038.03-.058.06-.093.08-.036.03-.077.03-.111.06-1.898 2.61 1.277 4.08 2.451 2.32.125-.18.115-.15.267-.21 2.617-.97.113-4.78-1.822-2.81M141.899 366.732c.019.14.333.56.725.78 1.621.93 3.322-.87 2.429-2.36-1.058-1.77-4.074-.45-3.154 1.58M83.915 367.952c-.319-.2-.241-.07-.575-.29-.385-.23-.123-.47-.994-.75-1.83-.61-3.021 1.7-1.667 2.89.237.21.265.26.265.26.775.91.753.38 1.284.87 1.889.94 3.532-1.8 1.687-2.98M123.051 365.092c-.22-1.95-3.355-2.5-3.708-.31-.223.46.389 1.61.773 1.73 1.745 1.11 3.084-.1 2.935-1.42M128.35 378.842c-.771-.03-1.41.48-1.649 1.08-.59 1.47 1.002 2.93 2.492 2.14 1.608-.83.939-3.28-.843-3.22M105.009 372.622c-2.809-1.41-3.954 1.82-2.142 2.82 2.785 1.55 4.143-1.82 2.142-2.82M227.076 373.452c1.034-.55 1.187-1.67.724-2.52-.618-.93-2.145-.99-2.89-.34-1.683 1.47.536 3.81 2.166 2.86M242.971 387.022c1.554-2.36-2.88-3.93-3.327-1.22-.333 1.94 2.342 2.72 3.327 1.22M334.634 370.982c-1.955-1.59-4.548 2.02-2.175 3.19 1.91.95 3.783-1.87 2.175-3.19M314.19 378.902c.692.75 1.966.79 2.975-.34.459-.52.601-1.27.195-1.99l-.048-.12-.155-.15c-1.542-1.78-4.565.86-2.967 2.6M323.129 383.392c-.196.16-.275.08-.519.22-.31.18-.182.37-.365.03-.571-1.05-1.916-1.16-2.675-.44-.271.49-1.941.89-1.256 2.55.24.59-2.062 1.11-13.291 7.85-.083.05-.134.12-.205.19-.132.11-.052-.09-.787.45-.162.06-.118-.02-.525.22-.082.05-.133.13-.204.19-.088.08-.098-.03-.555.25-.084.05-.149.14-.234.21-.079 0-.378.11-.727.41-.063.05-.143.03-.223.07-.315.16-.303.18-.568.38-.074.01-.35.14-.407.16l-.054.05-.063.02c-.082.05-.133.12-.204.18-.134.12-.171-.05-.638.41-1.621.51-1.002 1.59-1.378 1.45-.386-.13-.894-.11-1.159-.02-2.226.81-.836 4.17 1.304 3.16.451-.21.741-.59.876-.96.247-.69-.156-.35.674-.3 1.002.07 13.923-7.54 14.314-7.87.067-.06.044.01.439-.19.38-.19.343-.16.566-.38.115-.01.361-.14.462-.2l.063-.02c.083-.05.134-.13.205-.19.049-.04.42-.08.788-.45.069-.01.347-.13.408-.16l.054-.05.062-.02c.082-.05.132-.12.202-.18.068-.06.141-.04.225-.08l.052-.04c.167-.09.076-.03.217-.11.174-.09.297-.23.297-.23.189-.02.568-.28.714-.4.386-.32.272.06.873-.53.445-.12.432-.11.759-.44.605-.16.738-.43.813-.45.531-.16.535-.2.805-.42.396-.33.246.09.874-.54.444-.11.433-.1.758-.43.143-.04.289-.06.424-.14.207-.12.255-.27.435-.33 2.566-.84.427-4.64-1.626-2.88"
        style="fill:#c6c6c6;fill-rule:nonzero" />
    <path
        d="M330.458 381.872c-.143-1.24-1.469-1.68-1.927-1.49-1.074.08-.907.61-1.62.86-1.425.5-1.542 2.48-.151 3.12.842.39 1.751.02 2.15-.59 1.141-.16 1.648-1.06 1.548-1.9M87.633 375.862c-.101-1.22-1.478-1.69-1.776-2.08-.68-.89-2.004-.87-2.668-.06-.502.35-.579 1.9.371 2.65.256.29.697.45 1.42 1.05 1.115.74 2.775-.05 2.653-1.56M276.488 378.192c-.965-.03-1.777.79-1.777 1.71 0 1.78 2.424 2.37 3.297.86.846-1.45-.803-2.88-1.52-2.57M296.89 381.632c2.248-.71 1-4.18-1.291-3.21-2.048.86-.847 3.9 1.291 3.21M108.13 381.762c-.069 0-.136.03-.204.04-3.218.74-.617 4.91 1.488 3.22 1.424-1.13.26-3.27-1.284-3.26M156.429 383.872c-.013-.62-.311-1.21-1.028-1.51-.842-.36-1.305 0-1.788.26-.062.03-.065 0-.117.06-.072.02-.029.02-.076.05-3.237 2.28 3.099 5.03 3.009 1.14M182.457 384.642c-.058-2.71-4.278-1.81-3.316.65.721 1.84 3.354 1.17 3.316-.65M137.489 391.882c-.65-1.21-2.506-1.42-3.219-.12-.814 1.49.864 3.04 2.278 2.56.972-.33 1.451-1.5.941-2.44M253.94 393.902c-2.021-.05-2.517 3.09-.182 3.41 2.53.21 2.599-3.48.182-3.41M108.742 390.812c-.181-2.14-3.567-2.06-3.372.28.183 2.22 3.567 1.98 3.372-.28M99.892 384.702c-.064-.07-.147-.06-.204-.08-.263-.16-3.581-2.15-3.861-2.27 0 0-.047-.04-.138-.09l-.526-.14c-.391-.86-1.63-1.64-2.666-1.19-1.794.78-.989 3.3.866 3.58.193.47.563.68.937.89 2.809 1.58 4.685 3.48 6.032 1.87.896-1.06.098-2.44-.44-2.57M300.553 391.702c-.418-3.1-5.17-.81-3.176 1.46 1.139 1.29 3.403.23 3.176-1.46M275.29 406.042c-.341.13-.979.42-1.341.47-.07 0-.138-.01-.209.01 0 0 .005.02-.383.1-1.503.34-1.825 2.36-.507 3.16 1.23.53 1.848.11 2.72-.17.391-.14.342-.01.817-.32 2.652-.62 1.615-4.26-1.097-3.25M278.137 395.142c-.276-1.85-3.335-2.07-3.601.05-.011.09-.055.17-.041.22l.018.1c.147 2.4 3.975 1.99 3.624-.37M259.566 406.362c.115-1.24-.413-1.89-1.214-2.11-.99-.09-.869.08-.983.05-.319.07-.38.04-.453.06-.987.26-1.473 1.32-1.168 2.21.62 1.84 3.387 1.36 3.818-.21M284.306 402.192c-.202-2.39-3.868-1.71-3.946.29-.103 2.63 4.159 2.19 3.946-.29M166.434 396.402c-1.307-.91-3.127-.02-2.986 1.53.115 1.34 1.565 1.88 2.653 1.45a1.687 1.687 0 0 0 .333-2.98M207.768 382.352c-.607-2.73-4.607-.87-3.058 1.35 1.069 1.52 3.47.48 3.058-1.35M221.189 398.742c2.004-.02 2.412-2.07 1.304-3.02a1.77 1.77 0 0 0-1.11-.42c-3.323.37-1.581 3.89-.194 3.44M143.29 403.292c.517.4 2.089-.08 2.306-1.3.068-.38-.032-.7-.148-1.06-2.165-3.09-5.101 1.24-2.158 2.36M114.047 389.432l-.071-.04c-.045-.01-.088 0-.133 0-2.034-1.86-4.433 1.52-2.2 2.75l.083.03c.036.01.067.04.105.05.042.04.093.02.144.04.126.04.132.15.609.31.13.09.241.05.346.09 2.232.88 3.356-2.58 1.117-3.23M195.549 397.802c-.045-.25-1.09-.71-1.835-.44-1.145.41-1.366 1.92-.969 2.36 1.132 2.34 4.583-.02 2.804-1.92M175.652 405.602c-.247.07-.377.01-.685.14-1.412.62-1.404 2.78.248 3.22 2.754.74 3.333-3.36.437-3.36M148.514 407.922c-.289.12.074-.2.173-.52.387-1.22-.757-2.41-2.073-2.32-1.208-.87-2.888-.42-3.088 1.03-.164 1.14.876 1.95 1.4 1.91.53.1 1.694 1.04 3.002.33-.182.2-.359.56-.401.95-.25 2.26 3.125 2.61 3.368.37.159-1.44-1.35-2.21-2.381-1.75M125.231 398.902c-.128.01-.664-.92-1.757-.88-.522-.02-.708.15-1.048.32.132-1.82-1.647-1.43-2.226-2.69-.252-.39-1.378-1.17-2.002-1.2-1.596-.09-2.48 1.92-1.178 3.01.03.02.242.6.605.93.064.06.106.13.179.18l.065.02s.033.05.072.06c.028.02.082.03.082.03.04.03.063.08.106.1l.1.05.085.06c.074.04.154.04.23.06.324.11.094.09.382.24.306.16.215-.01.491.22.183.15.042.09.268.21 1.726.93 2.012-.4 2.012.11 0 1.19 1.2 1.79 1.962 1.83.554.03.168-.03.582.33 2.518 2.22 4.334-3.27.99-2.99M233.789 404.202c-1.577.05-2.588 2.3-.47 3.35 1.058.34 2.244-.46 2.249-1.63 0-.89-.74-1.75-1.779-1.72M205.284 406.982c-2.477 1.61 1.051 4.61 2.712 2.48 1.274-1.62-.899-3.66-2.712-2.48M175.668 411.132l-.063.01-.061-.02c-.045 0-.083.03-.127.03-1.688-.97-3.411 1.01-2.339 2.48-1.886.73-.951 3.48.408 3.28.039.02.065.05.104.06.058.02.116.01.174.03.077.06.364.14.487.13.125.03.116.07.225.1.162.04.73.03.938-.04.578-.18 1.032-.74 1.151-1.22.194-.77-.149-1.15-.362-1.53 1.804-1.09 1.003-3.2-.535-3.31M246.199 413.832c-.073 0-.137.04-.208.05-.071 0-.139-.01-.21 0l-.278.11c-.053 0-.103-.01-.155 0-.064.02-.11.06-.17.08-.503.19-.809.08-1.259.35-1.552.64-1.376 2.92.347 3.24.673.12.511-.03 1.058-.1 1.36-.16 2.815-.63 2.815-2 0-.94-.727-1.73-1.94-1.73M229.891 412.152c-2.656-1.17-3.856 2.08-1.866 3.01 2.093.98 3.69-1.85 1.866-3.01M251.626 410.762c-.037.01-.075 0-.113.02l-.086.05c-3.013-.58-2.23 4.9.6 3.29h.268l.078-.01c2.313-.44 1.461-3.92-.747-3.35M203.503 413.182c-.268 0-.171.11-.404-.04-1.017-.29-2.107.48-2.182 1.53-.161 2.2 3.604 2.84 4.288.5.176-1.12-.771-1.99-1.702-1.99M267.608 411.082c-.18-2.23-3.556-2.01-3.372.28.185 2.31 3.552 1.95 3.372-.28M226.069 418.272c.358-1.34-.407-2.43-2.815-2-.867-.18-1.674.36-1.943 1.01-1.155 2.77 4.141 3.29 4.758.99M200.027 416.442c-.548.03-.006.06-.769-.07-2.423-.31-2.717 3.16-.484 3.39l.088-.01c.108.01.166.07.213.08 2.874.71 3.815-2.94.952-3.39M359.559 64.102l-4.661-4.34-.447.48 4.66 4.34zM11.57 148.322l-.621-.21-.109.33.621.21zM411.769 154.942l-.622.21.216.65.312-.11-.312.11.111.32.62-.21-.216-.65-.31.11.31-.11z"
        style="fill:#c6c6c6;fill-rule:nonzero" />
    <path
        d="m409.311 271.852-.406.7.913-2.63zm-31.045 61.78-2.848 2.25 6.765-8.36zm-5.328 5.28.383-.58.139-.07-.046-.09.021-.05.082.1 2.804-2.22-7.305 8.88zm-34.598 35.52-12.906 7.16 19.556-13.67-5.594 5.67zm-14.28 9.96-2.275 1.3.222.39-.222-.39-.76.43-.206.1.153.29-.153-.29-2.284 1.31.222.39-.222-.39-.76.43-.209.11.156.28-.156-.28-.557.33-.204.1.157.29-.157-.29-.542.33-.215.11.157.28-.157-.28-.544.32-.216.11.158.29-.158-.29-.553.33-.204.1.157.29-.157-.29-.544.33-.432.22.157.28-.157-.28-.542.32-.218.11.158.29-.158-.29-.553.33-.203.1.156.29-.156-.29 8.009-5.82.414-.21 5.407-1.82zl.163.28zm-12.746 7.34.122.2zm-.908.66.056.09zm-3.421 1.71h-.05l-7.226-2.1 18.316-5.94-10.579 7.67.198.26-.198-.26zm-3.408 2.18.057.09zm-2.159 1-.218.11.158.29-.158-.29-.553.33-.755.43.165.28-.165-.28-2.36 1.4-10.652 3.82 15.018-6.38zm-26.866 10.5-.149.08h-.245v.33l-.08-.32-17.119 3.28 23.85-7.84-5.932 4.36-.282.1.104.31zm-8.723 3.13-3.968.88 5.81-1.55zm-116.455-1.72-1.896-1.83 17.568 5.5zm-55.557-26.63-.198.27.143-.3-.167-.08-.184-.18-.226.23.226-.23-5.127-4.59 19.767 10.89-12.771-4.95-.183-.09zm-9.396-7.27.186.18.233-.23-.167.29.524.31.517.41.995.9-3.347-2.56zm-21.196-18.01-1.844-4.09 17.751 16.94-14.759-11.7zm-52.741-88.78-.406-1.53.635-3.65 6.041 17.72zm-6.699-34.03-.251-13.4 1.216 14.13-.086.25-.726 1.64-.046-1.01-.326.02.309-.1-.09-.27zh-.327zm.324-51.13v-.42l.108-.86-.327-.03.327.03.144-2.31.719 1.38v.77l-1.393 13.75zl-.328-.01zm6.933-28.91v.23l-.085.25-.1.2.531.27-.237-.01-.311-.11s-2.497 7.98-4.099 13.11l3.746-16.65zm8.739-27.94-.071 3.63h.327-.327v.13l-.505.91.291.15-.291-.15-5.116 10.44zm11.426-19.46.736-4.42 8.465-11.94zm14.21-23.5.303-.3.291-.2-.073-.11.043-.06.12.08.194-.29.526-.52-.199-.2.199.2 11.66-12.27-14.187 20.12.55-5.69zm42.21-40.92 20.35-11.35-23.3 16.17 2.476-4.44zm7.895-6.27 1.511-.87 10.195-4.54-16.436 9.17zm21.384-11.82-2.595 2.41.079.08.036.27-.104-.31-.325.1.104.32-.181-.28-.325.22.069.1-.075.11-.056-.13-9.475 4.2zm57.268-19.38.194-.1.381-.09.625-.14.13.97-.242.05.064.32-.142-.3-.217.11.286.59.18-.09.155-.03.46 3.68-26.126 4.91 25.183-8.45-.104-.32-.069-.32-15.987 3.44 14.913-4.2h.169v-.32zm49.392-2.89 3.936 2.42-19.1-.92 14.64-1.5zm53.383 10.46.027-.06zm18.953 7.49.201.1-.606-.25zm9.215 4.37.034-.11zm14.867 9-.36-.18-.313-.21-.181.28.147-.3-.208-.1-.587-.4zm24.397 17.12-.102.15zm5.743 5.2-.127.15zm22.461 23.86-.345-.26-.613-.82-.55-.77zm30.002 50.15.217.65.309-.11-.309.11.755 2.42-3.435-8.55 2.258 4.85.096.3.31-.1-.31.1zm14.835 96.06v-.13l1.169-9.69-.192 9.94zm-.11.96.053-.31.988.13-1.238 9.77zm-4.442 17.63v-.43h-.083l.08-.2 3.275.18-3.183 13.54zm-6.496 15.78.073-.15-.3-.13.3.13 5.45-13.81-4.633 26.96zm.734 17.16.322-.85-.306-.12.317.08.094-.38.192-.28-.221-.14.221.14.397-.7-1.787 5.1zm-7.041 15.17.209-.63 2.728-5.82-4.328 11.43zm-2.17-11.6 1.739 10.82-.182.55-7.811 13.27zm-7.042 27.53-.31-.1zl.058-.18 4.141-1.64-7.849 12.68zm-1.291 1.79-3.879 11.54-.071.14-5.796 1.59zm-10.323 14.19.044-.09 5.799-1.59-10.9 13.48zm-21.845 29.24.257-.17 5.993-2.57-12.798 11.39zm-9.425 12.02.019-.05-.143-.29.231.23.3-.3.531-.42 1.553-1.13-4.178 3.67zm-14.565 7.08 10.975-5.36-20.217 14.13zm-18.034 5.32 4.248 6.62-19.297 6.27zm-30.492 23.04 13.818-8.87 7.308 2.11zm17.884-4.65.111.19zm-.81.35.163.27zm-19.367 5.84-.194-.26.232.23.161-.16 16.885-5.39-22.436 9.52zm-25.086 3.54h.185v-.33l.147.29.172-.08 20.5-2.85-26.293 8.63zm-6.169 6.57-.038-.07-.001-.33.047.33.764-.11-.054-.33.054.33 12.753-2.42-17.598 4.67zm-2.38.48-4.469 2.27-13.635 1.24zm-45.847 1.83h.37l15.458 2.42-18.158.17zm-37.928-17.12h.158l9.284 8.69-29.202-5.18zm-20.042 8.46.065.04v.06h.138l.159.08.138-.3-.138.3.709.3 1.636 1.58-14.133-5.27 11.402 3.3zm-26.811-10.66-3.889-4.06 25.251 12.11-20.785-7.67zm.494 1.12-.059.1zm-20.197-11.42-.125.26zm13.735 5.33.069-.18.053.08-.041.09.194.09.288.19 3.568 3.73-17.479-9.17zm-30.768-22.17.421.42.231-.23.142-.03-.033.14-.297.14 2.36 5.05-18.536-17.68zm-20.92-17.14-.776-7.76 19.459 22.33-18.631-14.47zm-18.599-26.29.076.23.439 6.41-10.681-20.02zm-13.206-17.55.078.16.095.29.636 5.17-7.914-15.51zm-9.582-19.97 7.954 16.59-7.448-10.38-.506-1.32zm-.945-2.16.309.72-.018 4.52-6.031-16.72zm4.029-9.28.047.1-3.474 8.93-7.461-21.88zm-12.5-16.12.266-.09.004.11-.268.09.107.32.175-.06-.175.06.308.93v.35l-.573 3.3-3.778-17.66zm-5.002-23.65 3.545 16.76-3.99-12.82-.311.1.311-.1-.101-.3-.304-1.72zm-2.261-27.94.273 12.19-.807-12.04zm.095-3.25-.1 2.58-.509.14.89-10.92zm2.551-18.68.699 20.69-2.689.43.093-2.41zm14.751-55.67 3.255 7.6-.04.08.291.14-.125.1-.241-.19-10.798 13.82 7.455-21.18zm7.879-17.71-7.485 15.29.079-3.98.504-1.11zm2.457-5.09-.092.38-6.587 9.78 7.316-13.98zm30.239-34.93-.06.12-13.663 14.02 14.448-20.48zm1.633-7.47 18.159-14.28-19.04 20.94.746-6.52zm47.121-32.45-18.455 10.51 21.8-15.13zm5.185-5.82 19.641-2.64-23.738 8.07 3.886-5.36zm31.952-14.73h.11l-1.802 3.18-22.79 8.12zm-1.582.01-.065.03-.03-.1.054-.02zm.25-.12-.063-.05.041-.02zm2.182-.83-.168.08-.4.1.078.31-.144-.28-.151.07h-.137v.33l-.108-.29 1.254-.47zm2.889-1.14 8.191-1.95-9.12 2.57zm-3.524 1.89-.071.13v-.27zm19.335 5.81-19.023-2.25 28.224-5.31zm10.505-12.89v.33l-.079-.32-.287.08-.132-.99 13.962-1.48-13.285 2.38zm27.492-2.06h-.724l-1.953-1.5 15.82.15zm2.702 5.32h-.091l-2.565-4.66 21.882 1.05zm22.701-4.13-.005.23zh-.57l-3.672-2.26 18.842 3.25zm21.878 1.85v-.24l.057.01zm.472-.01.02-.11zm5.65 5.1-4.902-4.42 24.254 7.66zm25.1 4.36-.523-.21-3.899-2.4 15.811 6.66zm15.729 9.5-.215-.07-12.747-7.75 19.221 6.84.013-.04-.013.04.207.07zm16.391 13.2-14.698-11.89 18.678 6.75zm4.622-4.8.3.3.087-.1-.087.1 11.069 9.8-15.373-5.03 3.949-5.1zm13.572 11.05-.032.07zl-.189-.1-8.87-7.79 18.025 12.79zm2.986 2.38 10.538 5.76.43.32.73.63.199.19 5.991 7.39zm26.748 27.62-16.06-14.33 9.324 3.66.258.17.176.18zm1.856 1.76-6.416-10.49 12.669 12.39zm8.083 3.26.131-.19zm-7.365-2.36 6.354 1.94.236.31 4.914 10.56zm24.726 30.93-.081-.4-.322.06.307-.11-3.426-9.3 7.538 12.21zm8.906 16.47-1.61 9.67-6.421-23.48 7.85 13.17zm.64-.14-.208-.73-.313.09.313-.09-.469-1.46 2.05 5.11zm6.514 14.39-.401.16.203.49-8.099-4.05 1.629-9.78 5.732 12.17.179-.09-.179.09.097.19.105.31.143-.04-.113.11.324.54.281-.17.068-.02zm-.014 16.71-.21.09-.2-.07h.328l.742-12.78 4.836 26.36zm9.992 18.69.439 12.29-3.703-13.72-.15.05.15-.05-.037-.11 3.221.9zm2.28 16.96.306 9.18-1.259-9.76zm-1.006-1.38-.079-.48-.305-8.53 1.294 9.56zm-10.723 68.12 2.051-30.56 3.725 15.19.161-.05-.161.05.095.28v.21zm.344 17.89-8.196 2.73 7.209-17.33zm-19.25 23.67 9.282-17.33-6.237 24.56zm-.406.72 3.163 7.51-.05.15-10.141 13.81zm-14.329 37.25-.123.18-6.523 1.04 11.702-13.03zm-7.35 2.17.135-.2 6.451-1.03-13.036 12.47zm-50.015 37.65-.015-.12.123.01zm-18.681 2.55 17.652-2.1-15.346 13.14zm-19.685 15.34 20.104-3.04-14.515 9.32zm-45.063 17.5 24.329-6.5-5.2 5.57zm-3.146.8h.105l-.007-.32.007.32 18.395-.89-22.728 4.42zm-25.38.65 2.923-5.85h.188l19.83 4.67zm2.199-5.87-2.895 5.79-.064-.02-.087.29.087-.29-24.119-6.74zm-12.787-9.46-17.102 7.74-9.465-8.84zm-48.987 1.97-7.067-8.05 26.401 4.62zm-.123.36.026.15-.093.04zm-35.852-17.84.16.16 3.669 5.82-23.905-17.22zm-27.277-23.53 21.162 12.97-19.291-4.41zm-.851-.69.055.12 1.799 8.23-19.297-22.15zm-20.927-16.81.196.39.293-.15.126.02-.018.09-.326.03.755 7.55-14.753-21.93zm-29.243-34.72-.053-.16 2.834-9.97 8.937 25.46-11.417-15.03-.22.17.19-.2zm2.421-11.26-2.894 10.19-9.411-19.62zm-13.111-10.46-.084.11h-.171zm3.824-8.93 8.724 18.14-12.153-9.32zm-11.841-15.68 3.825-6.38 6.957 19.32-10.782-12.72zm-5.569-26.24 3.586-3.4.038.15.635-.16-.098-.39v-.11l6.593-4.33-1.585 24.57-4.91-19.63-.317.08-.328.02 1.057 25.7-4.726-22.34zm6.323-27.79v.16l-2.502 20.32-2.587-19.35v-.75zm-5.955-25.93 3.464 2.55v.25l-2.724 18.69zm3.572 1.49-.037.3-3.497-2.58 4.856-21.99zm5.793-22.45.034.07-.069.21.271.08-.271-.08-4.926 18.95 1.335-24.52zm.194-.87-3.598-5.26v-.1l10.92-13.98zm17.089-39.86-8.749 17.89-3.269-7.63zm1.091-1.38-.13.08zm12.548-17.27-.037.08-11.209 14.78 8.924-23.96zm35.25-44.68-16.859 13.43 18.617-20.47zm21.629-13.37-20.8 12.75 1.84-7.36zm2.175-1.32-.088.04-18.877 5.37 22.67-12.92zm.958-.46 3.751-7.6 24.011-8.16zm30.885-17.59-19.717 2.64 26.435-9.46zm8.065-7.61-.01.1-.098-.1-.028-.07zm-7.017 7.47 7.042-7.14 19.279 2.28zm55.195-6.64-26.075 1.29 9.384-7.7zm35.631-11.77h.119l4.137 5.68-23.85-2.01zm28.568 6.61-.078-.03.102-.12zm18.162 9.25-16.22-8.59 21.834 3.65zm20.594 14.63 2.011-9.66 15.396 12.46zm35.753 9.25.368.27 10.551 12.34-26.17-17.6zm13.232 14.27-10.32-12.03 19.62 15.68zm11.078 16.87-.03-.06-.068.05h-.047l.115-.05-9.588-14.63 16.893 15.07zm16.341 18.91-6.991-16.12 11.982 13.34zm16.706 13.55-2.906 6.29-7.094-20.21 9.925 13.55zm-2.543 7.07 2.905-6.29 6.396 23.39zm13.815 126.16-.065-.2 7.45-14.5-2.06 30.67zm-7.899 22.64 7.58-21.53 5.579 16.77zm-.237.78 13.178-4.76-7.523 18.09zm-5.211 33.91-6.402-9.55 16.395-9.11zm-13.344 20.67.018-.05 12.121-17.69-7.029 21.48zm-.312.6 5.128 3.73-12.107 13.48zm-27.58 37.14.159-.16 9.46-3.09-19.818 15.73zm-29.658 2.78-1.02 16.95-17.974 2.15zm-82.232 45.76 20.886.1-25.217 6.73zm-.815.06-4.422 6.98-20.102-4.73zm-27.985 1.74-27.953-1 16.971-7.68zm-24.503-22.92 12.776 13.5-27.19-1.13zm-15.421 12.34-9.998-12.99 24.58.51-14.538 12.48zm-10.83-13 9.896 12.86-27.293-4.77zm-18.781 8.45.097.04 6.943 7.91-27.012-9.39zm-32.106-18.66.182.1 3.681 8.37-22.845-12.8zm-3.342-11.91 3.136 11.02-21.745-13.32zm-21.027-14.89.498 11.16-18.879-14.94zm-34.439-33.82.061.18-2.532 10.23-8.915-25.4zm-4.533-32-7.833 14.23-9.114-18.95zm-17.525-5.12-.093-.04.12-.05zm-.088-29.92-.3 27.79-7.121-19.78zm-.013-.95-7.556 8.16 1.623-25.17zm-7.462-82.37 1.167 23.85-6.443-3.22.076-.62zm7.916 4.14-7.323-6.83 7.422-19.66zm.657-.76.101-26.8 7.641 9.93zm17.178-33.77-9.101 16.26-7.873-10.23zm.263-.79-16.911 6.01 9.213-18.84zm.246-.86-7.568-12.61.122-.25 11.775-15.53zm20.552-46.96-14.011 14.97 12.648-24.52zm18.66-16.53-18.503 5.03 19.095-15.2zm.962-10.99.019.11-.127-.13zm19.875-3.77-18.247 3.16 21.525-13.2zm27.8-17.94-.111.06-20.967 5.96 27.71-15.72zm25.921-4.14-16.602-6.54 26.663-4.93zm26.184-.91-14.468-10.88 26.976-1.32zm13.309-12.94-16.641-6.4 27.295-1.1zm26.72 1.77-13.435-9.21 25.003 2.11zm12.507-7.69-4.107-5.63 24.523 6.1zm20.359 9.44 3.265-8.11 16.626 8.81zm41.232 15.08-18.36-13.32 20.365 3.69zm19.89 19.09-18.588-18.09 17.579 2.83zm15.835 1.5-13.891-14.84 25.702 17.29zm1.027.88 12.187 2.53.222.23 9.809 14.95zm23.702 19.21.04-.04zm16.356 18.97-.078.03zm7.905 29.48 6.065-8.35 10.089 18.54zm17.007 11.39-.07-.04.114-.05zm-5.396 12.91 5.432-12.07 7.616 18.04zm7.929 22.42-7.667-21.58 13.087 5.98v.06zm.248 1.28 5.374-15.41 2.38 30.53zm8.626 17.37-.091-.27v-.34l3.554-14.59 1.766 30.7zm-7.755 17.13 7.119-16.05v32.16zm-.049 1.5 7.199 16.3.1-.05-.1.05.06.12-.077.39-7.58 14.76zm-17.819 41.12 16.627-7.24-7.65 21.73zm-25.701 89.7 7.42.29-17.122 15.28zm-25.183 20.09.119-.06 12.087-1.64-26.49 17.72zm-.942.07-15.248 17.1 1.017-16.9zm-30.72-1.51 15.467 1.64-19.052 19.16zm-4.177 21.78.092-.02zm-19.416.2 18.449.1-18.652 14.4zm-.658.23-.204 14.62-20.95.2zm-22.405 15.57 3.422 9.66-22.038-.1zm-32.527 1.32 11.662 8.32-25.68 2.35zm-1.181.08-13.878 10.56-11.062-8.75zm-14.671-14.33-11.164 15.37-12.801-13.53zm-39.064-17.67 13.736 18.9-24.911-.52zm-37.306 15.54 24.214 3.33-17.152 7.97zm-25.139-6.92.127-.03-.157.09zm22.544 5.68-22.097-5.87-.187-.1-3.062-10.87zm-65.909-48.91-1.363 11-12.548-25.98zm-29.486-66.03 8.901 16.08-16.689-4.65zm-.346-.65-7.743 11.36.302-27.94zm-13.929-37.25 13.808-.21-7.602 18.05-6.206-17.79zm-4.443-19.3 9.738-.3-5.579 18.03-4.159-17.54zm4.007-19.65-4.212 17.04-2.271-20.36 6.483 3.25zm6.718-19.64-6.147 17.66-1.199-24.5zm18.923-1.21-18.175.93 8.073-17.59zm.011-1.24-9.774-16.12 8.968-16.02zm10.602-50.5-10.489 15.63 4.313-28.28zm9.542-30.32L66 98.202l-18.741 2.74zm.391-1.39-1.417-9.92 18.432-5.01zm39.076-30.49.132.03zm104.104-21.37-23.57-1.64 12.547-12.24zm28.146-19.84 18.054 8.53-29.362-1.59zm19.712 8.58-18.432-8.7 21.734.5zm21.882 1.45.103 12.93-20.625-13.65zm.76 13.33-.102-12.91 18.352 13.32zm23.675 20.79-3.677-19.1 18.793 18.29zm16.186-.84-1.013-15.3 15.179 16.21zm30.227 21.96-.137.02.103-.08-13.365-18.67 22.375 17.84zm25.634 18.29-7.229 4.43-7.634-21.6zm10.654 67.93 8.836-13.4 7.742 21.79zm7.779 60.31.023-.05 9.776-15.27-.404 32.09zm-.274.85 9.681 17.28-16.749 7.31zm-18.389 52.55 10.837-26.73 9.083 14.66zm20.243-11.89.109-.11.019.06zm-20.553 12.84 19.794-12-10.804 22.83zm-5.56 36.06 13.755-22.33-6.353 27.73zm-20.182 24.84-13.745 20.07-.077.04-14.509.2zm-22.878-7.66-6.349 27.89-.02.06-15.492-1.64zm-22.574 26.69.069-.12-.013.13zm-58.039 28.28 32.869-5.82-21.026 14.73zm10.249 9.71-18.542 9.52-11.525-8.22zm-32.013.74-25.433 1.85 11.179-15.38zm-31.276-34.38 16.328 20.07-24.228 1.86zm-.636-.17-7.844 21.78-13.728-18.89zm-33.979 21.46-10.376-17.33 21.596-1.13zm-25.999-3.42-6.434-14.18 30.7 17.51zm-.302.63 6.818 10.9-28.54-16.67zm.193-.32-.13.08.022-.08.116-.05zm-7.491-15.18.188.13 6.423 14.15-25.58-16.99zm-23.149-17.33 2.126 13.26-19.189-13.76zm-17.287-15.62-1.215 14.08-17.43-15.4zm-15.568-16.7-4.169 14.34-14.734-15.87zm-13.385-17.28-6.283 13.86-3.987-29.32zm-9.971-51.61-1.21 33.38-8.876-16.03zm-18.262-.83 18.126-.25-10.289 17.7zm-.327-.36.001.11-.087-.08zm18.629-.54-18.134.2 7.678-18.22zm-11-19.07-13.686.2 5.677-18.35zm-7.164-56.76 7.498 17.22-13.78.82zm8.027 16.79-7.57-17.39 18.017-.92zm23.322-36.91-12.104 17.38-.838-33.43zm-13.207-16.96h.142l-.11.09zm11.473-16.31 13.09 11.96-23.729 3.89zm28.231-33.57-14.702 15.52-3.882-13.27zm.396-.7-18.363 2.22 17.348-15.22zm-.732-13.59-.101.01zm18.039-1.82-16.876 1.4 19.167-13.65zm23.09-16.8-18.597 3.19 25.207-16.41zm1.034-.6 6.603-13.2 23.716-3.61zm44.006-.41-11.403-16.79 25.093-.83zm22.419 2.54-7.684-20.15 23.799 1.66zm16.945-19.25-11.032-13.89 25.025 1.63zm34.75-2.78h-.039l-18.181-9.34 29.583 1.6zm.947.15 11.502-7.84 20.705 13.7zm73.431 26.85 6.252 25.94-21.439-25.12zm55.324 79.42 8.771-9.9 10.913 22.85zm11.234 27.59-10.955-26.62 19.878 13.08zm17.198 9.74-9.364 16.24-7.263-24.65zm-9.135 17.19 9.125-15.85.705 31.66zm.21 32.58-.202-31.32 9.871 15.87.062.25zm-19.497 11.97 18.539-9.98-7.084 24.64zm-10.882 31.35 21.649-14.98-10.774 26.57zm-3.796 40.09 14.73-27.21 9.073 10.93zm9.054 7.93-9.418-6.89 23.607-16.14zm-8.335 25.04-.069.1-9.184-1.69 16.687-21.21zm.079.57.005-.1zm-9.872-1.59 9.222 1.7-22.755 18.2 13.602-19.86zm-11.342-3.02 10.634 2.84-28.144 20.18zm-.669-.2-17.769 23.35 6.193-27.21zm-47.755 15.29 34.4-18.39-21.615 26.02zm-23.07 20.73 34.469-11.76-22.299 20.66zm-.755.26 12.116 8.86-32.787 5.8zm-22.298 15.63 11.773 8.86-30.298 1.31zm-1.06-.16-18.932 10.39-14.283-13.56zm-15.059-14.32-18.986 10.32-16.202-19.92zm-54.179-36.73 17.426 26.29-21.718 2.91zm-27.321 30.44-9.838-21.01 31.606 19.87zm-.286.66 10.102 16.86-30.814-17.57zm-45.436-18.64.009.12zm-16.846-15.01 15.978 14.66-17.198-.51zm-1.076-.98-18.711-1.32 4.194-14.43zm-14.764-47.05-13.318 13.22-10.542-15.87zm-11.026-21.44-13.249 17.15 1.238-34.13zm-11.682-56.09-.824 36.88-10.264-17.68zm-.342-.72-11.087 19.19-8.2-18.57zm-19.632-.62-5.569-17.84 13.931-.82zm8.925-18.96-.087.05-.006-.11zm10.945 17.91-10.691-17.92 10.284-18.02zm12.419-54.6 1.95 35.07-13.946-17.84zm.226-1.66-12.951-16.06 24.089-3.95zm11.526-21.09-13.199-12.06 12.785-16.09zm14.222-21.25-13.865-7.81 14.683-15.5zm1.451-24.95-1.006-12.89 17.143-1.42zm39.899-31.68.139.07.01.15-.119-.04zm21.954-1.65-20.384 1.3 30.424-16.87zm.771.01 10.255-15.9 11.286 16.62zm22.782.8 13.594-17.5 7.623 19.99zm38.764-16.21h.1l18.564 9.54-34.811 8.99zm-.039-.23-.057-.05.057-.05zm56.953 11.36-.14-.05-20.434-13.73 32.514 5.92zm.784.27 11.915-7.85 22.099 19.55zm35.493 12.61-.035-.06.109-.02zm-12.814 7.11 12.776-6.8 21.488 25.18zm47.546 16.05-11.59 3.28-6.309-26.12zm.694-.17-17.301-22.08 27.682 19.96zm19.53 26.86-7.542-27.12 17.034 21.2zm9.921-5.81-.045-.07.045-.04.049.08zm-9.511 6.32 9.407-5.87 14.025 22.51zm15.4 28.04-14.877-26.86 23.747 16.86zm-10.913 11.88 10.837-10.84 11 26.73zm11.296 31.22 11.224-13.8 7.312 24.82zm6.993 28.37 11.772-15.46.204 31.63zm-.22.8 12.124 16.37-18.712 10.09zm-6.976 27.88 11.464 14.66-22.017 15.24zm-26.105 62.31 15.067-31.17 10.996 11.72zm26.537-19.42-.107.11zm-26.987 20.57 25.886-19.31-14.793 27.33zm11.425 8.88 9.446 6.91-16.9 21.48zm-1.027 1.34-7.436 28.32-10.759-2.84zm-.514-.41-18.349 25.69-11.721-3.91zm-44.358 16.82 12.997 5.18-34.029 18.19zm-22.766 25.12 12.767 7.62-34.508 11.78zm-59.654 21.93 35.296-1.33-21.006 14.89zm-1.032.03h.113l14.172 13.45-33.209-3.16zm-17.24-19.5 16.203 18.57-35.126-9.57zm-.838-.33-18.949 9.01-17.293-26.09zm-55.633-12.48 17.986-5.09-4.253 28.94zm-.656.17 13.635 23.68-31.474-19.79zm-36.064 6.66 17.178-2.55 9.793 20.91zm-.993.14 5.7 17.3-21.581-16.18zm-18.347-19.41 1.221 19.47-15.999-14.68zm-15.414 4.65h-.109zm-1.072-25.53.615 24.67-14.534-15.76zm-14.837 7.93-12.694-16.07 13.416-13.32zm-10.473-50.61 10.844 20.14-24.313-2.71zm-12.195-18.58 14.232-18.88-2.257 35.81zm14.301-20.06-14.278 18.94.825-36.95zm-13.552-20.27-.417-36.77 14.144 18.09zm29.795-37.04-15.415 17.48-1.967-35.38zm-17.739-18.78-.092-.03.072-.06zm28.623-6.45-28.009 5.9 11.162-20.06zm-16.518-15.82-.41-27.86 13.876 7.81zm29.93-40.66-15.685 19.5.822-23.42zm.133-.64-14.639-3.86 16.162-14.34zm18.38-18.89-15.503-.5 21.341-15.6zm.874-.48 5.912-16.31 20.806-1.33zm18.145 2.11 9.854-19.81 21.191.71zm36.784 8.25-4.165-27.28 21.374 2.5zm17.975-24.97-.021.05-.127-.09.069-.03zm19.717 8.38h-.114l-18.592-8.36 34.554-8.92zm17.031-18.2h-.12l-18.313-9.41 32.327-2.75zm.956.04 14.032-12.28 20.72 13.92zm59.034 21.35-21.299-18.36 33.875 11.66zm22.809 24.4-20.951-22.58 33.91 18.19zm25.781-7.38 18.041 24.9-29.529-21.64zm8.438 34.11 11.116-7.06 14.763 26.65zm.624 1.29 26.045 19.72.037.05-10.865 10.87zm26.508 61.86-10.714-29.78 21.943 15.97zm7.192 28.09-6.688-26.75 18.629 11.07zm-19.304.54 18.763.52-6.634 26.63zm-7.131 27.74 18.93.73-10.595 30.02zm8.294 31.84.079.03zm-18.719-1.47 18.219 1.76-15.106 31.25zm2.878 34.78 11.054 7.98-30.091 21.8zm-17.665-2.38-2.885 33.19-13.094-5.22zm-32.211 21.48 15.216 6.77-21.545 23.94zm-44.743 39.46 36.642-7.12-22.035 19.66zm-.843.14 14.553 12.49-35.185 1.33zm-1.001-.11-20.869 13.98h-.077l-16.353-18.75zm-56.865-29.31 17.485 23.25-36.045-16.99zm-38.21 11.05-17.394-26.61 35.191 21.57zm-18.046-26.41 17.368 26.57-18.098 3.95zm-19.145 8.24 17.64 22.42-17.332 2.58zm-.014 25.38.021.13zm-.706-.28-15.893 1.12-1.221-19.46zm-31.007-77.65-17.07 15.31-10.862-20.17zm-28.539-5.41v.11l-.074-.06zm17.873-19.83-17.488 18.93 2.276-36.11zm-15.211-57.05-.06.05-.071-.05.071-.06zm17.24 18.25-16.907-18.26 15.459-17.53zm-1.255-37.2-17.544-18.06 28.247-5.94zm24.658-49.56-13.491 24.6-16.975-14.27zm-16.656-10.54 16.572 9.88-30.054 10.19zm17.115 9.44-16.781-10 15.744-19.58zm18.497-49.87 26.631-17.58-9.758 19.61zm35.543 5.59-17.588-3.37 31.349-19.28zm.669.16 13.717-22.58 4.147 27.16zm73.194-30.13 20.711 13.22-36.797 4.24 16.001-17.46zm21.64 13.04-20.336-12.98 34.641 1.63zm45.369 38.45-6.446-29.31 21.543 23.21zm32.103 21.51-15.958-27.31 12.982-4.39zm17.576-1.71-18.99-29 30.011 22zm-2.685 33.7 2.915-31.75 15.303 30.81zm10.707 30.15 8.071-29.7 10.759 29.9zm19.277 1.38 6.749 26.99-18.69-.52zm-12.357 27.89 12.079 27.05-18.79-.72zm-7.166 27.97 8.265 30.48-18.185-1.75zm-23.773 59.88 13.199-29.49 3.103 32.91zm16.568 3.71h.054l-.074.1zm-16.828-3.1 16.277 3.42-19.184 30.02zm-40.09 54.02-15.078-10.23 21.378-20.34zm-15.582-9.78 14.948 10.14-36.481 7.09zm-40.49 1.19 16.573 16.17-37.06-4.74zm-19.264-20.69-2.528 31.69-17.84-23.72zm-34.185-21.07 12.849 28.7-18.884 6.37zm-6.35 35.41.032.1-.08-.01-.027-.1zm-17.682-31.81 16.74 30.89-35.409-21.71zm-38.851 17.97.311 25.13-17.3-18.54zm-16.598-25.61-1.25 31.17-15.704-20.04zm-.527-.44-16.811 11.03-13.404-20.42zm.096-.66-30.61-9.5 17.275-15.5zm-24.287-49.98 10.543 24.12-28.269-4.92zm-15.572-19.57.208-37.11 16.944 18.3zm17.175-17.86-1.863 36.11-15.301-17.28zm19.076-19.53-18.404 17.78-1.456-35.98zm10.263-28.13-29.896 8.65 10.701-24zm13.339-29.48-31.929 12.95 13.476-24.56zm-2.39-36.94-15.782 23.73-1.03-29.4zm.297-.58-17.016-5.75 17.532-18.05zm.665-.54.518-23.82 17.121 2.06zm18.929 7.38-.413-29.01 17.757 3.41zm.786.01 17.251-25.47 17.778 4.55zm55.135-15.38-18.547-5.77 35.89-16.19zm39.948-11.72-20.376-10.97 36.809-4.24zm40.058 1.51-21.408-16.57 36.328 7.31zm.51.46 14.96-9.29 6.397 29.09zm55.038 43.12-2.997-31.92 19.157 29.25zm13.572 29.7-13.344-29.07 16.259-2.69zm.63 1.77 18.222-.94-8.06 29.66zm10.6 30.15 18.822.2-11.876 26.34zm-18.915 27.42 25.387.42-6.791 26.64zm-6.145 26.89 24.502 1.26-10.073 29.17zm-8.589 28.86 22.633 2.71-13.37 29.87zm9.152 33.74-.066-.1.021-.08.088-.03zm-20.145-4.81 19.3 4.85-31.472 21.78zm-12.864 27.47v-.11zm-17.708-8.33 17.217 8.35-21.477 20.44zm-22.448 16.77 17.19 12.92-22.014 17.61zm-.703.25-4.771 30.19-16.7-16.29zm-22.515 13.77-20.668 11.52 2.493-31.26zm-53.486-42.21-6.082 35.34-16.783-30.96zm-23.475 4.14.069.02-.046.03zm-34.715-19.73 34.023 19.71-18.605 9.15zm-4.359 37.46L97 326.542l1.238-30.88zm.617-.26-15.79-24.25 33.954 16.2zm-.122.41.036.09zm2.11-38.5-18.678 12.35-13.284-24.91zm-13.21-29.94-19.334 16.22-10.499-24.01zm-30.478-8.24.064-.03zm20.568-19.92-20.24 19.19 1.879-36.41zm-18.602-17.99-.05.05-.057-.05.057-.06zm18.909-17.92-.21 35.1-18.328-17.19zm.085-1.24-19.909-18.24 29.916-8.65zm10.524-27.91-19.282-15.42 32.1-13.03zm29.034-57.79-15.662 28.29-18.585-11.69zm-34.806 16.49-.064.1zm17.265-25.07 17.685-21.82.417 29.21zm-.494.51 18.015 7.35-33.806 16.39zm-.061-.31-.084-.06h.107zm38.138 15.99-18.696-8.46 35.493-21.2zm17.695-30.68.024-.1zm6.212 34.13-5.817-33.66 18.658 5.8zm33.842-20.75-20.012-7.46 17.711-22.43zm.654-.06-2.3-29.87 20.442 11zm40.56-5.53-21.347-13.48 16.656-15.4zm.68.09-4.659-28.68 21.533 16.67zm22.233 16.35-4.235-27.36 21.275 19.72zm30.489 19.07-11.949-25.55 31.223 21.51zm11.172 28.72 8.978-31.53 13.513 29.44zm8.673 28.43 14.165-29.27 10.206 28.85zm24.695.77 6.973 26.64-25.287-.41zm-18.781 27.46 18.49 26.9-24.307-1.25zm-6.153 26.98 14.337 30.23-22.606-2.71zm-8.672 28.86 9.258 32.56-19.513-4.91zm-41.795 47.79-4.245 28.69-17.091-12.84zm-21.969 15.96.067-.11zm-19.051-15.18 18.474 15.15-21.482 13.9zm-.629-.28-3.026 29.22-18.166-19.72zm-30.634-18.29 8.108 26.82-33.298-21.05zm-38.211-25.41 11.979 30.73-22.924 4.4zm-27.048 1.89 14.914 32.85-34.21-19.82zm-4.631 42.35-34.482-16.46 18.984-12.55zm-16.112-30-32.127-12.62 19.444-16.31zm-22.929-56.8 9.802 26.9-29.926-7.81zm21.198-19.22-20.729 17.82.21-35zm9.492-30.11-29.884 11.56 10.019-26.93zm-6.396-45.08 19.278 12.36-32.134 16.18zm-.128-.47-.049.14zm35.721-20.55-.057.02.018-.04zm.486-.28 16.864-29.77 5.833 33.75zm79.067-7.96-20.836-9.12 17.934-18.66zm.648-.09-2.903-27.79 21.357 13.48zm72.243 21.12 19.4-4.07-8.944 31.41zm10.931 28.77 22.376-2.08-14.174 29.28zm8.625 28.42 24.302-.41-18.355 26.28zm-26.466 26.57 31.875.42-5.872 25.9zm17.505 54.85-21.418-29.46 29.703 1.88zm-10.804 29.48-22.107-6.33 32.381-21.38zm-22.632-5.8 22.032 6.31-29.205 18.23zm-7.837 25.38.065-.12.045.01-.057.12zm-19.23-9.78 18.618 9.83-21.308 15.82zm-.663.05-2.712 25.86-18.52-15.19zm-61.138-36.4 8.125 28.44-25 5.73zm-.422-.62-17.017 34.45-12.08-30.99zm-29.937 3.55-11.012 35.34-14.997-33.03zm-26.483 2.08.031-.06.009.1zm-13.201-33.01-20.101 15.94-9.79-26.87zm.147-.64-30.04-10.99 20.855-17.92zm-9.184-30.04-20.674-17.32 30.117-11.64zm9.662-29.98-19.833-15.35 32.149-16.18zm12.794-32.79-19.174-12.3 34.179-19.69zm26.944 1.56-10.514-34.04 22.629 3.96zm12.63-30.3-.099.07v-.11zm25.472 5.32-24.608-5.51 32.81-20.35zm8.782-26.6-.026-.04.026-.07zm-8.043 26.43 8.301-26.16 21.017 9.2zm51.757-6.61-21.102-10.46 18.414-14.27zm.675.15-2.696-24.8 21.184 15.5zm26.931 15.31-7.042-23.71 28.964 18zm.661.51 21.879-5.71 10.472 27.38zm11.594 51.96 21.306-28.62 8.251 27.36zm29.913-.2 5.952 25.9-31.85-.42zm-30.225 50.85 3.762-24.36 25.924 26.24zm-5.069 26.48 4.991-25.37 21.315 29.32zm-.115.64 26.521 3.99-32.675 21.57zm-55.794 52.49-3.132-24.72 24.575 13.95zm-.241.45-.046-.1.05-.01.057.12zm-3.576-25.37 3.121 24.65-29.428-17.47zm-43.524-51.32 7.522 28.41-28.935 3.45zm-22.084 32.27.013.1zm-10.886-30.67 10.44 30.38-25.89 2.29zm-16.587 32.39-32.323-15.84 20.285-16.08zm7.141-62.19-19.011 29.04-9.193-28.94zm.182-.65-28.38.1 9.402-28.83zm8.9-29.38-27.611-.52 12.341-31.59zm-14.801-33.33 15.194-32.39 10.618 34.37zm55.611 5.31-28.877-3.24 12.137-30.13zm.485-.5-16.731-33.35 24.853 5.56zm35.564-21.08-25.972-7.07 29.09-16.83zm.686-.19 3.109-23.83 21.135 10.47zm58.792 27.77-6.229-25.12 32.515 21.78zm27.048-3.2.011.09zm-26.906 3.84 26.196-3.33-21.207 28.48zm5.174 26.25 29.699-1.26-25.935 25.52zm-.603 49.61-33.368-24.66 37.129.31zm.348.69-.061-.1.067.01zm-5.461 26.06-29.049-5.1 34.046-20.3zm.246.47.013-.09zm-30.722 18.57 30.237-17.87-6.131 25.45zm24.321 8.07.021-.07zm-24.931-7.58 24.257 7.63-26.021 14.68zm-2.168 22.95.029-.05.029.05-.029.06zm1.506-22.89-1.764 22.3-24.477-13.9zm-30.91-18.3 3.441 25.97-34.519-21.38zm-4.179-26.99-27.671 30.72-7.575-28.61zm-36.196 2.16-21.559 32.07-10.518-30.6zm-32.963 1.51-15.531 32.84-12.029-31.9zm.033-.66-27.551.94 18.993-29.01zm-8.45-29.71-18.957-28.7 27.515.53zm8.951-29.35-15.291-32.16 25.87 1.99zm32.969 1.28-21.384-31.34 29.004 3.25zm70.634-41.63-26.121-8.4 24.255-13.37zm.658.03-1.875-21.86 25.79 14.72zm.518.53 24.09-7.2 6.239 25.17zm1.638 23.6 28.937-4.58 5.01 25.26zm34.403 21.38-.073-.09.069-.02zm-.245.58 3.759 24.23-36.869-.31zm-34.108 46.9.208-21.91 33.033 24.41zm-.015.66 33.563 2.52-34.4 20.51zm-.871 23.84 29.351 5.16-30.499 18.02zm-2.299 23.62-26.348 8.44-3.435-25.94zm-30.565-18.39-31.075 4.58 27.424-30.44zm-7.456-51.76 3.55 24.74-34.87 2.09zm-39.269.05 6.585 26.86-31.876 1.46zm-26.05 28.79-.005-.11zm25.583-29.25-25.444 28.49-8.623-28.28zm-34.474-.01.109-.11.001.08zm34.277-.65-33.725.21 8.615-28.36zm-24.825-29.03 10.582-30.17 21.378 31.33zm40.665-26.98 27.352 30.29-35-2.1zm31.637 3.73-30.64-4.58 34.078-20.74zm.695-.24 3.434-25.29 26.225 8.43zm31.973 6.25-1.145-22.6 30.337 17.98zm.87 23.49-.839-22.77 34.14 20.8zm.016.66 33.524-1.99-33.314 24.06zm-.546 45.22-35.234 2.6 35.441-24.53zm-35.343 3.27 35.327-2.61-.833 22.93zm34.453 21.28-1.144 23.1-29.767-17.48zm.541-46.89-36.012 24.92-3.591-25.02zm-40.721-.11-31.562 27.04-6.629-27.04zm-38.854-1-24.978-28.01 31.798 1.15zm39.265.04-31.242-26.83 34.897 2.09zm3.913-25.78-27.238-30.16 30.887 4.62zm4.963-25.97 29.64-16.85 1.144 22.57zm-3.553 26.46 34.378-19.79.833 22.6zm.097.67 35.13 2.8.209 21.93zm-1.183-.41h-.115zm3.969-26.18 30.869 5.74-34.529 19.88zm-7.59 51.52 3.681-24.92 35.755 25.03zm-39.294 0 6.81-26.82 31.223 26.82zm6.52 28.39-.007-.11zm36.687-1.73 34.663 20.42-30.985 5.64zm34.396 44.65h.106zm25.024-148.28-.093.06zm-79.51-8.29 26.248 7.14-34.462 20.97zm-78.264 116.04.04.02zm150.046-132.26 7.081 23.85-25.525-14.57zm-137.15 39.39-.007.09-.024-.05zm57.077 120.66 34.547 21.4-26.379 7.19zm61.519 36.08 25.967-14.64-7.18 24.56zm68.879-66.58-.005.11zm-231.524-8.72.051-.06v.11zm23.687 57.73-12.683-28.93 32.163 15.77zm94.095 38.17-8.156-26.97 29.403 17.45zm114.157-202.46.018.08zM292.9 94.652l12.028 25.72-29.077-18.07zm-22.479-20.69 4.268 27.58-21.211-15.52zm-79.537 10.08 20.115 7.51-33.013 20.47zm-37.899 24.68-34.13 19.66 15.542-28.08zm-69.084 159.71.073-.03zm49.814 43.31-.035.06-.074-.17.044-.02zm142.528-2.74 29.135-18.19-12.089 26.45zm64.128-45.16-.01.11zm-47.298-169.61.049.13-.048.02-.059-.13zm-115.377 204.5 32.993 20.85-20.127 7.89zm147.129-182.94-31.014-21.36 14.993-6.06zm-192.174 226.89-17.662-22.44 18.393-8.15zm176.699-18.35-15.019-6.69 31.162-21.57zm-46.085-280.07 21.764 18.76-36.342-7.32 14.479-11.47zm-73.791 7.63 18.883 8.49-36.095 16.29zm-89.911 14.95 15.73.52-17.26 17.77zm-18.407 39.87.043.04-.043.07-.045-.03zm-37.974 99.42-.037-.08 13.73-18.68-.207 36.81zm-.391-.15.091.06-.087.04zm22.884 108.91.72-29.29 13.329 20.3zm15.472 16.81-.615-24.72 15.574 19.87zm205.647 18.26.043-.08zm68.509-43.11-.072.14zm15.193-72.48v-.11l.041.07zm6.935-27.96v-.11l.072.05zm-31.425-128.49 7.54 27.02-18.033-24.89zM42.291 205.772l-19.248.62 8.414-18.78zm23.044 109.66h.106zm55.974 49.42-5.731-17.4 26.77 18.22-20.882-.72zm22.266 1.18-.109.07.002-.07.105-.05zm120.017 4.52-.054-.07.053-.07.056.07zm-42.196-351.07 18.546 9.52-32.571 2.76zm-119.378 34.02 18.892-3.23-21.184 15.49zm-56.595 259.99 6.551-14.45 12.636 16zm55.226 48.32-2.136-13.23 21.304 15.97zm290.891-212.56-.022.05-.122-.08zm-19.301-53.15 6.553 26.69-13.852-22.23zm-16.331-19.12 7.679 21.74-16.796-20.9 9.063-.89zm-25.002-20.12.102.1 13.562 18.94-27.653-19.94zm-35.476-20.48 3.692 19.17-22.128-19.58zM62.198 84.292l.102-.01.013.1zm3.453 14.63-12.603 15.85-6.386-13.08zm-53.307 107.96 4.37-17.68 5.442 17.43-9.812.31zm265.027 172.7 22.307-20.67-3.583 20.77zm68.465-22.82-.188.28-.125.12-12.26 1.67 22.503-18zm27.112-36.55-14.853 17.27 7.421-22.76 7.46 5.44zm34.933-130.34-7.167 16.15-.708-31.79 7.875 15.35zm-10.978-53.78.024.05-5.524 12.27-10.8-22.61zm-11.084-20.54.116.23-6.12 8.43-6.524-26.6zM206.65 9.512l13.455 9.23-24.433-1.59 10.86-7.64zm-26.195 20.61-24.432.81 10.136-11.55zm-43.242-5.55h.122l16.863 6.64-24.016 3.65zm-31.631 17.92 21.691-6.17-24.985 16.26zm-23.674 14.54 18.365-3.18-18.967 13.51zm-49.19 239.64 7.805-14.19 4.053 29.8zm27.009 46.11 1.414-11.42 17.258 15.25zm20.158 4.98 19.221 13.78-18.709-2.31zm28.645 35.65-.113-.12-3.702-8.47 28.276 16.52zm256.686-44.18-7.529-.27 14.463-16.82zm21.66-39.17-.179-.1-12.463 18.19 6.31-27.54zm-5.681-11.31 10.742-22.7 5.743 13.54zm-3.3-195.76 7.105 20.24-12.177-17.43 5.046-2.85zm-13.864-15.65.104.15 6.942 16.01-14.321-16.55zm-197.916-58.51-.001.08zM6.601 206.862l2.882-19.78 2.207 19.78v.11l-5.089.39zm2.927 23.86 2.592-21.05 3.97 16.74zm1.276 29.89-1.037-25.23 4.726 19.08zm32.332 65.1-.23.23zl-.379-.38-.056-.17 2.614-10.55 12.68 26.25zm65.978 58.58 23.989 7.77-19.868-1.42-.2-.14zm145.349 11.65 20.5-.2-17.096 9.81zm21.827-.41-.074-.13h.109l.045.06zm1.207-.62 18.647-14.39 2.345 11.21zm55.755-22.74-.059.12-.092.04-15.72 4.47 26.657-17.84-10.749 13.15.099.08-.049.03zm24.163-19.14-.104-.05-.07.15-.219.14-9.968 3.26 16.844-15.02-6.587 11.47zm51.237-127.34.089-.45 5.141-15.13-1.553 30.57zm5.279-17.77-5.287 15.57v-31.24zm2.517-18.02.101.61v.37l-2.12 13.35-1.595-27.73zm-4.751-17.83.302-.12.252.08-.466.08.106.63v.25l-3.515 14.44-2.278-29.21zm-5.659-30.92-.782 13.13-7.405-17.54 8.187 4.09zm.559.02h-.231zM282.26 16.632l13.956 8.49-19.99-3.62 5.689-5.01zm-31.981-9.83.634.1.054-.32v.33h.201l4.909 4.46-23.018-5.73zm-46.971-2.6 2.578 4.68-25.911 1.04 23.25-5.72zm-159.084 86.5.214.2 15.046-15.44-12.975 25.16-2.398-9.4.041-.12.233-.16zm-11.121 27.83-12.08 10.32 9.428-19.26zM5.302 233.922l1.116-21.57 2.456 18.36v.48l-3.522 3.34zm140.259 172.13-26.62-12.77 24.683 8.58 2.087 4.26zl-.143.29zm136.462-3.82-22.49 3.13 16.761-9.62 5.862 6.58-.109.08zm38.56-17.96-.055-.05-.325.32-4.269-6.65 16.091-4.57-11.497 10.9zm27.891-19.77-.52.42.218.24-.218-.24-.298.3-12.085 5.91 19.772-15.7zm58.022-87.24-.425.85.17.08-.17-.08-5.944 12.7-1.771-11.02 8.218-2.74zm10.271-51.05-.104.62-3.68 13.89 1.466-28.88 2.318 13.99zm-2.244-18.58.064-.25-.166-.05h.179l2.243-14.12 1.874 14.53v.54zm-2.087-47.68 3.234 13.37-3.163-.87-.076-.45-.112.02.099-.29-.178-.06-.018-.05h.214zm-27.964-64.14.144.21 3.735 10.14-9.417-12.85zm-7.398-10.56.436.62-.753-.94zM252.159 6.792l-.032.11-.085-.08.091-.28.076.02zm-27.244-4.48.044-.17v.2zm-48.165 3.95 22.452-1.75-22.502 5.53-.463-3.7.317-.08zl-.013-.33zm-27.904 5.95 20.52-4.41-23.675 7.95 1.802-3.18.099-.05.844-.21-.085-.28.085.28.337-.11-.125-.37.094-.07.035.13zM85.79 44.102l-2.319 4.15.287.16.041.14-.151-.03-.231-.24-.419.42-14.134 11.05zm-54.44 64 11.239-14.72-9.054 24.3-2.646-8.92.063-.26.37-.36-.231-.24zm-26.389 68.17c1.094-3.5 2.659-8.52 3.98-12.74l-3.66 16.57-.831-1.59.303-1.51.102-.41zl-.311-.1zm-1.61 35.12-.099-2.86 2.695-.44-1.056 21.1zm40.961 123.54.234-.23-.952-.95-.261-.44-.469-6.84 14.745 21.93-13.063-13.7zm41.801 40.8-.464-.37-2.568-5.5 24.805 17.87zm60.93 31.16-.015.04-.078-.07.131-.27-.217-.11-.097.2-.048-.05v-.18h-.123l-2.048-4.18 25.324 9.07-22.761-4.77zm28.37 6.28h.094l17.832 3.97-18.092-1.88zm.132-.32.012-.33h-.086l.474-4.84 23.463 6.56-23.851-1.72zm47.888 4.76h-.506l-16.254-2.54 21.116-1.09zm141.714-68.04-.257.26-6.084 2.61 12-11.48zm51.186-106.67-.093.55-3.255-.18 3.617-13.66-.269 13.1h.327-.327zm2.384-33.26-1.673 13.85-2.445-14.76-.266.05.266-.05-.089-.44 4.244.66-.02.06.31.11h-.327zm.42-.85.034-.23.273-.13-.073-.15v-.58l-.327.01.327-.01-.542-16.27-.327.03.327-.03-2.389-17.7-.321.06.321-.06-4.014-16.6-.318.08.318-.08-.104-.42-.107-.64-.646.11.11.66.32-.06-.32.06.103.41v10.78l-4.3-23.44 3.668 10.45.307-.11.314-.09-2.703-8.76-.34.08-.045-.13.268-.08-.108-.33-.274.09-.034-.1.307-.11-5.525-15.48-.311.1.311-.1-.326-.98-.31.1.297-.14-7.26-15.6-.297.14-.31.1 2.571 7.96-7.012-11.77 3.935 2.4.181.55.09-.04-.073.07.107.22.293-.14h.217l-.508.25.109.22.583-.3-.09-.17.016-.22h-.07l-.057-.12-.215-.64-.31.11.278-.17-9.972-16.15-.275.17.275-.17-.219-.33-.272.18.272-.18-.211-.32-.093-.19-.294.15.232-.24-.325-.32-.377.38-5.685-2.57-4.99-10.71 10.564 13.23.257-.21.266-.18-6.725-9.55-.261.2.261-.2-12.455-15.28-.534.39 4.347 6.09-10.287-10.06 5.034 2.85.374.38.203.3.27-.19-.231.23.326.33.462-.46-.297-.3-.207-.3-.27.18.233-.23-.434-.44-.232.23.232-.23-1.092-1.09-.224.24.224-.24-.967-.86-.76-.76-.231.24.198-.27-.419-.31-1.173-1.18-.463.47 1.192 1.19.231-.23-.197.26.418.32.748.74.225-.23-.225.23.116.11-4.933-2.8-.106.19-.163.1.231-.24-.216-.21-.231.23.182-.27-.251-.17-.072-.14-.096.05-.051-.02.107-.09-5.708-7.04.131.11.876.87.222-.23-.222.23.754.65.221.22.223-.24-.223.24.857.75.224.22.224-.23-.224.23.875.77.432-.49-.851-.74-.223-.23-.225.24.225-.24-.862-.75-.227-.22-.221.24.221-.24-.765-.66-.307-.31-.231.23.231-.23-.553-.56-.22.25.22-.25-.639-.53-.335-.33-.222.24.222-.24-.755-.64-.209-.22-.187.19.151-.22-.861-.65-2.03-2.03-.228.23.177-.27-.298-.2-.845-.84-.231.23.181-.27-.296-.2-.75-.75-.218.25.218-.25-.545-.43-.535-.54-.221.24.221-.24-.64-.54-.443-.44-.223.25.223-.25-.75-.64-.33-.33-.225.24.225-.24-2.293-2.07-.209.25.209-.25-.878-.66-.197.26.146-.29-.172-.09-.179-.18-.459.47.218.21.229-.23-.146.29.183.1.849.63 1.169 1.07.22-.25-.22.25 1.085.98.323.32.222-.24-.222.24.749.64.445.44.22-.24-.22.24.65.54.529.53.233-.23-.205.26.523.42.166.16-16.39-11.63 9.345 5.55.167-.28.186-.27-9.104-6.29-.186.27.147-.29-.217-.11-.293.59.191.09 1.228.85-1.938-1.15.412.21.146-.3.17-.28-19.94-12.03-.169.28-.183.28 9.397 6.32-16.968-6.13 6.299-.89.434.18.299.19.18-.27-.146.29.169.09.177.17.466-.45-.216-.22-.233.23.146-.3-.193-.09-.314-.21-.181.27.122-.3-.519-.21-.289-.19-.133.19-.139.02.084-.25-.303-.1-9.094-4.55-.132.3.132-.3-18.427-7.04-.217.51-.084-.06.186-.46-.531-.21-.202-.1-.147.29.104-.31-.308-.11-.194-.09-.123.25.123-.25-.215-.11-.228-.11-.092.21.092-.21-.554-.23-.049.13.006-.14-.389-.09-.196-.1-.144.29.144-.29-.219-.11-.143.3.086-.32-1.192-.33-.086.32v-.33h-.289l-.39-.1-.079.32.079-.32-.873-.21-.072.32.072-.32-.511-.11-.327-.1-.206.62.327.11.103-.31-.064.32.532.1.427.11.079-.32-.079.32.865.21.081-.31v.33h.28l1.128.31.181.08 5.187 3.17-20.975-6.62 11.847 2.51.154-.64-25.358-6.18-.077.32-.109.31 2.287.81-11.301-1.95 8.403.94.274.09.191.09.293-.58-.216-.11-.147.29.103-.31-.325-.11-.103.31.035-.33-19.416-2.16-.018.33.018-.33h-.198l-.401-.1-.067.32.067-.32-.663-.12-.017.1-.038-.1-23.511-.21-.004.32-.047-.32-.775.11.062.32-.062-.32-.449.11.154.64.434-.11.592-.08 2.031 1.56-19.051 1.48 15.868-2.85-.058-.32-.034-.33-23.427 2.5.053.32-.053-.32-.996.22.075.32-.075-.32-.438.11.079.32-.147-.3-.149.08h-.139v.33l-.075-.32-23.732 5.63.076.32-.115-.31-21.673 8.13.114.31.101.3-3.166 1.19 2.547-.98-.132-.29.132.29.205-.1.308-.1-.207-.62-.325.1.103.32-.146-.3-.217.11-2.787 1.07.116.31-.152-.29-4.77 2.49.155.29-.155-.29-.979.55.316.57.962-.53 18.066-6.82-22.293 10.29 3.22-2.99-.222-.24-.158-.28-22.212 12.24.155.29-.155-.29-1.525.87.164.29-.204-.26-7.911 6.28.204.26-.204-.26-.534.43-.873.66.201.26-.201-.26-2.261 1.83-.172.08.114.23-.202-.17-.297.3-.432.32.184.24-.184-.24-.537.44-.434.32.243.33-.11.1-.245-.32-8.244 6.4.144.17-.144-.17-3.791 3.36.413.51 8.962-7.26-15.656 14.48 1.544-2.82 3.399-2.97.174-.09-.147-.29.232.23.291-.3.309-.2-.181-.28.231.23.298-.3.424-.31-.391-.53-.432.32.195.27-.231-.23-.292.29-.308.2.181.28-.231-.23-.283.28-.174.09.146.3-.216-.25-3.468 3.03.216.25-.243-.22-3.903 4.34.245.21-.245-.21-.654.76-.212.21.244.22-.244-.22-.423.53-.432.43.231.23-.273-.18-.194.3-.631.63.463.46.65-.65-.231-.23.272.18.195-.29.415-.42-.232-.23.256.2.419-.52.216-.22-.24-.22.24.22 2.671-3-1.12 2.04-.193.2.244.22-.244-.22-7.35 7.81 4.05-4.78-.25-.21-.242-.22-10.294 11.38.242.22-.269-.19-2.142 3.11-.313.31.232.23-.262-.19-.654.87.265.19-.265-.19-.761 1.09.537.37.044-.06-.527 5.44-.085.26-.091.18-9.703 12.71 10.379-18.45-.286-.16-.267-.19-12.138 17.13.267.18-.29-.15-10.949 20.93.294.14-.294-.14-.55 1.21.303.12-.303-.12-8.78 23.3-.095.19.583.29.11-.21-.292-.15.292.15 5.677-11.59-5.886 16.72-.612-2.98.512-1.43-.617-.22-.571 1.6-5.83 25.94-.107.33.314.09-.314-.09-.115.45.32.07-.32-.07-.327 1.64.322.06-.327-.02-.216 3.45-.108.86.325.04h-.326l-2.059 25.66.327.02-.327.03 1.735 27.18h.327l-.31.1.092.28.107 2.34.327-.01-.321.05.325 1.85.322-.06-.311.1.101.31 5.635 26.32.318-.07-.318.07.436 1.63.316-.08-.293.14.107.22.293-.14-.293.14.099.2 8.557 23.72.306-.11-.306.11.55 1.43.299-.13-.299.13 10.736 21.04.291-.15.204-.03-.477.32 3.253 4.88.27-.19-.27.19.547.76.643.97.272-.18-.231.23.218.22.462-.47-.199-.2-.629-.94-.27.18.27-.18-3.768-5.6-.666-5.66 10.4 19.5-5.106-6.95-.263.19-.271.19 9.97 14.52.27-.19.288-.15-.25-.46 8.107 9.89-6.269-7-1.152-1.67-.105-.21-.587.29.109.22.294-.15-.27.19 1.192 1.73.269-.18-.244.21 5.419 6.08.243-.22-.243.22 9.103 9.97.242-.22.254-.21-11.206-13.68 9.745 10.21.2-.19-.2.19.288.29 1.758 3.88-.141-.15-.325-.43-.527.39.338.45.251-.21-.251.21 1.533 1.64.235-.23-.235.23 1.201 1.2.226-.24-.226.24 11.276 10.3.22-.24-.147.29.218.11.293-.59-.183-.09-4.346-3.97 8.298 6.58-3.628-2.39-.18.28-.199.26 17.43 13.31.199.2.233-.23-.143.3.178.08 1.285.97.197-.26-.146.29.206.1.865.54.087-.17-.087.17.231.12.095-.2-.095.2.215.1.218.11.116-.23.364.14-.155.31.168.08.18.18.356-.36.176.07-.23.46.819.41.18.18.056-.05 8.36 4.98.135-.24-.135.24 11.7 6.18.305.2.182-.27-.146.29.633.32.77.44.134-.26-.134.26 2.918 1.62.16-.28.183-.28-2.41-1.62 15.267 5.63-10.981-3.18-1.803-.85-.293.59.22.11.142-.3-.142.3 1.642.76.127-.3-.127.3 23.852 8.9.115-.31-.076.32 24.492 5.74.075-.32.098-.31-20.215-6.33 20.807 4.36.068-.32.111-.31-26.901-9.63 27.627 4.9-.47 4.8-.112-.05-.293.58.216.11.147-.29-.102.31.08.03-.165 2.07-.685-.23-.207.62.663.22.091-.31-.091.31.446.11.079-.31-.034.32 24.057 2.5.034-.33.071-.32-19.057-4.24 22.378 1.61-2.452 2.73h-.362l-.388-.1-.162.63.433.11.08-.31v.33h.546l-.002-.33.002.33 23.838-.22v-.17l.081.16.433-.11-.102-.4.099-.08.031.16.03.33 20.156-1.84-.03-.33.147.29.149-.07h.245v-.13l.044-.02.033.14.435-.11-.059-.24.128.22.194-.1.344-.09h.182v-.32l.071.32 19.506-4.34-.071-.32.111.31 8.128-2.93-.027-.07.058-.02h.291v-.32l.146.29.191-.1.295-.09.421-.11-.038-.15.128-.1.045.14.325-.11-.079-.24.087-.07.143.29.2-.1 21.437-7.69-.111-.31.167.29 3.141-1.84-.165-.29.165.29.546-.33.206-.11-.157-.28.157.28.542-.32.215-.11-.157-.29.157.29.542-.32.219-.11-.158-.29.158.29.552-.33.203-.1-.156-.29.156.29.555-.34.206-.1-.154-.28.154.28.542-.32.215-.11-.108-.19.108.19.543-.33.206-.1-.052-.1.068-.03.071.07.184-.19.432-.26h.125v-.32l.204.25.455-.36h.1v-.08l.109-.08.071.1.315-.2.411-.21-.1-.2.136.18.296-.2.422-.21-.139-.29.179.27.298-.2.439-.23-.162-.28.162.28.326-.21.428-.22-.157-.28.157.28.542-.32.219-.11-.158-.29.158.29.552-.33.203-.1-.156-.29.156.29.555-.33.206-.11-.157-.28.157.28.542-.32.432-.22-.157-.29.157.29.544-.32.216-.11-.158-.29.158.29.553-.33.204-.11-.158-.28.158.28.544-.32.215-.11-.157-.29.157.29.543-.32.216-.11-.158-.29.158.29.554-.33.2-.1-.159-.3.159.3 2.286-1.31-.162-.28.162.28.745-.43.22-.11-.16-.3.16.3 2.286-1.3-.163-.28.163.28 4.015-2.28-.168-.28.168.28 1.199-.76-.175-.28-.106-.31-5.378 1.82 11.466-6.35-6.071 4.58.395.52 9.757-7.37-.201-.26.201.26 1.092-.88-.211-.25.211.25 16.045-14.09-.217-.24-.189-.27-1.438 1.03 4.101-3.65-2.598 2.65.463.47.327-.33-.233-.23.233.23 8.781-8.99-.148-.15.185.1.194-.29.317-.32-.242-.22.242.22 13.122-15.94-.252-.21.277.18 7.161-11.18-.239-.13.239.13.116-.24-.259-.13-.085-.3.453.22.093-.19 9.868-15.94-.285-.16.285.16.224-.45-.586-.29-.161.32-4.308 1.7 7.457-12.66-2.896 10.25.31.1.297.14 7.153-15.28-.594-.28-3.646 7.79 5.596-14.78-1.645 6.07.317.08.308.11 5.963-17.02-.312-.1.312.1 2.706-10.29-.619-.21-4.098 11.84 4.324-25.16.082 12.09-.095.37-.104.32.31.11h-.327v.13l-.075.15.586.29.109-.21-.293-.15h.327v-.16l.096-.29-.314-.09.314.09.112-.45-.319-.07.319.07 3.902-16.58-.32-.07h.327v-.19l.105-.63-.323-.05h.327v-.19l2.058-16.26-.326-.02.326.02.326-16.82h-.327.327v-.49l.092-.27z"
        style="fill:#c6c6c6;fill-rule:nonzero" />
    <path
        d="m403.233 289.432-.104.32.62.21.113-.34-.314-.09.314.09.113-.45-.635-.16zM45.126 336.702l-.545.36.216.33.545-.36z"
        style="fill:#c6c6c6;fill-rule:nonzero" />
</svg>