<svg xmlns="http://www.w3.org/2000/svg" xml:space="preserve" style="fill-rule:evenodd;clip-rule:evenodd;stroke-linejoin:round;stroke-miterlimit:2" viewBox="0 0 426 425"><path d="M226.958 2.464c.1 2.01 2.9 2.22 3.37.34.47-1.898-2.24-3.018-3.19-1.218-.04.067-.05.143-.07.215-.03.06-.07.108-.09.172-.01.041.01.08 0 .121-.01.064-.05.078-.03.146-.03.069.01.15.01.224M216.698 1.996c.17 2.272 3.92 2.13 3.3-.74-.76-1.997-3.66-.787-3.33.565zM206.158 3.171c.9.776 2.47.52 2.8-1.122l.04-.228c-1.02-3.683-4.99-.486-2.84 1.35M195.138 2.538c.26 2.169 3.28 2.019 3.4-.054.17-2.928-4.07-1.709-3.4.054M212.888 6.374c1.13-.47 1.49-2.044.41-2.914-.39-.311.91-.015 1.15-1.472.16-.929-.54-1.886-1.53-1.979-1.71-.173-2.64 2.108-1.13 3.118-1.15.633-1.08.634-1.28 1.656 0 1.186 1.22 2.075 2.38 1.591M199.768 5.132c.34 3.259 5.87.636 3.34-1.624-.21-.191.76-.529.53-1.767-.41-2.294-3.74-1.567-3.33.612.08.45.05.351.53 1.011-.64.251-1.16.884-1.07 1.768M190.908 6.761c.04.018.08.044.12.059.06.024.13.024.2.04s.13.051.2.059c.05.005.09-.007.13-.005.06.002.09.032.14.012.06.016.13-.028.19-.038.58-.089.87-.336 1.12-.697.51-.714.27-1.014.27-1.484-.41-1.337-.26-.174.04-1.32.23-.885-.31-2.065-1.57-2.127-1.37-.069-2.31 1.448-1.52 2.639.12.18.21.058.01.332-.04.054-.09.098-.12.156-.02.035-.02.073-.04.109-.02.04-.05.073-.06.114-.02.064-.02.135-.04.203s-.05.131-.06.2c0 .044.01.089.01.133-.04.846.39 1.339.98 1.615M221.708 6.228c1.68 1.49 3.81-.962 2.38-2.46-.13-.133-.16-.041.02-.107 1.51-.545 1.54-2.723-.03-3.248-.08-.024-.15-.013-.23-.028-.07-.013-.17-.07-.24-.054-.29-.102-1.05.261-1.31.523-.71.729-.61 1.846.07 2.467-1.36.391-1.63 2.052-.66 2.907M209.888 13.608c.15.909.96 1.559 1.94 1.394 1.52-.255 1.91-2.174.72-3.038-1.2-.871-2.92.121-2.66 1.644M194.678 14.931c1.51 1.023 3.6-.869 2.29-2.493-1.69-2.076-4.34 1.099-2.29 2.493M233.938 6.843c.8-.391 1.25-1.547.78-2.332 1.31-.588 1.34-2.29.25-2.996-1.35-.877-3.26.516-2.46 2.208-2.15.93-.6 4.109 1.43 3.12M226.098 13.754c.08 1.811 2.52 2.275 3.27.635 1.16-2.547-3.41-3.495-3.27-.635M188.278 28.075c0 .055.16.676.16.676.69 1.521 3.03 1.266 3.24-.502.28-2.217-3.08-2.692-3.36-.415 0 .054-.05.19-.04.241M211.348 29.532c2.28-.435 1.35-3.655-.27-3.381-2.42-.087-2.19 3.853.27 3.381M178.538 14.099c-.18.7 1.11 1.875 1.79 1.636.95.236 2.46-1.729 1.08-2.987-1.36-1.24-3.2.415-2.87 1.351M230.728 28.571c.45 2.136 3.58 1.554 3.38-.521-.23-2.404-3.87-1.808-3.38.521M209.128 47.267c-.64.931-.22 2.34 1.05 2.61 1.46.313 2.61-1.291 1.76-2.581-.7-1.061-2.16-.977-2.81-.029M168.098 27.972c-.9 1.86 1.75 3.443 2.95 1.763 1.49-2.051-1.93-3.853-2.95-1.763M164.258 14.325c-.71 2.082 2.53 3.273 3.26 1.098.67-2.05-2.53-3.299-3.26-1.098M179.938 6.103c.38 2.199 3.69 1.777 3.36-.672-.18-.796-1.06-1.523-2.05-1.303-.73.163-1.48.971-1.31 1.975M250.428 6.463c.15 2.047 3.12 2.109 3.38.098l.02-.112c.02-.067-.02-.163-.02-.236.08-2.002-3.27-2.154-3.41.01-.02.069.02.165.03.24M242.188 7.492c1.45.524 2.42-.942 2.289-1.504.071-.185.901-.743.661-1.812-.401-1.865-3-1.717-3.36.015l-.01.065c-.06.332.13.103-.15.357-.82.733-.8 2.385.57 2.879M165.028 6.963c-.67 2.62 3.76 2.882 3.35.176-.26-1.82-2.89-1.968-3.35-.176M139.968 17.924a1.7 1.7 0 0 0 1.89 1.21c1.54-.224 2-2.252.7-3.121-1.26-.844-3.05.312-2.59 1.911M156.498 9.018c-.14.687.97 1.898 2.21 1.492.9-.285 1.35-1.235 1.15-2.04-.5-2.004-3.52-1.568-3.36.548M130.838 19.172c.17 2.67 4.26 1.696 3.3-.743-.71-1.767-3.42-1.262-3.3.743M273.477 11.596c.101 1.494 1.941 2.141 2.951 1.04.849-.926.42-2.363-.691-2.751-1.099-.394-2.339.452-2.26 1.711M291.338 20.79c2.12.977 3.51-2.263 1.37-3.149-2.07-.854-3.37 2.228-1.37 3.149M241.578 14.786c.89 2.416 4.399.538 3.06-1.532-1.111-1.706-3.76-.368-3.06 1.532M251.098 29.538c1.179 2.194 4.32.074 2.86-1.838-1.3-1.7-3.85-.002-2.86 1.838M235.118 47.699c-.87 1.961 2.01 3.444 3.07 1.517 1.15-2.078-2.12-3.663-3.07-1.517M179.418 75.741c2.32.454 2.88-3.256.42-3.393-2.15-.134-2.5 2.989-.42 3.393M208.528 74.199c.43 2.208 3.75 1.575 3.31-.643-.44-2.245-3.73-1.496-3.31.643M183.398 47.286c-.82.962-.41 2.733 1.33 2.829.39.105 1.48-.459 1.66-1.393.33-1.684-1.82-2.813-2.99-1.436M149.678 31.167c1.88 1.302 3.8-1.55 1.97-2.827-1.86-1.3-3.8 1.542-1.97 2.827M171.708 6.02c-.49 1.375 1.03 2.579 1.8 2.267.77.143 1.98-1.191 1.35-2.471-.68-1.39-2.66-1.227-3.15.204M151.778 17.492c.59.386 1.39.419 2-.066.96-.745.62-1.681.5-2.076l-.15-.236c-1.54-2.288-4.6.899-2.35 2.378M257.277 16.678c.71.196 1.23-.031 1.581-.336 1.06-.932.61-2.576-.68-2.93-2.25-.621-3.01 2.689-.901 3.266M263.247 48.417c-.02-.157-.439-.703-.849-.894-1.08-.506-2.661.302-2.401 1.835.411 2.509 4.23 1.352 3.25-.941M239.398 75.576c.06.046.13.069.2.106.05.035.1.085.16.112l.11.027c.04.016.08.04.12.052.08.021.16.015.23.027.05.005.17.052.21.041l.11-.017c.06-.003.07.026.13 0 .08.011.15-.046.22-.065s.15-.016.21-.042c.04-.014.06-.043.1-.059.04-.019.08-.03.12-.052.06-.037.11-.093.17-.138.05-.04.12-.064.16-.11l.07-.089c.03-.034.07-.06.09-.095.05-.059.07-.128.11-.192.03-.057.08-.102.11-.164l.03-.106c.01-.043.04-.081.05-.126.02-.074.02-.153.03-.231 0-.041.05-.166.04-.205l-.02-.11c0-.063.03-.072 0-.134.01-.072-.04-.148-.06-.22-.14-.499-.25-.714-.78-1.027-.06-.035-.1-.085-.17-.112l-.1-.027c-.04-.016-.08-.039-.13-.052-.07-.021-.15-.015-.23-.026-.04-.006-.16-.053-.2-.042l-.11.017c-.07.003-.08-.027-.14.001-.07-.012-.14.045-.22.064-.07.018-.14.015-.21.042-.03.014-.06.042-.09.059-.04.019-.08.03-.12.052-.07.038-.12.093-.17.138-.06.04-.12.064-.17.11l-.06.089c-.03.033-.07.059-.1.096-.04.058-.07.127-.1.191-.04.058-.09.103-.12.165l-.02.104c-.02.044-.04.081-.05.126-.03.075-.02.155-.03.233-.01.042-.05.164-.04.204-.07.22.19 1.017.66 1.385M245.348 104.425c-.51-2.052-3.41-1.483-3.35.461.03 1.245 1.36 1.858 1.86 1.659.07.015.18-.05.26-.069 1.03-.26 1.45-1.172 1.23-2.051M270.497 76.51c1.961-.76 1.051-3.729-.99-3.29-2.329.493-1.329 4.181.99 3.29M285.838 51.899c2.09-.736 1.01-4.007-1.14-3.245l-.09.041-.06.016c-.041.018-.071.053-.1.073-.04.021-.08.022-.12.046-.03.022-.051.058-.081.081-.039.029-.089.045-.119.077-1.43 1.277-.02 3.517 1.71 2.911M270.648 30.86c1.24 1.916 4.099-.008 2.89-1.872-.021-.042-.12-.093-.2-.26-.05-.044-.101-.061-.15-.1-1.51-1.271-3.58.622-2.54 2.232M287.668 31.299c.01 1.963 3.04 2.52 3.42.139.07-.164-.18-1.105-.4-1.254-1.01-1.191-3.03-.541-3.02 1.115M269.747 17.595c.191.066 1.03.352 1.27.359 1.811.069 2.46-1.759 1.5-2.842-1.109-1.255-3.679-.914-3.679.959 0 .924.53 1.208.909 1.524M120.618 31.693c-1.1-1.621-3.73-.315-3.47 1.397.44 2.885 5.06.942 3.47-1.397M131.888 31.432c.51 2.815 4.8.874 3.03-1.375-.04-.045-.09-.066-.13-.106l-.1-.135c-1.66-1.04-3.06.236-2.8 1.616M281.638 19.176c2.06.941 3.47-2.19 1.44-3.132-2.73-.65-3.061 2.388-1.44 3.132M262.958 8.707c1.09-2.354-2.721-3.495-3.24-1.078l-.02.058c-.01.042 0 .082 0 .124-.201 1.969 2.48 2.602 3.26.896M96.508 52.882c-.67 2.324 3.06 3.156 3.34.663.23-2.083-2.77-2.648-3.34-.663M143.318 103.481c-1.83.17-2.1 2.641-.47 3.296 2.03.811 3.44-2.341 1.27-3.2-.04-.016-.09-.014-.13-.026s-.06-.04-.1-.049l-.07-.002-.06-.023c-.05-.009-.1.009-.15.005l-.16-.025zM115.198 106.502c.68-2.388-3.09-3.06-3.33-.639-.21 2.024 2.76 2.629 3.33.639M171.228 139.479c.17 1.027 1.25 1.55 1.63 1.448 1.19.352 2.6-1.94 1.04-3.081-1.25-.921-2.91.162-2.67 1.633M175.728 102.989c-.08.012-.17.006-.25.03l-.1.045-.09.021c-.07.03-.12.086-.18.124-.47.282-.29.181-.48.434-.05.065-.11.117-.15.188l-.05.101-.04.078c-.03.072-.03.155-.05.231-.02.069-.08.174-.07.242-.02.054 0 .055 0 .109l-.01.089c-.01.04.04.185.04.229.02.084.01.172.04.253l.04.101.02.086c.03.07.09.121.13.186.04.069.06.145.11.207l.08.078.06.072c.05.052.12.08.18.124.06.049.12.11.19.149l.1.042.08.049c.07.029.15.026.23.046.07.018.17.08.24.069.05.022.05-.003.11-.001l.09.014c.04.011.18-.04.23-.047.26-.038.5-.042.91-.416l.07-.054c.05-.053.08-.124.12-.184.05-.064.11-.116.15-.188l.04-.1.05-.079c.03-.071.03-.154.05-.229.02-.069.08-.175.07-.244.02-.053-.01-.054 0-.108l.01-.09c.01-.04-.04-.184-.04-.227-.06-.382-.1-.614-.48-.985-.05-.052-.12-.079-.18-.124-.06-.049-.12-.109-.19-.149l-.1-.042-.08-.048c-.07-.029-.15-.027-.23-.046-.07-.018-.17-.081-.24-.069-.05-.023-.05.003-.11.001l-.09-.014c-.05-.015-.14.033-.23.046M123.228 77.309c.85.415 1.49.051 2.04-.402 1.76-1.967-1.73-4.168-2.83-1.901-.47.956.13 1.98.79 2.303M152.478 75.213c.6-2.069-2.63-3.21-3.28-.961-.65 2.193 2.65 3.112 3.28.961M115.048 53.176c1.39.667 3.02-.788 2.27-2.303-1.38-2.76-5.06.983-2.27 2.303M160.308 47.46c-2.34-.427-2.96 2.066-1.52 3.028 2.16 1.445 3.88-2.144 1.52-3.028M134.918 49.351c-.9 1.858 1.75 3.458 2.96 1.74 1.4-2.003-1.9-3.904-2.96-1.74M208.008 104.813c.35 1.706 2.57 1.877 3.24.363.51-1.135-.41-2.641-1.91-2.34-1.02.205-1.5 1.063-1.33 1.977M207.838 139.537c.59 2.953 5 .594 2.88-1.54-1.15-1.161-3.21-.154-2.88 1.54M245.727 137.564c-.939.216-1.47 1.27-1.339 1.683-.32 1.184 2.07 2.551 3.139.872.831-1.304-.339-2.892-1.8-2.555M295.398 76.221c.56 3.284 5.44.326 2.44-1.827-1.59-.554-2.65.613-2.44 1.827M152.408 10.093c.23 2.222 3.6 1.934 3.36-.358-.24-2.301-3.6-1.858-3.36.358M331.388 39.99c.07 1.176 1.32 1.984 2.44 1.455 1.28-.599 1.3-2.401.11-3.057-1.14-.63-2.62.223-2.55 1.602M324.428 37.187c.11 2.22 3.54 2.131 3.43-.16-.11-2.225-3.54-2.127-3.43.16M296.748 20.761c.08 1.913 2.62 2.23 3.27.533.4-1.055-.33-2.085-1.2-2.284-1.01-.231-2.13.584-2.07 1.751M322.758 53.788c.19 1.193 1.67 1.978 2.78 1.42 1.17-.587 1.24-2.01.35-2.787-1.52-1.313-3.38-.229-3.13 1.367M303.548 34.479c1.08.643 2.69-.085 2.57-1.615-.05-.526-.34-1.015-.71-1.274-.04-.014-.07-.036-.11-.064-1.98-1.171-3.62 1.858-1.75 2.953M304.938 51.029c-.92 3.186 3.66 3.391 3.18.278-.56-1.273-1.96-1.851-3.18-.278M306.458 104.517c-1.93.415-1.71 3.264.24 3.398.09.033.18-.016.27-.024 2.5-.222 1.72-3.845-.51-3.374M277.188 103.855c-.47-.259-1.13-.255-1.3-.137-2.2.659-1.17 3.753.839 3.315 1.471-.314 1.941-2.372.461-3.178M279.798 139.784c.03 1.991 3.1 2.299 3.38.164l.049-.197c-.019-.079-.019-.171-.019-.281-.32-2.104-3.5-1.826-3.41.314M248.548 175.071a1.68 1.68 0 0 0-2.571 1.119 1.676 1.676 0 0 0 2.02 1.957c1.48-.322 1.831-2.252.551-3.076M209.668 178.151c2.21-.45 1.57-3.729-.65-3.316-2.2.409-1.6 3.778.65 3.316M169.528 176.791c.4 2.23 3.72 1.594 3.32-.595-.4-2.22-3.72-1.593-3.32.595M138.888 138.216c-1.09-.854-2.95-.13-2.73 1.556.05.376.1.645.48 1.017 1.81 1.754 4.03-1.174 2.25-2.573M98.918 78.426c.21.182 1 .508 1.24.416.19.04.85-.202 1.18-.587.18-.207.51-1.002.42-1.249.04-.179-.2-.832-.59-1.176-.04-.034-.09-.052-.13-.083-.04-.025-.05-.062-.09-.085s-.08-.024-.12-.044-.1-.073-.23-.117c-1.78-.614-3.11 1.696-1.68 2.925M108.108 36.176c1.85-.617 1.6-3.882-1.46-3.138-2.04.492-1.79 4.217 1.46 3.138M82.438 55.459c.07 2.304 3.47 2.144 3.4-.103-.07-2.275-3.47-2.159-3.4.103M124.228 20.821c.1 1.468 1.88 2.138 2.92 1.096.86-.863.57-2.319-.55-2.793a1.71 1.71 0 0 0-2.37 1.697M117.168 23.558c-.18 1.441 1.34 2.304 2.46 1.729 1.13-.569 1.31-2.304.05-3.001a1.686 1.686 0 0 0-2.51 1.272M97.378 38.041c1.07.945 2.97.365 2.8-1.678-.23-.972-1.49-1.699-2.55-1.085-.95.553-1.16 1.964-.25 2.763M95.218 38.944c.42-2.4-3.23-2.759-3.39-.414-.15 2.148 3.02 2.535 3.39.414M357.168 61.479c.28 1.63 1.87 2.009 2.81 1.221 2.21-3.359-2.99-4.11-2.81-1.221M348.548 58.056c.08 1.854 2.64 2.238 3.31.55 1.06-2.655-3.45-3.273-3.31-.55M341.118 56.294c.31-.925-.26-1.902-1.09-2.179l-.1-.013c-.55-.147-.06-.061-.58-.178-1.11-.259-2.03.582-2.08 1.569-.1 1.965 3.18 2.809 3.85.801M315.128 35.151c.15 1.43 1.93 2.09 2.95.992.92-.985.38-2.777-1.15-2.868-1.07-.067-1.92.806-1.8 1.876M63.118 82.452c1.77.754 3.14-1.457 1.87-2.751-1.88-1.919-4.36 1.704-1.87 2.751M78.978 80.293c1.95 1.196 3.68-1.75 1.76-2.91-1.92-1.171-3.73 1.719-1.76 2.91M63.888 110.022c1.83 1.189 3.81-1.578 1.84-2.848-1.86-1.211-3.79 1.591-1.84 2.848M85.448 106.59c-.61 1.518 1.16 3.055 2.6 2.005 1.04-.762.89-2.195-.13-2.813-.94-.574-2.12-.085-2.47.808M103.988 140.405c.18 1.795 2.65 2.101 3.3.468.01-.041.01-.089.02-.131.02-.042.05-.074.06-.118v-.08l.02-.075c.01-.047-.01-.089 0-.136l.02-.134-.03-.128c-.18-1.83-2.65-2.11-3.3-.467-.01.04-.01.089-.02.131s-.04.073-.05.117v.079l-.03.076c-.01.046.01.089.01.135l-.03.135zM76.918 142.586c.96.217 1.81-.398 2.03-1.185.65-2.223-2.8-3.144-3.32-.856l-.03.097c-.01.055.01.107 0 .162-.07.952.62 1.624 1.32 1.782M132.908 176.883c.25 1.892 2.86 2.041 3.32.188.67-2.652-3.67-2.841-3.32-.188M100.758 175.124c-.76-.215-1.92 1.028-1.75 1.679-.03.103.02.163.04.269.2 1.439 1.95 1.952 2.9.973 1.22-1.234-.14-3.202-1.19-2.921M66.438 62.06c1.59.584 3.11-1.399 1.85-2.762-1.92-2.085-4.48 1.782-1.85 2.762M71.998 57.703a1.7 1.7 0 0 0 1.96 1.614c1.37-.203 1.88-1.823 1.06-2.796-1-1.201-3.09-.511-3.02 1.182M20.178 144.213c.19 1.557 2.52 2.346 3.38.176.53-2.277-3.11-3.006-3.36-.571-.02.18-.04.206-.02.395M33.168 112.255c.25 1.81 2.69 1.942 3.31.412.28-.706.04-.689.07-1.076-.54-2.108-3.67-1.422-3.38.664M25.708 178.127c.49 1.846 3.07 1.618 3.33-.189.15-1.008-.63-1.899-1.56-1.964-1.13-.078-2.08 1.008-1.77 2.153M35.498 141.153c-1.87-.5-3.17 2.05-1.05 3.264 2.51.646 3.11-2.697 1.05-3.264M44.818 177.537c.21 1.89 2.79 2.073 3.32.296.01-.052.05-.093.06-.148.01-.039 0-.075 0-.113.01-.038.03-.07.03-.109l-.01-.062.01-.071-.03-.168c-.23-2.012-3.01-1.982-3.38-.144-.01.038.01.075 0 .113 0 0-.03.069-.03.108l.01.063-.01.071zM71.028 178.88s0-.003.3.022c.8-.129 1.51-.426 1.68-1.441l.02-.296c-.14-.876-.41-1.374-1.26-1.616-.06-.018-.11-.058-.18-.069 0 0 0 .003-.3-.022-2.36.377-2.04 3.13-.26 3.422M53.958 140.131c-2.18-.59-3.05 2.72-.88 3.292 2.21.596 3.04-2.723.88-3.292M46.848 108.639c-1.58.326-1.89 2.508-.37 3.211.4.346 1.76.247 2.26-.825.68-.807-.34-2.712-1.89-2.386M43.258 85.717c.09.932.91 1.642 1.86 1.557 1.33-.121 2.07-1.676 1.18-2.782-1.08-1.325-3.18-.415-3.04 1.225M50.618 82.963c.02 1.28 1.25 1.97 2.28 1.603 1.27-.452 1.51-2.123.54-2.939-1.09-.918-2.83-.204-2.82 1.336M377.288 85.448c.09 1.332 1.72 2.491 2.98 1.666.41-.267-.25.248.34 1.191l.12.146c1.46 1.841 4.15-.501 2.63-2.208-.48-.528-1.46-.794-2.24-.283-.14.092-.12.182-.09-.146.18-2.319-3.92-3.195-3.74-.366M334.858 106.05c-1.49-1.132-3.44.571-2.48 2.203 1.39 2.391 4.67-.56 2.48-2.203M319.958 78.277c1.23 1.748 3.84.108 2.92-1.736-1.13-2.251-4.29-.211-2.92 1.736M312.298 140.331c.11 2.14 3.17 2.147 3.39.093l.03-.147-.02-.133c-.1-2.018-3.15-2.246-3.39-.093l-.03.149zM282.868 176.761c.129 2.394 3.609 1.958 3.43-.237-.19-2.24-3.551-1.982-3.43.237M207.498 215.655c.64 1.918 2.71 1.59 3.25.331.37-.896-.1-1.907-.92-2.251-1.29-.551-2.59.616-2.33 1.92M170.498 217.043c1.49-.346 1.93-1.112 1.59-2.39-2.09-3.166-5.29 1.7-1.59 2.39M132.708 216.73c3.22.614 3.14-3.864.02-3.173-1.37.941-1.49 2.195-.02 3.173M97.358 215.142c.37 1.811 2.95 1.797 3.31-.001.3-1.469-1.32-2.607-2.6-1.738-.78.523-.9 1.684-.71 1.739M68.928 212.977c-1.14.23-1.8 1.534-1.08 2.601.23.335.48.593 1.07.715.08.017.22.086.32.063l.06-.007c2.46-.068 2.04-3.861-.37-3.372M44.798 250.914c.02 2.364 3.45 2.156 3.42-.039-.02-2.043-3.1-2.367-3.4-.211 0 .043-.04.099-.03.141-.01.037.01.07.01.109M42.408 214.163c.04 2.385 3.48 2.058 3.42-.08-.05-2.299-3.49-2.133-3.42.08M13.878 179.753c2.11.16 2.54-2.932.52-3.396-2.41-.555-2.89 3.211-.52 3.396M38.838 91.444c.39 2.22 3.75 1.638 3.37-.582-.39-2.222-3.75-1.64-3.37.582M341.938 77.319c-1.38.088-2 1.66-1.31 2.662.38.571 1.51 1.079 2.28.838 2.09-.659 1.21-3.653-.97-3.5M369.588 83.421c.19 1.524 2.51 2.317 3.37.228.24-.906-.36-1.979-1.37-2.148-1.16-.196-2.15.818-2 1.92M357.148 81.518c.47 1.695 2.92 1.701 3.32-.076.25-1.065-.54-1.981-1.45-2.087-.7-.308-2.25.773-1.87 2.163M354.918 109.066c.71 3.937 5.98.057 2.79-1.662-.08-.072-.06.054-.35-.177-.39-.055-.63-.327-1.33-.086a1.705 1.705 0 0 0-1.11 1.925M343.128 139.372s-.11.022-.16.026c-2.17.137-2.09 3.222-.04 3.398l.09.018s.11-.023.17-.026c1.09-.069 1.72-1.204 1.61-1.639 0 0-.03-.112-.03-.169-.07-1.109-1.17-1.727-1.64-1.608M285.598 213.427c-1.621.035-2.341 2.177-.94 3.123 2.39 1.627 4-2.865.94-3.123M318.478 175.134c-2.53.209-1.75 3.959.57 3.342 2.06-.536 1.47-3.514-.57-3.342M347.168 177.267c.11 2.274 3.55 2.058 3.44-.174-.11-2.324-3.55-2.018-3.44.174M365.838 142.079c.16 2.137 3.26 2.062 3.41-.011.03-.081-.02-.171-.03-.252-.16-2.211-3.56-2.018-3.38.263M385.348 143.338c.26 1.226 1.79 1.825 2.81.932 1.19-1.04.43-3.124-1.27-2.983-1.13.093-1.73 1.194-1.54 2.051M373.358 110.524c.03 1.431 1.53 2.014 2.53 1.463 1.11-.613 1.22-2.332 0-3.008a1.692 1.692 0 0 0-2.53 1.545M376.488 215.842c2.84.18 2-4.453-.59-3.292-1.92 1.302-.73 3.213.59 3.292M372.648 177.627c.13 2.132 3.41 2.103 3.45-.076-.63-2.755-3.57-1.828-3.45.076M392.848 177.908c.06 2.175 3.17 2.231 3.4.135l.03-.144-.02-.077c-.05-2.062-3.17-2.321-3.4-.135l-.03.142zM387.218 113.583c1.8 1.308 3.87-1.452 2.01-2.787-1.89-1.374-3.79 1.513-2.01 2.787M400.408 142.572c-2.09.84-.85 4.337 1.67 2.982 1.66-1.222.11-3.687-1.67-2.982M399.338 117.402c1.34.422 2.8-.927 2.03-2.405-.64-1.231-2.3-1.192-2.96-.116-.6.96-.1 2.191.93 2.521M407.918 145.636c.23 1.458 1.99 1.936 2.94.899.09-.092.11-.202.11-.075.1 2.519 3.97 1.948 3.39-.47-.29-1.188-1.96-1.813-2.93-.762-.12.127-.08.246-.14-.127-.35-2.222-3.72-1.685-3.37.535" style="fill:#c6c6c6;fill-rule:nonzero"/><path d="M395.538 115.352c1.92 1.202 3.6-1.66 1.89-2.857-1.93-1.375-3.82 1.67-1.89 2.857M409.048 179.925c1.58-.114 2.29-2.345.69-3.216-1.44-.785-2.72.764-2.54 1.443-.2.568.64 1.86 1.85 1.773M409.768 213.161c.32 1.894 2.35 2.302 3.33.547.1-.793.15-1.468-.66-2.018-1.52-1.024-2.89.746-2.67 1.471M415.758 178.686c.11 1.449 2.08 2.247 3.09.864.26-.355.27 1.186 1.84 1.058 1.41-.113 1.98-1.785 1.22-2.766-.65-.847-2.04-.91-2.74.051-.11.157-.19-.206-.34-.39-1.07-1.392-3.2-.459-3.07 1.183M13.938 146.896c.05-.063.37.022.44.021.75-.012 1.54-.722 1.57-1.084.02-.042.02-.086.04-.13l.04-.098s0-.146.01-.208c.11-.927-.46-1.603-1.18-1.829l-.1-.044s-.14-.002-.2-.009c-.79-.093-1.37.3-1.68.858-.39-.003-.56-.12-1.08.102-.21.028-.89.666-.92.94-.75 1.884 1.98 3.372 3.06 1.481M23.948 115.237c.13 1.65 2.36 2.333 3.32.366 1.26.188 2.46-1.157 1.76-2.489-.77-1.51-2.8-.886-3.03.021-.01.035-.05.059-.06.096-.02.053-.02.115-.04.164-1.41-.003-2.03.917-1.95 1.842M421.638 211.773c-.02.04-.24-.256-.29-.302a1.7 1.7 0 0 0-1-.434l-.11.012c-.06-.001-.07-.031-.13-.008-.07-.014-.05.009-.11.017-2.08.25-1.93 3.251.07 3.414l.1-.013c.07.002.08.032.14.009.07.014.05-.009.11-.017 1.07-.129 1.23-.862 1.45-1.252 1.31 1.531 3.26.42 3.14-1.099-.16-1.869-2.85-2.145-3.37-.327M3.558 247.306c1.02.47.85-.212 1.3.535.67 1.108 2.41 1.136 3-.176.24-.524.26-1.018-.08-1.585-.62-1.018-1.48-.771-1.86-.796-1.75-3.285-5.04.804-2.36 2.022M1.698 213.943c.42.002.52-.14.69.023.46.46.93.597 1.58.443 2.44-.571 1.17-3.997-.94-3.285 0 0-.51-.545-1.19-.6-2.35-.186-2.5 3.419-.14 3.419M4.158 180.399c.5.08.89-.021 1.27-.299.05-.031.06-.052.21.011 1.58.686 3.09-1.128 2.06-2.561-.31-.419-.84-.687-1.24-.719-1.05-.084-.8.564-1.61.215-2.31-.568-2.97 2.988-.69 3.353M414.318 277.629c-.6-2.127-3.65-1.327-3.34.722.36 2.334 3.99 1.599 3.34-.722M419.068 245.831c.24.943 1.28 1.621 2.32 1.178 1.39-.587 1.4-2.712-.15-3.209-1.33-.432-2.48.785-2.17 2.031" style="fill:#c6c6c6;fill-rule:nonzero"/><path d="M409.268 281.647c1.95.398 2.85-2.31 1.11-3.196-2.26-1.148-3.69 2.498-1.11 3.196M415.878 247.458c.65 1.518 2.88 1.339 3.27-.265.46-3.105-4.4-2.449-3.27.265M9.558 213.393c.17 2.341 3.87 1.955 3.38-.459-.42-2.114-3.53-1.653-3.38.459M23.608 212.531a1.7 1.7 0 0 0-.48 1.584c.46 2.262 3.73 1.242 3.37-.241.37-1.022-1.54-2.615-2.89-1.343M12.158 248.577c.39 2.619 4.18 1.351 3.26-.893-.77-1.864-3.55-1.081-3.26.893M10.628 278.672c.17.67.85 1.325 1.72 1.302.19-.005.11-.057.12.089.05.869.67 1.782 1.64 1.923 2.27.339 2.63-2.968.63-3.645-.55-.19-.69.091-.76-.334-.34-2.384-3.91-1.598-3.35.665M380.528 340.664c1.35-1.838-1.41-3.828-2.74-2.011-1.37 1.856 1.42 3.829 2.74 2.011M387.408 312.599c-1.85 1.302.17 4.087 1.97 2.809 1.86-1.299-.16-4.085-1.97-2.809M399.348 282.166c.17 1.887 2.69 2.068 3.31.489.03-.084.16-1.026.07-1.036-.51-2.096-3.56-1.507-3.38.547M392.908 249.966c.48 1.779 2.96 1.636 3.33-.074.59-2.756-4.07-2.694-3.33.074M372.688 250.953c.25 1.828 2.71 1.986 3.3.359.77-2.098-2.44-3.323-3.23-1.179-.02.046-.02.099-.03.146-.01.044-.04.078-.05.123v.11l-.03.106.02.088-.01.102c-.01.04.02.103.03.145M398.548 214.231c.67-2.89-3.27-3.06-3.31-.656-.05 1.889 2.62 2.448 3.31.656M410.598 248.547c.57-2.461-3.42-2.946-3.38-.372.02 1.729 2.48 2.614 3.38.372M397.058 309.636c-1.79-.503-2.99 1.775-1.51 2.958 1 .799 2.4.089 2.54-.464.59-1.02-.14-2.456-1.03-2.494M398.188 309.122c.4 1.551 2.41 1.708 3.15.448 1.74-2.961-3.94-3.558-3.15-.448M355.858 364.933c.43 2.421 4.02 1.444 3.31-.819-.62-1.989-3.71-1.337-3.31.819M369.618 343.145c.34 1.386 2.15 1.831 3.05.592 1.11-1.521-.66-3.433-2.27-2.45-.7.325-1 1.471-.78 1.858M348.668 367.997c-.1 1.064 1.84 2.09 2.95.853.86-.952.38-2.516-.9-2.804-1.2-.278-2.27.71-2.05 1.951M358.548 343.984c-1.05.429-.69.45-1.08.826-.12.216-.29 1.038-.15 1.268.44 1.059.44.676.83 1.074.21.119 1.03.289 1.26.151 1.05-.43.69-.449 1.08-.825.67-1.216-.42-2.866-1.94-2.494M355.098 319.344c.33 1.442 2.26 1.864 3.1.51.85-1.357-.67-2.941-1.63-2.597-.47-.08-1.78.716-1.47 2.087M352.348 213.775c-.3-.386-.29-.647-.93-.906-.11-.013-.6-.147-.7-.12-.57-.146-1.65.664-1.66 1.682-.31 1.1 1.66 2.541 2.94 1.237.24-.393.77-.924.35-1.893M318.438 214.851c-.1.353.4 1.267 1.06 1.55.1.011.63.12.63.12.67.182 1.96-.963 1.74-1.759 0 0-.13-.598-.13-.643a10 10 0 0 1-.38-.543 9 9 0 0 1-.55-.364c-.1-.012-.63-.12-.63-.12-.38-.104-1.32.368-1.62 1.061-.03.233-.15.597-.12.698M348.448 253.39c1.47.392 2.37-1.138 2.16-1.705 0 0-.03-.107-.04-.171-.05-.385-.13-.676-.51-1.027-2.12-1.987-4.35 2.17-1.61 2.903M388.108 285.376c1.7-1.402-.41-4.064-2.16-2.606-1.76 1.457.45 4.037 2.16 2.606M368.018 284.262c-2.23-.423-2.84 2.975-.64 3.386 2.24.426 2.83-2.979.64-3.386M374.458 318.186c.11.039.94.145.99.046 2.08-.489 1.53-3.81-.79-3.326-1.62.392-1.78 2.699-.2 3.28M324.298 371.657c-1.11.386-.71.391-1.1.699-.24.707-.62 1.202.09 2.071.47.573 1.5.974 2.39.238 1.4-1.144.26-3.31-1.38-3.008M340.078 372.155c2.75-1.371.51-4.72-1.82-2.882-1.33 1.047-.55 3.647 1.82 2.882M322.408 349.128a1.695 1.695 0 0 0-2.4.707c-.75 1.471.82 3.09 2.33 2.28 1.13-.613 1.2-2.308.07-2.987M312.578 289.632c.95 2.498 4.71.286 2.84-1.75-1.29-1.402-3.5.002-2.84 1.75M306.958 321.039c-2.22-.199-2.48 2.943-.51 3.371 2.36.513 2.88-3.171.51-3.371M279.828 290.475c.22 1.506 2.11 1.992 3.03.781.72-.949.399-2.486-1.42-2.747-1.02.037-1.76.976-1.61 1.966M245.977 254.114c.191.986 1.371 1.897 2.581 1.105.939-.614.99-1.897.33-2.599-1.141-1.2-3.23-.195-2.911 1.494M246.428 215.335c-.14.493.63 1.939 2.069 1.638.881-.184 1.381-1.006 1.381-1.657l-.141-.67c-.98-1.897-3.399-.908-3.309.689M318.408 254.485l.19.003c1.06.014 1.72-.882 1.73-1.695.02-1.4-1.5-2.138-2.6-1.466-.54.333-.82.74-.83 1.431-.01.95.73 1.633 1.51 1.727M282.918 253.742c.28 1.672 2.809 2.225 3.38-.139.08-.933-.72-1.788-1.571-1.861a1.76 1.76 0 0 0-1.869 1.742c-.01.055.04.148.06.258M341.358 287.765c-.06.255.38 1.01.57 1.185 1.03.916 2.76.284 2.84-1.188.14-2.252-3.27-2.459-3.39-.192 0 .051-.04.148-.02.195M334.858 322.369c1.8-1.352-.24-4.062-2.04-2.706-1.77 1.332.22 4.078 2.04 2.706M340.988 347.205c-1.26 2.058 1.69 3.849 2.86 1.874 1.09-1.812-1.58-3.653-2.86-1.874M25.648 249.705c.02 2.503 3.73 2.092 3.39-.251-.3-2.116-3.4-1.887-3.39.251M53.458 287.987c1.08-.065 1.64-.915 1.58-1.797-.06-1.077-.94-1.64-1.8-1.583-1.03.062-1.33.58-1.61 1.576 0 0 .03.156.03.221.07 1.17 1.06 1.632 1.8 1.583M62.088 346.222c.27 1.939 3.4 2.148 3.39-.472a1.711 1.711 0 0 0-3.39.472M49.038 316.585c-.39-2.002-3.45-2.082-3.71-.065-.33 2.588 4.25 2.885 3.71.065M63.008 319.675c0 .045.04.083.06.125.9 2.138 4.17.64 3.1-1.45-.94-1.851-3.83-.718-3.16 1.325M81.368 348.299c-.25-1.691-2.55-1.985-3.23-.431-1.22 2.776 3.66 3.325 3.23.431M77.408 289.536c1.03-.17 1.57-1.234 1.38-2.08.02-1.298-2.59-2.06-3.26-.193-.45 1.239.58 2.492 1.88 2.273M102.328 252.144c-.76-1.945-3.79-1.038-3.24 1.051.6 2.347 4.11 1.167 3.24-1.051M69.428 251.939c.02 2.152 3.1 2.293 3.39.214l.04-.172-.01-.08c-.02-2.032-3.09-2.388-3.39-.214l-.04.173zM36.568 284.267c-.18-2.045-3.13-2.052-3.39-.07-.33 2.426 3.61 2.654 3.39.07M20.008 282.465c.1 1.625 2.42 2.461 3.36.361.69-2.5-3.52-3.088-3.36-.361M33.798 315.665c1.7 1.402 3.83-1.073 2.27-2.562-1.66-1.58-4.12 1.034-2.27 2.562M111.698 323.053c.22 2.452 3.9 1.749 3.36-.547-.45-1.964-3.57-1.665-3.36.547M139.478 289.791c-.44-1.636-2.59-1.639-3.21-.271-.51 1.134.31 2.472 1.63 2.416 1.41-.05 1.88-1.611 1.58-2.145M143.428 325.96c.93-.061 1.65-.81 1.58-1.811-.16-2.37-3.77-1.936-3.4.39.13.772.85 1.49 1.82 1.421M169.368 254.172c.46 2.014 3.36 1.588 3.37-.355-.63-2.862-3.85-1.773-3.37.355M136.128 253.356c-.15-2.404-3.63-1.901-3.43.263.21 2.245 3.56 1.919 3.43-.263M103.818 289.288c.11 2.372 3.51 2.022 3.39-.168-.03-.683-.34-1.123-.87-1.412-1.42-.779-2.72.722-2.54 1.428-.02.037.01.112.02.152M98.028 351.027c.19 1.288 1.86 2.046 2.92 1.381.33-.203.9-.996.81-1.343.17-2.401-4.14-2.747-3.73-.038M85.198 321.434c.27 1.847 2.86 1.976 3.32.166.68-2.662-3.71-2.841-3.32-.166M123.218 354.368c.74.107 1.47.476 2.18-.61.29-.435.4-1.033.16-1.603-1.37-3.189-5.89.445-2.34 2.213M171.258 291.305c.43 1.815 3.01 1.693 3.31-.11.01-.054.07-.21.05-.26l-.01-.137c.02-.072-.05-.2-.06-.273-.49-2.04-3.48-1.5-3.36.506-.02.073.05.199.07.274M207.678 254.316c.27 1.319 1.89 1.859 2.87.874.8-.804.6-2.317-.55-2.803-1.3-.55-2.6.631-2.32 1.929M296.768 354.15c.87.156 1.5-.193 1.93-1.125.19-1.273-.35-2.031-1.33-2.205-2.24-.399-2.78 2.94-.6 3.33M305.588 377.05c1.68 1.015 3.64-1.398 2-2.789-2.23-1.475-3.88 1.662-2 2.789M152.338 353.784c-.53-2.175-3.99-1.371-3.31.903.64 2.105 3.85 1.262 3.31-.903M177.448 324.524c-.36-1.375-1.94-1.678-2.84-.81-.38.367-.42.619-.48.991-.01.089-.06.169-.04.217l.01.093c0 .063-.02.053 0 .118-.01.081.05.162.07.243.49 1.88 3.06 1.574 3.31-.182.01-.043.06-.178.05-.219l-.01-.09c-.01-.064.02-.053-.01-.119.02-.081-.04-.162-.06-.242M181.458 355.101l.01-.041c.01-2.366-3.58-2.205-3.43.097.13 2.115 3.36 2.132 3.42-.056M207.848 291.429c.07.334.06.25.07.335.87 1.326 2.08 1.256 2.8.539.76-1.086.43-1.4.37-1.896-.79-1.199-1.09-1.053-2.27-.906-.59.256-1.16 1.053-.97 1.928M244.378 290.935c.639 3.644 4.93.826 2.96-1.211-1.101-1.14-2.97-.3-2.96 1.211M277.158 322.487c-.04-.016-.09-.014-.131-.027-.04-.011-.069-.038-.109-.047l-.07-.002-.06-.021c-.051-.008-.09.01-.14.008-.05-.003-.11-.027-.171-.025-.96.045-1.98 1.052-1.539 2.292.589 1.642 2.93 1.402 3.289-.196v-.064l.02-.061c.01-.051-.01-.097-.01-.148s.03-.111.03-.163c0-.041-.03-.09-.03-.13-.079-.686-.589-1.23-1.079-1.416M271.558 354.399c.16-.744-.27-1.823-1.311-2.056-.72-.162-1.76.231-2.02 1.232-.629 2.239 2.821 3.08 3.331.824M286.958 377.38c-.17-1.15-1.431-1.614-1.82-1.465-1.131-.241-2.42 1.947-.891 3.083 1.27.938 2.931-.13 2.711-1.618M302.718 393.606c.18.402.11.775.75 1.191.67.441 1.63.317 2.17-.212 2.34-2.329-2.88-4.684-2.92-.979M288.318 396.673c1.57 1.648 4-.738 2.449-2.346-1.549-1.632-4.02.712-2.449 2.346M316.698 389.191c-3.13.784-.43 5.065 1.56 2.818 1.13-1.272-.08-3.079-1.56-2.818M137.178 379.254c2.11-1.262-.14-4.344-2-2.758-1.47 1.262.04 3.945 2 2.758M157.898 379.514c.29 2.618 4.66 1.063 3.07-1.294-1-1.487-3.46-.608-3.07 1.294M208.018 325.627c.55 2.709 4.57.947 3.05-1.287-1.01-1.486-3.43-.567-3.05 1.287M243.648 326.659c2.21.064 2.42-3.352.109-3.419-2.339-.068-2.319 3.353-.109 3.419M263.487 378.625c-.379-1.708-2.559-1.776-3.22-.351-.309.671-.149 1.861.901 2.299 1.14.483 2.66-.421 2.319-1.948M29.368 311.446c-.12-.614-.9-1.797-1.8-2.006-.24-.055-.09-.02-.17-.218-.1-.117-.13-.253-.13-.253-1.02-1.588-3.66-.564-3.08 1.411.39 1.32 1 .706 1.55 1.602.02.047.03.102.07.148l.31.302c.78 1.889 3.66 1.057 3.25-.986M42.868 339.462c.01.043 0 .089.02.132.02.067.07.123.1.187.02.043.04.165.08.195l.07.088c.35.478.79.72 1.46.691 5.26-.221-1.48-6.331-1.79-1.812-.01.065.01.128.02.193 0 .068-.02.134-.01.201.01.043.04.082.05.125M51.318 344.476c.08.055.09.104.19.177.13.157.84.369 1.29.286 1.29-.236 2.05-2.127.68-3.092-.04-.056-.29-.142-.34-.175-1.99-1.862-4.21 1.806-1.82 2.804M97.398 375.172c.41.105.12.077.55.176 2.15.5 2.94-2.628.93-3.29-3.13-1.036-3.62 2.574-1.48 3.114M114.478 377.184c1.49 1.325 3.61-.542 2.59-2.179-1.35-2.153-4.57.428-2.59 2.179M166.908 412.714c1.46-1.418-.33-3.731-2.07-2.672-2.12 1.29.26 4.429 2.07 2.672M149.328 398.733c1.31 1.209 3.67-.342 2.63-2.12-.22-.77-1.92-1.365-2.82-.169-.59.783-.36 1.783.19 2.289M168.038 399.569c.56.896 1.76 1.113 2.59.372 1.36-1.231-.06-3.25-1.06-2.995-.92-.339-2.41 1.23-1.53 2.623M184.488 381.74c.98.327 2.54-1.581 1.29-2.906-.81-.839-2.42-.719-2.86.661-.43 1.319.89 2.431 1.57 2.245M208.358 355.577c.13.565.46 1.006.99 1.231.07.051.68.137.68.137 1.04-.28 1.4-.289 1.71-1.714-.79-3.079-3.78-1.537-3.38.346M239.588 356.226c.52.396.9.386 1.27.334 1.17-.161 1.87-1.453 1.23-2.539-1.37-2.342-4.67.536-2.5 2.205M270.388 397.347c0 .05-.02.046 0 .096-.01.055.01.051.02.104.31 2.124 3.73 1.83 3.38-.504-.32-2.095-3.47-1.826-3.4.304M360.528 360.058c-1.38.27-1.79 1.957-.87 2.87.91.913 2.6.506 2.87-.888a1.687 1.687 0 0 0-2-1.982M383.918 336.666c-.12-.867-.81-1.456-1.69-1.449-1.69.014-2.21 2.067-1.11 3.01 1.13.976 3.06.085 2.8-1.561M69.178 364.342c-2.79-2.295-4.41 2.993-1.22 2.847 1.1-.048 2.23-1.222 1.22-2.847M96.898 389.826c.3.292.53.126.8.313.98.686 2.25.159 2.59-.834.72-2.068-2.78-3.56-3.89-1.821-.58.889-.23 1.872.5 2.342M82.088 371.122c.07.764.7 1.417 1.46 1.528 2.06.31 2.45-2.518 1.35-3.009-1.17-.976-2.96-.043-2.81 1.481M108.868 392.197c1.24-2.981-3.58-3.8-3.84-1.236-.2 1.981 2.92 2.755 3.84 1.236M75.138 367.094c-2.23-2.508-4.68.553-2.87 2.082.8.672 1.55 1.024 2.42.555.94-.505 1.24-1.749.45-2.637M118.678 391.843c-2.16-.211-2.59 2.966-.5 3.379.07.014.04-.025.14.022 2.48 1.148 3.71-3.073.36-3.401M133.528 394.045c-1.14-.088-1.91 1.052-1.84 1.505-.31.733.79 2.303 2.24 1.839 2.21-1.075.81-3.597-.4-3.344M178.388 412.629c.09 1.271 1.3 1.855 2.28 1.502 1.18-.431 1.48-1.877.69-2.764-1.06-1.182-3.08-.397-2.97 1.262M188.248 400.188c0 .041.1.148.12.186.45.758 1.21 1 1.92.807 2.14-.583 1.28-3.924-.91-3.325 0 0 0 .009-.23.079-1.12.722-1.16 1.365-.9 2.253M208.868 380.7c.42 1.83 2.7 1.716 3.26.296.65-3.214-3.8-2.932-3.26-.296M238.378 380.339c.41-2.183-2.88-2.858-3.37-.69-.48 2.203 2.94 2.954 3.37.69M232.048 401.03c2.16.473 2.93-2.733.84-3.323-2.29-.657-3.07 2.836-.84 3.323M254.408 398.219c-.391-1.445-2.27-1.667-3.05-.544-.55.781-.331 1.947.56 2.461 1.309.754 2.89-.443 2.49-1.917M256.007 411.441l.01.065c.291 2.667 4.5 1.406 3.23-.995-.859-1.602-3.359-.902-3.24.93M269.458 410.414c.819 2.433 4.33.68 3.09-1.414-1.031-1.753-3.75-.512-3.09 1.414M330.088 385.953c.09 1.39 1.61 1.934 2.57 1.366.98-.58 1.22-2.186.03-2.927a1.69 1.69 0 0 0-2.6 1.561" style="fill:#c6c6c6;fill-rule:nonzero"/><path d="M91.318 386.257c.08 1.512 1.52 1.508 1.9 1.794 2.44 1.804 4.21-1.608 2.16-2.702-.33-.174-.73-.36-1.09-.371-.14-.039-.09-.07-.16-.13-.9-.735-2.26-.336-2.68.651-.05.103-.13.596-.13.758M327.878 387.736c-.7-2.297-4.06-1.067-3.25 1.091.7 1.885 3.67 1.349 3.25-1.091M213.198 412.999c-.21-.956-1.31-1.483-1.7-1.347-1.17-.298-2.52 2.081-.86 3.145 1.31.847 2.89-.356 2.56-1.798M212.688 399.332c-.48-2.21-3.78-1.457-3.3.717.48 2.206 3.78 1.455 3.3-.717M244.538 413.395c1.53-1.948-1.71-4.191-2.97-1.627-.61 1.725 1.699 3.266 2.97 1.627M234.658 420.827c.42-1.549-1.35-2.542-2.07-2.107-.91.327-1.32 1.075-1.29 1.736.08 1.932 2.84 2.284 3.36.371M225.908 413.085c-.14.552 1 1.917 1.78 1.663.35.073 1.07-.395 1.3-.694 1.08-1.44-.62-2.999-1.42-2.743-.61-.124-1.9 1.025-1.66 1.774M194.188 413.889c.53.914 1.57 1.044 2.32.6.92-.539 1.04-1.565.6-2.318-1.14-1.942-4.07-.217-2.92 1.718M127.798 403.269c-2.1-.304-2.73 2.662-.78 3.302 2.35.773 3.21-2.952.78-3.302M122.158 404.442c.03.031.14.148.18.159l.11.039c1.82.905 3.42-1.586 1.79-2.863-1.82-1.443-3.81 1.305-2.08 2.665M298.088 402.678c-1.97.892-.79 3.784 1.17 3.231 2.2-.627 1.31-4.052-1.17-3.231M304.678 401.353c.61 2.146 3.88 1.284 3.25-.929-.62-2.229-3.87-1.216-3.25.929M139.528 407.595a1.71 1.71 0 0 0 1.21 2.332c.53-.03.5.06.56.085.82.325 1.89-.071 2.24-.96.94-2.325-3.17-3.502-4.01-1.457M134.068 407.347c.76-1.27-.4-2.888-1.85-2.562-3.37 1.199.29 5.196 1.85 2.562M162.478 417.451c.08.979.9 1.577 1.7 1.577.21-.065.18 0 .34 0 2.15 0 2.3-3.247.14-3.418-1.37-.119-2.2.687-2.2 1.695.01.051.01.061.02.146M155.958 416.971c2.32.595 3.06-3.103.6-3.351-2.17-.219-2.56 2.849-.6 3.351M265.828 415.97c.23 1.051 1.39 1.605 2.31 1.252 1.4-.543 1.54-2.704-.111-3.226-1.399-.443-2.429.871-2.199 1.974M292.958 404.574c-1.67-.842-3.29 1.241-2.05 2.658 1.24 1.415 3.59.034 2.89-1.749-.15-.389-.52-.75-.84-.909M280.997 408.898c.76 1.554 3.401 1.243 3.221-1.101-.52-2.445-4.35-1.221-3.221 1.101M254.888 418.024c-.18.988 1.46 1.994 2.17 1.537 1.73-.495 1.55-2.938-.11-3.307a1.68 1.68 0 0 0-2.06 1.77M274.628 413.851c-.26-2.21-3.631-1.882-3.351.41.271 2.287 3.621 1.807 3.351-.41M176.338 418.563c-.31-1.219-1.76-1.647-2.68-.975-1.15.841-.75 2.532.36 2.985 1.26.516 2.67-.626 2.32-2.01M152.628 408.247c-2.22-.328-2.73 3.073-.5 3.409.13.019.04-.033.19.004 2.22 1.069 4.03-2.878.31-3.413M238.858 419.002c-.75-.093-1.99 1.337-1.2 2.605.25.416.82.826 1.54.791.04-.002.15.022.18.004.29.036.96-.452 1.13-.684 1.06-1.453-.68-3.177-1.65-2.716M247.088 419.929c1.11 2.184 4.169.234 2.97-1.684-1.16-1.86-3.97-.271-2.97 1.684M222.168 422.431c-.43 4.167 6.13.673 2.28-1.441.07-.653-.2-1.187-.68-1.541-1.92-1.451-4.13 1.787-1.6 2.982M206.488 424.559c1.25.476 2.79-.745 2.21-2.23-.59-1.523-2.87-1.474-3.25.262-.26 1.184.44 1.508 1.04 1.968M180.618 419.94c.26 2.758 4.41 1.452 3.2-.927-.86-1.675-3.37-.947-3.2.927M203.088 422.053c-.06-.182.05-.167.15-.363 1.13-2.167-2.51-3.789-3.16-1.214-.07.266-.16.537.04 1.05.01.039-.28.418-.34.713-.62 2.86 4.25 2.585 3.31-.186M189.638 420.823a1.691 1.691 0 0 0 3.11.438c1.81-3.002-3.94-3.535-3.11-.438M195.668 423.844c2.15.256 2.66-3.023.49-3.398-2.14-.569-2.88 3.111-.49 3.398M230.358 420.799c-1.77-1.404-3.91 1.286-2.13 2.688 1.77 1.405 3.9-1.285 2.13-2.688M213.668 421.52c.04-.387.24-.571 0-1.225-.25-.671-1-1.137-1.67-1.111-1.67.065-2.27 2.191-.88 3.12.14.115-.57 1.136.64 2.017 1.86 1.345 3.84-1.558 1.91-2.801M219.818 423.572c.86-2.226-2.49-3.233-3.22-1.202-.79 2.189 2.45 3.157 3.22 1.202M270.918 16.535l.3-.583-.34-.173-.3.583z" style="fill:#c6c6c6;fill-rule:nonzero"/><path d="m4.738 179.019 1.22-.11-2.67 33.425-1.24-.337zm8.02-32.734 1.12-.511-7.82 32.47-1.19.108zm13.15-30.965.91-.581-12.71 30.211-1.01.456zm14.89-23.987 1.04-1.312-14.55 23.64-.61.385zm26.43-30.607 5.34-2.26-20.44 24.199-6.08 2.169zm26.47-21.79 3.12-1.181-23.29 19.593-4.55 1.927zm25.3-14.87 2.12-.918-22.75 13.319-1.32.5zm165.35-8.019-16.851-6.17 7.571 1.921zm44.02 21.6-2.08-.835-8.31-4.919zm28.73 22.678-6.67-2.636-22.59-19.551 5.09 2.041zm23.2 25.573-.76-.474-6.26-7.399zm18.61 28.987-2.24-1.234-16.35-26.966 1.51.944zm13.19 30.971-2.25-.752-12.75-30.466 2.5 1.376zm8.02 32.657-2.38-.265-7.68-32.383 2.35.782zm2.82 33.455-2.43.404-2.68-33.455 2.42.269zm-2.53 33.23-2.57 1.081 2.68-33.244 2.41-.402zm-8.01 32.682-2.3 1.4 7.65-32.254 2.5-1.05zm-12.81 30.615-2.2 1.737 12.47-30.038 2.13-1.301zm-17.6 28.212-1.39 1.234 16.25-26.45 1.73-1.366zm-50.37 48.845-3.53 1.518 22.43-19.082 5.04-2.161zm-25.46 15.039-1.95.875 22.17-12.944.81-.351zm-67.06 19.783-5.2-.272 9.42-7.437 13.449-.949-8.309 7.132zm-9.86 1.446-1.15.098 4.96-1.205 2.76.145zm-64.72-4.516v-.327h-.28l-19.59-7.835 7.66 1.129.65.163 18.91 7.752-7.3-1.205zm-41.17-14.487-22.17-12.986 5.45 1.623.08-.316-.08.316.64.161 22.91 13.777-2.52-.761zm-29.12-16.127.13-.296-1.16-.5-23.28-19.165 3.29 1.442.47.312 22 18.544-1.32-.633zm-48.31-46.538 5.9 3.043.46.302 19.92 23.514-4.12-1.801zm-32.72-60.638.72.658 12.42 29.756-.25-.225zm-8.43-33.077 1.26.735 7.59 31.838-1.02-.927zm-1.5-33.427 2.67 33.352-1.36-.794-2.52-32.889zm3.35-34.154 7.04-.469-2.68 34.532-7.04-.47zm14.83-34.455-7.7 33.323-7.01.467 7.89-32.705zm12.88-31.905-12.68 31.211-6.76 1.074 12.87-30.604zm.34-.763-6.44 1.647 16.96-27.545 6.38-2.277zm48.64-55.815-19.71 24.673-10.44 1.87 20.72-24.535zm22.58-20.589-21.91 19.778-9.07 1.931 23.74-19.973zm24.7-15.443-23.16 14.357-.48.159-6.38 1.531 25.49-14.921zm1.85-1.134-1.4.347 15.49-5.937zm9.07-1.628-5.82 1.045 22.6-8.967 5.35-.943zm40.06-11.637-1.95.181 9.57-1.895zm20.27-1.004-.44.146-7.38.192 8.01-2.449 3.89-.126zm10.12-.027h-8.71l4.12-2.256 4.99-.157zm9.81.154-9.15-.148.41-2.422 5.26.159zm9.2.286-8.02-.265-3.45-2.392 3.97.133zm30.33 3.406 19.01 8.725-9.02-1.109-.051.325-.21.252 17.331 14.39-16.111-1.277-13.679-14.166 11.959.955.031-.327.15-.289-16.58-8.754zm21.15 8.991-13.4-6.15 19.6 7.181zm34.5 17.371-23.1-14.693 4.47 1.028 25.85 15.321zm22.6 20.765-.41-.137-21.21-19.731 8.06 1.847 23.1 19.988zm31.93 27.483-20.14-24.162 7.34 2.904 19.38 23.085zm16.95 28.988-16.45-28.168 6.84 1.898.26.262 16.69 27.534zm12.86 31.976-12.53-31.242 7.44 1.55 12.88 30.781zm7.9 34.013-7.71-33.327 7.86 1.098 7.71 32.544zm2.6 34.868-2.51-34.21 7.89.316 2.69 33.578zm-2.51 35.012 2.51-34.357 8.06-.316-2.68 33.411zm-7.79 33.811 7.7-33.133 7.85-1.256-7.71 32.508zm-12.53 31.89 12.34-31.172 7.76-1.861-12.7 30.567zm-16.89 28.614 16.55-27.809 7.24-2.412-16.92 27.529zm-.58.927 6.55-2.564-20.71 23.911-5.85 2.508zm-53.23 47.167 21.24-19.292.27-.133 9.28-2.377-22.98 19.56zm-23.89 14.972 22.76-13.969 6.68-1.916-25.14 14.679zm-11.74 3.318 5.609-1.193-20.809 8.024-6.71 1.418zm-11.47 1.715 8.38-1.25-23.051 8.676-5.25.81zm-13.29 1.45 10.96-1.194-18.46 7.633zm-4.92-12.653 18.279-1.295L257.588 411l-13.74.97zm-20.05 21.081-9.54.398 4.46-7.11 14.37-.632zm-20.38 1.159 8.75-.069-3.12 1.471h-5.16zm-.69.004.46 1.398h-5.12l-3.67-1.398zm-16.63-.32 6.45.317 3.34 1.272-3.48-.211zm-42.68-11.256-17.99-13.45 15.82 1.582 14.42 13.278-11.65-1.259zm-10.51-1.557-.8-.159-20.79-13.7 12.84 1.835 17.89 13.371zm-23.58-14.242.45.151 20.59 13.569-6.75-1.418L109.178 392zm-11.56-3.008-21.97-19.35 12.84 2.349.42.138 19.34 19.017zm-78.41-78.439 6.2 2.211 16.45 27.476-6.36-3.28zm-6.99-29.767 12.82 31.154-6.39-2.282-.44-.585-12.54-30.114zm-7.9-34.023 7.7 33.287-6.68-1.863-.09-.182-7.74-32.482zm-2.6-35.036 2.52 34.356-6.86-1.248-2.69-33.577zm3.35-35.222 12.68-.325-2.52 35.413-12.85-.489zm7.83-34.049 12.49-1.135-7.55 34.202-12.66.325zm24.55-33.598-11.88 31.791-12.43 1.129 12.72-31.313zm.29-.7-11.48 1.592 17.02-28.362 10.63-1.903zm50.45-56.216-17.76 24.741-15.13 1.931 19.76-24.75zm68.35-39.235-11.21 1.018 18.83-8.675 6.75-.626zm14.34-.858-12.88.767 14.47-8.332 8.87-.532zm15.34-.513-14.22.474 10.49-8.125 9.09-.236zm31.76.153-15.32-.323.63-7.9 10.11.163zm15.07.495-14.3-.477-4.58-8.055 9.64.319zm14.14.809-13.11-.772-9.21-8.187 8.55.533zm1.39.083-13.801-8.443 8 .38 16.97 8.954zm-5.051 13.686-8.959-13.856 13.76.81 13.699 14.181zm52.951 23.022-20.28-1.472-12.721-19.657 16.481 1.306zm-2.55-18.902-13.671-1.552-17.199-14.274 9.929 1.22zm1.37.16-20.811-14.52 8.201 1.364 23.37 14.864zm20.32 20.689-.24-.123-19.28-19.777 11.32 1.798 21.33 19.842zm14.41 2.648 18.8 24.62-15.59-1.785-.22-.109-16.81-24.635 13.44 1.782zm19.71 24.731-18.71-24.51 9.8 2.022 20.39 24.455zm16.27 29.416-15.84-28.676 11.67 1.999 16.52 28.281zm12.01 32.491-11.72-31.792 12.44 1.616 12.56 31.312zm7.55 34.877-7.38-34.205 13.35 1.139 7.72 33.392zm2.43 35.728-2.35-35.072 13.72.327 2.52 34.255zm11.37 34.588-13.71 1.304 2.35-35.237 13.87-.489zm-21.17 35.822 7.37-33.854 13.68-1.301-7.71 33.203zm-11.88 32.457 11.7-31.769 13.27-1.943-12.38 31.29zm-15.95 29.018 15.65-28.295 12.47-2.399-16.66 27.99zm-.45.778 11.24-2.653-20.25 24.135-9.66 2.47zm-53.75 46.897 19.34-19.177 13.48-2.508-21.4 19.431zm-15.75 2.98 13.39-1.923-20.65 13.955-10.161 1.515zm-17.421 1.797 16.191-1.666-17.49 13.608-12.31 1.341zm-10.199-18.298 22.58-1.317-12.71 18.986-18.62 1.318zm-65.73 34.061 14.93.321.46 6.878h-9.83zm-15.15-.491 14.31.472 5.55 7.183-9.64-.474zm-11.86-13.899 10.07 13.156-13.52-.966-14.46-13.32zm-52.91-22.663 19.72 1.79 13.68 18.96-16.25-1.625zm-18.38-3.073-17.63-24.287 19.22 2.136.2.104 15.15 24.305-16.56-2.132zm-18.51-24.391 17.57 24.2-13.11-2.398-19.4-24.212zm-44.87-64.145 11.87 31.596-11.39-2.247-12.88-31.283zm-7.55-34.712 7.37 34.022-12.48-1.945-7.71-33.373zm-2.61-35.901 2.52 35.236-12.85-1.3-2.52-34.423zm3.18-36.082 18.5-.33-2.35 36.106-18.67-.33zm7.66-34.897 17.8-.989-6.88 34.9-18.48.33zm29.02-34.146-11.05 32.492-17.75.986 11.89-31.836zm50.81-56.938-15.3 24.782-19.31 1.637 17.8-24.786zm3.9-18.931.25-.123 13.47-1.443-17.15 19.796-16.58 1.61zm31.47-3.666-15.9 1.273 18.23-14.323 12.15-1.103zm18.96-1.027-17.96.971 14.51-14.186 13.55-.807zm20.3-.686-19.47.655 10.12-14.037 14.73-.491zm20.94-.176-20.24.165 5.39-13.881 15.35-.165zm21.25.333-20.59-.329.49-13.882 15.69.33zm88.79 49.058-23.47-1.323-11.49-24.972 20.48 1.487zm-14.12-25.435-16.5-19.792 14.13 1.604 19.31 19.802zm14.91 25.483-14.47-24.785 17.26 1.645.21.107 16.84 24.673zm46.23 64.647-10.39-32.327 17.43 1.483 11.73 31.833zm6.86 35.566-6.71-34.901 18.83.991 7.39 34.241zm2.26 36.589-2.18-35.934 19.53.332 2.35 35.105zm17.35 35.427-19.53 1.158 2.19-35.93 19.69-.497zm-26.14 36.372 6.54-34.553 19.49-1.156-7.38 33.893zm6.71 30.683-17.59 2.301 10.72-32.312 18.59-1.81zm-31.86 31.52 14.01-28.524 17.49-2.288-15.69 28.366zm-57.51 30.148 20.25-1.961-16.32 19.211-16.621 1.711zm-15.33-23.6 26.42-1.496-11.49 24.47-22.75 1.327zm-79.79 45.512 20.39.164.49 13.023-15.35-.33zm-125.12-80.335 21.44 1.978 12.53 28.895-19.28-2.142zm-.78-.077 14.67 28.687-15.11-2.438-16.02-28.367zm-11.32-32.837 11.05 32.142-16.7-2.15-.17-.088-11.92-31.711zm-6.87-35.396 6.71 34.722-17.8-1.813-7.38-34.064zm-2.43-36.761 2.35 36.099-18.5-1.156-2.52-35.273zm3.01-36.769 24.14-.166-2.01 36.793-24.48-.499zm6.97-35.58 23.12-.831-5.88 35.59-24.12.167zm11.26-33.184 21.55-1.326-9.55 33.019-23.06.829zm21.78-1.997-21.47 1.321 14.71-29.085 19.46-1.648zm29.14-54.955 19.96-1.485-12.15 24.969-23.13 1.322zm43.56-3.199-22.41.989 13.72-19.676 18.27-.988zm24.92-.686-24.19.663 9.6-19.689 19.72-.663zm25.76-.174-25.08.164 5.13-19.696 20.44-.166zm26.08.165-25.43-.165.5-19.696 20.8.333zm97.05 58.985-26.28-1.164-9.53-29.601 23.6 1.33zm9.99 33.725-9.05-33.02 22.22 1.337.16.079 10.42 32.434zm5.84 36.081-5.71-35.422 23.8.833 6.72 34.922zm1.91 37.278-1.84-36.623 24.83.334 2.18 35.955zm22.99 36.273-24.83 1 1.84-36.619 25.17-.333zm-6.64 35.239-23.97 1.664 5.71-35.245 24.81-.999zm-10.92 33.012-22.23 1.991 9.05-32.672 23.91-1.661zm-14.33 29.246-20.14 2.311 12.03-28.89 22.14-1.984zm-44.89 4.893 23.62-1.817-14.63 24.286-20.47 1.981zm-20.48-28.387 29.55-1.336-9.53 29.096-26.54 1.502zm-91.85 55.943 25.25.333.49 18.674-20.61-.166zm-114.1-128.117 5.87 35.247-23.11-1.497-6.71-34.748zm-1.91-37.279 1.84 36.621-23.97-.999-2.35-36.122zm2.67-37.454 28.77-.335-1.69 37.31-29.1-.167zm5.96-36.261 27.73-.668-4.87 35.939-28.75.335zm9.72-33.697 25.84-1.167-7.72 33.539-27.68.667zm92.17-33.817-28.17.667 8.67-24.995 24.34-.668zm30.39-.175-29.72.167 4.83-25 25.23-.165zm30.22.336-29.56-.335.33-24.999 25.56.165zm78.82 102.624-4.53-35.937 28.42.836 5.72 35.436zm1.57 37.963-1.51-37.308 29.62.335 1.85 36.639zm28.11 36.956-29.62 1.004 1.51-37.305 29.96-.335zm-5.79 35.919-28.25 1.336 4.37-35.594 29.59-1.004zm-9.2 33.353-26.36 1.667 7.21-33.023 28.2-1.334zm-51.8-30.157 31.97-1.172-7.21 33.035-29.62 1.339zm-96.99 89.15-4.66-24.318 29.55.168.5 24.484zm-84.36-126.603 4.7 35.766-27.74-1.338-5.87-35.264zm-1.74-37.962 1.68 37.306-28.93-.836-1.85-36.637zm2.34-37.969 33.21-.168-1.17 37.824-33.72-.336zm4.93-36.604 31.51-.671-3.19 36.453-33.19.167zm7.85-34.208 29.28-.837-5.54 33.718-31.46.67zm61.87-2.011-31.79.503 7.2-29.789 28.27-.669zm33.66-.173-33 .167 3.68-29.959 29.82-.168zm30.81-29.623 3.18 29.961-33.34-.337.51-29.959zm44.73 101.797-3.03-36.284 31.85.504 4.54 35.947zm1.04 38.478-1.01-37.824 33.38.168 1.52 37.32zm32.37 37.635-33.38.671 1.01-37.652 33.89-.335zm-138.27 102.271-3.85-29.445 33.17.336.33 29.276zm-45.91-100.944 3.36 36.11-31.68-1.004-4.7-35.777zm-1.05-38.308 1.01 37.652-33.04-.671-1.68-37.316zm1.84-38.481 35.95-.166-.68 38.166-36.45-.168zm3.23-37.114 34.42-.336-1.68 36.629-35.93.167zm71.04-.994h-35.92l3.02-33.895 33.06-.168zm34.22-33.724 2.349 33.724h-35.919l.17-34.062zm4.55 71.011-1.51-36.628 34.76.504 3.029 36.291zm.529 38.821-.509-38.167 36.299.167 1 37.832zm35.79 38.143-36.299.337.509-37.826 36.79-.168zm-108.159 71.49-2.85-33.382 35.92.168.16 33.55zm-5.4-70.499 1.85 36.454-34.42-.672-3.36-36.118zm-.53-38.48.51 37.826-35.95-.337-1.01-37.657zm1.33-38.822h37.49l-.17 38.169h-37.99zm37.98 38.169.16-38.169h37.67l.5 38.169zm37.83 38.483-37.67.168-.16-37.996h38.33zm-38.49-37.828.17 37.996-37.66-.168-.5-37.828zm-35.62 74.941-1.85-36.459 37.64.169.17 36.457zm72.58 0-35.96.168-.17-36.458 37.64-.169zm0-151.051 1.51 36.632h-37.64l.17-36.632zm-72.58 0h35.96l-.17 36.632h-37.47zm-29.62 184.406-5.36-33.379 34.37.671 2.85 33.379zm99.81.681-33.4.336-.17-33.55 35.919-.168zm37.8-34.717-34.76.672 1.51-36.454 36.279-.336zm-.08-150.516-34.71-.503-2.35-33.72 32.03.501zm-137.36-33.893 31.86-.503-3.02 33.891-34.37.336zm-30.11 217.082-7.72-33.035 31.63 1.003 5.37 33.371zm37.28 31.294-7.19-29.274 31.78.67 3.85 29.441zm89.4.68-29.99.336-.34-29.275 33.34-.336zm35.929-30.781-32.199.839 2.35-33.378 34.72-.67zm37.621-35.058-32.02 1.173 3.03-36.108 33.36-.671zm-.28-148.812-31.81-.502-5.041-33.717 29.801.837zm-37.63-34.89-31.971-.501-3.169-29.957 28.78.669zm-151.75-28.935 26.2-1.002-7.2 29.78-29.21.834zm-46.65 212.107 27.68 1.335 7.71 33.02-25.84-1.668zm46.5 64.319-.16-.082-10.06-29.177 29.2 1.335 7.19 29.264zm27.07 2.031 28.33.833 4.66 24.311-24.34-.834zm85.28 25.161-25.57.334-.5-24.486 29.9-.335zm33.19-25.993-28.62.837 3.019-29.272 32.121-.837zm51.69-3.412-23.76 1.827 9.52-29.08 26.28-1.662zm21.34-209.539-28.37-.835-7.05-33.369 26.37 1.168zm-36.28-34.89-29.72-.836-6.361-29.78 26.551 1.002zm-36.94-31.296-28.68-.668-3.66-25.167 24.34.667zm-132.74-24.143 22.59-.997-8.67 24.988-26.08.997zm-36.42 27.02 23.26-1.329-10.2 29.599-25.77 1.164zm-46.44 209.212 23.05 1.493 9.55 32.668-21.54-1.988zm46.31 63.968-.18-.089-12.56-28.987 25.76 1.662 10.02 29.084zm24.4 2.56 25.9 1.327 8.66 24.298-22.58-1.328zm35.58 26.327 24.17.828 5.12 18.834-19.71-.829zm72.05 19.514-20.8.333-.5-18.672 25.43-.333zm29.44-20.349-24.52 1.001 3.83-24.479 28.51-.833zm62.82-5.633-17.32 2.124 14.62-24.256 19.98-2.293zm17.54-293.711.19.094 13.9 28.983-21.99-1.324-12.2-29.414zm-45.41-3.748-26.43-.998-8-25.156 22.93 1.163zm-35.4-26.847-24.19-.663-4.13-19.522 19.55.497zm-127.42-17.298 16.27-1.303-13.71 19.654-19.74 1.469zm-33.07 319.881 22.89 1.659.19.094 12.01 24.346-19.95-1.812zm36.31 26.845 22.38 1.316 9.58 18.819-18.26-1.151zm33.19 20.855 19.45.817 5.53 12.849-14.89-.492zm57.24 13.687-15.53.331-.49-13.027 20.58-.329zm25.16-14.364-19.73.664 4.13-18.669 24.36-.995zm51.71-5.289-13.92 2 16.29-19.169 17.05-2.092zm35.17-22.871-.24.118-13.86 2.581 17.24-24.371 15.64-2.418zm35.04-260.082-17.46-1.481-.19-.096-13.89-28.95 15.67 1.793zm-89.83-60.184-22.77-1.155-8.76-19.674 18.79 1.154zm-32.661-21.533-19.329-.491-4.41-13.873 14.759.492zM141.718 17.755l9.87-1.215-18.15 14.268-12.97 1.388zm-77.73 63.439 15.3-1.952-14.69 29.048-16.81 1.632zm-11.36 261.752-.4-.268-16.69-27.869 11.38 2.244.21.106 16 28.33zm66.48 50.438-.42-.139-19.43-19.103 16.18 2.084 17.11 19.079zm48.23 18.55 12.63.903 10.17 7.142-7.75-.516zm55.23 8.552-10.2.081-.47-6.875 15.13-.322zm20.449-8.461-14.919.656 4.56-13.014 19.47-.654zm49.051-6.23-7.96 1.692 20.44-13.816 10.72-2.116zM202.028 5.11h9.85l-.63 7.901-14.98.161 5.4-7.942zm-35.26 2.601 4.52-.553-18.66 8.592-8.56 1.055zm-34.11 11.664 7.49-1.344-21.11 14.344-.29.141-9.65 1.463zm-25.44 15.628.43-.143 10.27-1.555-19.91 19.742-12.86 1.882zm-33.64 332.628-20.18-23.827 10.2 2.473 19.31 24.094-8.9-2.452zm25.2 20.802-.79-.317-22.76-19.183 8.4 2.317 21.74 19.148zm57.69 26.552-19.66-7.308 4.21.885.07-.32-.07.32.83.166 17.49 6.996zm-1.15-4.29 10.3 1.113 14.92 7.463-5.79-.612zm33.16 9.83 2.76.184 5.32 1.162-.65-.054zm35.34 1.757-3.92.238 2.93-1.383 6.89-.287zm10.19-418.995 13.37 2.498-4.56-.216-9.48-2.354zm5.18 2.056-5.94-.371-7.22-2.43 2.58.172zm-42.3-2.629 2.28-.152-7.6 2.323-5.92.355zM3.938 245.788l.33-.025-.32.079 8.04 32.496.32-.079-.31.128 13.51 31.64.3-.128-.27.177 18.71 29.16.27-.176-.24.216 23.37 26.424.24-.217-.21.253 25.14 20.693.21-.252-.13.301 1.18.505 28.95 16.408.17-.282-.13.301 4.37 1.837.11-.305-.11.305 28.85 10.368.09-.313-.09.313 7.8 2.007.09-.318v.327h.31l10.13 1.672.05-.324-.05.324 21.21 3.165.04-.325-.04.325 5.61.467.02-.328-.02.328 5.66.342.01-.327-.01.327h11.13l-.01-.327.01.327 5.66-.343-.02-.327.02.327 5.44-.466-.04-.326.04.326 9.84-1.441-.05-.324.05.324 17.47-2.779-.06-.321.06.321 10.96-2.317-.081-.317.081.317 5.45-1.565-.1-.31.1.31 25.87-9.813-.13-.302.13.302 7.53-3.375-.15-.291.15.291 25.5-15.061-.16-.282.2.252 25.75-21.21-.21-.249.21.249 3.34-2.911-.22-.246.25.215 21.38-24.8-.25-.214.28.173 17.62-28.219-.28-.173.3.126 12.82-30.614-.3-.126.32.079 8.04-32.667-.32-.079.33.024 2.57-33.179-.33-.025.33-.026-2.74-33.351-.33.026.32-.077-7.87-32.495-.32.077.3-.126-12.82-30.614-.3.126.28-.173-17.79-28.39-.28.173.25-.218-23.19-26.003-.25.21.21-.251-25.78-21.486-.21.252.16-.286-34.66-19.202-.17.282.08-.319-6.35-1.462-16.85-7.718-.13.297.079-.318-13.799-3.5-.07.32.07-.32-9.27-1.65-8.661-1.799-.03.175.03-.175-9.449-1.584-.05.324.05-.324-5.39-.574-.03.326.03-.326-5.15-.343-.01.327.01-.327-10.79-.342v.327-.327l-10.79.342.01.327-.01-.327-5.14.343.03.326-.03-.326-5.2.563.05.324-.05-.324-33.5 5.943.07.319-.07-.319-4.11 1.028.08.318-.12-.307-28.16 10.795.13.304-.13-.304-7.08 3.066.13.3-.17-.282-25.31 14.879.16.282-.2-.252-26.51 21.807.2.252-.24-.216-22.07 25.118.25.209-.25-.209-4.46 5.608.27.188-.27-.188-14.89 23.96.28.172-.31-.127-13.17 30.955.31.128-.32-.079-8.04 32.667.32.079-.33-.026-2.74 33.522.33.026-.33.025z" style="fill:#c6c6c6;fill-rule:nonzero"/></svg>