<?xml version="1.0" encoding="UTF-8" standalone="no"?>
<!DOCTYPE svg
    PUBLIC "-//W3C//DTD SVG 1.1//EN" "http://www.w3.org/Graphics/SVG/1.1/DTD/svg11.dtd">
<svg width="100%" height="100%" viewBox="0 0 428 428" version="1.1"
    xmlns="http://www.w3.org/2000/svg"
    xmlns:xlink="http://www.w3.org/1999/xlink" xml:space="preserve"
    xmlns:serif="http://www.serif.com/">
    <style>
        svg {
            fill-rule: evenodd;
            clip-rule: evenodd;
            stroke-linejoin: round;
            stroke-miterlimit: 2;
        }

        #base {
            fill: none;
            stroke: rgb(255, 0, 0);
            stroke: white;
            stroke-width: 1px;
        }

        #lines {
            fill: none;
            stroke: white;
            stroke-width: 1px;
            stroke-linecap: round;
            stroke-miterlimit: 1.5;
        }
    </style>
    <g id="base">
        <circle id="bg" cx="213.67" cy="213.67" r="212.67" />
        <g id="base-lines" serif:id="base lines">
            <path d="M213.67,426.34L213.67,213.67" />
            <path d="M29.49,107.33L213.67,213.67" />
            <path d="M397.85,107.33L213.67,213.67" />
        </g>
    </g>
    <g id="lines">
        <g id="bottom">
            <path
                d="M23.03,119.41C45.46,148.01 167.61,226.29 213.67,226.35C259.73,226.29 381.88,148.01 404.31,119.41" />
            <path
                d="M15.98,135.28C33.50,173.51 161.07,243.38 213.67,247.48C266.27,243.38 393.84,173.51 411.36,135.28" />
            <path
                d="M9.90,152.80C22.72,200.34 155.74,262.42 213.67,268.28C271.60,262.42 404.62,200.34 417.44,152.80" />
            <path
                d="M5.35,170.91C16.66,222.94 147.58,282.26 213.67,288.52C279.76,282.26 410.67,222.94 421.99,170.91" />
            <path
                d="M2.35,189.76C12.83,243.44 135.14,302.99 213.67,308.02C292.20,302.99 414.50,243.44 424.99,189.76" />
            <path
                d="M1.05,209.75C17.09,268.84 129.74,321.68 213.67,326.58C297.60,321.68 410.25,268.84 426.29,209.75" />
            <path
                d="M1.58,229.13C18.70,287.38 129.74,341.07 213.67,344.01C297.60,341.07 408.64,287.38 425.76,229.13" />
            <path
                d="M3.89,248.62C24.65,310.45 129.74,358.65 213.67,360.14C297.60,358.65 402.69,310.45 423.44,248.62" />
            <path
                d="M9.30,272.47C33.84,325.86 124.41,373.34 213.67,374.80C302.93,373.34 393.50,325.86 418.03,272.47" />
            <path
                d="M15.37,290.51C44.81,345.24 124.41,387.43 213.67,387.85C302.93,387.43 382.53,345.24 409.88,295.67" />
            <path
                d="M35.01,329.03C69.00,363.37 124.82,398.85 213.67,399.16C302.51,398.85 358.33,363.37 392.33,329.03" />
            <path
                d="M56.50,356.94C87.62,380.60 126.84,406.88 213.67,408.62C300.50,406.88 339.72,380.60 370.84,356.94" />
            <path
                d="M89.12,386.05C115.48,396.93 128.78,413.77 213.67,416.13C298.56,413.77 311.86,396.93 338.22,386.05" />
            <path
                d="M138.32,412.55C132.00,409.00 157.05,421.63 213.67,421.62C270.29,421.63 295.34,409.00 289.02,412.55" />
        </g>
        <g id="right">
            <path
                d="M224.70,426.05C246.06,411.12 242.62,232.66 226.02,206.60C210.88,182.83 44.64,78.28 36.91,95.42" />
            <path
                d="M239.41,424.77C266.12,415.66 273.56,258.81 239.73,199.67C211.20,149.82 60.52,63.88 46.91,81.68" />
            <path
                d="M257.89,421.69C292.81,407.76 293.24,248.09 255.86,189.58C202.14,105.52 71.30,52.06 59.29,67.40" />
            <path
                d="M276.25,416.93C317.86,385.68 316.68,248.47 273.79,179.34C216.60,87.13 87.65,37.12 72.89,54.27" />
            <path
                d="M294.13,410.53C338.47,376.39 335.92,239.77 292.04,169.25C234.71,77.12 133.62,30.88 89.58,40.95" />
            <path
                d="M311.51,402.50C360.76,364.04 352.35,229.37 308.46,158.85C251.13,66.72 151.70,19.13 107.70,29.27" />
            <path
                d="M330.06,391.66C379.30,353.34 369.22,220.03 325.34,149.52C268.01,57.39 169.78,9.49 125.92,19.95" />
            <path
                d="M349.23,377.54C393.19,328.13 384.15,211.45 340.27,140.93C282.94,48.80 200.51,4.77 147.98,11.40" />
            <path
                d="M366.20,361.88C404.73,308.24 398.18,202.56 354.29,132.04C296.96,39.92 216.02,-0.65 163.75,6.94" />
            <path
                d="M382.88,342.50C413.31,293.96 409.40,196.76 365.67,125.65C307.44,30.95 230.01,-3.85 181.48,3.45" />
            <path
                d="M399.04,317.92C415.94,262.96 422.93,195.07 376.24,120.89C317.00,26.81 259.30,5.54 230.90,1.70" />
            <path
                d="M414.71,283.04C424.76,242.25 425.33,179.83 383.75,115.08C333.89,30.61 288.20,16.82 268.58,8.21" />
            <path
                d="M425.15,236.10C426.26,218.14 424.04,167.85 390.31,111.74C362.75,62.80 329.79,35.93 313.33,25.80" />
            <path
                d="M422.23,172.06C418.90,155.95 408.56,130.78 395.38,108.29C379.02,80.39 360.95,62.81 364.79,64.04" />
        </g>
        <g id="left">
            <path
                d="M202.64,426.05C181.28,411.12 184.72,232.66 201.32,206.60C216.46,182.83 382.70,78.28 390.43,95.42" />
            <path
                d="M187.93,424.77C161.22,415.66 153.78,258.81 187.61,199.67C216.14,149.82 366.82,63.88 380.42,81.68" />
            <path
                d="M169.45,421.69C134.53,407.76 134.10,248.09 171.48,189.58C225.20,105.52 356.04,52.06 368.05,67.40" />
            <path
                d="M151.09,416.93C109.48,385.68 110.66,248.47 153.55,179.34C210.74,87.13 339.69,37.12 354.45,54.27" />
            <path
                d="M133.21,410.53C88.87,376.39 91.42,239.77 135.30,169.25C192.63,77.12 293.72,30.88 337.75,40.95" />
            <path
                d="M115.83,402.50C66.58,364.04 74.99,229.37 118.88,158.85C176.21,66.72 275.64,19.13 319.63,29.27" />
            <path
                d="M97.28,391.66C48.04,353.34 58.12,220.03 102.00,149.52C159.33,57.39 257.56,9.49 301.42,19.95" />
            <path
                d="M78.11,377.54C34.15,328.13 43.19,211.45 87.07,140.93C144.40,48.80 226.83,4.77 279.36,11.40" />
            <path
                d="M61.14,361.88C22.61,308.24 29.16,202.56 73.05,132.04C130.38,39.92 211.32,-0.65 263.59,6.94" />
            <path
                d="M44.45,342.50C14.03,293.96 17.94,196.76 61.67,125.65C119.90,30.95 197.33,-3.85 245.86,3.45" />
            <path
                d="M28.30,317.92C11.40,262.96 4.41,195.07 51.10,120.89C110.34,26.81 168.04,5.54 196.44,1.70" />
            <path
                d="M12.63,283.04C2.58,242.25 2.01,179.83 43.59,115.08C93.45,30.61 139.14,16.82 158.76,8.21" />
            <path
                d="M2.19,236.10C1.08,218.14 3.30,167.85 37.03,111.74C64.59,62.80 97.55,35.93 114.01,25.80" />
            <path
                d="M5.11,172.06C8.44,155.95 18.78,130.78 31.97,108.29C48.32,80.39 66.39,62.81 62.55,64.04" />
        </g>
    </g>
    <g id="dots" fill="white">
        <circle cx="231.7" cy="223.6" r="2" />
        <circle cx="248.0" cy="218.3" r="2" />
        <circle cx="266.3" cy="210.8" r="2" />
        <circle cx="285.3" cy="201.6" r="2" />
        <circle cx="303.7" cy="191.7" r="2" />
        <circle cx="320.6" cy="181.9" r="2" />
        <circle cx="337.1" cy="171.7" r="2" />
        <circle cx="351.8" cy="162.1" r="2" />
        <circle cx="365.5" cy="152.5" r="2" />
        <circle cx="376.1" cy="144.7" r="2" />
        <circle cx="385.7" cy="137.2" r="2" />
        <circle cx="393.1" cy="130.9" r="2" />
        <circle cx="398.3" cy="126.0" r="2" />
        <circle cx="235.1" cy="243.5" r="2" />
        <circle cx="253.6" cy="237.6" r="2" />
        <circle cx="272.6" cy="230.2" r="2" />
        <circle cx="292.6" cy="221.3" r="2" />
        <circle cx="311.4" cy="211.9" r="2" />
        <circle cx="328.7" cy="202.5" r="2" />
        <circle cx="345.5" cy="192.5" r="2" />
        <circle cx="360.5" cy="182.8" r="2" />
        <circle cx="374.3" cy="173.1" r="2" />
        <circle cx="384.9" cy="164.8" r="2" />
        <circle cx="394.8" cy="156.1" r="2" />
        <circle cx="401.9" cy="148.8" r="2" />
        <circle cx="406.5" cy="143.3" r="2" />
        <circle cx="237.2" cy="263.9" r="2" />
        <circle cx="257.6" cy="258.0" r="2" />
        <circle cx="277.3" cy="251.1" r="2" />
        <circle cx="298.4" cy="242.5" r="2" />
        <circle cx="317.5" cy="233.7" r="2" />
        <circle cx="335.3" cy="224.7" r="2" />
        <circle cx="352.4" cy="215.0" r="2" />
        <circle cx="367.7" cy="205.4" r="2" />
        <circle cx="381.6" cy="195.4" r="2" />
        <circle cx="392.3" cy="186.7" r="2" />
        <circle cx="402.4" cy="176.9" r="2" />
        <circle cx="409.5" cy="168.4" r="2" />
        <circle cx="413.6" cy="162.0" r="2" />
        <circle cx="238.6" cy="284.4" r="2" />
        <circle cx="260.3" cy="278.7" r="2" />
        <circle cx="280.7" cy="272.0" r="2" />
        <circle cx="302.5" cy="263.6" r="2" />
        <circle cx="321.8" cy="255.0" r="2" />
        <circle cx="339.9" cy="246.1" r="2" />
        <circle cx="357.2" cy="236.4" r="2" />
        <circle cx="372.7" cy="226.6" r="2" />
        <circle cx="386.5" cy="216.5" r="2" />
        <circle cx="397.3" cy="207.3" r="2" />
        <circle cx="407.5" cy="196.9" r="2" />
        <circle cx="414.8" cy="187.3" r="2" />
        <circle cx="239.3" cy="304.8" r="2" />
        <circle cx="261.8" cy="299.7" r="2" />
        <circle cx="282.8" cy="293.5" r="2" />
        <circle cx="305.3" cy="285.4" r="2" />
        <circle cx="324.7" cy="277.1" r="2" />
        <circle cx="343.1" cy="268.0" r="2" />
        <circle cx="360.6" cy="258.2" r="2" />
        <circle cx="376.1" cy="248.2" r="2" />
        <circle cx="389.8" cy="237.8" r="2" />
        <circle cx="400.7" cy="228.1" r="2" />
        <circle cx="410.7" cy="217.3" r="2" />
        <circle cx="418.4" cy="206.4" r="2" />
        <circle cx="239.6" cy="323.7" r="2" />
        <circle cx="262.4" cy="319.2" r="2" />
        <circle cx="283.8" cy="313.4" r="2" />
        <circle cx="306.6" cy="305.7" r="2" />
        <circle cx="326.0" cy="297.8" r="2" />
        <circle cx="344.8" cy="288.8" r="2" />
        <circle cx="362.4" cy="278.9" r="2" />
        <circle cx="377.8" cy="268.8" r="2" />
        <circle cx="391.4" cy="258.2" r="2" />
        <circle cx="402.4" cy="248.0" r="2" />
        <circle cx="411.8" cy="237.2" r="2" />
        <circle cx="420.1" cy="224.7" r="2" />
        <circle cx="239.4" cy="341.7" r="2" />
        <circle cx="262.1" cy="337.5" r="2" />
        <circle cx="283.9" cy="331.8" r="2" />
        <circle cx="306.6" cy="324.2" r="2" />
        <circle cx="326.0" cy="316.3" r="2" />
        <circle cx="345.0" cy="307.2" r="2" />
        <circle cx="362.8" cy="297.1" r="2" />
        <circle cx="377.9" cy="287.0" r="2" />
        <circle cx="391.4" cy="276.5" r="2" />
        <circle cx="402.6" cy="266.0" r="2" />
        <circle cx="411.2" cy="256.0" r="2" />
        <circle cx="238.8" cy="358.4" r="2" />
        <circle cx="261.1" cy="354.8" r="2" />
        <circle cx="283.1" cy="349.7" r="2" />
        <circle cx="305.4" cy="342.7" r="2" />
        <circle cx="324.8" cy="335.1" r="2" />
        <circle cx="343.8" cy="326.2" r="2" />
        <circle cx="361.8" cy="316.0" r="2" />
        <circle cx="376.6" cy="306.0" r="2" />
        <circle cx="389.8" cy="295.4" r="2" />
        <circle cx="401.3" cy="284.3" r="2" />
        <circle cx="409.1" cy="275.0" r="2" />
        <circle cx="237.8" cy="373.3" r="2" />
        <circle cx="259.6" cy="370.1" r="2" />
        <circle cx="281.6" cy="365.2" r="2" />
        <circle cx="303.3" cy="358.6" r="2" />
        <circle cx="322.6" cy="351.3" r="2" />
        <circle cx="341.6" cy="342.3" r="2" />
        <circle cx="359.7" cy="332.1" r="2" />
        <circle cx="374.2" cy="322.2" r="2" />
        <circle cx="387.1" cy="311.9" r="2" />
        <circle cx="398.7" cy="300.6" r="2" />
        <circle cx="405.9" cy="292.1" r="2" />
        <circle cx="236.5" cy="386.8" r="2" />
        <circle cx="257.5" cy="384.3" r="2" />
        <circle cx="279.3" cy="380.0" r="2" />
        <circle cx="300.0" cy="374.2" r="2" />
        <circle cx="319.0" cy="367.3" r="2" />
        <circle cx="337.8" cy="358.8" r="2" />
        <circle cx="356.0" cy="348.6" r="2" />
        <circle cx="369.9" cy="339.2" r="2" />
        <circle cx="382.5" cy="329.0" r="2" />
        <circle cx="234.9" cy="398.4" r="2" />
        <circle cx="254.9" cy="396.3" r="2" />
        <circle cx="276.3" cy="392.5" r="2" />
        <circle cx="295.9" cy="387.3" r="2" />
        <circle cx="314.5" cy="380.7" r="2" />
        <circle cx="333.0" cy="372.3" r="2" />
        <circle cx="351.3" cy="362.0" r="2" />
        <circle cx="364.8" cy="352.8" r="2" />
        <circle cx="233.1" cy="407.8" r="2" />
        <circle cx="252.1" cy="406.0" r="2" />
        <circle cx="272.9" cy="402.7" r="2" />
        <circle cx="291.0" cy="398.4" r="2" />
        <circle cx="308.9" cy="392.6" r="2" />
        <circle cx="326.6" cy="385.1" r="2" />
        <circle cx="230.9" cy="415.4" r="2" />
        <circle cx="248.9" cy="414.0" r="2" />
        <circle cx="268.6" cy="411.4" r="2" />
        <circle cx="285.0" cy="408.1" r="2" />
        <circle cx="195.6" cy="223.6" r="2" />
        <circle cx="179.3" cy="218.3" r="2" />
        <circle cx="161.1" cy="210.8" r="2" />
        <circle cx="142.1" cy="201.6" r="2" />
        <circle cx="123.6" cy="191.7" r="2" />
        <circle cx="106.7" cy="181.9" r="2" />
        <circle cx="90.2" cy="171.7" r="2" />
        <circle cx="75.6" cy="162.1" r="2" />
        <circle cx="61.8" cy="152.5" r="2" />
        <circle cx="51.2" cy="144.7" r="2" />
        <circle cx="41.7" cy="137.2" r="2" />
        <circle cx="34.2" cy="130.9" r="2" />
        <circle cx="29.1" cy="126.0" r="2" />
        <circle cx="192.3" cy="243.5" r="2" />
        <circle cx="173.7" cy="237.6" r="2" />
        <circle cx="154.8" cy="230.2" r="2" />
        <circle cx="134.8" cy="221.3" r="2" />
        <circle cx="115.9" cy="211.9" r="2" />
        <circle cx="98.7" cy="202.5" r="2" />
        <circle cx="81.8" cy="192.5" r="2" />
        <circle cx="66.9" cy="182.8" r="2" />
        <circle cx="53.0" cy="173.1" r="2" />
        <circle cx="42.4" cy="164.8" r="2" />
        <circle cx="32.6" cy="156.1" r="2" />
        <circle cx="25.4" cy="148.8" r="2" />
        <circle cx="20.9" cy="143.3" r="2" />
        <circle cx="190.1" cy="263.9" r="2" />
        <circle cx="169.7" cy="258.0" r="2" />
        <circle cx="150.0" cy="251.1" r="2" />
        <circle cx="128.9" cy="242.5" r="2" />
        <circle cx="109.8" cy="233.7" r="2" />
        <circle cx="92.1" cy="224.7" r="2" />
        <circle cx="74.9" cy="215.0" r="2" />
        <circle cx="59.7" cy="205.4" r="2" />
        <circle cx="45.7" cy="195.4" r="2" />
        <circle cx="35.1" cy="186.7" r="2" />
        <circle cx="24.9" cy="176.9" r="2" />
        <circle cx="17.9" cy="168.4" r="2" />
        <circle cx="13.7" cy="162.0" r="2" />
        <circle cx="188.8" cy="284.4" r="2" />
        <circle cx="167.1" cy="278.7" r="2" />
        <circle cx="146.7" cy="272.0" r="2" />
        <circle cx="124.8" cy="263.6" r="2" />
        <circle cx="105.5" cy="255.0" r="2" />
        <circle cx="87.4" cy="246.1" r="2" />
        <circle cx="70.1" cy="236.4" r="2" />
        <circle cx="54.7" cy="226.6" r="2" />
        <circle cx="40.8" cy="216.5" r="2" />
        <circle cx="30.0" cy="207.3" r="2" />
        <circle cx="19.8" cy="196.9" r="2" />
        <circle cx="12.6" cy="187.3" r="2" />
        <circle cx="188.0" cy="304.8" r="2" />
        <circle cx="165.5" cy="299.7" r="2" />
        <circle cx="144.5" cy="293.5" r="2" />
        <circle cx="122.0" cy="285.4" r="2" />
        <circle cx="102.6" cy="277.1" r="2" />
        <circle cx="84.2" cy="268.0" r="2" />
        <circle cx="66.7" cy="258.2" r="2" />
        <circle cx="51.3" cy="248.2" r="2" />
        <circle cx="37.5" cy="237.8" r="2" />
        <circle cx="26.6" cy="228.2" r="2" />
        <circle cx="16.6" cy="217.3" r="2" />
        <circle cx="9.0" cy="206.4" r="2" />
        <circle cx="187.7" cy="323.7" r="2" />
        <circle cx="165.0" cy="319.2" r="2" />
        <circle cx="143.5" cy="313.4" r="2" />
        <circle cx="120.8" cy="305.7" r="2" />
        <circle cx="101.3" cy="297.8" r="2" />
        <circle cx="82.6" cy="288.8" r="2" />
        <circle cx="64.9" cy="278.9" r="2" />
        <circle cx="49.6" cy="268.8" r="2" />
        <circle cx="36.0" cy="258.2" r="2" />
        <circle cx="25.0" cy="248.0" r="2" />
        <circle cx="15.5" cy="237.2" r="2" />
        <circle cx="7.2" cy="224.7" r="2" />
        <circle cx="187.9" cy="341.7" r="2" />
        <circle cx="165.3" cy="337.5" r="2" />
        <circle cx="143.4" cy="331.8" r="2" />
        <circle cx="120.8" cy="324.2" r="2" />
        <circle cx="101.3" cy="316.3" r="2" />
        <circle cx="82.4" cy="307.2" r="2" />
        <circle cx="64.5" cy="297.1" r="2" />
        <circle cx="49.4" cy="287.0" r="2" />
        <circle cx="36.0" cy="276.5" r="2" />
        <circle cx="24.8" cy="266.0" r="2" />
        <circle cx="16.1" cy="256.0" r="2" />
        <circle cx="188.5" cy="358.4" r="2" />
        <circle cx="166.2" cy="354.8" r="2" />
        <circle cx="144.2" cy="349.7" r="2" />
        <circle cx="121.9" cy="342.7" r="2" />
        <circle cx="102.5" cy="335.1" r="2" />
        <circle cx="83.5" cy="326.2" r="2" />
        <circle cx="65.5" cy="316.0" r="2" />
        <circle cx="50.7" cy="306.0" r="2" />
        <circle cx="37.5" cy="295.5" r="2" />
        <circle cx="26.1" cy="284.3" r="2" />
        <circle cx="18.3" cy="275.0" r="2" />
        <circle cx="189.5" cy="373.3" r="2" />
        <circle cx="167.8" cy="370.1" r="2" />
        <circle cx="145.8" cy="365.2" r="2" />
        <circle cx="124.0" cy="358.6" r="2" />
        <circle cx="104.8" cy="351.3" r="2" />
        <circle cx="85.7" cy="342.3" r="2" />
        <circle cx="67.6" cy="332.1" r="2" />
        <circle cx="53.2" cy="322.2" r="2" />
        <circle cx="40.3" cy="311.9" r="2" />
        <circle cx="28.6" cy="300.6" r="2" />
        <circle cx="21.5" cy="292.1" r="2" />
        <circle cx="190.8" cy="386.8" r="2" />
        <circle cx="169.9" cy="384.3" r="2" />
        <circle cx="148.1" cy="379.9" r="2" />
        <circle cx="127.3" cy="374.0" r="2" />
        <circle cx="108.3" cy="366.9" r="2" />
        <circle cx="89.4" cy="358.2" r="2" />
        <circle cx="71.1" cy="347.6" r="2" />
        <circle cx="57.0" cy="337.7" r="2" />
        <circle cx="44.2" cy="326.9" r="2" />
        <circle cx="32.1" cy="314.5" r="2" />
        <circle cx="192.4" cy="398.4" r="2" />
        <circle cx="172.4" cy="396.3" r="2" />
        <circle cx="151.0" cy="392.5" r="2" />
        <circle cx="131.4" cy="387.3" r="2" />
        <circle cx="112.8" cy="380.7" r="2" />
        <circle cx="94.3" cy="372.3" r="2" />
        <circle cx="76.0" cy="362.0" r="2" />
        <circle cx="62.6" cy="352.8" r="2" />
        <circle cx="194.3" cy="407.8" r="2" />
        <circle cx="175.2" cy="406.0" r="2" />
        <circle cx="154.5" cy="402.7" r="2" />
        <circle cx="136.3" cy="398.4" r="2" />
        <circle cx="118.4" cy="392.6" r="2" />
        <circle cx="100.8" cy="385.1" r="2" />
        <circle cx="196.4" cy="415.4" r="2" />
        <circle cx="178.4" cy="414.0" r="2" />
        <circle cx="158.8" cy="411.4" r="2" />
        <circle cx="142.4" cy="408.1" r="2" />
        <circle cx="213.7" cy="194.1" r="2" />
        <circle cx="200.0" cy="183.3" r="2" />
        <circle cx="184.3" cy="171.9" r="2" />
        <circle cx="167.0" cy="160.1" r="2" />
        <circle cx="149.4" cy="148.6" r="2" />
        <circle cx="132.9" cy="138.3" r="2" />
        <circle cx="116.4" cy="128.4" r="2" />
        <circle cx="101.3" cy="119.7" r="2" />
        <circle cx="86.7" cy="111.7" r="2" />
        <circle cx="74.9" cy="105.7" r="2" />
        <circle cx="64.5" cy="100.8" r="2" />
        <circle cx="55.0" cy="96.9" r="2" />
        <circle cx="47.5" cy="94.5" r="2" />
        <circle cx="227.3" cy="183.3" r="2" />
        <circle cx="213.7" cy="169.8" r="2" />
        <circle cx="197.8" cy="156.4" r="2" />
        <circle cx="180.9" cy="143.6" r="2" />
        <circle cx="163.3" cy="131.4" r="2" />
        <circle cx="146.9" cy="120.8" r="2" />
        <circle cx="130.3" cy="111.0" r="2" />
        <circle cx="114.7" cy="102.4" r="2" />
        <circle cx="99.7" cy="94.8" r="2" />
        <circle cx="87.3" cy="89.1" r="2" />
        <circle cx="76.4" cy="84.7" r="2" />
        <circle cx="65.9" cy="81.3" r="2" />
        <circle cx="58.0" cy="79.6" r="2" />
        <circle cx="243.1" cy="171.9" r="2" />
        <circle cx="229.5" cy="156.4" r="2" />
        <circle cx="213.7" cy="141.1" r="2" />
        <circle cx="197.2" cy="127.2" r="2" />
        <circle cx="179.5" cy="114.2" r="2" />
        <circle cx="163.0" cy="103.4" r="2" />
        <circle cx="146.4" cy="93.7" r="2" />
        <circle cx="129.9" cy="85.1" r="2" />
        <circle cx="114.5" cy="77.9" r="2" />
        <circle cx="101.4" cy="72.7" r="2" />
        <circle cx="89.6" cy="68.8" r="2" />
        <circle cx="78.1" cy="66.0" r="2" />
        <circle cx="69.9" cy="64.9" r="2" />
        <circle cx="260.3" cy="160.1" r="2" />
        <circle cx="246.4" cy="143.6" r="2" />
        <circle cx="230.2" cy="127.2" r="2" />
        <circle cx="213.7" cy="112.9" r="2" />
        <circle cx="195.6" cy="99.3" r="2" />
        <circle cx="179.2" cy="88.4" r="2" />
        <circle cx="162.5" cy="78.5" r="2" />
        <circle cx="145.4" cy="69.7" r="2" />
        <circle cx="129.8" cy="62.8" r="2" />
        <circle cx="116.3" cy="57.7" r="2" />
        <circle cx="103.7" cy="53.9" r="2" />
        <circle cx="91.5" cy="51.5" r="2" />
        <circle cx="277.9" cy="148.6" r="2" />
        <circle cx="264.0" cy="131.4" r="2" />
        <circle cx="247.9" cy="114.2" r="2" />
        <circle cx="231.7" cy="99.3" r="2" />
        <circle cx="213.7" cy="85.0" r="2" />
        <circle cx="197.3" cy="73.7" r="2" />
        <circle cx="180.6" cy="63.9" r="2" />
        <circle cx="162.7" cy="54.9" r="2" />
        <circle cx="146.7" cy="48.5" r="2" />
        <circle cx="132.2" cy="43.9" r="2" />
        <circle cx="117.9" cy="40.9" r="2" />
        <circle cx="104.5" cy="39.6" r="2" />
        <circle cx="294.4" cy="138.3" r="2" />
        <circle cx="280.5" cy="120.8" r="2" />
        <circle cx="264.3" cy="103.4" r="2" />
        <circle cx="248.2" cy="88.4" r="2" />
        <circle cx="230.1" cy="73.7" r="2" />
        <circle cx="213.7" cy="62.3" r="2" />
        <circle cx="197.1" cy="52.3" r="2" />
        <circle cx="179.0" cy="43.1" r="2" />
        <circle cx="163.1" cy="36.6" r="2" />
        <circle cx="148.4" cy="32.0" r="2" />
        <circle cx="133.3" cy="28.9" r="2" />
        <circle cx="310.9" cy="128.4" r="2" />
        <circle cx="297.0" cy="111.0" r="2" />
        <circle cx="280.9" cy="93.7" r="2" />
        <circle cx="264.8" cy="78.5" r="2" />
        <circle cx="246.7" cy="63.9" r="2" />
        <circle cx="230.2" cy="52.3" r="2" />
        <circle cx="213.7" cy="42.3" r="2" />
        <circle cx="195.3" cy="33.0" r="2" />
        <circle cx="179.6" cy="26.7" r="2" />
        <circle cx="164.7" cy="22.1" r="2" />
        <circle cx="148.5" cy="19.1" r="2" />
        <circle cx="326.0" cy="119.7" r="2" />
        <circle cx="312.6" cy="102.4" r="2" />
        <circle cx="297.4" cy="85.1" r="2" />
        <circle cx="281.9" cy="69.7" r="2" />
        <circle cx="264.6" cy="54.9" r="2" />
        <circle cx="248.4" cy="43.1" r="2" />
        <circle cx="232.1" cy="33.0" r="2" />
        <circle cx="213.7" cy="23.8" r="2" />
        <circle cx="198.1" cy="17.8" r="2" />
        <circle cx="182.7" cy="13.5" r="2" />
        <circle cx="340.7" cy="111.7" r="2" />
        <circle cx="327.6" cy="94.8" r="2" />
        <circle cx="312.9" cy="77.9" r="2" />
        <circle cx="297.5" cy="62.8" r="2" />
        <circle cx="280.7" cy="48.5" r="2" />
        <circle cx="264.2" cy="36.6" r="2" />
        <circle cx="247.7" cy="26.7" r="2" />
        <circle cx="229.2" cy="17.8" r="2" />
        <circle cx="213.7" cy="12.1" r="2" />
        <circle cx="197.7" cy="8.1" r="2" />
        <circle cx="352.5" cy="105.7" r="2" />
        <circle cx="340.0" cy="89.1" r="2" />
        <circle cx="326.0" cy="72.7" r="2" />
        <circle cx="311.1" cy="57.7" r="2" />
        <circle cx="295.2" cy="43.9" r="2" />
        <circle cx="278.9" cy="32.0" r="2" />
        <circle cx="262.6" cy="22.1" r="2" />
        <circle cx="244.6" cy="13.5" r="2" />
        <circle cx="229.6" cy="8.1" r="2" />
        <circle cx="362.9" cy="100.8" r="2" />
        <circle cx="350.9" cy="84.7" r="2" />
        <circle cx="337.7" cy="68.8" r="2" />
        <circle cx="323.6" cy="53.9" r="2" />
        <circle cx="309.4" cy="40.9" r="2" />
        <circle cx="294.0" cy="28.9" r="2" />
        <circle cx="278.8" cy="19.1" r="2" />
        <circle cx="372.4" cy="96.9" r="2" />
        <circle cx="361.4" cy="81.3" r="2" />
        <circle cx="349.2" cy="66.0" r="2" />
        <circle cx="335.8" cy="51.5" r="2" />
        <circle cx="322.9" cy="39.6" r="2" />
        <circle cx="379.8" cy="94.5" r="2" />
        <circle cx="369.4" cy="79.6" r="2" />
        <circle cx="357.4" cy="64.9" r="2" />
    </g>
</svg>