<?xml version="1.0" encoding="UTF-8" standalone="no"?>
<!DOCTYPE svg
    PUBLIC "-//W3C//DTD SVG 1.1//EN" "http://www.w3.org/Graphics/SVG/1.1/DTD/svg11.dtd">
<svg width="100%" height="100%" viewBox="0 0 428 428" version="1.1"
    xmlns="http://www.w3.org/2000/svg"
    xmlns:xlink="http://www.w3.org/1999/xlink" xml:space="preserve"
    xmlns:serif="http://www.serif.com/">
    <style>
        svg {
            fill-rule: evenodd;
            clip-rule: evenodd;
            stroke-linejoin: round;
            stroke-miterlimit: 2;
        }

        #base {
            fill: none;
            stroke: white;
            stroke: rgb(255, 0, 0);
            stroke-width: 1px;
        }

        #lines {
            fill: none;
            stroke: white;
            stroke-width: 1px;
            stroke-linecap: round;
            stroke-miterlimit: 1.5;
        }
    </style>
    <g id="base">
        <circle id="bg" cx="213.67" cy="213.67" r="212.67" />
        <g id="base-lines" serif:id="base lines">
            <path d="M213.67,426.34L213.67,213.67" />
            <path d="M29.49,107.33L213.67,213.67" />
            <path d="M397.85,107.33L213.67,213.67" />
        </g>
    </g>
    <g id="lines">
        <g id="bottom">
            <path
                d="M23.03,119.41C45.46,148.01 167.61,226.29 213.67,226.35C259.73,226.29 381.88,148.01 404.31,119.41" />
            <path
                d="M15.98,135.28C33.50,173.51 161.07,243.38 213.67,243.34C266.27,243.38 393.84,173.51 411.36,135.28" />
            <path
                d="M9.90,152.80C22.72,200.34 155.74,262.42 213.67,262.47C271.60,262.42 404.62,200.34 417.44,152.80" />
            <path
                d="M5.35,170.91C16.66,222.94 147.58,282.26 213.67,283.04C279.76,282.26 410.67,222.94 421.99,170.91" />
            <path
                d="M2.35,189.76C12.83,243.44 135.14,302.99 213.67,302.94C292.20,302.99 414.50,243.44 424.99,189.76" />
            <path
                d="M1.05,209.75C17.09,268.84 129.74,321.68 213.67,321.93C297.60,321.68 410.25,268.84 426.29,209.75" />
            <path
                d="M1.58,229.13C18.70,287.38 129.74,341.07 213.67,341.32C297.60,341.07 408.64,287.38 425.76,229.13" />
            <path
                d="M3.89,248.62C24.65,310.45 129.74,358.65 213.67,358.90C297.60,358.65 402.69,310.45 423.44,248.62" />
            <path
                d="M9.30,272.47C33.84,325.86 124.41,373.34 213.67,373.37C302.93,373.34 393.50,325.86 418.03,272.47" />
            <path
                d="M17.46,295.67C44.81,345.24 124.41,387.43 213.67,387.46C302.93,387.43 382.53,345.24 409.88,295.67" />
            <path
                d="M35.67,330.05C69.00,363.37 124.82,398.85 213.67,398.92C302.51,398.85 358.33,363.37 391.67,330.05" />
            <path
                d="M53.71,353.81C87.62,380.60 126.84,406.88 213.67,406.94C300.50,406.88 339.72,380.60 373.63,353.81" />
            <path
                d="M78.79,378.00C115.48,396.93 128.78,413.77 213.67,413.79C298.56,413.77 311.86,396.93 348.54,378.00" />
            <path
                d="M111.35,400.10C132.00,409.00 157.05,421.63 213.67,421.62C270.29,421.63 295.34,409.00 315.99,400.10" />
        </g>
        <g id="right">
            <path
                d="M224.70,426.05C246.06,411.12 242.62,232.66 226.02,206.60C210.88,182.83 44.64,78.28 36.91,95.42" />
            <path
                d="M239.41,424.77C266.12,415.66 273.56,258.81 239.73,199.67C211.20,149.82 60.52,63.88 46.91,81.68" />
            <path
                d="M257.89,421.69C292.81,407.76 293.24,248.09 255.86,189.58C202.14,105.52 71.30,52.06 59.29,67.40" />
            <path
                d="M276.25,416.93C317.86,385.68 316.68,248.47 273.79,179.34C216.60,87.13 87.65,37.12 72.89,54.27" />
            <path
                d="M294.13,410.53C338.47,376.39 335.92,239.77 292.04,169.25C234.71,77.12 133.62,30.88 89.58,40.95" />
            <path
                d="M311.51,402.50C360.76,364.04 352.35,229.37 308.46,158.85C251.13,66.72 151.70,19.13 107.70,29.27" />
            <path
                d="M330.06,391.66C379.30,353.34 369.22,220.03 325.34,149.52C268.01,57.39 169.78,9.49 125.92,19.95" />
            <path
                d="M349.23,377.54C393.19,328.13 384.15,211.45 340.27,140.93C282.94,48.80 200.51,4.77 147.98,11.40" />
            <path
                d="M366.20,361.88C404.73,308.24 398.18,202.56 354.29,132.04C296.96,39.92 216.02,-0.65 163.75,6.94" />
            <path
                d="M382.88,342.50C413.31,293.96 409.40,196.76 365.67,125.65C307.44,30.95 230.01,-3.85 181.48,3.45" />
            <path
                d="M399.75,316.64C415.94,262.96 422.93,195.07 376.24,120.89C317.00,26.81 259.30,5.54 229.44,1.58" />
            <path
                d="M412.38,289.44C425.81,237.97 425.80,182.94 383.75,115.08C329.74,27.95 284.16,15.05 275.13,10.07" />
            <path
                d="M424.44,241.99C426.26,218.14 425.54,175.37 390.31,111.74C363.77,63.82 329.79,35.93 318.53,28.65" />
            <path
                d="M420.29,163.31C418.36,153.35 408.56,130.78 395.38,108.29C379.02,80.39 363.48,63.62 358.36,57.80" />
        </g>
        <g id="left">
            <path
                d="M202.64,426.05C181.28,411.12 184.72,232.66 201.32,206.60C216.46,182.83 382.70,78.28 390.43,95.42" />
            <path
                d="M187.93,424.77C161.22,415.66 153.78,258.81 187.61,199.67C216.14,149.82 366.82,63.88 380.42,81.68" />
            <path
                d="M169.45,421.69C134.53,407.76 134.10,248.09 171.48,189.58C225.20,105.52 356.04,52.06 368.05,67.40" />
            <path
                d="M151.09,416.93C109.48,385.68 110.66,248.47 153.55,179.34C210.74,87.13 339.69,37.12 354.45,54.27" />
            <path
                d="M133.21,410.53C88.87,376.39 91.42,239.77 135.30,169.25C192.63,77.12 293.72,30.88 337.75,40.95" />
            <path
                d="M115.83,402.50C66.58,364.04 74.99,229.37 118.88,158.85C176.21,66.72 275.64,19.13 319.63,29.27" />
            <path
                d="M97.28,391.66C48.04,353.34 58.12,220.03 102.00,149.52C159.33,57.39 257.56,9.49 301.42,19.95" />
            <path
                d="M78.11,377.54C34.15,328.13 43.19,211.45 87.07,140.93C144.40,48.80 226.83,4.77 279.36,11.40" />
            <path
                d="M61.14,361.88C22.61,308.24 29.16,202.56 73.05,132.04C130.38,39.92 211.32,-0.65 263.59,6.94" />
            <path
                d="M44.45,342.50C14.03,293.96 17.94,196.76 61.67,125.65C119.90,30.95 197.33,-3.85 245.86,3.45" />
            <path
                d="M27.59,316.64C11.40,262.96 4.41,195.07 51.10,120.89C110.34,26.81 168.04,5.54 197.90,1.58" />
            <path
                d="M14.95,289.44C1.53,237.97 1.54,182.94 43.59,115.08C97.60,27.95 143.18,15.05 152.21,10.07" />
            <path
                d="M2.90,241.99C1.08,218.14 1.80,175.37 37.03,111.74C63.57,63.82 97.55,35.93 108.81,28.65" />
            <path
                d="M7.04,163.31C8.98,153.35 18.78,130.78 31.97,108.29C48.32,80.39 63.86,63.62 68.98,57.80" />
        </g>
    </g>
</svg>