<svg width="100%" height="100%" viewBox="-10 -10 447 447"
    xmlns="http://www.w3.org/2000/svg">
    <style>
        svg {
            stroke-linecap: round;
            stroke-linejoin: round;
        }

        .bg-sphere {
            fill: none;
            stroke: grey;
            stroke-width: 1px;
        }

        .line {
            fill: grey;
            stroke: none;
        }

        .dot {
            fill: grey;
            stroke: none;
            r: 3.5px;
        }

        .dot-circle {
            fill: grey;
            r: 3px;
        }
    </style>
    <circle class="bg-sphere" cx="213.189" cy="213.189" r="212.739" />
    <g id="dots-circle">
        <circle class="dot dot-circle" cx="209.54" cy="0.48" r="4" />
        <circle class="dot dot-circle" cx="217.31" cy="0.49" r="4" />
        <circle class="dot dot-circle" cx="193.12" cy="1.40" r="4" />
        <circle class="dot dot-circle" cx="229.43" cy="1.07" r="4" />
        <circle class="dot dot-circle" cx="178.309" cy="2.601" r="4" />
        <circle class="dot dot-circle" cx="248.906" cy="2.465" r="4" />
        <circle class="dot dot-circle" cx="267.26" cy="7.44" r="4" />
        <circle class="dot dot-circle" cx="157.38" cy="7.90" r="4" />
        <circle class="dot dot-circle" cx="138.46" cy="14.01" r="4" />
        <circle class="dot dot-circle" cx="297.73" cy="17.97" r="4" />
        <circle class="dot dot-circle" cx="323.59" cy="31.34" r="4" />
        <circle class="dot dot-circle" cx="102.26" cy="31.66" r="4" />
        <circle class="dot dot-circle" cx="73.46" cy="52.77" r="4" />
        <circle class="dot dot-circle" cx="352.92" cy="52.77" r="4" />
        <circle class="dot dot-circle" cx="373.70" cy="73.56" r="4" />
        <circle class="dot dot-circle" cx="51.86" cy="74.51" r="4" />
        <circle class="dot dot-circle" cx="31.99" cy="101.73" r="4" />
        <circle class="dot dot-circle" cx="413.45" cy="141.40" r="4" />
        <circle class="dot dot-circle" cx="12.68" cy="142.09" r="4" />
        <circle class="dot dot-circle" cx="3.29" cy="178.54" r="4" />
        <circle class="dot dot-circle" cx="423.09" cy="178.58" r="4" />
        <circle class="dot dot-circle" cx="5.55" cy="259.49" r="4" />
        <circle class="dot dot-circle" cx="420.69" cy="260.10" r="4" />
        <circle class="dot dot-circle" cx="26.97" cy="316.05" r="4" />
        <circle class="dot dot-circle" cx="396.53" cy="321.09" r="4" />
        <circle class="dot dot-circle" cx="54.58" cy="354.96" r="4" />
        <circle class="dot dot-circle" cx="370.77" cy="356.11" r="4" />
        <circle class="dot dot-circle" cx="86.37" cy="383.99" r="4" />
        <circle class="dot dot-circle" cx="338.85" cy="384.85" r="4" />
        <circle class="dot dot-circle" cx="121.432" cy="405.349" r="4" />
        <circle class="dot dot-circle" cx="303.061" cy="405.937" r="4" />
        <circle class="dot dot-circle" cx="150.37" cy="416.44" r="4" />
        <circle class="dot dot-circle" cx="273.81" cy="417.11" r="4" />
        <circle class="dot dot-circle" cx="184.08" cy="423.93" r="4" />
        <circle class="dot dot-circle" cx="239.49" cy="424.30" r="4" />
        <circle class="dot dot-circle" cx="212.574" cy="426.171" r="4" />
    </g>
    <g id="lines-left">
        <path class="line"
            d="M212.91,9.43L209.64,23.35L196.73,41.35L195.04,43.65L193.02,46.09L190.67,48.66L188.01,51.37L185.05,54.22L181.81,57.19L178.30,60.29L174.55,63.51L170.56,66.85L166.36,70.31L161.96,73.87L157.37,77.54L152.62,81.31L147.71,85.18L142.67,89.15L137.50,93.20L132.24,97.35L126.88,101.58L121.46,105.89L115.98,110.28L110.46,114.75L104.91,119.28L99.36,123.88L93.81,128.54L88.29,133.26L82.81,138.03L77.39,142.86L72.04,147.73L66.77,152.65L61.61,157.61L56.57,162.61L51.67,167.64L46.92,172.70L42.34,177.78L37.94,182.89L33.74,188.01L29.76,193.15L26.01,198.30L22.51,203.46L19.28,208.62L16.32,213.78L13.66,218.93L11.32,224.08L9.30,229.22L7.64,234.34L6.33,239.44L5.40,244.51L4.87,249.56L4.75,254.57L5.05,259.52L6.05,259.46L5.81,254.56L5.99,249.64L6.58,244.69L7.55,239.71L8.89,234.71L10.59,229.69L12.63,224.64L14.99,219.59L17.67,214.52L20.63,209.44L23.88,204.36L27.39,199.27L31.14,194.19L35.12,189.12L39.32,184.05L43.72,179.00L48.30,173.97L53.05,168.96L57.94,163.97L62.97,159.01L68.13,154.08L73.38,149.19L78.72,144.34L84.13,139.53L89.60,134.77L95.11,130.06L100.63,125.41L106.17,120.81L111.70,116.27L117.20,111.80L122.66,107.40L128.07,103.07L133.40,98.82L138.65,94.65L143.79,90.56L148.81,86.57L153.69,82.66L158.42,78.85L162.99,75.14L167.37,71.53L171.55,68.03L175.51,64.64L179.24,61.36L182.73,58.20L185.95,55.17L188.89,52.25L191.54,49.47L193.88,46.82L195.89,44.30L197.54,41.93L210.53,23.80L213.88,9.66Z" />
        <path class="line"
            d="M212.98,9.83L221.58,22.72L218.07,42.41L216.99,45.99L215.43,49.78L213.41,53.77L210.96,57.94L208.09,62.28L204.84,66.79L201.23,71.47L197.27,76.30L193.00,81.27L188.42,86.38L183.58,91.62L178.49,96.98L173.17,102.46L167.64,108.05L161.94,113.74L156.08,119.52L150.09,125.39L143.99,131.34L137.79,137.36L131.54,143.45L125.24,149.59L118.93,155.79L112.62,162.02L106.34,168.30L100.11,174.60L93.95,180.92L87.89,187.26L81.95,193.60L76.16,199.95L70.53,206.28L65.09,212.60L59.87,218.90L54.88,225.17L50.15,231.41L45.70,237.60L41.55,243.73L37.74,249.82L34.27,255.83L31.18,261.78L28.49,267.64L26.23,273.42L24.40,279.11L23.05,284.69L22.19,290.17L21.85,295.52L22.05,300.76L22.82,305.85L24.18,310.80L26.15,315.59L28.73,320.19L29.61,319.70L27.11,315.13L25.25,310.44L23.99,305.61L23.30,300.65L23.16,295.55L23.55,290.32L24.45,284.98L25.83,279.51L27.67,273.94L29.95,268.27L32.65,262.50L35.75,256.65L39.22,250.71L43.03,244.70L47.18,238.63L51.63,232.50L56.36,226.33L61.34,220.11L66.57,213.85L72.00,207.57L77.62,201.26L83.41,194.95L89.34,188.63L95.39,182.31L101.54,176.00L107.75,169.70L114.02,163.44L120.32,157.20L126.62,151.00L132.90,144.84L139.14,138.74L145.32,132.70L151.40,126.73L157.38,120.83L163.22,115.02L168.90,109.30L174.40,103.67L179.70,98.15L184.78,92.73L189.60,87.44L194.15,82.28L198.41,77.24L202.35,72.35L205.94,67.61L209.18,63.02L212.02,58.59L214.45,54.33L216.45,50.24L217.99,46.34L219.05,42.60L222.56,22.57L213.81,9.28Z" />
        <path class="line"
            d="M213.12,9.98L231.92,21.49L239.06,40.53L238.53,47.02L237.46,53.69L235.87,60.40L233.79,67.15L231.24,73.93L228.25,80.74L224.85,87.57L221.05,94.43L216.89,101.30L212.39,108.19L207.58,115.10L202.48,122.01L197.12,128.92L191.52,135.84L185.72,142.75L179.73,149.66L173.59,156.56L167.31,163.44L160.94,170.31L154.48,177.16L147.97,183.98L141.44,190.77L134.90,197.54L128.40,204.27L121.94,210.96L115.56,217.60L109.29,224.21L103.15,230.76L97.16,237.26L91.36,243.70L85.76,250.09L80.40,256.41L75.31,262.66L70.49,268.85L66.00,274.96L61.84,280.99L58.05,286.94L54.65,292.81L51.66,298.59L49.13,304.29L47.06,309.88L45.50,315.39L44.47,320.79L43.99,326.08L44.09,331.26L44.80,336.33L46.15,341.26L48.16,346.06L50.85,350.72L54.23,355.21L55.04,354.61L51.74,350.14L49.17,345.57L47.28,340.88L46.03,336.08L45.39,331.17L45.35,326.14L45.88,321.00L46.94,315.74L48.52,310.37L50.60,304.89L53.14,299.31L56.12,293.63L59.52,287.85L63.31,281.97L67.47,276.01L71.96,269.96L76.77,263.83L81.87,257.63L87.22,251.35L92.81,245.00L98.62,238.59L104.60,232.11L110.74,225.57L117.01,218.98L123.38,212.34L129.83,205.65L136.34,198.92L142.87,192.15L149.39,185.34L155.90,178.50L162.35,171.63L168.72,164.73L174.98,157.81L181.12,150.88L187.10,143.92L192.89,136.96L198.47,129.99L203.82,123.02L208.91,116.05L213.71,109.08L218.19,102.12L222.34,95.17L226.11,88.23L229.50,81.31L232.46,74.42L234.98,67.55L237.02,60.71L238.56,53.90L239.58,47.14L240.03,40.27L232.69,20.84L213.64,9.13Z" />
        <path class="line"
            d="M213.16,10.00L240.16,19.89L259.24,37.78L261.55,45.42L263.19,53.25L264.09,61.10L264.29,68.99L263.83,76.90L262.74,84.83L261.05,92.78L258.79,100.75L255.99,108.72L252.69,116.70L248.92,124.68L244.72,132.65L240.10,140.62L235.12,148.57L229.80,156.50L224.17,164.41L218.26,172.29L212.12,180.14L205.77,187.94L199.24,195.71L192.57,203.42L185.79,211.08L178.94,218.69L172.04,226.23L165.14,233.70L158.25,241.10L151.43,248.42L144.69,255.66L138.07,262.81L131.61,269.87L125.33,276.83L119.28,283.69L113.48,290.44L107.97,297.08L102.77,303.61L97.93,310.01L93.48,316.29L89.44,322.44L85.86,328.46L82.76,334.34L80.18,340.07L78.15,345.66L76.72,351.10L75.90,356.38L75.75,361.50L76.30,366.45L77.57,371.21L79.60,375.77L82.43,380.13L86.04,384.26L86.80,383.60L83.28,379.50L80.60,375.24L78.69,370.82L77.52,366.22L77.06,361.46L77.27,356.51L78.11,351.40L79.57,346.11L81.60,340.66L84.18,335.04L87.28,329.27L90.87,323.34L94.90,317.27L99.36,311.06L104.20,304.72L109.40,298.25L114.91,291.66L120.72,284.94L126.77,278.12L133.05,271.18L139.52,264.15L146.14,257.01L152.88,249.78L159.72,242.46L166.60,235.06L173.52,227.58L180.42,220.03L187.27,212.40L194.06,204.72L200.73,196.97L207.26,189.17L213.61,181.32L219.75,173.43L225.66,165.50L231.29,157.53L236.61,149.53L241.59,141.51L246.19,133.46L250.39,125.41L254.14,117.34L257.43,109.26L260.20,101.19L262.43,93.12L264.09,85.06L265.14,77.02L265.54,69.00L265.27,61.02L264.30,53.06L262.58,45.15L260.00,37.13L240.68,19.03L213.50,9.06Z" />
        <path class="line"
            d="M274.92,34.16L281.06,42.43L286.12,50.79L290.16,59.27L293.23,67.83L295.36,76.49L296.60,85.23L297.00,94.04L296.60,102.91L295.44,111.84L293.57,120.82L291.02,129.84L287.83,138.89L284.06,147.96L279.75,157.04L274.93,166.12L269.64,175.19L263.94,184.24L257.87,193.26L251.46,202.24L244.77,211.17L237.82,220.04L230.68,228.84L223.37,237.56L215.95,246.19L208.45,254.71L200.93,263.13L193.41,271.43L185.96,279.60L178.60,287.63L171.38,295.51L164.35,303.23L157.54,310.78L151.01,318.15L144.79,325.33L138.93,332.32L133.47,339.09L128.45,345.65L123.92,351.98L119.91,358.07L116.48,363.92L113.67,369.52L111.52,374.86L110.07,379.93L109.38,384.73L109.51,389.24L110.49,393.44L112.37,397.31L115.19,400.81L118.96,403.93L123.70,406.65L124.20,405.79L119.57,403.06L115.99,400.02L113.38,396.67L111.67,393.03L110.80,389.08L110.75,384.82L111.46,380.24L112.92,375.35L115.06,370.16L117.87,364.69L121.30,358.94L125.30,352.94L129.83,346.68L134.86,340.19L140.32,333.47L146.19,326.53L152.42,319.39L158.96,312.05L165.77,304.53L172.82,296.83L180.05,288.96L187.42,280.94L194.89,272.77L202.41,264.47L209.95,256.04L217.46,247.50L224.89,238.84L232.21,230.10L239.36,221.26L246.32,212.35L253.02,203.37L259.44,194.34L265.52,185.26L271.22,176.14L276.51,166.99L281.33,157.83L285.64,148.66L289.41,139.49L292.58,130.33L295.11,121.20L296.96,112.09L298.08,103.04L298.43,94.03L297.97,85.09L296.64,76.24L294.42,67.47L291.26,58.80L287.11,50.26L281.94,41.83L275.72,33.56Z" />
        <path class="line"
            d="M213.46,10.07L250.55,14.48L284.21,29.17L294.16,37.50L302.88,46.09L310.35,54.87L316.61,63.83L321.73,72.95L325.74,82.22L328.70,91.62L330.66,101.14L331.67,110.77L331.78,120.50L331.04,130.31L329.49,140.19L327.18,150.12L324.17,160.10L320.49,170.09L316.20,180.10L311.35,190.11L305.98,200.09L300.14,210.04L293.88,219.94L287.26,229.77L280.31,239.52L273.08,249.17L265.63,258.71L258.01,268.12L250.26,277.39L242.43,286.50L234.57,295.44L226.73,304.19L218.96,312.73L211.31,321.05L203.82,329.14L196.55,336.99L189.54,344.56L182.84,351.86L176.50,358.86L170.57,365.55L165.10,371.91L160.14,377.94L155.73,383.62L151.92,388.92L148.77,393.85L146.31,398.39L144.61,402.54L143.71,406.28L143.69,409.63L144.64,412.52L146.59,414.89L149.54,416.68L153.45,417.88L153.75,416.93L149.97,415.70L147.33,414.04L145.68,411.96L144.93,409.46L145.01,406.46L145.90,402.98L147.59,399.02L150.04,394.62L153.19,389.79L157.00,384.57L161.41,378.97L166.39,373.00L171.87,366.69L177.82,360.04L184.17,353.08L190.89,345.81L197.92,338.26L205.21,330.44L212.72,322.36L220.40,314.05L228.19,305.51L236.05,296.75L243.93,287.81L251.78,278.68L259.55,269.39L267.20,259.95L274.66,250.38L281.91,240.69L288.87,230.89L295.52,221.00L301.79,211.04L307.64,201.02L313.02,190.96L317.88,180.87L322.17,170.76L325.85,160.65L328.85,150.56L331.14,140.51L332.66,130.49L333.37,120.55L333.20,110.68L332.12,100.91L330.08,91.26L327.02,81.74L322.90,72.37L317.67,63.16L311.29,54.14L303.70,45.32L294.87,36.71L284.68,28.29L250.81,13.52L213.57,9.07Z" />
        <path class="line"
            d="M213.34,10.04L249.30,11.68L287.25,22.83L299.80,31.06L311.16,39.52L321.28,48.17L330.22,56.99L338.02,65.96L344.71,75.08L350.33,84.31L354.94,93.67L358.58,103.12L361.28,112.66L363.08,122.28L364.04,131.97L364.19,141.71L363.58,151.50L362.23,161.32L360.20,171.15L357.52,181.00L354.24,190.84L350.39,200.65L346.01,210.44L341.15,220.18L335.85,229.86L330.14,239.46L324.07,248.98L317.68,258.40L311.00,267.70L304.09,276.88L296.98,285.91L289.71,294.79L282.32,303.50L274.86,312.04L267.37,320.37L259.88,328.50L252.44,336.40L245.08,344.08L237.86,351.50L230.81,358.66L223.97,365.54L217.38,372.14L211.09,378.43L205.13,384.40L199.54,390.05L194.37,395.36L189.66,400.31L185.45,404.89L181.77,409.09L178.68,412.90L176.20,416.31L174.38,419.31L173.28,421.85L174.19,422.26L175.32,419.81L177.13,416.94L179.61,413.63L182.72,409.90L186.42,405.77L190.66,401.25L195.40,396.35L200.60,391.09L206.21,385.49L212.21,379.55L218.54,373.30L225.16,366.73L232.04,359.88L239.12,352.74L246.38,345.33L253.77,337.68L261.25,329.78L268.78,321.66L276.31,313.32L283.80,304.78L291.22,296.05L298.52,287.15L305.67,278.09L312.61,268.88L319.32,259.54L325.74,250.08L331.84,240.50L337.57,230.84L342.90,221.09L347.78,211.27L352.17,201.40L356.03,191.48L359.32,181.54L362.00,171.58L364.02,161.62L365.34,151.67L365.92,141.75L365.72,131.87L364.70,122.05L362.82,112.29L360.03,102.63L356.30,93.07L351.58,83.62L345.84,74.31L339.04,65.14L331.13,56.13L322.08,47.30L311.86,38.64L300.40,30.18L287.61,21.89L249.47,10.69L213.39,9.05Z" />
        <path class="line"
            d="M213.36,9.03L176.78,9.14L146.21,12.74L145.63,12.82L145.07,12.90L144.51,12.98L143.95,13.06L143.39,13.15L142.83,13.25L142.27,13.34L141.71,13.45L141.15,13.55L140.59,13.66L140.04,13.77L139.49,13.89L138.94,14.01L138.39,14.13L137.86,14.26L137.32,14.38L136.80,14.51L136.28,14.64L135.77,14.78L135.26,14.91L134.77,15.04L134.28,15.18L133.80,15.32L133.34,15.46L132.88,15.59L132.44,15.73L132.01,15.87L131.59,16.01L131.18,16.14L130.79,16.27L130.41,16.41L130.05,16.54L129.70,16.67L129.37,16.79L129.05,16.92L128.76,17.04L128.48,17.15L128.21,17.26L127.97,17.37L127.75,17.47L127.54,17.57L127.36,17.66L127.20,17.75L127.05,17.83L126.93,17.90L126.84,17.97L126.76,18.03L126.71,18.08L126.69,18.12L126.68,18.16L127.02,19.10L127.04,19.12L127.09,19.14L127.16,19.15L127.25,19.15L127.37,19.14L127.51,19.12L127.67,19.10L127.84,19.06L128.04,19.02L128.26,18.98L128.50,18.92L128.75,18.86L129.03,18.79L129.32,18.71L129.62,18.63L129.95,18.54L130.28,18.45L130.64,18.35L131.00,18.24L131.38,18.13L131.78,18.02L132.18,17.90L132.60,17.77L133.03,17.64L133.47,17.51L133.92,17.37L134.38,17.23L134.84,17.08L135.32,16.93L135.80,16.78L136.30,16.63L136.80,16.48L137.30,16.32L137.81,16.16L138.33,16.00L138.85,15.84L139.38,15.68L139.90,15.52L140.44,15.36L140.97,15.20L141.51,15.04L142.05,14.89L142.59,14.73L143.13,14.58L143.67,14.43L144.21,14.28L144.75,14.14L145.29,14.00L145.82,13.86L146.33,13.74L176.84,10.13L213.36,10.03Z" />
        <path class="line"
            d="M213.39,9.95L247.79,8.39L284.98,16.82L293.17,20.37L301.15,24.26L308.85,28.46L316.25,32.96L323.35,37.76L330.14,42.84L336.61,48.20L342.76,53.82L348.57,59.71L354.04,65.84L359.16,72.22L363.92,78.84L368.31,85.67L372.32,92.73L375.95,100.00L379.19,107.47L382.03,115.13L384.45,122.97L386.46,131.00L388.05,139.19L389.20,147.55L389.91,156.06L390.16,164.72L389.96,173.52L389.28,182.45L388.13,191.50L386.49,200.66L384.36,209.94L381.72,219.31L378.57,228.78L374.89,238.33L370.68,247.95L365.93,257.64L360.63,267.40L354.77,277.20L348.34,287.04L341.34,296.92L333.75,306.82L325.56,316.74L316.76,326.67L307.36,336.60L297.33,346.52L286.67,356.42L275.37,366.30L263.42,376.15L250.81,385.95L237.54,395.70L223.59,405.39L208.95,415.01L193.62,424.56L194.14,425.41L209.52,415.91L224.21,406.32L238.22,396.67L251.56,386.95L264.23,377.17L276.25,367.35L287.62,357.49L298.35,347.59L308.45,337.68L317.93,327.75L326.80,317.81L335.06,307.87L342.73,297.95L349.81,288.04L356.30,278.16L362.23,268.31L367.60,258.51L372.41,248.76L376.68,239.06L380.40,229.44L383.60,219.89L386.28,210.43L388.45,201.06L390.11,191.80L391.27,182.65L391.95,173.62L392.15,164.71L391.89,155.95L391.16,147.33L389.97,138.87L388.35,130.58L386.29,122.46L383.80,114.52L380.90,106.77L377.59,99.23L373.88,91.89L369.78,84.78L365.31,77.88L360.46,71.23L355.25,64.81L349.69,58.65L343.78,52.75L337.55,47.12L330.98,41.76L324.10,36.69L316.92,31.91L309.44,27.43L301.66,23.26L293.61,19.40L285.23,15.86L247.88,7.39L213.35,8.95Z" />
        <path class="line"
            d="M373.16,73.96L378.08,80.86L382.63,87.85L386.83,94.96L390.67,102.17L394.15,109.47L397.28,116.86L400.07,124.33L402.50,131.88L404.59,139.49L406.34,147.16L407.74,154.88L408.81,162.65L409.54,170.46L409.94,178.30L410.00,186.17L409.73,194.06L409.13,201.96L408.20,209.87L406.95,217.78L405.37,225.68L403.48,233.57L401.26,241.43L398.72,249.27L395.87,257.07L392.70,264.84L389.21,272.55L385.42,280.22L381.31,287.82L376.90,295.35L372.18,302.81L367.15,310.18L361.82,317.47L356.19,324.66L350.25,331.75L344.02,338.73L337.49,345.59L330.66,352.33L323.54,358.93L316.12,365.40L308.42,371.73L300.42,377.90L292.14,383.92L283.57,389.77L274.71,395.44L265.57,400.93L256.15,406.24L246.45,411.35L236.47,416.26L226.21,420.96L215.68,425.45L216.07,426.37L226.64,421.94L236.95,417.28L246.98,412.41L256.74,407.34L266.23,402.07L275.43,396.60L284.35,390.96L292.99,385.13L301.34,379.13L309.40,372.97L317.18,366.66L324.66,360.19L331.85,353.58L338.75,346.83L345.35,339.96L351.65,332.96L357.64,325.84L363.34,318.62L368.73,311.30L373.81,303.88L378.58,296.37L383.04,288.79L387.19,281.13L391.02,273.41L394.53,265.63L397.73,257.79L400.60,249.92L403.15,242.00L405.38,234.06L407.28,226.10L408.85,218.12L410.09,210.13L411.00,202.14L411.57,194.16L411.81,186.19L411.71,178.25L411.27,170.33L410.48,162.45L409.36,154.62L407.89,146.83L406.08,139.11L403.92,131.45L401.41,123.86L398.55,116.35L395.34,108.93L391.78,101.60L387.86,94.38L383.59,87.26L378.96,80.25L373.97,73.38Z" />
        <path class="line"
            d="M239.66,424.72L246.79,422.07L253.81,419.29L260.72,416.38L267.52,413.35L274.21,410.18L280.78,406.90L287.23,403.49L293.56,399.97L299.76,396.33L305.85,392.57L311.80,388.71L317.63,384.73L323.32,380.65L328.88,376.46L334.31,372.18L339.60,367.79L344.75,363.30L349.76,358.72L354.62,354.05L359.34,349.29L363.92,344.44L368.34,339.51L372.61,334.49L376.73,329.39L380.69,324.22L384.50,318.97L388.15,313.65L391.63,308.26L394.95,302.81L398.10,297.29L401.09,291.70L403.91,286.06L406.55,280.36L409.03,274.61L411.32,268.80L413.44,262.95L415.38,257.05L417.14,251.11L418.72,245.13L420.11,239.10L421.31,233.05L422.33,226.96L423.16,220.84L423.79,214.69L424.24,208.52L424.48,202.32L424.53,196.11L424.38,189.87L424.03,183.63L423.48,177.37L422.48,177.46L422.97,183.70L423.26,189.91L423.34,196.11L423.23,202.29L422.93,208.44L422.43,214.56L421.74,220.66L420.87,226.73L419.80,232.76L418.56,238.76L417.13,244.73L415.52,250.65L413.73,256.53L411.77,262.37L409.63,268.16L407.32,273.90L404.84,279.59L402.19,285.23L399.38,290.81L396.40,296.34L393.25,301.80L389.95,307.21L386.49,312.55L382.87,317.82L379.09,323.03L375.16,328.16L371.08,333.22L366.85,338.20L362.47,343.11L357.94,347.94L353.27,352.68L348.45,357.34L343.50,361.91L338.40,366.39L333.17,370.77L327.80,375.06L322.29,379.26L316.66,383.35L310.89,387.35L304.99,391.23L298.97,395.01L292.82,398.68L286.54,402.24L280.15,405.68L273.63,409.01L267.00,412.21L260.25,415.29L253.38,418.25L246.40,421.08L239.31,423.78Z" />
        <path class="line"
            d="M1.04,207.01L1.10,203.27L1.56,199.50L2.40,195.64L3.61,191.73L5.17,187.75L7.07,183.72L9.28,179.64L11.80,175.51L14.60,171.35L17.68,167.16L21.01,162.94L24.58,158.70L28.38,154.44L32.38,150.18L36.57,145.91L40.94,141.65L45.46,137.39L50.13,133.15L54.93,128.94L59.83,124.74L64.82,120.58L69.90,116.46L75.03,112.38L80.21,108.35L85.42,104.38L90.64,100.47L95.85,96.62L101.05,92.85L106.20,89.16L111.31,85.55L116.35,82.03L121.30,78.60L126.15,75.28L130.88,72.07L135.47,68.96L139.92,65.98L144.20,63.13L148.30,60.40L152.20,57.81L155.89,55.37L159.34,53.07L162.55,50.93L165.49,48.94L168.16,47.13L170.53,45.48L172.59,44.01L174.32,42.73L175.71,41.63L176.75,40.71L177.36,40.05L199.97,22.84L213.74,9.90L213.05,9.17L199.34,22.07L176.75,39.25L176.04,39.92L175.01,40.74L173.61,41.77L171.87,42.99L169.79,44.40L167.39,45.99L164.70,47.76L161.73,49.69L158.50,51.79L155.02,54.04L151.30,56.44L147.38,58.99L143.25,61.68L138.94,64.51L134.47,67.46L129.85,70.54L125.09,73.73L120.22,77.03L115.25,80.44L110.19,83.95L105.07,87.55L99.89,91.24L94.68,95.01L89.45,98.86L84.21,102.79L78.99,106.77L73.80,110.82L68.66,114.92L63.57,119.06L58.57,123.25L53.66,127.48L48.86,131.74L44.19,136.02L39.66,140.32L35.29,144.63L31.10,148.95L27.10,153.28L23.31,157.60L19.74,161.91L16.41,166.20L13.34,170.47L10.55,174.72L8.04,178.93L5.84,183.11L3.97,187.24L2.43,191.32L1.25,195.35L0.45,199.31L0.04,203.21L0.04,207.00Z" />
        <path class="line"
            d="M13.07,142.43L14.56,139.58L16.22,136.75L18.05,133.93L20.06,131.11L22.22,128.31L24.54,125.51L27.00,122.72L29.59,119.95L32.32,117.19L35.17,114.45L38.13,111.73L41.20,109.03L44.36,106.34L47.62,103.68L50.96,101.05L54.37,98.44L57.85,95.85L61.39,93.30L64.98,90.77L68.62,88.28L72.29,85.82L75.99,83.40L79.72,81.01L83.45,78.67L87.19,76.36L90.93,74.09L94.66,71.87L98.37,69.69L102.05,67.56L105.71,65.48L109.32,63.45L112.88,61.47L116.38,59.55L119.83,57.67L123.20,55.86L126.49,54.10L129.69,52.41L132.80,50.78L135.80,49.21L138.70,47.70L141.47,46.27L144.12,44.90L146.64,43.60L149.02,42.38L151.25,41.23L153.32,40.15L155.22,39.15L156.96,38.24L158.51,37.40L159.88,36.65L189.12,21.02L213.57,9.96L213.16,9.05L188.67,20.12L159.41,35.76L158.02,36.46L156.45,37.24L154.69,38.10L152.76,39.04L150.66,40.06L148.41,41.15L146.00,42.33L143.46,43.58L140.78,44.90L137.98,46.29L135.06,47.75L132.02,49.28L128.89,50.88L125.66,52.54L122.35,54.26L118.96,56.05L115.49,57.90L111.96,59.80L108.38,61.76L104.75,63.78L101.08,65.86L97.37,67.98L93.65,70.16L89.90,72.38L86.15,74.65L82.39,76.97L78.65,79.33L74.91,81.74L71.20,84.18L67.52,86.67L63.88,89.19L60.28,91.75L56.74,94.34L53.25,96.97L49.84,99.62L46.50,102.31L43.25,105.02L40.09,107.76L37.03,110.52L34.07,113.30L31.23,116.11L28.52,118.93L25.94,121.77L23.49,124.63L21.19,127.50L19.05,130.38L17.07,133.27L15.26,136.17L13.62,139.08L12.18,141.98Z" />
        <path class="line"
            d="M32.47,102.02L33.60,100.22L34.85,98.43L36.24,96.63L37.75,94.83L39.37,93.03L41.11,91.23L42.96,89.42L44.91,87.62L46.96,85.82L49.10,84.03L51.32,82.24L53.63,80.45L56.01,78.68L58.46,76.91L60.98,75.15L63.56,73.41L66.19,71.68L68.86,69.96L71.58,68.26L74.34,66.57L77.13,64.91L79.95,63.26L82.79,61.63L85.64,60.03L88.50,58.45L91.37,56.89L94.24,55.36L97.10,53.86L99.95,52.39L102.79,50.94L105.60,49.53L108.39,48.16L111.14,46.81L113.85,45.51L116.52,44.24L119.14,43.00L121.71,41.81L124.22,40.66L126.66,39.56L129.03,38.49L131.33,37.48L133.54,36.51L135.67,35.59L137.70,34.72L139.64,33.90L141.47,33.14L143.20,32.43L144.81,31.77L146.30,31.18L147.66,30.64L180.82,19.28L213.48,9.98L213.21,9.02L180.52,18.33L147.34,29.70L145.93,30.18L144.41,30.72L142.77,31.32L141.01,31.98L139.15,32.69L137.18,33.45L135.12,34.27L132.96,35.14L130.72,36.07L128.40,37.04L126.00,38.06L123.53,39.12L121.00,40.24L118.41,41.39L115.76,42.60L113.07,43.84L110.33,45.12L107.55,46.44L104.75,47.80L101.91,49.20L99.06,50.63L96.19,52.10L93.31,53.60L90.43,55.13L87.54,56.69L84.67,58.28L81.80,59.90L78.95,61.55L76.13,63.21L73.33,64.91L70.56,66.62L67.84,68.35L65.16,70.11L62.52,71.88L59.95,73.67L57.43,75.47L54.98,77.29L52.60,79.12L50.30,80.96L48.08,82.81L45.95,84.67L43.91,86.53L41.97,88.40L40.13,90.27L38.41,92.15L36.79,94.03L35.30,95.90L33.94,97.78L32.70,99.65L31.62,101.50Z" />
        <path class="line"
            d="M73.81,53.31L75.36,52.45L76.95,51.60L78.57,50.75L80.22,49.91L81.90,49.07L83.60,48.23L85.32,47.41L87.06,46.59L88.81,45.77L90.58,44.97L92.36,44.17L94.14,43.38L95.93,42.60L97.72,41.83L99.51,41.07L101.29,40.32L103.07,39.59L104.84,38.86L106.60,38.15L108.34,37.45L110.07,36.76L111.77,36.08L113.45,35.42L115.11,34.78L116.74,34.15L118.33,33.53L119.90,32.93L121.42,32.35L122.91,31.79L124.36,31.25L125.76,30.72L127.11,30.21L128.41,29.73L129.66,29.26L130.86,28.82L132.00,28.39L133.07,27.99L134.08,27.62L135.03,27.26L135.91,26.94L136.71,26.63L137.44,26.36L138.10,26.10L138.67,25.88L139.16,25.69L139.57,25.52L139.89,25.38L140.11,25.27L140.25,25.20L140.25,25.16L177.19,16.02L213.45,10.03L213.29,9.04L176.99,15.04L140.01,24.19L139.92,24.19L139.76,24.20L139.51,24.25L139.18,24.33L138.75,24.44L138.24,24.58L137.64,24.75L136.97,24.95L136.22,25.18L135.39,25.43L134.50,25.72L133.53,26.03L132.50,26.36L131.41,26.72L130.25,27.11L129.04,27.52L127.78,27.96L126.46,28.42L125.09,28.91L123.68,29.41L122.22,29.95L120.73,30.50L119.19,31.07L117.62,31.67L116.02,32.28L114.38,32.91L112.72,33.57L111.04,34.24L109.33,34.93L107.61,35.64L105.86,36.36L104.11,37.10L102.34,37.86L100.57,38.63L98.79,39.41L97.01,40.21L95.22,41.02L93.44,41.85L91.67,42.68L89.91,43.53L88.15,44.39L86.41,45.25L84.69,46.13L82.98,47.01L81.30,47.90L79.64,48.80L78.01,49.70L76.41,50.61L74.84,51.53L73.31,52.45Z" />
        <path class="line"
            d="M213.31,9.02L174.20,12.37L139.11,18.81L138.77,18.84L138.40,18.89L138.00,18.94L137.56,19.01L137.10,19.09L136.61,19.18L136.09,19.28L135.55,19.39L134.98,19.50L134.39,19.64L133.77,19.78L133.13,19.93L132.47,20.09L131.79,20.26L131.09,20.44L130.37,20.63L129.64,20.83L128.89,21.03L128.12,21.25L127.34,21.48L126.55,21.71L125.74,21.95L124.92,22.21L124.09,22.47L123.26,22.73L122.41,23.01L121.56,23.29L120.70,23.58L119.83,23.88L118.96,24.18L118.09,24.49L117.21,24.81L116.33,25.13L115.45,25.46L114.57,25.79L113.70,26.13L112.82,26.48L111.95,26.82L111.08,27.18L110.22,27.53L109.36,27.89L108.51,28.26L107.67,28.62L106.84,28.99L106.01,29.36L105.20,29.73L104.40,30.11L103.61,30.48L102.84,30.86L102.08,31.24L102.49,32.15L103.27,31.83L104.06,31.51L104.87,31.20L105.69,30.88L106.52,30.57L107.35,30.26L108.20,29.94L109.06,29.63L109.92,29.32L110.79,29.01L111.66,28.71L112.54,28.40L113.42,28.10L114.30,27.80L115.19,27.50L116.07,27.20L116.95,26.90L117.84,26.61L118.71,26.32L119.59,26.03L120.46,25.74L121.32,25.46L122.18,25.18L123.03,24.91L123.87,24.64L124.70,24.37L125.52,24.11L126.33,23.85L127.13,23.59L127.91,23.34L128.68,23.10L129.43,22.86L130.17,22.62L130.89,22.40L131.59,22.18L132.27,21.96L132.94,21.75L133.58,21.55L134.20,21.36L134.80,21.17L135.37,20.99L135.92,20.82L136.44,20.66L136.94,20.51L137.40,20.36L137.84,20.23L138.25,20.10L138.63,19.99L138.98,19.89L139.29,19.79L174.34,13.37L213.39,10.02Z" />
        <path class="line"
            d="M213.37,9.06L178.47,5.60L157.17,7.42L157.25,8.41L178.44,6.60L213.27,10.06Z" />
        <path class="line"
            d="M213.38,8.95L182.42,3.16L175.17,3.41L175.20,4.41L182.28,4.15L213.20,9.93Z" />
        <path class="line"
            d="M213.52,8.96L197.22,1.66L192.85,0.84L192.67,1.82L196.85,2.59L213.11,9.87Z" />
        <path class="line"
            d="M213.87,8.76L210.06,3.59L210.41,0.67L209.42,0.57L209.14,3.98L213.07,9.35Z" />
        <path class="line"
            d="M275.58,33.43L247.91,16.60L213.46,9.00L213.24,9.98L247.54,17.53L275.06,34.29Z" />
    </g>
    <g id="lines-right">
        <path class="line"
            d="M212.87,9.64L214.36,23.66L226.89,41.93L228.56,44.30L230.57,46.82L232.92,49.48L235.58,52.27L238.54,55.18L241.78,58.23L245.29,61.40L249.05,64.68L253.04,68.08L257.26,71.59L261.67,75.21L266.27,78.94L271.04,82.76L275.97,86.68L281.03,90.69L286.21,94.80L291.51,98.98L296.89,103.25L302.34,107.59L307.85,112.01L313.41,116.50L318.99,121.05L324.57,125.67L330.16,130.34L335.71,135.07L341.23,139.85L346.70,144.67L352.09,149.54L357.40,154.45L362.60,159.40L367.68,164.37L372.62,169.38L377.42,174.41L382.04,179.45L386.49,184.52L390.73,189.60L394.75,194.69L398.54,199.78L402.09,204.88L405.37,209.97L408.37,215.06L411.07,220.14L413.46,225.21L415.52,230.26L417.24,235.29L418.60,240.29L419.59,245.27L420.18,250.23L420.37,255.15L420.13,260.05L421.13,260.11L421.43,255.16L421.30,250.14L420.76,245.09L419.82,240.01L418.50,234.91L416.81,229.78L414.77,224.64L412.40,219.48L409.71,214.32L406.72,209.14L403.45,203.97L399.92,198.80L396.13,193.64L392.10,188.49L387.86,183.35L383.42,178.23L378.79,173.13L373.99,168.05L369.04,163.01L363.95,157.99L358.74,153.02L353.43,148.08L348.03,143.19L342.55,138.34L337.02,133.55L331.44,128.81L325.85,124.13L320.24,119.52L314.65,114.97L309.07,110.49L303.54,106.08L298.07,101.75L292.67,97.51L287.35,93.35L282.15,89.27L277.06,85.29L272.12,81.41L267.32,77.62L262.70,73.94L258.26,70.37L254.03,66.90L250.01,63.55L246.23,60.32L242.70,57.22L239.44,54.23L236.46,51.38L233.79,48.67L231.43,46.09L229.40,43.65L227.72,41.36L215.27,23.27L213.87,9.53Z" />
        <path class="line"
            d="M212.85,9.25L202.29,22.46L205.38,42.60L206.45,46.34L207.99,50.25L210.00,54.34L212.44,58.61L215.30,63.05L218.54,67.65L222.16,72.41L226.11,77.32L230.39,82.37L234.96,87.56L239.81,92.87L244.91,98.31L250.24,103.85L255.77,109.51L261.48,115.26L267.35,121.10L273.36,127.03L279.48,133.03L285.69,139.10L291.96,145.23L298.28,151.42L304.61,157.65L310.95,163.92L317.25,170.23L323.51,176.55L329.69,182.90L335.78,189.25L341.74,195.60L347.56,201.95L353.22,208.29L358.69,214.60L363.95,220.89L368.97,227.14L373.73,233.35L378.21,239.50L382.38,245.60L386.23,251.63L389.72,257.59L392.84,263.47L395.57,269.26L397.87,274.96L399.74,280.55L401.13,286.03L402.05,291.39L402.45,296.63L402.32,301.74L401.65,306.71L400.39,311.55L398.53,316.24L396.04,320.81L396.91,321.30L399.49,316.70L401.46,311.90L402.81,306.95L403.57,301.84L403.76,296.60L403.40,291.23L402.53,285.74L401.16,280.14L399.32,274.43L397.02,268.63L394.31,262.75L391.20,256.78L387.70,250.74L383.86,244.63L379.69,238.46L375.21,232.24L370.44,225.98L365.42,219.68L360.16,213.35L354.69,207.00L349.03,200.63L343.20,194.25L337.22,187.88L331.13,181.51L324.93,175.15L318.67,168.82L312.35,162.51L306.01,156.24L299.66,150.01L293.32,143.84L287.04,137.72L280.81,131.67L274.67,125.69L268.65,119.79L262.76,113.98L257.03,108.26L251.48,102.65L246.13,97.14L241.01,91.76L236.14,86.49L231.55,81.36L227.25,76.37L223.28,71.53L219.64,66.84L216.38,62.31L213.50,57.95L211.04,53.78L209.02,49.79L207.45,45.99L206.37,42.42L203.27,22.68L213.63,9.88Z" />
        <path class="line"
            d="M213.06,9.06L191.77,20.83L184.41,40.27L184.86,47.14L185.88,53.91L187.43,60.72L189.48,67.57L192.01,74.45L194.98,81.36L198.37,88.29L202.16,95.24L206.32,102.21L210.82,109.19L215.64,116.18L220.74,123.18L226.11,130.18L231.72,137.17L237.53,144.16L243.53,151.14L249.69,158.11L255.98,165.06L262.38,171.99L268.85,178.89L275.38,185.76L281.93,192.60L288.49,199.41L295.02,206.18L301.50,212.90L307.90,219.57L314.19,226.20L320.36,232.76L326.37,239.27L332.19,245.72L337.81,252.10L343.19,258.41L348.31,264.65L353.14,270.80L357.66,276.88L361.84,282.87L365.65,288.77L369.07,294.57L372.07,300.28L374.63,305.89L376.72,311.38L378.32,316.77L379.39,322.05L379.93,327.21L379.90,332.25L379.27,337.17L378.03,341.98L376.14,346.67L373.57,351.25L370.28,355.72L371.08,356.32L374.46,351.83L377.15,347.17L379.15,342.36L380.50,337.41L381.20,332.34L381.30,327.15L380.80,321.84L379.75,316.42L378.18,310.90L376.10,305.28L373.54,299.56L370.54,293.76L367.12,287.86L363.31,281.89L359.13,275.83L354.61,269.69L349.78,263.47L344.65,257.19L339.27,250.84L333.65,244.42L327.82,237.95L321.81,231.41L315.64,224.83L309.34,218.19L302.94,211.51L296.46,204.79L289.92,198.03L283.36,191.23L276.80,184.40L270.27,177.55L263.79,170.67L257.38,163.77L251.09,156.86L244.92,149.93L238.91,142.99L233.09,136.05L227.47,129.11L222.09,122.17L216.97,115.23L212.14,108.31L207.62,101.40L203.45,94.50L199.64,87.63L196.22,80.78L193.22,73.96L190.66,67.17L188.58,60.41L186.99,53.70L185.92,47.02L185.38,40.53L192.50,21.50L213.55,9.93Z" />
        <path class="line"
            d="M213.16,9.06L183.07,19.42L164.44,37.14L161.86,45.15L160.15,53.07L159.17,61.02L158.91,69.02L159.32,77.05L160.38,85.10L162.05,93.17L164.29,101.25L167.08,109.34L170.38,117.43L174.15,125.51L178.36,133.59L182.98,141.65L187.98,149.70L193.32,157.72L198.97,165.71L204.90,173.66L211.06,181.58L217.44,189.45L223.99,197.28L230.68,205.05L237.49,212.76L244.37,220.41L251.29,227.99L258.23,235.49L265.14,242.92L271.99,250.27L278.76,257.52L285.41,264.68L291.90,271.75L298.20,278.70L304.28,285.55L310.10,292.29L315.64,298.91L320.85,305.40L325.71,311.77L330.19,317.99L334.24,324.08L337.84,330.03L340.96,335.82L343.56,341.45L345.60,346.92L347.07,352.22L347.93,357.35L348.14,362.30L347.68,367.08L346.52,371.68L344.62,376.11L341.94,380.36L338.43,384.47L339.18,385.12L342.80,381.00L345.62,376.64L347.65,372.07L348.91,367.30L349.45,362.34L349.29,357.21L348.46,351.92L347.02,346.47L344.98,340.86L342.38,335.11L339.27,329.22L335.67,323.18L331.61,317.01L327.14,310.71L322.28,304.29L317.07,297.74L311.53,291.08L305.71,284.30L299.63,277.42L293.34,270.43L286.85,263.35L280.21,256.17L273.45,248.91L266.60,241.56L259.69,234.13L252.76,226.64L245.84,219.07L238.97,211.44L232.17,203.75L225.47,196.01L218.93,188.22L212.55,180.39L206.39,172.52L200.46,164.62L194.81,156.69L189.47,148.74L184.47,140.76L179.84,132.78L175.61,124.79L171.83,116.79L168.52,108.79L165.71,100.81L163.43,92.83L161.73,84.87L160.63,76.92L160.16,69.00L160.36,61.11L161.26,53.25L162.89,45.42L165.21,37.77L183.57,20.29L213.49,10.01Z" />
        <path class="line"
            d="M148.72,33.56L142.50,41.83L137.33,50.26L133.18,58.81L130.02,67.48L127.80,76.26L126.48,85.13L126.02,94.08L126.38,103.09L127.50,112.17L129.35,121.28L131.89,130.43L135.06,139.61L138.83,148.80L143.15,157.99L147.98,167.17L153.27,176.34L158.98,185.48L165.07,194.58L171.49,203.64L178.20,212.64L185.16,221.58L192.32,230.44L199.65,239.21L207.09,247.89L214.60,256.46L222.14,264.91L229.68,273.24L237.15,281.43L244.53,289.48L251.77,297.37L258.81,305.09L265.64,312.64L272.18,320.00L278.42,327.16L284.29,334.12L289.76,340.86L294.79,347.37L299.33,353.64L303.33,359.67L306.76,365.43L309.58,370.92L311.73,376.12L313.19,381.02L313.90,385.62L313.85,389.89L312.99,393.85L311.28,397.50L308.67,400.84L305.09,403.88L300.46,406.62L300.96,407.48L305.70,404.76L309.47,401.63L312.29,398.13L314.17,394.25L315.15,390.04L315.27,385.52L314.58,380.71L313.13,375.63L310.97,370.28L308.16,364.66L304.72,358.80L300.71,352.69L296.18,346.34L291.15,339.76L285.69,332.97L279.82,325.96L273.59,318.76L267.06,311.37L260.24,303.79L253.21,296.05L245.98,288.15L238.62,280.09L231.15,271.90L223.63,263.57L216.10,255.13L208.59,246.58L201.17,237.92L193.85,229.18L186.70,220.35L179.75,211.46L173.05,202.51L166.64,193.50L160.55,184.46L154.85,175.39L149.56,166.30L144.73,157.20L140.41,148.10L136.64,139.01L133.45,129.94L130.90,120.91L129.02,111.91L127.85,102.97L127.45,94.08L127.84,85.26L129.09,76.51L131.21,67.85L134.28,59.27L138.32,50.80L143.38,42.43L149.52,34.16Z" />
        <path class="line"
            d="M213.30,9.03L174.43,13.68L139.77,28.28L129.57,36.71L120.74,45.32L113.15,54.15L106.77,63.17L101.54,72.38L97.42,81.76L94.36,91.29L92.32,100.95L91.24,110.73L91.07,120.61L91.77,130.57L93.29,140.59L95.58,150.66L98.59,160.76L102.26,170.88L106.55,181.00L111.41,191.11L116.79,201.19L122.64,211.23L128.91,221.20L135.56,231.11L142.52,240.92L149.77,250.63L157.23,260.22L164.88,269.68L172.65,278.98L180.50,288.13L188.37,297.09L196.23,305.86L204.03,314.42L211.70,322.75L219.21,330.84L226.50,338.68L233.53,346.24L240.25,353.52L246.61,360.50L252.55,367.16L258.03,373.49L263.01,379.47L267.43,385.08L271.23,390.31L274.38,395.14L276.83,399.56L278.52,403.52L279.41,407.02L279.49,410.01L278.73,412.52L277.09,414.60L274.45,416.27L270.67,417.50L270.97,418.45L274.88,417.24L277.83,415.46L279.78,413.09L280.73,410.18L280.71,406.84L279.81,403.08L278.11,398.93L275.66,394.38L272.50,389.45L268.69,384.13L264.28,378.44L259.32,372.40L253.85,366.02L247.92,359.32L241.59,352.30L234.89,344.99L227.88,337.40L220.61,329.55L213.12,321.44L205.47,313.10L197.70,304.54L189.86,295.77L182.00,286.82L174.17,277.69L166.42,268.41L158.80,258.98L151.35,249.42L144.13,239.75L137.18,229.99L130.55,220.14L124.29,210.23L118.45,200.26L113.08,190.26L108.23,180.24L103.94,170.22L100.27,160.20L97.25,150.22L94.95,140.27L93.40,130.38L92.66,120.56L92.77,110.82L93.78,101.18L95.74,91.65L98.70,82.24L102.71,72.97L107.83,63.84L114.09,54.88L121.56,46.09L130.28,37.50L140.23,29.17L174.68,14.65L213.42,10.02Z" />
        <path class="line"
            d="M213.30,9.04L172.96,10.58L136.83,21.90L124.04,30.18L112.58,38.64L102.36,47.30L93.31,56.13L85.40,65.14L78.60,74.31L72.86,83.62L68.14,93.07L64.41,102.63L61.62,112.29L59.74,122.05L58.72,131.87L58.52,141.75L59.10,151.67L60.42,161.62L62.44,171.58L65.12,181.54L68.41,191.48L72.27,201.40L76.66,211.27L81.54,221.09L86.87,230.84L92.60,240.50L98.70,250.08L105.12,259.54L111.83,268.88L118.77,278.09L125.92,287.15L133.22,296.05L140.64,304.78L148.13,313.32L155.66,321.66L163.19,329.78L170.67,337.68L178.06,345.33L185.32,352.74L192.40,359.88L199.28,366.73L205.90,373.30L212.23,379.55L218.23,385.49L223.84,391.09L229.04,396.35L233.78,401.25L238.02,405.77L241.72,409.90L244.83,413.63L247.31,416.94L249.12,419.81L250.25,422.26L251.16,421.85L250.06,419.31L248.24,416.31L245.76,412.90L242.67,409.09L238.99,404.89L234.78,400.31L230.07,395.36L224.90,390.05L219.31,384.40L213.35,378.43L207.06,372.14L200.47,365.54L193.63,358.66L186.58,351.50L179.36,344.08L172.00,336.40L164.56,328.50L157.07,320.37L149.58,312.04L142.12,303.50L134.73,294.79L127.46,285.91L120.35,276.88L113.44,267.70L106.76,258.40L100.37,248.98L94.30,239.46L88.59,229.86L83.29,220.18L78.43,210.44L74.05,200.65L70.20,190.84L66.92,181.00L64.24,171.15L62.21,161.32L60.86,151.50L60.25,141.71L60.40,131.97L61.36,122.28L63.16,112.66L65.86,103.12L69.50,93.67L74.11,84.31L79.73,75.08L86.42,65.96L94.22,56.99L103.16,48.17L113.28,39.52L124.64,31.06L137.20,22.83L173.13,11.57L213.34,10.04Z" />
        <path class="line"
            d="M213.36,10.04L247.60,10.13L278.11,13.74L278.62,13.86L279.16,14.00L279.70,14.14L280.25,14.28L280.80,14.42L281.35,14.56L281.90,14.71L282.45,14.85L283.00,15.00L283.55,15.15L284.10,15.30L284.65,15.45L285.19,15.60L285.73,15.75L286.27,15.90L286.81,16.04L287.33,16.19L287.86,16.33L288.38,16.47L288.89,16.61L289.39,16.74L289.89,16.88L290.37,17.01L290.85,17.13L291.32,17.26L291.78,17.38L292.23,17.49L292.66,17.60L293.09,17.71L293.50,17.81L293.90,17.90L294.28,18.00L294.65,18.08L295.01,18.16L295.34,18.24L295.66,18.31L295.97,18.37L296.26,18.43L296.52,18.48L296.77,18.52L297.00,18.56L297.21,18.59L297.40,18.62L297.56,18.63L297.71,18.64L297.83,18.65L297.92,18.64L298.00,18.63L298.04,18.61L298.06,18.59L298.35,17.63L298.34,17.59L298.31,17.55L298.25,17.50L298.17,17.45L298.07,17.39L297.94,17.32L297.79,17.24L297.62,17.17L297.42,17.08L297.20,16.99L296.97,16.90L296.71,16.80L296.43,16.70L296.14,16.60L295.83,16.49L295.49,16.38L295.15,16.27L294.78,16.16L294.40,16.04L294.01,15.92L293.60,15.81L293.17,15.69L292.74,15.56L292.29,15.44L291.83,15.32L291.35,15.20L290.87,15.08L290.38,14.96L289.87,14.84L289.36,14.72L288.84,14.60L288.31,14.48L287.78,14.36L287.24,14.25L286.69,14.14L286.14,14.03L285.58,13.92L285.02,13.81L284.46,13.70L283.90,13.60L283.33,13.50L282.76,13.41L282.19,13.31L281.63,13.22L281.06,13.14L280.49,13.05L279.93,12.97L279.37,12.89L278.81,12.82L278.23,12.74L247.66,9.14L213.36,9.04Z" />
        <path class="line"
            d="M213.32,8.96L176.56,7.39L139.21,15.86L130.83,19.40L122.77,23.26L115.00,27.43L107.52,31.91L100.34,36.69L93.46,41.76L86.89,47.12L80.66,52.75L74.75,58.65L69.19,64.81L63.98,71.23L59.13,77.88L54.66,84.78L50.56,91.89L46.85,99.23L43.54,106.77L40.64,114.52L38.15,122.46L36.09,130.58L34.47,138.87L33.28,147.33L32.55,155.95L32.28,164.71L32.49,173.62L33.17,182.65L34.33,191.80L35.99,201.06L38.16,210.43L40.84,219.89L44.04,229.44L47.76,239.06L52.03,248.76L56.84,258.51L62.21,268.31L68.14,278.16L74.63,288.04L81.71,297.95L89.38,307.87L97.64,317.81L106.51,327.75L115.99,337.68L126.09,347.59L136.82,357.49L148.19,367.35L160.21,377.17L172.88,386.95L186.22,396.67L200.23,406.32L214.92,415.91L230.30,425.41L230.82,424.56L215.49,415.01L200.85,405.39L186.90,395.70L173.63,385.95L161.02,376.15L149.07,366.30L137.77,356.42L127.11,346.52L117.08,336.60L107.68,326.67L98.88,316.74L90.69,306.82L83.10,296.92L76.10,287.04L69.67,277.20L63.81,267.40L58.51,257.64L53.76,247.95L49.55,238.33L45.87,228.78L42.72,219.31L40.08,209.94L37.95,200.66L36.31,191.50L35.16,182.45L34.48,173.52L34.28,164.72L34.53,156.06L35.24,147.55L36.39,139.19L37.98,131.00L39.99,122.97L42.41,115.13L45.25,107.47L48.49,100.00L52.12,92.73L56.13,85.67L60.52,78.84L65.28,72.22L70.40,65.84L75.87,59.71L81.68,53.82L87.83,48.20L94.30,42.84L101.09,37.76L108.19,32.96L115.59,28.46L123.29,24.26L131.27,20.37L139.46,16.82L176.65,8.39L213.28,9.96Z" />
        <path class="line"
            d="M51.50,74.25L46.51,81.13L41.88,88.13L37.60,95.24L33.67,102.46L30.10,109.78L26.88,117.19L24.01,124.69L21.48,132.26L19.30,139.91L17.47,147.62L15.98,155.38L14.84,163.20L14.03,171.06L13.57,178.95L13.44,186.88L13.65,194.82L14.20,202.78L15.08,210.74L16.29,218.71L17.83,226.66L19.70,234.60L21.89,242.52L24.41,250.41L27.26,258.26L30.42,266.06L33.90,273.82L37.71,281.52L41.82,289.15L46.25,296.71L50.99,304.19L56.05,311.58L61.41,318.88L67.07,326.08L73.04,333.17L79.32,340.14L85.89,347.00L92.76,353.73L99.93,360.32L107.39,366.77L115.14,373.07L123.19,379.21L131.52,385.19L140.15,391.00L149.05,396.64L158.24,402.09L167.72,407.36L177.47,412.42L187.50,417.29L197.80,421.94L208.37,426.37L208.76,425.45L198.23,420.97L187.98,416.27L178.00,411.36L168.31,406.26L158.90,400.96L149.77,395.47L140.93,389.81L132.37,383.98L124.11,377.98L116.13,371.82L108.44,365.51L101.05,359.06L93.95,352.47L87.15,345.76L80.64,338.92L74.44,331.96L68.53,324.89L62.92,317.73L57.62,310.46L52.63,303.11L47.93,295.68L43.55,288.18L39.48,280.60L35.71,272.97L32.26,265.28L29.12,257.54L26.30,249.76L23.79,241.95L21.60,234.11L19.74,226.25L18.19,218.37L16.97,210.49L16.07,202.61L15.50,194.73L15.25,186.86L15.34,179.02L15.76,171.19L16.51,163.40L17.60,155.65L19.03,147.94L20.79,140.29L22.90,132.69L25.35,125.16L28.15,117.70L31.29,110.32L34.79,103.03L38.63,95.83L42.83,88.72L47.39,81.73L52.31,74.84Z" />
        <path class="line"
            d="M185.13,423.78L178.04,421.08L171.07,418.25L164.21,415.30L157.48,412.23L150.86,409.03L144.37,405.71L138.00,402.28L131.75,398.73L125.63,395.08L119.64,391.31L113.78,387.44L108.06,383.46L102.46,379.38L97.00,375.20L91.68,370.93L86.49,366.56L81.45,362.10L76.54,357.55L71.78,352.91L67.16,348.19L62.69,343.39L58.36,338.50L54.19,333.54L50.16,328.50L46.29,323.39L42.57,318.21L39.00,312.96L35.60,307.64L32.35,302.26L29.26,296.81L26.33,291.31L23.57,285.74L20.97,280.13L18.54,274.45L16.28,268.73L14.19,262.96L12.27,257.14L10.52,251.27L8.95,245.36L7.56,239.42L6.35,233.43L5.32,227.41L4.47,221.35L3.81,215.26L3.33,209.14L3.04,203.00L2.95,196.83L3.05,190.63L3.34,184.42L3.83,178.18L2.83,178.10L2.28,184.35L1.92,190.59L1.76,196.82L1.80,203.03L2.02,209.22L2.44,215.38L3.05,221.52L3.85,227.63L4.84,233.71L6.01,239.75L7.36,245.75L8.90,251.72L10.61,257.65L12.51,263.53L14.58,269.37L16.83,275.15L19.25,280.88L21.85,286.56L24.61,292.19L27.55,297.75L30.65,303.25L33.91,308.69L37.34,314.05L40.93,319.35L44.68,324.58L48.58,329.73L52.65,334.81L56.86,339.80L61.23,344.71L65.75,349.54L70.42,354.28L75.23,358.93L80.19,363.50L85.29,367.96L90.53,372.33L95.91,376.60L101.43,380.77L107.09,384.84L112.87,388.80L118.79,392.65L124.84,396.39L131.01,400.02L137.31,403.53L143.74,406.93L150.28,410.20L156.95,413.36L163.73,416.39L170.64,419.29L177.65,422.07L184.78,424.72Z" />
        <path class="line"
            d="M424.40,207.00L424.40,203.21L423.99,199.31L423.19,195.35L422.01,191.32L420.47,187.24L418.60,183.11L416.40,178.93L413.89,174.72L411.10,170.47L408.03,166.20L404.70,161.91L401.13,157.60L397.34,153.28L393.34,148.95L389.15,144.63L384.78,140.32L380.25,136.02L375.58,131.74L370.78,127.48L365.87,123.25L360.87,119.06L355.78,114.92L350.64,110.82L345.45,106.77L340.23,102.79L334.99,98.86L329.76,95.01L324.55,91.24L319.37,87.55L314.25,83.95L309.19,80.44L304.22,77.03L299.35,73.73L294.59,70.54L289.97,67.46L285.50,64.51L281.19,61.68L277.06,58.99L273.14,56.44L269.42,54.04L265.94,51.79L262.71,49.69L259.74,47.76L257.05,45.99L254.65,44.40L252.57,42.99L250.83,41.77L249.43,40.74L248.40,39.92L247.69,39.26L224.83,21.78L213.71,9.22L212.96,9.88L224.17,22.53L247.08,40.05L247.69,40.71L248.73,41.63L250.12,42.73L251.85,44.01L253.91,45.48L256.28,47.13L258.95,48.94L261.89,50.93L265.10,53.07L268.55,55.37L272.24,57.81L276.14,60.40L280.24,63.13L284.52,65.98L288.97,68.96L293.56,72.07L298.29,75.28L303.14,78.60L308.09,82.03L313.13,85.55L318.24,89.16L323.39,92.85L328.59,96.62L333.80,100.47L339.02,104.38L344.23,108.35L349.41,112.38L354.54,116.46L359.61,120.58L364.61,124.74L369.51,128.94L374.31,133.15L378.98,137.39L383.50,141.65L387.87,145.91L392.06,150.18L396.06,154.44L399.86,158.70L403.43,162.94L406.76,167.16L409.84,171.35L412.64,175.51L415.16,179.64L417.37,183.72L419.27,187.75L420.83,191.73L422.03,195.64L422.88,199.50L423.34,203.27L423.40,207.01Z" />
        <path class="line"
            d="M414.18,141.76L412.74,138.87L411.10,135.96L409.28,133.06L407.28,130.17L405.12,127.29L402.79,124.42L400.32,121.57L397.71,118.73L394.96,115.91L392.09,113.11L389.10,110.33L385.99,107.57L382.79,104.84L379.49,102.13L376.10,99.45L372.64,96.80L369.11,94.18L365.51,91.60L361.86,89.04L358.16,86.53L354.42,84.05L350.65,81.61L346.86,79.21L343.06,76.86L339.25,74.54L335.44,72.28L331.63,70.06L327.85,67.89L324.09,65.77L320.36,63.71L316.68,61.69L313.04,59.74L309.46,57.84L305.94,55.99L302.50,54.21L299.14,52.49L295.87,50.84L292.69,49.25L289.62,47.72L286.66,46.26L283.82,44.88L281.11,43.56L278.54,42.31L276.11,41.14L273.83,40.05L271.72,39.03L269.77,38.09L268.00,37.23L266.42,36.46L265.03,35.76L235.39,19.90L213.62,9.09L213.17,9.99L234.93,20.79L264.56,36.65L265.93,37.40L267.49,38.24L269.24,39.15L271.16,40.15L273.25,41.22L275.50,42.37L277.90,43.59L280.45,44.89L283.14,46.25L285.95,47.68L288.88,49.18L291.93,50.75L295.08,52.38L298.33,54.07L301.67,55.82L305.09,57.63L308.58,59.49L312.14,61.41L315.75,63.39L319.42,65.41L323.13,67.49L326.87,69.61L330.64,71.78L334.42,74.00L338.22,76.26L342.02,78.56L345.81,80.90L349.59,83.28L353.35,85.70L357.07,88.15L360.77,90.64L364.41,93.15L368.00,95.70L371.54,98.28L375.00,100.89L378.38,103.52L381.69,106.17L384.89,108.85L388.00,111.55L391.00,114.27L393.88,117.01L396.64,119.76L399.27,122.53L401.75,125.31L404.09,128.11L406.27,130.91L408.29,133.72L410.14,136.55L411.80,139.37L413.29,142.22Z" />
        <path class="line"
            d="M394.48,100.93L393.39,99.07L392.15,97.20L390.78,95.33L389.27,93.46L387.64,91.59L385.90,89.72L384.04,87.85L382.07,85.99L380.00,84.14L377.84,82.29L375.59,80.45L373.25,78.62L370.83,76.81L368.34,75.00L365.78,73.21L363.17,71.44L360.49,69.68L357.76,67.94L354.99,66.23L352.18,64.53L349.33,62.85L346.46,61.20L343.56,59.57L340.64,57.97L337.72,56.40L334.78,54.86L331.85,53.34L328.92,51.86L326.00,50.41L323.10,48.99L320.22,47.61L317.37,46.27L314.55,44.96L311.77,43.69L309.03,42.47L306.34,41.28L303.71,40.14L301.14,39.04L298.64,37.98L296.21,36.98L293.85,36.01L291.58,35.10L289.40,34.24L287.32,33.43L285.33,32.67L283.45,31.96L281.69,31.31L280.04,30.72L278.51,30.18L277.10,29.69L241.76,17.79L213.55,9.04L213.25,9.99L241.46,18.74L276.78,30.64L278.14,31.18L279.64,31.77L281.26,32.42L283.00,33.13L284.85,33.89L286.81,34.70L288.87,35.56L291.02,36.47L293.26,37.43L295.59,38.44L297.99,39.49L300.47,40.58L303.01,41.72L305.62,42.90L308.28,44.12L311.00,45.37L313.75,46.66L316.55,47.99L319.38,49.35L322.24,50.75L325.13,52.17L328.03,53.63L330.94,55.12L333.86,56.63L336.78,58.17L339.69,59.73L342.59,61.32L345.48,62.93L348.35,64.56L351.18,66.21L353.99,67.88L356.75,69.56L359.48,71.26L362.15,72.98L364.77,74.71L367.32,76.45L369.82,78.20L372.23,79.97L374.58,81.74L376.83,83.52L379.00,85.30L381.08,87.09L383.05,88.88L384.92,90.68L386.68,92.48L388.32,94.27L389.84,96.07L391.24,97.86L392.50,99.65L393.63,101.45Z" />
        <path class="line"
            d="M353.21,52.36L351.67,51.44L350.10,50.53L348.48,49.62L346.83,48.72L345.15,47.82L343.45,46.93L341.71,46.05L339.96,45.17L338.18,44.31L336.39,43.45L334.58,42.61L332.76,41.77L330.93,40.95L329.10,40.14L327.27,39.34L325.44,38.56L323.61,37.79L321.78,37.04L319.97,36.30L318.17,35.58L316.38,34.87L314.61,34.19L312.87,33.52L311.14,32.86L309.45,32.23L307.78,31.62L306.15,31.03L304.55,30.46L302.99,29.91L301.48,29.38L300.00,28.87L298.58,28.39L297.20,27.93L295.88,27.50L294.62,27.09L293.42,26.70L292.27,26.34L291.20,26.01L290.19,25.70L289.25,25.42L288.39,25.17L287.60,24.94L286.90,24.75L286.28,24.58L285.74,24.44L285.29,24.33L284.94,24.25L284.68,24.20L284.52,24.18L284.43,24.19L247.45,15.04L213.47,9.05L213.29,10.03L247.24,16.02L284.19,25.16L284.20,25.20L284.34,25.28L284.58,25.38L284.92,25.52L285.35,25.69L285.86,25.88L286.46,26.10L287.15,26.35L287.92,26.63L288.76,26.93L289.68,27.26L290.67,27.61L291.73,27.98L292.85,28.38L294.04,28.80L295.29,29.24L296.60,29.71L297.96,30.19L299.37,30.70L300.83,31.22L302.33,31.76L303.88,32.32L305.47,32.90L307.09,33.50L308.75,34.11L310.44,34.74L312.16,35.38L313.90,36.04L315.67,36.71L317.46,37.39L319.26,38.09L321.07,38.81L322.90,39.53L324.73,40.26L326.57,41.01L328.41,41.77L330.25,42.54L332.08,43.31L333.91,44.10L335.73,44.89L337.53,45.70L339.32,46.51L341.09,47.33L342.84,48.15L344.56,48.99L346.26,49.82L347.92,50.67L349.55,51.52L351.15,52.37L352.71,53.23Z" />
        <path class="line"
            d="M213.32,10.02L250.10,13.37L285.15,19.79L285.46,19.89L285.82,19.99L286.21,20.10L286.63,20.22L287.09,20.35L287.57,20.50L288.09,20.64L288.63,20.80L289.21,20.97L289.81,21.14L290.43,21.32L291.08,21.51L291.76,21.70L292.45,21.90L293.17,22.11L293.91,22.32L294.67,22.54L295.45,22.77L296.24,23.00L297.05,23.23L297.87,23.47L298.71,23.72L299.56,23.97L300.43,24.22L301.30,24.48L302.18,24.74L303.08,25.01L303.97,25.28L304.88,25.55L305.79,25.83L306.70,26.10L307.62,26.39L308.54,26.67L309.46,26.96L310.38,27.25L311.30,27.54L312.21,27.83L313.12,28.13L314.03,28.43L314.93,28.73L315.82,29.03L316.71,29.33L317.59,29.64L318.45,29.95L319.30,30.26L320.15,30.57L320.97,30.88L321.79,31.19L322.58,31.51L323.37,31.82L323.77,30.91L323.01,30.53L322.23,30.16L321.44,29.78L320.62,29.41L319.79,29.04L318.95,28.67L318.10,28.31L317.23,27.95L316.36,27.59L315.48,27.24L314.58,26.89L313.68,26.54L312.78,26.20L311.87,25.86L310.96,25.53L310.04,25.21L309.12,24.89L308.21,24.57L307.29,24.27L306.38,23.96L305.46,23.67L304.56,23.38L303.65,23.10L302.76,22.83L301.87,22.56L300.99,22.31L300.12,22.06L299.26,21.81L298.41,21.58L297.57,21.36L296.75,21.14L295.95,20.93L295.16,20.73L294.39,20.54L293.63,20.36L292.90,20.19L292.19,20.03L291.50,19.87L290.83,19.73L290.19,19.60L289.57,19.47L288.98,19.36L288.41,19.26L287.88,19.16L287.37,19.08L286.90,19.00L286.45,18.94L286.04,18.89L285.67,18.84L285.33,18.81L250.24,12.37L213.41,9.03Z" />
        <path class="line"
            d="M213.40,10.01L248.78,6.43L267.39,7.95L267.47,6.95L248.74,5.43L213.30,9.01Z" />
        <path class="line"
            d="M213.47,9.99L235.29,4.66L247.67,3.69L247.59,2.70L235.11,3.68L213.23,9.02Z" />
        <path class="line"
            d="M213.63,9.94L225.67,3.11L229.61,1.58L229.24,0.65L225.20,2.23L213.14,9.07Z" />
        <path class="line"
            d="M213.78,9.35L217.71,3.98L217.43,0.57L216.43,0.67L216.79,3.59L212.97,8.76Z" />
        <path class="line"
            d="M149.38,34.29L176.89,17.53L213.43,10.02L213.23,9.04L176.54,16.60L148.86,33.43Z" />
    </g>
    <g id="dots">
        <circle class="dot" cx="213.34" cy="9.55" r="4" />
        <circle class="dot" cx="204.21" cy="31.78" r="4" />
        <circle class="dot" cx="186.47" cy="53.75" r="4" />
        <circle class="dot" cx="159.95" cy="76.54" r="4" />
        <circle class="dot" cx="127.14" cy="102.59" r="4" />
        <circle class="dot" cx="92.68" cy="130.82" r="4" />
        <circle class="dot" cx="61.04" cy="159.54" r="4" />
        <circle class="dot" cx="34.84" cy="188.07" r="4" />
        <circle class="dot" cx="16.65" cy="214.82" r="4" />
        <circle class="dot" cx="6.87" cy="239.98" r="4" />
        <circle class="dot" cx="220.47" cy="31.70" r="4" />
        <circle class="dot" cx="212.22" cy="57.00" r="4" />
        <circle class="dot" cx="195.10" cy="79.99" r="4" />
        <circle class="dot" cx="167.84" cy="109.10" r="4" />
        <circle class="dot" cx="136.25" cy="140.22" r="4" />
        <circle class="dot" cx="103.82" cy="172.26" r="4" />
        <circle class="dot" cx="74.26" cy="203.56" r="4" />
        <circle class="dot" cx="47.71" cy="236.34" r="4" />
        <circle class="dot" cx="30.84" cy="264.44" r="4" />
        <circle class="dot" cx="23.30" cy="287.37" r="4" />
        <circle class="dot" cx="237.98" cy="53.73" r="4" />
        <circle class="dot" cx="229.35" cy="79.98" r="4" />
        <circle class="dot" cx="212.23" cy="109.83" r="4" />
        <circle class="dot" cx="185.60" cy="144.27" r="4" />
        <circle class="dot" cx="155.25" cy="177.76" r="4" />
        <circle class="dot" cx="123.51" cy="210.76" r="4" />
        <circle class="dot" cx="94.51" cy="241.66" r="4" />
        <circle class="dot" cx="67.19" cy="274.85" r="4" />
        <circle class="dot" cx="50.91" cy="302.23" r="4" />
        <circle class="dot" cx="44.90" cy="323.18" r="4" />
        <circle class="dot" cx="235.98" cy="30.93" r="4" />
        <circle class="dot" cx="264.52" cy="76.45" r="4" />
        <circle class="dot" cx="256.63" cy="109.12" r="4" />
        <circle class="dot" cx="238.85" cy="144.31" r="4" />
        <circle class="dot" cx="212.23" cy="181.50" r="4" />
        <circle class="dot" cx="182.35" cy="216.40" r="4" />
        <circle class="dot" cx="150.90" cy="250.44" r="4" />
        <circle class="dot" cx="122.59" cy="281.37" r="4" />
        <circle class="dot" cx="95.86" cy="314.39" r="4" />
        <circle class="dot" cx="80.87" cy="340.47" r="4" />
        <circle class="dot" cx="76.47" cy="358.78" r="4" />
        <circle class="dot" cx="263.34" cy="50.99" r="4" />
        <circle class="dot" cx="249.62" cy="28.09" r="4" />
        <circle class="dot" cx="275.32" cy="33.86" r="4" />
        <circle class="dot" cx="297.32" cy="102.38" r="4" />
        <circle class="dot" cx="288.19" cy="140.19" r="4" />
        <circle class="dot" cx="269.12" cy="177.75" r="4" />
        <circle class="dot" cx="242.00" cy="216.30" r="4" />
        <circle class="dot" cx="212.10" cy="252.09" r="4" />
        <circle class="dot" cx="180.69" cy="286.81" r="4" />
        <circle class="dot" cx="153.01" cy="317.31" r="4" />
        <circle class="dot" cx="127.74" cy="348.09" r="4" />
        <circle class="dot" cx="113.88" cy="371.02" r="4" />
        <circle class="dot" cx="110.04" cy="385.86" r="4" />
        <circle class="dot" cx="294.92" cy="71.87" r="4" />
        <circle class="dot" cx="283.73" cy="45.69" r="4" />
        <circle class="dot" cx="331.80" cy="130.42" r="4" />
        <circle class="dot" cx="320.59" cy="172.18" r="4" />
        <circle class="dot" cx="300.82" cy="210.75" r="4" />
        <circle class="dot" cx="273.42" cy="250.33" r="4" />
        <circle class="dot" cx="243.45" cy="286.83" r="4" />
        <circle class="dot" cx="212.03" cy="321.69" r="4" />
        <circle class="dot" cx="184.85" cy="351.00" r="4" />
        <circle class="dot" cx="161.62" cy="377.44" r="4" />
        <circle class="dot" cx="148.65" cy="395.56" r="4" />
        <circle class="dot" cx="144.35" cy="406.47" r="4" />
        <circle class="dot" cx="330.62" cy="96.88" r="4" />
        <circle class="dot" cx="316.56" cy="62.73" r="4" />
        <circle class="dot" cx="294.40" cy="37.08" r="4" />
        <circle class="dot" cx="363.49" cy="158.90" r="4" />
        <circle class="dot" cx="350.23" cy="203.45" r="4" />
        <circle class="dot" cx="329.89" cy="241.71" r="4" />
        <circle class="dot" cx="301.85" cy="281.37" r="4" />
        <circle class="dot" cx="271.24" cy="317.52" r="4" />
        <circle class="dot" cx="239.37" cy="351.23" r="4" />
        <circle class="dot" cx="212.22" cy="378.42" r="4" />
        <circle class="dot" cx="191.35" cy="399.53" r="4" />
        <circle class="dot" cx="179.55" cy="412.78" r="4" />
        <circle class="dot" cx="174.51" cy="420.25" r="4" />
        <circle class="dot" cx="363.94" cy="122.91" r="4" />
        <circle class="dot" cx="350.00" cy="82.37" r="4" />
        <circle class="dot" cx="325.31" cy="51.17" r="4" />
        <circle class="dot" cx="298.07" cy="29.22" r="4" />
        <circle class="dot" cx="266.112" cy="15.969" r="4" />
        <circle class="dot" cx="389.73" cy="187.00" r="4" />
        <circle class="dot" cx="376.83" cy="236.05" r="4" />
        <circle class="dot" cx="357.27" cy="274.82" r="4" />
        <circle class="dot" cx="328.64" cy="314.31" r="4" />
        <circle class="dot" cx="296.51" cy="348.27" r="4" />
        <circle class="dot" cx="262.56" cy="377.64" r="4" />
        <circle class="dot" cx="233.09" cy="399.53" r="4" />
        <circle class="dot" cx="212.22" cy="413.50" r="4" />
        <circle class="dot" cx="198.95" cy="421.85" r="4" />
        <circle class="dot" cx="390.10" cy="146.89" r="4" />
        <circle class="dot" cx="377.79" cy="101.92" r="4" />
        <circle class="dot" cx="357.62" cy="68.98" r="4" />
        <circle class="dot" cx="328.85" cy="40.99" r="4" />
        <circle class="dot" cx="408.57" cy="213.85" r="4" />
        <circle class="dot" cx="394.07" cy="264.12" r="4" />
        <circle class="dot" cx="373.80" cy="302.08" r="4" />
        <circle class="dot" cx="343.86" cy="340.20" r="4" />
        <circle class="dot" cx="310.46" cy="371.09" r="4" />
        <circle class="dot" cx="275.54" cy="395.71" r="4" />
        <circle class="dot" cx="244.89" cy="412.77" r="4" />
        <circle class="dot" cx="225.49" cy="421.85" r="4" />
        <circle class="dot" cx="410.41" cy="170.85" r="4" />
        <circle class="dot" cx="400.13" cy="122.43" r="4" />
        <circle class="dot" cx="383.64" cy="88.47" r="4" />
        <circle class="dot" cx="419.12" cy="239.84" r="4" />
        <circle class="dot" cx="402.14" cy="287.50" r="4" />
        <circle class="dot" cx="380.24" cy="323.14" r="4" />
        <circle class="dot" cx="348.69" cy="358.40" r="4" />
        <circle class="dot" cx="314.57" cy="385.82" r="4" />
        <circle class="dot" cx="279.97" cy="406.54" r="4" />
        <circle class="dot" cx="249.93" cy="420.25" r="4" />
        <circle class="dot" cx="423.83" cy="203.06" r="4" />
        <circle class="dot" cx="188.43" cy="30.99" r="4" />
        <circle class="dot" cx="161.10" cy="50.99" r="4" />
        <circle class="dot" cx="129.53" cy="71.86" r="4" />
        <circle class="dot" cx="93.83" cy="96.87" r="4" />
        <circle class="dot" cx="60.50" cy="122.91" r="4" />
        <circle class="dot" cx="34.34" cy="146.89" r="4" />
        <circle class="dot" cx="15.07" cy="169.39" r="4" />
        <circle class="dot" cx="2.40" cy="193.51" r="4" />
        <circle class="dot" cx="174.45" cy="28.29" r="4" />
        <circle class="dot" cx="140.62" cy="45.84" r="4" />
        <circle class="dot" cx="107.45" cy="63.39" r="4" />
        <circle class="dot" cx="73.72" cy="83.71" r="4" />
        <circle class="dot" cx="45.68" cy="104.13" r="4" />
        <circle class="dot" cx="25.10" cy="123.81" r="4" />
        <circle class="dot" cx="129.81" cy="37.30" r="4" />
        <circle class="dot" cx="98.07" cy="52.25" r="4" />
        <circle class="dot" cx="64.90" cy="71.40" r="4" />
        <circle class="dot" cx="41.49" cy="89.88" r="4" />
        <circle class="dot" cx="165.08" cy="24.15" r="4" />
        <circle class="dot" cx="125.68" cy="29.72" r="4" />
        <circle class="dot" cx="93.17" cy="42.90" r="4" />
        <circle class="dot" cx="158.599" cy="15.521" r="4" />
        <circle class="dot" cx="259.72" cy="24.37" r="4" />
        <circle class="dot" cx="149.12" cy="33.86" r="4" />
    </g>
</svg>